%FSLAX45Y45*%
G04 Gerber Fmt 4.5, Leading zero omitted, Abs format (unit mm)*
G04 Created by KiCad (PCBNEW (6.0.0)) date 2024-05-18 14:08:51*
%MOMM*%
%LPD*%
G01*
G04 APERTURE LIST*
%TA.AperFunction,Profile*%
%ADD10C,0.100000*%
%TD*%
%ADD11C,0.200000*%
%ADD12C,0.076200*%
%ADD13C,0.080000*%
%ADD14C,0.100000*%
G04 APERTURE END LIST*
D10*
X1778000Y-2540000D02*
X1778000Y-7366000D01*
X2032000Y-2286000D02*
G75*
G03*
X1778000Y-2540000I0J-254000D01*
G01*
X8128000Y-7620000D02*
G75*
G03*
X8382000Y-7366000I0J254000D01*
G01*
X1778000Y-7366000D02*
G75*
G03*
X2032000Y-7620000I254000J0D01*
G01*
X2032000Y-7620000D02*
X8128000Y-7620000D01*
X8382000Y-7366000D02*
X8382000Y-2540000D01*
X8382000Y-2540000D02*
G75*
G03*
X8128000Y-2286000I-254000J0D01*
G01*
X8128000Y-2286000D02*
X2032000Y-2286000D01*
D11*
D12*
X3263900Y-3136900D02*
X3340100Y-3213100D01*
X3340100Y-3136900D02*
X3263900Y-3213100D01*
X3263900Y-5930900D02*
X3340100Y-6007100D01*
X3340100Y-5930900D02*
X3263900Y-6007100D01*
X3517900Y-3136900D02*
X3594100Y-3213100D01*
X3594100Y-3136900D02*
X3517900Y-3213100D01*
X3517900Y-5930900D02*
X3594100Y-6007100D01*
X3594100Y-5930900D02*
X3517900Y-6007100D01*
X3581400Y-4533900D02*
X3657600Y-4610100D01*
X3657600Y-4533900D02*
X3581400Y-4610100D01*
X3581400Y-4787900D02*
X3657600Y-4864100D01*
X3657600Y-4787900D02*
X3581400Y-4864100D01*
X3581400Y-5041900D02*
X3657600Y-5118100D01*
X3657600Y-5041900D02*
X3581400Y-5118100D01*
X3581400Y-5295900D02*
X3657600Y-5372100D01*
X3657600Y-5295900D02*
X3581400Y-5372100D01*
X3771900Y-3136900D02*
X3848100Y-3213100D01*
X3848100Y-3136900D02*
X3771900Y-3213100D01*
X3771900Y-5930900D02*
X3848100Y-6007100D01*
X3848100Y-5930900D02*
X3771900Y-6007100D01*
X3835400Y-4533900D02*
X3911600Y-4610100D01*
X3911600Y-4533900D02*
X3835400Y-4610100D01*
X4089400Y-4533900D02*
X4165600Y-4610100D01*
X4165600Y-4533900D02*
X4089400Y-4610100D01*
X4279900Y-3136900D02*
X4356100Y-3213100D01*
X4356100Y-3136900D02*
X4279900Y-3213100D01*
X4279900Y-3898900D02*
X4356100Y-3975100D01*
X4356100Y-3898900D02*
X4279900Y-3975100D01*
X4279900Y-5930900D02*
X4356100Y-6007100D01*
X4356100Y-5930900D02*
X4279900Y-6007100D01*
X4279900Y-6692900D02*
X4356100Y-6769100D01*
X4356100Y-6692900D02*
X4279900Y-6769100D01*
X4343400Y-4533900D02*
X4419600Y-4610100D01*
X4419600Y-4533900D02*
X4343400Y-4610100D01*
X4343400Y-4787900D02*
X4419600Y-4864100D01*
X4419600Y-4787900D02*
X4343400Y-4864100D01*
X4343400Y-5041900D02*
X4419600Y-5118100D01*
X4419600Y-5041900D02*
X4343400Y-5118100D01*
X4343400Y-5295900D02*
X4419600Y-5372100D01*
X4419600Y-5295900D02*
X4343400Y-5372100D01*
X4533900Y-3136900D02*
X4610100Y-3213100D01*
X4610100Y-3136900D02*
X4533900Y-3213100D01*
X4533900Y-3898900D02*
X4610100Y-3975100D01*
X4610100Y-3898900D02*
X4533900Y-3975100D01*
X4533900Y-5930900D02*
X4610100Y-6007100D01*
X4610100Y-5930900D02*
X4533900Y-6007100D01*
X4533900Y-6692900D02*
X4610100Y-6769100D01*
X4610100Y-6692900D02*
X4533900Y-6769100D01*
X4787900Y-3136900D02*
X4864100Y-3213100D01*
X4864100Y-3136900D02*
X4787900Y-3213100D01*
X4787900Y-3898900D02*
X4864100Y-3975100D01*
X4864100Y-3898900D02*
X4787900Y-3975100D01*
X4787900Y-4660900D02*
X4864100Y-4737100D01*
X4864100Y-4660900D02*
X4787900Y-4737100D01*
X4787900Y-4914900D02*
X4864100Y-4991100D01*
X4864100Y-4914900D02*
X4787900Y-4991100D01*
X4787900Y-5168900D02*
X4864100Y-5245100D01*
X4864100Y-5168900D02*
X4787900Y-5245100D01*
X4787900Y-5930900D02*
X4864100Y-6007100D01*
X4864100Y-5930900D02*
X4787900Y-6007100D01*
X4787900Y-6692900D02*
X4864100Y-6769100D01*
X4864100Y-6692900D02*
X4787900Y-6769100D01*
X5041900Y-3136900D02*
X5118100Y-3213100D01*
X5118100Y-3136900D02*
X5041900Y-3213100D01*
X5041900Y-3898900D02*
X5118100Y-3975100D01*
X5118100Y-3898900D02*
X5041900Y-3975100D01*
X5041900Y-5930900D02*
X5118100Y-6007100D01*
X5118100Y-5930900D02*
X5041900Y-6007100D01*
X5041900Y-6692900D02*
X5118100Y-6769100D01*
X5118100Y-6692900D02*
X5041900Y-6769100D01*
X5295900Y-4660900D02*
X5372100Y-4737100D01*
X5372100Y-4660900D02*
X5295900Y-4737100D01*
X5295900Y-4914900D02*
X5372100Y-4991100D01*
X5372100Y-4914900D02*
X5295900Y-4991100D01*
X5295900Y-5168900D02*
X5372100Y-5245100D01*
X5372100Y-5168900D02*
X5295900Y-5245100D01*
X5676900Y-3136900D02*
X5753100Y-3213100D01*
X5753100Y-3136900D02*
X5676900Y-3213100D01*
X5676900Y-3390900D02*
X5753100Y-3467100D01*
X5753100Y-3390900D02*
X5676900Y-3467100D01*
X5676900Y-3644900D02*
X5753100Y-3721100D01*
X5753100Y-3644900D02*
X5676900Y-3721100D01*
X5676900Y-3898900D02*
X5753100Y-3975100D01*
X5753100Y-3898900D02*
X5676900Y-3975100D01*
X5676900Y-5930900D02*
X5753100Y-6007100D01*
X5753100Y-5930900D02*
X5676900Y-6007100D01*
X5676900Y-6184900D02*
X5753100Y-6261100D01*
X5753100Y-6184900D02*
X5676900Y-6261100D01*
X5676900Y-6438900D02*
X5753100Y-6515100D01*
X5753100Y-6438900D02*
X5676900Y-6515100D01*
X5676900Y-6692900D02*
X5753100Y-6769100D01*
X5753100Y-6692900D02*
X5676900Y-6769100D01*
X5930900Y-3136900D02*
X6007100Y-3213100D01*
X6007100Y-3136900D02*
X5930900Y-3213100D01*
X5930900Y-3390900D02*
X6007100Y-3467100D01*
X6007100Y-3390900D02*
X5930900Y-3467100D01*
X5930900Y-5930900D02*
X6007100Y-6007100D01*
X6007100Y-5930900D02*
X5930900Y-6007100D01*
X5930900Y-6184900D02*
X6007100Y-6261100D01*
X6007100Y-6184900D02*
X5930900Y-6261100D01*
X6184900Y-3644900D02*
X6261100Y-3721100D01*
X6261100Y-3644900D02*
X6184900Y-3721100D01*
X6184900Y-3898900D02*
X6261100Y-3975100D01*
X6261100Y-3898900D02*
X6184900Y-3975100D01*
X6184900Y-6438900D02*
X6261100Y-6515100D01*
X6261100Y-6438900D02*
X6184900Y-6515100D01*
X6184900Y-6692900D02*
X6261100Y-6769100D01*
X6261100Y-6692900D02*
X6184900Y-6769100D01*
X6438900Y-3136900D02*
X6515100Y-3213100D01*
X6515100Y-3136900D02*
X6438900Y-3213100D01*
X6438900Y-3390900D02*
X6515100Y-3467100D01*
X6515100Y-3390900D02*
X6438900Y-3467100D01*
X6438900Y-3644900D02*
X6515100Y-3721100D01*
X6515100Y-3644900D02*
X6438900Y-3721100D01*
X6438900Y-3898900D02*
X6515100Y-3975100D01*
X6515100Y-3898900D02*
X6438900Y-3975100D01*
X6438900Y-5930900D02*
X6515100Y-6007100D01*
X6515100Y-5930900D02*
X6438900Y-6007100D01*
X6438900Y-6184900D02*
X6515100Y-6261100D01*
X6515100Y-6184900D02*
X6438900Y-6261100D01*
X6438900Y-6438900D02*
X6515100Y-6515100D01*
X6515100Y-6438900D02*
X6438900Y-6515100D01*
X6438900Y-6692900D02*
X6515100Y-6769100D01*
X6515100Y-6692900D02*
X6438900Y-6769100D01*
X6565900Y-4787900D02*
X6642100Y-4864100D01*
X6642100Y-4787900D02*
X6565900Y-4864100D01*
X6565900Y-5041900D02*
X6642100Y-5118100D01*
X6642100Y-5041900D02*
X6565900Y-5118100D01*
X7010400Y-6438900D02*
X7086600Y-6515100D01*
X7086600Y-6438900D02*
X7010400Y-6515100D01*
X7010400Y-6692900D02*
X7086600Y-6769100D01*
X7086600Y-6692900D02*
X7010400Y-6769100D01*
X8026400Y-6438900D02*
X8102600Y-6515100D01*
X8102600Y-6438900D02*
X8026400Y-6515100D01*
X8026400Y-6692900D02*
X8102600Y-6769100D01*
X8102600Y-6692900D02*
X8026400Y-6769100D01*
D13*
X2389500Y-5715000D02*
G75*
G03*
X2389500Y-5715000I-40000J0D01*
G01*
X4866000Y-5715000D02*
G75*
G03*
X4866000Y-5715000I-40000J0D01*
G01*
X7048500Y-5738500D02*
X7048500Y-5818500D01*
X7008500Y-5778500D02*
X7088500Y-5778500D01*
X7048500Y-5988500D02*
X7048500Y-6068500D01*
X7008500Y-6028500D02*
X7088500Y-6028500D01*
X8064500Y-5736011D02*
X8064500Y-5816011D01*
X8024500Y-5776011D02*
X8104500Y-5776011D01*
X8064500Y-5986011D02*
X8064500Y-6066011D01*
X8024500Y-6026011D02*
X8104500Y-6026011D01*
D14*
X2702356Y-2575356D02*
X2702356Y-2504644D01*
X2631644Y-2504644D01*
X2631644Y-2575356D01*
X2702356Y-2575356D01*
X2702356Y-2829356D02*
X2702356Y-2758644D01*
X2631644Y-2758644D01*
X2631644Y-2829356D01*
X2702356Y-2829356D01*
X2702356Y-3210356D02*
X2702356Y-3139644D01*
X2631644Y-3139644D01*
X2631644Y-3210356D01*
X2702356Y-3210356D01*
X2702356Y-3464356D02*
X2702356Y-3393644D01*
X2631644Y-3393644D01*
X2631644Y-3464356D01*
X2702356Y-3464356D01*
X2702356Y-4607356D02*
X2702356Y-4536644D01*
X2631644Y-4536644D01*
X2631644Y-4607356D01*
X2702356Y-4607356D01*
X2702356Y-4861356D02*
X2702356Y-4790644D01*
X2631644Y-4790644D01*
X2631644Y-4861356D01*
X2702356Y-4861356D01*
X2702356Y-5115356D02*
X2702356Y-5044644D01*
X2631644Y-5044644D01*
X2631644Y-5115356D01*
X2702356Y-5115356D01*
X2702356Y-5369356D02*
X2702356Y-5298644D01*
X2631644Y-5298644D01*
X2631644Y-5369356D01*
X2702356Y-5369356D01*
X2702356Y-6004356D02*
X2702356Y-5933644D01*
X2631644Y-5933644D01*
X2631644Y-6004356D01*
X2702356Y-6004356D01*
X2702356Y-6258356D02*
X2702356Y-6187644D01*
X2631644Y-6187644D01*
X2631644Y-6258356D01*
X2702356Y-6258356D01*
X2702356Y-7147356D02*
X2702356Y-7076644D01*
X2631644Y-7076644D01*
X2631644Y-7147356D01*
X2702356Y-7147356D01*
X2702356Y-7401356D02*
X2702356Y-7330644D01*
X2631644Y-7330644D01*
X2631644Y-7401356D01*
X2702356Y-7401356D01*
X2956356Y-2575356D02*
X2956356Y-2504644D01*
X2885644Y-2504644D01*
X2885644Y-2575356D01*
X2956356Y-2575356D01*
X2956356Y-2829356D02*
X2956356Y-2758644D01*
X2885644Y-2758644D01*
X2885644Y-2829356D01*
X2956356Y-2829356D01*
X2956356Y-3210356D02*
X2956356Y-3139644D01*
X2885644Y-3139644D01*
X2885644Y-3210356D01*
X2956356Y-3210356D01*
X2956356Y-3464356D02*
X2956356Y-3393644D01*
X2885644Y-3393644D01*
X2885644Y-3464356D01*
X2956356Y-3464356D01*
X2956356Y-4607356D02*
X2956356Y-4536644D01*
X2885644Y-4536644D01*
X2885644Y-4607356D01*
X2956356Y-4607356D01*
X2956356Y-4861356D02*
X2956356Y-4790644D01*
X2885644Y-4790644D01*
X2885644Y-4861356D01*
X2956356Y-4861356D01*
X2956356Y-5115356D02*
X2956356Y-5044644D01*
X2885644Y-5044644D01*
X2885644Y-5115356D01*
X2956356Y-5115356D01*
X2956356Y-5369356D02*
X2956356Y-5298644D01*
X2885644Y-5298644D01*
X2885644Y-5369356D01*
X2956356Y-5369356D01*
X2956356Y-6004356D02*
X2956356Y-5933644D01*
X2885644Y-5933644D01*
X2885644Y-6004356D01*
X2956356Y-6004356D01*
X2956356Y-6258356D02*
X2956356Y-6187644D01*
X2885644Y-6187644D01*
X2885644Y-6258356D01*
X2956356Y-6258356D01*
X2956356Y-7147356D02*
X2956356Y-7076644D01*
X2885644Y-7076644D01*
X2885644Y-7147356D01*
X2956356Y-7147356D01*
X2956356Y-7401356D02*
X2956356Y-7330644D01*
X2885644Y-7330644D01*
X2885644Y-7401356D01*
X2956356Y-7401356D01*
X3210356Y-2575356D02*
X3210356Y-2504644D01*
X3139644Y-2504644D01*
X3139644Y-2575356D01*
X3210356Y-2575356D01*
X3210356Y-2829356D02*
X3210356Y-2758644D01*
X3139644Y-2758644D01*
X3139644Y-2829356D01*
X3210356Y-2829356D01*
X3210356Y-7147356D02*
X3210356Y-7076644D01*
X3139644Y-7076644D01*
X3139644Y-7147356D01*
X3210356Y-7147356D01*
X3210356Y-7401356D02*
X3210356Y-7330644D01*
X3139644Y-7330644D01*
X3139644Y-7401356D01*
X3210356Y-7401356D01*
X3464356Y-2575356D02*
X3464356Y-2504644D01*
X3393644Y-2504644D01*
X3393644Y-2575356D01*
X3464356Y-2575356D01*
X3464356Y-2829356D02*
X3464356Y-2758644D01*
X3393644Y-2758644D01*
X3393644Y-2829356D01*
X3464356Y-2829356D01*
X3464356Y-7147356D02*
X3464356Y-7076644D01*
X3393644Y-7076644D01*
X3393644Y-7147356D01*
X3464356Y-7147356D01*
X3464356Y-7401356D02*
X3464356Y-7330644D01*
X3393644Y-7330644D01*
X3393644Y-7401356D01*
X3464356Y-7401356D01*
X3718356Y-2575356D02*
X3718356Y-2504644D01*
X3647644Y-2504644D01*
X3647644Y-2575356D01*
X3718356Y-2575356D01*
X3718356Y-2829356D02*
X3718356Y-2758644D01*
X3647644Y-2758644D01*
X3647644Y-2829356D01*
X3718356Y-2829356D01*
X3718356Y-7147356D02*
X3718356Y-7076644D01*
X3647644Y-7076644D01*
X3647644Y-7147356D01*
X3718356Y-7147356D01*
X3718356Y-7401356D02*
X3718356Y-7330644D01*
X3647644Y-7330644D01*
X3647644Y-7401356D01*
X3718356Y-7401356D01*
X3972356Y-2575356D02*
X3972356Y-2504644D01*
X3901644Y-2504644D01*
X3901644Y-2575356D01*
X3972356Y-2575356D01*
X3972356Y-2829356D02*
X3972356Y-2758644D01*
X3901644Y-2758644D01*
X3901644Y-2829356D01*
X3972356Y-2829356D01*
X3972356Y-7147356D02*
X3972356Y-7076644D01*
X3901644Y-7076644D01*
X3901644Y-7147356D01*
X3972356Y-7147356D01*
X3972356Y-7401356D02*
X3972356Y-7330644D01*
X3901644Y-7330644D01*
X3901644Y-7401356D01*
X3972356Y-7401356D01*
X4226356Y-2575356D02*
X4226356Y-2504644D01*
X4155644Y-2504644D01*
X4155644Y-2575356D01*
X4226356Y-2575356D01*
X4226356Y-2829356D02*
X4226356Y-2758644D01*
X4155644Y-2758644D01*
X4155644Y-2829356D01*
X4226356Y-2829356D01*
X4226356Y-7147356D02*
X4226356Y-7076644D01*
X4155644Y-7076644D01*
X4155644Y-7147356D01*
X4226356Y-7147356D01*
X4226356Y-7401356D02*
X4226356Y-7330644D01*
X4155644Y-7330644D01*
X4155644Y-7401356D01*
X4226356Y-7401356D01*
X4480356Y-2575356D02*
X4480356Y-2504644D01*
X4409644Y-2504644D01*
X4409644Y-2575356D01*
X4480356Y-2575356D01*
X4480356Y-2829356D02*
X4480356Y-2758644D01*
X4409644Y-2758644D01*
X4409644Y-2829356D01*
X4480356Y-2829356D01*
X4480356Y-7147356D02*
X4480356Y-7076644D01*
X4409644Y-7076644D01*
X4409644Y-7147356D01*
X4480356Y-7147356D01*
X4480356Y-7401356D02*
X4480356Y-7330644D01*
X4409644Y-7330644D01*
X4409644Y-7401356D01*
X4480356Y-7401356D01*
X4734356Y-2575356D02*
X4734356Y-2504644D01*
X4663644Y-2504644D01*
X4663644Y-2575356D01*
X4734356Y-2575356D01*
X4734356Y-2829356D02*
X4734356Y-2758644D01*
X4663644Y-2758644D01*
X4663644Y-2829356D01*
X4734356Y-2829356D01*
X4734356Y-7147356D02*
X4734356Y-7076644D01*
X4663644Y-7076644D01*
X4663644Y-7147356D01*
X4734356Y-7147356D01*
X4734356Y-7401356D02*
X4734356Y-7330644D01*
X4663644Y-7330644D01*
X4663644Y-7401356D01*
X4734356Y-7401356D01*
X4988356Y-2575356D02*
X4988356Y-2504644D01*
X4917644Y-2504644D01*
X4917644Y-2575356D01*
X4988356Y-2575356D01*
X4988356Y-2829356D02*
X4988356Y-2758644D01*
X4917644Y-2758644D01*
X4917644Y-2829356D01*
X4988356Y-2829356D01*
X4988356Y-7147356D02*
X4988356Y-7076644D01*
X4917644Y-7076644D01*
X4917644Y-7147356D01*
X4988356Y-7147356D01*
X4988356Y-7401356D02*
X4988356Y-7330644D01*
X4917644Y-7330644D01*
X4917644Y-7401356D01*
X4988356Y-7401356D01*
X5242356Y-2575356D02*
X5242356Y-2504644D01*
X5171644Y-2504644D01*
X5171644Y-2575356D01*
X5242356Y-2575356D01*
X5242356Y-2829356D02*
X5242356Y-2758644D01*
X5171644Y-2758644D01*
X5171644Y-2829356D01*
X5242356Y-2829356D01*
X5242356Y-7147356D02*
X5242356Y-7076644D01*
X5171644Y-7076644D01*
X5171644Y-7147356D01*
X5242356Y-7147356D01*
X5242356Y-7401356D02*
X5242356Y-7330644D01*
X5171644Y-7330644D01*
X5171644Y-7401356D01*
X5242356Y-7401356D01*
X5496356Y-2575356D02*
X5496356Y-2504644D01*
X5425644Y-2504644D01*
X5425644Y-2575356D01*
X5496356Y-2575356D01*
X5496356Y-2829356D02*
X5496356Y-2758644D01*
X5425644Y-2758644D01*
X5425644Y-2829356D01*
X5496356Y-2829356D01*
X5496356Y-7147356D02*
X5496356Y-7076644D01*
X5425644Y-7076644D01*
X5425644Y-7147356D01*
X5496356Y-7147356D01*
X5496356Y-7401356D02*
X5496356Y-7330644D01*
X5425644Y-7330644D01*
X5425644Y-7401356D01*
X5496356Y-7401356D01*
X5750356Y-2575356D02*
X5750356Y-2504644D01*
X5679644Y-2504644D01*
X5679644Y-2575356D01*
X5750356Y-2575356D01*
X5750356Y-2829356D02*
X5750356Y-2758644D01*
X5679644Y-2758644D01*
X5679644Y-2829356D01*
X5750356Y-2829356D01*
X5750356Y-7147356D02*
X5750356Y-7076644D01*
X5679644Y-7076644D01*
X5679644Y-7147356D01*
X5750356Y-7147356D01*
X5750356Y-7401356D02*
X5750356Y-7330644D01*
X5679644Y-7330644D01*
X5679644Y-7401356D01*
X5750356Y-7401356D01*
X6004356Y-2575356D02*
X6004356Y-2504644D01*
X5933644Y-2504644D01*
X5933644Y-2575356D01*
X6004356Y-2575356D01*
X6004356Y-2829356D02*
X6004356Y-2758644D01*
X5933644Y-2758644D01*
X5933644Y-2829356D01*
X6004356Y-2829356D01*
X6004356Y-7147356D02*
X6004356Y-7076644D01*
X5933644Y-7076644D01*
X5933644Y-7147356D01*
X6004356Y-7147356D01*
X6004356Y-7401356D02*
X6004356Y-7330644D01*
X5933644Y-7330644D01*
X5933644Y-7401356D01*
X6004356Y-7401356D01*
X6258356Y-2575356D02*
X6258356Y-2504644D01*
X6187644Y-2504644D01*
X6187644Y-2575356D01*
X6258356Y-2575356D01*
X6258356Y-2829356D02*
X6258356Y-2758644D01*
X6187644Y-2758644D01*
X6187644Y-2829356D01*
X6258356Y-2829356D01*
X6258356Y-7147356D02*
X6258356Y-7076644D01*
X6187644Y-7076644D01*
X6187644Y-7147356D01*
X6258356Y-7147356D01*
X6258356Y-7401356D02*
X6258356Y-7330644D01*
X6187644Y-7330644D01*
X6187644Y-7401356D01*
X6258356Y-7401356D01*
X6512356Y-2575356D02*
X6512356Y-2504644D01*
X6441644Y-2504644D01*
X6441644Y-2575356D01*
X6512356Y-2575356D01*
X6512356Y-2829356D02*
X6512356Y-2758644D01*
X6441644Y-2758644D01*
X6441644Y-2829356D01*
X6512356Y-2829356D01*
X6512356Y-7147356D02*
X6512356Y-7076644D01*
X6441644Y-7076644D01*
X6441644Y-7147356D01*
X6512356Y-7147356D01*
X6512356Y-7401356D02*
X6512356Y-7330644D01*
X6441644Y-7330644D01*
X6441644Y-7401356D01*
X6512356Y-7401356D01*
X6766356Y-2575356D02*
X6766356Y-2504644D01*
X6695644Y-2504644D01*
X6695644Y-2575356D01*
X6766356Y-2575356D01*
X6766356Y-2829356D02*
X6766356Y-2758644D01*
X6695644Y-2758644D01*
X6695644Y-2829356D01*
X6766356Y-2829356D01*
X6766356Y-7147356D02*
X6766356Y-7076644D01*
X6695644Y-7076644D01*
X6695644Y-7147356D01*
X6766356Y-7147356D01*
X6766356Y-7401356D02*
X6766356Y-7330644D01*
X6695644Y-7330644D01*
X6695644Y-7401356D01*
X6766356Y-7401356D01*
X7020356Y-2575356D02*
X7020356Y-2504644D01*
X6949644Y-2504644D01*
X6949644Y-2575356D01*
X7020356Y-2575356D01*
X7020356Y-2829356D02*
X7020356Y-2758644D01*
X6949644Y-2758644D01*
X6949644Y-2829356D01*
X7020356Y-2829356D01*
X7020356Y-3081856D02*
X7020356Y-3011144D01*
X6949644Y-3011144D01*
X6949644Y-3081856D01*
X7020356Y-3081856D01*
X7020356Y-3335856D02*
X7020356Y-3265144D01*
X6949644Y-3265144D01*
X6949644Y-3335856D01*
X7020356Y-3335856D01*
X7020356Y-3589856D02*
X7020356Y-3519144D01*
X6949644Y-3519144D01*
X6949644Y-3589856D01*
X7020356Y-3589856D01*
X7020356Y-3845356D02*
X7020356Y-3774644D01*
X6949644Y-3774644D01*
X6949644Y-3845356D01*
X7020356Y-3845356D01*
X7020356Y-4099356D02*
X7020356Y-4028644D01*
X6949644Y-4028644D01*
X6949644Y-4099356D01*
X7020356Y-4099356D01*
X7020356Y-4607356D02*
X7020356Y-4536644D01*
X6949644Y-4536644D01*
X6949644Y-4607356D01*
X7020356Y-4607356D01*
X7020356Y-4861356D02*
X7020356Y-4790644D01*
X6949644Y-4790644D01*
X6949644Y-4861356D01*
X7020356Y-4861356D01*
X7020356Y-5115356D02*
X7020356Y-5044644D01*
X6949644Y-5044644D01*
X6949644Y-5115356D01*
X7020356Y-5115356D01*
X7020356Y-5369356D02*
X7020356Y-5298644D01*
X6949644Y-5298644D01*
X6949644Y-5369356D01*
X7020356Y-5369356D01*
X7020356Y-7147356D02*
X7020356Y-7076644D01*
X6949644Y-7076644D01*
X6949644Y-7147356D01*
X7020356Y-7147356D01*
X7020356Y-7401356D02*
X7020356Y-7330644D01*
X6949644Y-7330644D01*
X6949644Y-7401356D01*
X7020356Y-7401356D01*
X7274356Y-2575356D02*
X7274356Y-2504644D01*
X7203644Y-2504644D01*
X7203644Y-2575356D01*
X7274356Y-2575356D01*
X7274356Y-2829356D02*
X7274356Y-2758644D01*
X7203644Y-2758644D01*
X7203644Y-2829356D01*
X7274356Y-2829356D01*
X7274356Y-7147356D02*
X7274356Y-7076644D01*
X7203644Y-7076644D01*
X7203644Y-7147356D01*
X7274356Y-7147356D01*
X7274356Y-7401356D02*
X7274356Y-7330644D01*
X7203644Y-7330644D01*
X7203644Y-7401356D01*
X7274356Y-7401356D01*
X7528356Y-2575356D02*
X7528356Y-2504644D01*
X7457644Y-2504644D01*
X7457644Y-2575356D01*
X7528356Y-2575356D01*
X7528356Y-2829356D02*
X7528356Y-2758644D01*
X7457644Y-2758644D01*
X7457644Y-2829356D01*
X7528356Y-2829356D01*
X7528356Y-7147356D02*
X7528356Y-7076644D01*
X7457644Y-7076644D01*
X7457644Y-7147356D01*
X7528356Y-7147356D01*
X7528356Y-7401356D02*
X7528356Y-7330644D01*
X7457644Y-7330644D01*
X7457644Y-7401356D01*
X7528356Y-7401356D01*
D11*
X2030619Y-7935476D02*
X2030619Y-7735476D01*
X2078238Y-7735476D01*
X2106810Y-7745000D01*
X2125857Y-7764048D01*
X2135381Y-7783095D01*
X2144905Y-7821190D01*
X2144905Y-7849762D01*
X2135381Y-7887857D01*
X2125857Y-7906905D01*
X2106810Y-7925952D01*
X2078238Y-7935476D01*
X2030619Y-7935476D01*
X2230619Y-7935476D02*
X2230619Y-7802143D01*
X2230619Y-7840238D02*
X2240143Y-7821190D01*
X2249667Y-7811667D01*
X2268714Y-7802143D01*
X2287762Y-7802143D01*
X2354429Y-7935476D02*
X2354429Y-7802143D01*
X2354429Y-7735476D02*
X2344905Y-7745000D01*
X2354429Y-7754524D01*
X2363952Y-7745000D01*
X2354429Y-7735476D01*
X2354429Y-7754524D01*
X2478238Y-7935476D02*
X2459190Y-7925952D01*
X2449667Y-7906905D01*
X2449667Y-7735476D01*
X2583000Y-7935476D02*
X2563952Y-7925952D01*
X2554429Y-7906905D01*
X2554429Y-7735476D01*
X2811571Y-7935476D02*
X2811571Y-7735476D01*
X2878238Y-7878333D01*
X2944905Y-7735476D01*
X2944905Y-7935476D01*
X3125857Y-7935476D02*
X3125857Y-7830714D01*
X3116333Y-7811667D01*
X3097286Y-7802143D01*
X3059190Y-7802143D01*
X3040143Y-7811667D01*
X3125857Y-7925952D02*
X3106809Y-7935476D01*
X3059190Y-7935476D01*
X3040143Y-7925952D01*
X3030619Y-7906905D01*
X3030619Y-7887857D01*
X3040143Y-7868809D01*
X3059190Y-7859286D01*
X3106809Y-7859286D01*
X3125857Y-7849762D01*
X3221095Y-7802143D02*
X3221095Y-8002143D01*
X3221095Y-7811667D02*
X3240143Y-7802143D01*
X3278238Y-7802143D01*
X3297286Y-7811667D01*
X3306809Y-7821190D01*
X3316333Y-7840238D01*
X3316333Y-7897381D01*
X3306809Y-7916428D01*
X3297286Y-7925952D01*
X3278238Y-7935476D01*
X3240143Y-7935476D01*
X3221095Y-7925952D01*
X3402048Y-7916428D02*
X3411571Y-7925952D01*
X3402048Y-7935476D01*
X3392524Y-7925952D01*
X3402048Y-7916428D01*
X3402048Y-7935476D01*
X3402048Y-7811667D02*
X3411571Y-7821190D01*
X3402048Y-7830714D01*
X3392524Y-7821190D01*
X3402048Y-7811667D01*
X3402048Y-7830714D01*
D12*
X1696800Y-8226900D02*
X1773000Y-8303100D01*
X1773000Y-8226900D02*
X1696800Y-8303100D01*
D11*
X2068714Y-8155476D02*
X2087762Y-8155476D01*
X2106810Y-8165000D01*
X2116333Y-8174524D01*
X2125857Y-8193571D01*
X2135381Y-8231667D01*
X2135381Y-8279286D01*
X2125857Y-8317381D01*
X2116333Y-8336428D01*
X2106810Y-8345952D01*
X2087762Y-8355476D01*
X2068714Y-8355476D01*
X2049667Y-8345952D01*
X2040143Y-8336428D01*
X2030619Y-8317381D01*
X2021095Y-8279286D01*
X2021095Y-8231667D01*
X2030619Y-8193571D01*
X2040143Y-8174524D01*
X2049667Y-8165000D01*
X2068714Y-8155476D01*
X2221095Y-8336428D02*
X2230619Y-8345952D01*
X2221095Y-8355476D01*
X2211571Y-8345952D01*
X2221095Y-8336428D01*
X2221095Y-8355476D01*
X2297286Y-8155476D02*
X2430619Y-8155476D01*
X2344905Y-8355476D01*
X2592524Y-8155476D02*
X2554429Y-8155476D01*
X2535381Y-8165000D01*
X2525857Y-8174524D01*
X2506810Y-8203095D01*
X2497286Y-8241190D01*
X2497286Y-8317381D01*
X2506810Y-8336428D01*
X2516333Y-8345952D01*
X2535381Y-8355476D01*
X2573476Y-8355476D01*
X2592524Y-8345952D01*
X2602048Y-8336428D01*
X2611571Y-8317381D01*
X2611571Y-8269762D01*
X2602048Y-8250714D01*
X2592524Y-8241190D01*
X2573476Y-8231667D01*
X2535381Y-8231667D01*
X2516333Y-8241190D01*
X2506810Y-8250714D01*
X2497286Y-8269762D01*
X2687762Y-8174524D02*
X2697286Y-8165000D01*
X2716333Y-8155476D01*
X2763952Y-8155476D01*
X2783000Y-8165000D01*
X2792524Y-8174524D01*
X2802048Y-8193571D01*
X2802048Y-8212619D01*
X2792524Y-8241190D01*
X2678238Y-8355476D01*
X2802048Y-8355476D01*
X2887762Y-8355476D02*
X2887762Y-8222143D01*
X2887762Y-8241190D02*
X2897286Y-8231667D01*
X2916333Y-8222143D01*
X2944905Y-8222143D01*
X2963952Y-8231667D01*
X2973476Y-8250714D01*
X2973476Y-8355476D01*
X2973476Y-8250714D02*
X2983000Y-8231667D01*
X3002048Y-8222143D01*
X3030619Y-8222143D01*
X3049667Y-8231667D01*
X3059190Y-8250714D01*
X3059190Y-8355476D01*
X3154428Y-8355476D02*
X3154428Y-8222143D01*
X3154428Y-8241190D02*
X3163952Y-8231667D01*
X3183000Y-8222143D01*
X3211571Y-8222143D01*
X3230619Y-8231667D01*
X3240143Y-8250714D01*
X3240143Y-8355476D01*
X3240143Y-8250714D02*
X3249667Y-8231667D01*
X3268714Y-8222143D01*
X3297286Y-8222143D01*
X3316333Y-8231667D01*
X3325857Y-8250714D01*
X3325857Y-8355476D01*
X3716333Y-8145952D02*
X3544905Y-8403095D01*
X3973476Y-8155476D02*
X3992524Y-8155476D01*
X4011571Y-8165000D01*
X4021095Y-8174524D01*
X4030619Y-8193571D01*
X4040143Y-8231667D01*
X4040143Y-8279286D01*
X4030619Y-8317381D01*
X4021095Y-8336428D01*
X4011571Y-8345952D01*
X3992524Y-8355476D01*
X3973476Y-8355476D01*
X3954428Y-8345952D01*
X3944905Y-8336428D01*
X3935381Y-8317381D01*
X3925857Y-8279286D01*
X3925857Y-8231667D01*
X3935381Y-8193571D01*
X3944905Y-8174524D01*
X3954428Y-8165000D01*
X3973476Y-8155476D01*
X4125857Y-8336428D02*
X4135381Y-8345952D01*
X4125857Y-8355476D01*
X4116333Y-8345952D01*
X4125857Y-8336428D01*
X4125857Y-8355476D01*
X4259190Y-8155476D02*
X4278238Y-8155476D01*
X4297286Y-8165000D01*
X4306810Y-8174524D01*
X4316333Y-8193571D01*
X4325857Y-8231667D01*
X4325857Y-8279286D01*
X4316333Y-8317381D01*
X4306810Y-8336428D01*
X4297286Y-8345952D01*
X4278238Y-8355476D01*
X4259190Y-8355476D01*
X4240143Y-8345952D01*
X4230619Y-8336428D01*
X4221095Y-8317381D01*
X4211571Y-8279286D01*
X4211571Y-8231667D01*
X4221095Y-8193571D01*
X4230619Y-8174524D01*
X4240143Y-8165000D01*
X4259190Y-8155476D01*
X4392524Y-8155476D02*
X4516333Y-8155476D01*
X4449667Y-8231667D01*
X4478238Y-8231667D01*
X4497286Y-8241190D01*
X4506810Y-8250714D01*
X4516333Y-8269762D01*
X4516333Y-8317381D01*
X4506810Y-8336428D01*
X4497286Y-8345952D01*
X4478238Y-8355476D01*
X4421095Y-8355476D01*
X4402048Y-8345952D01*
X4392524Y-8336428D01*
X4640143Y-8155476D02*
X4659190Y-8155476D01*
X4678238Y-8165000D01*
X4687762Y-8174524D01*
X4697286Y-8193571D01*
X4706810Y-8231667D01*
X4706810Y-8279286D01*
X4697286Y-8317381D01*
X4687762Y-8336428D01*
X4678238Y-8345952D01*
X4659190Y-8355476D01*
X4640143Y-8355476D01*
X4621095Y-8345952D01*
X4611571Y-8336428D01*
X4602048Y-8317381D01*
X4592524Y-8279286D01*
X4592524Y-8231667D01*
X4602048Y-8193571D01*
X4611571Y-8174524D01*
X4621095Y-8165000D01*
X4640143Y-8155476D01*
X4830619Y-8155476D02*
X4849667Y-8155476D01*
X4868714Y-8165000D01*
X4878238Y-8174524D01*
X4887762Y-8193571D01*
X4897286Y-8231667D01*
X4897286Y-8279286D01*
X4887762Y-8317381D01*
X4878238Y-8336428D01*
X4868714Y-8345952D01*
X4849667Y-8355476D01*
X4830619Y-8355476D01*
X4811571Y-8345952D01*
X4802048Y-8336428D01*
X4792524Y-8317381D01*
X4783000Y-8279286D01*
X4783000Y-8231667D01*
X4792524Y-8193571D01*
X4802048Y-8174524D01*
X4811571Y-8165000D01*
X4830619Y-8155476D01*
X4973476Y-8155476D02*
X4973476Y-8193571D01*
X5049667Y-8155476D02*
X5049667Y-8193571D01*
X5344905Y-8431667D02*
X5335381Y-8422143D01*
X5316333Y-8393571D01*
X5306810Y-8374524D01*
X5297286Y-8345952D01*
X5287762Y-8298333D01*
X5287762Y-8260238D01*
X5297286Y-8212619D01*
X5306810Y-8184048D01*
X5316333Y-8165000D01*
X5335381Y-8136428D01*
X5344905Y-8126905D01*
X5506810Y-8155476D02*
X5468714Y-8155476D01*
X5449667Y-8165000D01*
X5440143Y-8174524D01*
X5421095Y-8203095D01*
X5411571Y-8241190D01*
X5411571Y-8317381D01*
X5421095Y-8336428D01*
X5430619Y-8345952D01*
X5449667Y-8355476D01*
X5487762Y-8355476D01*
X5506810Y-8345952D01*
X5516333Y-8336428D01*
X5525857Y-8317381D01*
X5525857Y-8269762D01*
X5516333Y-8250714D01*
X5506810Y-8241190D01*
X5487762Y-8231667D01*
X5449667Y-8231667D01*
X5430619Y-8241190D01*
X5421095Y-8250714D01*
X5411571Y-8269762D01*
X5640143Y-8241190D02*
X5621095Y-8231667D01*
X5611571Y-8222143D01*
X5602048Y-8203095D01*
X5602048Y-8193571D01*
X5611571Y-8174524D01*
X5621095Y-8165000D01*
X5640143Y-8155476D01*
X5678238Y-8155476D01*
X5697286Y-8165000D01*
X5706809Y-8174524D01*
X5716333Y-8193571D01*
X5716333Y-8203095D01*
X5706809Y-8222143D01*
X5697286Y-8231667D01*
X5678238Y-8241190D01*
X5640143Y-8241190D01*
X5621095Y-8250714D01*
X5611571Y-8260238D01*
X5602048Y-8279286D01*
X5602048Y-8317381D01*
X5611571Y-8336428D01*
X5621095Y-8345952D01*
X5640143Y-8355476D01*
X5678238Y-8355476D01*
X5697286Y-8345952D01*
X5706809Y-8336428D01*
X5716333Y-8317381D01*
X5716333Y-8279286D01*
X5706809Y-8260238D01*
X5697286Y-8250714D01*
X5678238Y-8241190D01*
X5954428Y-8355476D02*
X5954428Y-8155476D01*
X6040143Y-8355476D02*
X6040143Y-8250714D01*
X6030619Y-8231667D01*
X6011571Y-8222143D01*
X5983000Y-8222143D01*
X5963952Y-8231667D01*
X5954428Y-8241190D01*
X6163952Y-8355476D02*
X6144905Y-8345952D01*
X6135381Y-8336428D01*
X6125857Y-8317381D01*
X6125857Y-8260238D01*
X6135381Y-8241190D01*
X6144905Y-8231667D01*
X6163952Y-8222143D01*
X6192524Y-8222143D01*
X6211571Y-8231667D01*
X6221095Y-8241190D01*
X6230619Y-8260238D01*
X6230619Y-8317381D01*
X6221095Y-8336428D01*
X6211571Y-8345952D01*
X6192524Y-8355476D01*
X6163952Y-8355476D01*
X6344905Y-8355476D02*
X6325857Y-8345952D01*
X6316333Y-8326905D01*
X6316333Y-8155476D01*
X6497286Y-8345952D02*
X6478238Y-8355476D01*
X6440143Y-8355476D01*
X6421095Y-8345952D01*
X6411571Y-8326905D01*
X6411571Y-8250714D01*
X6421095Y-8231667D01*
X6440143Y-8222143D01*
X6478238Y-8222143D01*
X6497286Y-8231667D01*
X6506809Y-8250714D01*
X6506809Y-8269762D01*
X6411571Y-8288809D01*
X6583000Y-8345952D02*
X6602048Y-8355476D01*
X6640143Y-8355476D01*
X6659190Y-8345952D01*
X6668714Y-8326905D01*
X6668714Y-8317381D01*
X6659190Y-8298333D01*
X6640143Y-8288809D01*
X6611571Y-8288809D01*
X6592524Y-8279286D01*
X6583000Y-8260238D01*
X6583000Y-8250714D01*
X6592524Y-8231667D01*
X6611571Y-8222143D01*
X6640143Y-8222143D01*
X6659190Y-8231667D01*
X6735381Y-8431667D02*
X6744905Y-8422143D01*
X6763952Y-8393571D01*
X6773476Y-8374524D01*
X6783000Y-8345952D01*
X6792524Y-8298333D01*
X6792524Y-8260238D01*
X6783000Y-8212619D01*
X6773476Y-8184048D01*
X6763952Y-8165000D01*
X6744905Y-8136428D01*
X6735381Y-8126905D01*
D13*
X1773000Y-8529000D02*
G75*
G03*
X1773000Y-8529000I-40000J0D01*
G01*
D11*
X2068714Y-8419476D02*
X2087762Y-8419476D01*
X2106810Y-8429000D01*
X2116333Y-8438524D01*
X2125857Y-8457571D01*
X2135381Y-8495667D01*
X2135381Y-8543286D01*
X2125857Y-8581381D01*
X2116333Y-8600429D01*
X2106810Y-8609952D01*
X2087762Y-8619476D01*
X2068714Y-8619476D01*
X2049667Y-8609952D01*
X2040143Y-8600429D01*
X2030619Y-8581381D01*
X2021095Y-8543286D01*
X2021095Y-8495667D01*
X2030619Y-8457571D01*
X2040143Y-8438524D01*
X2049667Y-8429000D01*
X2068714Y-8419476D01*
X2221095Y-8600429D02*
X2230619Y-8609952D01*
X2221095Y-8619476D01*
X2211571Y-8609952D01*
X2221095Y-8600429D01*
X2221095Y-8619476D01*
X2344905Y-8505190D02*
X2325857Y-8495667D01*
X2316333Y-8486143D01*
X2306810Y-8467095D01*
X2306810Y-8457571D01*
X2316333Y-8438524D01*
X2325857Y-8429000D01*
X2344905Y-8419476D01*
X2383000Y-8419476D01*
X2402048Y-8429000D01*
X2411571Y-8438524D01*
X2421095Y-8457571D01*
X2421095Y-8467095D01*
X2411571Y-8486143D01*
X2402048Y-8495667D01*
X2383000Y-8505190D01*
X2344905Y-8505190D01*
X2325857Y-8514714D01*
X2316333Y-8524238D01*
X2306810Y-8543286D01*
X2306810Y-8581381D01*
X2316333Y-8600429D01*
X2325857Y-8609952D01*
X2344905Y-8619476D01*
X2383000Y-8619476D01*
X2402048Y-8609952D01*
X2411571Y-8600429D01*
X2421095Y-8581381D01*
X2421095Y-8543286D01*
X2411571Y-8524238D01*
X2402048Y-8514714D01*
X2383000Y-8505190D01*
X2544905Y-8419476D02*
X2563952Y-8419476D01*
X2583000Y-8429000D01*
X2592524Y-8438524D01*
X2602048Y-8457571D01*
X2611571Y-8495667D01*
X2611571Y-8543286D01*
X2602048Y-8581381D01*
X2592524Y-8600429D01*
X2583000Y-8609952D01*
X2563952Y-8619476D01*
X2544905Y-8619476D01*
X2525857Y-8609952D01*
X2516333Y-8600429D01*
X2506810Y-8581381D01*
X2497286Y-8543286D01*
X2497286Y-8495667D01*
X2506810Y-8457571D01*
X2516333Y-8438524D01*
X2525857Y-8429000D01*
X2544905Y-8419476D01*
X2735381Y-8419476D02*
X2754429Y-8419476D01*
X2773476Y-8429000D01*
X2783000Y-8438524D01*
X2792524Y-8457571D01*
X2802048Y-8495667D01*
X2802048Y-8543286D01*
X2792524Y-8581381D01*
X2783000Y-8600429D01*
X2773476Y-8609952D01*
X2754429Y-8619476D01*
X2735381Y-8619476D01*
X2716333Y-8609952D01*
X2706810Y-8600429D01*
X2697286Y-8581381D01*
X2687762Y-8543286D01*
X2687762Y-8495667D01*
X2697286Y-8457571D01*
X2706810Y-8438524D01*
X2716333Y-8429000D01*
X2735381Y-8419476D01*
X2887762Y-8619476D02*
X2887762Y-8486143D01*
X2887762Y-8505190D02*
X2897286Y-8495667D01*
X2916333Y-8486143D01*
X2944905Y-8486143D01*
X2963952Y-8495667D01*
X2973476Y-8514714D01*
X2973476Y-8619476D01*
X2973476Y-8514714D02*
X2983000Y-8495667D01*
X3002048Y-8486143D01*
X3030619Y-8486143D01*
X3049667Y-8495667D01*
X3059190Y-8514714D01*
X3059190Y-8619476D01*
X3154428Y-8619476D02*
X3154428Y-8486143D01*
X3154428Y-8505190D02*
X3163952Y-8495667D01*
X3183000Y-8486143D01*
X3211571Y-8486143D01*
X3230619Y-8495667D01*
X3240143Y-8514714D01*
X3240143Y-8619476D01*
X3240143Y-8514714D02*
X3249667Y-8495667D01*
X3268714Y-8486143D01*
X3297286Y-8486143D01*
X3316333Y-8495667D01*
X3325857Y-8514714D01*
X3325857Y-8619476D01*
X3716333Y-8409952D02*
X3544905Y-8667095D01*
X3973476Y-8419476D02*
X3992524Y-8419476D01*
X4011571Y-8429000D01*
X4021095Y-8438524D01*
X4030619Y-8457571D01*
X4040143Y-8495667D01*
X4040143Y-8543286D01*
X4030619Y-8581381D01*
X4021095Y-8600429D01*
X4011571Y-8609952D01*
X3992524Y-8619476D01*
X3973476Y-8619476D01*
X3954428Y-8609952D01*
X3944905Y-8600429D01*
X3935381Y-8581381D01*
X3925857Y-8543286D01*
X3925857Y-8495667D01*
X3935381Y-8457571D01*
X3944905Y-8438524D01*
X3954428Y-8429000D01*
X3973476Y-8419476D01*
X4125857Y-8600429D02*
X4135381Y-8609952D01*
X4125857Y-8619476D01*
X4116333Y-8609952D01*
X4125857Y-8600429D01*
X4125857Y-8619476D01*
X4259190Y-8419476D02*
X4278238Y-8419476D01*
X4297286Y-8429000D01*
X4306810Y-8438524D01*
X4316333Y-8457571D01*
X4325857Y-8495667D01*
X4325857Y-8543286D01*
X4316333Y-8581381D01*
X4306810Y-8600429D01*
X4297286Y-8609952D01*
X4278238Y-8619476D01*
X4259190Y-8619476D01*
X4240143Y-8609952D01*
X4230619Y-8600429D01*
X4221095Y-8581381D01*
X4211571Y-8543286D01*
X4211571Y-8495667D01*
X4221095Y-8457571D01*
X4230619Y-8438524D01*
X4240143Y-8429000D01*
X4259190Y-8419476D01*
X4392524Y-8419476D02*
X4516333Y-8419476D01*
X4449667Y-8495667D01*
X4478238Y-8495667D01*
X4497286Y-8505190D01*
X4506810Y-8514714D01*
X4516333Y-8533762D01*
X4516333Y-8581381D01*
X4506810Y-8600429D01*
X4497286Y-8609952D01*
X4478238Y-8619476D01*
X4421095Y-8619476D01*
X4402048Y-8609952D01*
X4392524Y-8600429D01*
X4706810Y-8619476D02*
X4592524Y-8619476D01*
X4649667Y-8619476D02*
X4649667Y-8419476D01*
X4630619Y-8448048D01*
X4611571Y-8467095D01*
X4592524Y-8476619D01*
X4887762Y-8419476D02*
X4792524Y-8419476D01*
X4783000Y-8514714D01*
X4792524Y-8505190D01*
X4811571Y-8495667D01*
X4859190Y-8495667D01*
X4878238Y-8505190D01*
X4887762Y-8514714D01*
X4897286Y-8533762D01*
X4897286Y-8581381D01*
X4887762Y-8600429D01*
X4878238Y-8609952D01*
X4859190Y-8619476D01*
X4811571Y-8619476D01*
X4792524Y-8609952D01*
X4783000Y-8600429D01*
X4973476Y-8419476D02*
X4973476Y-8457571D01*
X5049667Y-8419476D02*
X5049667Y-8457571D01*
X5344905Y-8695667D02*
X5335381Y-8686143D01*
X5316333Y-8657571D01*
X5306810Y-8638524D01*
X5297286Y-8609952D01*
X5287762Y-8562333D01*
X5287762Y-8524238D01*
X5297286Y-8476619D01*
X5306810Y-8448048D01*
X5316333Y-8429000D01*
X5335381Y-8400429D01*
X5344905Y-8390905D01*
X5411571Y-8438524D02*
X5421095Y-8429000D01*
X5440143Y-8419476D01*
X5487762Y-8419476D01*
X5506810Y-8429000D01*
X5516333Y-8438524D01*
X5525857Y-8457571D01*
X5525857Y-8476619D01*
X5516333Y-8505190D01*
X5402048Y-8619476D01*
X5525857Y-8619476D01*
X5763952Y-8619476D02*
X5763952Y-8419476D01*
X5849667Y-8619476D02*
X5849667Y-8514714D01*
X5840143Y-8495667D01*
X5821095Y-8486143D01*
X5792524Y-8486143D01*
X5773476Y-8495667D01*
X5763952Y-8505190D01*
X5973476Y-8619476D02*
X5954428Y-8609952D01*
X5944905Y-8600429D01*
X5935381Y-8581381D01*
X5935381Y-8524238D01*
X5944905Y-8505190D01*
X5954428Y-8495667D01*
X5973476Y-8486143D01*
X6002048Y-8486143D01*
X6021095Y-8495667D01*
X6030619Y-8505190D01*
X6040143Y-8524238D01*
X6040143Y-8581381D01*
X6030619Y-8600429D01*
X6021095Y-8609952D01*
X6002048Y-8619476D01*
X5973476Y-8619476D01*
X6154428Y-8619476D02*
X6135381Y-8609952D01*
X6125857Y-8590905D01*
X6125857Y-8419476D01*
X6306809Y-8609952D02*
X6287762Y-8619476D01*
X6249667Y-8619476D01*
X6230619Y-8609952D01*
X6221095Y-8590905D01*
X6221095Y-8514714D01*
X6230619Y-8495667D01*
X6249667Y-8486143D01*
X6287762Y-8486143D01*
X6306809Y-8495667D01*
X6316333Y-8514714D01*
X6316333Y-8533762D01*
X6221095Y-8552810D01*
X6392524Y-8609952D02*
X6411571Y-8619476D01*
X6449667Y-8619476D01*
X6468714Y-8609952D01*
X6478238Y-8590905D01*
X6478238Y-8581381D01*
X6468714Y-8562333D01*
X6449667Y-8552810D01*
X6421095Y-8552810D01*
X6402048Y-8543286D01*
X6392524Y-8524238D01*
X6392524Y-8514714D01*
X6402048Y-8495667D01*
X6421095Y-8486143D01*
X6449667Y-8486143D01*
X6468714Y-8495667D01*
X6544905Y-8695667D02*
X6554428Y-8686143D01*
X6573476Y-8657571D01*
X6583000Y-8638524D01*
X6592524Y-8609952D01*
X6602048Y-8562333D01*
X6602048Y-8524238D01*
X6592524Y-8476619D01*
X6583000Y-8448048D01*
X6573476Y-8429000D01*
X6554428Y-8400429D01*
X6544905Y-8390905D01*
D13*
X1733000Y-8753000D02*
X1733000Y-8833000D01*
X1693000Y-8793000D02*
X1773000Y-8793000D01*
D11*
X2068714Y-8683476D02*
X2087762Y-8683476D01*
X2106810Y-8693000D01*
X2116333Y-8702524D01*
X2125857Y-8721571D01*
X2135381Y-8759667D01*
X2135381Y-8807286D01*
X2125857Y-8845381D01*
X2116333Y-8864429D01*
X2106810Y-8873952D01*
X2087762Y-8883476D01*
X2068714Y-8883476D01*
X2049667Y-8873952D01*
X2040143Y-8864429D01*
X2030619Y-8845381D01*
X2021095Y-8807286D01*
X2021095Y-8759667D01*
X2030619Y-8721571D01*
X2040143Y-8702524D01*
X2049667Y-8693000D01*
X2068714Y-8683476D01*
X2221095Y-8864429D02*
X2230619Y-8873952D01*
X2221095Y-8883476D01*
X2211571Y-8873952D01*
X2221095Y-8864429D01*
X2221095Y-8883476D01*
X2344905Y-8769190D02*
X2325857Y-8759667D01*
X2316333Y-8750143D01*
X2306810Y-8731095D01*
X2306810Y-8721571D01*
X2316333Y-8702524D01*
X2325857Y-8693000D01*
X2344905Y-8683476D01*
X2383000Y-8683476D01*
X2402048Y-8693000D01*
X2411571Y-8702524D01*
X2421095Y-8721571D01*
X2421095Y-8731095D01*
X2411571Y-8750143D01*
X2402048Y-8759667D01*
X2383000Y-8769190D01*
X2344905Y-8769190D01*
X2325857Y-8778714D01*
X2316333Y-8788238D01*
X2306810Y-8807286D01*
X2306810Y-8845381D01*
X2316333Y-8864429D01*
X2325857Y-8873952D01*
X2344905Y-8883476D01*
X2383000Y-8883476D01*
X2402048Y-8873952D01*
X2411571Y-8864429D01*
X2421095Y-8845381D01*
X2421095Y-8807286D01*
X2411571Y-8788238D01*
X2402048Y-8778714D01*
X2383000Y-8769190D01*
X2544905Y-8683476D02*
X2563952Y-8683476D01*
X2583000Y-8693000D01*
X2592524Y-8702524D01*
X2602048Y-8721571D01*
X2611571Y-8759667D01*
X2611571Y-8807286D01*
X2602048Y-8845381D01*
X2592524Y-8864429D01*
X2583000Y-8873952D01*
X2563952Y-8883476D01*
X2544905Y-8883476D01*
X2525857Y-8873952D01*
X2516333Y-8864429D01*
X2506810Y-8845381D01*
X2497286Y-8807286D01*
X2497286Y-8759667D01*
X2506810Y-8721571D01*
X2516333Y-8702524D01*
X2525857Y-8693000D01*
X2544905Y-8683476D01*
X2735381Y-8683476D02*
X2754429Y-8683476D01*
X2773476Y-8693000D01*
X2783000Y-8702524D01*
X2792524Y-8721571D01*
X2802048Y-8759667D01*
X2802048Y-8807286D01*
X2792524Y-8845381D01*
X2783000Y-8864429D01*
X2773476Y-8873952D01*
X2754429Y-8883476D01*
X2735381Y-8883476D01*
X2716333Y-8873952D01*
X2706810Y-8864429D01*
X2697286Y-8845381D01*
X2687762Y-8807286D01*
X2687762Y-8759667D01*
X2697286Y-8721571D01*
X2706810Y-8702524D01*
X2716333Y-8693000D01*
X2735381Y-8683476D01*
X2887762Y-8883476D02*
X2887762Y-8750143D01*
X2887762Y-8769190D02*
X2897286Y-8759667D01*
X2916333Y-8750143D01*
X2944905Y-8750143D01*
X2963952Y-8759667D01*
X2973476Y-8778714D01*
X2973476Y-8883476D01*
X2973476Y-8778714D02*
X2983000Y-8759667D01*
X3002048Y-8750143D01*
X3030619Y-8750143D01*
X3049667Y-8759667D01*
X3059190Y-8778714D01*
X3059190Y-8883476D01*
X3154428Y-8883476D02*
X3154428Y-8750143D01*
X3154428Y-8769190D02*
X3163952Y-8759667D01*
X3183000Y-8750143D01*
X3211571Y-8750143D01*
X3230619Y-8759667D01*
X3240143Y-8778714D01*
X3240143Y-8883476D01*
X3240143Y-8778714D02*
X3249667Y-8759667D01*
X3268714Y-8750143D01*
X3297286Y-8750143D01*
X3316333Y-8759667D01*
X3325857Y-8778714D01*
X3325857Y-8883476D01*
X3716333Y-8673952D02*
X3544905Y-8931095D01*
X3973476Y-8683476D02*
X3992524Y-8683476D01*
X4011571Y-8693000D01*
X4021095Y-8702524D01*
X4030619Y-8721571D01*
X4040143Y-8759667D01*
X4040143Y-8807286D01*
X4030619Y-8845381D01*
X4021095Y-8864429D01*
X4011571Y-8873952D01*
X3992524Y-8883476D01*
X3973476Y-8883476D01*
X3954428Y-8873952D01*
X3944905Y-8864429D01*
X3935381Y-8845381D01*
X3925857Y-8807286D01*
X3925857Y-8759667D01*
X3935381Y-8721571D01*
X3944905Y-8702524D01*
X3954428Y-8693000D01*
X3973476Y-8683476D01*
X4125857Y-8864429D02*
X4135381Y-8873952D01*
X4125857Y-8883476D01*
X4116333Y-8873952D01*
X4125857Y-8864429D01*
X4125857Y-8883476D01*
X4259190Y-8683476D02*
X4278238Y-8683476D01*
X4297286Y-8693000D01*
X4306810Y-8702524D01*
X4316333Y-8721571D01*
X4325857Y-8759667D01*
X4325857Y-8807286D01*
X4316333Y-8845381D01*
X4306810Y-8864429D01*
X4297286Y-8873952D01*
X4278238Y-8883476D01*
X4259190Y-8883476D01*
X4240143Y-8873952D01*
X4230619Y-8864429D01*
X4221095Y-8845381D01*
X4211571Y-8807286D01*
X4211571Y-8759667D01*
X4221095Y-8721571D01*
X4230619Y-8702524D01*
X4240143Y-8693000D01*
X4259190Y-8683476D01*
X4392524Y-8683476D02*
X4516333Y-8683476D01*
X4449667Y-8759667D01*
X4478238Y-8759667D01*
X4497286Y-8769190D01*
X4506810Y-8778714D01*
X4516333Y-8797762D01*
X4516333Y-8845381D01*
X4506810Y-8864429D01*
X4497286Y-8873952D01*
X4478238Y-8883476D01*
X4421095Y-8883476D01*
X4402048Y-8873952D01*
X4392524Y-8864429D01*
X4706810Y-8883476D02*
X4592524Y-8883476D01*
X4649667Y-8883476D02*
X4649667Y-8683476D01*
X4630619Y-8712048D01*
X4611571Y-8731095D01*
X4592524Y-8740619D01*
X4887762Y-8683476D02*
X4792524Y-8683476D01*
X4783000Y-8778714D01*
X4792524Y-8769190D01*
X4811571Y-8759667D01*
X4859190Y-8759667D01*
X4878238Y-8769190D01*
X4887762Y-8778714D01*
X4897286Y-8797762D01*
X4897286Y-8845381D01*
X4887762Y-8864429D01*
X4878238Y-8873952D01*
X4859190Y-8883476D01*
X4811571Y-8883476D01*
X4792524Y-8873952D01*
X4783000Y-8864429D01*
X4973476Y-8683476D02*
X4973476Y-8721571D01*
X5049667Y-8683476D02*
X5049667Y-8721571D01*
X5344905Y-8959667D02*
X5335381Y-8950143D01*
X5316333Y-8921571D01*
X5306810Y-8902524D01*
X5297286Y-8873952D01*
X5287762Y-8826333D01*
X5287762Y-8788238D01*
X5297286Y-8740619D01*
X5306810Y-8712048D01*
X5316333Y-8693000D01*
X5335381Y-8664429D01*
X5344905Y-8654905D01*
X5506810Y-8750143D02*
X5506810Y-8883476D01*
X5459190Y-8673952D02*
X5411571Y-8816810D01*
X5535381Y-8816810D01*
X5763952Y-8883476D02*
X5763952Y-8683476D01*
X5849667Y-8883476D02*
X5849667Y-8778714D01*
X5840143Y-8759667D01*
X5821095Y-8750143D01*
X5792524Y-8750143D01*
X5773476Y-8759667D01*
X5763952Y-8769190D01*
X5973476Y-8883476D02*
X5954428Y-8873952D01*
X5944905Y-8864429D01*
X5935381Y-8845381D01*
X5935381Y-8788238D01*
X5944905Y-8769190D01*
X5954428Y-8759667D01*
X5973476Y-8750143D01*
X6002048Y-8750143D01*
X6021095Y-8759667D01*
X6030619Y-8769190D01*
X6040143Y-8788238D01*
X6040143Y-8845381D01*
X6030619Y-8864429D01*
X6021095Y-8873952D01*
X6002048Y-8883476D01*
X5973476Y-8883476D01*
X6154428Y-8883476D02*
X6135381Y-8873952D01*
X6125857Y-8854905D01*
X6125857Y-8683476D01*
X6306809Y-8873952D02*
X6287762Y-8883476D01*
X6249667Y-8883476D01*
X6230619Y-8873952D01*
X6221095Y-8854905D01*
X6221095Y-8778714D01*
X6230619Y-8759667D01*
X6249667Y-8750143D01*
X6287762Y-8750143D01*
X6306809Y-8759667D01*
X6316333Y-8778714D01*
X6316333Y-8797762D01*
X6221095Y-8816810D01*
X6392524Y-8873952D02*
X6411571Y-8883476D01*
X6449667Y-8883476D01*
X6468714Y-8873952D01*
X6478238Y-8854905D01*
X6478238Y-8845381D01*
X6468714Y-8826333D01*
X6449667Y-8816810D01*
X6421095Y-8816810D01*
X6402048Y-8807286D01*
X6392524Y-8788238D01*
X6392524Y-8778714D01*
X6402048Y-8759667D01*
X6421095Y-8750143D01*
X6449667Y-8750143D01*
X6468714Y-8759667D01*
X6544905Y-8959667D02*
X6554428Y-8950143D01*
X6573476Y-8921571D01*
X6583000Y-8902524D01*
X6592524Y-8873952D01*
X6602048Y-8826333D01*
X6602048Y-8788238D01*
X6592524Y-8740619D01*
X6583000Y-8712048D01*
X6573476Y-8693000D01*
X6554428Y-8664429D01*
X6544905Y-8654905D01*
D14*
X1758356Y-9092356D02*
X1758356Y-9021644D01*
X1687644Y-9021644D01*
X1687644Y-9092356D01*
X1758356Y-9092356D01*
D11*
X2135381Y-9147476D02*
X2021095Y-9147476D01*
X2078238Y-9147476D02*
X2078238Y-8947476D01*
X2059190Y-8976048D01*
X2040143Y-8995095D01*
X2021095Y-9004619D01*
X2221095Y-9128429D02*
X2230619Y-9137952D01*
X2221095Y-9147476D01*
X2211571Y-9137952D01*
X2221095Y-9128429D01*
X2221095Y-9147476D01*
X2354429Y-8947476D02*
X2373476Y-8947476D01*
X2392524Y-8957000D01*
X2402048Y-8966524D01*
X2411571Y-8985571D01*
X2421095Y-9023667D01*
X2421095Y-9071286D01*
X2411571Y-9109381D01*
X2402048Y-9128429D01*
X2392524Y-9137952D01*
X2373476Y-9147476D01*
X2354429Y-9147476D01*
X2335381Y-9137952D01*
X2325857Y-9128429D01*
X2316333Y-9109381D01*
X2306810Y-9071286D01*
X2306810Y-9023667D01*
X2316333Y-8985571D01*
X2325857Y-8966524D01*
X2335381Y-8957000D01*
X2354429Y-8947476D01*
X2544905Y-8947476D02*
X2563952Y-8947476D01*
X2583000Y-8957000D01*
X2592524Y-8966524D01*
X2602048Y-8985571D01*
X2611571Y-9023667D01*
X2611571Y-9071286D01*
X2602048Y-9109381D01*
X2592524Y-9128429D01*
X2583000Y-9137952D01*
X2563952Y-9147476D01*
X2544905Y-9147476D01*
X2525857Y-9137952D01*
X2516333Y-9128429D01*
X2506810Y-9109381D01*
X2497286Y-9071286D01*
X2497286Y-9023667D01*
X2506810Y-8985571D01*
X2516333Y-8966524D01*
X2525857Y-8957000D01*
X2544905Y-8947476D01*
X2735381Y-8947476D02*
X2754429Y-8947476D01*
X2773476Y-8957000D01*
X2783000Y-8966524D01*
X2792524Y-8985571D01*
X2802048Y-9023667D01*
X2802048Y-9071286D01*
X2792524Y-9109381D01*
X2783000Y-9128429D01*
X2773476Y-9137952D01*
X2754429Y-9147476D01*
X2735381Y-9147476D01*
X2716333Y-9137952D01*
X2706810Y-9128429D01*
X2697286Y-9109381D01*
X2687762Y-9071286D01*
X2687762Y-9023667D01*
X2697286Y-8985571D01*
X2706810Y-8966524D01*
X2716333Y-8957000D01*
X2735381Y-8947476D01*
X2887762Y-9147476D02*
X2887762Y-9014143D01*
X2887762Y-9033190D02*
X2897286Y-9023667D01*
X2916333Y-9014143D01*
X2944905Y-9014143D01*
X2963952Y-9023667D01*
X2973476Y-9042714D01*
X2973476Y-9147476D01*
X2973476Y-9042714D02*
X2983000Y-9023667D01*
X3002048Y-9014143D01*
X3030619Y-9014143D01*
X3049667Y-9023667D01*
X3059190Y-9042714D01*
X3059190Y-9147476D01*
X3154428Y-9147476D02*
X3154428Y-9014143D01*
X3154428Y-9033190D02*
X3163952Y-9023667D01*
X3183000Y-9014143D01*
X3211571Y-9014143D01*
X3230619Y-9023667D01*
X3240143Y-9042714D01*
X3240143Y-9147476D01*
X3240143Y-9042714D02*
X3249667Y-9023667D01*
X3268714Y-9014143D01*
X3297286Y-9014143D01*
X3316333Y-9023667D01*
X3325857Y-9042714D01*
X3325857Y-9147476D01*
X3716333Y-8937952D02*
X3544905Y-9195095D01*
X3973476Y-8947476D02*
X3992524Y-8947476D01*
X4011571Y-8957000D01*
X4021095Y-8966524D01*
X4030619Y-8985571D01*
X4040143Y-9023667D01*
X4040143Y-9071286D01*
X4030619Y-9109381D01*
X4021095Y-9128429D01*
X4011571Y-9137952D01*
X3992524Y-9147476D01*
X3973476Y-9147476D01*
X3954428Y-9137952D01*
X3944905Y-9128429D01*
X3935381Y-9109381D01*
X3925857Y-9071286D01*
X3925857Y-9023667D01*
X3935381Y-8985571D01*
X3944905Y-8966524D01*
X3954428Y-8957000D01*
X3973476Y-8947476D01*
X4125857Y-9128429D02*
X4135381Y-9137952D01*
X4125857Y-9147476D01*
X4116333Y-9137952D01*
X4125857Y-9128429D01*
X4125857Y-9147476D01*
X4259190Y-8947476D02*
X4278238Y-8947476D01*
X4297286Y-8957000D01*
X4306810Y-8966524D01*
X4316333Y-8985571D01*
X4325857Y-9023667D01*
X4325857Y-9071286D01*
X4316333Y-9109381D01*
X4306810Y-9128429D01*
X4297286Y-9137952D01*
X4278238Y-9147476D01*
X4259190Y-9147476D01*
X4240143Y-9137952D01*
X4230619Y-9128429D01*
X4221095Y-9109381D01*
X4211571Y-9071286D01*
X4211571Y-9023667D01*
X4221095Y-8985571D01*
X4230619Y-8966524D01*
X4240143Y-8957000D01*
X4259190Y-8947476D01*
X4392524Y-8947476D02*
X4516333Y-8947476D01*
X4449667Y-9023667D01*
X4478238Y-9023667D01*
X4497286Y-9033190D01*
X4506810Y-9042714D01*
X4516333Y-9061762D01*
X4516333Y-9109381D01*
X4506810Y-9128429D01*
X4497286Y-9137952D01*
X4478238Y-9147476D01*
X4421095Y-9147476D01*
X4402048Y-9137952D01*
X4392524Y-9128429D01*
X4611571Y-9147476D02*
X4649667Y-9147476D01*
X4668714Y-9137952D01*
X4678238Y-9128429D01*
X4697286Y-9099857D01*
X4706810Y-9061762D01*
X4706810Y-8985571D01*
X4697286Y-8966524D01*
X4687762Y-8957000D01*
X4668714Y-8947476D01*
X4630619Y-8947476D01*
X4611571Y-8957000D01*
X4602048Y-8966524D01*
X4592524Y-8985571D01*
X4592524Y-9033190D01*
X4602048Y-9052238D01*
X4611571Y-9061762D01*
X4630619Y-9071286D01*
X4668714Y-9071286D01*
X4687762Y-9061762D01*
X4697286Y-9052238D01*
X4706810Y-9033190D01*
X4878238Y-9014143D02*
X4878238Y-9147476D01*
X4830619Y-8937952D02*
X4783000Y-9080810D01*
X4906810Y-9080810D01*
X4973476Y-8947476D02*
X4973476Y-8985571D01*
X5049667Y-8947476D02*
X5049667Y-8985571D01*
X5344905Y-9223667D02*
X5335381Y-9214143D01*
X5316333Y-9185571D01*
X5306810Y-9166524D01*
X5297286Y-9137952D01*
X5287762Y-9090333D01*
X5287762Y-9052238D01*
X5297286Y-9004619D01*
X5306810Y-8976048D01*
X5316333Y-8957000D01*
X5335381Y-8928429D01*
X5344905Y-8918905D01*
X5525857Y-9147476D02*
X5411571Y-9147476D01*
X5468714Y-9147476D02*
X5468714Y-8947476D01*
X5449667Y-8976048D01*
X5430619Y-8995095D01*
X5411571Y-9004619D01*
X5649667Y-8947476D02*
X5668714Y-8947476D01*
X5687762Y-8957000D01*
X5697286Y-8966524D01*
X5706809Y-8985571D01*
X5716333Y-9023667D01*
X5716333Y-9071286D01*
X5706809Y-9109381D01*
X5697286Y-9128429D01*
X5687762Y-9137952D01*
X5668714Y-9147476D01*
X5649667Y-9147476D01*
X5630619Y-9137952D01*
X5621095Y-9128429D01*
X5611571Y-9109381D01*
X5602048Y-9071286D01*
X5602048Y-9023667D01*
X5611571Y-8985571D01*
X5621095Y-8966524D01*
X5630619Y-8957000D01*
X5649667Y-8947476D01*
X5897286Y-8947476D02*
X5802048Y-8947476D01*
X5792524Y-9042714D01*
X5802048Y-9033190D01*
X5821095Y-9023667D01*
X5868714Y-9023667D01*
X5887762Y-9033190D01*
X5897286Y-9042714D01*
X5906809Y-9061762D01*
X5906809Y-9109381D01*
X5897286Y-9128429D01*
X5887762Y-9137952D01*
X5868714Y-9147476D01*
X5821095Y-9147476D01*
X5802048Y-9137952D01*
X5792524Y-9128429D01*
X6144905Y-9147476D02*
X6144905Y-8947476D01*
X6230619Y-9147476D02*
X6230619Y-9042714D01*
X6221095Y-9023667D01*
X6202048Y-9014143D01*
X6173476Y-9014143D01*
X6154428Y-9023667D01*
X6144905Y-9033190D01*
X6354428Y-9147476D02*
X6335381Y-9137952D01*
X6325857Y-9128429D01*
X6316333Y-9109381D01*
X6316333Y-9052238D01*
X6325857Y-9033190D01*
X6335381Y-9023667D01*
X6354428Y-9014143D01*
X6383000Y-9014143D01*
X6402048Y-9023667D01*
X6411571Y-9033190D01*
X6421095Y-9052238D01*
X6421095Y-9109381D01*
X6411571Y-9128429D01*
X6402048Y-9137952D01*
X6383000Y-9147476D01*
X6354428Y-9147476D01*
X6535381Y-9147476D02*
X6516333Y-9137952D01*
X6506809Y-9118905D01*
X6506809Y-8947476D01*
X6687762Y-9137952D02*
X6668714Y-9147476D01*
X6630619Y-9147476D01*
X6611571Y-9137952D01*
X6602048Y-9118905D01*
X6602048Y-9042714D01*
X6611571Y-9023667D01*
X6630619Y-9014143D01*
X6668714Y-9014143D01*
X6687762Y-9023667D01*
X6697286Y-9042714D01*
X6697286Y-9061762D01*
X6602048Y-9080810D01*
X6773476Y-9137952D02*
X6792524Y-9147476D01*
X6830619Y-9147476D01*
X6849667Y-9137952D01*
X6859190Y-9118905D01*
X6859190Y-9109381D01*
X6849667Y-9090333D01*
X6830619Y-9080810D01*
X6802048Y-9080810D01*
X6783000Y-9071286D01*
X6773476Y-9052238D01*
X6773476Y-9042714D01*
X6783000Y-9023667D01*
X6802048Y-9014143D01*
X6830619Y-9014143D01*
X6849667Y-9023667D01*
X6925857Y-9223667D02*
X6935381Y-9214143D01*
X6954428Y-9185571D01*
X6963952Y-9166524D01*
X6973476Y-9137952D01*
X6983000Y-9090333D01*
X6983000Y-9052238D01*
X6973476Y-9004619D01*
X6963952Y-8976048D01*
X6954428Y-8957000D01*
X6935381Y-8928429D01*
X6925857Y-8918905D01*
M02*
