M48
; DRILL file {KiCad (6.0.0)} date Sat May 18 14:08:50 2024
; FORMAT={-:-/ absolute / metric / decimal}
; #@! TF.CreationDate,2024-05-18T14:08:50+02:00
; #@! TF.GenerationSoftware,Kicad,Pcbnew,(6.0.0)
; #@! TF.FileFunction,Plated,1,2,PTH
FMAT,2
METRIC
; #@! TA.AperFunction,Plated,PTH,ComponentDrill
T1C0.762
; #@! TA.AperFunction,Plated,PTH,ViaDrill
T2C0.800
; #@! TA.AperFunction,Plated,PTH,ComponentDrill
T3C0.800
; #@! TA.AperFunction,Plated,PTH,ComponentDrill
T4C1.000
%
G90
G05
T1
X33.02Y-31.75
X33.02Y-59.69
X35.56Y-31.75
X35.56Y-59.69
X36.195Y-45.72
X36.195Y-48.26
X36.195Y-50.8
X36.195Y-53.34
X38.1Y-31.75
X38.1Y-59.69
X38.735Y-45.72
X41.275Y-45.72
X43.18Y-31.75
X43.18Y-39.37
X43.18Y-59.69
X43.18Y-67.31
X43.815Y-45.72
X43.815Y-48.26
X43.815Y-50.8
X43.815Y-53.34
X45.72Y-31.75
X45.72Y-39.37
X45.72Y-59.69
X45.72Y-67.31
X48.26Y-31.75
X48.26Y-39.37
X48.26Y-46.99
X48.26Y-49.53
X48.26Y-52.07
X48.26Y-59.69
X48.26Y-67.31
X50.8Y-31.75
X50.8Y-39.37
X50.8Y-59.69
X50.8Y-67.31
X53.34Y-46.99
X53.34Y-49.53
X53.34Y-52.07
X57.15Y-31.75
X57.15Y-34.29
X57.15Y-36.83
X57.15Y-39.37
X57.15Y-59.69
X57.15Y-62.23
X57.15Y-64.77
X57.15Y-67.31
X59.69Y-31.75
X59.69Y-34.29
X59.69Y-59.69
X59.69Y-62.23
X62.23Y-36.83
X62.23Y-39.37
X62.23Y-64.77
X62.23Y-67.31
X64.77Y-31.75
X64.77Y-34.29
X64.77Y-36.83
X64.77Y-39.37
X64.77Y-59.69
X64.77Y-62.23
X64.77Y-64.77
X64.77Y-67.31
X66.04Y-48.26
X66.04Y-50.8
X70.485Y-64.77
X70.485Y-67.31
X80.645Y-64.77
X80.645Y-67.31
T2
X23.495Y-57.15
X48.26Y-57.15
T3
X70.485Y-57.785
X70.485Y-60.285
X80.645Y-57.76
X80.645Y-60.26
T4
X26.67Y-25.4
X26.67Y-27.94
X26.67Y-31.75
X26.67Y-34.29
X26.67Y-45.72
X26.67Y-48.26
X26.67Y-50.8
X26.67Y-53.34
X26.67Y-59.69
X26.67Y-62.23
X26.67Y-71.12
X26.67Y-73.66
X29.21Y-25.4
X29.21Y-27.94
X29.21Y-31.75
X29.21Y-34.29
X29.21Y-45.72
X29.21Y-48.26
X29.21Y-50.8
X29.21Y-53.34
X29.21Y-59.69
X29.21Y-62.23
X29.21Y-71.12
X29.21Y-73.66
X31.75Y-25.4
X31.75Y-27.94
X31.75Y-71.12
X31.75Y-73.66
X34.29Y-25.4
X34.29Y-27.94
X34.29Y-71.12
X34.29Y-73.66
X36.83Y-25.4
X36.83Y-27.94
X36.83Y-71.12
X36.83Y-73.66
X39.37Y-25.4
X39.37Y-27.94
X39.37Y-71.12
X39.37Y-73.66
X41.91Y-25.4
X41.91Y-27.94
X41.91Y-71.12
X41.91Y-73.66
X44.45Y-25.4
X44.45Y-27.94
X44.45Y-71.12
X44.45Y-73.66
X46.99Y-25.4
X46.99Y-27.94
X46.99Y-71.12
X46.99Y-73.66
X49.53Y-25.4
X49.53Y-27.94
X49.53Y-71.12
X49.53Y-73.66
X52.07Y-25.4
X52.07Y-27.94
X52.07Y-71.12
X52.07Y-73.66
X54.61Y-25.4
X54.61Y-27.94
X54.61Y-71.12
X54.61Y-73.66
X57.15Y-25.4
X57.15Y-27.94
X57.15Y-71.12
X57.15Y-73.66
X59.69Y-25.4
X59.69Y-27.94
X59.69Y-71.12
X59.69Y-73.66
X62.23Y-25.4
X62.23Y-27.94
X62.23Y-71.12
X62.23Y-73.66
X64.77Y-25.4
X64.77Y-27.94
X64.77Y-71.12
X64.77Y-73.66
X67.31Y-25.4
X67.31Y-27.94
X67.31Y-71.12
X67.31Y-73.66
X69.85Y-25.4
X69.85Y-27.94
X69.85Y-30.465
X69.85Y-33.005
X69.85Y-35.545
X69.85Y-38.1
X69.85Y-40.64
X69.85Y-45.72
X69.85Y-48.26
X69.85Y-50.8
X69.85Y-53.34
X69.85Y-71.12
X69.85Y-73.66
X72.39Y-25.4
X72.39Y-27.94
X72.39Y-71.12
X72.39Y-73.66
X74.93Y-25.4
X74.93Y-27.94
X74.93Y-71.12
X74.93Y-73.66
T0
M30
