G04 #@! TF.GenerationSoftware,KiCad,Pcbnew,(6.0.0)*
G04 #@! TF.CreationDate,2024-05-18T14:09:02+02:00*
G04 #@! TF.ProjectId,Smart Servo Control Board Rev.1,536d6172-7420-4536-9572-766f20436f6e,rev?*
G04 #@! TF.SameCoordinates,Original*
G04 #@! TF.FileFunction,Legend,Top*
G04 #@! TF.FilePolarity,Positive*
%FSLAX46Y46*%
G04 Gerber Fmt 4.6, Leading zero omitted, Abs format (unit mm)*
G04 Created by KiCad (PCBNEW (6.0.0)) date 2024-05-18 14:09:02*
%MOMM*%
%LPD*%
G01*
G04 APERTURE LIST*
G04 Aperture macros list*
%AMRoundRect*
0 Rectangle with rounded corners*
0 $1 Rounding radius*
0 $2 $3 $4 $5 $6 $7 $8 $9 X,Y pos of 4 corners*
0 Add a 4 corners polygon primitive as box body*
4,1,4,$2,$3,$4,$5,$6,$7,$8,$9,$2,$3,0*
0 Add four circle primitives for the rounded corners*
1,1,$1+$1,$2,$3*
1,1,$1+$1,$4,$5*
1,1,$1+$1,$6,$7*
1,1,$1+$1,$8,$9*
0 Add four rect primitives between the rounded corners*
20,1,$1+$1,$2,$3,$4,$5,0*
20,1,$1+$1,$4,$5,$6,$7,0*
20,1,$1+$1,$6,$7,$8,$9,0*
20,1,$1+$1,$8,$9,$2,$3,0*%
G04 Aperture macros list end*
%ADD10C,0.150000*%
%ADD11C,0.125000*%
%ADD12C,0.120000*%
%ADD13R,1.600000X1.600000*%
%ADD14C,1.600000*%
%ADD15C,1.524000*%
%ADD16RoundRect,0.250000X0.400000X0.625000X-0.400000X0.625000X-0.400000X-0.625000X0.400000X-0.625000X0*%
%ADD17R,1.700000X1.700000*%
%ADD18O,1.700000X1.700000*%
%ADD19RoundRect,0.250001X0.462499X0.624999X-0.462499X0.624999X-0.462499X-0.624999X0.462499X-0.624999X0*%
%ADD20RoundRect,0.237500X-0.237500X0.250000X-0.237500X-0.250000X0.237500X-0.250000X0.237500X0.250000X0*%
%ADD21RoundRect,0.250000X0.625000X-0.400000X0.625000X0.400000X-0.625000X0.400000X-0.625000X-0.400000X0*%
%ADD22RoundRect,0.250000X-0.400000X-0.625000X0.400000X-0.625000X0.400000X0.625000X-0.400000X0.625000X0*%
%ADD23RoundRect,0.237500X0.237500X-0.250000X0.237500X0.250000X-0.237500X0.250000X-0.237500X-0.250000X0*%
%ADD24RoundRect,0.250000X-0.625000X0.400000X-0.625000X-0.400000X0.625000X-0.400000X0.625000X0.400000X0*%
%ADD25R,1.500000X2.000000*%
%ADD26R,3.800000X2.000000*%
G04 APERTURE END LIST*
D10*
X24130000Y-31750000D02*
X24765000Y-31750000D01*
X71755000Y-35545000D02*
X73025000Y-35545000D01*
X24130000Y-62230000D02*
X24765000Y-62230000D01*
X71755000Y-30480000D02*
X73025000Y-30480000D01*
X73025000Y-48290000D02*
X73660000Y-47625000D01*
X24765000Y-34290000D02*
X24130000Y-34290000D01*
X71755000Y-40640000D02*
X73025000Y-40640000D01*
X71755000Y-50800000D02*
X73025000Y-50800000D01*
X24130000Y-67945000D02*
X24765000Y-67945000D01*
X24130000Y-25400000D02*
X24765000Y-25400000D01*
X24130000Y-71120000D02*
X24765000Y-71120000D01*
X71755000Y-48290000D02*
X73025000Y-48290000D01*
X73025000Y-45720000D02*
X73660000Y-46355000D01*
X73025000Y-50800000D02*
X73660000Y-51435000D01*
X73025000Y-53340000D02*
X73660000Y-52705000D01*
X71755000Y-53340000D02*
X73025000Y-53340000D01*
X24130000Y-73660000D02*
X24765000Y-73660000D01*
X24130000Y-59690000D02*
X24765000Y-59690000D01*
X71755000Y-38100000D02*
X73025000Y-38100000D01*
X71755000Y-33020000D02*
X73025000Y-33020000D01*
X71755000Y-45720000D02*
X73025000Y-45720000D01*
X24130000Y-27940000D02*
X24765000Y-27940000D01*
X74168095Y-40140000D02*
X74072857Y-40092380D01*
X73930000Y-40092380D01*
X73787142Y-40140000D01*
X73691904Y-40235238D01*
X73644285Y-40330476D01*
X73596666Y-40520952D01*
X73596666Y-40663809D01*
X73644285Y-40854285D01*
X73691904Y-40949523D01*
X73787142Y-41044761D01*
X73930000Y-41092380D01*
X74025238Y-41092380D01*
X74168095Y-41044761D01*
X74215714Y-40997142D01*
X74215714Y-40663809D01*
X74025238Y-40663809D01*
X74644285Y-41092380D02*
X74644285Y-40092380D01*
X75215714Y-41092380D01*
X75215714Y-40092380D01*
X75691904Y-41092380D02*
X75691904Y-40092380D01*
X75930000Y-40092380D01*
X76072857Y-40140000D01*
X76168095Y-40235238D01*
X76215714Y-40330476D01*
X76263333Y-40520952D01*
X76263333Y-40663809D01*
X76215714Y-40854285D01*
X76168095Y-40949523D01*
X76072857Y-41044761D01*
X75930000Y-41092380D01*
X75691904Y-41092380D01*
X55269523Y-56332380D02*
X55269523Y-55332380D01*
X55745714Y-56332380D02*
X55745714Y-55332380D01*
X56317142Y-56332380D01*
X56317142Y-55332380D01*
X56745714Y-56046666D02*
X57221904Y-56046666D01*
X56650476Y-56332380D02*
X56983809Y-55332380D01*
X57317142Y-56332380D01*
X57602857Y-55427619D02*
X57650476Y-55380000D01*
X57745714Y-55332380D01*
X57983809Y-55332380D01*
X58079047Y-55380000D01*
X58126666Y-55427619D01*
X58174285Y-55522857D01*
X58174285Y-55618095D01*
X58126666Y-55760952D01*
X57555238Y-56332380D01*
X58174285Y-56332380D01*
X59126666Y-56332380D02*
X58555238Y-56332380D01*
X58840952Y-56332380D02*
X58840952Y-55332380D01*
X58745714Y-55475238D01*
X58650476Y-55570476D01*
X58555238Y-55618095D01*
X59602857Y-56332380D02*
X59793333Y-56332380D01*
X59888571Y-56284761D01*
X59936190Y-56237142D01*
X60031428Y-56094285D01*
X60079047Y-55903809D01*
X60079047Y-55522857D01*
X60031428Y-55427619D01*
X59983809Y-55380000D01*
X59888571Y-55332380D01*
X59698095Y-55332380D01*
X59602857Y-55380000D01*
X59555238Y-55427619D01*
X59507619Y-55522857D01*
X59507619Y-55760952D01*
X59555238Y-55856190D01*
X59602857Y-55903809D01*
X59698095Y-55951428D01*
X59888571Y-55951428D01*
X59983809Y-55903809D01*
X60031428Y-55856190D01*
X60079047Y-55760952D01*
X60507619Y-55951428D02*
X61269523Y-55951428D01*
X61698095Y-55427619D02*
X61745714Y-55380000D01*
X61840952Y-55332380D01*
X62079047Y-55332380D01*
X62174285Y-55380000D01*
X62221904Y-55427619D01*
X62269523Y-55522857D01*
X62269523Y-55618095D01*
X62221904Y-55760952D01*
X61650476Y-56332380D01*
X62269523Y-56332380D01*
X63650476Y-55332380D02*
X63745714Y-55332380D01*
X63840952Y-55380000D01*
X63888571Y-55427619D01*
X63936190Y-55522857D01*
X63983809Y-55713333D01*
X63983809Y-55951428D01*
X63936190Y-56141904D01*
X63888571Y-56237142D01*
X63840952Y-56284761D01*
X63745714Y-56332380D01*
X63650476Y-56332380D01*
X63555238Y-56284761D01*
X63507619Y-56237142D01*
X63460000Y-56141904D01*
X63412380Y-55951428D01*
X63412380Y-55713333D01*
X63460000Y-55522857D01*
X63507619Y-55427619D01*
X63555238Y-55380000D01*
X63650476Y-55332380D01*
X64317142Y-56332380D02*
X64840952Y-55665714D01*
X64317142Y-55665714D02*
X64840952Y-56332380D01*
X65650476Y-55665714D02*
X65650476Y-56332380D01*
X65412380Y-55284761D02*
X65174285Y-55999047D01*
X65793333Y-55999047D01*
X66650476Y-55332380D02*
X66174285Y-55332380D01*
X66126666Y-55808571D01*
X66174285Y-55760952D01*
X66269523Y-55713333D01*
X66507619Y-55713333D01*
X66602857Y-55760952D01*
X66650476Y-55808571D01*
X66698095Y-55903809D01*
X66698095Y-56141904D01*
X66650476Y-56237142D01*
X66602857Y-56284761D01*
X66507619Y-56332380D01*
X66269523Y-56332380D01*
X66174285Y-56284761D01*
X66126666Y-56237142D01*
X74350952Y-47442380D02*
X74350952Y-46442380D01*
X74684285Y-47156666D01*
X75017619Y-46442380D01*
X75017619Y-47442380D01*
X75684285Y-46442380D02*
X75874761Y-46442380D01*
X75970000Y-46490000D01*
X76065238Y-46585238D01*
X76112857Y-46775714D01*
X76112857Y-47109047D01*
X76065238Y-47299523D01*
X75970000Y-47394761D01*
X75874761Y-47442380D01*
X75684285Y-47442380D01*
X75589047Y-47394761D01*
X75493809Y-47299523D01*
X75446190Y-47109047D01*
X75446190Y-46775714D01*
X75493809Y-46585238D01*
X75589047Y-46490000D01*
X75684285Y-46442380D01*
X76398571Y-46442380D02*
X76970000Y-46442380D01*
X76684285Y-47442380D02*
X76684285Y-46442380D01*
X77493809Y-46442380D02*
X77684285Y-46442380D01*
X77779523Y-46490000D01*
X77874761Y-46585238D01*
X77922380Y-46775714D01*
X77922380Y-47109047D01*
X77874761Y-47299523D01*
X77779523Y-47394761D01*
X77684285Y-47442380D01*
X77493809Y-47442380D01*
X77398571Y-47394761D01*
X77303333Y-47299523D01*
X77255714Y-47109047D01*
X77255714Y-46775714D01*
X77303333Y-46585238D01*
X77398571Y-46490000D01*
X77493809Y-46442380D01*
X78922380Y-47442380D02*
X78589047Y-46966190D01*
X78350952Y-47442380D02*
X78350952Y-46442380D01*
X78731904Y-46442380D01*
X78827142Y-46490000D01*
X78874761Y-46537619D01*
X78922380Y-46632857D01*
X78922380Y-46775714D01*
X78874761Y-46870952D01*
X78827142Y-46918571D01*
X78731904Y-46966190D01*
X78350952Y-46966190D01*
X80636666Y-47442380D02*
X80065238Y-47442380D01*
X80350952Y-47442380D02*
X80350952Y-46442380D01*
X80255714Y-46585238D01*
X80160476Y-46680476D01*
X80065238Y-46728095D01*
X21359761Y-50720476D02*
X21407380Y-50577619D01*
X21407380Y-50339523D01*
X21359761Y-50244285D01*
X21312142Y-50196666D01*
X21216904Y-50149047D01*
X21121666Y-50149047D01*
X21026428Y-50196666D01*
X20978809Y-50244285D01*
X20931190Y-50339523D01*
X20883571Y-50530000D01*
X20835952Y-50625238D01*
X20788333Y-50672857D01*
X20693095Y-50720476D01*
X20597857Y-50720476D01*
X20502619Y-50672857D01*
X20455000Y-50625238D01*
X20407380Y-50530000D01*
X20407380Y-50291904D01*
X20455000Y-50149047D01*
X21312142Y-49149047D02*
X21359761Y-49196666D01*
X21407380Y-49339523D01*
X21407380Y-49434761D01*
X21359761Y-49577619D01*
X21264523Y-49672857D01*
X21169285Y-49720476D01*
X20978809Y-49768095D01*
X20835952Y-49768095D01*
X20645476Y-49720476D01*
X20550238Y-49672857D01*
X20455000Y-49577619D01*
X20407380Y-49434761D01*
X20407380Y-49339523D01*
X20455000Y-49196666D01*
X20502619Y-49149047D01*
X21407380Y-48244285D02*
X21407380Y-48720476D01*
X20407380Y-48720476D01*
X73930000Y-38552380D02*
X73930000Y-37552380D01*
X74168095Y-37552380D01*
X74310952Y-37600000D01*
X74406190Y-37695238D01*
X74453809Y-37790476D01*
X74501428Y-37980952D01*
X74501428Y-38123809D01*
X74453809Y-38314285D01*
X74406190Y-38409523D01*
X74310952Y-38504761D01*
X74168095Y-38552380D01*
X73930000Y-38552380D01*
X74930000Y-38552380D02*
X74930000Y-37552380D01*
X75977619Y-38552380D02*
X75644285Y-38076190D01*
X75406190Y-38552380D02*
X75406190Y-37552380D01*
X75787142Y-37552380D01*
X75882380Y-37600000D01*
X75930000Y-37647619D01*
X75977619Y-37742857D01*
X75977619Y-37885714D01*
X75930000Y-37980952D01*
X75882380Y-38028571D01*
X75787142Y-38076190D01*
X75406190Y-38076190D01*
X23899761Y-50744285D02*
X23947380Y-50601428D01*
X23947380Y-50363333D01*
X23899761Y-50268095D01*
X23852142Y-50220476D01*
X23756904Y-50172857D01*
X23661666Y-50172857D01*
X23566428Y-50220476D01*
X23518809Y-50268095D01*
X23471190Y-50363333D01*
X23423571Y-50553809D01*
X23375952Y-50649047D01*
X23328333Y-50696666D01*
X23233095Y-50744285D01*
X23137857Y-50744285D01*
X23042619Y-50696666D01*
X22995000Y-50649047D01*
X22947380Y-50553809D01*
X22947380Y-50315714D01*
X22995000Y-50172857D01*
X23947380Y-49744285D02*
X22947380Y-49744285D01*
X22947380Y-49506190D01*
X22995000Y-49363333D01*
X23090238Y-49268095D01*
X23185476Y-49220476D01*
X23375952Y-49172857D01*
X23518809Y-49172857D01*
X23709285Y-49220476D01*
X23804523Y-49268095D01*
X23899761Y-49363333D01*
X23947380Y-49506190D01*
X23947380Y-49744285D01*
X23661666Y-48791904D02*
X23661666Y-48315714D01*
X23947380Y-48887142D02*
X22947380Y-48553809D01*
X23947380Y-48220476D01*
X58840952Y-48653571D02*
X58983809Y-48701190D01*
X59031428Y-48748809D01*
X59079047Y-48844047D01*
X59079047Y-48986904D01*
X59031428Y-49082142D01*
X58983809Y-49129761D01*
X58888571Y-49177380D01*
X58507619Y-49177380D01*
X58507619Y-48177380D01*
X58840952Y-48177380D01*
X58936190Y-48225000D01*
X58983809Y-48272619D01*
X59031428Y-48367857D01*
X59031428Y-48463095D01*
X58983809Y-48558333D01*
X58936190Y-48605952D01*
X58840952Y-48653571D01*
X58507619Y-48653571D01*
X60079047Y-49177380D02*
X59745714Y-48701190D01*
X59507619Y-49177380D02*
X59507619Y-48177380D01*
X59888571Y-48177380D01*
X59983809Y-48225000D01*
X60031428Y-48272619D01*
X60079047Y-48367857D01*
X60079047Y-48510714D01*
X60031428Y-48605952D01*
X59983809Y-48653571D01*
X59888571Y-48701190D01*
X59507619Y-48701190D01*
X60507619Y-49177380D02*
X60507619Y-48177380D01*
X60983809Y-49177380D02*
X60983809Y-48177380D01*
X61221904Y-48177380D01*
X61364761Y-48225000D01*
X61459999Y-48320238D01*
X61507619Y-48415476D01*
X61555238Y-48605952D01*
X61555238Y-48748809D01*
X61507619Y-48939285D01*
X61459999Y-49034523D01*
X61364761Y-49129761D01*
X61221904Y-49177380D01*
X60983809Y-49177380D01*
X62507619Y-48225000D02*
X62412380Y-48177380D01*
X62269523Y-48177380D01*
X62126666Y-48225000D01*
X62031428Y-48320238D01*
X61983809Y-48415476D01*
X61936190Y-48605952D01*
X61936190Y-48748809D01*
X61983809Y-48939285D01*
X62031428Y-49034523D01*
X62126666Y-49129761D01*
X62269523Y-49177380D01*
X62364761Y-49177380D01*
X62507619Y-49129761D01*
X62555238Y-49082142D01*
X62555238Y-48748809D01*
X62364761Y-48748809D01*
X62983809Y-48653571D02*
X63317142Y-48653571D01*
X63460000Y-49177380D02*
X62983809Y-49177380D01*
X62983809Y-48177380D01*
X63460000Y-48177380D01*
X57936190Y-50263571D02*
X58269523Y-50263571D01*
X58412380Y-50787380D02*
X57936190Y-50787380D01*
X57936190Y-49787380D01*
X58412380Y-49787380D01*
X58840952Y-50787380D02*
X58840952Y-49787380D01*
X59412380Y-50787380D01*
X59412380Y-49787380D01*
X59840952Y-50501666D02*
X60317142Y-50501666D01*
X59745714Y-50787380D02*
X60079047Y-49787380D01*
X60412380Y-50787380D01*
X61079047Y-50263571D02*
X61221904Y-50311190D01*
X61269523Y-50358809D01*
X61317142Y-50454047D01*
X61317142Y-50596904D01*
X61269523Y-50692142D01*
X61221904Y-50739761D01*
X61126666Y-50787380D01*
X60745714Y-50787380D01*
X60745714Y-49787380D01*
X61079047Y-49787380D01*
X61174285Y-49835000D01*
X61221904Y-49882619D01*
X61269523Y-49977857D01*
X61269523Y-50073095D01*
X61221904Y-50168333D01*
X61174285Y-50215952D01*
X61079047Y-50263571D01*
X60745714Y-50263571D01*
X62221904Y-50787380D02*
X61745714Y-50787380D01*
X61745714Y-49787380D01*
X62555238Y-50263571D02*
X62888571Y-50263571D01*
X63031428Y-50787380D02*
X62555238Y-50787380D01*
X62555238Y-49787380D01*
X63031428Y-49787380D01*
X63460000Y-50787380D02*
X63460000Y-49787380D01*
X63698095Y-49787380D01*
X63840952Y-49835000D01*
X63936190Y-49930238D01*
X63983809Y-50025476D01*
X64031428Y-50215952D01*
X64031428Y-50358809D01*
X63983809Y-50549285D01*
X63936190Y-50644523D01*
X63840952Y-50739761D01*
X63698095Y-50787380D01*
X63460000Y-50787380D01*
X18669286Y-68397380D02*
X18669286Y-67397380D01*
X19050238Y-67397380D01*
X19145476Y-67445000D01*
X19193095Y-67492619D01*
X19240714Y-67587857D01*
X19240714Y-67730714D01*
X19193095Y-67825952D01*
X19145476Y-67873571D01*
X19050238Y-67921190D01*
X18669286Y-67921190D01*
X19859762Y-67397380D02*
X20050238Y-67397380D01*
X20145476Y-67445000D01*
X20240714Y-67540238D01*
X20288333Y-67730714D01*
X20288333Y-68064047D01*
X20240714Y-68254523D01*
X20145476Y-68349761D01*
X20050238Y-68397380D01*
X19859762Y-68397380D01*
X19764524Y-68349761D01*
X19669286Y-68254523D01*
X19621667Y-68064047D01*
X19621667Y-67730714D01*
X19669286Y-67540238D01*
X19764524Y-67445000D01*
X19859762Y-67397380D01*
X20621667Y-67397380D02*
X20859762Y-68397380D01*
X21050238Y-67683095D01*
X21240714Y-68397380D01*
X21478810Y-67397380D01*
X21859762Y-67873571D02*
X22193095Y-67873571D01*
X22335952Y-68397380D02*
X21859762Y-68397380D01*
X21859762Y-67397380D01*
X22335952Y-67397380D01*
X23335952Y-68397380D02*
X23002619Y-67921190D01*
X22764524Y-68397380D02*
X22764524Y-67397380D01*
X23145476Y-67397380D01*
X23240714Y-67445000D01*
X23288333Y-67492619D01*
X23335952Y-67587857D01*
X23335952Y-67730714D01*
X23288333Y-67825952D01*
X23240714Y-67873571D01*
X23145476Y-67921190D01*
X22764524Y-67921190D01*
X21240714Y-70620000D02*
X21145476Y-70572380D01*
X21002619Y-70572380D01*
X20859761Y-70620000D01*
X20764523Y-70715238D01*
X20716904Y-70810476D01*
X20669285Y-71000952D01*
X20669285Y-71143809D01*
X20716904Y-71334285D01*
X20764523Y-71429523D01*
X20859761Y-71524761D01*
X21002619Y-71572380D01*
X21097857Y-71572380D01*
X21240714Y-71524761D01*
X21288333Y-71477142D01*
X21288333Y-71143809D01*
X21097857Y-71143809D01*
X21716904Y-71572380D02*
X21716904Y-70572380D01*
X22288333Y-71572380D01*
X22288333Y-70572380D01*
X22764523Y-71572380D02*
X22764523Y-70572380D01*
X23002619Y-70572380D01*
X23145476Y-70620000D01*
X23240714Y-70715238D01*
X23288333Y-70810476D01*
X23335952Y-71000952D01*
X23335952Y-71143809D01*
X23288333Y-71334285D01*
X23240714Y-71429523D01*
X23145476Y-71524761D01*
X23002619Y-71572380D01*
X22764523Y-71572380D01*
X55269523Y-43632380D02*
X55269523Y-42632380D01*
X55745714Y-43632380D02*
X55745714Y-42632380D01*
X56317142Y-43632380D01*
X56317142Y-42632380D01*
X56745714Y-43346666D02*
X57221904Y-43346666D01*
X56650476Y-43632380D02*
X56983809Y-42632380D01*
X57317142Y-43632380D01*
X57602857Y-42727619D02*
X57650476Y-42680000D01*
X57745714Y-42632380D01*
X57983809Y-42632380D01*
X58079047Y-42680000D01*
X58126666Y-42727619D01*
X58174285Y-42822857D01*
X58174285Y-42918095D01*
X58126666Y-43060952D01*
X57555238Y-43632380D01*
X58174285Y-43632380D01*
X59126666Y-43632380D02*
X58555238Y-43632380D01*
X58840952Y-43632380D02*
X58840952Y-42632380D01*
X58745714Y-42775238D01*
X58650476Y-42870476D01*
X58555238Y-42918095D01*
X59602857Y-43632380D02*
X59793333Y-43632380D01*
X59888571Y-43584761D01*
X59936190Y-43537142D01*
X60031428Y-43394285D01*
X60079047Y-43203809D01*
X60079047Y-42822857D01*
X60031428Y-42727619D01*
X59983809Y-42680000D01*
X59888571Y-42632380D01*
X59698095Y-42632380D01*
X59602857Y-42680000D01*
X59555238Y-42727619D01*
X59507619Y-42822857D01*
X59507619Y-43060952D01*
X59555238Y-43156190D01*
X59602857Y-43203809D01*
X59698095Y-43251428D01*
X59888571Y-43251428D01*
X59983809Y-43203809D01*
X60031428Y-43156190D01*
X60079047Y-43060952D01*
X60507619Y-43251428D02*
X61269523Y-43251428D01*
X62269523Y-43632380D02*
X61698095Y-43632380D01*
X61983809Y-43632380D02*
X61983809Y-42632380D01*
X61888571Y-42775238D01*
X61793333Y-42870476D01*
X61698095Y-42918095D01*
X63650476Y-42632380D02*
X63745714Y-42632380D01*
X63840952Y-42680000D01*
X63888571Y-42727619D01*
X63936190Y-42822857D01*
X63983809Y-43013333D01*
X63983809Y-43251428D01*
X63936190Y-43441904D01*
X63888571Y-43537142D01*
X63840952Y-43584761D01*
X63745714Y-43632380D01*
X63650476Y-43632380D01*
X63555238Y-43584761D01*
X63507619Y-43537142D01*
X63460000Y-43441904D01*
X63412380Y-43251428D01*
X63412380Y-43013333D01*
X63460000Y-42822857D01*
X63507619Y-42727619D01*
X63555238Y-42680000D01*
X63650476Y-42632380D01*
X64317142Y-43632380D02*
X64840952Y-42965714D01*
X64317142Y-42965714D02*
X64840952Y-43632380D01*
X65650476Y-42965714D02*
X65650476Y-43632380D01*
X65412380Y-42584761D02*
X65174285Y-43299047D01*
X65793333Y-43299047D01*
X66364761Y-42632380D02*
X66459999Y-42632380D01*
X66555238Y-42680000D01*
X66602857Y-42727619D01*
X66650476Y-42822857D01*
X66698095Y-43013333D01*
X66698095Y-43251428D01*
X66650476Y-43441904D01*
X66602857Y-43537142D01*
X66555238Y-43584761D01*
X66459999Y-43632380D01*
X66364761Y-43632380D01*
X66269523Y-43584761D01*
X66221904Y-43537142D01*
X66174285Y-43441904D01*
X66126666Y-43251428D01*
X66126666Y-43013333D01*
X66174285Y-42822857D01*
X66221904Y-42727619D01*
X66269523Y-42680000D01*
X66364761Y-42632380D01*
X18574047Y-31916666D02*
X19050238Y-31916666D01*
X18478809Y-32202380D02*
X18812142Y-31202380D01*
X19145476Y-32202380D01*
X20764523Y-31250000D02*
X20669285Y-31202380D01*
X20526428Y-31202380D01*
X20383571Y-31250000D01*
X20288333Y-31345238D01*
X20240714Y-31440476D01*
X20193095Y-31630952D01*
X20193095Y-31773809D01*
X20240714Y-31964285D01*
X20288333Y-32059523D01*
X20383571Y-32154761D01*
X20526428Y-32202380D01*
X20621666Y-32202380D01*
X20764523Y-32154761D01*
X20812142Y-32107142D01*
X20812142Y-31773809D01*
X20621666Y-31773809D01*
X21193095Y-31916666D02*
X21669285Y-31916666D01*
X21097857Y-32202380D02*
X21431190Y-31202380D01*
X21764523Y-32202380D01*
X21955000Y-31202380D02*
X22526428Y-31202380D01*
X22240714Y-32202380D02*
X22240714Y-31202380D01*
X22859761Y-31678571D02*
X23193095Y-31678571D01*
X23335952Y-32202380D02*
X22859761Y-32202380D01*
X22859761Y-31202380D01*
X23335952Y-31202380D01*
X18812143Y-34218571D02*
X18955000Y-34266190D01*
X19002619Y-34313809D01*
X19050238Y-34409047D01*
X19050238Y-34551904D01*
X19002619Y-34647142D01*
X18955000Y-34694761D01*
X18859762Y-34742380D01*
X18478810Y-34742380D01*
X18478810Y-33742380D01*
X18812143Y-33742380D01*
X18907381Y-33790000D01*
X18955000Y-33837619D01*
X19002619Y-33932857D01*
X19002619Y-34028095D01*
X18955000Y-34123333D01*
X18907381Y-34170952D01*
X18812143Y-34218571D01*
X18478810Y-34218571D01*
X20764524Y-33790000D02*
X20669286Y-33742380D01*
X20526429Y-33742380D01*
X20383572Y-33790000D01*
X20288333Y-33885238D01*
X20240714Y-33980476D01*
X20193095Y-34170952D01*
X20193095Y-34313809D01*
X20240714Y-34504285D01*
X20288333Y-34599523D01*
X20383572Y-34694761D01*
X20526429Y-34742380D01*
X20621667Y-34742380D01*
X20764524Y-34694761D01*
X20812143Y-34647142D01*
X20812143Y-34313809D01*
X20621667Y-34313809D01*
X21193095Y-34456666D02*
X21669286Y-34456666D01*
X21097857Y-34742380D02*
X21431191Y-33742380D01*
X21764524Y-34742380D01*
X21955000Y-33742380D02*
X22526429Y-33742380D01*
X22240714Y-34742380D02*
X22240714Y-33742380D01*
X22859762Y-34218571D02*
X23193095Y-34218571D01*
X23335952Y-34742380D02*
X22859762Y-34742380D01*
X22859762Y-33742380D01*
X23335952Y-33742380D01*
X19050238Y-60047142D02*
X19002619Y-60094761D01*
X18859762Y-60142380D01*
X18764524Y-60142380D01*
X18621667Y-60094761D01*
X18526429Y-59999523D01*
X18478810Y-59904285D01*
X18431191Y-59713809D01*
X18431191Y-59570952D01*
X18478810Y-59380476D01*
X18526429Y-59285238D01*
X18621667Y-59190000D01*
X18764524Y-59142380D01*
X18859762Y-59142380D01*
X19002619Y-59190000D01*
X19050238Y-59237619D01*
X20764524Y-59190000D02*
X20669286Y-59142380D01*
X20526429Y-59142380D01*
X20383572Y-59190000D01*
X20288333Y-59285238D01*
X20240714Y-59380476D01*
X20193095Y-59570952D01*
X20193095Y-59713809D01*
X20240714Y-59904285D01*
X20288333Y-59999523D01*
X20383572Y-60094761D01*
X20526429Y-60142380D01*
X20621667Y-60142380D01*
X20764524Y-60094761D01*
X20812143Y-60047142D01*
X20812143Y-59713809D01*
X20621667Y-59713809D01*
X21193095Y-59856666D02*
X21669286Y-59856666D01*
X21097857Y-60142380D02*
X21431191Y-59142380D01*
X21764524Y-60142380D01*
X21955000Y-59142380D02*
X22526429Y-59142380D01*
X22240714Y-60142380D02*
X22240714Y-59142380D01*
X22859762Y-59618571D02*
X23193095Y-59618571D01*
X23335952Y-60142380D02*
X22859762Y-60142380D01*
X22859762Y-59142380D01*
X23335952Y-59142380D01*
X18478810Y-62682380D02*
X18478810Y-61682380D01*
X18716905Y-61682380D01*
X18859762Y-61730000D01*
X18955000Y-61825238D01*
X19002619Y-61920476D01*
X19050238Y-62110952D01*
X19050238Y-62253809D01*
X19002619Y-62444285D01*
X18955000Y-62539523D01*
X18859762Y-62634761D01*
X18716905Y-62682380D01*
X18478810Y-62682380D01*
X20764524Y-61730000D02*
X20669286Y-61682380D01*
X20526429Y-61682380D01*
X20383572Y-61730000D01*
X20288333Y-61825238D01*
X20240714Y-61920476D01*
X20193095Y-62110952D01*
X20193095Y-62253809D01*
X20240714Y-62444285D01*
X20288333Y-62539523D01*
X20383572Y-62634761D01*
X20526429Y-62682380D01*
X20621667Y-62682380D01*
X20764524Y-62634761D01*
X20812143Y-62587142D01*
X20812143Y-62253809D01*
X20621667Y-62253809D01*
X21193095Y-62396666D02*
X21669286Y-62396666D01*
X21097857Y-62682380D02*
X21431191Y-61682380D01*
X21764524Y-62682380D01*
X21955000Y-61682380D02*
X22526429Y-61682380D01*
X22240714Y-62682380D02*
X22240714Y-61682380D01*
X22859762Y-62158571D02*
X23193095Y-62158571D01*
X23335952Y-62682380D02*
X22859762Y-62682380D01*
X22859762Y-61682380D01*
X23335952Y-61682380D01*
X73715714Y-33424761D02*
X73858571Y-33472380D01*
X74096666Y-33472380D01*
X74191904Y-33424761D01*
X74239523Y-33377142D01*
X74287142Y-33281904D01*
X74287142Y-33186666D01*
X74239523Y-33091428D01*
X74191904Y-33043809D01*
X74096666Y-32996190D01*
X73906190Y-32948571D01*
X73810952Y-32900952D01*
X73763333Y-32853333D01*
X73715714Y-32758095D01*
X73715714Y-32662857D01*
X73763333Y-32567619D01*
X73810952Y-32520000D01*
X73906190Y-32472380D01*
X74144285Y-32472380D01*
X74287142Y-32520000D01*
X74715714Y-33472380D02*
X74715714Y-32472380D01*
X74953809Y-32472380D01*
X75096666Y-32520000D01*
X75191904Y-32615238D01*
X75239523Y-32710476D01*
X75287142Y-32900952D01*
X75287142Y-33043809D01*
X75239523Y-33234285D01*
X75191904Y-33329523D01*
X75096666Y-33424761D01*
X74953809Y-33472380D01*
X74715714Y-33472380D01*
X75668095Y-33186666D02*
X76144285Y-33186666D01*
X75572857Y-33472380D02*
X75906190Y-32472380D01*
X76239523Y-33472380D01*
X73763333Y-35631428D02*
X74525237Y-35631428D01*
X74144285Y-36012380D02*
X74144285Y-35250476D01*
X74906190Y-35012380D02*
X75525237Y-35012380D01*
X75191904Y-35393333D01*
X75334761Y-35393333D01*
X75429999Y-35440952D01*
X75477618Y-35488571D01*
X75525237Y-35583809D01*
X75525237Y-35821904D01*
X75477618Y-35917142D01*
X75429999Y-35964761D01*
X75334761Y-36012380D01*
X75049047Y-36012380D01*
X74953809Y-35964761D01*
X74906190Y-35917142D01*
X75953809Y-35917142D02*
X76001428Y-35964761D01*
X75953809Y-36012380D01*
X75906190Y-35964761D01*
X75953809Y-35917142D01*
X75953809Y-36012380D01*
X76334761Y-35012380D02*
X76953809Y-35012380D01*
X76620475Y-35393333D01*
X76763333Y-35393333D01*
X76858571Y-35440952D01*
X76906190Y-35488571D01*
X76953809Y-35583809D01*
X76953809Y-35821904D01*
X76906190Y-35917142D01*
X76858571Y-35964761D01*
X76763333Y-36012380D01*
X76477618Y-36012380D01*
X76382380Y-35964761D01*
X76334761Y-35917142D01*
X77239523Y-35012380D02*
X77572856Y-36012380D01*
X77906190Y-35012380D01*
X74350952Y-52522380D02*
X74350952Y-51522380D01*
X74684285Y-52236666D01*
X75017619Y-51522380D01*
X75017619Y-52522380D01*
X75684285Y-51522380D02*
X75874761Y-51522380D01*
X75970000Y-51570000D01*
X76065238Y-51665238D01*
X76112857Y-51855714D01*
X76112857Y-52189047D01*
X76065238Y-52379523D01*
X75970000Y-52474761D01*
X75874761Y-52522380D01*
X75684285Y-52522380D01*
X75589047Y-52474761D01*
X75493809Y-52379523D01*
X75446190Y-52189047D01*
X75446190Y-51855714D01*
X75493809Y-51665238D01*
X75589047Y-51570000D01*
X75684285Y-51522380D01*
X76398571Y-51522380D02*
X76970000Y-51522380D01*
X76684285Y-52522380D02*
X76684285Y-51522380D01*
X77493809Y-51522380D02*
X77684285Y-51522380D01*
X77779523Y-51570000D01*
X77874761Y-51665238D01*
X77922380Y-51855714D01*
X77922380Y-52189047D01*
X77874761Y-52379523D01*
X77779523Y-52474761D01*
X77684285Y-52522380D01*
X77493809Y-52522380D01*
X77398571Y-52474761D01*
X77303333Y-52379523D01*
X77255714Y-52189047D01*
X77255714Y-51855714D01*
X77303333Y-51665238D01*
X77398571Y-51570000D01*
X77493809Y-51522380D01*
X78922380Y-52522380D02*
X78589047Y-52046190D01*
X78350952Y-52522380D02*
X78350952Y-51522380D01*
X78731904Y-51522380D01*
X78827142Y-51570000D01*
X78874761Y-51617619D01*
X78922380Y-51712857D01*
X78922380Y-51855714D01*
X78874761Y-51950952D01*
X78827142Y-51998571D01*
X78731904Y-52046190D01*
X78350952Y-52046190D01*
X80065238Y-51617619D02*
X80112857Y-51570000D01*
X80208095Y-51522380D01*
X80446190Y-51522380D01*
X80541428Y-51570000D01*
X80589047Y-51617619D01*
X80636666Y-51712857D01*
X80636666Y-51808095D01*
X80589047Y-51950952D01*
X80017619Y-52522380D01*
X80636666Y-52522380D01*
X80811666Y-40393333D02*
X80811666Y-39917142D01*
X81097380Y-40488571D02*
X80097380Y-40155238D01*
X81097380Y-39821904D01*
X81049761Y-39536190D02*
X81097380Y-39393333D01*
X81097380Y-39155238D01*
X81049761Y-39060000D01*
X81002142Y-39012380D01*
X80906904Y-38964761D01*
X80811666Y-38964761D01*
X80716428Y-39012380D01*
X80668809Y-39060000D01*
X80621190Y-39155238D01*
X80573571Y-39345714D01*
X80525952Y-39440952D01*
X80478333Y-39488571D01*
X80383095Y-39536190D01*
X80287857Y-39536190D01*
X80192619Y-39488571D01*
X80145000Y-39440952D01*
X80097380Y-39345714D01*
X80097380Y-39107619D01*
X80145000Y-38964761D01*
X80097380Y-38060000D02*
X80097380Y-38536190D01*
X80573571Y-38583809D01*
X80525952Y-38536190D01*
X80478333Y-38440952D01*
X80478333Y-38202857D01*
X80525952Y-38107619D01*
X80573571Y-38060000D01*
X80668809Y-38012380D01*
X80906904Y-38012380D01*
X81002142Y-38060000D01*
X81049761Y-38107619D01*
X81097380Y-38202857D01*
X81097380Y-38440952D01*
X81049761Y-38536190D01*
X81002142Y-38583809D01*
X80097380Y-37155238D02*
X80097380Y-37345714D01*
X80145000Y-37440952D01*
X80192619Y-37488571D01*
X80335476Y-37583809D01*
X80525952Y-37631428D01*
X80906904Y-37631428D01*
X81002142Y-37583809D01*
X81049761Y-37536190D01*
X81097380Y-37440952D01*
X81097380Y-37250476D01*
X81049761Y-37155238D01*
X81002142Y-37107619D01*
X80906904Y-37060000D01*
X80668809Y-37060000D01*
X80573571Y-37107619D01*
X80525952Y-37155238D01*
X80478333Y-37250476D01*
X80478333Y-37440952D01*
X80525952Y-37536190D01*
X80573571Y-37583809D01*
X80668809Y-37631428D01*
X80097380Y-36440952D02*
X80097380Y-36345714D01*
X80145000Y-36250476D01*
X80192619Y-36202857D01*
X80287857Y-36155238D01*
X80478333Y-36107619D01*
X80716428Y-36107619D01*
X80906904Y-36155238D01*
X81002142Y-36202857D01*
X81049761Y-36250476D01*
X81097380Y-36345714D01*
X81097380Y-36440952D01*
X81049761Y-36536190D01*
X81002142Y-36583809D01*
X80906904Y-36631428D01*
X80716428Y-36679047D01*
X80478333Y-36679047D01*
X80287857Y-36631428D01*
X80192619Y-36583809D01*
X80145000Y-36536190D01*
X80097380Y-36440952D01*
X80097380Y-35488571D02*
X80097380Y-35393333D01*
X80145000Y-35298095D01*
X80192619Y-35250476D01*
X80287857Y-35202857D01*
X80478333Y-35155238D01*
X80716428Y-35155238D01*
X80906904Y-35202857D01*
X81002142Y-35250476D01*
X81049761Y-35298095D01*
X81097380Y-35393333D01*
X81097380Y-35488571D01*
X81049761Y-35583809D01*
X81002142Y-35631428D01*
X80906904Y-35679047D01*
X80716428Y-35726666D01*
X80478333Y-35726666D01*
X80287857Y-35679047D01*
X80192619Y-35631428D01*
X80145000Y-35583809D01*
X80097380Y-35488571D01*
X80097380Y-33774285D02*
X80097380Y-33679047D01*
X80145000Y-33583809D01*
X80192619Y-33536190D01*
X80287857Y-33488571D01*
X80478333Y-33440952D01*
X80716428Y-33440952D01*
X80906904Y-33488571D01*
X81002142Y-33536190D01*
X81049761Y-33583809D01*
X81097380Y-33679047D01*
X81097380Y-33774285D01*
X81049761Y-33869523D01*
X81002142Y-33917142D01*
X80906904Y-33964761D01*
X80716428Y-34012380D01*
X80478333Y-34012380D01*
X80287857Y-33964761D01*
X80192619Y-33917142D01*
X80145000Y-33869523D01*
X80097380Y-33774285D01*
X81097380Y-33107619D02*
X80430714Y-32583809D01*
X80430714Y-33107619D02*
X81097380Y-32583809D01*
X80097380Y-32298095D02*
X80097380Y-31679047D01*
X80478333Y-32012380D01*
X80478333Y-31869523D01*
X80525952Y-31774285D01*
X80573571Y-31726666D01*
X80668809Y-31679047D01*
X80906904Y-31679047D01*
X81002142Y-31726666D01*
X81049761Y-31774285D01*
X81097380Y-31869523D01*
X81097380Y-32155238D01*
X81049761Y-32250476D01*
X81002142Y-32298095D01*
X80097380Y-30821904D02*
X80097380Y-31012380D01*
X80145000Y-31107619D01*
X80192619Y-31155238D01*
X80335476Y-31250476D01*
X80525952Y-31298095D01*
X80906904Y-31298095D01*
X81002142Y-31250476D01*
X81049761Y-31202857D01*
X81097380Y-31107619D01*
X81097380Y-30917142D01*
X81049761Y-30821904D01*
X81002142Y-30774285D01*
X80906904Y-30726666D01*
X80668809Y-30726666D01*
X80573571Y-30774285D01*
X80525952Y-30821904D01*
X80478333Y-30917142D01*
X80478333Y-31107619D01*
X80525952Y-31202857D01*
X80573571Y-31250476D01*
X80668809Y-31298095D01*
X20716904Y-28011428D02*
X21478809Y-28011428D01*
X21097857Y-28392380D02*
X21097857Y-27630476D01*
X22431190Y-27392380D02*
X21954999Y-27392380D01*
X21907380Y-27868571D01*
X21954999Y-27820952D01*
X22050238Y-27773333D01*
X22288333Y-27773333D01*
X22383571Y-27820952D01*
X22431190Y-27868571D01*
X22478809Y-27963809D01*
X22478809Y-28201904D01*
X22431190Y-28297142D01*
X22383571Y-28344761D01*
X22288333Y-28392380D01*
X22050238Y-28392380D01*
X21954999Y-28344761D01*
X21907380Y-28297142D01*
X22764523Y-27392380D02*
X23097857Y-28392380D01*
X23431190Y-27392380D01*
X73739523Y-30884761D02*
X73882380Y-30932380D01*
X74120476Y-30932380D01*
X74215714Y-30884761D01*
X74263333Y-30837142D01*
X74310952Y-30741904D01*
X74310952Y-30646666D01*
X74263333Y-30551428D01*
X74215714Y-30503809D01*
X74120476Y-30456190D01*
X73930000Y-30408571D01*
X73834761Y-30360952D01*
X73787142Y-30313333D01*
X73739523Y-30218095D01*
X73739523Y-30122857D01*
X73787142Y-30027619D01*
X73834761Y-29980000D01*
X73930000Y-29932380D01*
X74168095Y-29932380D01*
X74310952Y-29980000D01*
X75310952Y-30837142D02*
X75263333Y-30884761D01*
X75120476Y-30932380D01*
X75025238Y-30932380D01*
X74882380Y-30884761D01*
X74787142Y-30789523D01*
X74739523Y-30694285D01*
X74691904Y-30503809D01*
X74691904Y-30360952D01*
X74739523Y-30170476D01*
X74787142Y-30075238D01*
X74882380Y-29980000D01*
X75025238Y-29932380D01*
X75120476Y-29932380D01*
X75263333Y-29980000D01*
X75310952Y-30027619D01*
X76215714Y-30932380D02*
X75739523Y-30932380D01*
X75739523Y-29932380D01*
X31932619Y-54839523D02*
X31885000Y-54791904D01*
X31837380Y-54696666D01*
X31837380Y-54458571D01*
X31885000Y-54363333D01*
X31932619Y-54315714D01*
X32027857Y-54268095D01*
X32123095Y-54268095D01*
X32265952Y-54315714D01*
X32837380Y-54887142D01*
X32837380Y-54268095D01*
X32170714Y-53410952D02*
X32837380Y-53410952D01*
X31789761Y-53649047D02*
X32504047Y-53887142D01*
X32504047Y-53268095D01*
X32837380Y-52410952D02*
X32837380Y-52887142D01*
X31837380Y-52887142D01*
X32742142Y-51506190D02*
X32789761Y-51553809D01*
X32837380Y-51696666D01*
X32837380Y-51791904D01*
X32789761Y-51934761D01*
X32694523Y-52030000D01*
X32599285Y-52077619D01*
X32408809Y-52125238D01*
X32265952Y-52125238D01*
X32075476Y-52077619D01*
X31980238Y-52030000D01*
X31885000Y-51934761D01*
X31837380Y-51791904D01*
X31837380Y-51696666D01*
X31885000Y-51553809D01*
X31932619Y-51506190D01*
X31932619Y-51125238D02*
X31885000Y-51077619D01*
X31837380Y-50982380D01*
X31837380Y-50744285D01*
X31885000Y-50649047D01*
X31932619Y-50601428D01*
X32027857Y-50553809D01*
X32123095Y-50553809D01*
X32265952Y-50601428D01*
X32837380Y-51172857D01*
X32837380Y-50553809D01*
X31837380Y-49649047D02*
X31837380Y-50125238D01*
X32313571Y-50172857D01*
X32265952Y-50125238D01*
X32218333Y-50030000D01*
X32218333Y-49791904D01*
X32265952Y-49696666D01*
X32313571Y-49649047D01*
X32408809Y-49601428D01*
X32646904Y-49601428D01*
X32742142Y-49649047D01*
X32789761Y-49696666D01*
X32837380Y-49791904D01*
X32837380Y-50030000D01*
X32789761Y-50125238D01*
X32742142Y-50172857D01*
X31837380Y-48744285D02*
X31837380Y-48934761D01*
X31885000Y-49030000D01*
X31932619Y-49077619D01*
X32075476Y-49172857D01*
X32265952Y-49220476D01*
X32646904Y-49220476D01*
X32742142Y-49172857D01*
X32789761Y-49125238D01*
X32837380Y-49030000D01*
X32837380Y-48839523D01*
X32789761Y-48744285D01*
X32742142Y-48696666D01*
X32646904Y-48649047D01*
X32408809Y-48649047D01*
X32313571Y-48696666D01*
X32265952Y-48744285D01*
X32218333Y-48839523D01*
X32218333Y-49030000D01*
X32265952Y-49125238D01*
X32313571Y-49172857D01*
X32408809Y-49220476D01*
X31837380Y-47268095D02*
X31837380Y-47172857D01*
X31885000Y-47077619D01*
X31932619Y-47030000D01*
X32027857Y-46982380D01*
X32218333Y-46934761D01*
X32456428Y-46934761D01*
X32646904Y-46982380D01*
X32742142Y-47030000D01*
X32789761Y-47077619D01*
X32837380Y-47172857D01*
X32837380Y-47268095D01*
X32789761Y-47363333D01*
X32742142Y-47410952D01*
X32646904Y-47458571D01*
X32456428Y-47506190D01*
X32218333Y-47506190D01*
X32027857Y-47458571D01*
X31932619Y-47410952D01*
X31885000Y-47363333D01*
X31837380Y-47268095D01*
X32837380Y-46601428D02*
X32170714Y-46077619D01*
X32170714Y-46601428D02*
X32837380Y-46077619D01*
X31837380Y-45220476D02*
X31837380Y-45696666D01*
X32313571Y-45744285D01*
X32265952Y-45696666D01*
X32218333Y-45601428D01*
X32218333Y-45363333D01*
X32265952Y-45268095D01*
X32313571Y-45220476D01*
X32408809Y-45172857D01*
X32646904Y-45172857D01*
X32742142Y-45220476D01*
X32789761Y-45268095D01*
X32837380Y-45363333D01*
X32837380Y-45601428D01*
X32789761Y-45696666D01*
X32742142Y-45744285D01*
X31837380Y-44553809D02*
X31837380Y-44458571D01*
X31885000Y-44363333D01*
X31932619Y-44315714D01*
X32027857Y-44268095D01*
X32218333Y-44220476D01*
X32456428Y-44220476D01*
X32646904Y-44268095D01*
X32742142Y-44315714D01*
X32789761Y-44363333D01*
X32837380Y-44458571D01*
X32837380Y-44553809D01*
X32789761Y-44649047D01*
X32742142Y-44696666D01*
X32646904Y-44744285D01*
X32456428Y-44791904D01*
X32218333Y-44791904D01*
X32027857Y-44744285D01*
X31932619Y-44696666D01*
X31885000Y-44649047D01*
X31837380Y-44553809D01*
X20716904Y-73731428D02*
X21478809Y-73731428D01*
X21097857Y-74112380D02*
X21097857Y-73350476D01*
X22431190Y-73112380D02*
X21954999Y-73112380D01*
X21907380Y-73588571D01*
X21954999Y-73540952D01*
X22050238Y-73493333D01*
X22288333Y-73493333D01*
X22383571Y-73540952D01*
X22431190Y-73588571D01*
X22478809Y-73683809D01*
X22478809Y-73921904D01*
X22431190Y-74017142D01*
X22383571Y-74064761D01*
X22288333Y-74112380D01*
X22050238Y-74112380D01*
X21954999Y-74064761D01*
X21907380Y-74017142D01*
X22764523Y-73112380D02*
X23097857Y-74112380D01*
X23431190Y-73112380D01*
X21240714Y-24900000D02*
X21145476Y-24852380D01*
X21002619Y-24852380D01*
X20859761Y-24900000D01*
X20764523Y-24995238D01*
X20716904Y-25090476D01*
X20669285Y-25280952D01*
X20669285Y-25423809D01*
X20716904Y-25614285D01*
X20764523Y-25709523D01*
X20859761Y-25804761D01*
X21002619Y-25852380D01*
X21097857Y-25852380D01*
X21240714Y-25804761D01*
X21288333Y-25757142D01*
X21288333Y-25423809D01*
X21097857Y-25423809D01*
X21716904Y-25852380D02*
X21716904Y-24852380D01*
X22288333Y-25852380D01*
X22288333Y-24852380D01*
X22764523Y-25852380D02*
X22764523Y-24852380D01*
X23002619Y-24852380D01*
X23145476Y-24900000D01*
X23240714Y-24995238D01*
X23288333Y-25090476D01*
X23335952Y-25280952D01*
X23335952Y-25423809D01*
X23288333Y-25614285D01*
X23240714Y-25709523D01*
X23145476Y-25804761D01*
X23002619Y-25852380D01*
X22764523Y-25852380D01*
D11*
X76751666Y-58598571D02*
X76727857Y-58622380D01*
X76656428Y-58646190D01*
X76608809Y-58646190D01*
X76537380Y-58622380D01*
X76489761Y-58574761D01*
X76465952Y-58527142D01*
X76442142Y-58431904D01*
X76442142Y-58360476D01*
X76465952Y-58265238D01*
X76489761Y-58217619D01*
X76537380Y-58170000D01*
X76608809Y-58146190D01*
X76656428Y-58146190D01*
X76727857Y-58170000D01*
X76751666Y-58193809D01*
X77227857Y-58646190D02*
X76942142Y-58646190D01*
X77085000Y-58646190D02*
X77085000Y-58146190D01*
X77037380Y-58217619D01*
X76989761Y-58265238D01*
X76942142Y-58289047D01*
X65718571Y-46533571D02*
X65694761Y-46557380D01*
X65623333Y-46581190D01*
X65575714Y-46581190D01*
X65504285Y-46557380D01*
X65456666Y-46509761D01*
X65432857Y-46462142D01*
X65409047Y-46366904D01*
X65409047Y-46295476D01*
X65432857Y-46200238D01*
X65456666Y-46152619D01*
X65504285Y-46105000D01*
X65575714Y-46081190D01*
X65623333Y-46081190D01*
X65694761Y-46105000D01*
X65718571Y-46128809D01*
X66194761Y-46581190D02*
X65909047Y-46581190D01*
X66051904Y-46581190D02*
X66051904Y-46081190D01*
X66004285Y-46152619D01*
X65956666Y-46200238D01*
X65909047Y-46224047D01*
X66361428Y-46081190D02*
X66670952Y-46081190D01*
X66504285Y-46271666D01*
X66575714Y-46271666D01*
X66623333Y-46295476D01*
X66647142Y-46319285D01*
X66670952Y-46366904D01*
X66670952Y-46485952D01*
X66647142Y-46533571D01*
X66623333Y-46557380D01*
X66575714Y-46581190D01*
X66432857Y-46581190D01*
X66385238Y-46557380D01*
X66361428Y-46533571D01*
X44366666Y-64276190D02*
X44200000Y-64038095D01*
X44080952Y-64276190D02*
X44080952Y-63776190D01*
X44271428Y-63776190D01*
X44319047Y-63800000D01*
X44342857Y-63823809D01*
X44366666Y-63871428D01*
X44366666Y-63942857D01*
X44342857Y-63990476D01*
X44319047Y-64014285D01*
X44271428Y-64038095D01*
X44080952Y-64038095D01*
X44533333Y-63776190D02*
X44866666Y-63776190D01*
X44652380Y-64276190D01*
X61908571Y-33198571D02*
X61884761Y-33222380D01*
X61813333Y-33246190D01*
X61765714Y-33246190D01*
X61694285Y-33222380D01*
X61646666Y-33174761D01*
X61622857Y-33127142D01*
X61599047Y-33031904D01*
X61599047Y-32960476D01*
X61622857Y-32865238D01*
X61646666Y-32817619D01*
X61694285Y-32770000D01*
X61765714Y-32746190D01*
X61813333Y-32746190D01*
X61884761Y-32770000D01*
X61908571Y-32793809D01*
X62384761Y-33246190D02*
X62099047Y-33246190D01*
X62241904Y-33246190D02*
X62241904Y-32746190D01*
X62194285Y-32817619D01*
X62146666Y-32865238D01*
X62099047Y-32889047D01*
X62860952Y-33246190D02*
X62575238Y-33246190D01*
X62718095Y-33246190D02*
X62718095Y-32746190D01*
X62670476Y-32817619D01*
X62622857Y-32865238D01*
X62575238Y-32889047D01*
X61908571Y-69393571D02*
X61884761Y-69417380D01*
X61813333Y-69441190D01*
X61765714Y-69441190D01*
X61694285Y-69417380D01*
X61646666Y-69369761D01*
X61622857Y-69322142D01*
X61599047Y-69226904D01*
X61599047Y-69155476D01*
X61622857Y-69060238D01*
X61646666Y-69012619D01*
X61694285Y-68965000D01*
X61765714Y-68941190D01*
X61813333Y-68941190D01*
X61884761Y-68965000D01*
X61908571Y-68988809D01*
X62384761Y-69441190D02*
X62099047Y-69441190D01*
X62241904Y-69441190D02*
X62241904Y-68941190D01*
X62194285Y-69012619D01*
X62146666Y-69060238D01*
X62099047Y-69084047D01*
X62694285Y-68941190D02*
X62741904Y-68941190D01*
X62789523Y-68965000D01*
X62813333Y-68988809D01*
X62837142Y-69036428D01*
X62860952Y-69131666D01*
X62860952Y-69250714D01*
X62837142Y-69345952D01*
X62813333Y-69393571D01*
X62789523Y-69417380D01*
X62741904Y-69441190D01*
X62694285Y-69441190D01*
X62646666Y-69417380D01*
X62622857Y-69393571D01*
X62599047Y-69345952D01*
X62575238Y-69250714D01*
X62575238Y-69131666D01*
X62599047Y-69036428D01*
X62622857Y-68988809D01*
X62646666Y-68965000D01*
X62694285Y-68941190D01*
X76668333Y-73386190D02*
X76668333Y-73743333D01*
X76644523Y-73814761D01*
X76596904Y-73862380D01*
X76525476Y-73886190D01*
X76477857Y-73886190D01*
X76977857Y-73600476D02*
X76930238Y-73576666D01*
X76906428Y-73552857D01*
X76882619Y-73505238D01*
X76882619Y-73481428D01*
X76906428Y-73433809D01*
X76930238Y-73410000D01*
X76977857Y-73386190D01*
X77073095Y-73386190D01*
X77120714Y-73410000D01*
X77144523Y-73433809D01*
X77168333Y-73481428D01*
X77168333Y-73505238D01*
X77144523Y-73552857D01*
X77120714Y-73576666D01*
X77073095Y-73600476D01*
X76977857Y-73600476D01*
X76930238Y-73624285D01*
X76906428Y-73648095D01*
X76882619Y-73695714D01*
X76882619Y-73790952D01*
X76906428Y-73838571D01*
X76930238Y-73862380D01*
X76977857Y-73886190D01*
X77073095Y-73886190D01*
X77120714Y-73862380D01*
X77144523Y-73838571D01*
X77168333Y-73790952D01*
X77168333Y-73695714D01*
X77144523Y-73648095D01*
X77120714Y-73624285D01*
X77073095Y-73600476D01*
X30745952Y-68171190D02*
X30745952Y-67671190D01*
X30865000Y-67671190D01*
X30936428Y-67695000D01*
X30984047Y-67742619D01*
X31007857Y-67790238D01*
X31031666Y-67885476D01*
X31031666Y-67956904D01*
X31007857Y-68052142D01*
X30984047Y-68099761D01*
X30936428Y-68147380D01*
X30865000Y-68171190D01*
X30745952Y-68171190D01*
X31222142Y-67718809D02*
X31245952Y-67695000D01*
X31293571Y-67671190D01*
X31412619Y-67671190D01*
X31460238Y-67695000D01*
X31484047Y-67718809D01*
X31507857Y-67766428D01*
X31507857Y-67814047D01*
X31484047Y-67885476D01*
X31198333Y-68171190D01*
X31507857Y-68171190D01*
X59606666Y-69441190D02*
X59440000Y-69203095D01*
X59320952Y-69441190D02*
X59320952Y-68941190D01*
X59511428Y-68941190D01*
X59559047Y-68965000D01*
X59582857Y-68988809D01*
X59606666Y-69036428D01*
X59606666Y-69107857D01*
X59582857Y-69155476D01*
X59559047Y-69179285D01*
X59511428Y-69203095D01*
X59320952Y-69203095D01*
X60059047Y-68941190D02*
X59820952Y-68941190D01*
X59797142Y-69179285D01*
X59820952Y-69155476D01*
X59868571Y-69131666D01*
X59987619Y-69131666D01*
X60035238Y-69155476D01*
X60059047Y-69179285D01*
X60082857Y-69226904D01*
X60082857Y-69345952D01*
X60059047Y-69393571D01*
X60035238Y-69417380D01*
X59987619Y-69441190D01*
X59868571Y-69441190D01*
X59820952Y-69417380D01*
X59797142Y-69393571D01*
X36746666Y-68171190D02*
X36580000Y-67933095D01*
X36460952Y-68171190D02*
X36460952Y-67671190D01*
X36651428Y-67671190D01*
X36699047Y-67695000D01*
X36722857Y-67718809D01*
X36746666Y-67766428D01*
X36746666Y-67837857D01*
X36722857Y-67885476D01*
X36699047Y-67909285D01*
X36651428Y-67933095D01*
X36460952Y-67933095D01*
X36984761Y-68171190D02*
X37080000Y-68171190D01*
X37127619Y-68147380D01*
X37151428Y-68123571D01*
X37199047Y-68052142D01*
X37222857Y-67956904D01*
X37222857Y-67766428D01*
X37199047Y-67718809D01*
X37175238Y-67695000D01*
X37127619Y-67671190D01*
X37032380Y-67671190D01*
X36984761Y-67695000D01*
X36960952Y-67718809D01*
X36937142Y-67766428D01*
X36937142Y-67885476D01*
X36960952Y-67933095D01*
X36984761Y-67956904D01*
X37032380Y-67980714D01*
X37127619Y-67980714D01*
X37175238Y-67956904D01*
X37199047Y-67933095D01*
X37222857Y-67885476D01*
X68496666Y-66218571D02*
X68472857Y-66242380D01*
X68401428Y-66266190D01*
X68353809Y-66266190D01*
X68282380Y-66242380D01*
X68234761Y-66194761D01*
X68210952Y-66147142D01*
X68187142Y-66051904D01*
X68187142Y-65980476D01*
X68210952Y-65885238D01*
X68234761Y-65837619D01*
X68282380Y-65790000D01*
X68353809Y-65766190D01*
X68401428Y-65766190D01*
X68472857Y-65790000D01*
X68496666Y-65813809D01*
X68925238Y-65766190D02*
X68830000Y-65766190D01*
X68782380Y-65790000D01*
X68758571Y-65813809D01*
X68710952Y-65885238D01*
X68687142Y-65980476D01*
X68687142Y-66170952D01*
X68710952Y-66218571D01*
X68734761Y-66242380D01*
X68782380Y-66266190D01*
X68877619Y-66266190D01*
X68925238Y-66242380D01*
X68949047Y-66218571D01*
X68972857Y-66170952D01*
X68972857Y-66051904D01*
X68949047Y-66004285D01*
X68925238Y-65980476D01*
X68877619Y-65956666D01*
X68782380Y-65956666D01*
X68734761Y-65980476D01*
X68710952Y-66004285D01*
X68687142Y-66051904D01*
X82466666Y-66218571D02*
X82442857Y-66242380D01*
X82371428Y-66266190D01*
X82323809Y-66266190D01*
X82252380Y-66242380D01*
X82204761Y-66194761D01*
X82180952Y-66147142D01*
X82157142Y-66051904D01*
X82157142Y-65980476D01*
X82180952Y-65885238D01*
X82204761Y-65837619D01*
X82252380Y-65790000D01*
X82323809Y-65766190D01*
X82371428Y-65766190D01*
X82442857Y-65790000D01*
X82466666Y-65813809D01*
X82633333Y-65766190D02*
X82942857Y-65766190D01*
X82776190Y-65956666D01*
X82847619Y-65956666D01*
X82895238Y-65980476D01*
X82919047Y-66004285D01*
X82942857Y-66051904D01*
X82942857Y-66170952D01*
X82919047Y-66218571D01*
X82895238Y-66242380D01*
X82847619Y-66266190D01*
X82704761Y-66266190D01*
X82657142Y-66242380D01*
X82633333Y-66218571D01*
X77303333Y-27666190D02*
X77303333Y-28023333D01*
X77279523Y-28094761D01*
X77231904Y-28142380D01*
X77160476Y-28166190D01*
X77112857Y-28166190D01*
X77803333Y-28166190D02*
X77517619Y-28166190D01*
X77660476Y-28166190D02*
X77660476Y-27666190D01*
X77612857Y-27737619D01*
X77565238Y-27785238D01*
X77517619Y-27809047D01*
X77065238Y-25126190D02*
X77065238Y-25483333D01*
X77041428Y-25554761D01*
X76993809Y-25602380D01*
X76922380Y-25626190D01*
X76874761Y-25626190D01*
X77565238Y-25626190D02*
X77279523Y-25626190D01*
X77422380Y-25626190D02*
X77422380Y-25126190D01*
X77374761Y-25197619D01*
X77327142Y-25245238D01*
X77279523Y-25269047D01*
X77874761Y-25126190D02*
X77922380Y-25126190D01*
X77970000Y-25150000D01*
X77993809Y-25173809D01*
X78017619Y-25221428D01*
X78041428Y-25316666D01*
X78041428Y-25435714D01*
X78017619Y-25530952D01*
X77993809Y-25578571D01*
X77970000Y-25602380D01*
X77922380Y-25626190D01*
X77874761Y-25626190D01*
X77827142Y-25602380D01*
X77803333Y-25578571D01*
X77779523Y-25530952D01*
X77755714Y-25435714D01*
X77755714Y-25316666D01*
X77779523Y-25221428D01*
X77803333Y-25173809D01*
X77827142Y-25150000D01*
X77874761Y-25126190D01*
X69683333Y-43541190D02*
X69683333Y-43898333D01*
X69659523Y-43969761D01*
X69611904Y-44017380D01*
X69540476Y-44041190D01*
X69492857Y-44041190D01*
X70135714Y-43541190D02*
X70040476Y-43541190D01*
X69992857Y-43565000D01*
X69969047Y-43588809D01*
X69921428Y-43660238D01*
X69897619Y-43755476D01*
X69897619Y-43945952D01*
X69921428Y-43993571D01*
X69945238Y-44017380D01*
X69992857Y-44041190D01*
X70088095Y-44041190D01*
X70135714Y-44017380D01*
X70159523Y-43993571D01*
X70183333Y-43945952D01*
X70183333Y-43826904D01*
X70159523Y-43779285D01*
X70135714Y-43755476D01*
X70088095Y-43731666D01*
X69992857Y-43731666D01*
X69945238Y-43755476D01*
X69921428Y-43779285D01*
X69897619Y-43826904D01*
X35512380Y-62003809D02*
X35464761Y-61980000D01*
X35417142Y-61932380D01*
X35345714Y-61860952D01*
X35298095Y-61837142D01*
X35250476Y-61837142D01*
X35274285Y-61956190D02*
X35226666Y-61932380D01*
X35179047Y-61884761D01*
X35155238Y-61789523D01*
X35155238Y-61622857D01*
X35179047Y-61527619D01*
X35226666Y-61480000D01*
X35274285Y-61456190D01*
X35369523Y-61456190D01*
X35417142Y-61480000D01*
X35464761Y-61527619D01*
X35488571Y-61622857D01*
X35488571Y-61789523D01*
X35464761Y-61884761D01*
X35417142Y-61932380D01*
X35369523Y-61956190D01*
X35274285Y-61956190D01*
X35679047Y-61503809D02*
X35702857Y-61480000D01*
X35750476Y-61456190D01*
X35869523Y-61456190D01*
X35917142Y-61480000D01*
X35940952Y-61503809D01*
X35964761Y-61551428D01*
X35964761Y-61599047D01*
X35940952Y-61670476D01*
X35655238Y-61956190D01*
X35964761Y-61956190D01*
X66905238Y-35286190D02*
X66905238Y-35643333D01*
X66881428Y-35714761D01*
X66833809Y-35762380D01*
X66762380Y-35786190D01*
X66714761Y-35786190D01*
X67405238Y-35786190D02*
X67119523Y-35786190D01*
X67262380Y-35786190D02*
X67262380Y-35286190D01*
X67214761Y-35357619D01*
X67167142Y-35405238D01*
X67119523Y-35429047D01*
X67881428Y-35786190D02*
X67595714Y-35786190D01*
X67738571Y-35786190D02*
X67738571Y-35286190D01*
X67690952Y-35357619D01*
X67643333Y-35405238D01*
X67595714Y-35429047D01*
X49208571Y-36421190D02*
X49041904Y-36183095D01*
X48922857Y-36421190D02*
X48922857Y-35921190D01*
X49113333Y-35921190D01*
X49160952Y-35945000D01*
X49184761Y-35968809D01*
X49208571Y-36016428D01*
X49208571Y-36087857D01*
X49184761Y-36135476D01*
X49160952Y-36159285D01*
X49113333Y-36183095D01*
X48922857Y-36183095D01*
X49684761Y-36421190D02*
X49399047Y-36421190D01*
X49541904Y-36421190D02*
X49541904Y-35921190D01*
X49494285Y-35992619D01*
X49446666Y-36040238D01*
X49399047Y-36064047D01*
X49851428Y-35921190D02*
X50160952Y-35921190D01*
X49994285Y-36111666D01*
X50065714Y-36111666D01*
X50113333Y-36135476D01*
X50137142Y-36159285D01*
X50160952Y-36206904D01*
X50160952Y-36325952D01*
X50137142Y-36373571D01*
X50113333Y-36397380D01*
X50065714Y-36421190D01*
X49922857Y-36421190D01*
X49875238Y-36397380D01*
X49851428Y-36373571D01*
X76668333Y-70846190D02*
X76668333Y-71203333D01*
X76644523Y-71274761D01*
X76596904Y-71322380D01*
X76525476Y-71346190D01*
X76477857Y-71346190D01*
X76930238Y-71346190D02*
X77025476Y-71346190D01*
X77073095Y-71322380D01*
X77096904Y-71298571D01*
X77144523Y-71227142D01*
X77168333Y-71131904D01*
X77168333Y-70941428D01*
X77144523Y-70893809D01*
X77120714Y-70870000D01*
X77073095Y-70846190D01*
X76977857Y-70846190D01*
X76930238Y-70870000D01*
X76906428Y-70893809D01*
X76882619Y-70941428D01*
X76882619Y-71060476D01*
X76906428Y-71108095D01*
X76930238Y-71131904D01*
X76977857Y-71155714D01*
X77073095Y-71155714D01*
X77120714Y-71131904D01*
X77144523Y-71108095D01*
X77168333Y-71060476D01*
X36746666Y-40231190D02*
X36580000Y-39993095D01*
X36460952Y-40231190D02*
X36460952Y-39731190D01*
X36651428Y-39731190D01*
X36699047Y-39755000D01*
X36722857Y-39778809D01*
X36746666Y-39826428D01*
X36746666Y-39897857D01*
X36722857Y-39945476D01*
X36699047Y-39969285D01*
X36651428Y-39993095D01*
X36460952Y-39993095D01*
X36937142Y-39778809D02*
X36960952Y-39755000D01*
X37008571Y-39731190D01*
X37127619Y-39731190D01*
X37175238Y-39755000D01*
X37199047Y-39778809D01*
X37222857Y-39826428D01*
X37222857Y-39874047D01*
X37199047Y-39945476D01*
X36913333Y-40231190D01*
X37222857Y-40231190D01*
X28888571Y-37691190D02*
X28721904Y-37453095D01*
X28602857Y-37691190D02*
X28602857Y-37191190D01*
X28793333Y-37191190D01*
X28840952Y-37215000D01*
X28864761Y-37238809D01*
X28888571Y-37286428D01*
X28888571Y-37357857D01*
X28864761Y-37405476D01*
X28840952Y-37429285D01*
X28793333Y-37453095D01*
X28602857Y-37453095D01*
X29364761Y-37691190D02*
X29079047Y-37691190D01*
X29221904Y-37691190D02*
X29221904Y-37191190D01*
X29174285Y-37262619D01*
X29126666Y-37310238D01*
X29079047Y-37334047D01*
X29674285Y-37191190D02*
X29721904Y-37191190D01*
X29769523Y-37215000D01*
X29793333Y-37238809D01*
X29817142Y-37286428D01*
X29840952Y-37381666D01*
X29840952Y-37500714D01*
X29817142Y-37595952D01*
X29793333Y-37643571D01*
X29769523Y-37667380D01*
X29721904Y-37691190D01*
X29674285Y-37691190D01*
X29626666Y-37667380D01*
X29602857Y-37643571D01*
X29579047Y-37595952D01*
X29555238Y-37500714D01*
X29555238Y-37381666D01*
X29579047Y-37286428D01*
X29602857Y-37238809D01*
X29626666Y-37215000D01*
X29674285Y-37191190D01*
X74211666Y-58598571D02*
X74187857Y-58622380D01*
X74116428Y-58646190D01*
X74068809Y-58646190D01*
X73997380Y-58622380D01*
X73949761Y-58574761D01*
X73925952Y-58527142D01*
X73902142Y-58431904D01*
X73902142Y-58360476D01*
X73925952Y-58265238D01*
X73949761Y-58217619D01*
X73997380Y-58170000D01*
X74068809Y-58146190D01*
X74116428Y-58146190D01*
X74187857Y-58170000D01*
X74211666Y-58193809D01*
X74497380Y-58360476D02*
X74449761Y-58336666D01*
X74425952Y-58312857D01*
X74402142Y-58265238D01*
X74402142Y-58241428D01*
X74425952Y-58193809D01*
X74449761Y-58170000D01*
X74497380Y-58146190D01*
X74592619Y-58146190D01*
X74640238Y-58170000D01*
X74664047Y-58193809D01*
X74687857Y-58241428D01*
X74687857Y-58265238D01*
X74664047Y-58312857D01*
X74640238Y-58336666D01*
X74592619Y-58360476D01*
X74497380Y-58360476D01*
X74449761Y-58384285D01*
X74425952Y-58408095D01*
X74402142Y-58455714D01*
X74402142Y-58550952D01*
X74425952Y-58598571D01*
X74449761Y-58622380D01*
X74497380Y-58646190D01*
X74592619Y-58646190D01*
X74640238Y-58622380D01*
X74664047Y-58598571D01*
X74687857Y-58550952D01*
X74687857Y-58455714D01*
X74664047Y-58408095D01*
X74640238Y-58384285D01*
X74592619Y-58360476D01*
X41529047Y-58146190D02*
X41529047Y-58550952D01*
X41552857Y-58598571D01*
X41576666Y-58622380D01*
X41624285Y-58646190D01*
X41719523Y-58646190D01*
X41767142Y-58622380D01*
X41790952Y-58598571D01*
X41814761Y-58550952D01*
X41814761Y-58146190D01*
X42005238Y-58146190D02*
X42338571Y-58146190D01*
X42124285Y-58646190D01*
X59606666Y-41501190D02*
X59440000Y-41263095D01*
X59320952Y-41501190D02*
X59320952Y-41001190D01*
X59511428Y-41001190D01*
X59559047Y-41025000D01*
X59582857Y-41048809D01*
X59606666Y-41096428D01*
X59606666Y-41167857D01*
X59582857Y-41215476D01*
X59559047Y-41239285D01*
X59511428Y-41263095D01*
X59320952Y-41263095D01*
X60035238Y-41167857D02*
X60035238Y-41501190D01*
X59916190Y-40977380D02*
X59797142Y-41334523D01*
X60106666Y-41334523D01*
X69445238Y-42271190D02*
X69445238Y-42628333D01*
X69421428Y-42699761D01*
X69373809Y-42747380D01*
X69302380Y-42771190D01*
X69254761Y-42771190D01*
X69945238Y-42771190D02*
X69659523Y-42771190D01*
X69802380Y-42771190D02*
X69802380Y-42271190D01*
X69754761Y-42342619D01*
X69707142Y-42390238D01*
X69659523Y-42414047D01*
X70135714Y-42318809D02*
X70159523Y-42295000D01*
X70207142Y-42271190D01*
X70326190Y-42271190D01*
X70373809Y-42295000D01*
X70397619Y-42318809D01*
X70421428Y-42366428D01*
X70421428Y-42414047D01*
X70397619Y-42485476D01*
X70111904Y-42771190D01*
X70421428Y-42771190D01*
X61908571Y-61138571D02*
X61884761Y-61162380D01*
X61813333Y-61186190D01*
X61765714Y-61186190D01*
X61694285Y-61162380D01*
X61646666Y-61114761D01*
X61622857Y-61067142D01*
X61599047Y-60971904D01*
X61599047Y-60900476D01*
X61622857Y-60805238D01*
X61646666Y-60757619D01*
X61694285Y-60710000D01*
X61765714Y-60686190D01*
X61813333Y-60686190D01*
X61884761Y-60710000D01*
X61908571Y-60733809D01*
X62384761Y-61186190D02*
X62099047Y-61186190D01*
X62241904Y-61186190D02*
X62241904Y-60686190D01*
X62194285Y-60757619D01*
X62146666Y-60805238D01*
X62099047Y-60829047D01*
X62575238Y-60733809D02*
X62599047Y-60710000D01*
X62646666Y-60686190D01*
X62765714Y-60686190D01*
X62813333Y-60710000D01*
X62837142Y-60733809D01*
X62860952Y-60781428D01*
X62860952Y-60829047D01*
X62837142Y-60900476D01*
X62551428Y-61186190D01*
X62860952Y-61186190D01*
X30793571Y-65631190D02*
X30626904Y-65393095D01*
X30507857Y-65631190D02*
X30507857Y-65131190D01*
X30698333Y-65131190D01*
X30745952Y-65155000D01*
X30769761Y-65178809D01*
X30793571Y-65226428D01*
X30793571Y-65297857D01*
X30769761Y-65345476D01*
X30745952Y-65369285D01*
X30698333Y-65393095D01*
X30507857Y-65393095D01*
X31269761Y-65631190D02*
X30984047Y-65631190D01*
X31126904Y-65631190D02*
X31126904Y-65131190D01*
X31079285Y-65202619D01*
X31031666Y-65250238D01*
X30984047Y-65274047D01*
X31460238Y-65178809D02*
X31484047Y-65155000D01*
X31531666Y-65131190D01*
X31650714Y-65131190D01*
X31698333Y-65155000D01*
X31722142Y-65178809D01*
X31745952Y-65226428D01*
X31745952Y-65274047D01*
X31722142Y-65345476D01*
X31436428Y-65631190D01*
X31745952Y-65631190D01*
X55558571Y-46581190D02*
X55391904Y-46343095D01*
X55272857Y-46581190D02*
X55272857Y-46081190D01*
X55463333Y-46081190D01*
X55510952Y-46105000D01*
X55534761Y-46128809D01*
X55558571Y-46176428D01*
X55558571Y-46247857D01*
X55534761Y-46295476D01*
X55510952Y-46319285D01*
X55463333Y-46343095D01*
X55272857Y-46343095D01*
X56034761Y-46581190D02*
X55749047Y-46581190D01*
X55891904Y-46581190D02*
X55891904Y-46081190D01*
X55844285Y-46152619D01*
X55796666Y-46200238D01*
X55749047Y-46224047D01*
X56510952Y-46581190D02*
X56225238Y-46581190D01*
X56368095Y-46581190D02*
X56368095Y-46081190D01*
X56320476Y-46152619D01*
X56272857Y-46200238D01*
X56225238Y-46224047D01*
X32936666Y-67536190D02*
X32770000Y-67298095D01*
X32650952Y-67536190D02*
X32650952Y-67036190D01*
X32841428Y-67036190D01*
X32889047Y-67060000D01*
X32912857Y-67083809D01*
X32936666Y-67131428D01*
X32936666Y-67202857D01*
X32912857Y-67250476D01*
X32889047Y-67274285D01*
X32841428Y-67298095D01*
X32650952Y-67298095D01*
X33222380Y-67250476D02*
X33174761Y-67226666D01*
X33150952Y-67202857D01*
X33127142Y-67155238D01*
X33127142Y-67131428D01*
X33150952Y-67083809D01*
X33174761Y-67060000D01*
X33222380Y-67036190D01*
X33317619Y-67036190D01*
X33365238Y-67060000D01*
X33389047Y-67083809D01*
X33412857Y-67131428D01*
X33412857Y-67155238D01*
X33389047Y-67202857D01*
X33365238Y-67226666D01*
X33317619Y-67250476D01*
X33222380Y-67250476D01*
X33174761Y-67274285D01*
X33150952Y-67298095D01*
X33127142Y-67345714D01*
X33127142Y-67440952D01*
X33150952Y-67488571D01*
X33174761Y-67512380D01*
X33222380Y-67536190D01*
X33317619Y-67536190D01*
X33365238Y-67512380D01*
X33389047Y-67488571D01*
X33412857Y-67440952D01*
X33412857Y-67345714D01*
X33389047Y-67298095D01*
X33365238Y-67274285D01*
X33317619Y-67250476D01*
X75184047Y-63861190D02*
X75184047Y-64265952D01*
X75207857Y-64313571D01*
X75231666Y-64337380D01*
X75279285Y-64361190D01*
X75374523Y-64361190D01*
X75422142Y-64337380D01*
X75445952Y-64313571D01*
X75469761Y-64265952D01*
X75469761Y-63861190D01*
X75969761Y-64361190D02*
X75684047Y-64361190D01*
X75826904Y-64361190D02*
X75826904Y-63861190D01*
X75779285Y-63932619D01*
X75731666Y-63980238D01*
X75684047Y-64004047D01*
X29043333Y-54971190D02*
X29043333Y-55328333D01*
X29019523Y-55399761D01*
X28971904Y-55447380D01*
X28900476Y-55471190D01*
X28852857Y-55471190D01*
X29519523Y-54971190D02*
X29281428Y-54971190D01*
X29257619Y-55209285D01*
X29281428Y-55185476D01*
X29329047Y-55161666D01*
X29448095Y-55161666D01*
X29495714Y-55185476D01*
X29519523Y-55209285D01*
X29543333Y-55256904D01*
X29543333Y-55375952D01*
X29519523Y-55423571D01*
X29495714Y-55447380D01*
X29448095Y-55471190D01*
X29329047Y-55471190D01*
X29281428Y-55447380D01*
X29257619Y-55423571D01*
X28805238Y-57511190D02*
X28805238Y-57868333D01*
X28781428Y-57939761D01*
X28733809Y-57987380D01*
X28662380Y-58011190D01*
X28614761Y-58011190D01*
X29305238Y-58011190D02*
X29019523Y-58011190D01*
X29162380Y-58011190D02*
X29162380Y-57511190D01*
X29114761Y-57582619D01*
X29067142Y-57630238D01*
X29019523Y-57654047D01*
X29733809Y-57677857D02*
X29733809Y-58011190D01*
X29614761Y-57487380D02*
X29495714Y-57844523D01*
X29805238Y-57844523D01*
X35542380Y-33928809D02*
X35494761Y-33905000D01*
X35447142Y-33857380D01*
X35375714Y-33785952D01*
X35328095Y-33762142D01*
X35280476Y-33762142D01*
X35304285Y-33881190D02*
X35256666Y-33857380D01*
X35209047Y-33809761D01*
X35185238Y-33714523D01*
X35185238Y-33547857D01*
X35209047Y-33452619D01*
X35256666Y-33405000D01*
X35304285Y-33381190D01*
X35399523Y-33381190D01*
X35447142Y-33405000D01*
X35494761Y-33452619D01*
X35518571Y-33547857D01*
X35518571Y-33714523D01*
X35494761Y-33809761D01*
X35447142Y-33857380D01*
X35399523Y-33881190D01*
X35304285Y-33881190D01*
X35994761Y-33881190D02*
X35709047Y-33881190D01*
X35851904Y-33881190D02*
X35851904Y-33381190D01*
X35804285Y-33452619D01*
X35756666Y-33500238D01*
X35709047Y-33524047D01*
X26586666Y-37691190D02*
X26420000Y-37453095D01*
X26300952Y-37691190D02*
X26300952Y-37191190D01*
X26491428Y-37191190D01*
X26539047Y-37215000D01*
X26562857Y-37238809D01*
X26586666Y-37286428D01*
X26586666Y-37357857D01*
X26562857Y-37405476D01*
X26539047Y-37429285D01*
X26491428Y-37453095D01*
X26300952Y-37453095D01*
X27015238Y-37191190D02*
X26920000Y-37191190D01*
X26872380Y-37215000D01*
X26848571Y-37238809D01*
X26800952Y-37310238D01*
X26777142Y-37405476D01*
X26777142Y-37595952D01*
X26800952Y-37643571D01*
X26824761Y-37667380D01*
X26872380Y-37691190D01*
X26967619Y-37691190D01*
X27015238Y-37667380D01*
X27039047Y-37643571D01*
X27062857Y-37595952D01*
X27062857Y-37476904D01*
X27039047Y-37429285D01*
X27015238Y-37405476D01*
X26967619Y-37381666D01*
X26872380Y-37381666D01*
X26824761Y-37405476D01*
X26800952Y-37429285D01*
X26777142Y-37476904D01*
X62146666Y-41453571D02*
X62122857Y-41477380D01*
X62051428Y-41501190D01*
X62003809Y-41501190D01*
X61932380Y-41477380D01*
X61884761Y-41429761D01*
X61860952Y-41382142D01*
X61837142Y-41286904D01*
X61837142Y-41215476D01*
X61860952Y-41120238D01*
X61884761Y-41072619D01*
X61932380Y-41025000D01*
X62003809Y-41001190D01*
X62051428Y-41001190D01*
X62122857Y-41025000D01*
X62146666Y-41048809D01*
X62384761Y-41501190D02*
X62480000Y-41501190D01*
X62527619Y-41477380D01*
X62551428Y-41453571D01*
X62599047Y-41382142D01*
X62622857Y-41286904D01*
X62622857Y-41096428D01*
X62599047Y-41048809D01*
X62575238Y-41025000D01*
X62527619Y-41001190D01*
X62432380Y-41001190D01*
X62384761Y-41025000D01*
X62360952Y-41048809D01*
X62337142Y-41096428D01*
X62337142Y-41215476D01*
X62360952Y-41263095D01*
X62384761Y-41286904D01*
X62432380Y-41310714D01*
X62527619Y-41310714D01*
X62575238Y-41286904D01*
X62599047Y-41263095D01*
X62622857Y-41215476D01*
X49208571Y-64361190D02*
X49041904Y-64123095D01*
X48922857Y-64361190D02*
X48922857Y-63861190D01*
X49113333Y-63861190D01*
X49160952Y-63885000D01*
X49184761Y-63908809D01*
X49208571Y-63956428D01*
X49208571Y-64027857D01*
X49184761Y-64075476D01*
X49160952Y-64099285D01*
X49113333Y-64123095D01*
X48922857Y-64123095D01*
X49684761Y-64361190D02*
X49399047Y-64361190D01*
X49541904Y-64361190D02*
X49541904Y-63861190D01*
X49494285Y-63932619D01*
X49446666Y-63980238D01*
X49399047Y-64004047D01*
X50113333Y-64027857D02*
X50113333Y-64361190D01*
X49994285Y-63837380D02*
X49875238Y-64194523D01*
X50184761Y-64194523D01*
X34544047Y-44176190D02*
X34544047Y-44580952D01*
X34567857Y-44628571D01*
X34591666Y-44652380D01*
X34639285Y-44676190D01*
X34734523Y-44676190D01*
X34782142Y-44652380D01*
X34805952Y-44628571D01*
X34829761Y-44580952D01*
X34829761Y-44176190D01*
X35139285Y-44390476D02*
X35091666Y-44366666D01*
X35067857Y-44342857D01*
X35044047Y-44295238D01*
X35044047Y-44271428D01*
X35067857Y-44223809D01*
X35091666Y-44200000D01*
X35139285Y-44176190D01*
X35234523Y-44176190D01*
X35282142Y-44200000D01*
X35305952Y-44223809D01*
X35329761Y-44271428D01*
X35329761Y-44295238D01*
X35305952Y-44342857D01*
X35282142Y-44366666D01*
X35234523Y-44390476D01*
X35139285Y-44390476D01*
X35091666Y-44414285D01*
X35067857Y-44438095D01*
X35044047Y-44485714D01*
X35044047Y-44580952D01*
X35067857Y-44628571D01*
X35091666Y-44652380D01*
X35139285Y-44676190D01*
X35234523Y-44676190D01*
X35282142Y-44652380D01*
X35305952Y-44628571D01*
X35329761Y-44580952D01*
X35329761Y-44485714D01*
X35305952Y-44438095D01*
X35282142Y-44414285D01*
X35234523Y-44390476D01*
X26503333Y-54971190D02*
X26503333Y-55328333D01*
X26479523Y-55399761D01*
X26431904Y-55447380D01*
X26360476Y-55471190D01*
X26312857Y-55471190D01*
X26955714Y-55137857D02*
X26955714Y-55471190D01*
X26836666Y-54947380D02*
X26717619Y-55304523D01*
X27027142Y-55304523D01*
X28805238Y-35921190D02*
X28805238Y-36278333D01*
X28781428Y-36349761D01*
X28733809Y-36397380D01*
X28662380Y-36421190D01*
X28614761Y-36421190D01*
X29305238Y-36421190D02*
X29019523Y-36421190D01*
X29162380Y-36421190D02*
X29162380Y-35921190D01*
X29114761Y-35992619D01*
X29067142Y-36040238D01*
X29019523Y-36064047D01*
X29471904Y-35921190D02*
X29781428Y-35921190D01*
X29614761Y-36111666D01*
X29686190Y-36111666D01*
X29733809Y-36135476D01*
X29757619Y-36159285D01*
X29781428Y-36206904D01*
X29781428Y-36325952D01*
X29757619Y-36373571D01*
X29733809Y-36397380D01*
X29686190Y-36421190D01*
X29543333Y-36421190D01*
X29495714Y-36397380D01*
X29471904Y-36373571D01*
X53605952Y-44041190D02*
X53605952Y-43541190D01*
X53725000Y-43541190D01*
X53796428Y-43565000D01*
X53844047Y-43612619D01*
X53867857Y-43660238D01*
X53891666Y-43755476D01*
X53891666Y-43826904D01*
X53867857Y-43922142D01*
X53844047Y-43969761D01*
X53796428Y-44017380D01*
X53725000Y-44041190D01*
X53605952Y-44041190D01*
X54367857Y-44041190D02*
X54082142Y-44041190D01*
X54225000Y-44041190D02*
X54225000Y-43541190D01*
X54177380Y-43612619D01*
X54129761Y-43660238D01*
X54082142Y-43684047D01*
X69683333Y-54971190D02*
X69683333Y-55328333D01*
X69659523Y-55399761D01*
X69611904Y-55447380D01*
X69540476Y-55471190D01*
X69492857Y-55471190D01*
X69873809Y-54971190D02*
X70207142Y-54971190D01*
X69992857Y-55471190D01*
X26503333Y-35921190D02*
X26503333Y-36278333D01*
X26479523Y-36349761D01*
X26431904Y-36397380D01*
X26360476Y-36421190D01*
X26312857Y-36421190D01*
X26717619Y-35968809D02*
X26741428Y-35945000D01*
X26789047Y-35921190D01*
X26908095Y-35921190D01*
X26955714Y-35945000D01*
X26979523Y-35968809D01*
X27003333Y-36016428D01*
X27003333Y-36064047D01*
X26979523Y-36135476D01*
X26693809Y-36421190D01*
X27003333Y-36421190D01*
X32936666Y-39596190D02*
X32770000Y-39358095D01*
X32650952Y-39596190D02*
X32650952Y-39096190D01*
X32841428Y-39096190D01*
X32889047Y-39120000D01*
X32912857Y-39143809D01*
X32936666Y-39191428D01*
X32936666Y-39262857D01*
X32912857Y-39310476D01*
X32889047Y-39334285D01*
X32841428Y-39358095D01*
X32650952Y-39358095D01*
X33412857Y-39596190D02*
X33127142Y-39596190D01*
X33270000Y-39596190D02*
X33270000Y-39096190D01*
X33222380Y-39167619D01*
X33174761Y-39215238D01*
X33127142Y-39239047D01*
X44366666Y-36336190D02*
X44200000Y-36098095D01*
X44080952Y-36336190D02*
X44080952Y-35836190D01*
X44271428Y-35836190D01*
X44319047Y-35860000D01*
X44342857Y-35883809D01*
X44366666Y-35931428D01*
X44366666Y-36002857D01*
X44342857Y-36050476D01*
X44319047Y-36074285D01*
X44271428Y-36098095D01*
X44080952Y-36098095D01*
X44533333Y-35836190D02*
X44842857Y-35836190D01*
X44676190Y-36026666D01*
X44747619Y-36026666D01*
X44795238Y-36050476D01*
X44819047Y-36074285D01*
X44842857Y-36121904D01*
X44842857Y-36240952D01*
X44819047Y-36288571D01*
X44795238Y-36312380D01*
X44747619Y-36336190D01*
X44604761Y-36336190D01*
X44557142Y-36312380D01*
X44533333Y-36288571D01*
X55499047Y-58146190D02*
X55499047Y-58550952D01*
X55522857Y-58598571D01*
X55546666Y-58622380D01*
X55594285Y-58646190D01*
X55689523Y-58646190D01*
X55737142Y-58622380D01*
X55760952Y-58598571D01*
X55784761Y-58550952D01*
X55784761Y-58146190D01*
X56237142Y-58312857D02*
X56237142Y-58646190D01*
X56118095Y-58122380D02*
X55999047Y-58479523D01*
X56308571Y-58479523D01*
X41529047Y-30206190D02*
X41529047Y-30610952D01*
X41552857Y-30658571D01*
X41576666Y-30682380D01*
X41624285Y-30706190D01*
X41719523Y-30706190D01*
X41767142Y-30682380D01*
X41790952Y-30658571D01*
X41814761Y-30610952D01*
X41814761Y-30206190D01*
X42290952Y-30206190D02*
X42052857Y-30206190D01*
X42029047Y-30444285D01*
X42052857Y-30420476D01*
X42100476Y-30396666D01*
X42219523Y-30396666D01*
X42267142Y-30420476D01*
X42290952Y-30444285D01*
X42314761Y-30491904D01*
X42314761Y-30610952D01*
X42290952Y-30658571D01*
X42267142Y-30682380D01*
X42219523Y-30706190D01*
X42100476Y-30706190D01*
X42052857Y-30682380D01*
X42029047Y-30658571D01*
X50103333Y-49732380D02*
X50174761Y-49756190D01*
X50293809Y-49756190D01*
X50341428Y-49732380D01*
X50365238Y-49708571D01*
X50389047Y-49660952D01*
X50389047Y-49613333D01*
X50365238Y-49565714D01*
X50341428Y-49541904D01*
X50293809Y-49518095D01*
X50198571Y-49494285D01*
X50150952Y-49470476D01*
X50127142Y-49446666D01*
X50103333Y-49399047D01*
X50103333Y-49351428D01*
X50127142Y-49303809D01*
X50150952Y-49280000D01*
X50198571Y-49256190D01*
X50317619Y-49256190D01*
X50389047Y-49280000D01*
X50555714Y-49256190D02*
X50674761Y-49756190D01*
X50770000Y-49399047D01*
X50865238Y-49756190D01*
X50984285Y-49256190D01*
X51436666Y-49756190D02*
X51150952Y-49756190D01*
X51293809Y-49756190D02*
X51293809Y-49256190D01*
X51246190Y-49327619D01*
X51198571Y-49375238D01*
X51150952Y-49399047D01*
X55499047Y-30206190D02*
X55499047Y-30610952D01*
X55522857Y-30658571D01*
X55546666Y-30682380D01*
X55594285Y-30706190D01*
X55689523Y-30706190D01*
X55737142Y-30682380D01*
X55760952Y-30658571D01*
X55784761Y-30610952D01*
X55784761Y-30206190D01*
X55975238Y-30206190D02*
X56284761Y-30206190D01*
X56118095Y-30396666D01*
X56189523Y-30396666D01*
X56237142Y-30420476D01*
X56260952Y-30444285D01*
X56284761Y-30491904D01*
X56284761Y-30610952D01*
X56260952Y-30658571D01*
X56237142Y-30682380D01*
X56189523Y-30706190D01*
X56046666Y-30706190D01*
X55999047Y-30682380D01*
X55975238Y-30658571D01*
X26503333Y-57511190D02*
X26503333Y-57868333D01*
X26479523Y-57939761D01*
X26431904Y-57987380D01*
X26360476Y-58011190D01*
X26312857Y-58011190D01*
X26693809Y-57511190D02*
X27003333Y-57511190D01*
X26836666Y-57701666D01*
X26908095Y-57701666D01*
X26955714Y-57725476D01*
X26979523Y-57749285D01*
X27003333Y-57796904D01*
X27003333Y-57915952D01*
X26979523Y-57963571D01*
X26955714Y-57987380D01*
X26908095Y-58011190D01*
X26765238Y-58011190D01*
X26717619Y-57987380D01*
X26693809Y-57963571D01*
X39921666Y-47803571D02*
X39897857Y-47827380D01*
X39826428Y-47851190D01*
X39778809Y-47851190D01*
X39707380Y-47827380D01*
X39659761Y-47779761D01*
X39635952Y-47732142D01*
X39612142Y-47636904D01*
X39612142Y-47565476D01*
X39635952Y-47470238D01*
X39659761Y-47422619D01*
X39707380Y-47375000D01*
X39778809Y-47351190D01*
X39826428Y-47351190D01*
X39897857Y-47375000D01*
X39921666Y-47398809D01*
X40112142Y-47398809D02*
X40135952Y-47375000D01*
X40183571Y-47351190D01*
X40302619Y-47351190D01*
X40350238Y-47375000D01*
X40374047Y-47398809D01*
X40397857Y-47446428D01*
X40397857Y-47494047D01*
X40374047Y-47565476D01*
X40088333Y-47851190D01*
X40397857Y-47851190D01*
D12*
X81685000Y-57449113D02*
X82710000Y-57449113D01*
X78860000Y-57129113D02*
X79605000Y-57129113D01*
X79326000Y-56769113D02*
X79605000Y-56769113D01*
X81685000Y-58169113D02*
X83087000Y-58169113D01*
X78445000Y-57649113D02*
X79605000Y-57649113D01*
X81685000Y-58330113D02*
X83136000Y-58330113D01*
X81685000Y-56969113D02*
X82250000Y-56969113D01*
X81685000Y-56729113D02*
X81896000Y-56729113D01*
X79145000Y-56889113D02*
X79605000Y-56889113D01*
X81685000Y-56889113D02*
X82145000Y-56889113D01*
X78109000Y-58530113D02*
X79605000Y-58530113D01*
X81685000Y-58450113D02*
X83165000Y-58450113D01*
X78165000Y-58289113D02*
X79605000Y-58289113D01*
X81685000Y-57049113D02*
X82344000Y-57049113D01*
X81685000Y-57009113D02*
X82298000Y-57009113D01*
X78550000Y-57489113D02*
X79605000Y-57489113D01*
X78065000Y-59010113D02*
X83225000Y-59010113D01*
X79394000Y-56729113D02*
X79605000Y-56729113D01*
X78641000Y-57369113D02*
X79605000Y-57369113D01*
X78125000Y-58450113D02*
X79605000Y-58450113D01*
X81685000Y-58370113D02*
X83146000Y-58370113D01*
X81685000Y-58089113D02*
X83059000Y-58089113D01*
X78095000Y-58610113D02*
X79605000Y-58610113D01*
X81685000Y-57929113D02*
X82993000Y-57929113D01*
X79262000Y-56809113D02*
X79605000Y-56809113D01*
X78398000Y-57729113D02*
X79605000Y-57729113D01*
X81685000Y-58209113D02*
X83100000Y-58209113D01*
X81685000Y-57849113D02*
X82955000Y-57849113D01*
X78708000Y-57289113D02*
X79605000Y-57289113D01*
X78134000Y-58410113D02*
X79605000Y-58410113D01*
X78902000Y-57089113D02*
X79605000Y-57089113D01*
X78920000Y-61564888D02*
X79420000Y-61564888D01*
X81685000Y-57249113D02*
X82546000Y-57249113D01*
X81685000Y-56809113D02*
X82028000Y-56809113D01*
X78263000Y-58009113D02*
X79605000Y-58009113D01*
X81685000Y-58249113D02*
X83113000Y-58249113D01*
X78421000Y-57689113D02*
X79605000Y-57689113D01*
X81685000Y-57129113D02*
X82430000Y-57129113D01*
X81685000Y-56769113D02*
X81964000Y-56769113D01*
X78065000Y-58970113D02*
X83225000Y-58970113D01*
X81685000Y-57529113D02*
X82767000Y-57529113D01*
X78154000Y-58330113D02*
X79605000Y-58330113D01*
X78066000Y-58930113D02*
X83224000Y-58930113D01*
X81685000Y-57369113D02*
X82649000Y-57369113D01*
X78355000Y-57809113D02*
X79605000Y-57809113D01*
X78102000Y-58570113D02*
X79605000Y-58570113D01*
X79202000Y-56849113D02*
X79605000Y-56849113D01*
X81685000Y-58570113D02*
X83188000Y-58570113D01*
X81685000Y-57409113D02*
X82680000Y-57409113D01*
X80361000Y-56409113D02*
X80929000Y-56409113D01*
X81685000Y-58690113D02*
X83206000Y-58690113D01*
X78072000Y-58810113D02*
X83218000Y-58810113D01*
X79730000Y-56569113D02*
X81560000Y-56569113D01*
X81685000Y-58289113D02*
X83125000Y-58289113D01*
X81685000Y-57489113D02*
X82740000Y-57489113D01*
X78217000Y-58129113D02*
X79605000Y-58129113D01*
X78470000Y-57609113D02*
X79605000Y-57609113D01*
X81685000Y-57769113D02*
X82913000Y-57769113D01*
X81685000Y-56929113D02*
X82199000Y-56929113D01*
X81685000Y-57329113D02*
X82616000Y-57329113D01*
X78297000Y-57929113D02*
X79605000Y-57929113D01*
X81685000Y-58009113D02*
X83027000Y-58009113D01*
X78819000Y-57169113D02*
X79605000Y-57169113D01*
X78177000Y-58249113D02*
X79605000Y-58249113D01*
X79170000Y-61814888D02*
X79170000Y-61314888D01*
X78203000Y-58169113D02*
X79605000Y-58169113D01*
X78144000Y-58370113D02*
X79605000Y-58370113D01*
X78496000Y-57569113D02*
X79605000Y-57569113D01*
X81685000Y-58410113D02*
X83156000Y-58410113D01*
X81685000Y-58770113D02*
X83214000Y-58770113D01*
X81685000Y-58650113D02*
X83201000Y-58650113D01*
X78190000Y-58209113D02*
X79605000Y-58209113D01*
X79968000Y-56489113D02*
X81322000Y-56489113D01*
X81685000Y-58530113D02*
X83181000Y-58530113D01*
X81685000Y-58049113D02*
X83043000Y-58049113D01*
X81685000Y-58490113D02*
X83173000Y-58490113D01*
X79091000Y-56929113D02*
X79605000Y-56929113D01*
X78335000Y-57849113D02*
X79605000Y-57849113D01*
X79547000Y-56649113D02*
X81743000Y-56649113D01*
X81685000Y-57689113D02*
X82869000Y-57689113D01*
X81685000Y-57889113D02*
X82974000Y-57889113D01*
X81685000Y-57649113D02*
X82845000Y-57649113D01*
X81685000Y-57569113D02*
X82794000Y-57569113D01*
X79840000Y-56529113D02*
X81450000Y-56529113D01*
X78089000Y-58650113D02*
X79605000Y-58650113D01*
X78316000Y-57889113D02*
X79605000Y-57889113D01*
X79634000Y-56609113D02*
X81656000Y-56609113D01*
X78080000Y-58730113D02*
X79605000Y-58730113D01*
X81685000Y-58730113D02*
X83210000Y-58730113D01*
X81685000Y-57289113D02*
X82582000Y-57289113D01*
X78992000Y-57009113D02*
X79605000Y-57009113D01*
X79040000Y-56969113D02*
X79605000Y-56969113D01*
X78377000Y-57769113D02*
X79605000Y-57769113D01*
X78067000Y-58890113D02*
X83223000Y-58890113D01*
X81685000Y-58610113D02*
X83195000Y-58610113D01*
X78674000Y-57329113D02*
X79605000Y-57329113D01*
X81685000Y-57089113D02*
X82388000Y-57089113D01*
X78580000Y-57449113D02*
X79605000Y-57449113D01*
X78523000Y-57529113D02*
X79605000Y-57529113D01*
X78946000Y-57049113D02*
X79605000Y-57049113D01*
X78076000Y-58770113D02*
X79605000Y-58770113D01*
X78117000Y-58490113D02*
X79605000Y-58490113D01*
X81685000Y-57169113D02*
X82471000Y-57169113D01*
X81685000Y-56849113D02*
X82088000Y-56849113D01*
X78069000Y-58850113D02*
X83221000Y-58850113D01*
X79467000Y-56689113D02*
X81823000Y-56689113D01*
X78247000Y-58049113D02*
X79605000Y-58049113D01*
X78084000Y-58690113D02*
X79605000Y-58690113D01*
X81685000Y-57729113D02*
X82892000Y-57729113D01*
X81685000Y-57969113D02*
X83010000Y-57969113D01*
X78744000Y-57249113D02*
X79605000Y-57249113D01*
X81685000Y-57209113D02*
X82509000Y-57209113D01*
X80127000Y-56449113D02*
X81163000Y-56449113D01*
X78280000Y-57969113D02*
X79605000Y-57969113D01*
X81685000Y-57809113D02*
X82935000Y-57809113D01*
X81685000Y-57609113D02*
X82820000Y-57609113D01*
X78781000Y-57209113D02*
X79605000Y-57209113D01*
X78610000Y-57409113D02*
X79605000Y-57409113D01*
X78231000Y-58089113D02*
X79605000Y-58089113D01*
X81685000Y-58129113D02*
X83073000Y-58129113D01*
X83265000Y-59010113D02*
G75*
G03*
X83265000Y-59010113I-2620000J0D01*
G01*
X67040000Y-50530000D02*
X67040000Y-48530000D01*
X65040000Y-48530000D02*
X65040000Y-50530000D01*
X45177064Y-63140000D02*
X43722936Y-63140000D01*
X45177064Y-61320000D02*
X43722936Y-61320000D01*
X58690000Y-32020000D02*
X58690000Y-34020000D01*
X60690000Y-34020000D02*
X60690000Y-32020000D01*
X61230000Y-65040000D02*
X61230000Y-67040000D01*
X63230000Y-67040000D02*
X63230000Y-65040000D01*
X25340000Y-74990000D02*
X25340000Y-73660000D01*
X27940000Y-74990000D02*
X27940000Y-72330000D01*
X26670000Y-74990000D02*
X25340000Y-74990000D01*
X27940000Y-74990000D02*
X76260000Y-74990000D01*
X76260000Y-74990000D02*
X76260000Y-72330000D01*
X27940000Y-72330000D02*
X76260000Y-72330000D01*
X26340000Y-69080000D02*
X30400000Y-69080000D01*
X30400000Y-66810000D02*
X26340000Y-66810000D01*
X30400000Y-69080000D02*
X30400000Y-66810000D01*
X59167500Y-65785276D02*
X59167500Y-66294724D01*
X60212500Y-65785276D02*
X60212500Y-66294724D01*
X37740000Y-65497064D02*
X37740000Y-64042936D01*
X35920000Y-65497064D02*
X35920000Y-64042936D01*
X69485000Y-65040000D02*
X69485000Y-67040000D01*
X71485000Y-67040000D02*
X71485000Y-65040000D01*
X79645000Y-65040000D02*
X79645000Y-67040000D01*
X81645000Y-67040000D02*
X81645000Y-65040000D01*
X27940000Y-29270000D02*
X27940000Y-26610000D01*
X27940000Y-29270000D02*
X76260000Y-29270000D01*
X25340000Y-29270000D02*
X25340000Y-27940000D01*
X76260000Y-29270000D02*
X76260000Y-26610000D01*
X27940000Y-26610000D02*
X76260000Y-26610000D01*
X26670000Y-29270000D02*
X25340000Y-29270000D01*
X27940000Y-26730000D02*
X27940000Y-24070000D01*
X27940000Y-24070000D02*
X76260000Y-24070000D01*
X25340000Y-26730000D02*
X25340000Y-25400000D01*
X76260000Y-26730000D02*
X76260000Y-24070000D01*
X26670000Y-26730000D02*
X25340000Y-26730000D01*
X27940000Y-26730000D02*
X76260000Y-26730000D01*
X68520000Y-49590000D02*
X71180000Y-49590000D01*
X68520000Y-46990000D02*
X71180000Y-46990000D01*
X68520000Y-46990000D02*
X68520000Y-49590000D01*
X68520000Y-44390000D02*
X69850000Y-44390000D01*
X68520000Y-45720000D02*
X68520000Y-44390000D01*
X71180000Y-46990000D02*
X71180000Y-49590000D01*
X31750000Y-58420000D02*
X39430000Y-58420000D01*
X39430000Y-58420000D02*
X39430000Y-68640000D01*
X39430000Y-68640000D02*
X31750000Y-68640000D01*
X31750000Y-68640000D02*
X31750000Y-58420000D01*
X71180000Y-36875000D02*
X69850000Y-36875000D01*
X71180000Y-34275000D02*
X68520000Y-34275000D01*
X71180000Y-34275000D02*
X71180000Y-29135000D01*
X71180000Y-29135000D02*
X68520000Y-29135000D01*
X68520000Y-34275000D02*
X68520000Y-29135000D01*
X71180000Y-35545000D02*
X71180000Y-36875000D01*
X48802936Y-33380000D02*
X50257064Y-33380000D01*
X48802936Y-35200000D02*
X50257064Y-35200000D01*
X76260000Y-72450000D02*
X76260000Y-69790000D01*
X27940000Y-72450000D02*
X76260000Y-72450000D01*
X27940000Y-72450000D02*
X27940000Y-69790000D01*
X27940000Y-69790000D02*
X76260000Y-69790000D01*
X26670000Y-72450000D02*
X25340000Y-72450000D01*
X25340000Y-72450000D02*
X25340000Y-71120000D01*
X35920000Y-37557064D02*
X35920000Y-36102936D01*
X37740000Y-37557064D02*
X37740000Y-36102936D01*
X30120000Y-41367064D02*
X30120000Y-39912936D01*
X28300000Y-41367064D02*
X28300000Y-39912936D01*
X71525000Y-56754000D02*
X71736000Y-56754000D01*
X68985000Y-56914000D02*
X69445000Y-56914000D01*
X69166000Y-56794000D02*
X69445000Y-56794000D01*
X71525000Y-57034000D02*
X72138000Y-57034000D01*
X71525000Y-58555000D02*
X73021000Y-58555000D01*
X71525000Y-57354000D02*
X72456000Y-57354000D01*
X68071000Y-58114000D02*
X69445000Y-58114000D01*
X71525000Y-58675000D02*
X73041000Y-58675000D01*
X68880000Y-56994000D02*
X69445000Y-56994000D01*
X71525000Y-57554000D02*
X72607000Y-57554000D01*
X67994000Y-58355000D02*
X69445000Y-58355000D01*
X68087000Y-58074000D02*
X69445000Y-58074000D01*
X71525000Y-57874000D02*
X72795000Y-57874000D01*
X71525000Y-57994000D02*
X72850000Y-57994000D01*
X71525000Y-58355000D02*
X72976000Y-58355000D01*
X71525000Y-57674000D02*
X72685000Y-57674000D01*
X71525000Y-58515000D02*
X73013000Y-58515000D01*
X71525000Y-57194000D02*
X72311000Y-57194000D01*
X68043000Y-58194000D02*
X69445000Y-58194000D01*
X68030000Y-58234000D02*
X69445000Y-58234000D01*
X71525000Y-58194000D02*
X72927000Y-58194000D01*
X71525000Y-57434000D02*
X72520000Y-57434000D01*
X71525000Y-57074000D02*
X72184000Y-57074000D01*
X68336000Y-57594000D02*
X69445000Y-57594000D01*
X70201000Y-56434000D02*
X70769000Y-56434000D01*
X67905000Y-58995000D02*
X73065000Y-58995000D01*
X68786000Y-57074000D02*
X69445000Y-57074000D01*
X71525000Y-58034000D02*
X72867000Y-58034000D01*
X71525000Y-58274000D02*
X72953000Y-58274000D01*
X71525000Y-56794000D02*
X71804000Y-56794000D01*
X71525000Y-56874000D02*
X71928000Y-56874000D01*
X71525000Y-56994000D02*
X72090000Y-56994000D01*
X69808000Y-56514000D02*
X71162000Y-56514000D01*
X71525000Y-57114000D02*
X72228000Y-57114000D01*
X71525000Y-57754000D02*
X72732000Y-57754000D01*
X68217000Y-57794000D02*
X69445000Y-57794000D01*
X71525000Y-56834000D02*
X71868000Y-56834000D01*
X68700000Y-57154000D02*
X69445000Y-57154000D01*
X71525000Y-58314000D02*
X72965000Y-58314000D01*
X71525000Y-57474000D02*
X72550000Y-57474000D01*
X71525000Y-58114000D02*
X72899000Y-58114000D01*
X67912000Y-58835000D02*
X73058000Y-58835000D01*
X71525000Y-58595000D02*
X73028000Y-58595000D01*
X67949000Y-58555000D02*
X69445000Y-58555000D01*
X67974000Y-58435000D02*
X69445000Y-58435000D01*
X71525000Y-57714000D02*
X72709000Y-57714000D01*
X69010000Y-61839775D02*
X69010000Y-61339775D01*
X68175000Y-57874000D02*
X69445000Y-57874000D01*
X67906000Y-58955000D02*
X73064000Y-58955000D01*
X69680000Y-56554000D02*
X71290000Y-56554000D01*
X69307000Y-56714000D02*
X71663000Y-56714000D01*
X68514000Y-57354000D02*
X69445000Y-57354000D01*
X67957000Y-58515000D02*
X69445000Y-58515000D01*
X68103000Y-58034000D02*
X69445000Y-58034000D01*
X71525000Y-57914000D02*
X72814000Y-57914000D01*
X67984000Y-58395000D02*
X69445000Y-58395000D01*
X68137000Y-57954000D02*
X69445000Y-57954000D01*
X67942000Y-58595000D02*
X69445000Y-58595000D01*
X68548000Y-57314000D02*
X69445000Y-57314000D01*
X67920000Y-58755000D02*
X69445000Y-58755000D01*
X71525000Y-57274000D02*
X72386000Y-57274000D01*
X71525000Y-57314000D02*
X72422000Y-57314000D01*
X69570000Y-56594000D02*
X71400000Y-56594000D01*
X71525000Y-58715000D02*
X73046000Y-58715000D01*
X71525000Y-58234000D02*
X72940000Y-58234000D01*
X68238000Y-57754000D02*
X69445000Y-57754000D01*
X68659000Y-57194000D02*
X69445000Y-57194000D01*
X68120000Y-57994000D02*
X69445000Y-57994000D01*
X68390000Y-57514000D02*
X69445000Y-57514000D01*
X69234000Y-56754000D02*
X69445000Y-56754000D01*
X71525000Y-58154000D02*
X72913000Y-58154000D01*
X71525000Y-58475000D02*
X73005000Y-58475000D01*
X68017000Y-58274000D02*
X69445000Y-58274000D01*
X71525000Y-57794000D02*
X72753000Y-57794000D01*
X71525000Y-58435000D02*
X72996000Y-58435000D01*
X71525000Y-57634000D02*
X72660000Y-57634000D01*
X69474000Y-56634000D02*
X71496000Y-56634000D01*
X68310000Y-57634000D02*
X69445000Y-57634000D01*
X69387000Y-56674000D02*
X71583000Y-56674000D01*
X71525000Y-57954000D02*
X72833000Y-57954000D01*
X67907000Y-58915000D02*
X73063000Y-58915000D01*
X71525000Y-57834000D02*
X72775000Y-57834000D01*
X67916000Y-58795000D02*
X69445000Y-58795000D01*
X68481000Y-57394000D02*
X69445000Y-57394000D01*
X67965000Y-58475000D02*
X69445000Y-58475000D01*
X71525000Y-58635000D02*
X73035000Y-58635000D01*
X68005000Y-58314000D02*
X69445000Y-58314000D01*
X68261000Y-57714000D02*
X69445000Y-57714000D01*
X69102000Y-56834000D02*
X69445000Y-56834000D01*
X67935000Y-58635000D02*
X69445000Y-58635000D01*
X71525000Y-57514000D02*
X72580000Y-57514000D01*
X68195000Y-57834000D02*
X69445000Y-57834000D01*
X68832000Y-57034000D02*
X69445000Y-57034000D01*
X68760000Y-61589775D02*
X69260000Y-61589775D01*
X71525000Y-57234000D02*
X72349000Y-57234000D01*
X68621000Y-57234000D02*
X69445000Y-57234000D01*
X71525000Y-56914000D02*
X71985000Y-56914000D01*
X68420000Y-57474000D02*
X69445000Y-57474000D01*
X71525000Y-58395000D02*
X72986000Y-58395000D01*
X71525000Y-58795000D02*
X73054000Y-58795000D01*
X67924000Y-58715000D02*
X69445000Y-58715000D01*
X67909000Y-58875000D02*
X73061000Y-58875000D01*
X71525000Y-57154000D02*
X72270000Y-57154000D01*
X67929000Y-58675000D02*
X69445000Y-58675000D01*
X68057000Y-58154000D02*
X69445000Y-58154000D01*
X71525000Y-57394000D02*
X72489000Y-57394000D01*
X71525000Y-58755000D02*
X73050000Y-58755000D01*
X68285000Y-57674000D02*
X69445000Y-57674000D01*
X71525000Y-58074000D02*
X72883000Y-58074000D01*
X68584000Y-57274000D02*
X69445000Y-57274000D01*
X71525000Y-56954000D02*
X72039000Y-56954000D01*
X71525000Y-57594000D02*
X72634000Y-57594000D01*
X68742000Y-57114000D02*
X69445000Y-57114000D01*
X67905000Y-59035000D02*
X73065000Y-59035000D01*
X68363000Y-57554000D02*
X69445000Y-57554000D01*
X69967000Y-56474000D02*
X71003000Y-56474000D01*
X68931000Y-56954000D02*
X69445000Y-56954000D01*
X68156000Y-57914000D02*
X69445000Y-57914000D01*
X69042000Y-56874000D02*
X69445000Y-56874000D01*
X68450000Y-57434000D02*
X69445000Y-57434000D01*
X73105000Y-59035000D02*
G75*
G03*
X73105000Y-59035000I-2620000J0D01*
G01*
X53340000Y-57150000D02*
X40640000Y-57150000D01*
X40640000Y-57150000D02*
X40640000Y-69850000D01*
X40640000Y-69850000D02*
X53340000Y-69850000D01*
X53340000Y-69850000D02*
X53340000Y-57150000D01*
X59167500Y-38354724D02*
X59167500Y-37845276D01*
X60212500Y-38354724D02*
X60212500Y-37845276D01*
X71180000Y-39370000D02*
X71180000Y-36770000D01*
X71180000Y-39370000D02*
X68520000Y-39370000D01*
X71180000Y-36770000D02*
X68520000Y-36770000D01*
X68520000Y-39370000D02*
X68520000Y-36770000D01*
X71180000Y-40640000D02*
X71180000Y-41970000D01*
X71180000Y-41970000D02*
X69850000Y-41970000D01*
X60690000Y-61960000D02*
X60690000Y-59960000D01*
X58690000Y-59960000D02*
X58690000Y-61960000D01*
X28667064Y-64495000D02*
X27212936Y-64495000D01*
X28667064Y-66315000D02*
X27212936Y-66315000D01*
X56790000Y-48802936D02*
X56790000Y-50257064D01*
X54970000Y-48802936D02*
X54970000Y-50257064D01*
X32497500Y-64515276D02*
X32497500Y-65024724D01*
X33542500Y-64515276D02*
X33542500Y-65024724D01*
X78975000Y-62225000D02*
X77715000Y-62225000D01*
X72155000Y-68235000D02*
X72155000Y-62225000D01*
X78975000Y-65985000D02*
X78975000Y-62225000D01*
X72155000Y-62225000D02*
X73415000Y-62225000D01*
X27880000Y-46990000D02*
X30540000Y-46990000D01*
X27880000Y-54670000D02*
X30540000Y-54670000D01*
X30540000Y-46990000D02*
X30540000Y-54670000D01*
X27880000Y-44390000D02*
X29210000Y-44390000D01*
X27880000Y-45720000D02*
X27880000Y-44390000D01*
X27880000Y-46990000D02*
X27880000Y-54670000D01*
X27880000Y-60960000D02*
X30540000Y-60960000D01*
X27880000Y-63560000D02*
X30540000Y-63560000D01*
X27880000Y-59690000D02*
X27880000Y-58360000D01*
X27880000Y-60960000D02*
X27880000Y-63560000D01*
X27880000Y-58360000D02*
X29210000Y-58360000D01*
X30540000Y-60960000D02*
X30540000Y-63560000D01*
X31750000Y-30480000D02*
X39430000Y-30480000D01*
X39430000Y-30480000D02*
X39430000Y-40700000D01*
X39430000Y-40700000D02*
X31750000Y-40700000D01*
X31750000Y-40700000D02*
X31750000Y-30480000D01*
X27580000Y-41367064D02*
X27580000Y-39912936D01*
X25760000Y-41367064D02*
X25760000Y-39912936D01*
X61230000Y-37100000D02*
X61230000Y-39100000D01*
X63230000Y-39100000D02*
X63230000Y-37100000D01*
X48802936Y-63140000D02*
X50257064Y-63140000D01*
X48802936Y-61320000D02*
X50257064Y-61320000D01*
X33655000Y-43180000D02*
X46355000Y-43180000D01*
X46355000Y-43180000D02*
X46355000Y-55880000D01*
X46355000Y-55880000D02*
X33655000Y-55880000D01*
X33655000Y-55880000D02*
X33655000Y-43180000D01*
X25340000Y-46990000D02*
X25340000Y-54670000D01*
X25340000Y-44390000D02*
X26670000Y-44390000D01*
X28000000Y-46990000D02*
X28000000Y-54670000D01*
X25340000Y-45720000D02*
X25340000Y-44390000D01*
X25340000Y-46990000D02*
X28000000Y-46990000D01*
X25340000Y-54670000D02*
X28000000Y-54670000D01*
X27880000Y-35620000D02*
X30540000Y-35620000D01*
X27880000Y-30420000D02*
X29210000Y-30420000D01*
X27880000Y-31750000D02*
X27880000Y-30420000D01*
X27880000Y-33020000D02*
X27880000Y-35620000D01*
X30540000Y-33020000D02*
X30540000Y-35620000D01*
X27880000Y-33020000D02*
X30540000Y-33020000D01*
X53260000Y-43315000D02*
X49200000Y-43315000D01*
X49200000Y-45585000D02*
X53260000Y-45585000D01*
X53260000Y-45585000D02*
X53260000Y-43315000D01*
X71180000Y-52070000D02*
X71180000Y-49470000D01*
X71180000Y-54670000D02*
X69850000Y-54670000D01*
X68520000Y-52070000D02*
X68520000Y-49470000D01*
X71180000Y-52070000D02*
X68520000Y-52070000D01*
X71180000Y-53340000D02*
X71180000Y-54670000D01*
X71180000Y-49470000D02*
X68520000Y-49470000D01*
X25340000Y-30420000D02*
X26670000Y-30420000D01*
X25340000Y-33020000D02*
X28000000Y-33020000D01*
X25340000Y-35620000D02*
X28000000Y-35620000D01*
X28000000Y-33020000D02*
X28000000Y-35620000D01*
X25340000Y-31750000D02*
X25340000Y-30420000D01*
X25340000Y-33020000D02*
X25340000Y-35620000D01*
X33542500Y-37084724D02*
X33542500Y-36575276D01*
X32497500Y-37084724D02*
X32497500Y-36575276D01*
X45177064Y-33380000D02*
X43722936Y-33380000D01*
X45177064Y-35200000D02*
X43722936Y-35200000D01*
X67310000Y-69850000D02*
X54610000Y-69850000D01*
X54610000Y-69850000D02*
X54610000Y-57150000D01*
X54610000Y-57150000D02*
X67310000Y-57150000D01*
X67310000Y-57150000D02*
X67310000Y-69850000D01*
X53340000Y-29210000D02*
X40640000Y-29210000D01*
X40640000Y-29210000D02*
X40640000Y-41910000D01*
X40640000Y-41910000D02*
X53340000Y-41910000D01*
X53340000Y-41910000D02*
X53340000Y-29210000D01*
X54610000Y-53340000D02*
X46930000Y-53340000D01*
X46930000Y-53340000D02*
X46930000Y-45660000D01*
X46930000Y-45660000D02*
X54610000Y-45660000D01*
X54610000Y-45660000D02*
X54610000Y-53340000D01*
X67310000Y-41910000D02*
X54610000Y-41910000D01*
X54610000Y-41910000D02*
X54610000Y-29210000D01*
X54610000Y-29210000D02*
X67310000Y-29210000D01*
X67310000Y-29210000D02*
X67310000Y-41910000D01*
X25340000Y-60960000D02*
X28000000Y-60960000D01*
X25340000Y-63560000D02*
X28000000Y-63560000D01*
X28000000Y-60960000D02*
X28000000Y-63560000D01*
X25340000Y-59690000D02*
X25340000Y-58360000D01*
X25340000Y-60960000D02*
X25340000Y-63560000D01*
X25340000Y-58360000D02*
X26670000Y-58360000D01*
X41005000Y-44720000D02*
X39005000Y-44720000D01*
X39005000Y-46720000D02*
X41005000Y-46720000D01*
%LPC*%
D13*
X80645000Y-60260113D03*
D14*
X80645000Y-57760113D03*
D15*
X66040000Y-48260000D03*
X66040000Y-50800000D03*
D16*
X46000000Y-62230000D03*
X42900000Y-62230000D03*
D15*
X59690000Y-34290000D03*
X59690000Y-31750000D03*
X62230000Y-67310000D03*
X62230000Y-64770000D03*
D17*
X26670000Y-73660000D03*
D18*
X29210000Y-73660000D03*
X31750000Y-73660000D03*
X34290000Y-73660000D03*
X36830000Y-73660000D03*
X39370000Y-73660000D03*
X41910000Y-73660000D03*
X44450000Y-73660000D03*
X46990000Y-73660000D03*
X49530000Y-73660000D03*
X52070000Y-73660000D03*
X54610000Y-73660000D03*
X57150000Y-73660000D03*
X59690000Y-73660000D03*
X62230000Y-73660000D03*
X64770000Y-73660000D03*
X67310000Y-73660000D03*
X69850000Y-73660000D03*
X72390000Y-73660000D03*
X74930000Y-73660000D03*
D19*
X29427500Y-67945000D03*
X26452500Y-67945000D03*
D20*
X59690000Y-65127500D03*
X59690000Y-66952500D03*
D21*
X36830000Y-66320000D03*
X36830000Y-63220000D03*
D15*
X70485000Y-64770000D03*
X70485000Y-67310000D03*
X80645000Y-64770000D03*
X80645000Y-67310000D03*
D17*
X26670000Y-27940000D03*
D18*
X29210000Y-27940000D03*
X31750000Y-27940000D03*
X34290000Y-27940000D03*
X36830000Y-27940000D03*
X39370000Y-27940000D03*
X41910000Y-27940000D03*
X44450000Y-27940000D03*
X46990000Y-27940000D03*
X49530000Y-27940000D03*
X52070000Y-27940000D03*
X54610000Y-27940000D03*
X57150000Y-27940000D03*
X59690000Y-27940000D03*
X62230000Y-27940000D03*
X64770000Y-27940000D03*
X67310000Y-27940000D03*
X69850000Y-27940000D03*
X72390000Y-27940000D03*
X74930000Y-27940000D03*
D17*
X26670000Y-25400000D03*
D18*
X29210000Y-25400000D03*
X31750000Y-25400000D03*
X34290000Y-25400000D03*
X36830000Y-25400000D03*
X39370000Y-25400000D03*
X41910000Y-25400000D03*
X44450000Y-25400000D03*
X46990000Y-25400000D03*
X49530000Y-25400000D03*
X52070000Y-25400000D03*
X54610000Y-25400000D03*
X57150000Y-25400000D03*
X59690000Y-25400000D03*
X62230000Y-25400000D03*
X64770000Y-25400000D03*
X67310000Y-25400000D03*
X69850000Y-25400000D03*
X72390000Y-25400000D03*
X74930000Y-25400000D03*
D17*
X69850000Y-45720000D03*
D18*
X69850000Y-48260000D03*
D15*
X33020000Y-59690000D03*
X38100000Y-59690000D03*
X35560000Y-59690000D03*
D17*
X69850000Y-35545000D03*
D18*
X69850000Y-33005000D03*
X69850000Y-30465000D03*
D22*
X47980000Y-34290000D03*
X51080000Y-34290000D03*
D17*
X26670000Y-71120000D03*
D18*
X29210000Y-71120000D03*
X31750000Y-71120000D03*
X34290000Y-71120000D03*
X36830000Y-71120000D03*
X39370000Y-71120000D03*
X41910000Y-71120000D03*
X44450000Y-71120000D03*
X46990000Y-71120000D03*
X49530000Y-71120000D03*
X52070000Y-71120000D03*
X54610000Y-71120000D03*
X57150000Y-71120000D03*
X59690000Y-71120000D03*
X62230000Y-71120000D03*
X64770000Y-71120000D03*
X67310000Y-71120000D03*
X69850000Y-71120000D03*
X72390000Y-71120000D03*
X74930000Y-71120000D03*
D21*
X36830000Y-38380000D03*
X36830000Y-35280000D03*
X29210000Y-42190000D03*
X29210000Y-39090000D03*
D13*
X70485000Y-60285000D03*
D14*
X70485000Y-57785000D03*
D15*
X50800000Y-59690000D03*
X48260000Y-59690000D03*
X45720000Y-59690000D03*
X43180000Y-59690000D03*
X43180000Y-67310000D03*
X45720000Y-67310000D03*
X48260000Y-67310000D03*
X50800000Y-67310000D03*
D23*
X59690000Y-39012500D03*
X59690000Y-37187500D03*
D17*
X69850000Y-40640000D03*
D18*
X69850000Y-38100000D03*
D15*
X59690000Y-62230000D03*
X59690000Y-59690000D03*
D16*
X29490000Y-65405000D03*
X26390000Y-65405000D03*
D24*
X55880000Y-47980000D03*
X55880000Y-51080000D03*
D20*
X33020000Y-63857500D03*
X33020000Y-65682500D03*
D25*
X73265000Y-67285000D03*
X75565000Y-67285000D03*
D26*
X75565000Y-60985000D03*
D25*
X77865000Y-67285000D03*
D17*
X29210000Y-45720000D03*
D18*
X29210000Y-48260000D03*
X29210000Y-50800000D03*
X29210000Y-53340000D03*
D17*
X29210000Y-59690000D03*
D18*
X29210000Y-62230000D03*
D15*
X33020000Y-31750000D03*
X38100000Y-31750000D03*
X35560000Y-31750000D03*
D21*
X26670000Y-42190000D03*
X26670000Y-39090000D03*
D15*
X62230000Y-39370000D03*
X62230000Y-36830000D03*
D22*
X47980000Y-62230000D03*
X51080000Y-62230000D03*
D15*
X36195000Y-45720000D03*
X36195000Y-48260000D03*
X36195000Y-50800000D03*
X36195000Y-53340000D03*
X43815000Y-53340000D03*
X43815000Y-50800000D03*
X43815000Y-48260000D03*
X43815000Y-45720000D03*
D17*
X26670000Y-45720000D03*
D18*
X26670000Y-48260000D03*
X26670000Y-50800000D03*
X26670000Y-53340000D03*
D17*
X29210000Y-31750000D03*
D18*
X29210000Y-34290000D03*
D19*
X52287500Y-44450000D03*
X49312500Y-44450000D03*
D17*
X69850000Y-53340000D03*
D18*
X69850000Y-50800000D03*
D17*
X26670000Y-31750000D03*
D18*
X26670000Y-34290000D03*
D23*
X33020000Y-37742500D03*
X33020000Y-35917500D03*
D16*
X46000000Y-34290000D03*
X42900000Y-34290000D03*
D15*
X64770000Y-67310000D03*
X64770000Y-64770000D03*
X64770000Y-62230000D03*
X64770000Y-59690000D03*
X57150000Y-59690000D03*
X57150000Y-62230000D03*
X57150000Y-64770000D03*
X57150000Y-67310000D03*
X50800000Y-31750000D03*
X48260000Y-31750000D03*
X45720000Y-31750000D03*
X43180000Y-31750000D03*
X43180000Y-39370000D03*
X45720000Y-39370000D03*
X48260000Y-39370000D03*
X50800000Y-39370000D03*
X48260000Y-46990000D03*
X48260000Y-52070000D03*
X48260000Y-49530000D03*
X53340000Y-52070000D03*
X53340000Y-46990000D03*
X53340000Y-49530000D03*
X64770000Y-39370000D03*
X64770000Y-36830000D03*
X64770000Y-34290000D03*
X64770000Y-31750000D03*
X57150000Y-31750000D03*
X57150000Y-34290000D03*
X57150000Y-36830000D03*
X57150000Y-39370000D03*
D17*
X26670000Y-59690000D03*
D18*
X26670000Y-62230000D03*
D15*
X38735000Y-45720000D03*
X41275000Y-45720000D03*
M02*
