%TF.GenerationSoftware,KiCad,Pcbnew,(6.0.0)*%
%TF.CreationDate,2025-09-03T22:59:35+02:00*%
%TF.ProjectId,Smart Servo Control Board Rev.1,536d6172-7420-4536-9572-766f20436f6e,rev?*%
%TF.SameCoordinates,Original*%
%TF.FileFunction,Legend,Top*%
%TF.FilePolarity,Positive*%
%FSLAX46Y46*%
G04 Gerber Fmt 4.6, Leading zero omitted, Abs format (unit mm)*
G04 Created by KiCad (PCBNEW (6.0.0)) date 2025-09-03 22:59:35*
%MOMM*%
%LPD*%
G01*
G04 APERTURE LIST*
G04 Aperture macros list*
%AMRoundRect*
0 Rectangle with rounded corners*
0 $1 Rounding radius*
0 $2 $3 $4 $5 $6 $7 $8 $9 X,Y pos of 4 corners*
0 Add a 4 corners polygon primitive as box body*
4,1,4,$2,$3,$4,$5,$6,$7,$8,$9,$2,$3,0*
0 Add four circle primitives for the rounded corners*
1,1,$1+$1,$2,$3*
1,1,$1+$1,$4,$5*
1,1,$1+$1,$6,$7*
1,1,$1+$1,$8,$9*
0 Add four rect primitives between the rounded corners*
20,1,$1+$1,$2,$3,$4,$5,0*
20,1,$1+$1,$4,$5,$6,$7,0*
20,1,$1+$1,$6,$7,$8,$9,0*
20,1,$1+$1,$8,$9,$2,$3,0*%
G04 Aperture macros list end*
%ADD10C,0.125000*%
%ADD11C,0.120000*%
%ADD12RoundRect,0.150000X-0.150000X0.662500X-0.150000X-0.662500X0.150000X-0.662500X0.150000X0.662500X0*%
%ADD13R,3.200000X2.514000*%
%ADD14RoundRect,0.237500X0.250000X0.237500X-0.250000X0.237500X-0.250000X-0.237500X0.250000X-0.237500X0*%
%ADD15RoundRect,0.237500X-0.250000X-0.237500X0.250000X-0.237500X0.250000X0.237500X-0.250000X0.237500X0*%
%ADD16RoundRect,0.237500X-0.237500X0.250000X-0.237500X-0.250000X0.237500X-0.250000X0.237500X0.250000X0*%
%ADD17O,4.000000X2.000000*%
%ADD18RoundRect,0.250000X-0.400000X-0.625000X0.400000X-0.625000X0.400000X0.625000X-0.400000X0.625000X0*%
%ADD19RoundRect,0.250000X-0.450000X-0.425000X0.450000X-0.425000X0.450000X0.425000X-0.450000X0.425000X0*%
%ADD20R,2.000000X1.500000*%
%ADD21R,2.000000X3.800000*%
%ADD22RoundRect,0.237500X0.237500X-0.250000X0.237500X0.250000X-0.237500X0.250000X-0.237500X-0.250000X0*%
%ADD23RoundRect,0.075000X-0.075000X0.662500X-0.075000X-0.662500X0.075000X-0.662500X0.075000X0.662500X0*%
%ADD24RoundRect,0.075000X-0.662500X0.075000X-0.662500X-0.075000X0.662500X-0.075000X0.662500X0.075000X0*%
G04 APERTURE END LIST*
D10*
%TO.C,U2*%
X35369047Y-37226190D02*
X35369047Y-37630952D01*
X35392857Y-37678571D01*
X35416666Y-37702380D01*
X35464285Y-37726190D01*
X35559523Y-37726190D01*
X35607142Y-37702380D01*
X35630952Y-37678571D01*
X35654761Y-37630952D01*
X35654761Y-37226190D01*
X35869047Y-37273809D02*
X35892857Y-37250000D01*
X35940476Y-37226190D01*
X36059523Y-37226190D01*
X36107142Y-37250000D01*
X36130952Y-37273809D01*
X36154761Y-37321428D01*
X36154761Y-37369047D01*
X36130952Y-37440476D01*
X35845238Y-37726190D01*
X36154761Y-37726190D01*
%TO.C,C11*%
X47678571Y-41928571D02*
X47654761Y-41952380D01*
X47583333Y-41976190D01*
X47535714Y-41976190D01*
X47464285Y-41952380D01*
X47416666Y-41904761D01*
X47392857Y-41857142D01*
X47369047Y-41761904D01*
X47369047Y-41690476D01*
X47392857Y-41595238D01*
X47416666Y-41547619D01*
X47464285Y-41500000D01*
X47535714Y-41476190D01*
X47583333Y-41476190D01*
X47654761Y-41500000D01*
X47678571Y-41523809D01*
X48154761Y-41976190D02*
X47869047Y-41976190D01*
X48011904Y-41976190D02*
X48011904Y-41476190D01*
X47964285Y-41547619D01*
X47916666Y-41595238D01*
X47869047Y-41619047D01*
X48630952Y-41976190D02*
X48345238Y-41976190D01*
X48488095Y-41976190D02*
X48488095Y-41476190D01*
X48440476Y-41547619D01*
X48392857Y-41595238D01*
X48345238Y-41619047D01*
%TO.C,R10*%
X54178571Y-44726190D02*
X54011904Y-44488095D01*
X53892857Y-44726190D02*
X53892857Y-44226190D01*
X54083333Y-44226190D01*
X54130952Y-44250000D01*
X54154761Y-44273809D01*
X54178571Y-44321428D01*
X54178571Y-44392857D01*
X54154761Y-44440476D01*
X54130952Y-44464285D01*
X54083333Y-44488095D01*
X53892857Y-44488095D01*
X54654761Y-44726190D02*
X54369047Y-44726190D01*
X54511904Y-44726190D02*
X54511904Y-44226190D01*
X54464285Y-44297619D01*
X54416666Y-44345238D01*
X54369047Y-44369047D01*
X54964285Y-44226190D02*
X55011904Y-44226190D01*
X55059523Y-44250000D01*
X55083333Y-44273809D01*
X55107142Y-44321428D01*
X55130952Y-44416666D01*
X55130952Y-44535714D01*
X55107142Y-44630952D01*
X55083333Y-44678571D01*
X55059523Y-44702380D01*
X55011904Y-44726190D01*
X54964285Y-44726190D01*
X54916666Y-44702380D01*
X54892857Y-44678571D01*
X54869047Y-44630952D01*
X54845238Y-44535714D01*
X54845238Y-44416666D01*
X54869047Y-44321428D01*
X54892857Y-44273809D01*
X54916666Y-44250000D01*
X54964285Y-44226190D01*
%TO.C,C9*%
X46916666Y-35678571D02*
X46892857Y-35702380D01*
X46821428Y-35726190D01*
X46773809Y-35726190D01*
X46702380Y-35702380D01*
X46654761Y-35654761D01*
X46630952Y-35607142D01*
X46607142Y-35511904D01*
X46607142Y-35440476D01*
X46630952Y-35345238D01*
X46654761Y-35297619D01*
X46702380Y-35250000D01*
X46773809Y-35226190D01*
X46821428Y-35226190D01*
X46892857Y-35250000D01*
X46916666Y-35273809D01*
X47154761Y-35726190D02*
X47250000Y-35726190D01*
X47297619Y-35702380D01*
X47321428Y-35678571D01*
X47369047Y-35607142D01*
X47392857Y-35511904D01*
X47392857Y-35321428D01*
X47369047Y-35273809D01*
X47345238Y-35250000D01*
X47297619Y-35226190D01*
X47202380Y-35226190D01*
X47154761Y-35250000D01*
X47130952Y-35273809D01*
X47107142Y-35321428D01*
X47107142Y-35440476D01*
X47130952Y-35488095D01*
X47154761Y-35511904D01*
X47202380Y-35535714D01*
X47297619Y-35535714D01*
X47345238Y-35511904D01*
X47369047Y-35488095D01*
X47392857Y-35440476D01*
%TO.C,J2*%
X43333333Y-36726190D02*
X43333333Y-37083333D01*
X43309523Y-37154761D01*
X43261904Y-37202380D01*
X43190476Y-37226190D01*
X43142857Y-37226190D01*
X43547619Y-36773809D02*
X43571428Y-36750000D01*
X43619047Y-36726190D01*
X43738095Y-36726190D01*
X43785714Y-36750000D01*
X43809523Y-36773809D01*
X43833333Y-36821428D01*
X43833333Y-36869047D01*
X43809523Y-36940476D01*
X43523809Y-37226190D01*
X43833333Y-37226190D01*
%TO.C,C16*%
X64178571Y-44678571D02*
X64154761Y-44702380D01*
X64083333Y-44726190D01*
X64035714Y-44726190D01*
X63964285Y-44702380D01*
X63916666Y-44654761D01*
X63892857Y-44607142D01*
X63869047Y-44511904D01*
X63869047Y-44440476D01*
X63892857Y-44345238D01*
X63916666Y-44297619D01*
X63964285Y-44250000D01*
X64035714Y-44226190D01*
X64083333Y-44226190D01*
X64154761Y-44250000D01*
X64178571Y-44273809D01*
X64654761Y-44726190D02*
X64369047Y-44726190D01*
X64511904Y-44726190D02*
X64511904Y-44226190D01*
X64464285Y-44297619D01*
X64416666Y-44345238D01*
X64369047Y-44369047D01*
X65083333Y-44226190D02*
X64988095Y-44226190D01*
X64940476Y-44250000D01*
X64916666Y-44273809D01*
X64869047Y-44345238D01*
X64845238Y-44440476D01*
X64845238Y-44630952D01*
X64869047Y-44678571D01*
X64892857Y-44702380D01*
X64940476Y-44726190D01*
X65035714Y-44726190D01*
X65083333Y-44702380D01*
X65107142Y-44678571D01*
X65130952Y-44630952D01*
X65130952Y-44511904D01*
X65107142Y-44464285D01*
X65083333Y-44440476D01*
X65035714Y-44416666D01*
X64940476Y-44416666D01*
X64892857Y-44440476D01*
X64869047Y-44464285D01*
X64845238Y-44511904D01*
%TO.C,R4*%
X41916666Y-41726190D02*
X41750000Y-41488095D01*
X41630952Y-41726190D02*
X41630952Y-41226190D01*
X41821428Y-41226190D01*
X41869047Y-41250000D01*
X41892857Y-41273809D01*
X41916666Y-41321428D01*
X41916666Y-41392857D01*
X41892857Y-41440476D01*
X41869047Y-41464285D01*
X41821428Y-41488095D01*
X41630952Y-41488095D01*
X42345238Y-41392857D02*
X42345238Y-41726190D01*
X42226190Y-41202380D02*
X42107142Y-41559523D01*
X42416666Y-41559523D01*
%TO.C,L1*%
X39916666Y-30476190D02*
X39678571Y-30476190D01*
X39678571Y-29976190D01*
X40345238Y-30476190D02*
X40059523Y-30476190D01*
X40202380Y-30476190D02*
X40202380Y-29976190D01*
X40154761Y-30047619D01*
X40107142Y-30095238D01*
X40059523Y-30119047D01*
%TO.C,R9*%
X49416666Y-44726190D02*
X49250000Y-44488095D01*
X49130952Y-44726190D02*
X49130952Y-44226190D01*
X49321428Y-44226190D01*
X49369047Y-44250000D01*
X49392857Y-44273809D01*
X49416666Y-44321428D01*
X49416666Y-44392857D01*
X49392857Y-44440476D01*
X49369047Y-44464285D01*
X49321428Y-44488095D01*
X49130952Y-44488095D01*
X49654761Y-44726190D02*
X49750000Y-44726190D01*
X49797619Y-44702380D01*
X49821428Y-44678571D01*
X49869047Y-44607142D01*
X49892857Y-44511904D01*
X49892857Y-44321428D01*
X49869047Y-44273809D01*
X49845238Y-44250000D01*
X49797619Y-44226190D01*
X49702380Y-44226190D01*
X49654761Y-44250000D01*
X49630952Y-44273809D01*
X49607142Y-44321428D01*
X49607142Y-44440476D01*
X49630952Y-44488095D01*
X49654761Y-44511904D01*
X49702380Y-44535714D01*
X49797619Y-44535714D01*
X49845238Y-44511904D01*
X49869047Y-44488095D01*
X49892857Y-44440476D01*
%TO.C,C3*%
X57416666Y-30678571D02*
X57392857Y-30702380D01*
X57321428Y-30726190D01*
X57273809Y-30726190D01*
X57202380Y-30702380D01*
X57154761Y-30654761D01*
X57130952Y-30607142D01*
X57107142Y-30511904D01*
X57107142Y-30440476D01*
X57130952Y-30345238D01*
X57154761Y-30297619D01*
X57202380Y-30250000D01*
X57273809Y-30226190D01*
X57321428Y-30226190D01*
X57392857Y-30250000D01*
X57416666Y-30273809D01*
X57583333Y-30226190D02*
X57892857Y-30226190D01*
X57726190Y-30416666D01*
X57797619Y-30416666D01*
X57845238Y-30440476D01*
X57869047Y-30464285D01*
X57892857Y-30511904D01*
X57892857Y-30630952D01*
X57869047Y-30678571D01*
X57845238Y-30702380D01*
X57797619Y-30726190D01*
X57654761Y-30726190D01*
X57607142Y-30702380D01*
X57583333Y-30678571D01*
%TO.C,C10*%
X35428571Y-33178571D02*
X35404761Y-33202380D01*
X35333333Y-33226190D01*
X35285714Y-33226190D01*
X35214285Y-33202380D01*
X35166666Y-33154761D01*
X35142857Y-33107142D01*
X35119047Y-33011904D01*
X35119047Y-32940476D01*
X35142857Y-32845238D01*
X35166666Y-32797619D01*
X35214285Y-32750000D01*
X35285714Y-32726190D01*
X35333333Y-32726190D01*
X35404761Y-32750000D01*
X35428571Y-32773809D01*
X35904761Y-33226190D02*
X35619047Y-33226190D01*
X35761904Y-33226190D02*
X35761904Y-32726190D01*
X35714285Y-32797619D01*
X35666666Y-32845238D01*
X35619047Y-32869047D01*
X36214285Y-32726190D02*
X36261904Y-32726190D01*
X36309523Y-32750000D01*
X36333333Y-32773809D01*
X36357142Y-32821428D01*
X36380952Y-32916666D01*
X36380952Y-33035714D01*
X36357142Y-33130952D01*
X36333333Y-33178571D01*
X36309523Y-33202380D01*
X36261904Y-33226190D01*
X36214285Y-33226190D01*
X36166666Y-33202380D01*
X36142857Y-33178571D01*
X36119047Y-33130952D01*
X36095238Y-33035714D01*
X36095238Y-32916666D01*
X36119047Y-32821428D01*
X36142857Y-32773809D01*
X36166666Y-32750000D01*
X36214285Y-32726190D01*
%TO.C,C15*%
X64678571Y-30678571D02*
X64654761Y-30702380D01*
X64583333Y-30726190D01*
X64535714Y-30726190D01*
X64464285Y-30702380D01*
X64416666Y-30654761D01*
X64392857Y-30607142D01*
X64369047Y-30511904D01*
X64369047Y-30440476D01*
X64392857Y-30345238D01*
X64416666Y-30297619D01*
X64464285Y-30250000D01*
X64535714Y-30226190D01*
X64583333Y-30226190D01*
X64654761Y-30250000D01*
X64678571Y-30273809D01*
X65154761Y-30726190D02*
X64869047Y-30726190D01*
X65011904Y-30726190D02*
X65011904Y-30226190D01*
X64964285Y-30297619D01*
X64916666Y-30345238D01*
X64869047Y-30369047D01*
X65607142Y-30226190D02*
X65369047Y-30226190D01*
X65345238Y-30464285D01*
X65369047Y-30440476D01*
X65416666Y-30416666D01*
X65535714Y-30416666D01*
X65583333Y-30440476D01*
X65607142Y-30464285D01*
X65630952Y-30511904D01*
X65630952Y-30630952D01*
X65607142Y-30678571D01*
X65583333Y-30702380D01*
X65535714Y-30726190D01*
X65416666Y-30726190D01*
X65369047Y-30702380D01*
X65345238Y-30678571D01*
%TO.C,C7*%
X63916666Y-33678571D02*
X63892857Y-33702380D01*
X63821428Y-33726190D01*
X63773809Y-33726190D01*
X63702380Y-33702380D01*
X63654761Y-33654761D01*
X63630952Y-33607142D01*
X63607142Y-33511904D01*
X63607142Y-33440476D01*
X63630952Y-33345238D01*
X63654761Y-33297619D01*
X63702380Y-33250000D01*
X63773809Y-33226190D01*
X63821428Y-33226190D01*
X63892857Y-33250000D01*
X63916666Y-33273809D01*
X64083333Y-33226190D02*
X64416666Y-33226190D01*
X64202380Y-33726190D01*
%TO.C,R6*%
X54416666Y-30726190D02*
X54250000Y-30488095D01*
X54130952Y-30726190D02*
X54130952Y-30226190D01*
X54321428Y-30226190D01*
X54369047Y-30250000D01*
X54392857Y-30273809D01*
X54416666Y-30321428D01*
X54416666Y-30392857D01*
X54392857Y-30440476D01*
X54369047Y-30464285D01*
X54321428Y-30488095D01*
X54130952Y-30488095D01*
X54845238Y-30226190D02*
X54750000Y-30226190D01*
X54702380Y-30250000D01*
X54678571Y-30273809D01*
X54630952Y-30345238D01*
X54607142Y-30440476D01*
X54607142Y-30630952D01*
X54630952Y-30678571D01*
X54654761Y-30702380D01*
X54702380Y-30726190D01*
X54797619Y-30726190D01*
X54845238Y-30702380D01*
X54869047Y-30678571D01*
X54892857Y-30630952D01*
X54892857Y-30511904D01*
X54869047Y-30464285D01*
X54845238Y-30440476D01*
X54797619Y-30416666D01*
X54702380Y-30416666D01*
X54654761Y-30440476D01*
X54630952Y-30464285D01*
X54607142Y-30511904D01*
%TO.C,C17*%
X70178571Y-42178571D02*
X70154761Y-42202380D01*
X70083333Y-42226190D01*
X70035714Y-42226190D01*
X69964285Y-42202380D01*
X69916666Y-42154761D01*
X69892857Y-42107142D01*
X69869047Y-42011904D01*
X69869047Y-41940476D01*
X69892857Y-41845238D01*
X69916666Y-41797619D01*
X69964285Y-41750000D01*
X70035714Y-41726190D01*
X70083333Y-41726190D01*
X70154761Y-41750000D01*
X70178571Y-41773809D01*
X70654761Y-42226190D02*
X70369047Y-42226190D01*
X70511904Y-42226190D02*
X70511904Y-41726190D01*
X70464285Y-41797619D01*
X70416666Y-41845238D01*
X70369047Y-41869047D01*
X70821428Y-41726190D02*
X71154761Y-41726190D01*
X70940476Y-42226190D01*
%TO.C,U4*%
X69619047Y-37226190D02*
X69619047Y-37630952D01*
X69642857Y-37678571D01*
X69666666Y-37702380D01*
X69714285Y-37726190D01*
X69809523Y-37726190D01*
X69857142Y-37702380D01*
X69880952Y-37678571D01*
X69904761Y-37630952D01*
X69904761Y-37226190D01*
X70357142Y-37392857D02*
X70357142Y-37726190D01*
X70238095Y-37202380D02*
X70119047Y-37559523D01*
X70428571Y-37559523D01*
%TO.C,R7*%
X58916666Y-30726190D02*
X58750000Y-30488095D01*
X58630952Y-30726190D02*
X58630952Y-30226190D01*
X58821428Y-30226190D01*
X58869047Y-30250000D01*
X58892857Y-30273809D01*
X58916666Y-30321428D01*
X58916666Y-30392857D01*
X58892857Y-30440476D01*
X58869047Y-30464285D01*
X58821428Y-30488095D01*
X58630952Y-30488095D01*
X59083333Y-30226190D02*
X59416666Y-30226190D01*
X59202380Y-30726190D01*
%TO.C,C12*%
X59791428Y-42478571D02*
X59767619Y-42454761D01*
X59743809Y-42383333D01*
X59743809Y-42335714D01*
X59767619Y-42264285D01*
X59815238Y-42216666D01*
X59862857Y-42192857D01*
X59958095Y-42169047D01*
X60029523Y-42169047D01*
X60124761Y-42192857D01*
X60172380Y-42216666D01*
X60220000Y-42264285D01*
X60243809Y-42335714D01*
X60243809Y-42383333D01*
X60220000Y-42454761D01*
X60196190Y-42478571D01*
X59743809Y-42954761D02*
X59743809Y-42669047D01*
X59743809Y-42811904D02*
X60243809Y-42811904D01*
X60172380Y-42764285D01*
X60124761Y-42716666D01*
X60100952Y-42669047D01*
X60196190Y-43145238D02*
X60220000Y-43169047D01*
X60243809Y-43216666D01*
X60243809Y-43335714D01*
X60220000Y-43383333D01*
X60196190Y-43407142D01*
X60148571Y-43430952D01*
X60100952Y-43430952D01*
X60029523Y-43407142D01*
X59743809Y-43121428D01*
X59743809Y-43430952D01*
%TO.C,C8*%
X45916666Y-33678571D02*
X45892857Y-33702380D01*
X45821428Y-33726190D01*
X45773809Y-33726190D01*
X45702380Y-33702380D01*
X45654761Y-33654761D01*
X45630952Y-33607142D01*
X45607142Y-33511904D01*
X45607142Y-33440476D01*
X45630952Y-33345238D01*
X45654761Y-33297619D01*
X45702380Y-33250000D01*
X45773809Y-33226190D01*
X45821428Y-33226190D01*
X45892857Y-33250000D01*
X45916666Y-33273809D01*
X46202380Y-33440476D02*
X46154761Y-33416666D01*
X46130952Y-33392857D01*
X46107142Y-33345238D01*
X46107142Y-33321428D01*
X46130952Y-33273809D01*
X46154761Y-33250000D01*
X46202380Y-33226190D01*
X46297619Y-33226190D01*
X46345238Y-33250000D01*
X46369047Y-33273809D01*
X46392857Y-33321428D01*
X46392857Y-33345238D01*
X46369047Y-33392857D01*
X46345238Y-33416666D01*
X46297619Y-33440476D01*
X46202380Y-33440476D01*
X46154761Y-33464285D01*
X46130952Y-33488095D01*
X46107142Y-33535714D01*
X46107142Y-33630952D01*
X46130952Y-33678571D01*
X46154761Y-33702380D01*
X46202380Y-33726190D01*
X46297619Y-33726190D01*
X46345238Y-33702380D01*
X46369047Y-33678571D01*
X46392857Y-33630952D01*
X46392857Y-33535714D01*
X46369047Y-33488095D01*
X46345238Y-33464285D01*
X46297619Y-33440476D01*
%TO.C,C2*%
X35666666Y-42178571D02*
X35642857Y-42202380D01*
X35571428Y-42226190D01*
X35523809Y-42226190D01*
X35452380Y-42202380D01*
X35404761Y-42154761D01*
X35380952Y-42107142D01*
X35357142Y-42011904D01*
X35357142Y-41940476D01*
X35380952Y-41845238D01*
X35404761Y-41797619D01*
X35452380Y-41750000D01*
X35523809Y-41726190D01*
X35571428Y-41726190D01*
X35642857Y-41750000D01*
X35666666Y-41773809D01*
X35857142Y-41773809D02*
X35880952Y-41750000D01*
X35928571Y-41726190D01*
X36047619Y-41726190D01*
X36095238Y-41750000D01*
X36119047Y-41773809D01*
X36142857Y-41821428D01*
X36142857Y-41869047D01*
X36119047Y-41940476D01*
X35833333Y-42226190D01*
X36142857Y-42226190D01*
%TO.C,L2*%
X39916666Y-45156190D02*
X39678571Y-45156190D01*
X39678571Y-44656190D01*
X40059523Y-44703809D02*
X40083333Y-44680000D01*
X40130952Y-44656190D01*
X40250000Y-44656190D01*
X40297619Y-44680000D01*
X40321428Y-44703809D01*
X40345238Y-44751428D01*
X40345238Y-44799047D01*
X40321428Y-44870476D01*
X40035714Y-45156190D01*
X40345238Y-45156190D01*
%TO.C,C14*%
X70178571Y-33178571D02*
X70154761Y-33202380D01*
X70083333Y-33226190D01*
X70035714Y-33226190D01*
X69964285Y-33202380D01*
X69916666Y-33154761D01*
X69892857Y-33107142D01*
X69869047Y-33011904D01*
X69869047Y-32940476D01*
X69892857Y-32845238D01*
X69916666Y-32797619D01*
X69964285Y-32750000D01*
X70035714Y-32726190D01*
X70083333Y-32726190D01*
X70154761Y-32750000D01*
X70178571Y-32773809D01*
X70654761Y-33226190D02*
X70369047Y-33226190D01*
X70511904Y-33226190D02*
X70511904Y-32726190D01*
X70464285Y-32797619D01*
X70416666Y-32845238D01*
X70369047Y-32869047D01*
X71083333Y-32892857D02*
X71083333Y-33226190D01*
X70964285Y-32702380D02*
X70845238Y-33059523D01*
X71154761Y-33059523D01*
%TO.C,C1*%
X50916666Y-43428571D02*
X50892857Y-43452380D01*
X50821428Y-43476190D01*
X50773809Y-43476190D01*
X50702380Y-43452380D01*
X50654761Y-43404761D01*
X50630952Y-43357142D01*
X50607142Y-43261904D01*
X50607142Y-43190476D01*
X50630952Y-43095238D01*
X50654761Y-43047619D01*
X50702380Y-43000000D01*
X50773809Y-42976190D01*
X50821428Y-42976190D01*
X50892857Y-43000000D01*
X50916666Y-43023809D01*
X51392857Y-43476190D02*
X51107142Y-43476190D01*
X51250000Y-43476190D02*
X51250000Y-42976190D01*
X51202380Y-43047619D01*
X51154761Y-43095238D01*
X51107142Y-43119047D01*
%TO.C,R5*%
X49416666Y-30726190D02*
X49250000Y-30488095D01*
X49130952Y-30726190D02*
X49130952Y-30226190D01*
X49321428Y-30226190D01*
X49369047Y-30250000D01*
X49392857Y-30273809D01*
X49416666Y-30321428D01*
X49416666Y-30392857D01*
X49392857Y-30440476D01*
X49369047Y-30464285D01*
X49321428Y-30488095D01*
X49130952Y-30488095D01*
X49869047Y-30226190D02*
X49630952Y-30226190D01*
X49607142Y-30464285D01*
X49630952Y-30440476D01*
X49678571Y-30416666D01*
X49797619Y-30416666D01*
X49845238Y-30440476D01*
X49869047Y-30464285D01*
X49892857Y-30511904D01*
X49892857Y-30630952D01*
X49869047Y-30678571D01*
X49845238Y-30702380D01*
X49797619Y-30726190D01*
X49678571Y-30726190D01*
X49630952Y-30702380D01*
X49607142Y-30678571D01*
%TO.C,C5*%
X57416666Y-44678571D02*
X57392857Y-44702380D01*
X57321428Y-44726190D01*
X57273809Y-44726190D01*
X57202380Y-44702380D01*
X57154761Y-44654761D01*
X57130952Y-44607142D01*
X57107142Y-44511904D01*
X57107142Y-44440476D01*
X57130952Y-44345238D01*
X57154761Y-44297619D01*
X57202380Y-44250000D01*
X57273809Y-44226190D01*
X57321428Y-44226190D01*
X57392857Y-44250000D01*
X57416666Y-44273809D01*
X57869047Y-44226190D02*
X57630952Y-44226190D01*
X57607142Y-44464285D01*
X57630952Y-44440476D01*
X57678571Y-44416666D01*
X57797619Y-44416666D01*
X57845238Y-44440476D01*
X57869047Y-44464285D01*
X57892857Y-44511904D01*
X57892857Y-44630952D01*
X57869047Y-44678571D01*
X57845238Y-44702380D01*
X57797619Y-44726190D01*
X57678571Y-44726190D01*
X57630952Y-44702380D01*
X57607142Y-44678571D01*
%TO.C,U1*%
X58969047Y-37226190D02*
X58969047Y-37630952D01*
X58992857Y-37678571D01*
X59016666Y-37702380D01*
X59064285Y-37726190D01*
X59159523Y-37726190D01*
X59207142Y-37702380D01*
X59230952Y-37678571D01*
X59254761Y-37630952D01*
X59254761Y-37226190D01*
X59754761Y-37726190D02*
X59469047Y-37726190D01*
X59611904Y-37726190D02*
X59611904Y-37226190D01*
X59564285Y-37297619D01*
X59516666Y-37345238D01*
X59469047Y-37369047D01*
%TO.C,R8*%
X58916666Y-32726190D02*
X58750000Y-32488095D01*
X58630952Y-32726190D02*
X58630952Y-32226190D01*
X58821428Y-32226190D01*
X58869047Y-32250000D01*
X58892857Y-32273809D01*
X58916666Y-32321428D01*
X58916666Y-32392857D01*
X58892857Y-32440476D01*
X58869047Y-32464285D01*
X58821428Y-32488095D01*
X58630952Y-32488095D01*
X59202380Y-32440476D02*
X59154761Y-32416666D01*
X59130952Y-32392857D01*
X59107142Y-32345238D01*
X59107142Y-32321428D01*
X59130952Y-32273809D01*
X59154761Y-32250000D01*
X59202380Y-32226190D01*
X59297619Y-32226190D01*
X59345238Y-32250000D01*
X59369047Y-32273809D01*
X59392857Y-32321428D01*
X59392857Y-32345238D01*
X59369047Y-32392857D01*
X59345238Y-32416666D01*
X59297619Y-32440476D01*
X59202380Y-32440476D01*
X59154761Y-32464285D01*
X59130952Y-32488095D01*
X59107142Y-32535714D01*
X59107142Y-32630952D01*
X59130952Y-32678571D01*
X59154761Y-32702380D01*
X59202380Y-32726190D01*
X59297619Y-32726190D01*
X59345238Y-32702380D01*
X59369047Y-32678571D01*
X59392857Y-32630952D01*
X59392857Y-32535714D01*
X59369047Y-32488095D01*
X59345238Y-32464285D01*
X59297619Y-32440476D01*
%TO.C,C4*%
X47916666Y-33678571D02*
X47892857Y-33702380D01*
X47821428Y-33726190D01*
X47773809Y-33726190D01*
X47702380Y-33702380D01*
X47654761Y-33654761D01*
X47630952Y-33607142D01*
X47607142Y-33511904D01*
X47607142Y-33440476D01*
X47630952Y-33345238D01*
X47654761Y-33297619D01*
X47702380Y-33250000D01*
X47773809Y-33226190D01*
X47821428Y-33226190D01*
X47892857Y-33250000D01*
X47916666Y-33273809D01*
X48345238Y-33392857D02*
X48345238Y-33726190D01*
X48226190Y-33202380D02*
X48107142Y-33559523D01*
X48416666Y-33559523D01*
D11*
%TO.C,U2*%
X36440000Y-37500000D02*
X36440000Y-35550000D01*
X36440000Y-37500000D02*
X36440000Y-39450000D01*
X41560000Y-37500000D02*
X41560000Y-39450000D01*
X41560000Y-37500000D02*
X41560000Y-34050000D01*
%TO.C,C11*%
X47254724Y-42477500D02*
X46745276Y-42477500D01*
X47254724Y-43522500D02*
X46745276Y-43522500D01*
%TO.C,R10*%
X51745276Y-45022500D02*
X52254724Y-45022500D01*
X51745276Y-43977500D02*
X52254724Y-43977500D01*
%TO.C,C9*%
X46727500Y-37245276D02*
X46727500Y-37754724D01*
X47772500Y-37245276D02*
X47772500Y-37754724D01*
%TO.C,C16*%
X66745276Y-43977500D02*
X67254724Y-43977500D01*
X66745276Y-45022500D02*
X67254724Y-45022500D01*
%TO.C,R4*%
X44272936Y-40090000D02*
X45727064Y-40090000D01*
X44272936Y-41910000D02*
X45727064Y-41910000D01*
%TO.C,L1*%
X40254724Y-32022500D02*
X39745276Y-32022500D01*
X40254724Y-30977500D02*
X39745276Y-30977500D01*
%TO.C,R9*%
X46745276Y-43977500D02*
X47254724Y-43977500D01*
X46745276Y-45022500D02*
X47254724Y-45022500D01*
%TO.C,C3*%
X56977500Y-32245276D02*
X56977500Y-32754724D01*
X58022500Y-32245276D02*
X58022500Y-32754724D01*
%TO.C,C10*%
X36272500Y-34745276D02*
X36272500Y-35254724D01*
X35227500Y-34745276D02*
X35227500Y-35254724D01*
%TO.C,C15*%
X66745276Y-31022500D02*
X67254724Y-31022500D01*
X66745276Y-29977500D02*
X67254724Y-29977500D01*
%TO.C,C7*%
X63477500Y-31245276D02*
X63477500Y-31754724D01*
X64522500Y-31245276D02*
X64522500Y-31754724D01*
%TO.C,R6*%
X51745276Y-29977500D02*
X52254724Y-29977500D01*
X51745276Y-31022500D02*
X52254724Y-31022500D01*
%TO.C,C17*%
X68600000Y-41565000D02*
X64690000Y-41565000D01*
X64690000Y-41565000D02*
X64690000Y-43435000D01*
X64690000Y-43435000D02*
X68600000Y-43435000D01*
%TO.C,U4*%
X62590000Y-34090000D02*
X62590000Y-35350000D01*
X68600000Y-40910000D02*
X62590000Y-40910000D01*
X62590000Y-40910000D02*
X62590000Y-39650000D01*
X66350000Y-34090000D02*
X62590000Y-34090000D01*
%TO.C,R7*%
X61245276Y-29977500D02*
X61754724Y-29977500D01*
X61245276Y-31022500D02*
X61754724Y-31022500D01*
%TO.C,C12*%
X61922500Y-43054724D02*
X61922500Y-42545276D01*
X60877500Y-43054724D02*
X60877500Y-42545276D01*
%TO.C,C8*%
X46745276Y-32522500D02*
X47254724Y-32522500D01*
X46745276Y-31477500D02*
X47254724Y-31477500D01*
%TO.C,C2*%
X36272500Y-39745276D02*
X36272500Y-40254724D01*
X35227500Y-39745276D02*
X35227500Y-40254724D01*
%TO.C,L2*%
X40254724Y-42977500D02*
X39745276Y-42977500D01*
X40254724Y-44022500D02*
X39745276Y-44022500D01*
%TO.C,C14*%
X64690000Y-31565000D02*
X64690000Y-33435000D01*
X64690000Y-33435000D02*
X68600000Y-33435000D01*
X68600000Y-31565000D02*
X64690000Y-31565000D01*
%TO.C,C1*%
X48977500Y-42754724D02*
X48977500Y-42245276D01*
X50022500Y-42754724D02*
X50022500Y-42245276D01*
%TO.C,R5*%
X46745276Y-29977500D02*
X47254724Y-29977500D01*
X46745276Y-31022500D02*
X47254724Y-31022500D01*
%TO.C,C5*%
X58022500Y-42754724D02*
X58022500Y-42245276D01*
X56977500Y-42754724D02*
X56977500Y-42245276D01*
%TO.C,U1*%
X49890000Y-34340000D02*
X49890000Y-33890000D01*
X57110000Y-40660000D02*
X57110000Y-41110000D01*
X57110000Y-34340000D02*
X57110000Y-33890000D01*
X56660000Y-33890000D02*
X56660000Y-32600000D01*
X57110000Y-41110000D02*
X56660000Y-41110000D01*
X57110000Y-33890000D02*
X56660000Y-33890000D01*
X49890000Y-40660000D02*
X49890000Y-41110000D01*
X49890000Y-33890000D02*
X50340000Y-33890000D01*
X49890000Y-41110000D02*
X50340000Y-41110000D01*
%TO.C,R8*%
X61245276Y-31977500D02*
X61754724Y-31977500D01*
X61245276Y-33022500D02*
X61754724Y-33022500D01*
%TO.C,C4*%
X50022500Y-32245276D02*
X50022500Y-32754724D01*
X48977500Y-32245276D02*
X48977500Y-32754724D01*
%TD*%
%LPC*%
D12*
%TO.C,U2*%
X40905000Y-34862500D03*
X39635000Y-34862500D03*
X38365000Y-34862500D03*
X37095000Y-34862500D03*
X37095000Y-40137500D03*
X38365000Y-40137500D03*
X39635000Y-40137500D03*
X40905000Y-40137500D03*
D13*
X39000000Y-37500000D03*
%TD*%
D14*
%TO.C,C11*%
X47912500Y-43000000D03*
X46087500Y-43000000D03*
%TD*%
D15*
%TO.C,R10*%
X51087500Y-44500000D03*
X52912500Y-44500000D03*
%TD*%
D16*
%TO.C,C9*%
X47250000Y-36587500D03*
X47250000Y-38412500D03*
%TD*%
D17*
%TO.C,J2*%
X43500000Y-31500000D03*
X43500000Y-43500000D03*
%TD*%
D15*
%TO.C,C16*%
X66087500Y-44500000D03*
X67912500Y-44500000D03*
%TD*%
D18*
%TO.C,R4*%
X43450000Y-41000000D03*
X46550000Y-41000000D03*
%TD*%
D14*
%TO.C,L1*%
X40912500Y-31500000D03*
X39087500Y-31500000D03*
%TD*%
D15*
%TO.C,R9*%
X46087500Y-44500000D03*
X47912500Y-44500000D03*
%TD*%
D16*
%TO.C,C3*%
X57500000Y-31587500D03*
X57500000Y-33412500D03*
%TD*%
%TO.C,C10*%
X35750000Y-34087500D03*
X35750000Y-35912500D03*
%TD*%
D15*
%TO.C,C15*%
X66087500Y-30500000D03*
X67912500Y-30500000D03*
%TD*%
D16*
%TO.C,C7*%
X64000000Y-30587500D03*
X64000000Y-32412500D03*
%TD*%
D15*
%TO.C,R6*%
X51087500Y-30500000D03*
X52912500Y-30500000D03*
%TD*%
D19*
%TO.C,C17*%
X65650000Y-42500000D03*
X68350000Y-42500000D03*
%TD*%
D20*
%TO.C,U4*%
X67650000Y-39800000D03*
D21*
X61350000Y-37500000D03*
D20*
X67650000Y-37500000D03*
X67650000Y-35200000D03*
%TD*%
D15*
%TO.C,R7*%
X60587500Y-30500000D03*
X62412500Y-30500000D03*
%TD*%
D22*
%TO.C,C12*%
X61400000Y-43712500D03*
X61400000Y-41887500D03*
%TD*%
D15*
%TO.C,C8*%
X46087500Y-32000000D03*
X47912500Y-32000000D03*
%TD*%
D16*
%TO.C,C2*%
X35750000Y-39087500D03*
X35750000Y-40912500D03*
%TD*%
D14*
%TO.C,L2*%
X40912500Y-43500000D03*
X39087500Y-43500000D03*
%TD*%
D19*
%TO.C,C14*%
X65650000Y-32500000D03*
X68350000Y-32500000D03*
%TD*%
D22*
%TO.C,C1*%
X49500000Y-43412500D03*
X49500000Y-41587500D03*
%TD*%
D15*
%TO.C,R5*%
X46087500Y-30500000D03*
X47912500Y-30500000D03*
%TD*%
D22*
%TO.C,C5*%
X57500000Y-43412500D03*
X57500000Y-41587500D03*
%TD*%
D23*
%TO.C,U1*%
X56250000Y-33337500D03*
X55750000Y-33337500D03*
X55250000Y-33337500D03*
X54750000Y-33337500D03*
X54250000Y-33337500D03*
X53750000Y-33337500D03*
X53250000Y-33337500D03*
X52750000Y-33337500D03*
X52250000Y-33337500D03*
X51750000Y-33337500D03*
X51250000Y-33337500D03*
X50750000Y-33337500D03*
D24*
X49337500Y-34750000D03*
X49337500Y-35250000D03*
X49337500Y-35750000D03*
X49337500Y-36250000D03*
X49337500Y-36750000D03*
X49337500Y-37250000D03*
X49337500Y-37750000D03*
X49337500Y-38250000D03*
X49337500Y-38750000D03*
X49337500Y-39250000D03*
X49337500Y-39750000D03*
X49337500Y-40250000D03*
D23*
X50750000Y-41662500D03*
X51250000Y-41662500D03*
X51750000Y-41662500D03*
X52250000Y-41662500D03*
X52750000Y-41662500D03*
X53250000Y-41662500D03*
X53750000Y-41662500D03*
X54250000Y-41662500D03*
X54750000Y-41662500D03*
X55250000Y-41662500D03*
X55750000Y-41662500D03*
X56250000Y-41662500D03*
D24*
X57662500Y-40250000D03*
X57662500Y-39750000D03*
X57662500Y-39250000D03*
X57662500Y-38750000D03*
X57662500Y-38250000D03*
X57662500Y-37750000D03*
X57662500Y-37250000D03*
X57662500Y-36750000D03*
X57662500Y-36250000D03*
X57662500Y-35750000D03*
X57662500Y-35250000D03*
X57662500Y-34750000D03*
%TD*%
D15*
%TO.C,R8*%
X60587500Y-32500000D03*
X62412500Y-32500000D03*
%TD*%
D16*
%TO.C,C4*%
X49500000Y-31587500D03*
X49500000Y-33412500D03*
%TD*%
M02*
