%TF.GenerationSoftware,KiCad,Pcbnew,(6.0.0)*%
%TF.CreationDate,2025-09-03T22:59:34+02:00*%
%TF.ProjectId,Smart Servo Control Board Rev.1,536d6172-7420-4536-9572-766f20436f6e,rev?*%
%TF.SameCoordinates,Original*%
%TF.FileFunction,Copper,L1,Top*%
%TF.FilePolarity,Positive*%
%FSLAX46Y46*%
G04 Gerber Fmt 4.6, Leading zero omitted, Abs format (unit mm)*
G04 Created by KiCad (PCBNEW (6.0.0)) date 2025-09-03 22:59:34*
%MOMM*%
%LPD*%
G01*
G04 APERTURE LIST*
G04 Aperture macros list*
%AMRoundRect*
0 Rectangle with rounded corners*
0 $1 Rounding radius*
0 $2 $3 $4 $5 $6 $7 $8 $9 X,Y pos of 4 corners*
0 Add a 4 corners polygon primitive as box body*
4,1,4,$2,$3,$4,$5,$6,$7,$8,$9,$2,$3,0*
0 Add four circle primitives for the rounded corners*
1,1,$1+$1,$2,$3*
1,1,$1+$1,$4,$5*
1,1,$1+$1,$6,$7*
1,1,$1+$1,$8,$9*
0 Add four rect primitives between the rounded corners*
20,1,$1+$1,$2,$3,$4,$5,0*
20,1,$1+$1,$4,$5,$6,$7,0*
20,1,$1+$1,$6,$7,$8,$9,0*
20,1,$1+$1,$8,$9,$2,$3,0*%
G04 Aperture macros list end*
%TA.AperFunction,SMDPad,CuDef*%
%ADD10RoundRect,0.150000X-0.150000X0.662500X-0.150000X-0.662500X0.150000X-0.662500X0.150000X0.662500X0*%
%TD*%
%TA.AperFunction,SMDPad,CuDef*%
%ADD11R,3.200000X2.514000*%
%TD*%
%TA.AperFunction,SMDPad,CuDef*%
%ADD12RoundRect,0.237500X0.250000X0.237500X-0.250000X0.237500X-0.250000X-0.237500X0.250000X-0.237500X0*%
%TD*%
%TA.AperFunction,SMDPad,CuDef*%
%ADD13RoundRect,0.237500X-0.250000X-0.237500X0.250000X-0.237500X0.250000X0.237500X-0.250000X0.237500X0*%
%TD*%
%TA.AperFunction,SMDPad,CuDef*%
%ADD14RoundRect,0.237500X-0.237500X0.250000X-0.237500X-0.250000X0.237500X-0.250000X0.237500X0.250000X0*%
%TD*%
%TA.AperFunction,ComponentPad*%
%ADD15O,4.000000X2.000000*%
%TD*%
%TA.AperFunction,SMDPad,CuDef*%
%ADD16RoundRect,0.250000X-0.400000X-0.625000X0.400000X-0.625000X0.400000X0.625000X-0.400000X0.625000X0*%
%TD*%
%TA.AperFunction,SMDPad,CuDef*%
%ADD17RoundRect,0.250000X-0.450000X-0.425000X0.450000X-0.425000X0.450000X0.425000X-0.450000X0.425000X0*%
%TD*%
%TA.AperFunction,SMDPad,CuDef*%
%ADD18R,2.000000X1.500000*%
%TD*%
%TA.AperFunction,SMDPad,CuDef*%
%ADD19R,2.000000X3.800000*%
%TD*%
%TA.AperFunction,SMDPad,CuDef*%
%ADD20RoundRect,0.237500X0.237500X-0.250000X0.237500X0.250000X-0.237500X0.250000X-0.237500X-0.250000X0*%
%TD*%
%TA.AperFunction,SMDPad,CuDef*%
%ADD21RoundRect,0.075000X-0.075000X0.662500X-0.075000X-0.662500X0.075000X-0.662500X0.075000X0.662500X0*%
%TD*%
%TA.AperFunction,SMDPad,CuDef*%
%ADD22RoundRect,0.075000X-0.662500X0.075000X-0.662500X-0.075000X0.662500X-0.075000X0.662500X0.075000X0*%
%TD*%
%TA.AperFunction,ViaPad*%
%ADD23C,0.600000*%
%TD*%
%TA.AperFunction,ViaPad*%
%ADD24C,0.800000*%
%TD*%
%TA.AperFunction,Conductor*%
%ADD25C,0.250000*%
%TD*%
%TA.AperFunction,Conductor*%
%ADD26C,0.800000*%
%TD*%
G04 APERTURE END LIST*
D10*
%TO.P,U2,1,GND*%
%TO.N,GNDD*%
X40905000Y-34862500D03*
%TO.P,U2,2,IN2*%
%TO.N,DRV2*%
X39635000Y-34862500D03*
%TO.P,U2,3,IN1*%
%TO.N,DRV1*%
X38365000Y-34862500D03*
%TO.P,U2,4,VREF*%
%TO.N,+3V3*%
X37095000Y-34862500D03*
%TO.P,U2,5,VM*%
%TO.N,+5V*%
X37095000Y-40137500D03*
%TO.P,U2,6,OUT1*%
%TO.N,HB1*%
X38365000Y-40137500D03*
%TO.P,U2,7,ISEN*%
%TO.N,ISENS*%
X39635000Y-40137500D03*
%TO.P,U2,8,OUT2*%
%TO.N,HB2*%
X40905000Y-40137500D03*
D11*
%TO.P,U2,9,GND*%
%TO.N,GNDD*%
X39000000Y-37500000D03*
%TD*%
D12*
%TO.P,C11,1*%
%TO.N,GNDD*%
X47912500Y-43000000D03*
%TO.P,C11,2*%
%TO.N,Net-(C11-Pad2)*%
X46087500Y-43000000D03*
%TD*%
D13*
%TO.P,R10,1*%
%TO.N,ADC2*%
X51087500Y-44500000D03*
%TO.P,R10,2*%
%TO.N,GNDD*%
X52912500Y-44500000D03*
%TD*%
D14*
%TO.P,C9,1*%
%TO.N,Net-(C8-Pad1)*%
X47250000Y-36587500D03*
%TO.P,C9,2*%
%TO.N,Net-(C11-Pad2)*%
X47250000Y-38412500D03*
%TD*%
D15*
%TO.P,J2,1,Pin_1*%
%TO.N,Net-(C8-Pad1)*%
X43500000Y-31500000D03*
%TO.P,J2,3,Pin_3*%
%TO.N,Net-(C11-Pad2)*%
X43500000Y-43500000D03*
%TD*%
D13*
%TO.P,C16,1*%
%TO.N,+3V3*%
X66087500Y-44500000D03*
%TO.P,C16,2*%
%TO.N,GNDD*%
X67912500Y-44500000D03*
%TD*%
D16*
%TO.P,R4,1*%
%TO.N,ISENS*%
X43450000Y-41000000D03*
%TO.P,R4,2*%
%TO.N,GNDD*%
X46550000Y-41000000D03*
%TD*%
D12*
%TO.P,L1,1,1*%
%TO.N,Net-(C8-Pad1)*%
X40912500Y-31500000D03*
%TO.P,L1,2,2*%
%TO.N,HB2*%
X39087500Y-31500000D03*
%TD*%
D13*
%TO.P,R9,1*%
%TO.N,Net-(C11-Pad2)*%
X46087500Y-44500000D03*
%TO.P,R9,2*%
%TO.N,ADC2*%
X47912500Y-44500000D03*
%TD*%
D14*
%TO.P,C3,1*%
%TO.N,GNDD*%
X57500000Y-31587500D03*
%TO.P,C3,2*%
%TO.N,+3V3*%
X57500000Y-33412500D03*
%TD*%
%TO.P,C10,1*%
%TO.N,HB2*%
X35750000Y-34087500D03*
%TO.P,C10,2*%
%TO.N,HB1*%
X35750000Y-35912500D03*
%TD*%
D13*
%TO.P,C15,1*%
%TO.N,+5V*%
X66087500Y-30500000D03*
%TO.P,C15,2*%
%TO.N,GNDD*%
X67912500Y-30500000D03*
%TD*%
D14*
%TO.P,C7,1*%
%TO.N,Net-(C7-Pad1)*%
X64000000Y-30587500D03*
%TO.P,C7,2*%
%TO.N,Net-(C7-Pad2)*%
X64000000Y-32412500D03*
%TD*%
D13*
%TO.P,R6,1*%
%TO.N,ADC1*%
X51087500Y-30500000D03*
%TO.P,R6,2*%
%TO.N,GNDD*%
X52912500Y-30500000D03*
%TD*%
D17*
%TO.P,C17,1*%
%TO.N,+3V3*%
X65650000Y-42500000D03*
%TO.P,C17,2*%
%TO.N,GNDD*%
X68350000Y-42500000D03*
%TD*%
D18*
%TO.P,U4,1,GND*%
%TO.N,GNDD*%
X67650000Y-39800000D03*
D19*
%TO.P,U4,2,VO*%
%TO.N,+3V3*%
X61350000Y-37500000D03*
D18*
X67650000Y-37500000D03*
%TO.P,U4,3,VI*%
%TO.N,+5V*%
X67650000Y-35200000D03*
%TD*%
D13*
%TO.P,R7,1*%
%TO.N,ISENS*%
X60587500Y-30500000D03*
%TO.P,R7,2*%
%TO.N,Net-(C7-Pad1)*%
X62412500Y-30500000D03*
%TD*%
D20*
%TO.P,C12,1*%
%TO.N,GNDD*%
X61400000Y-43712500D03*
%TO.P,C12,2*%
%TO.N,+3V3*%
X61400000Y-41887500D03*
%TD*%
D13*
%TO.P,C8,1*%
%TO.N,Net-(C8-Pad1)*%
X46087500Y-32000000D03*
%TO.P,C8,2*%
%TO.N,GNDD*%
X47912500Y-32000000D03*
%TD*%
D14*
%TO.P,C2,1*%
%TO.N,GNDD*%
X35750000Y-39087500D03*
%TO.P,C2,2*%
%TO.N,+5V*%
X35750000Y-40912500D03*
%TD*%
D12*
%TO.P,L2,1,1*%
%TO.N,Net-(C11-Pad2)*%
X40912500Y-43500000D03*
%TO.P,L2,2,2*%
%TO.N,HB1*%
X39087500Y-43500000D03*
%TD*%
D17*
%TO.P,C14,1*%
%TO.N,+5V*%
X65650000Y-32500000D03*
%TO.P,C14,2*%
%TO.N,GNDD*%
X68350000Y-32500000D03*
%TD*%
D20*
%TO.P,C1,1*%
%TO.N,GNDD*%
X49500000Y-43412500D03*
%TO.P,C1,2*%
%TO.N,+3V3*%
X49500000Y-41587500D03*
%TD*%
D13*
%TO.P,R5,1*%
%TO.N,Net-(C8-Pad1)*%
X46087500Y-30500000D03*
%TO.P,R5,2*%
%TO.N,ADC1*%
X47912500Y-30500000D03*
%TD*%
D20*
%TO.P,C5,1*%
%TO.N,GNDD*%
X57500000Y-43412500D03*
%TO.P,C5,2*%
%TO.N,+3V3*%
X57500000Y-41587500D03*
%TD*%
D21*
%TO.P,U1,1,VBAT*%
%TO.N,+3V3*%
X56250000Y-33337500D03*
%TO.P,U1,2,PC13*%
%TO.N,unconnected-(U1-Pad2)*%
X55750000Y-33337500D03*
%TO.P,U1,3,PC14*%
%TO.N,unconnected-(U1-Pad3)*%
X55250000Y-33337500D03*
%TO.P,U1,4,PC15*%
%TO.N,unconnected-(U1-Pad4)*%
X54750000Y-33337500D03*
%TO.P,U1,5,PD0*%
%TO.N,unconnected-(U1-Pad5)*%
X54250000Y-33337500D03*
%TO.P,U1,6,PD1*%
%TO.N,unconnected-(U1-Pad6)*%
X53750000Y-33337500D03*
%TO.P,U1,7,NRST*%
%TO.N,NRST*%
X53250000Y-33337500D03*
%TO.P,U1,8,VSSA*%
%TO.N,GNDD*%
X52750000Y-33337500D03*
%TO.P,U1,9,VDDA*%
%TO.N,+3V3*%
X52250000Y-33337500D03*
%TO.P,U1,10,PA0*%
%TO.N,DRV2*%
X51750000Y-33337500D03*
%TO.P,U1,11,PA1*%
%TO.N,DRV1*%
X51250000Y-33337500D03*
%TO.P,U1,12,PA2*%
%TO.N,ADC1*%
X50750000Y-33337500D03*
D22*
%TO.P,U1,13,PA3*%
%TO.N,ADC2*%
X49337500Y-34750000D03*
%TO.P,U1,14,PA4*%
%TO.N,unconnected-(U1-Pad14)*%
X49337500Y-35250000D03*
%TO.P,U1,15,PA5*%
%TO.N,unconnected-(U1-Pad15)*%
X49337500Y-35750000D03*
%TO.P,U1,16,PA6*%
%TO.N,unconnected-(U1-Pad16)*%
X49337500Y-36250000D03*
%TO.P,U1,17,PA7*%
%TO.N,unconnected-(U1-Pad17)*%
X49337500Y-36750000D03*
%TO.P,U1,18,PB0*%
%TO.N,unconnected-(U1-Pad18)*%
X49337500Y-37250000D03*
%TO.P,U1,19,PB1*%
%TO.N,unconnected-(U1-Pad19)*%
X49337500Y-37750000D03*
%TO.P,U1,20,PB2*%
%TO.N,GNDD*%
X49337500Y-38250000D03*
%TO.P,U1,21,PB10*%
%TO.N,SCL2*%
X49337500Y-38750000D03*
%TO.P,U1,22,PB11*%
%TO.N,SDA2*%
X49337500Y-39250000D03*
%TO.P,U1,23,VSS*%
%TO.N,GNDD*%
X49337500Y-39750000D03*
%TO.P,U1,24,VDD*%
%TO.N,+3V3*%
X49337500Y-40250000D03*
D21*
%TO.P,U1,25,PB12*%
%TO.N,unconnected-(U1-Pad25)*%
X50750000Y-41662500D03*
%TO.P,U1,26,PB13*%
%TO.N,unconnected-(U1-Pad26)*%
X51250000Y-41662500D03*
%TO.P,U1,27,PB14*%
%TO.N,unconnected-(U1-Pad27)*%
X51750000Y-41662500D03*
%TO.P,U1,28,PB15*%
%TO.N,unconnected-(U1-Pad28)*%
X52250000Y-41662500D03*
%TO.P,U1,29,PA8*%
%TO.N,unconnected-(U1-Pad29)*%
X52750000Y-41662500D03*
%TO.P,U1,30,PA9*%
%TO.N,unconnected-(U1-Pad30)*%
X53250000Y-41662500D03*
%TO.P,U1,31,PA10*%
%TO.N,unconnected-(U1-Pad31)*%
X53750000Y-41662500D03*
%TO.P,U1,32,PA11*%
%TO.N,unconnected-(U1-Pad32)*%
X54250000Y-41662500D03*
%TO.P,U1,33,PA12*%
%TO.N,unconnected-(U1-Pad33)*%
X54750000Y-41662500D03*
%TO.P,U1,34,PA13*%
%TO.N,SWDIO*%
X55250000Y-41662500D03*
%TO.P,U1,35,VSS*%
%TO.N,GNDD*%
X55750000Y-41662500D03*
%TO.P,U1,36,VDD*%
%TO.N,+3V3*%
X56250000Y-41662500D03*
D22*
%TO.P,U1,37,PA14*%
%TO.N,SWCLK*%
X57662500Y-40250000D03*
%TO.P,U1,38,PA15*%
%TO.N,unconnected-(U1-Pad38)*%
X57662500Y-39750000D03*
%TO.P,U1,39,PB3*%
%TO.N,unconnected-(U1-Pad39)*%
X57662500Y-39250000D03*
%TO.P,U1,40,PB4*%
%TO.N,unconnected-(U1-Pad40)*%
X57662500Y-38750000D03*
%TO.P,U1,41,PB5*%
%TO.N,unconnected-(U1-Pad41)*%
X57662500Y-38250000D03*
%TO.P,U1,42,PB6*%
%TO.N,SCL1*%
X57662500Y-37750000D03*
%TO.P,U1,43,PB7*%
%TO.N,SDA1*%
X57662500Y-37250000D03*
%TO.P,U1,44,BOOT0*%
%TO.N,GNDD*%
X57662500Y-36750000D03*
%TO.P,U1,45,PB8*%
%TO.N,unconnected-(U1-Pad45)*%
X57662500Y-36250000D03*
%TO.P,U1,46,PB9*%
%TO.N,unconnected-(U1-Pad46)*%
X57662500Y-35750000D03*
%TO.P,U1,47,VSS*%
%TO.N,GNDD*%
X57662500Y-35250000D03*
%TO.P,U1,48,VDD*%
%TO.N,+3V3*%
X57662500Y-34750000D03*
%TD*%
D13*
%TO.P,R8,1*%
%TO.N,GNDD*%
X60587500Y-32500000D03*
%TO.P,R8,2*%
%TO.N,Net-(C7-Pad2)*%
X62412500Y-32500000D03*
%TD*%
D14*
%TO.P,C4,1*%
%TO.N,GNDD*%
X49500000Y-31587500D03*
%TO.P,C4,2*%
%TO.N,+3V3*%
X49500000Y-33412500D03*
%TD*%
D23*
%TO.N,SCL2*%
X58500000Y-43850500D03*
%TO.N,GNDD*%
X63500000Y-44750000D03*
X64250000Y-44750000D03*
X64250000Y-44000000D03*
X63500000Y-44000000D03*
%TO.N,+3V3*%
X40000000Y-32800000D03*
%TO.N,GNDD*%
X40600000Y-37400000D03*
X39600000Y-36200000D03*
X38400000Y-38600000D03*
X37400000Y-37800000D03*
X54500000Y-38500000D03*
X54500000Y-37500000D03*
X54500000Y-36500000D03*
X57250000Y-31250000D03*
X58250000Y-31250000D03*
D24*
%TO.N,HB2*%
X37000000Y-32800000D03*
D23*
%TO.N,GNDD*%
X55250000Y-43000000D03*
X54500000Y-43000000D03*
X53750000Y-43000000D03*
%TO.N,+3V3*%
X56750000Y-41750000D03*
%TO.N,GNDD*%
X52750000Y-31500000D03*
%TO.N,DRV1*%
X38400000Y-33600000D03*
%TO.N,GNDD*%
X59250000Y-31250000D03*
X68500000Y-33750000D03*
X67500000Y-33750000D03*
D24*
%TO.N,+5V*%
X70000000Y-34500000D03*
X37000000Y-42000000D03*
X70000000Y-33000000D03*
D23*
%TO.N,+3V3*%
X63250000Y-41800000D03*
X63250000Y-38500000D03*
X63250000Y-37750000D03*
X63250000Y-37000000D03*
X63250000Y-36250000D03*
X53090498Y-35000000D03*
%TO.N,GNDD*%
X68750000Y-41250000D03*
X68000000Y-41250000D03*
X67250000Y-43500000D03*
X68750000Y-43500000D03*
X68000000Y-43500000D03*
X67250000Y-41250000D03*
X69500000Y-42500000D03*
%TO.N,+3V3*%
X57500000Y-34250000D03*
X49500000Y-40750000D03*
%TO.N,Net-(C7-Pad1)*%
X63250000Y-30500000D03*
%TO.N,Net-(C7-Pad2)*%
X64000000Y-31750000D03*
%TO.N,HB1*%
X38365000Y-41500000D03*
X35750000Y-37000000D03*
D24*
%TO.N,HB2*%
X41637500Y-40137500D03*
D23*
%TO.N,SCL1*%
X69500000Y-38750000D03*
%TO.N,SDA1*%
X69500000Y-36250000D03*
%TO.N,SWCLK*%
X56250000Y-37500000D03*
%TO.N,SWDIO*%
X53000000Y-40000000D03*
%TO.N,NRST*%
X53662500Y-31750000D03*
%TO.N,SCL2*%
X50750000Y-38750000D03*
X59750000Y-36500000D03*
%TO.N,SDA2*%
X50875500Y-39750000D03*
%TO.N,ISENS*%
X55000000Y-30500000D03*
X39750000Y-41500000D03*
%TO.N,ADC2*%
X49500000Y-44500000D03*
X47600000Y-35400000D03*
%TO.N,DRV2*%
X52200000Y-35000000D03*
X39600000Y-33600000D03*
%TO.N,DRV1*%
X50800000Y-35000000D03*
%TD*%
D25*
%TO.N,+3V3*%
X37095000Y-33905000D02*
X38200000Y-32800000D01*
X37095000Y-34862500D02*
X37095000Y-33905000D01*
X38200000Y-32800000D02*
X40000000Y-32800000D01*
%TO.N,ADC1*%
X47000000Y-31412500D02*
X47912500Y-30500000D01*
X47000000Y-33750000D02*
X47000000Y-31412500D01*
X50524520Y-34275480D02*
X47525480Y-34275480D01*
X47525480Y-34275480D02*
X47000000Y-33750000D01*
X50750000Y-34050000D02*
X50524520Y-34275480D01*
X50750000Y-33337500D02*
X50750000Y-34050000D01*
%TO.N,SCL1*%
X64000000Y-40000000D02*
X65274511Y-38725489D01*
X59000000Y-39250000D02*
X59750000Y-40000000D01*
X65274511Y-38725489D02*
X69475489Y-38725489D01*
X69475489Y-38725489D02*
X69500000Y-38750000D01*
X59000000Y-38250000D02*
X59000000Y-39250000D01*
X58500000Y-37750000D02*
X59000000Y-38250000D01*
X57662500Y-37750000D02*
X58500000Y-37750000D01*
X59750000Y-40000000D02*
X64000000Y-40000000D01*
%TO.N,+3V3*%
X52250000Y-34140006D02*
X52250000Y-33337500D01*
X53090498Y-34980504D02*
X52250000Y-34140006D01*
X53090498Y-35000000D02*
X53090498Y-34980504D01*
%TO.N,ADC2*%
X48250000Y-34750000D02*
X47600000Y-35400000D01*
%TO.N,DRV2*%
X51750000Y-34550000D02*
X51750000Y-33337500D01*
X52200000Y-35000000D02*
X51750000Y-34550000D01*
%TO.N,DRV1*%
X51250000Y-34616807D02*
X51250000Y-33337500D01*
X50866807Y-35000000D02*
X51250000Y-34616807D01*
X50800000Y-35000000D02*
X50866807Y-35000000D01*
%TO.N,Net-(C8-Pad1)*%
X47250000Y-36587500D02*
X46087500Y-35425000D01*
X46087500Y-35425000D02*
X46087500Y-32000000D01*
%TO.N,HB2*%
X35750000Y-34050000D02*
X37000000Y-32800000D01*
X35750000Y-34087500D02*
X35750000Y-34050000D01*
D26*
X38300000Y-31500000D02*
X37000000Y-32800000D01*
X39087500Y-31500000D02*
X38300000Y-31500000D01*
D25*
%TO.N,DRV1*%
X38365000Y-33635000D02*
X38365000Y-34862500D01*
X38400000Y-33600000D02*
X38365000Y-33635000D01*
%TO.N,DRV2*%
X39635000Y-33635000D02*
X39635000Y-34862500D01*
X39600000Y-33600000D02*
X39635000Y-33635000D01*
%TO.N,ADC1*%
X51087500Y-30500000D02*
X49514937Y-30500000D01*
X49514937Y-30500000D02*
X49492372Y-30477435D01*
X49469807Y-30500000D02*
X47912500Y-30500000D01*
X49492372Y-30477435D02*
X49469807Y-30500000D01*
%TO.N,ADC2*%
X49337500Y-34750000D02*
X48250000Y-34750000D01*
%TO.N,Net-(C7-Pad2)*%
X64000000Y-32412500D02*
X64000000Y-31750000D01*
%TO.N,Net-(C7-Pad1)*%
X63337500Y-30587500D02*
X64000000Y-30587500D01*
X63250000Y-30500000D02*
X63337500Y-30587500D01*
%TO.N,SWDIO*%
X54390006Y-40000000D02*
X55250000Y-40859994D01*
X53000000Y-40000000D02*
X54390006Y-40000000D01*
X55250000Y-40859994D02*
X55250000Y-41662500D01*
%TO.N,SWCLK*%
X56859994Y-40250000D02*
X57662500Y-40250000D01*
X56250000Y-37500000D02*
X56250000Y-39640006D01*
X56250000Y-39640006D02*
X56859994Y-40250000D01*
%TO.N,SCL2*%
X50750000Y-38750000D02*
X49337500Y-38750000D01*
%TO.N,SDA2*%
X50875500Y-39750000D02*
X50375500Y-39250000D01*
X50375500Y-39250000D02*
X49337500Y-39250000D01*
%TO.N,ADC2*%
X49500000Y-44500000D02*
X51087500Y-44500000D01*
%TO.N,Net-(C11-Pad2)*%
X47212500Y-38412500D02*
X47250000Y-38412500D01*
X44750000Y-40875000D02*
X47212500Y-38412500D01*
X44750000Y-43250000D02*
X44750000Y-40875000D01*
X44500000Y-43500000D02*
X44750000Y-43250000D01*
X43500000Y-43500000D02*
X44500000Y-43500000D01*
%TO.N,+3V3*%
X49500000Y-40750000D02*
X49500000Y-41587500D01*
%TO.N,GNDD*%
X56500000Y-35609994D02*
X56500000Y-36390006D01*
X56859994Y-35250000D02*
X56500000Y-35609994D01*
X57662500Y-35250000D02*
X56859994Y-35250000D01*
X56859994Y-36750000D02*
X56500000Y-36390006D01*
X57662500Y-36750000D02*
X56859994Y-36750000D01*
D26*
%TO.N,+5V*%
X69300000Y-35200000D02*
X70000000Y-34500000D01*
X67650000Y-35200000D02*
X69300000Y-35200000D01*
D25*
%TO.N,GNDD*%
X52162480Y-31662480D02*
X49587520Y-31662480D01*
X52750000Y-33337500D02*
X52750000Y-32250000D01*
X52750000Y-32250000D02*
X52162480Y-31662480D01*
X55750000Y-42750000D02*
X55750000Y-42912500D01*
X56250000Y-43412500D02*
X57500000Y-43412500D01*
X55750000Y-42912500D02*
X56250000Y-43412500D01*
X55750000Y-41662500D02*
X55750000Y-42750000D01*
%TO.N,+3V3*%
X52250000Y-32500000D02*
X52250000Y-33337500D01*
X49500000Y-33112000D02*
X50500000Y-32112000D01*
X49500000Y-33412500D02*
X49500000Y-33112000D01*
X51862000Y-32112000D02*
X52250000Y-32500000D01*
X50500000Y-32112000D02*
X51862000Y-32112000D01*
%TO.N,HB1*%
X35750000Y-35912500D02*
X35750000Y-37000000D01*
D26*
X38365000Y-41500000D02*
X38365000Y-41865000D01*
X38365000Y-41500000D02*
X38365000Y-40137500D01*
X38365000Y-41865000D02*
X39087500Y-42587500D01*
X39087500Y-42587500D02*
X39087500Y-43500000D01*
%TO.N,HB2*%
X40905000Y-40137500D02*
X41637500Y-40137500D01*
D25*
%TO.N,SDA1*%
X59000000Y-35750000D02*
X59000000Y-36750000D01*
X59750000Y-35000000D02*
X59000000Y-35750000D01*
X69475489Y-36274511D02*
X65274511Y-36274511D01*
X58500000Y-37250000D02*
X57662500Y-37250000D01*
X65274511Y-36274511D02*
X64000000Y-35000000D01*
X69500000Y-36250000D02*
X69475489Y-36274511D01*
X59000000Y-36750000D02*
X58500000Y-37250000D01*
X64000000Y-35000000D02*
X59750000Y-35000000D01*
%TO.N,NRST*%
X53250000Y-32162500D02*
X53250000Y-33337500D01*
X53662500Y-31750000D02*
X53250000Y-32162500D01*
D26*
%TO.N,ISENS*%
X39750000Y-41500000D02*
X39635000Y-41385000D01*
X42500000Y-41000000D02*
X43450000Y-41000000D01*
X41750000Y-41750000D02*
X42500000Y-41000000D01*
X39635000Y-41385000D02*
X39635000Y-40137500D01*
X39750000Y-41500000D02*
X40000000Y-41750000D01*
X40000000Y-41750000D02*
X41750000Y-41750000D01*
D25*
X60587500Y-30500000D02*
X55000000Y-30500000D01*
%TO.N,ADC2*%
X51087500Y-44500000D02*
X47912500Y-44500000D01*
%TD*%
%TA.AperFunction,Conductor*%
%TO.N,+3V3*%
G36*
X58443039Y-32519685D02*
G01*
X58488794Y-32572489D01*
X58500000Y-32624000D01*
X58500000Y-34777851D01*
X58480315Y-34844890D01*
X58427511Y-34890645D01*
X58363844Y-34901254D01*
X58358113Y-34900689D01*
X58352133Y-34899500D01*
X58346038Y-34899500D01*
X57662218Y-34899501D01*
X56972868Y-34899501D01*
X56892505Y-34915485D01*
X56892399Y-34914954D01*
X56846261Y-34922055D01*
X56842000Y-34921682D01*
X56841994Y-34921683D01*
X56831187Y-34920737D01*
X56794700Y-34930514D01*
X56784155Y-34932852D01*
X56761606Y-34936828D01*
X56692168Y-34929084D01*
X56652393Y-34902393D01*
X56065542Y-34315542D01*
X56032057Y-34254219D01*
X56037041Y-34184527D01*
X56050120Y-34158971D01*
X56077731Y-34117648D01*
X56084515Y-34107495D01*
X56100500Y-34027133D01*
X56100499Y-32647868D01*
X56099312Y-32641901D01*
X56098746Y-32636150D01*
X56111767Y-32567504D01*
X56159833Y-32516796D01*
X56222149Y-32500000D01*
X58376000Y-32500000D01*
X58443039Y-32519685D01*
G37*
%TD.AperFunction*%
%TD*%
%TA.AperFunction,Conductor*%
%TO.N,Net-(C11-Pad2)*%
G36*
X46443039Y-42519685D02*
G01*
X46488794Y-42572489D01*
X46500000Y-42624000D01*
X46500000Y-45176000D01*
X46480315Y-45243039D01*
X46427511Y-45288794D01*
X46376000Y-45300000D01*
X40124000Y-45300000D01*
X40056961Y-45280315D01*
X40011206Y-45227511D01*
X40000000Y-45176000D01*
X40000000Y-42624000D01*
X40019685Y-42556961D01*
X40072489Y-42511206D01*
X40124000Y-42500000D01*
X46376000Y-42500000D01*
X46443039Y-42519685D01*
G37*
%TD.AperFunction*%
%TD*%
%TA.AperFunction,Conductor*%
%TO.N,Net-(C7-Pad2)*%
G36*
X64443039Y-31769685D02*
G01*
X64488794Y-31822489D01*
X64500000Y-31874000D01*
X64500000Y-33126000D01*
X64480315Y-33193039D01*
X64427511Y-33238794D01*
X64376000Y-33250000D01*
X61874000Y-33250000D01*
X61806961Y-33230315D01*
X61761206Y-33177511D01*
X61750000Y-33126000D01*
X61750000Y-31874000D01*
X61769685Y-31806961D01*
X61822489Y-31761206D01*
X61874000Y-31750000D01*
X64376000Y-31750000D01*
X64443039Y-31769685D01*
G37*
%TD.AperFunction*%
%TD*%
%TA.AperFunction,Conductor*%
%TO.N,Net-(C8-Pad1)*%
G36*
X46443039Y-29719685D02*
G01*
X46488794Y-29772489D01*
X46500000Y-29824000D01*
X46500000Y-32376000D01*
X46480315Y-32443039D01*
X46427511Y-32488794D01*
X46376000Y-32500000D01*
X40459063Y-32500000D01*
X40392024Y-32480315D01*
X40365125Y-32456942D01*
X40353145Y-32443039D01*
X40332400Y-32418963D01*
X40212095Y-32340985D01*
X40088470Y-32304013D01*
X40029883Y-32265947D01*
X40001176Y-32202247D01*
X40000000Y-32185213D01*
X40000000Y-29824000D01*
X40019685Y-29756961D01*
X40072489Y-29711206D01*
X40124000Y-29700000D01*
X46376000Y-29700000D01*
X46443039Y-29719685D01*
G37*
%TD.AperFunction*%
%TD*%
%TA.AperFunction,Conductor*%
%TO.N,Net-(C7-Pad1)*%
G36*
X64443039Y-29769685D02*
G01*
X64488794Y-29822489D01*
X64500000Y-29874000D01*
X64500000Y-31126000D01*
X64480315Y-31193039D01*
X64427511Y-31238794D01*
X64376000Y-31250000D01*
X64076106Y-31250000D01*
X64074739Y-31249898D01*
X64074739Y-31249907D01*
X63938633Y-31249075D01*
X63938628Y-31249075D01*
X63931376Y-31249031D01*
X63928898Y-31249739D01*
X63925076Y-31250000D01*
X61874000Y-31250000D01*
X61806961Y-31230315D01*
X61761206Y-31177511D01*
X61750000Y-31126000D01*
X61750000Y-29874000D01*
X61769685Y-29806961D01*
X61822489Y-29761206D01*
X61874000Y-29750000D01*
X64376000Y-29750000D01*
X64443039Y-29769685D01*
G37*
%TD.AperFunction*%
%TD*%
%TA.AperFunction,Conductor*%
%TO.N,+3V3*%
G36*
X48641887Y-40099311D02*
G01*
X48647867Y-40100500D01*
X48701335Y-40100500D01*
X49876000Y-40100499D01*
X49943039Y-40120184D01*
X49988794Y-40172987D01*
X50000000Y-40224499D01*
X50000000Y-42126000D01*
X49980315Y-42193039D01*
X49927511Y-42238794D01*
X49876000Y-42250000D01*
X48624000Y-42250000D01*
X48556961Y-42230315D01*
X48511206Y-42177511D01*
X48500000Y-42126000D01*
X48500000Y-40222149D01*
X48519685Y-40155110D01*
X48572489Y-40109355D01*
X48636156Y-40098746D01*
X48641887Y-40099311D01*
G37*
%TD.AperFunction*%
%TD*%
%TA.AperFunction,Conductor*%
%TO.N,+3V3*%
G36*
X64015677Y-35519685D02*
G01*
X64036319Y-35536319D01*
X65250000Y-36750000D01*
X68626000Y-36750000D01*
X68693039Y-36769685D01*
X68738794Y-36822489D01*
X68750000Y-36874000D01*
X68750000Y-38126000D01*
X68730315Y-38193039D01*
X68677511Y-38238794D01*
X68626000Y-38250000D01*
X65250000Y-38250000D01*
X64036319Y-39463681D01*
X63974996Y-39497166D01*
X63948638Y-39500000D01*
X60374000Y-39500000D01*
X60306961Y-39480315D01*
X60261206Y-39427511D01*
X60250000Y-39376000D01*
X60250000Y-36555377D01*
X60251719Y-36534804D01*
X60254700Y-36517084D01*
X60255496Y-36512354D01*
X60255647Y-36500000D01*
X60251252Y-36469309D01*
X60250000Y-36451731D01*
X60250000Y-35624000D01*
X60269685Y-35556961D01*
X60322489Y-35511206D01*
X60374000Y-35500000D01*
X63948638Y-35500000D01*
X64015677Y-35519685D01*
G37*
%TD.AperFunction*%
%TD*%
%TA.AperFunction,Conductor*%
%TO.N,+5V*%
G36*
X66693039Y-29769685D02*
G01*
X66738794Y-29822489D01*
X66750000Y-29874000D01*
X66750000Y-34250000D01*
X67464828Y-34250000D01*
X67467102Y-34250021D01*
X67562499Y-34251770D01*
X67567437Y-34250424D01*
X67574267Y-34250000D01*
X68464828Y-34250000D01*
X68467102Y-34250021D01*
X68562499Y-34251770D01*
X68567437Y-34250424D01*
X68574267Y-34250000D01*
X68876000Y-34250000D01*
X68943039Y-34269685D01*
X68988794Y-34322489D01*
X69000000Y-34374000D01*
X69000000Y-35825011D01*
X68980315Y-35892050D01*
X68927511Y-35937805D01*
X68876000Y-35949011D01*
X65500373Y-35949011D01*
X65433334Y-35929326D01*
X65412692Y-35912692D01*
X65036319Y-35536319D01*
X65002834Y-35474996D01*
X65000000Y-35448638D01*
X65000000Y-29874000D01*
X65019685Y-29806961D01*
X65072489Y-29761206D01*
X65124000Y-29750000D01*
X66626000Y-29750000D01*
X66693039Y-29769685D01*
G37*
%TD.AperFunction*%
%TD*%
%TA.AperFunction,Conductor*%
%TO.N,+3V3*%
G36*
X66692554Y-40769952D02*
G01*
X66738554Y-40822542D01*
X66750000Y-40874578D01*
X66750000Y-41198201D01*
X66748524Y-41217278D01*
X66744391Y-41243823D01*
X66745537Y-41252585D01*
X66748953Y-41278710D01*
X66750000Y-41294788D01*
X66750000Y-43448201D01*
X66748524Y-43467278D01*
X66744391Y-43493823D01*
X66745537Y-43502585D01*
X66748953Y-43528710D01*
X66750000Y-43544788D01*
X66750000Y-45176000D01*
X66730315Y-45243039D01*
X66677511Y-45288794D01*
X66626000Y-45300000D01*
X65624000Y-45300000D01*
X65556961Y-45280315D01*
X65511206Y-45227511D01*
X65500000Y-45176000D01*
X65500000Y-43500000D01*
X65491697Y-43493542D01*
X65491695Y-43493540D01*
X64614072Y-42810945D01*
X64600000Y-42800000D01*
X58024808Y-42800000D01*
X57957769Y-42780315D01*
X57952559Y-42776723D01*
X57952222Y-42776545D01*
X57944768Y-42771039D01*
X57868902Y-42744397D01*
X57827631Y-42729903D01*
X57827629Y-42729903D01*
X57820500Y-42727399D01*
X57812979Y-42726688D01*
X57792747Y-42724775D01*
X57792737Y-42724775D01*
X57789833Y-42724500D01*
X57786902Y-42724500D01*
X57499108Y-42724501D01*
X57210168Y-42724501D01*
X57179500Y-42727399D01*
X57055232Y-42771039D01*
X57047777Y-42776545D01*
X57039582Y-42780884D01*
X57038807Y-42779420D01*
X56983240Y-42799739D01*
X56975192Y-42800000D01*
X56199500Y-42800000D01*
X56132461Y-42780315D01*
X56086706Y-42727511D01*
X56075500Y-42676000D01*
X56075500Y-42472697D01*
X56083065Y-42434665D01*
X56084515Y-42432495D01*
X56100500Y-42352133D01*
X56100499Y-40972868D01*
X56095390Y-40947181D01*
X56101619Y-40877590D01*
X56144483Y-40822413D01*
X56216430Y-40798993D01*
X66625424Y-40750579D01*
X66692554Y-40769952D01*
G37*
%TD.AperFunction*%
%TD*%
%TA.AperFunction,Conductor*%
%TO.N,+5V*%
G36*
X37693039Y-39269685D02*
G01*
X37738794Y-39322489D01*
X37750000Y-39374000D01*
X37750000Y-42376000D01*
X37730315Y-42443039D01*
X37677511Y-42488794D01*
X37626000Y-42500000D01*
X36137087Y-42500000D01*
X36092649Y-42491764D01*
X35993235Y-42453602D01*
X35993228Y-42453600D01*
X35990212Y-42452442D01*
X35666231Y-42365632D01*
X35606733Y-42356208D01*
X35338173Y-42313672D01*
X35338164Y-42313671D01*
X35334950Y-42313162D01*
X35331701Y-42312992D01*
X35331694Y-42312991D01*
X35317510Y-42312248D01*
X35251593Y-42289082D01*
X35208664Y-42233955D01*
X35200000Y-42188418D01*
X35200000Y-40324000D01*
X35219685Y-40256961D01*
X35272489Y-40211206D01*
X35324000Y-40200000D01*
X36376000Y-40200000D01*
X36402643Y-40197135D01*
X36415205Y-40195785D01*
X36415207Y-40195785D01*
X36418515Y-40195429D01*
X36447199Y-40189189D01*
X36469237Y-40184395D01*
X36469263Y-40184389D01*
X36470026Y-40184223D01*
X36471135Y-40183952D01*
X36472401Y-40183643D01*
X36472405Y-40183642D01*
X36479931Y-40181802D01*
X36558483Y-40139944D01*
X36563741Y-40135388D01*
X36609855Y-40095430D01*
X36609858Y-40095427D01*
X36611287Y-40094189D01*
X36628761Y-40077068D01*
X36636370Y-40063465D01*
X36686273Y-40014569D01*
X36715708Y-40007215D01*
X36715064Y-40005023D01*
X36732171Y-40000000D01*
X36750000Y-40000000D01*
X36750000Y-39374000D01*
X36769685Y-39306961D01*
X36822489Y-39261206D01*
X36874000Y-39250000D01*
X37626000Y-39250000D01*
X37693039Y-39269685D01*
G37*
%TD.AperFunction*%
%TD*%
%TA.AperFunction,Conductor*%
%TO.N,GNDD*%
G36*
X64555871Y-43019685D02*
G01*
X64564961Y-43026120D01*
X65252129Y-43560584D01*
X65292961Y-43617281D01*
X65300000Y-43658464D01*
X65300000Y-45176000D01*
X65280315Y-45243039D01*
X65227511Y-45288794D01*
X65176000Y-45300000D01*
X62924000Y-45300000D01*
X62856961Y-45280315D01*
X62811206Y-45227511D01*
X62800000Y-45176000D01*
X62800000Y-43124000D01*
X62819685Y-43056961D01*
X62872489Y-43011206D01*
X62924000Y-43000000D01*
X64488832Y-43000000D01*
X64555871Y-43019685D01*
G37*
%TD.AperFunction*%
%TA.AperFunction,Conductor*%
G36*
X69107730Y-39071821D02*
G01*
X69113246Y-39075499D01*
X69139374Y-39098877D01*
X69162970Y-39126948D01*
X69282313Y-39206390D01*
X69316647Y-39217117D01*
X69348447Y-39232298D01*
X69477207Y-39318138D01*
X69734723Y-39489816D01*
X69734725Y-39489817D01*
X69750000Y-39500000D01*
X71676000Y-39500000D01*
X71743039Y-39519685D01*
X71788794Y-39572489D01*
X71800000Y-39624000D01*
X71800000Y-42188418D01*
X71780315Y-42255457D01*
X71727511Y-42301212D01*
X71682490Y-42312248D01*
X71668306Y-42312991D01*
X71668299Y-42312992D01*
X71665050Y-42313162D01*
X71661836Y-42313671D01*
X71661827Y-42313672D01*
X71393267Y-42356208D01*
X71333769Y-42365632D01*
X71009788Y-42452442D01*
X71006772Y-42453600D01*
X71006765Y-42453602D01*
X70907351Y-42491764D01*
X70862913Y-42500000D01*
X70250000Y-42500000D01*
X69000000Y-43750000D01*
X69000000Y-44362913D01*
X68991764Y-44407351D01*
X68952442Y-44509788D01*
X68865632Y-44833769D01*
X68813162Y-45165050D01*
X68812992Y-45168299D01*
X68812991Y-45168306D01*
X68812248Y-45182490D01*
X68789082Y-45248407D01*
X68733955Y-45291336D01*
X68688418Y-45300000D01*
X67074000Y-45300000D01*
X67006961Y-45280315D01*
X66961206Y-45227511D01*
X66950000Y-45176000D01*
X66950000Y-43544788D01*
X66949577Y-43531792D01*
X66948530Y-43515714D01*
X66947785Y-43508097D01*
X66947775Y-43484041D01*
X66947787Y-43483920D01*
X66947928Y-43482706D01*
X66949404Y-43463629D01*
X66950000Y-43448201D01*
X66950000Y-41294788D01*
X66949577Y-41281792D01*
X66948530Y-41265714D01*
X66947785Y-41258097D01*
X66947775Y-41234041D01*
X66947787Y-41233920D01*
X66947928Y-41232706D01*
X66949404Y-41213629D01*
X66950000Y-41198201D01*
X66950000Y-40874578D01*
X66945330Y-40831613D01*
X66933884Y-40779577D01*
X66931316Y-40769223D01*
X66927622Y-40762367D01*
X66927620Y-40762363D01*
X66892396Y-40696998D01*
X66892395Y-40696997D01*
X66889092Y-40690867D01*
X66843092Y-40638277D01*
X66825891Y-40620884D01*
X66748009Y-40577794D01*
X66694345Y-40562307D01*
X66685139Y-40559650D01*
X66685134Y-40559649D01*
X66680879Y-40558421D01*
X66624494Y-40550581D01*
X64826218Y-40558945D01*
X64103370Y-40562307D01*
X64036239Y-40542934D01*
X63990239Y-40490344D01*
X63979974Y-40421232D01*
X64008703Y-40357542D01*
X64067305Y-40319495D01*
X64081261Y-40316192D01*
X64102360Y-40312472D01*
X64113045Y-40310588D01*
X64122442Y-40305163D01*
X64125900Y-40303904D01*
X64129209Y-40302361D01*
X64139684Y-40299554D01*
X64170617Y-40277894D01*
X64179743Y-40272080D01*
X64203061Y-40258618D01*
X64203063Y-40258616D01*
X64212455Y-40253194D01*
X64236738Y-40224255D01*
X64244045Y-40216281D01*
X65373018Y-39087308D01*
X65434341Y-39053823D01*
X65460699Y-39050989D01*
X69038939Y-39050989D01*
X69107730Y-39071821D01*
G37*
%TD.AperFunction*%
%TD*%
%TA.AperFunction,Conductor*%
%TO.N,GNDD*%
G36*
X41943039Y-33769685D02*
G01*
X41988794Y-33822489D01*
X42000000Y-33874000D01*
X42000000Y-35186115D01*
X41980315Y-35253154D01*
X41951745Y-35284291D01*
X41721843Y-35461660D01*
X41489842Y-35690045D01*
X41286958Y-35944648D01*
X41116131Y-36221781D01*
X40979836Y-36517429D01*
X40880046Y-36827310D01*
X40879337Y-36830973D01*
X40879336Y-36830978D01*
X40818916Y-37143264D01*
X40818206Y-37146935D01*
X40795213Y-37471675D01*
X40796623Y-37500000D01*
X40811400Y-37796824D01*
X40866532Y-38117674D01*
X40959811Y-38429577D01*
X40961302Y-38432998D01*
X40961305Y-38433006D01*
X41061824Y-38663634D01*
X41070565Y-38732955D01*
X41067965Y-38745127D01*
X41024547Y-38907949D01*
X40988254Y-38967653D01*
X40925444Y-38998258D01*
X40904734Y-39000000D01*
X36500000Y-39000000D01*
X36500000Y-39876000D01*
X36480315Y-39943039D01*
X36427511Y-39988794D01*
X36376000Y-40000000D01*
X35324000Y-40000000D01*
X35256961Y-39980315D01*
X35211206Y-39927511D01*
X35200000Y-39876000D01*
X35200000Y-37624000D01*
X35219685Y-37556961D01*
X35272489Y-37511206D01*
X35324000Y-37500000D01*
X35714828Y-37500000D01*
X35717102Y-37500021D01*
X35812499Y-37501770D01*
X35817437Y-37500424D01*
X35824267Y-37500000D01*
X36500000Y-37500000D01*
X36500000Y-36374000D01*
X36519685Y-36306961D01*
X36572489Y-36261206D01*
X36624000Y-36250000D01*
X39500000Y-36250000D01*
X39867704Y-35882296D01*
X39900736Y-35858669D01*
X39904078Y-35857028D01*
X39991855Y-35813932D01*
X40074293Y-35731350D01*
X40078792Y-35722145D01*
X40078794Y-35722143D01*
X40118412Y-35641092D01*
X40142134Y-35607866D01*
X40250000Y-35500000D01*
X40250000Y-33874000D01*
X40269685Y-33806961D01*
X40322489Y-33761206D01*
X40374000Y-33750000D01*
X41876000Y-33750000D01*
X41943039Y-33769685D01*
G37*
%TD.AperFunction*%
%TD*%
%TA.AperFunction,Conductor*%
%TO.N,GNDD*%
G36*
X53693039Y-29719685D02*
G01*
X53738794Y-29772489D01*
X53750000Y-29824000D01*
X53750000Y-31125225D01*
X53730315Y-31192264D01*
X53677511Y-31238019D01*
X53625243Y-31249223D01*
X53593876Y-31249031D01*
X53456029Y-31288428D01*
X53334780Y-31364930D01*
X53328935Y-31371548D01*
X53328933Y-31371550D01*
X53245723Y-31465768D01*
X53245721Y-31465770D01*
X53239877Y-31472388D01*
X53178947Y-31602163D01*
X53177899Y-31601671D01*
X53144154Y-31652916D01*
X53132783Y-31661478D01*
X53000000Y-31750000D01*
X53000000Y-31911287D01*
X52983388Y-31973286D01*
X52977920Y-31982757D01*
X52972106Y-31991883D01*
X52950446Y-32022816D01*
X52947639Y-32033291D01*
X52946096Y-32036600D01*
X52944838Y-32040058D01*
X52939412Y-32049455D01*
X52937528Y-32060141D01*
X52932855Y-32086643D01*
X52930517Y-32097190D01*
X52920736Y-32133693D01*
X52921682Y-32144501D01*
X52924028Y-32171319D01*
X52924500Y-32182127D01*
X52924500Y-32527303D01*
X52916935Y-32565335D01*
X52915485Y-32567505D01*
X52899500Y-32647867D01*
X52899501Y-34027132D01*
X52897455Y-34027132D01*
X52886187Y-34086590D01*
X52838128Y-34137307D01*
X52770280Y-34153990D01*
X52704182Y-34131343D01*
X52688114Y-34117794D01*
X52636819Y-34066499D01*
X52603334Y-34005176D01*
X52600500Y-33978818D01*
X52600499Y-32653958D01*
X52600499Y-32647868D01*
X52584515Y-32567505D01*
X52583065Y-32565335D01*
X52575500Y-32527303D01*
X52575500Y-32519627D01*
X52575972Y-32508819D01*
X52579264Y-32471193D01*
X52569483Y-32434690D01*
X52567145Y-32424143D01*
X52562472Y-32397641D01*
X52560588Y-32386955D01*
X52555162Y-32377558D01*
X52553904Y-32374100D01*
X52552361Y-32370791D01*
X52549554Y-32360316D01*
X52527894Y-32329383D01*
X52522080Y-32320257D01*
X52508618Y-32296939D01*
X52508616Y-32296937D01*
X52503194Y-32287545D01*
X52474255Y-32263262D01*
X52466281Y-32255955D01*
X52106050Y-31895724D01*
X52098741Y-31887749D01*
X52081427Y-31867115D01*
X52074455Y-31858806D01*
X52065063Y-31853384D01*
X52065061Y-31853382D01*
X52041743Y-31839920D01*
X52032617Y-31834106D01*
X52010568Y-31818667D01*
X52010569Y-31818667D01*
X52001684Y-31812446D01*
X51991209Y-31809639D01*
X51987900Y-31808096D01*
X51984442Y-31806838D01*
X51975045Y-31801412D01*
X51951035Y-31797179D01*
X51937857Y-31794855D01*
X51927310Y-31792517D01*
X51890807Y-31782736D01*
X51853181Y-31786028D01*
X51842373Y-31786500D01*
X50519627Y-31786500D01*
X50508819Y-31786028D01*
X50471193Y-31782736D01*
X50434690Y-31792517D01*
X50424143Y-31794855D01*
X50410965Y-31797179D01*
X50386955Y-31801412D01*
X50377558Y-31806838D01*
X50374100Y-31808096D01*
X50370791Y-31809639D01*
X50360316Y-31812446D01*
X50351431Y-31818667D01*
X50351432Y-31818667D01*
X50329383Y-31834106D01*
X50320257Y-31839920D01*
X50296939Y-31853382D01*
X50296937Y-31853384D01*
X50287545Y-31858806D01*
X50280573Y-31867115D01*
X50280572Y-31867116D01*
X50263263Y-31887744D01*
X50255955Y-31895719D01*
X49687993Y-32463681D01*
X49626670Y-32497166D01*
X49600312Y-32500000D01*
X47624000Y-32500000D01*
X47556961Y-32480315D01*
X47511206Y-32427511D01*
X47500000Y-32376000D01*
X47500000Y-31624000D01*
X47519685Y-31556961D01*
X47572489Y-31511206D01*
X47624000Y-31500000D01*
X48500000Y-31500000D01*
X48507103Y-31489346D01*
X48912856Y-30880717D01*
X48966421Y-30835856D01*
X49016030Y-30825500D01*
X49450181Y-30825500D01*
X49460988Y-30825972D01*
X49476437Y-30827324D01*
X49476439Y-30827324D01*
X49480077Y-30827642D01*
X49486130Y-30829264D01*
X49492372Y-30828718D01*
X49498614Y-30829264D01*
X49504666Y-30827642D01*
X49523758Y-30825972D01*
X49534564Y-30825500D01*
X50316277Y-30825500D01*
X50383316Y-30845185D01*
X50429071Y-30897989D01*
X50433272Y-30908413D01*
X50446039Y-30944768D01*
X50524289Y-31050711D01*
X50630232Y-31128961D01*
X50706098Y-31155603D01*
X50747369Y-31170097D01*
X50747371Y-31170097D01*
X50754500Y-31172601D01*
X50762021Y-31173312D01*
X50782253Y-31175225D01*
X50782263Y-31175225D01*
X50785167Y-31175500D01*
X50788098Y-31175500D01*
X51088431Y-31175499D01*
X51389832Y-31175499D01*
X51420500Y-31172601D01*
X51544768Y-31128961D01*
X51650711Y-31050711D01*
X51728961Y-30944768D01*
X51768243Y-30832910D01*
X51809026Y-30776184D01*
X51874007Y-30750509D01*
X51885236Y-30750000D01*
X52000000Y-30750000D01*
X52000000Y-29824000D01*
X52019685Y-29756961D01*
X52072489Y-29711206D01*
X52124000Y-29700000D01*
X53626000Y-29700000D01*
X53693039Y-29719685D01*
G37*
%TD.AperFunction*%
%TD*%
%TA.AperFunction,Conductor*%
%TO.N,GNDD*%
G36*
X59841177Y-30845185D02*
G01*
X59861819Y-30861819D01*
X59943072Y-30943072D01*
X59955134Y-30957082D01*
X60024289Y-31050711D01*
X60031741Y-31056215D01*
X60117918Y-31119866D01*
X60131928Y-31131928D01*
X61463681Y-32463681D01*
X61497166Y-32525004D01*
X61500000Y-32551362D01*
X61500000Y-34376000D01*
X61480315Y-34443039D01*
X61427511Y-34488794D01*
X61376000Y-34500000D01*
X59500000Y-34500000D01*
X58595582Y-35404418D01*
X58534259Y-35437903D01*
X58464567Y-35432919D01*
X58448481Y-35424685D01*
X58442647Y-35422269D01*
X58432495Y-35415485D01*
X58420519Y-35413103D01*
X58420517Y-35413102D01*
X58391886Y-35407407D01*
X58352133Y-35399500D01*
X58346037Y-35399500D01*
X57662161Y-35399501D01*
X56972868Y-35399501D01*
X56892505Y-35415485D01*
X56882354Y-35422268D01*
X56882351Y-35422269D01*
X56866413Y-35432919D01*
X56801376Y-35476376D01*
X56740485Y-35567505D01*
X56724500Y-35647867D01*
X56724501Y-35852132D01*
X56740485Y-35932495D01*
X56747270Y-35942650D01*
X56751370Y-35952547D01*
X56758839Y-36022017D01*
X56751370Y-36047452D01*
X56747269Y-36057352D01*
X56740485Y-36067505D01*
X56724500Y-36147867D01*
X56724501Y-36352132D01*
X56740485Y-36432495D01*
X56747268Y-36442646D01*
X56747269Y-36442649D01*
X56790073Y-36506708D01*
X56801376Y-36523624D01*
X56892505Y-36584515D01*
X56904481Y-36586897D01*
X56904483Y-36586898D01*
X56933114Y-36592593D01*
X56972867Y-36600500D01*
X56978963Y-36600500D01*
X57663009Y-36600499D01*
X58352132Y-36600499D01*
X58358099Y-36599312D01*
X58363850Y-36598746D01*
X58432496Y-36611767D01*
X58483204Y-36659833D01*
X58500000Y-36722149D01*
X58500000Y-36738312D01*
X58480315Y-36805351D01*
X58463681Y-36825993D01*
X58426493Y-36863181D01*
X58365170Y-36896666D01*
X58338812Y-36899500D01*
X57405598Y-36899501D01*
X56972868Y-36899501D01*
X56892505Y-36915485D01*
X56882354Y-36922268D01*
X56882351Y-36922269D01*
X56801376Y-36976376D01*
X56799455Y-36973501D01*
X56756117Y-36997166D01*
X56729759Y-37000000D01*
X56326106Y-37000000D01*
X56324739Y-36999898D01*
X56324739Y-36999907D01*
X56188633Y-36999075D01*
X56188628Y-36999075D01*
X56181376Y-36999031D01*
X56178898Y-36999739D01*
X56175076Y-37000000D01*
X56124000Y-37000000D01*
X56056961Y-36980315D01*
X56011206Y-36927511D01*
X56000000Y-36876000D01*
X56000000Y-34832204D01*
X56019685Y-34765165D01*
X56072489Y-34719410D01*
X56141647Y-34709466D01*
X56205203Y-34738491D01*
X56211681Y-34744523D01*
X56510972Y-35043814D01*
X56540950Y-35068466D01*
X56543454Y-35070147D01*
X56543459Y-35070150D01*
X56574537Y-35091005D01*
X56574540Y-35091006D01*
X56580725Y-35095157D01*
X56587718Y-35097718D01*
X56587722Y-35097720D01*
X56625741Y-35111643D01*
X56670001Y-35127852D01*
X56716341Y-35133020D01*
X56735044Y-35135106D01*
X56735046Y-35135106D01*
X56739439Y-35135596D01*
X56743853Y-35135456D01*
X56743856Y-35135456D01*
X56791909Y-35133931D01*
X56791916Y-35133930D01*
X56796336Y-35133790D01*
X56818885Y-35129814D01*
X56827447Y-35128110D01*
X56828750Y-35127821D01*
X56837339Y-35125917D01*
X56837357Y-35125913D01*
X56837992Y-35125772D01*
X56846465Y-35123699D01*
X56846661Y-35123646D01*
X56869277Y-35120418D01*
X56869256Y-35120194D01*
X56872960Y-35119850D01*
X56876684Y-35119728D01*
X56922822Y-35112627D01*
X56922950Y-35113457D01*
X56929906Y-35111598D01*
X56931520Y-35111643D01*
X56975568Y-35102882D01*
X56999757Y-35100500D01*
X57898388Y-35100499D01*
X58352132Y-35100499D01*
X58352132Y-35101381D01*
X58355066Y-35101937D01*
X58354999Y-35099929D01*
X58392635Y-35098671D01*
X58392643Y-35098670D01*
X58396717Y-35098534D01*
X58400742Y-35097863D01*
X58400745Y-35097863D01*
X58441900Y-35091005D01*
X58460384Y-35087925D01*
X58479931Y-35083653D01*
X58505271Y-35070150D01*
X58552341Y-35045068D01*
X58552342Y-35045067D01*
X58558483Y-35041795D01*
X58611287Y-34996040D01*
X58628761Y-34978919D01*
X58672213Y-34901238D01*
X58691898Y-34834199D01*
X58700000Y-34777851D01*
X58700000Y-32624000D01*
X58695429Y-32581485D01*
X58684223Y-32529974D01*
X58683952Y-32528865D01*
X58683643Y-32527599D01*
X58683642Y-32527595D01*
X58681802Y-32520069D01*
X58639944Y-32441517D01*
X58594189Y-32388713D01*
X58577068Y-32371239D01*
X58499387Y-32327787D01*
X58492713Y-32325827D01*
X58492710Y-32325826D01*
X58462612Y-32316989D01*
X58432348Y-32308102D01*
X58376000Y-32300000D01*
X56222149Y-32300000D01*
X56170101Y-32306891D01*
X56156270Y-32310619D01*
X56086419Y-32309060D01*
X56028498Y-32269983D01*
X56000899Y-32205796D01*
X56000000Y-32190892D01*
X56000000Y-30949500D01*
X56019685Y-30882461D01*
X56072489Y-30836706D01*
X56124000Y-30825500D01*
X59774138Y-30825500D01*
X59841177Y-30845185D01*
G37*
%TD.AperFunction*%
%TD*%
%TA.AperFunction,Conductor*%
%TO.N,GNDD*%
G36*
X68755457Y-29719685D02*
G01*
X68801212Y-29772489D01*
X68812248Y-29817510D01*
X68812256Y-29817652D01*
X68813162Y-29834950D01*
X68865632Y-30166231D01*
X68952442Y-30490212D01*
X68953600Y-30493228D01*
X68953602Y-30493235D01*
X68991764Y-30592649D01*
X69000000Y-30637087D01*
X69000000Y-33926000D01*
X68980315Y-33993039D01*
X68927511Y-34038794D01*
X68876000Y-34050000D01*
X68574267Y-34050000D01*
X68573372Y-34050028D01*
X68573355Y-34050028D01*
X68562831Y-34050354D01*
X68562807Y-34050355D01*
X68561875Y-34050384D01*
X68555045Y-34050808D01*
X68555041Y-34050750D01*
X68542114Y-34051363D01*
X68528308Y-34051110D01*
X68470794Y-34050055D01*
X68470768Y-34050055D01*
X68469622Y-34050039D01*
X68469038Y-34050031D01*
X68468998Y-34050031D01*
X68468949Y-34050030D01*
X68466675Y-34050009D01*
X68466624Y-34050009D01*
X68466550Y-34050008D01*
X68465831Y-34050005D01*
X68464828Y-34050000D01*
X67574267Y-34050000D01*
X67573372Y-34050028D01*
X67573355Y-34050028D01*
X67562831Y-34050354D01*
X67562807Y-34050355D01*
X67561875Y-34050384D01*
X67555045Y-34050808D01*
X67555041Y-34050750D01*
X67542114Y-34051363D01*
X67528308Y-34051110D01*
X67470794Y-34050055D01*
X67470768Y-34050055D01*
X67469622Y-34050039D01*
X67469038Y-34050031D01*
X67468998Y-34050031D01*
X67468949Y-34050030D01*
X67466675Y-34050009D01*
X67466624Y-34050009D01*
X67466550Y-34050008D01*
X67465831Y-34050005D01*
X67464828Y-34050000D01*
X67074000Y-34050000D01*
X67006961Y-34030315D01*
X66961206Y-33977511D01*
X66950000Y-33926000D01*
X66950000Y-29874000D01*
X66946049Y-29837255D01*
X66958453Y-29768497D01*
X67006063Y-29717359D01*
X67069338Y-29700000D01*
X68688418Y-29700000D01*
X68755457Y-29719685D01*
G37*
%TD.AperFunction*%
%TD*%
%TA.AperFunction,Conductor*%
%TO.N,GNDD*%
G36*
X48471798Y-38019685D02*
G01*
X48476015Y-38023083D01*
X48476376Y-38023624D01*
X48567505Y-38084515D01*
X48579481Y-38086897D01*
X48579483Y-38086898D01*
X48604506Y-38091875D01*
X48647867Y-38100500D01*
X48653963Y-38100500D01*
X49337839Y-38100499D01*
X50027132Y-38100499D01*
X50053352Y-38095284D01*
X50101811Y-38085646D01*
X50171403Y-38091875D01*
X50226579Y-38134739D01*
X50250000Y-38207264D01*
X50250000Y-38292737D01*
X50230315Y-38359776D01*
X50177511Y-38405531D01*
X50101809Y-38414354D01*
X50027133Y-38399500D01*
X50021037Y-38399500D01*
X49337161Y-38399501D01*
X48647868Y-38399501D01*
X48567505Y-38415485D01*
X48557354Y-38422268D01*
X48557351Y-38422269D01*
X48493292Y-38465073D01*
X48476376Y-38476376D01*
X48415485Y-38567505D01*
X48399500Y-38647867D01*
X48399500Y-38653963D01*
X48399501Y-38750050D01*
X48399501Y-38852132D01*
X48415485Y-38932495D01*
X48422270Y-38942650D01*
X48426370Y-38952547D01*
X48433839Y-39022017D01*
X48426370Y-39047452D01*
X48422269Y-39057352D01*
X48415485Y-39067505D01*
X48413103Y-39079481D01*
X48413102Y-39079483D01*
X48408922Y-39100499D01*
X48399500Y-39147867D01*
X48399501Y-39352132D01*
X48415485Y-39432495D01*
X48422268Y-39442646D01*
X48422269Y-39442649D01*
X48455150Y-39491858D01*
X48476376Y-39523624D01*
X48567505Y-39584515D01*
X48579481Y-39586897D01*
X48579483Y-39586898D01*
X48604506Y-39591875D01*
X48647867Y-39600500D01*
X48653963Y-39600500D01*
X49337839Y-39600499D01*
X50027132Y-39600499D01*
X50052544Y-39595445D01*
X50101811Y-39585646D01*
X50171403Y-39591875D01*
X50226579Y-39634739D01*
X50250000Y-39707264D01*
X50250000Y-39792737D01*
X50230315Y-39859776D01*
X50177511Y-39905531D01*
X50101809Y-39914354D01*
X50027133Y-39899500D01*
X50021037Y-39899500D01*
X49336821Y-39899501D01*
X48647868Y-39899501D01*
X48647868Y-39898619D01*
X48644934Y-39898063D01*
X48645001Y-39900071D01*
X48607365Y-39901329D01*
X48607357Y-39901330D01*
X48603283Y-39901466D01*
X48599258Y-39902137D01*
X48599255Y-39902137D01*
X48562585Y-39908248D01*
X48539616Y-39912075D01*
X48520069Y-39916347D01*
X48441517Y-39958205D01*
X48436260Y-39962761D01*
X48436259Y-39962761D01*
X48420547Y-39976376D01*
X48388713Y-40003960D01*
X48371239Y-40021081D01*
X48327787Y-40098762D01*
X48325827Y-40105436D01*
X48325826Y-40105439D01*
X48316989Y-40135537D01*
X48308102Y-40165801D01*
X48300000Y-40222149D01*
X48300000Y-42126000D01*
X48304571Y-42168515D01*
X48310366Y-42195151D01*
X48313445Y-42209305D01*
X48315777Y-42220026D01*
X48315969Y-42220811D01*
X48316357Y-42222401D01*
X48316358Y-42222405D01*
X48318198Y-42229931D01*
X48360056Y-42308483D01*
X48364612Y-42313740D01*
X48364612Y-42313741D01*
X48369452Y-42319326D01*
X48405811Y-42361287D01*
X48422932Y-42378761D01*
X48500613Y-42422213D01*
X48507287Y-42424173D01*
X48507290Y-42424174D01*
X48520852Y-42428156D01*
X48567652Y-42441898D01*
X48624000Y-42450000D01*
X49876000Y-42450000D01*
X49902643Y-42447135D01*
X49915205Y-42445785D01*
X49915207Y-42445785D01*
X49918515Y-42445429D01*
X49947199Y-42439189D01*
X49969237Y-42434395D01*
X49969263Y-42434389D01*
X49970026Y-42434223D01*
X49971135Y-42433952D01*
X49972401Y-42433643D01*
X49972405Y-42433642D01*
X49979931Y-42431802D01*
X50058483Y-42389944D01*
X50095218Y-42358113D01*
X50109855Y-42345430D01*
X50109858Y-42345427D01*
X50111287Y-42344189D01*
X50128761Y-42327068D01*
X50167281Y-42258204D01*
X50217188Y-42209305D01*
X50285609Y-42195151D01*
X50350821Y-42220234D01*
X50392119Y-42276592D01*
X50399501Y-42318738D01*
X50399501Y-42352132D01*
X50415485Y-42432495D01*
X50422268Y-42442646D01*
X50422269Y-42442649D01*
X50440320Y-42469663D01*
X50476376Y-42523624D01*
X50567505Y-42584515D01*
X50579481Y-42586897D01*
X50579483Y-42586898D01*
X50615204Y-42594003D01*
X50647867Y-42600500D01*
X50653963Y-42600500D01*
X50750050Y-42600499D01*
X50852132Y-42600499D01*
X50884792Y-42594003D01*
X50920516Y-42586898D01*
X50920518Y-42586897D01*
X50932495Y-42584515D01*
X50942650Y-42577730D01*
X50952547Y-42573630D01*
X51022017Y-42566161D01*
X51047452Y-42573630D01*
X51057352Y-42577731D01*
X51067505Y-42584515D01*
X51079481Y-42586897D01*
X51079483Y-42586898D01*
X51115204Y-42594003D01*
X51147867Y-42600500D01*
X51153963Y-42600500D01*
X51250050Y-42600499D01*
X51352132Y-42600499D01*
X51384792Y-42594003D01*
X51420516Y-42586898D01*
X51420518Y-42586897D01*
X51432495Y-42584515D01*
X51442650Y-42577730D01*
X51452547Y-42573630D01*
X51522017Y-42566161D01*
X51547452Y-42573630D01*
X51557352Y-42577731D01*
X51567505Y-42584515D01*
X51579481Y-42586897D01*
X51579483Y-42586898D01*
X51615204Y-42594003D01*
X51647867Y-42600500D01*
X51653963Y-42600500D01*
X51750050Y-42600499D01*
X51852132Y-42600499D01*
X51884792Y-42594003D01*
X51920516Y-42586898D01*
X51920518Y-42586897D01*
X51932495Y-42584515D01*
X51942650Y-42577730D01*
X51952547Y-42573630D01*
X52022017Y-42566161D01*
X52047452Y-42573630D01*
X52057352Y-42577731D01*
X52067505Y-42584515D01*
X52079481Y-42586897D01*
X52079483Y-42586898D01*
X52115204Y-42594003D01*
X52147867Y-42600500D01*
X52153963Y-42600500D01*
X52250050Y-42600499D01*
X52352132Y-42600499D01*
X52384792Y-42594003D01*
X52420516Y-42586898D01*
X52420518Y-42586897D01*
X52432495Y-42584515D01*
X52442650Y-42577730D01*
X52452547Y-42573630D01*
X52522017Y-42566161D01*
X52547452Y-42573630D01*
X52557352Y-42577731D01*
X52567505Y-42584515D01*
X52579481Y-42586897D01*
X52579483Y-42586898D01*
X52615204Y-42594003D01*
X52647867Y-42600500D01*
X52653963Y-42600500D01*
X52750050Y-42600499D01*
X52852132Y-42600499D01*
X52884792Y-42594003D01*
X52920516Y-42586898D01*
X52920518Y-42586897D01*
X52932495Y-42584515D01*
X52942650Y-42577730D01*
X52952547Y-42573630D01*
X53022017Y-42566161D01*
X53047452Y-42573630D01*
X53057352Y-42577731D01*
X53067505Y-42584515D01*
X53079481Y-42586897D01*
X53079483Y-42586898D01*
X53115204Y-42594003D01*
X53147867Y-42600500D01*
X53153963Y-42600500D01*
X53250050Y-42600499D01*
X53352132Y-42600499D01*
X53384792Y-42594003D01*
X53420516Y-42586898D01*
X53420518Y-42586897D01*
X53432495Y-42584515D01*
X53442650Y-42577730D01*
X53452547Y-42573630D01*
X53522017Y-42566161D01*
X53547452Y-42573630D01*
X53557352Y-42577731D01*
X53567505Y-42584515D01*
X53579481Y-42586897D01*
X53579483Y-42586898D01*
X53615204Y-42594003D01*
X53647867Y-42600500D01*
X53653963Y-42600500D01*
X53750050Y-42600499D01*
X53852132Y-42600499D01*
X53884792Y-42594003D01*
X53920516Y-42586898D01*
X53920518Y-42586897D01*
X53932495Y-42584515D01*
X53942650Y-42577730D01*
X53952547Y-42573630D01*
X54022017Y-42566161D01*
X54047452Y-42573630D01*
X54057352Y-42577731D01*
X54067505Y-42584515D01*
X54079481Y-42586897D01*
X54079483Y-42586898D01*
X54115204Y-42594003D01*
X54147867Y-42600500D01*
X54153963Y-42600500D01*
X54250050Y-42600499D01*
X54352132Y-42600499D01*
X54384792Y-42594003D01*
X54420516Y-42586898D01*
X54420518Y-42586897D01*
X54432495Y-42584515D01*
X54442650Y-42577730D01*
X54452547Y-42573630D01*
X54522017Y-42566161D01*
X54547452Y-42573630D01*
X54557352Y-42577731D01*
X54567505Y-42584515D01*
X54579481Y-42586897D01*
X54579483Y-42586898D01*
X54615204Y-42594003D01*
X54647867Y-42600500D01*
X54653963Y-42600500D01*
X54750050Y-42600499D01*
X54852132Y-42600499D01*
X54884792Y-42594003D01*
X54920516Y-42586898D01*
X54920518Y-42586897D01*
X54932495Y-42584515D01*
X54942650Y-42577730D01*
X54952547Y-42573630D01*
X55022017Y-42566161D01*
X55047452Y-42573630D01*
X55057352Y-42577731D01*
X55067505Y-42584515D01*
X55079481Y-42586897D01*
X55079483Y-42586898D01*
X55115204Y-42594003D01*
X55147867Y-42600500D01*
X55153963Y-42600500D01*
X55250050Y-42600499D01*
X55352132Y-42600499D01*
X55432495Y-42584515D01*
X55442646Y-42577732D01*
X55442649Y-42577731D01*
X55513471Y-42530408D01*
X55523624Y-42523624D01*
X55584515Y-42432495D01*
X55586897Y-42420519D01*
X55586898Y-42420517D01*
X55595203Y-42378761D01*
X55600500Y-42352133D01*
X55600499Y-40972868D01*
X55599312Y-40966899D01*
X55599311Y-40966891D01*
X55595102Y-40945732D01*
X55601329Y-40876140D01*
X55644193Y-40820963D01*
X55710082Y-40797719D01*
X55717795Y-40797546D01*
X55773691Y-40798032D01*
X55840557Y-40818298D01*
X55885851Y-40871498D01*
X55896593Y-40924239D01*
X55896580Y-40924944D01*
X55896186Y-40929351D01*
X55896423Y-40933773D01*
X55899232Y-40986196D01*
X55899041Y-40986206D01*
X55899500Y-40993548D01*
X55899501Y-42325245D01*
X55897120Y-42349429D01*
X55889862Y-42385915D01*
X55888213Y-42392495D01*
X55886908Y-42395647D01*
X55885720Y-42401617D01*
X55885719Y-42401622D01*
X55879937Y-42430692D01*
X55879343Y-42433679D01*
X55875500Y-42472697D01*
X55875500Y-42676000D01*
X55876686Y-42687027D01*
X55879174Y-42710168D01*
X55880071Y-42718515D01*
X55891277Y-42770026D01*
X55891469Y-42770811D01*
X55891857Y-42772401D01*
X55891858Y-42772405D01*
X55893698Y-42779931D01*
X55935556Y-42858483D01*
X55981311Y-42911287D01*
X55998432Y-42928761D01*
X56076113Y-42972213D01*
X56082787Y-42974173D01*
X56082790Y-42974174D01*
X56112888Y-42983011D01*
X56143152Y-42991898D01*
X56199500Y-43000000D01*
X56975192Y-43000000D01*
X56981675Y-42999895D01*
X56983734Y-42999828D01*
X56984795Y-42999794D01*
X56984797Y-42999794D01*
X56989723Y-42999634D01*
X56994566Y-42998695D01*
X56994567Y-42998695D01*
X57047076Y-42988515D01*
X57047075Y-42988515D01*
X57051925Y-42987575D01*
X57107492Y-42967256D01*
X57107651Y-42967691D01*
X57122620Y-42960472D01*
X57126440Y-42959445D01*
X57133167Y-42957637D01*
X57139323Y-42954378D01*
X57145800Y-42951830D01*
X57145802Y-42951836D01*
X57153089Y-42948648D01*
X57201902Y-42931506D01*
X57242988Y-42924501D01*
X57499108Y-42924501D01*
X57757008Y-42924500D01*
X57798095Y-42931505D01*
X57802632Y-42933098D01*
X57802635Y-42933100D01*
X57846909Y-42948648D01*
X57856779Y-42952114D01*
X57855951Y-42954472D01*
X57858795Y-42954980D01*
X57859470Y-42953059D01*
X57859891Y-42953207D01*
X57868320Y-42956685D01*
X57869131Y-42956830D01*
X57871684Y-42958046D01*
X57871739Y-42958096D01*
X57872099Y-42958244D01*
X57896968Y-42970092D01*
X57896973Y-42970094D01*
X57901421Y-42972213D01*
X57968460Y-42991898D01*
X58024808Y-43000000D01*
X64488832Y-43000000D01*
X64555871Y-43019685D01*
X64564959Y-43026119D01*
X64907767Y-43292747D01*
X65252129Y-43560584D01*
X65292961Y-43617281D01*
X65300000Y-43658464D01*
X65300000Y-45176000D01*
X65280315Y-45243039D01*
X65227511Y-45288794D01*
X65176000Y-45300000D01*
X52124000Y-45300000D01*
X52056961Y-45280315D01*
X52011206Y-45227511D01*
X52000000Y-45176000D01*
X52000000Y-44000000D01*
X51750735Y-44000000D01*
X51683696Y-43980315D01*
X51664115Y-43961955D01*
X51662771Y-43963299D01*
X51656220Y-43956748D01*
X51650711Y-43949289D01*
X51544768Y-43871039D01*
X51468692Y-43844323D01*
X57994391Y-43844323D01*
X57995537Y-43853085D01*
X58007397Y-43943781D01*
X58012980Y-43986479D01*
X58070720Y-44117703D01*
X58162970Y-44227448D01*
X58282313Y-44306890D01*
X58378809Y-44337037D01*
X58410722Y-44347007D01*
X58410723Y-44347007D01*
X58419157Y-44349642D01*
X58427992Y-44349804D01*
X58447799Y-44350167D01*
X58562499Y-44352270D01*
X58571015Y-44349948D01*
X58571017Y-44349948D01*
X58692298Y-44316883D01*
X58692301Y-44316882D01*
X58700817Y-44314560D01*
X58822991Y-44239545D01*
X58849583Y-44210167D01*
X58913272Y-44139803D01*
X58919200Y-44133254D01*
X58981710Y-44004233D01*
X59005496Y-43862854D01*
X59005647Y-43850500D01*
X59004763Y-43844323D01*
X58986575Y-43717324D01*
X58985323Y-43708582D01*
X58925984Y-43578072D01*
X58910916Y-43560584D01*
X58886106Y-43531792D01*
X58832400Y-43469463D01*
X58712095Y-43391485D01*
X58574739Y-43350407D01*
X58565905Y-43350353D01*
X58477357Y-43349812D01*
X58431376Y-43349531D01*
X58293529Y-43388928D01*
X58172280Y-43465430D01*
X58166435Y-43472048D01*
X58166433Y-43472050D01*
X58083223Y-43566268D01*
X58083221Y-43566270D01*
X58077377Y-43572888D01*
X58016447Y-43702663D01*
X58015088Y-43711388D01*
X58015088Y-43711390D01*
X57997026Y-43827399D01*
X57994391Y-43844323D01*
X51468692Y-43844323D01*
X51443833Y-43835593D01*
X51427631Y-43829903D01*
X51427629Y-43829903D01*
X51420500Y-43827399D01*
X51412979Y-43826688D01*
X51392747Y-43824775D01*
X51392737Y-43824775D01*
X51389833Y-43824500D01*
X51386902Y-43824500D01*
X51086569Y-43824501D01*
X50785168Y-43824501D01*
X50754500Y-43827399D01*
X50630232Y-43871039D01*
X50524289Y-43949289D01*
X50518780Y-43956748D01*
X50512229Y-43963299D01*
X50509553Y-43960623D01*
X50468425Y-43991870D01*
X50424265Y-44000000D01*
X49576106Y-44000000D01*
X49574739Y-43999898D01*
X49574739Y-43999907D01*
X49438633Y-43999075D01*
X49438628Y-43999075D01*
X49431376Y-43999031D01*
X49428898Y-43999739D01*
X49425076Y-44000000D01*
X48575735Y-44000000D01*
X48508696Y-43980315D01*
X48489115Y-43961955D01*
X48487771Y-43963299D01*
X48481220Y-43956748D01*
X48475711Y-43949289D01*
X48369768Y-43871039D01*
X48268833Y-43835593D01*
X48252631Y-43829903D01*
X48252629Y-43829903D01*
X48245500Y-43827399D01*
X48237979Y-43826688D01*
X48217747Y-43824775D01*
X48217737Y-43824775D01*
X48214833Y-43824500D01*
X48211902Y-43824500D01*
X47911569Y-43824501D01*
X47610168Y-43824501D01*
X47579500Y-43827399D01*
X47455232Y-43871039D01*
X47349289Y-43949289D01*
X47343780Y-43956748D01*
X47337229Y-43963299D01*
X47334553Y-43960623D01*
X47293425Y-43991870D01*
X47249265Y-44000000D01*
X46874000Y-44000000D01*
X46806961Y-43980315D01*
X46761206Y-43927511D01*
X46750000Y-43876000D01*
X46750000Y-43405997D01*
X46757003Y-43364916D01*
X46772601Y-43320500D01*
X46775500Y-43289833D01*
X46775500Y-43000000D01*
X46775499Y-42713081D01*
X46775499Y-42710168D01*
X46772601Y-42679500D01*
X46757003Y-42635084D01*
X46750000Y-42594003D01*
X46750000Y-42250000D01*
X45874000Y-42250000D01*
X45806961Y-42230315D01*
X45761206Y-42177511D01*
X45750000Y-42126000D01*
X45750000Y-40386688D01*
X45769685Y-40319649D01*
X45786319Y-40299007D01*
X46948507Y-39136819D01*
X47009830Y-39103334D01*
X47036188Y-39100500D01*
X47510044Y-39100499D01*
X47539832Y-39100499D01*
X47570500Y-39097601D01*
X47694768Y-39053961D01*
X47800711Y-38975711D01*
X47878961Y-38869768D01*
X47922601Y-38745500D01*
X47925500Y-38714833D01*
X47925499Y-38124000D01*
X47945183Y-38056961D01*
X47997987Y-38011206D01*
X48049499Y-38000000D01*
X48404759Y-38000000D01*
X48471798Y-38019685D01*
G37*
%TD.AperFunction*%
%TD*%
M02*
