%FSLAX45Y45*%
G04 Gerber Fmt 4.5, Leading zero omitted, Abs format (unit mm)*
G04 Created by KiCad (PCBNEW (6.0.0)) date 2025-09-03 23:00:23*
%MOMM*%
%LPD*%
G01*
G04 APERTURE LIST*
%TA.AperFunction,Profile*%
%ADD10C,0.100000*%
%TD*%
%ADD11C,0.200000*%
G04 APERTURE END LIST*
D10*
X6900000Y-2950000D02*
G75*
G03*
X7200000Y-3250000I300000J0D01*
G01*
X3800000Y-4550000D02*
G75*
G03*
X3500000Y-4250000I-300000J0D01*
G01*
X3500000Y-4250000D02*
X3500000Y-3250000D01*
X3800000Y-2950000D02*
X6900000Y-2950000D01*
X7200000Y-4250000D02*
G75*
G03*
X6900000Y-4550000I0J-300000D01*
G01*
X7200000Y-3250000D02*
X7200000Y-4250000D01*
X6900000Y-4550000D02*
X3800000Y-4550000D01*
X3500000Y-3250000D02*
G75*
G03*
X3800000Y-2950000I0J300000D01*
G01*
D11*
X3752619Y-4865476D02*
X3752619Y-4665476D01*
X3800238Y-4665476D01*
X3828809Y-4675000D01*
X3847857Y-4694048D01*
X3857381Y-4713095D01*
X3866905Y-4751190D01*
X3866905Y-4779762D01*
X3857381Y-4817857D01*
X3847857Y-4836905D01*
X3828809Y-4855952D01*
X3800238Y-4865476D01*
X3752619Y-4865476D01*
X3952619Y-4865476D02*
X3952619Y-4732143D01*
X3952619Y-4770238D02*
X3962143Y-4751190D01*
X3971667Y-4741667D01*
X3990714Y-4732143D01*
X4009762Y-4732143D01*
X4076428Y-4865476D02*
X4076428Y-4732143D01*
X4076428Y-4665476D02*
X4066905Y-4675000D01*
X4076428Y-4684524D01*
X4085952Y-4675000D01*
X4076428Y-4665476D01*
X4076428Y-4684524D01*
X4200238Y-4865476D02*
X4181190Y-4855952D01*
X4171667Y-4836905D01*
X4171667Y-4665476D01*
X4305000Y-4865476D02*
X4285952Y-4855952D01*
X4276429Y-4836905D01*
X4276429Y-4665476D01*
X4533571Y-4865476D02*
X4533571Y-4665476D01*
X4600238Y-4808333D01*
X4666905Y-4665476D01*
X4666905Y-4865476D01*
X4847857Y-4865476D02*
X4847857Y-4760714D01*
X4838333Y-4741667D01*
X4819286Y-4732143D01*
X4781190Y-4732143D01*
X4762143Y-4741667D01*
X4847857Y-4855952D02*
X4828810Y-4865476D01*
X4781190Y-4865476D01*
X4762143Y-4855952D01*
X4752619Y-4836905D01*
X4752619Y-4817857D01*
X4762143Y-4798810D01*
X4781190Y-4789286D01*
X4828810Y-4789286D01*
X4847857Y-4779762D01*
X4943095Y-4732143D02*
X4943095Y-4932143D01*
X4943095Y-4741667D02*
X4962143Y-4732143D01*
X5000238Y-4732143D01*
X5019286Y-4741667D01*
X5028810Y-4751190D01*
X5038333Y-4770238D01*
X5038333Y-4827381D01*
X5028810Y-4846429D01*
X5019286Y-4855952D01*
X5000238Y-4865476D01*
X4962143Y-4865476D01*
X4943095Y-4855952D01*
X5124048Y-4846429D02*
X5133571Y-4855952D01*
X5124048Y-4865476D01*
X5114524Y-4855952D01*
X5124048Y-4846429D01*
X5124048Y-4865476D01*
X5124048Y-4741667D02*
X5133571Y-4751190D01*
X5124048Y-4760714D01*
X5114524Y-4751190D01*
X5124048Y-4741667D01*
X5124048Y-4760714D01*
M02*
