%FSLAX45Y45*%
G04 Gerber Fmt 4.5, Leading zero omitted, Abs format (unit mm)*
G04 Created by KiCad (PCBNEW (6.0.0)) date 2025-09-03 23:00:23*
%MOMM*%
%LPD*%
G01*
G04 APERTURE LIST*
%TA.AperFunction,Profile*%
%ADD10C,0.100000*%
%TD*%
%ADD11C,0.200000*%
%ADD12C,0.030000*%
%ADD13C,0.040000*%
%ADD14C,0.100000*%
G04 APERTURE END LIST*
D10*
X6900000Y-2950000D02*
G75*
G03*
X7200000Y-3250000I300000J0D01*
G01*
X3800000Y-4550000D02*
G75*
G03*
X3500000Y-4250000I-300000J0D01*
G01*
X3500000Y-4250000D02*
X3500000Y-3250000D01*
X3800000Y-2950000D02*
X6900000Y-2950000D01*
X7200000Y-4250000D02*
G75*
G03*
X6900000Y-4550000I0J-300000D01*
G01*
X7200000Y-3250000D02*
X7200000Y-4250000D01*
X6900000Y-4550000D02*
X3800000Y-4550000D01*
X3500000Y-3250000D02*
G75*
G03*
X3800000Y-2950000I0J300000D01*
G01*
D11*
D12*
X3560000Y-3685000D02*
X3590000Y-3715000D01*
X3590000Y-3685000D02*
X3560000Y-3715000D01*
X3725000Y-3765000D02*
X3755000Y-3795000D01*
X3755000Y-3765000D02*
X3725000Y-3795000D01*
X3821500Y-4135000D02*
X3851500Y-4165000D01*
X3851500Y-4135000D02*
X3821500Y-4165000D01*
X3825000Y-3345000D02*
X3855000Y-3375000D01*
X3855000Y-3345000D02*
X3825000Y-3375000D01*
X3825000Y-3845000D02*
X3855000Y-3875000D01*
X3855000Y-3845000D02*
X3825000Y-3875000D01*
X3945000Y-3345000D02*
X3975000Y-3375000D01*
X3975000Y-3345000D02*
X3945000Y-3375000D01*
X3945000Y-3605000D02*
X3975000Y-3635000D01*
X3975000Y-3605000D02*
X3945000Y-3635000D01*
X3960000Y-4135000D02*
X3990000Y-4165000D01*
X3990000Y-4135000D02*
X3960000Y-4165000D01*
X3985000Y-3265000D02*
X4015000Y-3295000D01*
X4015000Y-3265000D02*
X3985000Y-3295000D01*
X4045000Y-3725000D02*
X4075000Y-3755000D01*
X4075000Y-3725000D02*
X4045000Y-3755000D01*
X4745000Y-3525000D02*
X4775000Y-3555000D01*
X4775000Y-3525000D02*
X4745000Y-3555000D01*
X4935000Y-4060000D02*
X4965000Y-4090000D01*
X4965000Y-4060000D02*
X4935000Y-4090000D01*
X4935000Y-4435000D02*
X4965000Y-4465000D01*
X4965000Y-4435000D02*
X4935000Y-4465000D01*
X5060000Y-3860000D02*
X5090000Y-3890000D01*
X5090000Y-3860000D02*
X5060000Y-3890000D01*
X5065000Y-3485000D02*
X5095000Y-3515000D01*
X5095000Y-3485000D02*
X5065000Y-3515000D01*
X5072550Y-3960000D02*
X5102550Y-3990000D01*
X5102550Y-3960000D02*
X5072550Y-3990000D01*
X5205000Y-3485000D02*
X5235000Y-3515000D01*
X5235000Y-3485000D02*
X5205000Y-3515000D01*
X5260000Y-3135000D02*
X5290000Y-3165000D01*
X5290000Y-3135000D02*
X5260000Y-3165000D01*
X5285000Y-3985000D02*
X5315000Y-4015000D01*
X5315000Y-3985000D02*
X5285000Y-4015000D01*
X5294050Y-3485000D02*
X5324050Y-3515000D01*
X5324050Y-3485000D02*
X5294050Y-3515000D01*
X5351250Y-3160000D02*
X5381250Y-3190000D01*
X5381250Y-3160000D02*
X5351250Y-3190000D01*
X5360000Y-4285000D02*
X5390000Y-4315000D01*
X5390000Y-4285000D02*
X5360000Y-4315000D01*
X5435000Y-3635000D02*
X5465000Y-3665000D01*
X5465000Y-3635000D02*
X5435000Y-3665000D01*
X5435000Y-3735000D02*
X5465000Y-3765000D01*
X5465000Y-3735000D02*
X5435000Y-3765000D01*
X5435000Y-3835000D02*
X5465000Y-3865000D01*
X5465000Y-3835000D02*
X5435000Y-3865000D01*
X5435000Y-4285000D02*
X5465000Y-4315000D01*
X5465000Y-4285000D02*
X5435000Y-4315000D01*
X5485000Y-3035000D02*
X5515000Y-3065000D01*
X5515000Y-3035000D02*
X5485000Y-3065000D01*
X5510000Y-4285000D02*
X5540000Y-4315000D01*
X5540000Y-4285000D02*
X5510000Y-4315000D01*
X5610000Y-3735000D02*
X5640000Y-3765000D01*
X5640000Y-3735000D02*
X5610000Y-3765000D01*
X5660000Y-4160000D02*
X5690000Y-4190000D01*
X5690000Y-4160000D02*
X5660000Y-4190000D01*
X5710000Y-3110000D02*
X5740000Y-3140000D01*
X5740000Y-3110000D02*
X5710000Y-3140000D01*
X5735000Y-3410000D02*
X5765000Y-3440000D01*
X5765000Y-3410000D02*
X5735000Y-3440000D01*
X5810000Y-3110000D02*
X5840000Y-3140000D01*
X5840000Y-3110000D02*
X5810000Y-3140000D01*
X5835000Y-4370050D02*
X5865000Y-4400050D01*
X5865000Y-4370050D02*
X5835000Y-4400050D01*
X5910000Y-3110000D02*
X5940000Y-3140000D01*
X5940000Y-3110000D02*
X5910000Y-3140000D01*
X5960000Y-3635000D02*
X5990000Y-3665000D01*
X5990000Y-3635000D02*
X5960000Y-3665000D01*
X6310000Y-3035000D02*
X6340000Y-3065000D01*
X6340000Y-3035000D02*
X6310000Y-3065000D01*
X6310000Y-3610000D02*
X6340000Y-3640000D01*
X6340000Y-3610000D02*
X6310000Y-3640000D01*
X6310000Y-3685000D02*
X6340000Y-3715000D01*
X6340000Y-3685000D02*
X6310000Y-3715000D01*
X6310000Y-3760000D02*
X6340000Y-3790000D01*
X6340000Y-3760000D02*
X6310000Y-3790000D01*
X6310000Y-3835000D02*
X6340000Y-3865000D01*
X6340000Y-3835000D02*
X6310000Y-3865000D01*
X6310000Y-4165000D02*
X6340000Y-4195000D01*
X6340000Y-4165000D02*
X6310000Y-4195000D01*
X6335000Y-4385000D02*
X6365000Y-4415000D01*
X6365000Y-4385000D02*
X6335000Y-4415000D01*
X6335000Y-4460000D02*
X6365000Y-4490000D01*
X6365000Y-4460000D02*
X6335000Y-4490000D01*
X6385000Y-3160000D02*
X6415000Y-3190000D01*
X6415000Y-3160000D02*
X6385000Y-3190000D01*
X6410000Y-4385000D02*
X6440000Y-4415000D01*
X6440000Y-4385000D02*
X6410000Y-4415000D01*
X6410000Y-4460000D02*
X6440000Y-4490000D01*
X6440000Y-4460000D02*
X6410000Y-4490000D01*
X6710000Y-4110000D02*
X6740000Y-4140000D01*
X6740000Y-4110000D02*
X6710000Y-4140000D01*
X6710000Y-4335000D02*
X6740000Y-4365000D01*
X6740000Y-4335000D02*
X6710000Y-4365000D01*
X6735000Y-3360000D02*
X6765000Y-3390000D01*
X6765000Y-3360000D02*
X6735000Y-3390000D01*
X6785000Y-4110000D02*
X6815000Y-4140000D01*
X6815000Y-4110000D02*
X6785000Y-4140000D01*
X6785000Y-4335000D02*
X6815000Y-4365000D01*
X6815000Y-4335000D02*
X6785000Y-4365000D01*
X6835000Y-3360000D02*
X6865000Y-3390000D01*
X6865000Y-3360000D02*
X6835000Y-3390000D01*
X6860000Y-4110000D02*
X6890000Y-4140000D01*
X6890000Y-4110000D02*
X6860000Y-4140000D01*
X6860000Y-4335000D02*
X6890000Y-4365000D01*
X6890000Y-4335000D02*
X6860000Y-4365000D01*
X6935000Y-3610000D02*
X6965000Y-3640000D01*
X6965000Y-3610000D02*
X6935000Y-3640000D01*
X6935000Y-3860000D02*
X6965000Y-3890000D01*
X6965000Y-3860000D02*
X6935000Y-3890000D01*
X6935000Y-4235000D02*
X6965000Y-4265000D01*
X6965000Y-4235000D02*
X6935000Y-4265000D01*
D13*
X3720000Y-3280000D02*
G75*
G03*
X3720000Y-3280000I-20000J0D01*
G01*
X3720000Y-4200000D02*
G75*
G03*
X3720000Y-4200000I-20000J0D01*
G01*
X4183750Y-4013750D02*
G75*
G03*
X4183750Y-4013750I-20000J0D01*
G01*
X7020000Y-3300000D02*
G75*
G03*
X7020000Y-3300000I-20000J0D01*
G01*
X7020000Y-3450000D02*
G75*
G03*
X7020000Y-3450000I-20000J0D01*
G01*
D14*
X4350000Y-3100000D02*
X4350000Y-3200000D01*
X4300000Y-3150000D02*
X4400000Y-3150000D01*
D11*
X4250000Y-3190000D02*
X4450000Y-3190000D01*
X4250000Y-3110000D02*
X4450000Y-3110000D01*
X4450000Y-3190000D02*
G75*
G03*
X4450000Y-3110000I0J40000D01*
G01*
X4250000Y-3110000D02*
G75*
G03*
X4250000Y-3190000I0J-40000D01*
G01*
D14*
X4350000Y-4300000D02*
X4350000Y-4400000D01*
X4300000Y-4350000D02*
X4400000Y-4350000D01*
D11*
X4250000Y-4390000D02*
X4450000Y-4390000D01*
X4250000Y-4310000D02*
X4450000Y-4310000D01*
X4450000Y-4390000D02*
G75*
G03*
X4450000Y-4310000I0J40000D01*
G01*
X4250000Y-4310000D02*
G75*
G03*
X4250000Y-4390000I0J-40000D01*
G01*
X3752619Y-4865476D02*
X3752619Y-4665476D01*
X3800238Y-4665476D01*
X3828809Y-4675000D01*
X3847857Y-4694048D01*
X3857381Y-4713095D01*
X3866905Y-4751190D01*
X3866905Y-4779762D01*
X3857381Y-4817857D01*
X3847857Y-4836905D01*
X3828809Y-4855952D01*
X3800238Y-4865476D01*
X3752619Y-4865476D01*
X3952619Y-4865476D02*
X3952619Y-4732143D01*
X3952619Y-4770238D02*
X3962143Y-4751190D01*
X3971667Y-4741667D01*
X3990714Y-4732143D01*
X4009762Y-4732143D01*
X4076428Y-4865476D02*
X4076428Y-4732143D01*
X4076428Y-4665476D02*
X4066905Y-4675000D01*
X4076428Y-4684524D01*
X4085952Y-4675000D01*
X4076428Y-4665476D01*
X4076428Y-4684524D01*
X4200238Y-4865476D02*
X4181190Y-4855952D01*
X4171667Y-4836905D01*
X4171667Y-4665476D01*
X4305000Y-4865476D02*
X4285952Y-4855952D01*
X4276429Y-4836905D01*
X4276429Y-4665476D01*
X4533571Y-4865476D02*
X4533571Y-4665476D01*
X4600238Y-4808333D01*
X4666905Y-4665476D01*
X4666905Y-4865476D01*
X4847857Y-4865476D02*
X4847857Y-4760714D01*
X4838333Y-4741667D01*
X4819286Y-4732143D01*
X4781190Y-4732143D01*
X4762143Y-4741667D01*
X4847857Y-4855952D02*
X4828810Y-4865476D01*
X4781190Y-4865476D01*
X4762143Y-4855952D01*
X4752619Y-4836905D01*
X4752619Y-4817857D01*
X4762143Y-4798810D01*
X4781190Y-4789286D01*
X4828810Y-4789286D01*
X4847857Y-4779762D01*
X4943095Y-4732143D02*
X4943095Y-4932143D01*
X4943095Y-4741667D02*
X4962143Y-4732143D01*
X5000238Y-4732143D01*
X5019286Y-4741667D01*
X5028810Y-4751190D01*
X5038333Y-4770238D01*
X5038333Y-4827381D01*
X5028810Y-4846429D01*
X5019286Y-4855952D01*
X5000238Y-4865476D01*
X4962143Y-4865476D01*
X4943095Y-4855952D01*
X5124048Y-4846429D02*
X5133571Y-4855952D01*
X5124048Y-4865476D01*
X5114524Y-4855952D01*
X5124048Y-4846429D01*
X5124048Y-4865476D01*
X5124048Y-4741667D02*
X5133571Y-4751190D01*
X5124048Y-4760714D01*
X5114524Y-4751190D01*
X5124048Y-4741667D01*
X5124048Y-4760714D01*
D12*
X3465000Y-5180000D02*
X3495000Y-5210000D01*
X3495000Y-5180000D02*
X3465000Y-5210000D01*
D11*
X3790714Y-5085476D02*
X3809762Y-5085476D01*
X3828809Y-5095000D01*
X3838333Y-5104524D01*
X3847857Y-5123571D01*
X3857381Y-5161667D01*
X3857381Y-5209286D01*
X3847857Y-5247381D01*
X3838333Y-5266429D01*
X3828809Y-5275952D01*
X3809762Y-5285476D01*
X3790714Y-5285476D01*
X3771667Y-5275952D01*
X3762143Y-5266429D01*
X3752619Y-5247381D01*
X3743095Y-5209286D01*
X3743095Y-5161667D01*
X3752619Y-5123571D01*
X3762143Y-5104524D01*
X3771667Y-5095000D01*
X3790714Y-5085476D01*
X3943095Y-5266429D02*
X3952619Y-5275952D01*
X3943095Y-5285476D01*
X3933571Y-5275952D01*
X3943095Y-5266429D01*
X3943095Y-5285476D01*
X4019286Y-5085476D02*
X4143095Y-5085476D01*
X4076428Y-5161667D01*
X4105000Y-5161667D01*
X4124048Y-5171190D01*
X4133571Y-5180714D01*
X4143095Y-5199762D01*
X4143095Y-5247381D01*
X4133571Y-5266429D01*
X4124048Y-5275952D01*
X4105000Y-5285476D01*
X4047857Y-5285476D01*
X4028809Y-5275952D01*
X4019286Y-5266429D01*
X4266905Y-5085476D02*
X4285952Y-5085476D01*
X4305000Y-5095000D01*
X4314524Y-5104524D01*
X4324048Y-5123571D01*
X4333571Y-5161667D01*
X4333571Y-5209286D01*
X4324048Y-5247381D01*
X4314524Y-5266429D01*
X4305000Y-5275952D01*
X4285952Y-5285476D01*
X4266905Y-5285476D01*
X4247857Y-5275952D01*
X4238333Y-5266429D01*
X4228810Y-5247381D01*
X4219286Y-5209286D01*
X4219286Y-5161667D01*
X4228810Y-5123571D01*
X4238333Y-5104524D01*
X4247857Y-5095000D01*
X4266905Y-5085476D01*
X4457381Y-5085476D02*
X4476429Y-5085476D01*
X4495476Y-5095000D01*
X4505000Y-5104524D01*
X4514524Y-5123571D01*
X4524048Y-5161667D01*
X4524048Y-5209286D01*
X4514524Y-5247381D01*
X4505000Y-5266429D01*
X4495476Y-5275952D01*
X4476429Y-5285476D01*
X4457381Y-5285476D01*
X4438333Y-5275952D01*
X4428810Y-5266429D01*
X4419286Y-5247381D01*
X4409762Y-5209286D01*
X4409762Y-5161667D01*
X4419286Y-5123571D01*
X4428810Y-5104524D01*
X4438333Y-5095000D01*
X4457381Y-5085476D01*
X4609762Y-5285476D02*
X4609762Y-5152143D01*
X4609762Y-5171190D02*
X4619286Y-5161667D01*
X4638333Y-5152143D01*
X4666905Y-5152143D01*
X4685952Y-5161667D01*
X4695476Y-5180714D01*
X4695476Y-5285476D01*
X4695476Y-5180714D02*
X4705000Y-5161667D01*
X4724048Y-5152143D01*
X4752619Y-5152143D01*
X4771667Y-5161667D01*
X4781190Y-5180714D01*
X4781190Y-5285476D01*
X4876429Y-5285476D02*
X4876429Y-5152143D01*
X4876429Y-5171190D02*
X4885952Y-5161667D01*
X4905000Y-5152143D01*
X4933571Y-5152143D01*
X4952619Y-5161667D01*
X4962143Y-5180714D01*
X4962143Y-5285476D01*
X4962143Y-5180714D02*
X4971667Y-5161667D01*
X4990714Y-5152143D01*
X5019286Y-5152143D01*
X5038333Y-5161667D01*
X5047857Y-5180714D01*
X5047857Y-5285476D01*
X5438333Y-5075952D02*
X5266905Y-5333095D01*
X5695476Y-5085476D02*
X5714524Y-5085476D01*
X5733571Y-5095000D01*
X5743095Y-5104524D01*
X5752619Y-5123571D01*
X5762143Y-5161667D01*
X5762143Y-5209286D01*
X5752619Y-5247381D01*
X5743095Y-5266429D01*
X5733571Y-5275952D01*
X5714524Y-5285476D01*
X5695476Y-5285476D01*
X5676428Y-5275952D01*
X5666905Y-5266429D01*
X5657381Y-5247381D01*
X5647857Y-5209286D01*
X5647857Y-5161667D01*
X5657381Y-5123571D01*
X5666905Y-5104524D01*
X5676428Y-5095000D01*
X5695476Y-5085476D01*
X5847857Y-5266429D02*
X5857381Y-5275952D01*
X5847857Y-5285476D01*
X5838333Y-5275952D01*
X5847857Y-5266429D01*
X5847857Y-5285476D01*
X5981190Y-5085476D02*
X6000238Y-5085476D01*
X6019286Y-5095000D01*
X6028809Y-5104524D01*
X6038333Y-5123571D01*
X6047857Y-5161667D01*
X6047857Y-5209286D01*
X6038333Y-5247381D01*
X6028809Y-5266429D01*
X6019286Y-5275952D01*
X6000238Y-5285476D01*
X5981190Y-5285476D01*
X5962143Y-5275952D01*
X5952619Y-5266429D01*
X5943095Y-5247381D01*
X5933571Y-5209286D01*
X5933571Y-5161667D01*
X5943095Y-5123571D01*
X5952619Y-5104524D01*
X5962143Y-5095000D01*
X5981190Y-5085476D01*
X6238333Y-5285476D02*
X6124048Y-5285476D01*
X6181190Y-5285476D02*
X6181190Y-5085476D01*
X6162143Y-5114048D01*
X6143095Y-5133095D01*
X6124048Y-5142619D01*
X6428809Y-5285476D02*
X6314524Y-5285476D01*
X6371667Y-5285476D02*
X6371667Y-5085476D01*
X6352619Y-5114048D01*
X6333571Y-5133095D01*
X6314524Y-5142619D01*
X6543095Y-5171190D02*
X6524048Y-5161667D01*
X6514524Y-5152143D01*
X6505000Y-5133095D01*
X6505000Y-5123571D01*
X6514524Y-5104524D01*
X6524048Y-5095000D01*
X6543095Y-5085476D01*
X6581190Y-5085476D01*
X6600238Y-5095000D01*
X6609762Y-5104524D01*
X6619286Y-5123571D01*
X6619286Y-5133095D01*
X6609762Y-5152143D01*
X6600238Y-5161667D01*
X6581190Y-5171190D01*
X6543095Y-5171190D01*
X6524048Y-5180714D01*
X6514524Y-5190238D01*
X6505000Y-5209286D01*
X6505000Y-5247381D01*
X6514524Y-5266429D01*
X6524048Y-5275952D01*
X6543095Y-5285476D01*
X6581190Y-5285476D01*
X6600238Y-5275952D01*
X6609762Y-5266429D01*
X6619286Y-5247381D01*
X6619286Y-5209286D01*
X6609762Y-5190238D01*
X6600238Y-5180714D01*
X6581190Y-5171190D01*
X6695476Y-5085476D02*
X6695476Y-5123571D01*
X6771667Y-5085476D02*
X6771667Y-5123571D01*
X7066905Y-5361667D02*
X7057381Y-5352143D01*
X7038333Y-5323571D01*
X7028809Y-5304524D01*
X7019286Y-5275952D01*
X7009762Y-5228333D01*
X7009762Y-5190238D01*
X7019286Y-5142619D01*
X7028809Y-5114048D01*
X7038333Y-5095000D01*
X7057381Y-5066429D01*
X7066905Y-5056905D01*
X7238333Y-5085476D02*
X7143095Y-5085476D01*
X7133571Y-5180714D01*
X7143095Y-5171190D01*
X7162143Y-5161667D01*
X7209762Y-5161667D01*
X7228809Y-5171190D01*
X7238333Y-5180714D01*
X7247857Y-5199762D01*
X7247857Y-5247381D01*
X7238333Y-5266429D01*
X7228809Y-5275952D01*
X7209762Y-5285476D01*
X7162143Y-5285476D01*
X7143095Y-5275952D01*
X7133571Y-5266429D01*
X7362143Y-5171190D02*
X7343095Y-5161667D01*
X7333571Y-5152143D01*
X7324048Y-5133095D01*
X7324048Y-5123571D01*
X7333571Y-5104524D01*
X7343095Y-5095000D01*
X7362143Y-5085476D01*
X7400238Y-5085476D01*
X7419286Y-5095000D01*
X7428809Y-5104524D01*
X7438333Y-5123571D01*
X7438333Y-5133095D01*
X7428809Y-5152143D01*
X7419286Y-5161667D01*
X7400238Y-5171190D01*
X7362143Y-5171190D01*
X7343095Y-5180714D01*
X7333571Y-5190238D01*
X7324048Y-5209286D01*
X7324048Y-5247381D01*
X7333571Y-5266429D01*
X7343095Y-5275952D01*
X7362143Y-5285476D01*
X7400238Y-5285476D01*
X7419286Y-5275952D01*
X7428809Y-5266429D01*
X7438333Y-5247381D01*
X7438333Y-5209286D01*
X7428809Y-5190238D01*
X7419286Y-5180714D01*
X7400238Y-5171190D01*
X7676428Y-5285476D02*
X7676428Y-5085476D01*
X7762143Y-5285476D02*
X7762143Y-5180714D01*
X7752619Y-5161667D01*
X7733571Y-5152143D01*
X7705000Y-5152143D01*
X7685952Y-5161667D01*
X7676428Y-5171190D01*
X7885952Y-5285476D02*
X7866905Y-5275952D01*
X7857381Y-5266429D01*
X7847857Y-5247381D01*
X7847857Y-5190238D01*
X7857381Y-5171190D01*
X7866905Y-5161667D01*
X7885952Y-5152143D01*
X7914524Y-5152143D01*
X7933571Y-5161667D01*
X7943095Y-5171190D01*
X7952619Y-5190238D01*
X7952619Y-5247381D01*
X7943095Y-5266429D01*
X7933571Y-5275952D01*
X7914524Y-5285476D01*
X7885952Y-5285476D01*
X8066905Y-5285476D02*
X8047857Y-5275952D01*
X8038333Y-5256905D01*
X8038333Y-5085476D01*
X8219286Y-5275952D02*
X8200238Y-5285476D01*
X8162143Y-5285476D01*
X8143095Y-5275952D01*
X8133571Y-5256905D01*
X8133571Y-5180714D01*
X8143095Y-5161667D01*
X8162143Y-5152143D01*
X8200238Y-5152143D01*
X8219286Y-5161667D01*
X8228809Y-5180714D01*
X8228809Y-5199762D01*
X8133571Y-5218810D01*
X8305000Y-5275952D02*
X8324048Y-5285476D01*
X8362143Y-5285476D01*
X8381190Y-5275952D01*
X8390714Y-5256905D01*
X8390714Y-5247381D01*
X8381190Y-5228333D01*
X8362143Y-5218810D01*
X8333571Y-5218810D01*
X8314524Y-5209286D01*
X8305000Y-5190238D01*
X8305000Y-5180714D01*
X8314524Y-5161667D01*
X8333571Y-5152143D01*
X8362143Y-5152143D01*
X8381190Y-5161667D01*
X8457381Y-5361667D02*
X8466905Y-5352143D01*
X8485952Y-5323571D01*
X8495476Y-5304524D01*
X8505000Y-5275952D01*
X8514524Y-5228333D01*
X8514524Y-5190238D01*
X8505000Y-5142619D01*
X8495476Y-5114048D01*
X8485952Y-5095000D01*
X8466905Y-5066429D01*
X8457381Y-5056905D01*
D13*
X3495000Y-5459000D02*
G75*
G03*
X3495000Y-5459000I-20000J0D01*
G01*
D11*
X3790714Y-5349476D02*
X3809762Y-5349476D01*
X3828809Y-5359000D01*
X3838333Y-5368524D01*
X3847857Y-5387571D01*
X3857381Y-5425667D01*
X3857381Y-5473286D01*
X3847857Y-5511381D01*
X3838333Y-5530429D01*
X3828809Y-5539952D01*
X3809762Y-5549476D01*
X3790714Y-5549476D01*
X3771667Y-5539952D01*
X3762143Y-5530429D01*
X3752619Y-5511381D01*
X3743095Y-5473286D01*
X3743095Y-5425667D01*
X3752619Y-5387571D01*
X3762143Y-5368524D01*
X3771667Y-5359000D01*
X3790714Y-5349476D01*
X3943095Y-5530429D02*
X3952619Y-5539952D01*
X3943095Y-5549476D01*
X3933571Y-5539952D01*
X3943095Y-5530429D01*
X3943095Y-5549476D01*
X4124048Y-5416143D02*
X4124048Y-5549476D01*
X4076428Y-5339952D02*
X4028809Y-5482810D01*
X4152619Y-5482810D01*
X4266905Y-5349476D02*
X4285952Y-5349476D01*
X4305000Y-5359000D01*
X4314524Y-5368524D01*
X4324048Y-5387571D01*
X4333571Y-5425667D01*
X4333571Y-5473286D01*
X4324048Y-5511381D01*
X4314524Y-5530429D01*
X4305000Y-5539952D01*
X4285952Y-5549476D01*
X4266905Y-5549476D01*
X4247857Y-5539952D01*
X4238333Y-5530429D01*
X4228810Y-5511381D01*
X4219286Y-5473286D01*
X4219286Y-5425667D01*
X4228810Y-5387571D01*
X4238333Y-5368524D01*
X4247857Y-5359000D01*
X4266905Y-5349476D01*
X4457381Y-5349476D02*
X4476429Y-5349476D01*
X4495476Y-5359000D01*
X4505000Y-5368524D01*
X4514524Y-5387571D01*
X4524048Y-5425667D01*
X4524048Y-5473286D01*
X4514524Y-5511381D01*
X4505000Y-5530429D01*
X4495476Y-5539952D01*
X4476429Y-5549476D01*
X4457381Y-5549476D01*
X4438333Y-5539952D01*
X4428810Y-5530429D01*
X4419286Y-5511381D01*
X4409762Y-5473286D01*
X4409762Y-5425667D01*
X4419286Y-5387571D01*
X4428810Y-5368524D01*
X4438333Y-5359000D01*
X4457381Y-5349476D01*
X4609762Y-5549476D02*
X4609762Y-5416143D01*
X4609762Y-5435190D02*
X4619286Y-5425667D01*
X4638333Y-5416143D01*
X4666905Y-5416143D01*
X4685952Y-5425667D01*
X4695476Y-5444714D01*
X4695476Y-5549476D01*
X4695476Y-5444714D02*
X4705000Y-5425667D01*
X4724048Y-5416143D01*
X4752619Y-5416143D01*
X4771667Y-5425667D01*
X4781190Y-5444714D01*
X4781190Y-5549476D01*
X4876429Y-5549476D02*
X4876429Y-5416143D01*
X4876429Y-5435190D02*
X4885952Y-5425667D01*
X4905000Y-5416143D01*
X4933571Y-5416143D01*
X4952619Y-5425667D01*
X4962143Y-5444714D01*
X4962143Y-5549476D01*
X4962143Y-5444714D02*
X4971667Y-5425667D01*
X4990714Y-5416143D01*
X5019286Y-5416143D01*
X5038333Y-5425667D01*
X5047857Y-5444714D01*
X5047857Y-5549476D01*
X5438333Y-5339952D02*
X5266905Y-5597095D01*
X5695476Y-5349476D02*
X5714524Y-5349476D01*
X5733571Y-5359000D01*
X5743095Y-5368524D01*
X5752619Y-5387571D01*
X5762143Y-5425667D01*
X5762143Y-5473286D01*
X5752619Y-5511381D01*
X5743095Y-5530429D01*
X5733571Y-5539952D01*
X5714524Y-5549476D01*
X5695476Y-5549476D01*
X5676428Y-5539952D01*
X5666905Y-5530429D01*
X5657381Y-5511381D01*
X5647857Y-5473286D01*
X5647857Y-5425667D01*
X5657381Y-5387571D01*
X5666905Y-5368524D01*
X5676428Y-5359000D01*
X5695476Y-5349476D01*
X5847857Y-5530429D02*
X5857381Y-5539952D01*
X5847857Y-5549476D01*
X5838333Y-5539952D01*
X5847857Y-5530429D01*
X5847857Y-5549476D01*
X5981190Y-5349476D02*
X6000238Y-5349476D01*
X6019286Y-5359000D01*
X6028809Y-5368524D01*
X6038333Y-5387571D01*
X6047857Y-5425667D01*
X6047857Y-5473286D01*
X6038333Y-5511381D01*
X6028809Y-5530429D01*
X6019286Y-5539952D01*
X6000238Y-5549476D01*
X5981190Y-5549476D01*
X5962143Y-5539952D01*
X5952619Y-5530429D01*
X5943095Y-5511381D01*
X5933571Y-5473286D01*
X5933571Y-5425667D01*
X5943095Y-5387571D01*
X5952619Y-5368524D01*
X5962143Y-5359000D01*
X5981190Y-5349476D01*
X6238333Y-5549476D02*
X6124048Y-5549476D01*
X6181190Y-5549476D02*
X6181190Y-5349476D01*
X6162143Y-5378048D01*
X6143095Y-5397095D01*
X6124048Y-5406619D01*
X6419286Y-5349476D02*
X6324048Y-5349476D01*
X6314524Y-5444714D01*
X6324048Y-5435190D01*
X6343095Y-5425667D01*
X6390714Y-5425667D01*
X6409762Y-5435190D01*
X6419286Y-5444714D01*
X6428809Y-5463762D01*
X6428809Y-5511381D01*
X6419286Y-5530429D01*
X6409762Y-5539952D01*
X6390714Y-5549476D01*
X6343095Y-5549476D01*
X6324048Y-5539952D01*
X6314524Y-5530429D01*
X6495476Y-5349476D02*
X6628809Y-5349476D01*
X6543095Y-5549476D01*
X6695476Y-5349476D02*
X6695476Y-5387571D01*
X6771667Y-5349476D02*
X6771667Y-5387571D01*
X7066905Y-5625667D02*
X7057381Y-5616143D01*
X7038333Y-5587571D01*
X7028809Y-5568524D01*
X7019286Y-5539952D01*
X7009762Y-5492333D01*
X7009762Y-5454238D01*
X7019286Y-5406619D01*
X7028809Y-5378048D01*
X7038333Y-5359000D01*
X7057381Y-5330429D01*
X7066905Y-5320905D01*
X7238333Y-5349476D02*
X7143095Y-5349476D01*
X7133571Y-5444714D01*
X7143095Y-5435190D01*
X7162143Y-5425667D01*
X7209762Y-5425667D01*
X7228809Y-5435190D01*
X7238333Y-5444714D01*
X7247857Y-5463762D01*
X7247857Y-5511381D01*
X7238333Y-5530429D01*
X7228809Y-5539952D01*
X7209762Y-5549476D01*
X7162143Y-5549476D01*
X7143095Y-5539952D01*
X7133571Y-5530429D01*
X7485952Y-5549476D02*
X7485952Y-5349476D01*
X7571667Y-5549476D02*
X7571667Y-5444714D01*
X7562143Y-5425667D01*
X7543095Y-5416143D01*
X7514524Y-5416143D01*
X7495476Y-5425667D01*
X7485952Y-5435190D01*
X7695476Y-5549476D02*
X7676428Y-5539952D01*
X7666905Y-5530429D01*
X7657381Y-5511381D01*
X7657381Y-5454238D01*
X7666905Y-5435190D01*
X7676428Y-5425667D01*
X7695476Y-5416143D01*
X7724048Y-5416143D01*
X7743095Y-5425667D01*
X7752619Y-5435190D01*
X7762143Y-5454238D01*
X7762143Y-5511381D01*
X7752619Y-5530429D01*
X7743095Y-5539952D01*
X7724048Y-5549476D01*
X7695476Y-5549476D01*
X7876428Y-5549476D02*
X7857381Y-5539952D01*
X7847857Y-5520905D01*
X7847857Y-5349476D01*
X8028809Y-5539952D02*
X8009762Y-5549476D01*
X7971667Y-5549476D01*
X7952619Y-5539952D01*
X7943095Y-5520905D01*
X7943095Y-5444714D01*
X7952619Y-5425667D01*
X7971667Y-5416143D01*
X8009762Y-5416143D01*
X8028809Y-5425667D01*
X8038333Y-5444714D01*
X8038333Y-5463762D01*
X7943095Y-5482810D01*
X8114524Y-5539952D02*
X8133571Y-5549476D01*
X8171667Y-5549476D01*
X8190714Y-5539952D01*
X8200238Y-5520905D01*
X8200238Y-5511381D01*
X8190714Y-5492333D01*
X8171667Y-5482810D01*
X8143095Y-5482810D01*
X8124048Y-5473286D01*
X8114524Y-5454238D01*
X8114524Y-5444714D01*
X8124048Y-5425667D01*
X8143095Y-5416143D01*
X8171667Y-5416143D01*
X8190714Y-5425667D01*
X8266905Y-5625667D02*
X8276428Y-5616143D01*
X8295476Y-5587571D01*
X8305000Y-5568524D01*
X8314524Y-5539952D01*
X8324048Y-5492333D01*
X8324048Y-5454238D01*
X8314524Y-5406619D01*
X8305000Y-5378048D01*
X8295476Y-5359000D01*
X8276428Y-5330429D01*
X8266905Y-5320905D01*
D14*
X3445000Y-5673000D02*
X3445000Y-5773000D01*
X3395000Y-5723000D02*
X3495000Y-5723000D01*
D11*
X3857381Y-5813476D02*
X3743095Y-5813476D01*
X3800238Y-5813476D02*
X3800238Y-5613476D01*
X3781190Y-5642048D01*
X3762143Y-5661095D01*
X3743095Y-5670619D01*
X3943095Y-5794428D02*
X3952619Y-5803952D01*
X3943095Y-5813476D01*
X3933571Y-5803952D01*
X3943095Y-5794428D01*
X3943095Y-5813476D01*
X4076428Y-5613476D02*
X4095476Y-5613476D01*
X4114524Y-5623000D01*
X4124048Y-5632524D01*
X4133571Y-5651571D01*
X4143095Y-5689667D01*
X4143095Y-5737286D01*
X4133571Y-5775381D01*
X4124048Y-5794428D01*
X4114524Y-5803952D01*
X4095476Y-5813476D01*
X4076428Y-5813476D01*
X4057381Y-5803952D01*
X4047857Y-5794428D01*
X4038333Y-5775381D01*
X4028809Y-5737286D01*
X4028809Y-5689667D01*
X4038333Y-5651571D01*
X4047857Y-5632524D01*
X4057381Y-5623000D01*
X4076428Y-5613476D01*
X4266905Y-5613476D02*
X4285952Y-5613476D01*
X4305000Y-5623000D01*
X4314524Y-5632524D01*
X4324048Y-5651571D01*
X4333571Y-5689667D01*
X4333571Y-5737286D01*
X4324048Y-5775381D01*
X4314524Y-5794428D01*
X4305000Y-5803952D01*
X4285952Y-5813476D01*
X4266905Y-5813476D01*
X4247857Y-5803952D01*
X4238333Y-5794428D01*
X4228810Y-5775381D01*
X4219286Y-5737286D01*
X4219286Y-5689667D01*
X4228810Y-5651571D01*
X4238333Y-5632524D01*
X4247857Y-5623000D01*
X4266905Y-5613476D01*
X4457381Y-5613476D02*
X4476429Y-5613476D01*
X4495476Y-5623000D01*
X4505000Y-5632524D01*
X4514524Y-5651571D01*
X4524048Y-5689667D01*
X4524048Y-5737286D01*
X4514524Y-5775381D01*
X4505000Y-5794428D01*
X4495476Y-5803952D01*
X4476429Y-5813476D01*
X4457381Y-5813476D01*
X4438333Y-5803952D01*
X4428810Y-5794428D01*
X4419286Y-5775381D01*
X4409762Y-5737286D01*
X4409762Y-5689667D01*
X4419286Y-5651571D01*
X4428810Y-5632524D01*
X4438333Y-5623000D01*
X4457381Y-5613476D01*
X4609762Y-5813476D02*
X4609762Y-5680143D01*
X4609762Y-5699190D02*
X4619286Y-5689667D01*
X4638333Y-5680143D01*
X4666905Y-5680143D01*
X4685952Y-5689667D01*
X4695476Y-5708714D01*
X4695476Y-5813476D01*
X4695476Y-5708714D02*
X4705000Y-5689667D01*
X4724048Y-5680143D01*
X4752619Y-5680143D01*
X4771667Y-5689667D01*
X4781190Y-5708714D01*
X4781190Y-5813476D01*
X4876429Y-5813476D02*
X4876429Y-5680143D01*
X4876429Y-5699190D02*
X4885952Y-5689667D01*
X4905000Y-5680143D01*
X4933571Y-5680143D01*
X4952619Y-5689667D01*
X4962143Y-5708714D01*
X4962143Y-5813476D01*
X4962143Y-5708714D02*
X4971667Y-5689667D01*
X4990714Y-5680143D01*
X5019286Y-5680143D01*
X5038333Y-5689667D01*
X5047857Y-5708714D01*
X5047857Y-5813476D01*
X5438333Y-5603952D02*
X5266905Y-5861095D01*
X5695476Y-5613476D02*
X5714524Y-5613476D01*
X5733571Y-5623000D01*
X5743095Y-5632524D01*
X5752619Y-5651571D01*
X5762143Y-5689667D01*
X5762143Y-5737286D01*
X5752619Y-5775381D01*
X5743095Y-5794428D01*
X5733571Y-5803952D01*
X5714524Y-5813476D01*
X5695476Y-5813476D01*
X5676428Y-5803952D01*
X5666905Y-5794428D01*
X5657381Y-5775381D01*
X5647857Y-5737286D01*
X5647857Y-5689667D01*
X5657381Y-5651571D01*
X5666905Y-5632524D01*
X5676428Y-5623000D01*
X5695476Y-5613476D01*
X5847857Y-5794428D02*
X5857381Y-5803952D01*
X5847857Y-5813476D01*
X5838333Y-5803952D01*
X5847857Y-5794428D01*
X5847857Y-5813476D01*
X5981190Y-5613476D02*
X6000238Y-5613476D01*
X6019286Y-5623000D01*
X6028809Y-5632524D01*
X6038333Y-5651571D01*
X6047857Y-5689667D01*
X6047857Y-5737286D01*
X6038333Y-5775381D01*
X6028809Y-5794428D01*
X6019286Y-5803952D01*
X6000238Y-5813476D01*
X5981190Y-5813476D01*
X5962143Y-5803952D01*
X5952619Y-5794428D01*
X5943095Y-5775381D01*
X5933571Y-5737286D01*
X5933571Y-5689667D01*
X5943095Y-5651571D01*
X5952619Y-5632524D01*
X5962143Y-5623000D01*
X5981190Y-5613476D01*
X6114524Y-5613476D02*
X6238333Y-5613476D01*
X6171667Y-5689667D01*
X6200238Y-5689667D01*
X6219286Y-5699190D01*
X6228809Y-5708714D01*
X6238333Y-5727762D01*
X6238333Y-5775381D01*
X6228809Y-5794428D01*
X6219286Y-5803952D01*
X6200238Y-5813476D01*
X6143095Y-5813476D01*
X6124048Y-5803952D01*
X6114524Y-5794428D01*
X6333571Y-5813476D02*
X6371667Y-5813476D01*
X6390714Y-5803952D01*
X6400238Y-5794428D01*
X6419286Y-5765857D01*
X6428809Y-5727762D01*
X6428809Y-5651571D01*
X6419286Y-5632524D01*
X6409762Y-5623000D01*
X6390714Y-5613476D01*
X6352619Y-5613476D01*
X6333571Y-5623000D01*
X6324048Y-5632524D01*
X6314524Y-5651571D01*
X6314524Y-5699190D01*
X6324048Y-5718238D01*
X6333571Y-5727762D01*
X6352619Y-5737286D01*
X6390714Y-5737286D01*
X6409762Y-5727762D01*
X6419286Y-5718238D01*
X6428809Y-5699190D01*
X6600238Y-5680143D02*
X6600238Y-5813476D01*
X6552619Y-5603952D02*
X6505000Y-5746809D01*
X6628809Y-5746809D01*
X6695476Y-5613476D02*
X6695476Y-5651571D01*
X6771667Y-5613476D02*
X6771667Y-5651571D01*
X7066905Y-5889667D02*
X7057381Y-5880143D01*
X7038333Y-5851571D01*
X7028809Y-5832524D01*
X7019286Y-5803952D01*
X7009762Y-5756333D01*
X7009762Y-5718238D01*
X7019286Y-5670619D01*
X7028809Y-5642048D01*
X7038333Y-5623000D01*
X7057381Y-5594428D01*
X7066905Y-5584905D01*
X7181190Y-5613476D02*
X7200238Y-5613476D01*
X7219286Y-5623000D01*
X7228809Y-5632524D01*
X7238333Y-5651571D01*
X7247857Y-5689667D01*
X7247857Y-5737286D01*
X7238333Y-5775381D01*
X7228809Y-5794428D01*
X7219286Y-5803952D01*
X7200238Y-5813476D01*
X7181190Y-5813476D01*
X7162143Y-5803952D01*
X7152619Y-5794428D01*
X7143095Y-5775381D01*
X7133571Y-5737286D01*
X7133571Y-5689667D01*
X7143095Y-5651571D01*
X7152619Y-5632524D01*
X7162143Y-5623000D01*
X7181190Y-5613476D01*
X7485952Y-5813476D02*
X7485952Y-5613476D01*
X7571667Y-5813476D02*
X7571667Y-5708714D01*
X7562143Y-5689667D01*
X7543095Y-5680143D01*
X7514524Y-5680143D01*
X7495476Y-5689667D01*
X7485952Y-5699190D01*
X7695476Y-5813476D02*
X7676428Y-5803952D01*
X7666905Y-5794428D01*
X7657381Y-5775381D01*
X7657381Y-5718238D01*
X7666905Y-5699190D01*
X7676428Y-5689667D01*
X7695476Y-5680143D01*
X7724048Y-5680143D01*
X7743095Y-5689667D01*
X7752619Y-5699190D01*
X7762143Y-5718238D01*
X7762143Y-5775381D01*
X7752619Y-5794428D01*
X7743095Y-5803952D01*
X7724048Y-5813476D01*
X7695476Y-5813476D01*
X7876428Y-5813476D02*
X7857381Y-5803952D01*
X7847857Y-5784905D01*
X7847857Y-5613476D01*
X8028809Y-5803952D02*
X8009762Y-5813476D01*
X7971667Y-5813476D01*
X7952619Y-5803952D01*
X7943095Y-5784905D01*
X7943095Y-5708714D01*
X7952619Y-5689667D01*
X7971667Y-5680143D01*
X8009762Y-5680143D01*
X8028809Y-5689667D01*
X8038333Y-5708714D01*
X8038333Y-5727762D01*
X7943095Y-5746809D01*
X8114524Y-5803952D02*
X8133571Y-5813476D01*
X8171667Y-5813476D01*
X8190714Y-5803952D01*
X8200238Y-5784905D01*
X8200238Y-5775381D01*
X8190714Y-5756333D01*
X8171667Y-5746809D01*
X8143095Y-5746809D01*
X8124048Y-5737286D01*
X8114524Y-5718238D01*
X8114524Y-5708714D01*
X8124048Y-5689667D01*
X8143095Y-5680143D01*
X8171667Y-5680143D01*
X8190714Y-5689667D01*
X8438333Y-5737286D02*
X8590714Y-5737286D01*
X8514524Y-5813476D02*
X8514524Y-5661095D01*
X8828810Y-5632524D02*
X8838333Y-5623000D01*
X8857381Y-5613476D01*
X8905000Y-5613476D01*
X8924048Y-5623000D01*
X8933571Y-5632524D01*
X8943095Y-5651571D01*
X8943095Y-5670619D01*
X8933571Y-5699190D01*
X8819286Y-5813476D01*
X8943095Y-5813476D01*
X9171667Y-5803952D02*
X9190714Y-5813476D01*
X9228810Y-5813476D01*
X9247857Y-5803952D01*
X9257381Y-5784905D01*
X9257381Y-5775381D01*
X9247857Y-5756333D01*
X9228810Y-5746809D01*
X9200238Y-5746809D01*
X9181190Y-5737286D01*
X9171667Y-5718238D01*
X9171667Y-5708714D01*
X9181190Y-5689667D01*
X9200238Y-5680143D01*
X9228810Y-5680143D01*
X9247857Y-5689667D01*
X9371667Y-5813476D02*
X9352619Y-5803952D01*
X9343095Y-5784905D01*
X9343095Y-5613476D01*
X9476429Y-5813476D02*
X9457381Y-5803952D01*
X9447857Y-5794428D01*
X9438333Y-5775381D01*
X9438333Y-5718238D01*
X9447857Y-5699190D01*
X9457381Y-5689667D01*
X9476429Y-5680143D01*
X9505000Y-5680143D01*
X9524048Y-5689667D01*
X9533571Y-5699190D01*
X9543095Y-5718238D01*
X9543095Y-5775381D01*
X9533571Y-5794428D01*
X9524048Y-5803952D01*
X9505000Y-5813476D01*
X9476429Y-5813476D01*
X9600238Y-5680143D02*
X9676429Y-5680143D01*
X9628810Y-5613476D02*
X9628810Y-5784905D01*
X9638333Y-5803952D01*
X9657381Y-5813476D01*
X9676429Y-5813476D01*
X9733571Y-5803952D02*
X9752619Y-5813476D01*
X9790714Y-5813476D01*
X9809762Y-5803952D01*
X9819286Y-5784905D01*
X9819286Y-5775381D01*
X9809762Y-5756333D01*
X9790714Y-5746809D01*
X9762143Y-5746809D01*
X9743095Y-5737286D01*
X9733571Y-5718238D01*
X9733571Y-5708714D01*
X9743095Y-5689667D01*
X9762143Y-5680143D01*
X9790714Y-5680143D01*
X9809762Y-5689667D01*
X9885952Y-5889667D02*
X9895476Y-5880143D01*
X9914524Y-5851571D01*
X9924048Y-5832524D01*
X9933571Y-5803952D01*
X9943095Y-5756333D01*
X9943095Y-5718238D01*
X9933571Y-5670619D01*
X9924048Y-5642048D01*
X9914524Y-5623000D01*
X9895476Y-5594428D01*
X9885952Y-5584905D01*
M02*
