%TF.GenerationSoftware,KiCad,Pcbnew,(6.0.0)*%
%TF.CreationDate,2025-09-03T22:59:34+02:00*%
%TF.ProjectId,Smart Servo Control Board Rev.1,536d6172-7420-4536-9572-766f20436f6e,rev?*%
%TF.SameCoordinates,Original*%
%TF.FileFunction,Copper,L2,Inr*%
%TF.FilePolarity,Positive*%
%FSLAX46Y46*%
G04 Gerber Fmt 4.6, Leading zero omitted, Abs format (unit mm)*
G04 Created by KiCad (PCBNEW (6.0.0)) date 2025-09-03 22:59:34*
%MOMM*%
%LPD*%
G01*
G04 APERTURE LIST*
%TA.AperFunction,ComponentPad*%
%ADD10O,4.000000X2.000000*%
%TD*%
%TA.AperFunction,ViaPad*%
%ADD11C,0.600000*%
%TD*%
%TA.AperFunction,ViaPad*%
%ADD12C,0.800000*%
%TD*%
%TA.AperFunction,Conductor*%
%ADD13C,0.250000*%
%TD*%
%TA.AperFunction,Conductor*%
%ADD14C,0.800000*%
%TD*%
G04 APERTURE END LIST*
D10*
%TO.N,Net-(C8-Pad1)*%
%TO.C,J2*%
X43500000Y-31500000D03*
%TO.N,Net-(C11-Pad2)*%
X43500000Y-43500000D03*
%TD*%
D11*
%TO.N,SCL2*%
X58500000Y-43850500D03*
%TO.N,GNDD*%
X63500000Y-44750000D03*
X64250000Y-44750000D03*
X64250000Y-44000000D03*
X63500000Y-44000000D03*
%TO.N,+3V3*%
X40000000Y-32800000D03*
%TO.N,GNDD*%
X40600000Y-37400000D03*
X39600000Y-36200000D03*
X38400000Y-38600000D03*
X37400000Y-37800000D03*
X54500000Y-38500000D03*
X54500000Y-37500000D03*
X54500000Y-36500000D03*
X57250000Y-31250000D03*
X58250000Y-31250000D03*
D12*
%TO.N,HB2*%
X37000000Y-32800000D03*
D11*
%TO.N,GNDD*%
X55250000Y-43000000D03*
X54500000Y-43000000D03*
X53750000Y-43000000D03*
%TO.N,+3V3*%
X56750000Y-41750000D03*
%TO.N,GNDD*%
X52750000Y-31500000D03*
%TO.N,DRV1*%
X38400000Y-33600000D03*
%TO.N,GNDD*%
X59250000Y-31250000D03*
X68500000Y-33750000D03*
X67500000Y-33750000D03*
D12*
%TO.N,+5V*%
X70000000Y-34500000D03*
X37000000Y-42000000D03*
X70000000Y-33000000D03*
D11*
%TO.N,+3V3*%
X63250000Y-41800000D03*
X63250000Y-38500000D03*
X63250000Y-37750000D03*
X63250000Y-37000000D03*
X63250000Y-36250000D03*
X53090498Y-35000000D03*
%TO.N,GNDD*%
X68750000Y-41250000D03*
X68000000Y-41250000D03*
X67250000Y-43500000D03*
X68750000Y-43500000D03*
X68000000Y-43500000D03*
X67250000Y-41250000D03*
X69500000Y-42500000D03*
%TO.N,+3V3*%
X57500000Y-34250000D03*
X49500000Y-40750000D03*
%TO.N,Net-(C7-Pad1)*%
X63250000Y-30500000D03*
%TO.N,Net-(C7-Pad2)*%
X64000000Y-31750000D03*
%TO.N,HB1*%
X38365000Y-41500000D03*
X35750000Y-37000000D03*
D12*
%TO.N,HB2*%
X41637500Y-40137500D03*
D11*
%TO.N,SCL1*%
X69500000Y-38750000D03*
%TO.N,SDA1*%
X69500000Y-36250000D03*
%TO.N,SWCLK*%
X56250000Y-37500000D03*
%TO.N,SWDIO*%
X53000000Y-40000000D03*
%TO.N,NRST*%
X53662500Y-31750000D03*
%TO.N,SCL2*%
X50750000Y-38750000D03*
X59750000Y-36500000D03*
%TO.N,SDA2*%
X50875500Y-39750000D03*
%TO.N,ISENS*%
X55000000Y-30500000D03*
X39750000Y-41500000D03*
%TO.N,ADC2*%
X49500000Y-44500000D03*
X47600000Y-35400000D03*
%TO.N,DRV2*%
X52200000Y-35000000D03*
X39600000Y-33600000D03*
%TO.N,DRV1*%
X50800000Y-35000000D03*
%TD*%
D13*
%TO.N,SCL2*%
X53750000Y-35750000D02*
X50750000Y-38750000D01*
X59000000Y-35750000D02*
X53750000Y-35750000D01*
X59750000Y-36500000D02*
X59000000Y-35750000D01*
%TO.N,+3V3*%
X55750000Y-40750000D02*
X56750000Y-41750000D01*
X49500000Y-40750000D02*
X55750000Y-40750000D01*
X40700000Y-33500000D02*
X40000000Y-32800000D01*
X51590498Y-33500000D02*
X40700000Y-33500000D01*
X53090498Y-35000000D02*
X51590498Y-33500000D01*
X63250000Y-41800000D02*
X63250000Y-38500000D01*
X63250000Y-41800000D02*
X63200000Y-41750000D01*
X63200000Y-41750000D02*
X56750000Y-41750000D01*
X56800000Y-35000000D02*
X57500000Y-34300000D01*
X53090498Y-35000000D02*
X56800000Y-35000000D01*
X57500000Y-34300000D02*
X57500000Y-34250000D01*
D14*
%TO.N,HB2*%
X37000000Y-32800000D02*
X37000000Y-35500000D01*
X37000000Y-35500000D02*
X41637500Y-40137500D01*
D13*
%TO.N,+3V3*%
X61250000Y-34250000D02*
X57500000Y-34250000D01*
X63250000Y-36250000D02*
X61250000Y-34250000D01*
%TD*%
%TA.AperFunction,Conductor*%
%TO.N,+5V*%
G36*
X68755457Y-29719685D02*
G01*
X68801212Y-29772489D01*
X68812248Y-29817510D01*
X68813162Y-29834950D01*
X68813671Y-29838164D01*
X68813672Y-29838173D01*
X68846556Y-30045790D01*
X68865632Y-30166231D01*
X68952442Y-30490212D01*
X68953600Y-30493228D01*
X68953602Y-30493235D01*
X69069913Y-30796232D01*
X69072643Y-30803344D01*
X69224915Y-31102196D01*
X69248475Y-31138475D01*
X69403517Y-31377217D01*
X69407593Y-31383494D01*
X69409634Y-31386014D01*
X69409638Y-31386020D01*
X69599381Y-31620332D01*
X69618673Y-31644156D01*
X69855844Y-31881327D01*
X69858361Y-31883365D01*
X69858363Y-31883367D01*
X70113980Y-32090362D01*
X70113986Y-32090366D01*
X70116506Y-32092407D01*
X70119229Y-32094175D01*
X70119234Y-32094179D01*
X70302103Y-32212936D01*
X70397804Y-32275085D01*
X70466164Y-32309916D01*
X70693322Y-32425658D01*
X70696656Y-32427357D01*
X70699679Y-32428517D01*
X70699687Y-32428521D01*
X71006765Y-32546398D01*
X71006772Y-32546400D01*
X71009788Y-32547558D01*
X71333769Y-32634368D01*
X71389772Y-32643238D01*
X71661827Y-32686328D01*
X71661836Y-32686329D01*
X71665050Y-32686838D01*
X71668299Y-32687008D01*
X71668306Y-32687009D01*
X71682490Y-32687752D01*
X71748407Y-32710918D01*
X71791336Y-32766045D01*
X71800000Y-32811582D01*
X71800000Y-42188418D01*
X71780315Y-42255457D01*
X71727511Y-42301212D01*
X71682490Y-42312248D01*
X71668306Y-42312991D01*
X71668299Y-42312992D01*
X71665050Y-42313162D01*
X71661836Y-42313671D01*
X71661827Y-42313672D01*
X71393267Y-42356208D01*
X71333769Y-42365632D01*
X71009788Y-42452442D01*
X71006772Y-42453600D01*
X71006765Y-42453602D01*
X70699687Y-42571479D01*
X70699679Y-42571483D01*
X70696656Y-42572643D01*
X70693764Y-42574117D01*
X70693763Y-42574117D01*
X70615178Y-42614158D01*
X70397804Y-42724915D01*
X70116506Y-42907593D01*
X70116203Y-42907126D01*
X70052814Y-42929732D01*
X69984763Y-42913895D01*
X69936076Y-42863781D01*
X69922213Y-42795301D01*
X69934163Y-42751870D01*
X69981710Y-42653733D01*
X70005496Y-42512354D01*
X70005647Y-42500000D01*
X70004763Y-42493823D01*
X69986575Y-42366824D01*
X69985323Y-42358082D01*
X69925984Y-42227572D01*
X69914342Y-42214060D01*
X69882363Y-42176948D01*
X69832400Y-42118963D01*
X69712095Y-42040985D01*
X69574739Y-41999907D01*
X69565905Y-41999853D01*
X69476054Y-41999304D01*
X69431376Y-41999031D01*
X69293529Y-42038428D01*
X69172280Y-42114930D01*
X69166435Y-42121548D01*
X69166433Y-42121550D01*
X69083223Y-42215768D01*
X69083221Y-42215770D01*
X69077377Y-42222388D01*
X69016447Y-42352163D01*
X69015088Y-42360888D01*
X69015088Y-42360890D01*
X68995750Y-42485093D01*
X68994391Y-42493823D01*
X69001187Y-42545791D01*
X69010228Y-42614930D01*
X69012980Y-42635979D01*
X69070720Y-42767203D01*
X69076405Y-42773966D01*
X69147112Y-42858082D01*
X69162970Y-42876948D01*
X69170326Y-42881844D01*
X69171664Y-42883041D01*
X69187215Y-42908087D01*
X69212675Y-42911834D01*
X69229499Y-42921234D01*
X69265617Y-42945276D01*
X69282313Y-42956390D01*
X69345310Y-42976071D01*
X69410722Y-42996507D01*
X69410723Y-42996507D01*
X69419157Y-42999142D01*
X69427992Y-42999304D01*
X69447799Y-42999667D01*
X69562499Y-43001770D01*
X69571015Y-42999448D01*
X69571017Y-42999448D01*
X69656761Y-42976071D01*
X69676110Y-42970796D01*
X69745965Y-42972154D01*
X69803998Y-43011064D01*
X69831783Y-43075171D01*
X69820497Y-43144124D01*
X69796406Y-43178111D01*
X69618673Y-43355844D01*
X69616635Y-43358361D01*
X69616633Y-43358363D01*
X69471488Y-43537602D01*
X69414001Y-43577313D01*
X69344170Y-43579641D01*
X69284166Y-43543846D01*
X69252374Y-43477145D01*
X69236575Y-43366824D01*
X69235323Y-43358082D01*
X69175984Y-43227572D01*
X69082400Y-43118963D01*
X69078228Y-43116259D01*
X69062589Y-43091745D01*
X69035755Y-43087460D01*
X69021570Y-43079534D01*
X68969511Y-43045791D01*
X68969507Y-43045789D01*
X68962095Y-43040985D01*
X68824739Y-42999907D01*
X68815905Y-42999853D01*
X68726054Y-42999304D01*
X68681376Y-42999031D01*
X68543529Y-43038428D01*
X68440648Y-43103340D01*
X68373448Y-43122465D01*
X68307038Y-43102523D01*
X68219511Y-43045791D01*
X68219507Y-43045789D01*
X68212095Y-43040985D01*
X68074739Y-42999907D01*
X68065905Y-42999853D01*
X67976054Y-42999304D01*
X67931376Y-42999031D01*
X67793529Y-43038428D01*
X67690648Y-43103340D01*
X67623448Y-43122465D01*
X67557038Y-43102523D01*
X67469511Y-43045791D01*
X67469507Y-43045789D01*
X67462095Y-43040985D01*
X67324739Y-42999907D01*
X67315905Y-42999853D01*
X67226054Y-42999304D01*
X67181376Y-42999031D01*
X67043529Y-43038428D01*
X66922280Y-43114930D01*
X66916435Y-43121548D01*
X66916433Y-43121550D01*
X66833223Y-43215768D01*
X66833221Y-43215770D01*
X66827377Y-43222388D01*
X66766447Y-43352163D01*
X66765088Y-43360888D01*
X66765088Y-43360890D01*
X66745750Y-43485093D01*
X66744391Y-43493823D01*
X66751187Y-43545791D01*
X66760434Y-43616506D01*
X66762980Y-43635979D01*
X66820720Y-43767203D01*
X66826405Y-43773966D01*
X66897112Y-43858082D01*
X66912970Y-43876948D01*
X67032313Y-43956390D01*
X67124188Y-43985093D01*
X67160722Y-43996507D01*
X67160723Y-43996507D01*
X67169157Y-43999142D01*
X67177992Y-43999304D01*
X67197799Y-43999667D01*
X67312499Y-44001770D01*
X67321015Y-43999448D01*
X67321017Y-43999448D01*
X67442298Y-43966383D01*
X67442301Y-43966382D01*
X67450817Y-43964060D01*
X67471281Y-43951495D01*
X67561671Y-43895996D01*
X67629101Y-43877693D01*
X67695264Y-43898445D01*
X67782313Y-43956390D01*
X67874188Y-43985093D01*
X67910722Y-43996507D01*
X67910723Y-43996507D01*
X67919157Y-43999142D01*
X67927992Y-43999304D01*
X67947799Y-43999667D01*
X68062499Y-44001770D01*
X68071015Y-43999448D01*
X68071017Y-43999448D01*
X68192298Y-43966383D01*
X68192301Y-43966382D01*
X68200817Y-43964060D01*
X68221281Y-43951495D01*
X68311671Y-43895996D01*
X68379101Y-43877693D01*
X68445264Y-43898445D01*
X68532313Y-43956390D01*
X68624188Y-43985093D01*
X68660722Y-43996507D01*
X68660723Y-43996507D01*
X68669157Y-43999142D01*
X68677992Y-43999304D01*
X68697799Y-43999667D01*
X68812499Y-44001770D01*
X68821015Y-43999448D01*
X68821017Y-43999448D01*
X68942298Y-43966383D01*
X68942301Y-43966382D01*
X68950817Y-43964060D01*
X68951019Y-43964800D01*
X69013276Y-43957115D01*
X69076239Y-43987404D01*
X69112831Y-44046926D01*
X69111435Y-44116781D01*
X69103665Y-44135770D01*
X69074120Y-44193755D01*
X69074112Y-44193773D01*
X69072643Y-44196656D01*
X69071483Y-44199679D01*
X69071479Y-44199687D01*
X68956199Y-44500000D01*
X68952442Y-44509788D01*
X68865632Y-44833769D01*
X68858018Y-44881843D01*
X68813931Y-45160195D01*
X68813162Y-45165050D01*
X68812992Y-45168299D01*
X68812991Y-45168306D01*
X68812248Y-45182490D01*
X68789082Y-45248407D01*
X68733955Y-45291336D01*
X68688418Y-45300000D01*
X64706794Y-45300000D01*
X64639755Y-45280315D01*
X64594000Y-45227511D01*
X64584056Y-45158353D01*
X64614861Y-45092787D01*
X64624917Y-45081678D01*
X64669200Y-45032754D01*
X64731710Y-44903733D01*
X64755496Y-44762354D01*
X64755647Y-44750000D01*
X64754763Y-44743823D01*
X64736575Y-44616824D01*
X64735323Y-44608082D01*
X64675984Y-44477572D01*
X64670218Y-44470881D01*
X64670216Y-44470877D01*
X64658163Y-44456889D01*
X64629314Y-44393253D01*
X64639449Y-44324123D01*
X64660170Y-44292731D01*
X64663270Y-44289306D01*
X64663272Y-44289304D01*
X64669200Y-44282754D01*
X64731710Y-44153733D01*
X64755496Y-44012354D01*
X64755647Y-44000000D01*
X64754763Y-43993823D01*
X64736575Y-43866824D01*
X64735323Y-43858082D01*
X64675984Y-43727572D01*
X64652693Y-43700541D01*
X64625027Y-43668434D01*
X64582400Y-43618963D01*
X64462095Y-43540985D01*
X64324739Y-43499907D01*
X64315905Y-43499853D01*
X64226054Y-43499304D01*
X64181376Y-43499031D01*
X64043529Y-43538428D01*
X63940648Y-43603340D01*
X63873448Y-43622465D01*
X63807038Y-43602523D01*
X63719511Y-43545791D01*
X63719507Y-43545789D01*
X63712095Y-43540985D01*
X63574739Y-43499907D01*
X63565905Y-43499853D01*
X63476054Y-43499304D01*
X63431376Y-43499031D01*
X63293529Y-43538428D01*
X63172280Y-43614930D01*
X63166435Y-43621548D01*
X63166433Y-43621550D01*
X63083223Y-43715768D01*
X63083221Y-43715770D01*
X63077377Y-43722388D01*
X63016447Y-43852163D01*
X63015088Y-43860888D01*
X63015088Y-43860890D01*
X62995750Y-43985093D01*
X62994391Y-43993823D01*
X63002019Y-44052159D01*
X63011475Y-44124466D01*
X63012980Y-44135979D01*
X63070720Y-44267203D01*
X63093586Y-44294406D01*
X63121654Y-44358387D01*
X63110675Y-44427388D01*
X63091607Y-44456276D01*
X63077377Y-44472388D01*
X63016447Y-44602163D01*
X63015088Y-44610888D01*
X63015088Y-44610890D01*
X63001136Y-44700500D01*
X62994391Y-44743823D01*
X62995537Y-44752585D01*
X63010915Y-44870185D01*
X63012980Y-44885979D01*
X63070720Y-45017203D01*
X63137135Y-45096214D01*
X63165203Y-45160195D01*
X63154223Y-45229197D01*
X63107682Y-45281309D01*
X63042214Y-45300000D01*
X38311582Y-45300000D01*
X38244543Y-45280315D01*
X38198788Y-45227511D01*
X38187752Y-45182490D01*
X38187009Y-45168306D01*
X38187008Y-45168299D01*
X38186838Y-45165050D01*
X38186070Y-45160195D01*
X38141982Y-44881843D01*
X38134368Y-44833769D01*
X38047558Y-44509788D01*
X38043801Y-44500000D01*
X37928521Y-44199687D01*
X37928517Y-44199679D01*
X37927357Y-44196656D01*
X37909539Y-44161685D01*
X37819561Y-43985093D01*
X37775085Y-43897804D01*
X37735492Y-43836837D01*
X37594179Y-43619234D01*
X37594175Y-43619229D01*
X37592407Y-43616506D01*
X37590366Y-43613986D01*
X37590362Y-43613980D01*
X37574663Y-43594594D01*
X41298074Y-43594594D01*
X41299037Y-43600198D01*
X41299037Y-43600199D01*
X41321407Y-43730384D01*
X41335438Y-43812043D01*
X41411804Y-44019043D01*
X41524614Y-44208659D01*
X41670090Y-44374543D01*
X41843360Y-44511137D01*
X42038620Y-44613869D01*
X42044055Y-44615557D01*
X42044056Y-44615557D01*
X42167003Y-44653733D01*
X42249333Y-44679297D01*
X42254978Y-44679965D01*
X42254982Y-44679966D01*
X42352257Y-44691479D01*
X42428476Y-44700500D01*
X44555970Y-44700500D01*
X44719711Y-44685454D01*
X44932064Y-44625565D01*
X45129947Y-44527980D01*
X45175689Y-44493823D01*
X48994391Y-44493823D01*
X49003686Y-44564901D01*
X49010310Y-44615557D01*
X49012980Y-44635979D01*
X49070720Y-44767203D01*
X49162970Y-44876948D01*
X49282313Y-44956390D01*
X49378809Y-44986537D01*
X49410722Y-44996507D01*
X49410723Y-44996507D01*
X49419157Y-44999142D01*
X49427992Y-44999304D01*
X49447799Y-44999667D01*
X49562499Y-45001770D01*
X49571015Y-44999448D01*
X49571017Y-44999448D01*
X49692298Y-44966383D01*
X49692301Y-44966382D01*
X49700817Y-44964060D01*
X49799069Y-44903733D01*
X49815462Y-44893668D01*
X49815463Y-44893667D01*
X49822991Y-44889045D01*
X49919200Y-44782754D01*
X49981710Y-44653733D01*
X50005496Y-44512354D01*
X50005555Y-44507563D01*
X50005589Y-44504786D01*
X50005589Y-44504780D01*
X50005647Y-44500000D01*
X50004763Y-44493823D01*
X49986575Y-44366824D01*
X49985323Y-44358082D01*
X49925984Y-44227572D01*
X49909688Y-44208659D01*
X49894762Y-44191338D01*
X49832400Y-44118963D01*
X49712095Y-44040985D01*
X49574739Y-43999907D01*
X49565905Y-43999853D01*
X49476054Y-43999304D01*
X49431376Y-43999031D01*
X49293529Y-44038428D01*
X49172280Y-44114930D01*
X49166435Y-44121548D01*
X49166433Y-44121550D01*
X49083223Y-44215768D01*
X49083221Y-44215770D01*
X49077377Y-44222388D01*
X49016447Y-44352163D01*
X49015088Y-44360888D01*
X49015088Y-44360890D01*
X48997728Y-44472388D01*
X48994391Y-44493823D01*
X45175689Y-44493823D01*
X45306733Y-44395967D01*
X45456501Y-44233949D01*
X45460603Y-44227448D01*
X45571202Y-44052159D01*
X45571203Y-44052157D01*
X45574236Y-44047350D01*
X45655235Y-43844323D01*
X57994391Y-43844323D01*
X57997433Y-43867584D01*
X58010260Y-43965675D01*
X58012980Y-43986479D01*
X58070720Y-44117703D01*
X58077407Y-44125658D01*
X58139635Y-44199687D01*
X58162970Y-44227448D01*
X58181143Y-44239545D01*
X58249618Y-44285126D01*
X58282313Y-44306890D01*
X58378809Y-44337037D01*
X58410722Y-44347007D01*
X58410723Y-44347007D01*
X58419157Y-44349642D01*
X58427992Y-44349804D01*
X58440920Y-44350041D01*
X58562499Y-44352270D01*
X58571015Y-44349948D01*
X58571017Y-44349948D01*
X58692298Y-44316883D01*
X58692301Y-44316882D01*
X58700817Y-44314560D01*
X58822991Y-44239545D01*
X58855375Y-44203768D01*
X58913272Y-44139803D01*
X58919200Y-44133254D01*
X58981710Y-44004233D01*
X59005496Y-43862854D01*
X59005647Y-43850500D01*
X59004763Y-43844323D01*
X58986575Y-43717324D01*
X58985323Y-43708582D01*
X58925984Y-43578072D01*
X58832400Y-43469463D01*
X58712095Y-43391485D01*
X58574739Y-43350407D01*
X58565905Y-43350353D01*
X58477357Y-43349812D01*
X58431376Y-43349531D01*
X58293529Y-43388928D01*
X58172280Y-43465430D01*
X58166435Y-43472048D01*
X58166433Y-43472050D01*
X58083223Y-43566268D01*
X58083221Y-43566270D01*
X58077377Y-43572888D01*
X58016447Y-43702663D01*
X58015088Y-43711388D01*
X58015088Y-43711390D01*
X57996360Y-43831678D01*
X57994391Y-43844323D01*
X45655235Y-43844323D01*
X45655994Y-43842421D01*
X45667863Y-43782754D01*
X45682616Y-43708582D01*
X45699038Y-43626024D01*
X45699131Y-43618963D01*
X45701852Y-43411095D01*
X45701852Y-43411090D01*
X45701926Y-43405406D01*
X45698678Y-43386501D01*
X45665525Y-43193560D01*
X45665524Y-43193557D01*
X45664562Y-43187957D01*
X45592942Y-42993823D01*
X53244391Y-42993823D01*
X53250224Y-43038428D01*
X53261631Y-43125660D01*
X53262980Y-43135979D01*
X53320720Y-43267203D01*
X53333792Y-43282754D01*
X53397112Y-43358082D01*
X53412970Y-43376948D01*
X53532313Y-43456390D01*
X53624188Y-43485093D01*
X53660722Y-43496507D01*
X53660723Y-43496507D01*
X53669157Y-43499142D01*
X53677992Y-43499304D01*
X53697799Y-43499667D01*
X53812499Y-43501770D01*
X53821015Y-43499448D01*
X53821017Y-43499448D01*
X53942298Y-43466383D01*
X53942301Y-43466382D01*
X53950817Y-43464060D01*
X53971281Y-43451495D01*
X54061671Y-43395996D01*
X54129101Y-43377693D01*
X54195264Y-43398445D01*
X54282313Y-43456390D01*
X54374188Y-43485093D01*
X54410722Y-43496507D01*
X54410723Y-43496507D01*
X54419157Y-43499142D01*
X54427992Y-43499304D01*
X54447799Y-43499667D01*
X54562499Y-43501770D01*
X54571015Y-43499448D01*
X54571017Y-43499448D01*
X54692298Y-43466383D01*
X54692301Y-43466382D01*
X54700817Y-43464060D01*
X54721281Y-43451495D01*
X54811671Y-43395996D01*
X54879101Y-43377693D01*
X54945264Y-43398445D01*
X55032313Y-43456390D01*
X55124188Y-43485093D01*
X55160722Y-43496507D01*
X55160723Y-43496507D01*
X55169157Y-43499142D01*
X55177992Y-43499304D01*
X55197799Y-43499667D01*
X55312499Y-43501770D01*
X55321015Y-43499448D01*
X55321017Y-43499448D01*
X55442298Y-43466383D01*
X55442301Y-43466382D01*
X55450817Y-43464060D01*
X55541550Y-43408350D01*
X55565462Y-43393668D01*
X55565463Y-43393667D01*
X55572991Y-43389045D01*
X55598476Y-43360890D01*
X55663272Y-43289303D01*
X55669200Y-43282754D01*
X55731710Y-43153733D01*
X55755496Y-43012354D01*
X55755647Y-43000000D01*
X55754763Y-42993823D01*
X55736575Y-42866824D01*
X55735323Y-42858082D01*
X55675984Y-42727572D01*
X55653111Y-42701026D01*
X55625027Y-42668434D01*
X55582400Y-42618963D01*
X55462095Y-42540985D01*
X55324739Y-42499907D01*
X55315905Y-42499853D01*
X55227357Y-42499312D01*
X55181376Y-42499031D01*
X55043529Y-42538428D01*
X54940648Y-42603340D01*
X54873448Y-42622465D01*
X54807038Y-42602523D01*
X54719511Y-42545791D01*
X54719507Y-42545789D01*
X54712095Y-42540985D01*
X54574739Y-42499907D01*
X54565905Y-42499853D01*
X54477357Y-42499312D01*
X54431376Y-42499031D01*
X54293529Y-42538428D01*
X54190648Y-42603340D01*
X54123448Y-42622465D01*
X54057038Y-42602523D01*
X53969511Y-42545791D01*
X53969507Y-42545789D01*
X53962095Y-42540985D01*
X53824739Y-42499907D01*
X53815905Y-42499853D01*
X53727357Y-42499312D01*
X53681376Y-42499031D01*
X53543529Y-42538428D01*
X53422280Y-42614930D01*
X53416435Y-42621548D01*
X53416433Y-42621550D01*
X53333223Y-42715768D01*
X53333221Y-42715770D01*
X53327377Y-42722388D01*
X53266447Y-42852163D01*
X53265088Y-42860888D01*
X53265088Y-42860890D01*
X53246394Y-42980957D01*
X53244391Y-42993823D01*
X45592942Y-42993823D01*
X45588196Y-42980957D01*
X45475386Y-42791341D01*
X45329910Y-42625457D01*
X45156640Y-42488863D01*
X45151609Y-42486216D01*
X44966415Y-42388780D01*
X44966414Y-42388780D01*
X44961380Y-42386131D01*
X44750667Y-42320703D01*
X44745022Y-42320035D01*
X44745018Y-42320034D01*
X44647743Y-42308521D01*
X44571524Y-42299500D01*
X42444030Y-42299500D01*
X42280289Y-42314546D01*
X42067936Y-42374435D01*
X41870053Y-42472020D01*
X41693267Y-42604033D01*
X41543499Y-42766051D01*
X41540465Y-42770860D01*
X41540464Y-42770861D01*
X41450217Y-42913895D01*
X41425764Y-42952650D01*
X41344006Y-43157579D01*
X41342896Y-43163160D01*
X41342895Y-43163163D01*
X41329524Y-43230384D01*
X41300962Y-43373976D01*
X41300888Y-43379663D01*
X41300887Y-43379668D01*
X41298253Y-43580884D01*
X41298074Y-43594594D01*
X37574663Y-43594594D01*
X37383367Y-43358363D01*
X37383365Y-43358361D01*
X37381327Y-43355844D01*
X37144156Y-43118673D01*
X37133714Y-43110217D01*
X36886020Y-42909638D01*
X36886014Y-42909634D01*
X36883494Y-42907593D01*
X36880771Y-42905825D01*
X36880766Y-42905821D01*
X36604923Y-42726686D01*
X36604924Y-42726686D01*
X36602196Y-42724915D01*
X36384822Y-42614158D01*
X36306237Y-42574117D01*
X36306236Y-42574117D01*
X36303344Y-42572643D01*
X36300321Y-42571483D01*
X36300313Y-42571479D01*
X35993235Y-42453602D01*
X35993228Y-42453600D01*
X35990212Y-42452442D01*
X35666231Y-42365632D01*
X35606733Y-42356208D01*
X35338173Y-42313672D01*
X35338164Y-42313671D01*
X35334950Y-42313162D01*
X35331701Y-42312992D01*
X35331694Y-42312991D01*
X35317510Y-42312248D01*
X35251593Y-42289082D01*
X35208664Y-42233955D01*
X35200000Y-42188418D01*
X35200000Y-41493823D01*
X37859391Y-41493823D01*
X37860537Y-41502585D01*
X37875915Y-41620185D01*
X37877980Y-41635979D01*
X37935720Y-41767203D01*
X38027970Y-41876948D01*
X38087642Y-41916669D01*
X38130231Y-41945019D01*
X38147313Y-41956390D01*
X38243809Y-41986537D01*
X38275722Y-41996507D01*
X38275723Y-41996507D01*
X38284157Y-41999142D01*
X38292992Y-41999304D01*
X38312799Y-41999667D01*
X38427499Y-42001770D01*
X38436015Y-41999448D01*
X38436017Y-41999448D01*
X38557298Y-41966383D01*
X38557301Y-41966382D01*
X38565817Y-41964060D01*
X38687991Y-41889045D01*
X38784200Y-41782754D01*
X38846710Y-41653733D01*
X38870496Y-41512354D01*
X38870647Y-41500000D01*
X38869763Y-41493823D01*
X39244391Y-41493823D01*
X39245537Y-41502585D01*
X39260915Y-41620185D01*
X39262980Y-41635979D01*
X39320720Y-41767203D01*
X39412970Y-41876948D01*
X39472642Y-41916669D01*
X39515231Y-41945019D01*
X39532313Y-41956390D01*
X39628809Y-41986537D01*
X39660722Y-41996507D01*
X39660723Y-41996507D01*
X39669157Y-41999142D01*
X39677992Y-41999304D01*
X39697799Y-41999667D01*
X39812499Y-42001770D01*
X39821015Y-41999448D01*
X39821017Y-41999448D01*
X39942298Y-41966383D01*
X39942301Y-41966382D01*
X39950817Y-41964060D01*
X40072991Y-41889045D01*
X40169200Y-41782754D01*
X40231710Y-41653733D01*
X40255496Y-41512354D01*
X40255647Y-41500000D01*
X40254763Y-41493823D01*
X40236575Y-41366824D01*
X40235323Y-41358082D01*
X40175984Y-41227572D01*
X40164342Y-41214060D01*
X40103687Y-41143668D01*
X40082400Y-41118963D01*
X39962095Y-41040985D01*
X39824739Y-40999907D01*
X39815905Y-40999853D01*
X39727357Y-40999312D01*
X39681376Y-40999031D01*
X39543529Y-41038428D01*
X39422280Y-41114930D01*
X39416435Y-41121548D01*
X39416433Y-41121550D01*
X39333223Y-41215768D01*
X39333221Y-41215770D01*
X39327377Y-41222388D01*
X39266447Y-41352163D01*
X39265088Y-41360888D01*
X39265088Y-41360890D01*
X39256674Y-41414930D01*
X39244391Y-41493823D01*
X38869763Y-41493823D01*
X38851575Y-41366824D01*
X38850323Y-41358082D01*
X38790984Y-41227572D01*
X38779342Y-41214060D01*
X38718687Y-41143668D01*
X38697400Y-41118963D01*
X38577095Y-41040985D01*
X38439739Y-40999907D01*
X38430905Y-40999853D01*
X38342357Y-40999312D01*
X38296376Y-40999031D01*
X38158529Y-41038428D01*
X38037280Y-41114930D01*
X38031435Y-41121548D01*
X38031433Y-41121550D01*
X37948223Y-41215768D01*
X37948221Y-41215770D01*
X37942377Y-41222388D01*
X37881447Y-41352163D01*
X37880088Y-41360888D01*
X37880088Y-41360890D01*
X37871674Y-41414930D01*
X37859391Y-41493823D01*
X35200000Y-41493823D01*
X35200000Y-37793823D01*
X36894391Y-37793823D01*
X36895537Y-37802585D01*
X36910786Y-37919197D01*
X36912980Y-37935979D01*
X36970720Y-38067203D01*
X36999516Y-38101460D01*
X37018401Y-38123926D01*
X37062970Y-38176948D01*
X37107030Y-38206277D01*
X37174907Y-38251460D01*
X37182313Y-38256390D01*
X37277094Y-38286001D01*
X37310722Y-38296507D01*
X37310723Y-38296507D01*
X37319157Y-38299142D01*
X37327992Y-38299304D01*
X37347799Y-38299667D01*
X37462499Y-38301770D01*
X37471015Y-38299448D01*
X37471017Y-38299448D01*
X37592298Y-38266383D01*
X37592301Y-38266382D01*
X37600817Y-38264060D01*
X37694926Y-38206277D01*
X37715462Y-38193668D01*
X37715463Y-38193667D01*
X37722991Y-38189045D01*
X37819200Y-38082754D01*
X37881710Y-37953733D01*
X37905496Y-37812354D01*
X37905647Y-37800000D01*
X37904763Y-37793823D01*
X37886575Y-37666824D01*
X37885323Y-37658082D01*
X37825984Y-37527572D01*
X37812836Y-37512313D01*
X37783988Y-37448677D01*
X37788414Y-37418488D01*
X37781596Y-37421031D01*
X37713323Y-37406179D01*
X37705305Y-37401401D01*
X37693375Y-37393668D01*
X37612095Y-37340985D01*
X37474739Y-37299907D01*
X37465905Y-37299853D01*
X37377357Y-37299312D01*
X37331376Y-37299031D01*
X37193529Y-37338428D01*
X37072280Y-37414930D01*
X37066435Y-37421548D01*
X37066433Y-37421550D01*
X36983223Y-37515768D01*
X36983221Y-37515770D01*
X36977377Y-37522388D01*
X36916447Y-37652163D01*
X36915088Y-37660888D01*
X36915088Y-37660890D01*
X36897352Y-37774803D01*
X36894391Y-37793823D01*
X35200000Y-37793823D01*
X35200000Y-37462056D01*
X35219685Y-37395017D01*
X35272489Y-37349262D01*
X35341647Y-37339318D01*
X35406651Y-37369618D01*
X35407285Y-37370185D01*
X35412970Y-37376948D01*
X35449705Y-37401401D01*
X35502163Y-37436320D01*
X35532313Y-37456390D01*
X35609128Y-37480388D01*
X35660722Y-37496507D01*
X35660723Y-37496507D01*
X35669157Y-37499142D01*
X35677992Y-37499304D01*
X35697799Y-37499667D01*
X35812499Y-37501770D01*
X35821015Y-37499448D01*
X35821017Y-37499448D01*
X35942298Y-37466383D01*
X35942301Y-37466382D01*
X35950817Y-37464060D01*
X36063265Y-37395017D01*
X36065462Y-37393668D01*
X36065463Y-37393667D01*
X36072991Y-37389045D01*
X36098476Y-37360890D01*
X36163272Y-37289303D01*
X36169200Y-37282754D01*
X36231710Y-37153733D01*
X36255496Y-37012354D01*
X36255647Y-37000000D01*
X36254763Y-36993823D01*
X36236575Y-36866824D01*
X36235323Y-36858082D01*
X36175984Y-36727572D01*
X36170216Y-36720877D01*
X36121258Y-36664060D01*
X36082400Y-36618963D01*
X35962095Y-36540985D01*
X35824739Y-36499907D01*
X35815905Y-36499853D01*
X35727357Y-36499312D01*
X35681376Y-36499031D01*
X35543529Y-36538428D01*
X35422280Y-36614930D01*
X35416433Y-36621550D01*
X35409703Y-36627278D01*
X35408734Y-36626140D01*
X35357810Y-36658192D01*
X35287944Y-36657532D01*
X35229525Y-36619204D01*
X35201101Y-36555378D01*
X35200000Y-36538890D01*
X35200000Y-32811582D01*
X35219685Y-32744543D01*
X35272489Y-32698788D01*
X35317510Y-32687752D01*
X35331694Y-32687009D01*
X35331701Y-32687008D01*
X35334950Y-32686838D01*
X35338164Y-32686329D01*
X35338173Y-32686328D01*
X35610228Y-32643238D01*
X35666231Y-32634368D01*
X35990212Y-32547558D01*
X35993228Y-32546400D01*
X35993235Y-32546398D01*
X36272936Y-32439030D01*
X36342577Y-32433382D01*
X36404216Y-32466282D01*
X36438284Y-32527283D01*
X36431935Y-32602247D01*
X36414956Y-32643238D01*
X36394318Y-32800000D01*
X36395379Y-32808059D01*
X36398439Y-32831302D01*
X36399500Y-32847487D01*
X36399500Y-35452513D01*
X36398439Y-35468698D01*
X36394318Y-35500000D01*
X36399500Y-35539361D01*
X36414956Y-35656762D01*
X36418065Y-35664269D01*
X36418066Y-35664271D01*
X36471664Y-35793668D01*
X36475464Y-35802841D01*
X36571718Y-35928282D01*
X36578165Y-35933229D01*
X36596770Y-35947505D01*
X36608965Y-35958200D01*
X37860431Y-37209666D01*
X37893916Y-37270989D01*
X37890979Y-37312061D01*
X37907118Y-37307371D01*
X37974103Y-37327242D01*
X37994455Y-37343690D01*
X38538844Y-37888079D01*
X38572329Y-37949402D01*
X38567345Y-38019094D01*
X38525473Y-38075027D01*
X38460009Y-38099444D01*
X38450406Y-38099758D01*
X38343203Y-38099103D01*
X38331376Y-38099031D01*
X38193529Y-38138428D01*
X38072280Y-38214930D01*
X38066435Y-38221548D01*
X38066433Y-38221550D01*
X37983223Y-38315768D01*
X37983221Y-38315770D01*
X37977377Y-38322388D01*
X37916447Y-38452163D01*
X37915088Y-38460888D01*
X37915088Y-38460890D01*
X37907075Y-38512354D01*
X37894391Y-38593823D01*
X37912980Y-38735979D01*
X37970720Y-38867203D01*
X37978912Y-38876948D01*
X38052137Y-38964060D01*
X38062970Y-38976948D01*
X38070324Y-38981843D01*
X38133604Y-39023966D01*
X38182313Y-39056390D01*
X38252896Y-39078441D01*
X38310722Y-39096507D01*
X38310723Y-39096507D01*
X38319157Y-39099142D01*
X38327992Y-39099304D01*
X38347799Y-39099667D01*
X38462499Y-39101770D01*
X38471015Y-39099448D01*
X38471017Y-39099448D01*
X38592298Y-39066383D01*
X38592301Y-39066382D01*
X38600817Y-39064060D01*
X38706283Y-38999304D01*
X38715462Y-38993668D01*
X38715463Y-38993667D01*
X38722991Y-38989045D01*
X38743504Y-38966383D01*
X38813272Y-38889303D01*
X38819200Y-38882754D01*
X38881710Y-38753733D01*
X38905496Y-38612354D01*
X38905647Y-38600000D01*
X38904763Y-38593823D01*
X38900728Y-38565652D01*
X38910710Y-38496499D01*
X38956495Y-38443720D01*
X39023545Y-38424073D01*
X39090573Y-38443795D01*
X39111157Y-38460392D01*
X41179300Y-40528535D01*
X41189995Y-40540730D01*
X41209218Y-40565782D01*
X41277841Y-40618438D01*
X41334659Y-40662036D01*
X41342167Y-40665146D01*
X41473229Y-40719434D01*
X41473231Y-40719435D01*
X41480738Y-40722544D01*
X41637500Y-40743182D01*
X41645559Y-40742121D01*
X41786203Y-40723605D01*
X41794262Y-40722544D01*
X41801769Y-40719435D01*
X41801771Y-40719434D01*
X41932833Y-40665146D01*
X41940341Y-40662036D01*
X42065782Y-40565782D01*
X42162036Y-40440341D01*
X42165526Y-40431915D01*
X42219434Y-40301771D01*
X42219435Y-40301769D01*
X42222544Y-40294262D01*
X42243182Y-40137500D01*
X42241793Y-40126948D01*
X42238411Y-40101257D01*
X42249177Y-40032222D01*
X42295558Y-39979967D01*
X42362827Y-39961082D01*
X42413851Y-39972737D01*
X42450691Y-39989954D01*
X42500861Y-40013403D01*
X42500868Y-40013406D01*
X42504247Y-40014985D01*
X42507799Y-40016149D01*
X42507798Y-40016149D01*
X42810052Y-40115233D01*
X42810058Y-40115235D01*
X42813601Y-40116396D01*
X42817254Y-40117123D01*
X42817263Y-40117125D01*
X43129238Y-40179181D01*
X43132898Y-40179909D01*
X43136613Y-40180192D01*
X43136616Y-40180192D01*
X43453787Y-40204318D01*
X43453794Y-40204318D01*
X43457513Y-40204601D01*
X43461243Y-40204435D01*
X43461250Y-40204435D01*
X43779003Y-40190284D01*
X43779010Y-40190283D01*
X43782743Y-40190117D01*
X44103877Y-40136666D01*
X44120317Y-40131843D01*
X44412683Y-40046072D01*
X44412690Y-40046070D01*
X44416264Y-40045021D01*
X44419693Y-40043548D01*
X44711949Y-39917986D01*
X44711954Y-39917983D01*
X44715379Y-39916512D01*
X44996888Y-39752998D01*
X44999870Y-39750747D01*
X45253734Y-39559100D01*
X45253740Y-39559095D01*
X45256715Y-39556849D01*
X45491095Y-39330906D01*
X45525678Y-39288428D01*
X45694277Y-39081335D01*
X45694278Y-39081334D01*
X45696633Y-39078441D01*
X45870353Y-38803112D01*
X45871948Y-38799745D01*
X45871952Y-38799738D01*
X46008138Y-38512283D01*
X46009737Y-38508908D01*
X46112767Y-38200089D01*
X46177950Y-37881129D01*
X46178840Y-37870185D01*
X46204165Y-37558828D01*
X46204165Y-37558819D01*
X46204342Y-37556648D01*
X46204365Y-37554456D01*
X46204912Y-37502208D01*
X46204912Y-37502205D01*
X46204935Y-37500000D01*
X46185344Y-37175038D01*
X46126855Y-36854783D01*
X46061173Y-36643253D01*
X46031424Y-36547445D01*
X46031423Y-36547442D01*
X46030315Y-36543874D01*
X46028081Y-36538890D01*
X45906211Y-36267084D01*
X45897123Y-36246814D01*
X45729208Y-35967908D01*
X45589716Y-35789045D01*
X45531298Y-35714138D01*
X45529002Y-35711194D01*
X45507964Y-35690045D01*
X45363695Y-35545019D01*
X45299405Y-35480392D01*
X45296470Y-35478078D01*
X45189593Y-35393823D01*
X47094391Y-35393823D01*
X47102066Y-35452513D01*
X47107858Y-35496806D01*
X47112980Y-35535979D01*
X47170720Y-35667203D01*
X47199516Y-35701460D01*
X47230613Y-35738454D01*
X47262970Y-35776948D01*
X47382313Y-35856390D01*
X47443988Y-35875658D01*
X47510722Y-35896507D01*
X47510723Y-35896507D01*
X47519157Y-35899142D01*
X47527992Y-35899304D01*
X47547799Y-35899667D01*
X47662499Y-35901770D01*
X47671015Y-35899448D01*
X47671017Y-35899448D01*
X47792298Y-35866383D01*
X47792301Y-35866382D01*
X47800817Y-35864060D01*
X47922991Y-35789045D01*
X48019200Y-35682754D01*
X48081710Y-35553733D01*
X48105496Y-35412354D01*
X48105555Y-35407563D01*
X48105589Y-35404786D01*
X48105589Y-35404780D01*
X48105647Y-35400000D01*
X48104763Y-35393823D01*
X48086575Y-35266824D01*
X48085323Y-35258082D01*
X48025984Y-35127572D01*
X47932400Y-35018963D01*
X47893614Y-34993823D01*
X50294391Y-34993823D01*
X50298017Y-35021550D01*
X50311006Y-35120881D01*
X50312980Y-35135979D01*
X50370720Y-35267203D01*
X50462970Y-35376948D01*
X50470324Y-35381843D01*
X50573384Y-35450446D01*
X50582313Y-35456390D01*
X50651734Y-35478078D01*
X50710722Y-35496507D01*
X50710723Y-35496507D01*
X50719157Y-35499142D01*
X50727992Y-35499304D01*
X50747799Y-35499667D01*
X50862499Y-35501770D01*
X50871015Y-35499448D01*
X50871017Y-35499448D01*
X50992298Y-35466383D01*
X50992301Y-35466382D01*
X51000817Y-35464060D01*
X51112864Y-35395263D01*
X51115462Y-35393668D01*
X51115463Y-35393667D01*
X51122991Y-35389045D01*
X51219200Y-35282754D01*
X51281710Y-35153733D01*
X51305496Y-35012354D01*
X51305647Y-35000000D01*
X51304763Y-34993823D01*
X51286575Y-34866824D01*
X51285323Y-34858082D01*
X51225984Y-34727572D01*
X51214342Y-34714060D01*
X51153687Y-34643668D01*
X51132400Y-34618963D01*
X51012095Y-34540985D01*
X50874739Y-34499907D01*
X50865905Y-34499853D01*
X50777357Y-34499312D01*
X50731376Y-34499031D01*
X50593529Y-34538428D01*
X50472280Y-34614930D01*
X50466435Y-34621548D01*
X50466433Y-34621550D01*
X50383223Y-34715768D01*
X50383221Y-34715770D01*
X50377377Y-34722388D01*
X50316447Y-34852163D01*
X50315088Y-34860888D01*
X50315088Y-34860890D01*
X50299093Y-34963622D01*
X50294391Y-34993823D01*
X47893614Y-34993823D01*
X47812095Y-34940985D01*
X47674739Y-34899907D01*
X47665905Y-34899853D01*
X47577357Y-34899312D01*
X47531376Y-34899031D01*
X47393529Y-34938428D01*
X47272280Y-35014930D01*
X47266435Y-35021548D01*
X47266433Y-35021550D01*
X47183223Y-35115768D01*
X47183221Y-35115770D01*
X47177377Y-35122388D01*
X47116447Y-35252163D01*
X47115089Y-35260886D01*
X47115088Y-35260890D01*
X47095750Y-35385093D01*
X47094391Y-35393823D01*
X45189593Y-35393823D01*
X45046689Y-35281167D01*
X45046684Y-35281164D01*
X45043743Y-35278845D01*
X45040545Y-35276897D01*
X45040541Y-35276894D01*
X44768915Y-35111417D01*
X44768910Y-35111414D01*
X44765720Y-35109471D01*
X44469362Y-34974726D01*
X44465799Y-34973599D01*
X44465796Y-34973598D01*
X44162528Y-34877686D01*
X44162521Y-34877684D01*
X44158963Y-34876559D01*
X44155295Y-34875869D01*
X44155290Y-34875868D01*
X43842693Y-34817085D01*
X43842692Y-34817085D01*
X43839018Y-34816394D01*
X43709835Y-34807927D01*
X43517877Y-34795345D01*
X43517870Y-34795345D01*
X43514163Y-34795102D01*
X43189102Y-34812991D01*
X43185422Y-34813643D01*
X43185415Y-34813644D01*
X43037253Y-34839903D01*
X42868545Y-34869803D01*
X42864971Y-34870892D01*
X42864972Y-34870892D01*
X42560713Y-34963622D01*
X42560705Y-34963625D01*
X42557135Y-34964713D01*
X42553718Y-34966224D01*
X42553717Y-34966224D01*
X42443547Y-35014930D01*
X42259383Y-35096348D01*
X42179178Y-35144065D01*
X41982819Y-35260886D01*
X41982813Y-35260890D01*
X41979601Y-35262801D01*
X41976648Y-35265079D01*
X41976641Y-35265084D01*
X41824454Y-35382496D01*
X41721843Y-35461660D01*
X41719183Y-35464278D01*
X41719179Y-35464282D01*
X41681098Y-35501770D01*
X41489842Y-35690045D01*
X41286958Y-35944648D01*
X41284994Y-35947834D01*
X41284992Y-35947837D01*
X41211648Y-36066824D01*
X41116131Y-36221781D01*
X40979836Y-36517429D01*
X40880046Y-36827310D01*
X40880001Y-36827543D01*
X40844644Y-36886938D01*
X40782120Y-36918123D01*
X40724751Y-36914863D01*
X40683207Y-36902439D01*
X40683204Y-36902439D01*
X40674739Y-36899907D01*
X40665905Y-36899853D01*
X40577357Y-36899312D01*
X40531376Y-36899031D01*
X40393529Y-36938428D01*
X40272280Y-37014930D01*
X40266435Y-37021548D01*
X40266433Y-37021550D01*
X40183223Y-37115768D01*
X40183221Y-37115770D01*
X40177377Y-37122388D01*
X40116447Y-37252163D01*
X40115088Y-37260888D01*
X40115088Y-37260890D01*
X40095750Y-37385093D01*
X40094391Y-37393823D01*
X40095537Y-37402585D01*
X40099948Y-37436320D01*
X40089122Y-37505346D01*
X40042696Y-37557561D01*
X39975411Y-37576388D01*
X39908628Y-37555849D01*
X39889314Y-37540079D01*
X39138007Y-36788772D01*
X39104522Y-36727449D01*
X39106884Y-36694422D01*
X39096151Y-36697399D01*
X39029414Y-36676712D01*
X39010329Y-36661094D01*
X38543058Y-36193823D01*
X39094391Y-36193823D01*
X39112980Y-36335979D01*
X39170720Y-36467203D01*
X39192931Y-36493626D01*
X39220999Y-36557608D01*
X39217815Y-36577619D01*
X39285115Y-36592259D01*
X39294399Y-36597869D01*
X39365231Y-36645019D01*
X39382313Y-36656390D01*
X39478809Y-36686537D01*
X39510722Y-36696507D01*
X39510723Y-36696507D01*
X39519157Y-36699142D01*
X39527992Y-36699304D01*
X39547799Y-36699667D01*
X39662499Y-36701770D01*
X39671015Y-36699448D01*
X39671017Y-36699448D01*
X39792298Y-36666383D01*
X39792301Y-36666382D01*
X39800817Y-36664060D01*
X39922991Y-36589045D01*
X40019200Y-36482754D01*
X40081710Y-36353733D01*
X40105496Y-36212354D01*
X40105647Y-36200000D01*
X40104763Y-36193823D01*
X40086575Y-36066824D01*
X40085323Y-36058082D01*
X40025984Y-35927572D01*
X40003752Y-35901770D01*
X39972008Y-35864930D01*
X39932400Y-35818963D01*
X39812095Y-35740985D01*
X39674739Y-35699907D01*
X39665905Y-35699853D01*
X39577357Y-35699312D01*
X39531376Y-35699031D01*
X39393529Y-35738428D01*
X39272280Y-35814930D01*
X39266435Y-35821548D01*
X39266433Y-35821550D01*
X39183223Y-35915768D01*
X39183221Y-35915770D01*
X39177377Y-35922388D01*
X39116447Y-36052163D01*
X39115088Y-36060888D01*
X39115088Y-36060890D01*
X39095750Y-36185093D01*
X39094391Y-36193823D01*
X38543058Y-36193823D01*
X37636819Y-35287584D01*
X37603334Y-35226261D01*
X37600500Y-35199903D01*
X37600500Y-33593823D01*
X37894391Y-33593823D01*
X37912980Y-33735979D01*
X37970720Y-33867203D01*
X38062970Y-33976948D01*
X38070324Y-33981843D01*
X38148263Y-34033724D01*
X38182313Y-34056390D01*
X38278809Y-34086537D01*
X38310722Y-34096507D01*
X38310723Y-34096507D01*
X38319157Y-34099142D01*
X38327992Y-34099304D01*
X38347799Y-34099667D01*
X38462499Y-34101770D01*
X38471015Y-34099448D01*
X38471017Y-34099448D01*
X38592298Y-34066383D01*
X38592301Y-34066382D01*
X38600817Y-34064060D01*
X38722991Y-33989045D01*
X38730831Y-33980384D01*
X38793013Y-33911685D01*
X38819200Y-33882754D01*
X38881710Y-33753733D01*
X38882673Y-33748012D01*
X38920953Y-33691396D01*
X38985168Y-33663862D01*
X39054076Y-33675416D01*
X39105798Y-33722390D01*
X39113446Y-33737038D01*
X39167161Y-33859116D01*
X39167163Y-33859119D01*
X39170720Y-33867203D01*
X39262970Y-33976948D01*
X39270324Y-33981843D01*
X39348263Y-34033724D01*
X39382313Y-34056390D01*
X39478809Y-34086537D01*
X39510722Y-34096507D01*
X39510723Y-34096507D01*
X39519157Y-34099142D01*
X39527992Y-34099304D01*
X39547799Y-34099667D01*
X39662499Y-34101770D01*
X39671015Y-34099448D01*
X39671017Y-34099448D01*
X39792298Y-34066383D01*
X39792301Y-34066382D01*
X39800817Y-34064060D01*
X39922991Y-33989045D01*
X39930831Y-33980384D01*
X39993013Y-33911685D01*
X40019200Y-33882754D01*
X40081710Y-33753733D01*
X40101098Y-33638495D01*
X40131632Y-33575651D01*
X40191295Y-33539291D01*
X40261145Y-33540959D01*
X40311060Y-33571387D01*
X40455955Y-33716282D01*
X40463264Y-33724257D01*
X40487545Y-33753194D01*
X40520267Y-33772086D01*
X40529380Y-33777892D01*
X40551429Y-33793331D01*
X40551431Y-33793332D01*
X40560316Y-33799553D01*
X40570794Y-33802361D01*
X40574125Y-33803914D01*
X40577561Y-33805165D01*
X40586955Y-33810588D01*
X40597636Y-33812471D01*
X40597638Y-33812472D01*
X40624154Y-33817147D01*
X40634706Y-33819486D01*
X40671193Y-33829263D01*
X40708811Y-33825972D01*
X40719618Y-33825500D01*
X51404310Y-33825500D01*
X51471349Y-33845185D01*
X51491991Y-33861819D01*
X51991134Y-34360962D01*
X52024619Y-34422285D01*
X52019635Y-34491977D01*
X51977763Y-34547910D01*
X51969643Y-34553499D01*
X51872280Y-34614930D01*
X51866435Y-34621548D01*
X51866433Y-34621550D01*
X51783223Y-34715768D01*
X51783221Y-34715770D01*
X51777377Y-34722388D01*
X51716447Y-34852163D01*
X51715088Y-34860888D01*
X51715088Y-34860890D01*
X51699093Y-34963622D01*
X51694391Y-34993823D01*
X51698017Y-35021550D01*
X51711006Y-35120881D01*
X51712980Y-35135979D01*
X51770720Y-35267203D01*
X51862970Y-35376948D01*
X51870324Y-35381843D01*
X51973384Y-35450446D01*
X51982313Y-35456390D01*
X52051734Y-35478078D01*
X52110722Y-35496507D01*
X52110723Y-35496507D01*
X52119157Y-35499142D01*
X52127992Y-35499304D01*
X52147799Y-35499667D01*
X52262499Y-35501770D01*
X52271015Y-35499448D01*
X52271017Y-35499448D01*
X52392298Y-35466383D01*
X52392301Y-35466382D01*
X52400817Y-35464060D01*
X52512864Y-35395263D01*
X52515462Y-35393668D01*
X52515463Y-35393667D01*
X52522991Y-35389045D01*
X52552375Y-35356582D01*
X52611958Y-35320089D01*
X52681811Y-35321602D01*
X52739228Y-35360007D01*
X52753468Y-35376948D01*
X52760822Y-35381843D01*
X52863882Y-35450446D01*
X52872811Y-35456390D01*
X52942232Y-35478078D01*
X53001220Y-35496507D01*
X53001221Y-35496507D01*
X53009655Y-35499142D01*
X53018490Y-35499304D01*
X53038297Y-35499667D01*
X53152997Y-35501770D01*
X53161513Y-35499448D01*
X53161515Y-35499448D01*
X53231767Y-35480295D01*
X53301624Y-35481653D01*
X53359657Y-35520563D01*
X53387441Y-35584671D01*
X53376155Y-35653623D01*
X53352064Y-35687610D01*
X50826613Y-38213061D01*
X50765290Y-38246546D01*
X50738174Y-38249378D01*
X50690212Y-38249085D01*
X50681376Y-38249031D01*
X50543529Y-38288428D01*
X50422280Y-38364930D01*
X50416435Y-38371548D01*
X50416433Y-38371550D01*
X50333223Y-38465768D01*
X50333221Y-38465770D01*
X50327377Y-38472388D01*
X50266447Y-38602163D01*
X50265088Y-38610888D01*
X50265088Y-38610890D01*
X50246852Y-38728015D01*
X50244391Y-38743823D01*
X50245565Y-38752802D01*
X50261519Y-38874803D01*
X50262980Y-38885979D01*
X50320720Y-39017203D01*
X50412970Y-39126948D01*
X50511908Y-39192807D01*
X50556805Y-39246340D01*
X50565634Y-39315649D01*
X50536139Y-39378111D01*
X50458723Y-39465768D01*
X50458721Y-39465770D01*
X50452877Y-39472388D01*
X50391947Y-39602163D01*
X50390588Y-39610888D01*
X50390588Y-39610890D01*
X50373228Y-39722388D01*
X50369891Y-39743823D01*
X50371688Y-39757563D01*
X50387325Y-39877143D01*
X50388480Y-39885979D01*
X50446220Y-40017203D01*
X50458845Y-40032222D01*
X50528623Y-40115233D01*
X50538470Y-40126948D01*
X50566429Y-40145559D01*
X50644124Y-40197278D01*
X50689022Y-40250812D01*
X50697851Y-40320122D01*
X50667806Y-40383202D01*
X50608427Y-40420024D01*
X50575413Y-40424500D01*
X49937091Y-40424500D01*
X49870052Y-40404815D01*
X49843154Y-40381444D01*
X49832400Y-40368963D01*
X49712095Y-40290985D01*
X49574739Y-40249907D01*
X49565905Y-40249853D01*
X49477357Y-40249312D01*
X49431376Y-40249031D01*
X49293529Y-40288428D01*
X49172280Y-40364930D01*
X49166435Y-40371548D01*
X49166433Y-40371550D01*
X49083223Y-40465768D01*
X49083221Y-40465770D01*
X49077377Y-40472388D01*
X49016447Y-40602163D01*
X48994391Y-40743823D01*
X49001187Y-40795791D01*
X49010228Y-40864930D01*
X49012980Y-40885979D01*
X49070720Y-41017203D01*
X49088583Y-41038454D01*
X49147112Y-41108082D01*
X49162970Y-41126948D01*
X49282313Y-41206390D01*
X49359115Y-41230384D01*
X49410722Y-41246507D01*
X49410723Y-41246507D01*
X49419157Y-41249142D01*
X49427992Y-41249304D01*
X49439447Y-41249514D01*
X49562499Y-41251770D01*
X49571015Y-41249448D01*
X49571017Y-41249448D01*
X49692298Y-41216383D01*
X49692301Y-41216382D01*
X49700817Y-41214060D01*
X49822991Y-41139045D01*
X49835109Y-41125658D01*
X49843590Y-41116288D01*
X49903171Y-41079795D01*
X49935523Y-41075500D01*
X55563812Y-41075500D01*
X55630851Y-41095185D01*
X55651493Y-41111819D01*
X56209152Y-41669478D01*
X56242637Y-41730801D01*
X56243964Y-41743879D01*
X56244391Y-41743823D01*
X56260915Y-41870185D01*
X56262980Y-41885979D01*
X56320720Y-42017203D01*
X56412970Y-42126948D01*
X56532313Y-42206390D01*
X56609115Y-42230384D01*
X56660722Y-42246507D01*
X56660723Y-42246507D01*
X56669157Y-42249142D01*
X56677992Y-42249304D01*
X56697799Y-42249667D01*
X56812499Y-42251770D01*
X56821015Y-42249448D01*
X56821017Y-42249448D01*
X56942298Y-42216383D01*
X56942301Y-42216382D01*
X56950817Y-42214060D01*
X57072991Y-42139045D01*
X57085109Y-42125658D01*
X57093590Y-42116288D01*
X57153171Y-42079795D01*
X57185523Y-42075500D01*
X62769937Y-42075500D01*
X62836976Y-42095185D01*
X62864857Y-42119711D01*
X62875055Y-42131843D01*
X62912970Y-42176948D01*
X62920324Y-42181843D01*
X63021425Y-42249142D01*
X63032313Y-42256390D01*
X63128809Y-42286537D01*
X63160722Y-42296507D01*
X63160723Y-42296507D01*
X63169157Y-42299142D01*
X63177992Y-42299304D01*
X63197799Y-42299667D01*
X63312499Y-42301770D01*
X63321015Y-42299448D01*
X63321017Y-42299448D01*
X63442298Y-42266383D01*
X63442301Y-42266382D01*
X63450817Y-42264060D01*
X63572991Y-42189045D01*
X63669200Y-42082754D01*
X63731710Y-41953733D01*
X63755496Y-41812354D01*
X63755647Y-41800000D01*
X63753178Y-41782754D01*
X63736575Y-41666824D01*
X63735323Y-41658082D01*
X63675984Y-41527572D01*
X63605561Y-41445842D01*
X63576714Y-41382209D01*
X63575500Y-41364902D01*
X63575500Y-41243823D01*
X66744391Y-41243823D01*
X66751802Y-41300500D01*
X66760569Y-41367539D01*
X66762980Y-41385979D01*
X66820720Y-41517203D01*
X66912970Y-41626948D01*
X67032313Y-41706390D01*
X67110450Y-41730801D01*
X67160722Y-41746507D01*
X67160723Y-41746507D01*
X67169157Y-41749142D01*
X67177992Y-41749304D01*
X67197799Y-41749667D01*
X67312499Y-41751770D01*
X67321015Y-41749448D01*
X67321017Y-41749448D01*
X67442298Y-41716383D01*
X67442301Y-41716382D01*
X67450817Y-41714060D01*
X67523426Y-41669478D01*
X67561671Y-41645996D01*
X67629101Y-41627693D01*
X67695264Y-41648445D01*
X67709742Y-41658082D01*
X67782313Y-41706390D01*
X67860450Y-41730801D01*
X67910722Y-41746507D01*
X67910723Y-41746507D01*
X67919157Y-41749142D01*
X67927992Y-41749304D01*
X67947799Y-41749667D01*
X68062499Y-41751770D01*
X68071015Y-41749448D01*
X68071017Y-41749448D01*
X68192298Y-41716383D01*
X68192301Y-41716382D01*
X68200817Y-41714060D01*
X68273426Y-41669478D01*
X68311671Y-41645996D01*
X68379101Y-41627693D01*
X68445264Y-41648445D01*
X68459742Y-41658082D01*
X68532313Y-41706390D01*
X68610450Y-41730801D01*
X68660722Y-41746507D01*
X68660723Y-41746507D01*
X68669157Y-41749142D01*
X68677992Y-41749304D01*
X68697799Y-41749667D01*
X68812499Y-41751770D01*
X68821015Y-41749448D01*
X68821017Y-41749448D01*
X68942298Y-41716383D01*
X68942301Y-41716382D01*
X68950817Y-41714060D01*
X69061670Y-41645996D01*
X69065462Y-41643668D01*
X69065463Y-41643667D01*
X69072991Y-41639045D01*
X69169200Y-41532754D01*
X69231710Y-41403733D01*
X69255496Y-41262354D01*
X69255647Y-41250000D01*
X69254763Y-41243823D01*
X69236575Y-41116824D01*
X69235323Y-41108082D01*
X69175984Y-40977572D01*
X69082400Y-40868963D01*
X68962095Y-40790985D01*
X68824739Y-40749907D01*
X68815905Y-40749853D01*
X68727357Y-40749312D01*
X68681376Y-40749031D01*
X68543529Y-40788428D01*
X68440648Y-40853340D01*
X68373448Y-40872465D01*
X68307038Y-40852523D01*
X68219511Y-40795791D01*
X68219507Y-40795789D01*
X68212095Y-40790985D01*
X68074739Y-40749907D01*
X68065905Y-40749853D01*
X67977357Y-40749312D01*
X67931376Y-40749031D01*
X67793529Y-40788428D01*
X67690648Y-40853340D01*
X67623448Y-40872465D01*
X67557038Y-40852523D01*
X67469511Y-40795791D01*
X67469507Y-40795789D01*
X67462095Y-40790985D01*
X67324739Y-40749907D01*
X67315905Y-40749853D01*
X67227357Y-40749312D01*
X67181376Y-40749031D01*
X67043529Y-40788428D01*
X66922280Y-40864930D01*
X66916435Y-40871548D01*
X66916433Y-40871550D01*
X66833223Y-40965768D01*
X66833221Y-40965770D01*
X66827377Y-40972388D01*
X66766447Y-41102163D01*
X66765088Y-41110888D01*
X66765088Y-41110890D01*
X66746483Y-41230384D01*
X66744391Y-41243823D01*
X63575500Y-41243823D01*
X63575500Y-38934059D01*
X63595185Y-38867020D01*
X63607567Y-38850846D01*
X63663272Y-38789303D01*
X63669200Y-38782754D01*
X63688062Y-38743823D01*
X68994391Y-38743823D01*
X68995565Y-38752802D01*
X69011519Y-38874803D01*
X69012980Y-38885979D01*
X69070720Y-39017203D01*
X69162970Y-39126948D01*
X69282313Y-39206390D01*
X69378809Y-39236537D01*
X69410722Y-39246507D01*
X69410723Y-39246507D01*
X69419157Y-39249142D01*
X69427992Y-39249304D01*
X69447799Y-39249667D01*
X69562499Y-39251770D01*
X69571015Y-39249448D01*
X69571017Y-39249448D01*
X69692298Y-39216383D01*
X69692301Y-39216382D01*
X69700817Y-39214060D01*
X69822991Y-39139045D01*
X69834486Y-39126346D01*
X69877847Y-39078441D01*
X69919200Y-39032754D01*
X69981710Y-38903733D01*
X70005496Y-38762354D01*
X70005647Y-38750000D01*
X70004763Y-38743823D01*
X69986575Y-38616824D01*
X69985323Y-38608082D01*
X69925984Y-38477572D01*
X69832400Y-38368963D01*
X69712095Y-38290985D01*
X69574739Y-38249907D01*
X69565905Y-38249853D01*
X69477357Y-38249312D01*
X69431376Y-38249031D01*
X69293529Y-38288428D01*
X69172280Y-38364930D01*
X69166435Y-38371548D01*
X69166433Y-38371550D01*
X69083223Y-38465768D01*
X69083221Y-38465770D01*
X69077377Y-38472388D01*
X69016447Y-38602163D01*
X69015088Y-38610888D01*
X69015088Y-38610890D01*
X68996852Y-38728015D01*
X68994391Y-38743823D01*
X63688062Y-38743823D01*
X63731710Y-38653733D01*
X63755496Y-38512354D01*
X63755555Y-38507563D01*
X63755589Y-38504786D01*
X63755589Y-38504780D01*
X63755647Y-38500000D01*
X63754763Y-38493823D01*
X63736575Y-38366824D01*
X63735323Y-38358082D01*
X63675984Y-38227572D01*
X63670218Y-38220881D01*
X63670216Y-38220877D01*
X63658163Y-38206889D01*
X63629314Y-38143253D01*
X63639449Y-38074123D01*
X63660170Y-38042731D01*
X63663270Y-38039306D01*
X63663272Y-38039304D01*
X63669200Y-38032754D01*
X63731710Y-37903733D01*
X63755496Y-37762354D01*
X63755647Y-37750000D01*
X63754763Y-37743823D01*
X63736575Y-37616824D01*
X63735323Y-37608082D01*
X63675984Y-37477572D01*
X63670218Y-37470881D01*
X63670216Y-37470877D01*
X63658163Y-37456889D01*
X63629314Y-37393253D01*
X63639449Y-37324123D01*
X63660170Y-37292731D01*
X63663270Y-37289306D01*
X63663272Y-37289303D01*
X63669200Y-37282754D01*
X63731710Y-37153733D01*
X63755496Y-37012354D01*
X63755647Y-37000000D01*
X63754763Y-36993823D01*
X63736575Y-36866824D01*
X63735323Y-36858082D01*
X63675984Y-36727572D01*
X63670218Y-36720881D01*
X63670216Y-36720877D01*
X63658163Y-36706889D01*
X63629314Y-36643253D01*
X63639449Y-36574123D01*
X63660170Y-36542731D01*
X63663270Y-36539306D01*
X63663272Y-36539303D01*
X63669200Y-36532754D01*
X63731710Y-36403733D01*
X63755496Y-36262354D01*
X63755647Y-36250000D01*
X63754771Y-36243879D01*
X63754763Y-36243823D01*
X68994391Y-36243823D01*
X68995537Y-36252585D01*
X69008281Y-36350041D01*
X69012980Y-36385979D01*
X69070720Y-36517203D01*
X69092524Y-36543142D01*
X69156461Y-36619204D01*
X69162970Y-36626948D01*
X69199846Y-36651495D01*
X69271425Y-36699142D01*
X69282313Y-36706390D01*
X69359128Y-36730388D01*
X69410722Y-36746507D01*
X69410723Y-36746507D01*
X69419157Y-36749142D01*
X69427992Y-36749304D01*
X69447799Y-36749667D01*
X69562499Y-36751770D01*
X69571015Y-36749448D01*
X69571017Y-36749448D01*
X69692298Y-36716383D01*
X69692301Y-36716382D01*
X69700817Y-36714060D01*
X69802714Y-36651495D01*
X69815462Y-36643668D01*
X69815463Y-36643667D01*
X69822991Y-36639045D01*
X69845518Y-36614158D01*
X69905902Y-36547445D01*
X69919200Y-36532754D01*
X69981710Y-36403733D01*
X70005496Y-36262354D01*
X70005647Y-36250000D01*
X70004771Y-36243879D01*
X69986575Y-36116824D01*
X69985323Y-36108082D01*
X69925984Y-35977572D01*
X69900077Y-35947505D01*
X69878434Y-35922388D01*
X69832400Y-35868963D01*
X69712095Y-35790985D01*
X69574739Y-35749907D01*
X69565905Y-35749853D01*
X69477357Y-35749312D01*
X69431376Y-35749031D01*
X69293529Y-35788428D01*
X69172280Y-35864930D01*
X69166435Y-35871548D01*
X69166433Y-35871550D01*
X69083223Y-35965768D01*
X69083221Y-35965770D01*
X69077377Y-35972388D01*
X69016447Y-36102163D01*
X69015088Y-36110888D01*
X69015088Y-36110890D01*
X68998554Y-36217084D01*
X68994391Y-36243823D01*
X63754763Y-36243823D01*
X63736575Y-36116824D01*
X63735323Y-36108082D01*
X63675984Y-35977572D01*
X63650077Y-35947505D01*
X63628434Y-35922388D01*
X63582400Y-35868963D01*
X63462095Y-35790985D01*
X63324739Y-35749907D01*
X63315905Y-35749853D01*
X63260446Y-35749514D01*
X63193528Y-35729420D01*
X63173523Y-35713197D01*
X61494050Y-34033724D01*
X61486741Y-34025749D01*
X61469427Y-34005115D01*
X61462455Y-33996806D01*
X61453063Y-33991384D01*
X61453061Y-33991382D01*
X61429743Y-33977920D01*
X61420617Y-33972106D01*
X61413209Y-33966919D01*
X61389684Y-33950446D01*
X61379209Y-33947639D01*
X61375900Y-33946096D01*
X61372442Y-33944838D01*
X61363045Y-33939412D01*
X61339035Y-33935179D01*
X61325857Y-33932855D01*
X61315310Y-33930517D01*
X61278807Y-33920736D01*
X61241181Y-33924028D01*
X61230373Y-33924500D01*
X57937091Y-33924500D01*
X57870052Y-33904815D01*
X57843154Y-33881444D01*
X57832400Y-33868963D01*
X57712095Y-33790985D01*
X57574739Y-33749907D01*
X57565905Y-33749853D01*
X57471635Y-33749277D01*
X57431376Y-33749031D01*
X57293529Y-33788428D01*
X57172280Y-33864930D01*
X57166435Y-33871548D01*
X57166433Y-33871550D01*
X57083223Y-33965768D01*
X57083221Y-33965770D01*
X57077377Y-33972388D01*
X57016447Y-34102163D01*
X57015088Y-34110888D01*
X57015088Y-34110890D01*
X57009985Y-34143668D01*
X56994391Y-34243823D01*
X56995537Y-34252585D01*
X56998204Y-34272982D01*
X56987378Y-34342008D01*
X56962932Y-34376741D01*
X56701493Y-34638181D01*
X56640170Y-34671666D01*
X56613812Y-34674500D01*
X53527589Y-34674500D01*
X53460550Y-34654815D01*
X53433652Y-34631444D01*
X53422898Y-34618963D01*
X53302593Y-34540985D01*
X53165237Y-34499907D01*
X53156403Y-34499853D01*
X53100945Y-34499514D01*
X53034027Y-34479420D01*
X53014022Y-34463197D01*
X52294647Y-33743823D01*
X66994391Y-33743823D01*
X67001679Y-33799553D01*
X67011519Y-33874803D01*
X67012980Y-33885979D01*
X67070720Y-34017203D01*
X67162970Y-34126948D01*
X67282313Y-34206390D01*
X67374188Y-34235093D01*
X67410722Y-34246507D01*
X67410723Y-34246507D01*
X67419157Y-34249142D01*
X67427992Y-34249304D01*
X67447799Y-34249667D01*
X67562499Y-34251770D01*
X67571015Y-34249448D01*
X67571017Y-34249448D01*
X67692298Y-34216383D01*
X67692301Y-34216382D01*
X67700817Y-34214060D01*
X67822991Y-34139045D01*
X67828921Y-34132494D01*
X67828923Y-34132492D01*
X67909152Y-34043857D01*
X67968734Y-34007364D01*
X68038587Y-34008877D01*
X68096004Y-34047282D01*
X68141670Y-34101608D01*
X68162970Y-34126948D01*
X68282313Y-34206390D01*
X68374188Y-34235093D01*
X68410722Y-34246507D01*
X68410723Y-34246507D01*
X68419157Y-34249142D01*
X68427992Y-34249304D01*
X68447799Y-34249667D01*
X68562499Y-34251770D01*
X68571015Y-34249448D01*
X68571017Y-34249448D01*
X68692298Y-34216383D01*
X68692301Y-34216382D01*
X68700817Y-34214060D01*
X68822991Y-34139045D01*
X68828923Y-34132492D01*
X68897806Y-34056390D01*
X68919200Y-34032754D01*
X68981710Y-33903733D01*
X69005496Y-33762354D01*
X69005647Y-33750000D01*
X69004915Y-33744885D01*
X68986575Y-33616824D01*
X68985323Y-33608082D01*
X68925984Y-33477572D01*
X68832400Y-33368963D01*
X68712095Y-33290985D01*
X68574739Y-33249907D01*
X68565905Y-33249853D01*
X68477357Y-33249312D01*
X68431376Y-33249031D01*
X68293529Y-33288428D01*
X68172280Y-33364930D01*
X68092581Y-33455173D01*
X68033449Y-33492391D01*
X67963582Y-33491732D01*
X67905701Y-33454033D01*
X67832400Y-33368963D01*
X67712095Y-33290985D01*
X67574739Y-33249907D01*
X67565905Y-33249853D01*
X67477357Y-33249312D01*
X67431376Y-33249031D01*
X67293529Y-33288428D01*
X67172280Y-33364930D01*
X67166435Y-33371548D01*
X67166433Y-33371550D01*
X67083223Y-33465768D01*
X67083221Y-33465770D01*
X67077377Y-33472388D01*
X67016447Y-33602163D01*
X67015088Y-33610888D01*
X67015088Y-33610890D01*
X66995750Y-33735093D01*
X66994391Y-33743823D01*
X52294647Y-33743823D01*
X51834548Y-33283724D01*
X51827239Y-33275749D01*
X51809925Y-33255115D01*
X51802953Y-33246806D01*
X51793561Y-33241384D01*
X51793559Y-33241382D01*
X51770241Y-33227920D01*
X51761115Y-33222106D01*
X51739066Y-33206667D01*
X51739067Y-33206667D01*
X51730182Y-33200446D01*
X51719707Y-33197639D01*
X51716398Y-33196096D01*
X51712940Y-33194838D01*
X51703543Y-33189412D01*
X51679533Y-33185179D01*
X51666355Y-33182855D01*
X51655808Y-33180517D01*
X51619305Y-33170736D01*
X51581679Y-33174028D01*
X51570871Y-33174500D01*
X40886189Y-33174500D01*
X40819150Y-33154815D01*
X40798508Y-33138181D01*
X40541430Y-32881104D01*
X40507945Y-32819781D01*
X40505608Y-32803152D01*
X40505647Y-32800000D01*
X40504763Y-32793823D01*
X40486575Y-32666824D01*
X40485323Y-32658082D01*
X40425984Y-32527572D01*
X40414104Y-32513784D01*
X40373173Y-32466282D01*
X40332400Y-32418963D01*
X40212095Y-32340985D01*
X40074739Y-32299907D01*
X40065905Y-32299853D01*
X39977357Y-32299312D01*
X39931376Y-32299031D01*
X39793529Y-32338428D01*
X39672280Y-32414930D01*
X39666435Y-32421548D01*
X39666433Y-32421550D01*
X39583223Y-32515768D01*
X39583221Y-32515770D01*
X39577377Y-32522388D01*
X39516447Y-32652163D01*
X39515088Y-32660888D01*
X39515088Y-32660890D01*
X39508921Y-32700500D01*
X39494391Y-32793823D01*
X39512980Y-32935979D01*
X39516539Y-32944066D01*
X39516539Y-32944068D01*
X39521517Y-32955382D01*
X39530499Y-33024672D01*
X39500594Y-33087818D01*
X39442094Y-33124548D01*
X39393529Y-33138428D01*
X39272280Y-33214930D01*
X39266435Y-33221548D01*
X39266433Y-33221550D01*
X39183223Y-33315768D01*
X39183221Y-33315770D01*
X39177377Y-33322388D01*
X39116447Y-33452163D01*
X39116352Y-33452771D01*
X39080203Y-33507670D01*
X39016329Y-33535987D01*
X38947285Y-33525276D01*
X38894993Y-33478938D01*
X38885571Y-33457969D01*
X38885323Y-33458082D01*
X38829640Y-33335613D01*
X38825984Y-33327572D01*
X38732400Y-33218963D01*
X38612095Y-33140985D01*
X38474739Y-33099907D01*
X38465905Y-33099853D01*
X38377357Y-33099312D01*
X38331376Y-33099031D01*
X38193529Y-33138428D01*
X38072280Y-33214930D01*
X38066435Y-33221548D01*
X38066433Y-33221550D01*
X37983223Y-33315768D01*
X37983221Y-33315770D01*
X37977377Y-33322388D01*
X37916447Y-33452163D01*
X37915088Y-33460888D01*
X37915088Y-33460890D01*
X37903396Y-33535987D01*
X37894391Y-33593823D01*
X37600500Y-33593823D01*
X37600500Y-32847487D01*
X37601561Y-32831302D01*
X37604621Y-32808059D01*
X37605682Y-32800000D01*
X37585044Y-32643238D01*
X37581581Y-32634876D01*
X37527646Y-32504667D01*
X37524536Y-32497159D01*
X37428282Y-32371718D01*
X37302841Y-32275464D01*
X37240033Y-32249448D01*
X37164271Y-32218066D01*
X37164269Y-32218065D01*
X37156762Y-32214956D01*
X37148703Y-32213895D01*
X37077684Y-32204545D01*
X37013788Y-32176278D01*
X36975317Y-32117954D01*
X36974486Y-32048089D01*
X37015834Y-31985240D01*
X37141637Y-31883367D01*
X37141639Y-31883365D01*
X37144156Y-31881327D01*
X37381327Y-31644156D01*
X37400619Y-31620332D01*
X37421461Y-31594594D01*
X41298074Y-31594594D01*
X41299037Y-31600198D01*
X41299037Y-31600199D01*
X41331603Y-31789722D01*
X41335438Y-31812043D01*
X41411804Y-32019043D01*
X41524614Y-32208659D01*
X41670090Y-32374543D01*
X41843360Y-32511137D01*
X41848391Y-32513784D01*
X41907913Y-32545100D01*
X42038620Y-32613869D01*
X42249333Y-32679297D01*
X42254978Y-32679965D01*
X42254982Y-32679966D01*
X42352257Y-32691479D01*
X42428476Y-32700500D01*
X44555970Y-32700500D01*
X44719711Y-32685454D01*
X44932064Y-32625565D01*
X45129947Y-32527980D01*
X45306733Y-32395967D01*
X45456501Y-32233949D01*
X45459536Y-32229139D01*
X45571202Y-32052159D01*
X45571203Y-32052157D01*
X45574236Y-32047350D01*
X45655994Y-31842421D01*
X45666477Y-31789722D01*
X45697058Y-31635979D01*
X45699038Y-31626024D01*
X45699115Y-31620185D01*
X45700769Y-31493823D01*
X52244391Y-31493823D01*
X52245537Y-31502585D01*
X52260915Y-31620185D01*
X52262980Y-31635979D01*
X52320720Y-31767203D01*
X52412970Y-31876948D01*
X52532313Y-31956390D01*
X52624658Y-31985240D01*
X52660722Y-31996507D01*
X52660723Y-31996507D01*
X52669157Y-31999142D01*
X52677992Y-31999304D01*
X52697799Y-31999667D01*
X52812499Y-32001770D01*
X52821015Y-31999448D01*
X52821017Y-31999448D01*
X52942298Y-31966383D01*
X52942301Y-31966382D01*
X52950817Y-31964060D01*
X52958341Y-31959440D01*
X52958344Y-31959439D01*
X53033608Y-31913226D01*
X53101038Y-31894922D01*
X53167659Y-31915980D01*
X53211989Y-31968955D01*
X53229659Y-32009113D01*
X53229663Y-32009120D01*
X53233220Y-32017203D01*
X53325470Y-32126948D01*
X53332824Y-32131843D01*
X53426678Y-32194318D01*
X53444813Y-32206390D01*
X53533026Y-32233949D01*
X53573222Y-32246507D01*
X53573223Y-32246507D01*
X53581657Y-32249142D01*
X53590492Y-32249304D01*
X53610299Y-32249667D01*
X53724999Y-32251770D01*
X53733515Y-32249448D01*
X53733517Y-32249448D01*
X53854798Y-32216383D01*
X53854801Y-32216382D01*
X53863317Y-32214060D01*
X53985491Y-32139045D01*
X54004582Y-32117954D01*
X54033596Y-32085899D01*
X54081700Y-32032754D01*
X54144210Y-31903733D01*
X54167996Y-31762354D01*
X54168147Y-31750000D01*
X54167263Y-31743823D01*
X54149075Y-31616824D01*
X54147823Y-31608082D01*
X54088484Y-31477572D01*
X53994900Y-31368963D01*
X53874595Y-31290985D01*
X53737239Y-31249907D01*
X53728405Y-31249853D01*
X53639857Y-31249312D01*
X53593876Y-31249031D01*
X53456029Y-31288428D01*
X53448557Y-31293142D01*
X53448558Y-31293142D01*
X53380129Y-31336317D01*
X53312928Y-31355443D01*
X53246055Y-31335200D01*
X53201081Y-31282770D01*
X53183373Y-31243823D01*
X56744391Y-31243823D01*
X56753686Y-31314901D01*
X56760228Y-31364930D01*
X56762980Y-31385979D01*
X56820720Y-31517203D01*
X56833792Y-31532754D01*
X56897112Y-31608082D01*
X56912970Y-31626948D01*
X57032313Y-31706390D01*
X57124188Y-31735093D01*
X57160722Y-31746507D01*
X57160723Y-31746507D01*
X57169157Y-31749142D01*
X57177992Y-31749304D01*
X57197799Y-31749667D01*
X57312499Y-31751770D01*
X57321015Y-31749448D01*
X57321017Y-31749448D01*
X57442298Y-31716383D01*
X57442301Y-31716382D01*
X57450817Y-31714060D01*
X57572991Y-31639045D01*
X57578921Y-31632494D01*
X57578923Y-31632492D01*
X57659152Y-31543857D01*
X57718734Y-31507364D01*
X57788587Y-31508877D01*
X57846004Y-31547282D01*
X57897112Y-31608082D01*
X57912970Y-31626948D01*
X58032313Y-31706390D01*
X58124188Y-31735093D01*
X58160722Y-31746507D01*
X58160723Y-31746507D01*
X58169157Y-31749142D01*
X58177992Y-31749304D01*
X58197799Y-31749667D01*
X58312499Y-31751770D01*
X58321015Y-31749448D01*
X58321017Y-31749448D01*
X58442298Y-31716383D01*
X58442301Y-31716382D01*
X58450817Y-31714060D01*
X58572991Y-31639045D01*
X58578921Y-31632494D01*
X58578923Y-31632492D01*
X58659152Y-31543857D01*
X58718734Y-31507364D01*
X58788587Y-31508877D01*
X58846004Y-31547282D01*
X58897112Y-31608082D01*
X58912970Y-31626948D01*
X59032313Y-31706390D01*
X59124188Y-31735093D01*
X59160722Y-31746507D01*
X59160723Y-31746507D01*
X59169157Y-31749142D01*
X59177992Y-31749304D01*
X59197799Y-31749667D01*
X59312499Y-31751770D01*
X59321015Y-31749448D01*
X59321017Y-31749448D01*
X59341649Y-31743823D01*
X63494391Y-31743823D01*
X63495537Y-31752585D01*
X63510999Y-31870827D01*
X63512980Y-31885979D01*
X63570720Y-32017203D01*
X63662970Y-32126948D01*
X63670324Y-32131843D01*
X63764178Y-32194318D01*
X63782313Y-32206390D01*
X63870526Y-32233949D01*
X63910722Y-32246507D01*
X63910723Y-32246507D01*
X63919157Y-32249142D01*
X63927992Y-32249304D01*
X63947799Y-32249667D01*
X64062499Y-32251770D01*
X64071015Y-32249448D01*
X64071017Y-32249448D01*
X64192298Y-32216383D01*
X64192301Y-32216382D01*
X64200817Y-32214060D01*
X64322991Y-32139045D01*
X64342082Y-32117954D01*
X64371096Y-32085899D01*
X64419200Y-32032754D01*
X64481710Y-31903733D01*
X64505496Y-31762354D01*
X64505647Y-31750000D01*
X64504763Y-31743823D01*
X64486575Y-31616824D01*
X64485323Y-31608082D01*
X64425984Y-31477572D01*
X64332400Y-31368963D01*
X64212095Y-31290985D01*
X64074739Y-31249907D01*
X64065905Y-31249853D01*
X63977357Y-31249312D01*
X63931376Y-31249031D01*
X63793529Y-31288428D01*
X63672280Y-31364930D01*
X63666435Y-31371548D01*
X63666433Y-31371550D01*
X63583223Y-31465768D01*
X63583221Y-31465770D01*
X63577377Y-31472388D01*
X63516447Y-31602163D01*
X63515088Y-31610888D01*
X63515088Y-31610890D01*
X63502907Y-31689128D01*
X63494391Y-31743823D01*
X59341649Y-31743823D01*
X59442298Y-31716383D01*
X59442301Y-31716382D01*
X59450817Y-31714060D01*
X59572991Y-31639045D01*
X59578923Y-31632492D01*
X59663272Y-31539303D01*
X59669200Y-31532754D01*
X59731710Y-31403733D01*
X59755496Y-31262354D01*
X59755647Y-31250000D01*
X59754763Y-31243823D01*
X59736575Y-31116824D01*
X59735323Y-31108082D01*
X59675984Y-30977572D01*
X59664342Y-30964060D01*
X59603687Y-30893668D01*
X59582400Y-30868963D01*
X59462095Y-30790985D01*
X59324739Y-30749907D01*
X59315905Y-30749853D01*
X59227357Y-30749312D01*
X59181376Y-30749031D01*
X59043529Y-30788428D01*
X58922280Y-30864930D01*
X58842581Y-30955173D01*
X58783449Y-30992391D01*
X58713582Y-30991732D01*
X58655701Y-30954033D01*
X58582400Y-30868963D01*
X58462095Y-30790985D01*
X58324739Y-30749907D01*
X58315905Y-30749853D01*
X58227357Y-30749312D01*
X58181376Y-30749031D01*
X58043529Y-30788428D01*
X57922280Y-30864930D01*
X57842581Y-30955173D01*
X57783449Y-30992391D01*
X57713582Y-30991732D01*
X57655701Y-30954033D01*
X57582400Y-30868963D01*
X57462095Y-30790985D01*
X57324739Y-30749907D01*
X57315905Y-30749853D01*
X57227357Y-30749312D01*
X57181376Y-30749031D01*
X57043529Y-30788428D01*
X56922280Y-30864930D01*
X56916435Y-30871548D01*
X56916433Y-30871550D01*
X56833223Y-30965768D01*
X56833221Y-30965770D01*
X56827377Y-30972388D01*
X56766447Y-31102163D01*
X56765088Y-31110888D01*
X56765088Y-31110890D01*
X56762789Y-31125658D01*
X56744391Y-31243823D01*
X53183373Y-31243823D01*
X53179640Y-31235613D01*
X53175984Y-31227572D01*
X53082400Y-31118963D01*
X52962095Y-31040985D01*
X52824739Y-30999907D01*
X52815905Y-30999853D01*
X52726054Y-30999304D01*
X52681376Y-30999031D01*
X52543529Y-31038428D01*
X52422280Y-31114930D01*
X52416435Y-31121548D01*
X52416433Y-31121550D01*
X52333223Y-31215768D01*
X52333221Y-31215770D01*
X52327377Y-31222388D01*
X52266447Y-31352163D01*
X52265088Y-31360888D01*
X52265088Y-31360890D01*
X52249521Y-31460876D01*
X52244391Y-31493823D01*
X45700769Y-31493823D01*
X45701852Y-31411095D01*
X45701852Y-31411090D01*
X45701926Y-31405406D01*
X45697692Y-31380766D01*
X45665525Y-31193560D01*
X45665524Y-31193557D01*
X45664562Y-31187957D01*
X45588196Y-30980957D01*
X45526317Y-30876948D01*
X45478296Y-30796232D01*
X45478295Y-30796231D01*
X45475386Y-30791341D01*
X45329910Y-30625457D01*
X45162932Y-30493823D01*
X54494391Y-30493823D01*
X54495537Y-30502585D01*
X54508803Y-30604033D01*
X54512980Y-30635979D01*
X54570720Y-30767203D01*
X54662970Y-30876948D01*
X54782313Y-30956390D01*
X54859115Y-30980384D01*
X54910722Y-30996507D01*
X54910723Y-30996507D01*
X54919157Y-30999142D01*
X54927992Y-30999304D01*
X54947799Y-30999667D01*
X55062499Y-31001770D01*
X55071015Y-30999448D01*
X55071017Y-30999448D01*
X55192298Y-30966383D01*
X55192301Y-30966382D01*
X55200817Y-30964060D01*
X55322991Y-30889045D01*
X55345518Y-30864158D01*
X55400563Y-30803344D01*
X55419200Y-30782754D01*
X55481710Y-30653733D01*
X55505496Y-30512354D01*
X55505647Y-30500000D01*
X55504763Y-30493823D01*
X62744391Y-30493823D01*
X62745537Y-30502585D01*
X62758803Y-30604033D01*
X62762980Y-30635979D01*
X62820720Y-30767203D01*
X62912970Y-30876948D01*
X63032313Y-30956390D01*
X63109115Y-30980384D01*
X63160722Y-30996507D01*
X63160723Y-30996507D01*
X63169157Y-30999142D01*
X63177992Y-30999304D01*
X63197799Y-30999667D01*
X63312499Y-31001770D01*
X63321015Y-30999448D01*
X63321017Y-30999448D01*
X63442298Y-30966383D01*
X63442301Y-30966382D01*
X63450817Y-30964060D01*
X63572991Y-30889045D01*
X63595518Y-30864158D01*
X63650563Y-30803344D01*
X63669200Y-30782754D01*
X63731710Y-30653733D01*
X63755496Y-30512354D01*
X63755647Y-30500000D01*
X63754763Y-30493823D01*
X63736575Y-30366824D01*
X63735323Y-30358082D01*
X63675984Y-30227572D01*
X63582400Y-30118963D01*
X63462095Y-30040985D01*
X63324739Y-29999907D01*
X63315905Y-29999853D01*
X63227357Y-29999312D01*
X63181376Y-29999031D01*
X63043529Y-30038428D01*
X62922280Y-30114930D01*
X62916435Y-30121548D01*
X62916433Y-30121550D01*
X62833223Y-30215768D01*
X62833221Y-30215770D01*
X62827377Y-30222388D01*
X62766447Y-30352163D01*
X62765088Y-30360888D01*
X62765088Y-30360890D01*
X62745750Y-30485093D01*
X62744391Y-30493823D01*
X55504763Y-30493823D01*
X55486575Y-30366824D01*
X55485323Y-30358082D01*
X55425984Y-30227572D01*
X55332400Y-30118963D01*
X55212095Y-30040985D01*
X55074739Y-29999907D01*
X55065905Y-29999853D01*
X54977357Y-29999312D01*
X54931376Y-29999031D01*
X54793529Y-30038428D01*
X54672280Y-30114930D01*
X54666435Y-30121548D01*
X54666433Y-30121550D01*
X54583223Y-30215768D01*
X54583221Y-30215770D01*
X54577377Y-30222388D01*
X54516447Y-30352163D01*
X54515088Y-30360888D01*
X54515088Y-30360890D01*
X54495750Y-30485093D01*
X54494391Y-30493823D01*
X45162932Y-30493823D01*
X45156640Y-30488863D01*
X45151609Y-30486216D01*
X44966415Y-30388780D01*
X44966414Y-30388780D01*
X44961380Y-30386131D01*
X44750667Y-30320703D01*
X44745022Y-30320035D01*
X44745018Y-30320034D01*
X44647743Y-30308521D01*
X44571524Y-30299500D01*
X42444030Y-30299500D01*
X42280289Y-30314546D01*
X42067936Y-30374435D01*
X41870053Y-30472020D01*
X41693267Y-30604033D01*
X41543499Y-30766051D01*
X41540465Y-30770860D01*
X41540464Y-30770861D01*
X41465896Y-30889045D01*
X41425764Y-30952650D01*
X41344006Y-31157579D01*
X41342896Y-31163160D01*
X41342895Y-31163163D01*
X41325815Y-31249031D01*
X41300962Y-31373976D01*
X41300888Y-31379663D01*
X41300887Y-31379668D01*
X41298738Y-31543857D01*
X41298074Y-31594594D01*
X37421461Y-31594594D01*
X37590362Y-31386020D01*
X37590366Y-31386014D01*
X37592407Y-31383494D01*
X37596484Y-31377217D01*
X37751525Y-31138475D01*
X37775085Y-31102196D01*
X37927357Y-30803344D01*
X37930088Y-30796232D01*
X38046398Y-30493235D01*
X38046400Y-30493228D01*
X38047558Y-30490212D01*
X38134368Y-30166231D01*
X38153444Y-30045790D01*
X38186328Y-29838173D01*
X38186329Y-29838164D01*
X38186838Y-29834950D01*
X38187752Y-29817510D01*
X38210918Y-29751593D01*
X38266045Y-29708664D01*
X38311582Y-29700000D01*
X68688418Y-29700000D01*
X68755457Y-29719685D01*
G37*
%TD.AperFunction*%
%TD*%
M02*
