%TF.GenerationSoftware,KiCad,Pcbnew,(6.0.0)*%
%TF.CreationDate,2025-09-03T22:59:34+02:00*%
%TF.ProjectId,Smart Servo Control Board Rev.1,536d6172-7420-4536-9572-766f20436f6e,rev?*%
%TF.SameCoordinates,Original*%
%TF.FileFunction,Copper,L3,Inr*%
%TF.FilePolarity,Positive*%
%FSLAX46Y46*%
G04 Gerber Fmt 4.6, Leading zero omitted, Abs format (unit mm)*
G04 Created by KiCad (PCBNEW (6.0.0)) date 2025-09-03 22:59:34*
%MOMM*%
%LPD*%
G01*
G04 APERTURE LIST*
%TA.AperFunction,ComponentPad*%
%ADD10O,4.000000X2.000000*%
%TD*%
%TA.AperFunction,ViaPad*%
%ADD11C,0.600000*%
%TD*%
%TA.AperFunction,ViaPad*%
%ADD12C,0.800000*%
%TD*%
%TA.AperFunction,Conductor*%
%ADD13C,0.250000*%
%TD*%
G04 APERTURE END LIST*
D10*
%TO.N,Net-(C8-Pad1)*%
%TO.C,J2*%
X43500000Y-31500000D03*
%TO.N,Net-(C11-Pad2)*%
X43500000Y-43500000D03*
%TD*%
D11*
%TO.N,SCL2*%
X58500000Y-43850500D03*
%TO.N,GNDD*%
X63500000Y-44750000D03*
X64250000Y-44750000D03*
X64250000Y-44000000D03*
X63500000Y-44000000D03*
%TO.N,+3V3*%
X40000000Y-32800000D03*
%TO.N,GNDD*%
X40600000Y-37400000D03*
X39600000Y-36200000D03*
X38400000Y-38600000D03*
X37400000Y-37800000D03*
X54500000Y-38500000D03*
X54500000Y-37500000D03*
X54500000Y-36500000D03*
X57250000Y-31250000D03*
X58250000Y-31250000D03*
D12*
%TO.N,HB2*%
X37000000Y-32800000D03*
D11*
%TO.N,GNDD*%
X55250000Y-43000000D03*
X54500000Y-43000000D03*
X53750000Y-43000000D03*
%TO.N,+3V3*%
X56750000Y-41750000D03*
%TO.N,GNDD*%
X52750000Y-31500000D03*
%TO.N,DRV1*%
X38400000Y-33600000D03*
%TO.N,GNDD*%
X59250000Y-31250000D03*
X68500000Y-33750000D03*
X67500000Y-33750000D03*
D12*
%TO.N,+5V*%
X70000000Y-34500000D03*
X37000000Y-42000000D03*
X70000000Y-33000000D03*
D11*
%TO.N,+3V3*%
X63250000Y-41800000D03*
X63250000Y-38500000D03*
X63250000Y-37750000D03*
X63250000Y-37000000D03*
X63250000Y-36250000D03*
X53090498Y-35000000D03*
%TO.N,GNDD*%
X68750000Y-41250000D03*
X68000000Y-41250000D03*
X67250000Y-43500000D03*
X68750000Y-43500000D03*
X68000000Y-43500000D03*
X67250000Y-41250000D03*
X69500000Y-42500000D03*
%TO.N,+3V3*%
X57500000Y-34250000D03*
X49500000Y-40750000D03*
%TO.N,Net-(C7-Pad1)*%
X63250000Y-30500000D03*
%TO.N,Net-(C7-Pad2)*%
X64000000Y-31750000D03*
%TO.N,HB1*%
X38365000Y-41500000D03*
X35750000Y-37000000D03*
D12*
%TO.N,HB2*%
X41637500Y-40137500D03*
D11*
%TO.N,SCL1*%
X69500000Y-38750000D03*
%TO.N,SDA1*%
X69500000Y-36250000D03*
%TO.N,SWCLK*%
X56250000Y-37500000D03*
%TO.N,SWDIO*%
X53000000Y-40000000D03*
%TO.N,NRST*%
X53662500Y-31750000D03*
%TO.N,SCL2*%
X50750000Y-38750000D03*
X59750000Y-36500000D03*
%TO.N,SDA2*%
X50875500Y-39750000D03*
%TO.N,ISENS*%
X55000000Y-30500000D03*
X39750000Y-41500000D03*
%TO.N,ADC2*%
X49500000Y-44500000D03*
X47600000Y-35400000D03*
%TO.N,DRV2*%
X52200000Y-35000000D03*
X39600000Y-33600000D03*
%TO.N,DRV1*%
X50800000Y-35000000D03*
%TD*%
D13*
%TO.N,SCL2*%
X51125489Y-39125489D02*
X51134182Y-39125489D01*
X51134182Y-39125489D02*
X51750000Y-39741307D01*
X50750000Y-38750000D02*
X51125489Y-39125489D01*
X51750000Y-42250000D02*
X53350500Y-43850500D01*
X51750000Y-39741307D02*
X51750000Y-42250000D01*
X53350500Y-43850500D02*
X58500000Y-43850500D01*
%TO.N,DRV1*%
X39400000Y-34600000D02*
X38400000Y-33600000D01*
X50400000Y-34600000D02*
X39400000Y-34600000D01*
X50800000Y-35000000D02*
X50400000Y-34600000D01*
%TO.N,DRV2*%
X50800000Y-33600000D02*
X39600000Y-33600000D01*
X52200000Y-35000000D02*
X50800000Y-33600000D01*
%TD*%
%TA.AperFunction,Conductor*%
%TO.N,GNDD*%
G36*
X68755457Y-29719685D02*
G01*
X68801212Y-29772489D01*
X68812248Y-29817510D01*
X68813162Y-29834950D01*
X68813671Y-29838164D01*
X68813672Y-29838173D01*
X68846556Y-30045790D01*
X68865632Y-30166231D01*
X68952442Y-30490212D01*
X68953600Y-30493228D01*
X68953602Y-30493235D01*
X69069913Y-30796232D01*
X69072643Y-30803344D01*
X69224915Y-31102196D01*
X69226686Y-31104923D01*
X69397786Y-31368392D01*
X69407593Y-31383494D01*
X69409634Y-31386014D01*
X69409638Y-31386020D01*
X69578192Y-31594166D01*
X69618673Y-31644156D01*
X69855844Y-31881327D01*
X69858361Y-31883365D01*
X69858363Y-31883367D01*
X70113980Y-32090362D01*
X70113986Y-32090366D01*
X70116506Y-32092407D01*
X70119229Y-32094175D01*
X70119234Y-32094179D01*
X70240816Y-32173135D01*
X70273435Y-32194318D01*
X70285253Y-32201993D01*
X70330756Y-32255014D01*
X70340370Y-32324219D01*
X70311043Y-32387636D01*
X70252086Y-32425130D01*
X70182217Y-32424797D01*
X70170266Y-32420549D01*
X70164275Y-32418067D01*
X70164268Y-32418065D01*
X70156762Y-32414956D01*
X70000000Y-32394318D01*
X69843238Y-32414956D01*
X69835731Y-32418065D01*
X69835729Y-32418066D01*
X69785118Y-32439030D01*
X69697159Y-32475464D01*
X69571718Y-32571718D01*
X69475464Y-32697159D01*
X69472354Y-32704667D01*
X69427749Y-32812354D01*
X69414956Y-32843238D01*
X69394318Y-33000000D01*
X69395379Y-33008059D01*
X69413512Y-33145790D01*
X69414956Y-33156762D01*
X69418065Y-33164269D01*
X69418066Y-33164271D01*
X69472354Y-33295333D01*
X69475464Y-33302841D01*
X69571718Y-33428282D01*
X69697159Y-33524536D01*
X69704667Y-33527646D01*
X69835729Y-33581934D01*
X69835731Y-33581935D01*
X69843238Y-33585044D01*
X70000000Y-33605682D01*
X70008059Y-33604621D01*
X70148703Y-33586105D01*
X70156762Y-33585044D01*
X70164269Y-33581935D01*
X70164271Y-33581934D01*
X70295333Y-33527646D01*
X70302841Y-33524536D01*
X70428282Y-33428282D01*
X70524536Y-33302841D01*
X70527646Y-33295333D01*
X70581934Y-33164271D01*
X70581935Y-33164269D01*
X70585044Y-33156762D01*
X70586489Y-33145790D01*
X70604621Y-33008059D01*
X70605682Y-33000000D01*
X70585044Y-32843238D01*
X70572252Y-32812354D01*
X70527646Y-32704667D01*
X70524536Y-32697159D01*
X70428282Y-32571718D01*
X70408508Y-32556545D01*
X70367306Y-32500116D01*
X70363152Y-32430370D01*
X70397366Y-32369450D01*
X70459083Y-32336698D01*
X70528711Y-32342513D01*
X70540284Y-32347682D01*
X70696656Y-32427357D01*
X70699679Y-32428517D01*
X70699687Y-32428521D01*
X71006765Y-32546398D01*
X71006772Y-32546400D01*
X71009788Y-32547558D01*
X71333769Y-32634368D01*
X71389772Y-32643238D01*
X71661827Y-32686328D01*
X71661836Y-32686329D01*
X71665050Y-32686838D01*
X71668299Y-32687008D01*
X71668306Y-32687009D01*
X71682490Y-32687752D01*
X71748407Y-32710918D01*
X71791336Y-32766045D01*
X71800000Y-32811582D01*
X71800000Y-42188418D01*
X71780315Y-42255457D01*
X71727511Y-42301212D01*
X71682490Y-42312248D01*
X71668306Y-42312991D01*
X71668299Y-42312992D01*
X71665050Y-42313162D01*
X71661836Y-42313671D01*
X71661827Y-42313672D01*
X71417571Y-42352359D01*
X71333769Y-42365632D01*
X71009788Y-42452442D01*
X71006772Y-42453600D01*
X71006765Y-42453602D01*
X70699687Y-42571479D01*
X70699679Y-42571483D01*
X70696656Y-42572643D01*
X70693764Y-42574117D01*
X70693763Y-42574117D01*
X70618699Y-42612364D01*
X70397804Y-42724915D01*
X70395076Y-42726686D01*
X70395077Y-42726686D01*
X70119234Y-42905821D01*
X70119229Y-42905825D01*
X70116506Y-42907593D01*
X70113986Y-42909634D01*
X70113980Y-42909638D01*
X69858363Y-43116633D01*
X69855844Y-43118673D01*
X69618673Y-43355844D01*
X69616635Y-43358361D01*
X69616633Y-43358363D01*
X69409638Y-43613980D01*
X69409634Y-43613986D01*
X69407593Y-43616506D01*
X69405825Y-43619229D01*
X69405821Y-43619234D01*
X69318154Y-43754229D01*
X69224915Y-43897804D01*
X69072643Y-44196656D01*
X69071483Y-44199679D01*
X69071479Y-44199687D01*
X68956199Y-44500000D01*
X68952442Y-44509788D01*
X68865632Y-44833769D01*
X68813162Y-45165050D01*
X68812992Y-45168299D01*
X68812991Y-45168306D01*
X68812248Y-45182490D01*
X68789082Y-45248407D01*
X68733955Y-45291336D01*
X68688418Y-45300000D01*
X38311582Y-45300000D01*
X38244543Y-45280315D01*
X38198788Y-45227511D01*
X38187752Y-45182490D01*
X38187009Y-45168306D01*
X38187008Y-45168299D01*
X38186838Y-45165050D01*
X38134368Y-44833769D01*
X38047558Y-44509788D01*
X38043801Y-44500000D01*
X37928521Y-44199687D01*
X37928517Y-44199679D01*
X37927357Y-44196656D01*
X37775085Y-43897804D01*
X37681846Y-43754229D01*
X37594179Y-43619234D01*
X37594175Y-43619229D01*
X37592407Y-43616506D01*
X37590366Y-43613986D01*
X37590362Y-43613980D01*
X37574663Y-43594594D01*
X41298074Y-43594594D01*
X41299037Y-43600198D01*
X41299037Y-43600199D01*
X41319163Y-43717324D01*
X41335438Y-43812043D01*
X41411804Y-44019043D01*
X41427717Y-44045790D01*
X41492336Y-44154404D01*
X41524614Y-44208659D01*
X41670090Y-44374543D01*
X41843360Y-44511137D01*
X42038620Y-44613869D01*
X42044055Y-44615557D01*
X42044056Y-44615557D01*
X42167003Y-44653733D01*
X42249333Y-44679297D01*
X42254978Y-44679965D01*
X42254982Y-44679966D01*
X42352257Y-44691479D01*
X42428476Y-44700500D01*
X44555970Y-44700500D01*
X44719711Y-44685454D01*
X44932064Y-44625565D01*
X45129947Y-44527980D01*
X45175689Y-44493823D01*
X48994391Y-44493823D01*
X49003686Y-44564901D01*
X49010310Y-44615557D01*
X49012980Y-44635979D01*
X49070720Y-44767203D01*
X49162970Y-44876948D01*
X49282313Y-44956390D01*
X49378809Y-44986537D01*
X49410722Y-44996507D01*
X49410723Y-44996507D01*
X49419157Y-44999142D01*
X49427992Y-44999304D01*
X49447799Y-44999667D01*
X49562499Y-45001770D01*
X49571015Y-44999448D01*
X49571017Y-44999448D01*
X49692298Y-44966383D01*
X49692301Y-44966382D01*
X49700817Y-44964060D01*
X49822991Y-44889045D01*
X49919200Y-44782754D01*
X49981710Y-44653733D01*
X50005496Y-44512354D01*
X50005555Y-44507563D01*
X50005589Y-44504786D01*
X50005589Y-44504780D01*
X50005647Y-44500000D01*
X50004763Y-44493823D01*
X49986575Y-44366824D01*
X49985323Y-44358082D01*
X49925984Y-44227572D01*
X49920053Y-44220688D01*
X49884790Y-44179764D01*
X49832400Y-44118963D01*
X49712095Y-44040985D01*
X49574739Y-43999907D01*
X49565905Y-43999853D01*
X49477357Y-43999312D01*
X49431376Y-43999031D01*
X49293529Y-44038428D01*
X49172280Y-44114930D01*
X49166435Y-44121548D01*
X49166433Y-44121550D01*
X49083223Y-44215768D01*
X49083221Y-44215770D01*
X49077377Y-44222388D01*
X49016447Y-44352163D01*
X49015088Y-44360888D01*
X49015088Y-44360890D01*
X49012415Y-44378060D01*
X48994391Y-44493823D01*
X45175689Y-44493823D01*
X45306733Y-44395967D01*
X45456501Y-44233949D01*
X45460603Y-44227448D01*
X45571202Y-44052159D01*
X45571203Y-44052157D01*
X45574236Y-44047350D01*
X45655994Y-43842421D01*
X45673537Y-43754229D01*
X45697927Y-43631608D01*
X45699038Y-43626024D01*
X45699377Y-43600199D01*
X45701852Y-43411095D01*
X45701852Y-43411090D01*
X45701926Y-43405406D01*
X45698678Y-43386501D01*
X45665525Y-43193560D01*
X45665524Y-43193557D01*
X45664562Y-43187957D01*
X45588196Y-42980957D01*
X45475386Y-42791341D01*
X45329910Y-42625457D01*
X45156640Y-42488863D01*
X45106447Y-42462455D01*
X44966415Y-42388780D01*
X44966414Y-42388780D01*
X44961380Y-42386131D01*
X44750667Y-42320703D01*
X44745022Y-42320035D01*
X44745018Y-42320034D01*
X44647743Y-42308521D01*
X44571524Y-42299500D01*
X42444030Y-42299500D01*
X42280289Y-42314546D01*
X42067936Y-42374435D01*
X41870053Y-42472020D01*
X41693267Y-42604033D01*
X41543499Y-42766051D01*
X41540465Y-42770860D01*
X41540464Y-42770861D01*
X41452903Y-42909638D01*
X41425764Y-42952650D01*
X41344006Y-43157579D01*
X41300962Y-43373976D01*
X41300888Y-43379663D01*
X41300887Y-43379668D01*
X41298290Y-43578072D01*
X41298074Y-43594594D01*
X37574663Y-43594594D01*
X37383367Y-43358363D01*
X37383365Y-43358361D01*
X37381327Y-43355844D01*
X37144156Y-43118673D01*
X37141637Y-43116633D01*
X36886020Y-42909638D01*
X36886014Y-42909634D01*
X36883494Y-42907593D01*
X36880771Y-42905825D01*
X36880766Y-42905821D01*
X36714747Y-42798007D01*
X36669244Y-42744986D01*
X36659630Y-42675781D01*
X36688957Y-42612364D01*
X36747914Y-42574870D01*
X36817783Y-42575203D01*
X36829734Y-42579451D01*
X36835725Y-42581933D01*
X36835732Y-42581935D01*
X36843238Y-42585044D01*
X37000000Y-42605682D01*
X37008059Y-42604621D01*
X37038382Y-42600629D01*
X37156762Y-42585044D01*
X37164269Y-42581935D01*
X37164271Y-42581934D01*
X37295333Y-42527646D01*
X37302841Y-42524536D01*
X37428282Y-42428282D01*
X37524536Y-42302841D01*
X37534491Y-42278807D01*
X37581934Y-42164271D01*
X37581935Y-42164269D01*
X37585044Y-42156762D01*
X37605682Y-42000000D01*
X37585044Y-41843238D01*
X37572252Y-41812354D01*
X37527646Y-41704667D01*
X37524536Y-41697159D01*
X37428282Y-41571718D01*
X37326767Y-41493823D01*
X37859391Y-41493823D01*
X37860537Y-41502585D01*
X37873281Y-41600041D01*
X37877980Y-41635979D01*
X37935720Y-41767203D01*
X38027970Y-41876948D01*
X38068208Y-41903733D01*
X38130231Y-41945019D01*
X38147313Y-41956390D01*
X38243809Y-41986537D01*
X38275722Y-41996507D01*
X38275723Y-41996507D01*
X38284157Y-41999142D01*
X38292992Y-41999304D01*
X38312799Y-41999667D01*
X38427499Y-42001770D01*
X38436015Y-41999448D01*
X38436017Y-41999448D01*
X38557298Y-41966383D01*
X38557301Y-41966382D01*
X38565817Y-41964060D01*
X38664069Y-41903733D01*
X38680462Y-41893668D01*
X38680463Y-41893667D01*
X38687991Y-41889045D01*
X38722159Y-41851297D01*
X38768590Y-41800000D01*
X38784200Y-41782754D01*
X38846710Y-41653733D01*
X38870496Y-41512354D01*
X38870647Y-41500000D01*
X38869763Y-41493823D01*
X39244391Y-41493823D01*
X39245537Y-41502585D01*
X39258281Y-41600041D01*
X39262980Y-41635979D01*
X39320720Y-41767203D01*
X39412970Y-41876948D01*
X39453208Y-41903733D01*
X39515231Y-41945019D01*
X39532313Y-41956390D01*
X39628809Y-41986537D01*
X39660722Y-41996507D01*
X39660723Y-41996507D01*
X39669157Y-41999142D01*
X39677992Y-41999304D01*
X39697799Y-41999667D01*
X39812499Y-42001770D01*
X39821015Y-41999448D01*
X39821017Y-41999448D01*
X39942298Y-41966383D01*
X39942301Y-41966382D01*
X39950817Y-41964060D01*
X40049069Y-41903733D01*
X40065462Y-41893668D01*
X40065463Y-41893667D01*
X40072991Y-41889045D01*
X40107159Y-41851297D01*
X40153590Y-41800000D01*
X40169200Y-41782754D01*
X40231710Y-41653733D01*
X40255496Y-41512354D01*
X40255647Y-41500000D01*
X40254763Y-41493823D01*
X40236575Y-41366824D01*
X40235323Y-41358082D01*
X40175984Y-41227572D01*
X40164342Y-41214060D01*
X40103687Y-41143668D01*
X40082400Y-41118963D01*
X39962095Y-41040985D01*
X39824739Y-40999907D01*
X39815905Y-40999853D01*
X39727357Y-40999312D01*
X39681376Y-40999031D01*
X39543529Y-41038428D01*
X39422280Y-41114930D01*
X39416435Y-41121548D01*
X39416433Y-41121550D01*
X39333223Y-41215768D01*
X39333221Y-41215770D01*
X39327377Y-41222388D01*
X39266447Y-41352163D01*
X39265088Y-41360888D01*
X39265088Y-41360890D01*
X39247728Y-41472388D01*
X39244391Y-41493823D01*
X38869763Y-41493823D01*
X38851575Y-41366824D01*
X38850323Y-41358082D01*
X38790984Y-41227572D01*
X38779342Y-41214060D01*
X38718687Y-41143668D01*
X38697400Y-41118963D01*
X38577095Y-41040985D01*
X38439739Y-40999907D01*
X38430905Y-40999853D01*
X38342357Y-40999312D01*
X38296376Y-40999031D01*
X38158529Y-41038428D01*
X38037280Y-41114930D01*
X38031435Y-41121548D01*
X38031433Y-41121550D01*
X37948223Y-41215768D01*
X37948221Y-41215770D01*
X37942377Y-41222388D01*
X37881447Y-41352163D01*
X37880088Y-41360888D01*
X37880088Y-41360890D01*
X37862728Y-41472388D01*
X37859391Y-41493823D01*
X37326767Y-41493823D01*
X37302841Y-41475464D01*
X37279433Y-41465768D01*
X37164271Y-41418066D01*
X37164269Y-41418065D01*
X37156762Y-41414956D01*
X37000000Y-41394318D01*
X36843238Y-41414956D01*
X36835731Y-41418065D01*
X36835729Y-41418066D01*
X36720567Y-41465768D01*
X36697159Y-41475464D01*
X36571718Y-41571718D01*
X36475464Y-41697159D01*
X36472354Y-41704667D01*
X36427749Y-41812354D01*
X36414956Y-41843238D01*
X36394318Y-42000000D01*
X36414956Y-42156762D01*
X36418065Y-42164269D01*
X36418066Y-42164271D01*
X36465509Y-42278807D01*
X36475464Y-42302841D01*
X36571718Y-42428282D01*
X36591492Y-42443455D01*
X36632694Y-42499884D01*
X36636848Y-42569630D01*
X36602634Y-42630550D01*
X36540917Y-42663302D01*
X36471289Y-42657487D01*
X36459716Y-42652318D01*
X36303344Y-42572643D01*
X36300321Y-42571483D01*
X36300313Y-42571479D01*
X35993235Y-42453602D01*
X35993228Y-42453600D01*
X35990212Y-42452442D01*
X35666231Y-42365632D01*
X35582429Y-42352359D01*
X35338173Y-42313672D01*
X35338164Y-42313671D01*
X35334950Y-42313162D01*
X35331701Y-42312992D01*
X35331694Y-42312991D01*
X35317510Y-42312248D01*
X35251593Y-42289082D01*
X35208664Y-42233955D01*
X35200000Y-42188418D01*
X35200000Y-40743823D01*
X48994391Y-40743823D01*
X49012980Y-40885979D01*
X49070720Y-41017203D01*
X49162970Y-41126948D01*
X49282313Y-41206390D01*
X49359115Y-41230384D01*
X49410722Y-41246507D01*
X49410723Y-41246507D01*
X49419157Y-41249142D01*
X49427992Y-41249304D01*
X49447799Y-41249667D01*
X49562499Y-41251770D01*
X49571015Y-41249448D01*
X49571017Y-41249448D01*
X49692298Y-41216383D01*
X49692301Y-41216382D01*
X49700817Y-41214060D01*
X49822991Y-41139045D01*
X49845518Y-41114158D01*
X49871096Y-41085899D01*
X49919200Y-41032754D01*
X49981710Y-40903733D01*
X50005496Y-40762354D01*
X50005647Y-40750000D01*
X50004763Y-40743823D01*
X49986575Y-40616824D01*
X49985323Y-40608082D01*
X49925984Y-40477572D01*
X49914342Y-40464060D01*
X49853687Y-40393668D01*
X49832400Y-40368963D01*
X49712095Y-40290985D01*
X49574739Y-40249907D01*
X49565905Y-40249853D01*
X49476054Y-40249304D01*
X49431376Y-40249031D01*
X49293529Y-40288428D01*
X49172280Y-40364930D01*
X49166435Y-40371548D01*
X49166433Y-40371550D01*
X49083223Y-40465768D01*
X49083221Y-40465770D01*
X49077377Y-40472388D01*
X49016447Y-40602163D01*
X48994391Y-40743823D01*
X35200000Y-40743823D01*
X35200000Y-37462056D01*
X35219685Y-37395017D01*
X35272489Y-37349262D01*
X35341647Y-37339318D01*
X35406651Y-37369618D01*
X35407285Y-37370185D01*
X35412970Y-37376948D01*
X35532313Y-37456390D01*
X35609128Y-37480388D01*
X35660722Y-37496507D01*
X35660723Y-37496507D01*
X35669157Y-37499142D01*
X35677992Y-37499304D01*
X35697799Y-37499667D01*
X35812499Y-37501770D01*
X35821015Y-37499448D01*
X35821017Y-37499448D01*
X35942298Y-37466383D01*
X35942301Y-37466382D01*
X35950817Y-37464060D01*
X36072991Y-37389045D01*
X36098476Y-37360890D01*
X36163272Y-37289303D01*
X36169200Y-37282754D01*
X36231710Y-37153733D01*
X36255496Y-37012354D01*
X36255647Y-37000000D01*
X36254763Y-36993823D01*
X36236575Y-36866824D01*
X36235323Y-36858082D01*
X36175984Y-36727572D01*
X36170216Y-36720877D01*
X36132742Y-36677388D01*
X36082400Y-36618963D01*
X35962095Y-36540985D01*
X35824739Y-36499907D01*
X35815905Y-36499853D01*
X35727357Y-36499312D01*
X35681376Y-36499031D01*
X35543529Y-36538428D01*
X35422280Y-36614930D01*
X35416433Y-36621550D01*
X35409703Y-36627278D01*
X35408734Y-36626140D01*
X35357810Y-36658192D01*
X35287944Y-36657532D01*
X35229525Y-36619204D01*
X35201101Y-36555378D01*
X35200000Y-36538890D01*
X35200000Y-33593823D01*
X37894391Y-33593823D01*
X37912980Y-33735979D01*
X37970720Y-33867203D01*
X38062970Y-33976948D01*
X38182313Y-34056390D01*
X38278809Y-34086537D01*
X38310722Y-34096507D01*
X38310723Y-34096507D01*
X38319157Y-34099142D01*
X38327992Y-34099304D01*
X38391025Y-34100460D01*
X38457692Y-34121370D01*
X38476432Y-34136758D01*
X39155950Y-34816276D01*
X39163259Y-34824251D01*
X39187545Y-34853194D01*
X39196937Y-34858616D01*
X39196939Y-34858618D01*
X39220257Y-34872080D01*
X39229383Y-34877894D01*
X39260316Y-34899554D01*
X39270791Y-34902361D01*
X39274100Y-34903904D01*
X39277558Y-34905162D01*
X39286955Y-34910588D01*
X39310965Y-34914821D01*
X39324143Y-34917145D01*
X39334690Y-34919483D01*
X39371193Y-34929264D01*
X39408822Y-34925972D01*
X39419630Y-34925500D01*
X42095606Y-34925500D01*
X42162645Y-34945185D01*
X42208400Y-34997989D01*
X42218344Y-35067147D01*
X42189319Y-35130703D01*
X42159006Y-35156066D01*
X41982819Y-35260886D01*
X41982813Y-35260890D01*
X41979601Y-35262801D01*
X41976648Y-35265079D01*
X41976641Y-35265084D01*
X41824454Y-35382496D01*
X41721843Y-35461660D01*
X41719183Y-35464278D01*
X41719179Y-35464282D01*
X41681098Y-35501770D01*
X41489842Y-35690045D01*
X41286958Y-35944648D01*
X41284994Y-35947834D01*
X41284992Y-35947837D01*
X41224613Y-36045790D01*
X41116131Y-36221781D01*
X40979836Y-36517429D01*
X40880046Y-36827310D01*
X40879337Y-36830973D01*
X40879336Y-36830978D01*
X40818916Y-37143264D01*
X40818206Y-37146935D01*
X40795213Y-37471675D01*
X40795398Y-37475393D01*
X40795398Y-37475399D01*
X40796623Y-37500000D01*
X40811026Y-37789303D01*
X40811400Y-37796824D01*
X40866532Y-38117674D01*
X40959811Y-38429577D01*
X41089885Y-38728015D01*
X41254871Y-39008664D01*
X41452378Y-39267460D01*
X41454985Y-39270136D01*
X41531632Y-39348817D01*
X41564311Y-39410574D01*
X41558414Y-39480194D01*
X41515814Y-39535575D01*
X41480694Y-39552351D01*
X41480738Y-39552456D01*
X41473234Y-39555564D01*
X41473231Y-39555565D01*
X41360735Y-39602163D01*
X41334659Y-39612964D01*
X41209218Y-39709218D01*
X41204271Y-39715665D01*
X41174183Y-39754876D01*
X41112964Y-39834659D01*
X41109854Y-39842167D01*
X41060598Y-39961082D01*
X41052456Y-39980738D01*
X41031818Y-40137500D01*
X41052456Y-40294262D01*
X41055565Y-40301769D01*
X41055566Y-40301771D01*
X41083398Y-40368963D01*
X41112964Y-40440341D01*
X41209218Y-40565782D01*
X41334659Y-40662036D01*
X41342167Y-40665146D01*
X41473229Y-40719434D01*
X41473231Y-40719435D01*
X41480738Y-40722544D01*
X41637500Y-40743182D01*
X41645559Y-40742121D01*
X41786203Y-40723605D01*
X41794262Y-40722544D01*
X41801769Y-40719435D01*
X41801771Y-40719434D01*
X41932833Y-40665146D01*
X41940341Y-40662036D01*
X42065782Y-40565782D01*
X42162036Y-40440341D01*
X42191602Y-40368963D01*
X42219434Y-40301771D01*
X42219435Y-40301769D01*
X42222544Y-40294262D01*
X42243182Y-40137500D01*
X42241793Y-40126948D01*
X42238411Y-40101257D01*
X42249177Y-40032222D01*
X42295558Y-39979967D01*
X42362827Y-39961082D01*
X42413851Y-39972737D01*
X42448215Y-39988797D01*
X42500861Y-40013403D01*
X42500868Y-40013406D01*
X42504247Y-40014985D01*
X42507799Y-40016149D01*
X42507798Y-40016149D01*
X42810052Y-40115233D01*
X42810058Y-40115235D01*
X42813601Y-40116396D01*
X42817254Y-40117123D01*
X42817263Y-40117125D01*
X43129238Y-40179181D01*
X43132898Y-40179909D01*
X43136613Y-40180192D01*
X43136616Y-40180192D01*
X43453787Y-40204318D01*
X43453794Y-40204318D01*
X43457513Y-40204601D01*
X43461243Y-40204435D01*
X43461250Y-40204435D01*
X43779003Y-40190284D01*
X43779010Y-40190283D01*
X43782743Y-40190117D01*
X44103877Y-40136666D01*
X44128505Y-40129441D01*
X44412683Y-40046072D01*
X44412690Y-40046070D01*
X44416264Y-40045021D01*
X44419693Y-40043548D01*
X44711949Y-39917986D01*
X44711954Y-39917983D01*
X44715379Y-39916512D01*
X44996888Y-39752998D01*
X45020606Y-39735093D01*
X45253734Y-39559100D01*
X45253740Y-39559095D01*
X45256715Y-39556849D01*
X45491095Y-39330906D01*
X45525678Y-39288428D01*
X45694277Y-39081335D01*
X45694278Y-39081334D01*
X45696633Y-39078441D01*
X45870353Y-38803112D01*
X45871948Y-38799745D01*
X45871952Y-38799738D01*
X45898443Y-38743823D01*
X50244391Y-38743823D01*
X50248333Y-38773966D01*
X50261191Y-38872295D01*
X50262980Y-38885979D01*
X50320720Y-39017203D01*
X50412970Y-39126948D01*
X50511908Y-39192807D01*
X50556805Y-39246340D01*
X50565634Y-39315649D01*
X50536139Y-39378111D01*
X50458723Y-39465768D01*
X50458721Y-39465770D01*
X50452877Y-39472388D01*
X50391947Y-39602163D01*
X50390588Y-39610888D01*
X50390588Y-39610890D01*
X50373228Y-39722388D01*
X50369891Y-39743823D01*
X50374664Y-39780323D01*
X50387325Y-39877143D01*
X50388480Y-39885979D01*
X50446220Y-40017203D01*
X50451905Y-40023966D01*
X50528623Y-40115233D01*
X50538470Y-40126948D01*
X50566429Y-40145559D01*
X50642415Y-40196140D01*
X50657813Y-40206390D01*
X50754309Y-40236537D01*
X50786222Y-40246507D01*
X50786223Y-40246507D01*
X50794657Y-40249142D01*
X50803492Y-40249304D01*
X50823299Y-40249667D01*
X50937999Y-40251770D01*
X50946515Y-40249448D01*
X50946517Y-40249448D01*
X51067798Y-40216383D01*
X51067801Y-40216382D01*
X51076317Y-40214060D01*
X51187882Y-40145559D01*
X51190962Y-40143668D01*
X51190963Y-40143667D01*
X51198491Y-40139045D01*
X51204422Y-40132493D01*
X51208567Y-40127914D01*
X51268149Y-40091421D01*
X51338002Y-40092933D01*
X51395949Y-40131971D01*
X51423591Y-40196140D01*
X51424500Y-40211126D01*
X51424500Y-42230373D01*
X51424028Y-42241181D01*
X51420736Y-42278807D01*
X51430517Y-42315310D01*
X51432855Y-42325857D01*
X51439412Y-42363045D01*
X51444838Y-42372442D01*
X51446096Y-42375900D01*
X51447639Y-42379209D01*
X51450446Y-42389684D01*
X51456667Y-42398568D01*
X51472106Y-42420617D01*
X51477920Y-42429743D01*
X51485837Y-42443455D01*
X51496806Y-42462455D01*
X51505116Y-42469428D01*
X51525744Y-42486737D01*
X51533719Y-42494045D01*
X53106450Y-44066776D01*
X53113759Y-44074751D01*
X53138045Y-44103694D01*
X53147437Y-44109116D01*
X53147439Y-44109118D01*
X53170757Y-44122580D01*
X53179883Y-44128394D01*
X53210816Y-44150054D01*
X53221291Y-44152861D01*
X53224600Y-44154404D01*
X53228058Y-44155662D01*
X53237455Y-44161088D01*
X53261465Y-44165321D01*
X53274643Y-44167645D01*
X53285190Y-44169983D01*
X53321693Y-44179764D01*
X53359322Y-44176472D01*
X53370130Y-44176000D01*
X58061968Y-44176000D01*
X58129007Y-44195685D01*
X58156888Y-44220212D01*
X58162970Y-44227448D01*
X58181143Y-44239545D01*
X58249618Y-44285126D01*
X58282313Y-44306890D01*
X58378809Y-44337037D01*
X58410722Y-44347007D01*
X58410723Y-44347007D01*
X58419157Y-44349642D01*
X58427992Y-44349804D01*
X58440920Y-44350041D01*
X58562499Y-44352270D01*
X58571015Y-44349948D01*
X58571017Y-44349948D01*
X58692298Y-44316883D01*
X58692301Y-44316882D01*
X58700817Y-44314560D01*
X58822991Y-44239545D01*
X58840060Y-44220688D01*
X58900056Y-44154404D01*
X58919200Y-44133254D01*
X58981710Y-44004233D01*
X59005496Y-43862854D01*
X59005647Y-43850500D01*
X59003691Y-43836837D01*
X58986575Y-43717324D01*
X58985323Y-43708582D01*
X58925984Y-43578072D01*
X58832400Y-43469463D01*
X58712095Y-43391485D01*
X58574739Y-43350407D01*
X58565905Y-43350353D01*
X58477357Y-43349812D01*
X58431376Y-43349531D01*
X58293529Y-43388928D01*
X58172280Y-43465430D01*
X58156690Y-43483083D01*
X58097559Y-43520301D01*
X58063747Y-43525000D01*
X53536688Y-43525000D01*
X53469649Y-43505315D01*
X53449007Y-43488681D01*
X52111819Y-42151493D01*
X52078334Y-42090170D01*
X52075500Y-42063812D01*
X52075500Y-41743823D01*
X56244391Y-41743823D01*
X56245537Y-41752585D01*
X56260915Y-41870185D01*
X56262980Y-41885979D01*
X56320720Y-42017203D01*
X56412970Y-42126948D01*
X56532313Y-42206390D01*
X56609080Y-42230373D01*
X56660722Y-42246507D01*
X56660723Y-42246507D01*
X56669157Y-42249142D01*
X56677992Y-42249304D01*
X56697799Y-42249667D01*
X56812499Y-42251770D01*
X56821015Y-42249448D01*
X56821017Y-42249448D01*
X56942298Y-42216383D01*
X56942301Y-42216382D01*
X56950817Y-42214060D01*
X57044136Y-42156762D01*
X57065462Y-42143668D01*
X57065463Y-42143667D01*
X57072991Y-42139045D01*
X57169200Y-42032754D01*
X57231710Y-41903733D01*
X57250202Y-41793823D01*
X62744391Y-41793823D01*
X62762980Y-41935979D01*
X62820720Y-42067203D01*
X62912970Y-42176948D01*
X62920324Y-42181843D01*
X63021425Y-42249142D01*
X63032313Y-42256390D01*
X63128809Y-42286537D01*
X63160722Y-42296507D01*
X63160723Y-42296507D01*
X63169157Y-42299142D01*
X63177992Y-42299304D01*
X63197799Y-42299667D01*
X63312499Y-42301770D01*
X63321015Y-42299448D01*
X63321017Y-42299448D01*
X63442298Y-42266383D01*
X63442301Y-42266382D01*
X63450817Y-42264060D01*
X63572991Y-42189045D01*
X63609507Y-42148703D01*
X63663272Y-42089303D01*
X63669200Y-42082754D01*
X63731710Y-41953733D01*
X63755496Y-41812354D01*
X63755647Y-41800000D01*
X63754763Y-41793823D01*
X63736575Y-41666824D01*
X63735323Y-41658082D01*
X63675984Y-41527572D01*
X63662872Y-41512354D01*
X63639830Y-41485613D01*
X63582400Y-41418963D01*
X63462095Y-41340985D01*
X63324739Y-41299907D01*
X63315905Y-41299853D01*
X63227357Y-41299312D01*
X63181376Y-41299031D01*
X63043529Y-41338428D01*
X62922280Y-41414930D01*
X62916435Y-41421548D01*
X62916433Y-41421550D01*
X62833223Y-41515768D01*
X62833221Y-41515770D01*
X62827377Y-41522388D01*
X62766447Y-41652163D01*
X62765088Y-41660888D01*
X62765088Y-41660890D01*
X62747352Y-41774803D01*
X62744391Y-41793823D01*
X57250202Y-41793823D01*
X57255496Y-41762354D01*
X57255647Y-41750000D01*
X57254763Y-41743823D01*
X57236575Y-41616824D01*
X57235323Y-41608082D01*
X57175984Y-41477572D01*
X57082400Y-41368963D01*
X56962095Y-41290985D01*
X56824739Y-41249907D01*
X56815905Y-41249853D01*
X56726054Y-41249304D01*
X56681376Y-41249031D01*
X56543529Y-41288428D01*
X56422280Y-41364930D01*
X56416435Y-41371548D01*
X56416433Y-41371550D01*
X56333223Y-41465768D01*
X56333221Y-41465770D01*
X56327377Y-41472388D01*
X56266447Y-41602163D01*
X56265088Y-41610888D01*
X56265088Y-41610890D01*
X56256379Y-41666824D01*
X56244391Y-41743823D01*
X52075500Y-41743823D01*
X52075500Y-39993823D01*
X52494391Y-39993823D01*
X52497433Y-40017084D01*
X52510915Y-40120185D01*
X52512980Y-40135979D01*
X52570720Y-40267203D01*
X52662970Y-40376948D01*
X52782313Y-40456390D01*
X52859115Y-40480384D01*
X52910722Y-40496507D01*
X52910723Y-40496507D01*
X52919157Y-40499142D01*
X52927992Y-40499304D01*
X52947799Y-40499667D01*
X53062499Y-40501770D01*
X53071015Y-40499448D01*
X53071017Y-40499448D01*
X53192298Y-40466383D01*
X53192301Y-40466382D01*
X53200817Y-40464060D01*
X53322991Y-40389045D01*
X53345518Y-40364158D01*
X53401987Y-40301771D01*
X53419200Y-40282754D01*
X53481710Y-40153733D01*
X53505496Y-40012354D01*
X53505647Y-40000000D01*
X53504763Y-39993823D01*
X53486575Y-39866824D01*
X53485323Y-39858082D01*
X53425984Y-39727572D01*
X53415725Y-39715665D01*
X53381563Y-39676019D01*
X53332400Y-39618963D01*
X53212095Y-39540985D01*
X53074739Y-39499907D01*
X53065905Y-39499853D01*
X52977357Y-39499312D01*
X52931376Y-39499031D01*
X52793529Y-39538428D01*
X52672280Y-39614930D01*
X52666435Y-39621548D01*
X52666433Y-39621550D01*
X52583223Y-39715768D01*
X52583221Y-39715770D01*
X52577377Y-39722388D01*
X52516447Y-39852163D01*
X52515088Y-39860888D01*
X52515088Y-39860890D01*
X52497674Y-39972737D01*
X52494391Y-39993823D01*
X52075500Y-39993823D01*
X52075500Y-39760926D01*
X52075972Y-39750119D01*
X52078318Y-39723307D01*
X52078318Y-39723305D01*
X52079263Y-39712500D01*
X52069489Y-39676019D01*
X52067148Y-39665462D01*
X52062472Y-39638946D01*
X52060588Y-39628262D01*
X52055165Y-39618868D01*
X52053908Y-39615415D01*
X52052361Y-39612098D01*
X52049554Y-39601623D01*
X52027892Y-39570686D01*
X52022083Y-39561568D01*
X52008617Y-39538244D01*
X52008616Y-39538242D01*
X52003194Y-39528852D01*
X51974261Y-39504574D01*
X51966287Y-39497267D01*
X51378226Y-38909207D01*
X51370917Y-38901231D01*
X51353610Y-38880605D01*
X51346637Y-38872295D01*
X51327612Y-38861311D01*
X51301931Y-38841605D01*
X51291430Y-38831104D01*
X51257945Y-38769781D01*
X51255608Y-38753152D01*
X51255647Y-38750000D01*
X51254763Y-38743823D01*
X51236575Y-38616824D01*
X51235323Y-38608082D01*
X51183373Y-38493823D01*
X62744391Y-38493823D01*
X62745537Y-38502585D01*
X62758281Y-38600041D01*
X62762980Y-38635979D01*
X62820720Y-38767203D01*
X62912970Y-38876948D01*
X63032313Y-38956390D01*
X63128809Y-38986537D01*
X63160722Y-38996507D01*
X63160723Y-38996507D01*
X63169157Y-38999142D01*
X63177992Y-38999304D01*
X63197799Y-38999667D01*
X63312499Y-39001770D01*
X63321015Y-38999448D01*
X63321017Y-38999448D01*
X63442298Y-38966383D01*
X63442301Y-38966382D01*
X63450817Y-38964060D01*
X63554903Y-38900151D01*
X63565462Y-38893668D01*
X63565463Y-38893667D01*
X63572991Y-38889045D01*
X63580631Y-38880605D01*
X63663272Y-38789303D01*
X63669200Y-38782754D01*
X63688062Y-38743823D01*
X68994391Y-38743823D01*
X68998333Y-38773966D01*
X69011191Y-38872295D01*
X69012980Y-38885979D01*
X69070720Y-39017203D01*
X69162970Y-39126948D01*
X69282313Y-39206390D01*
X69378809Y-39236537D01*
X69410722Y-39246507D01*
X69410723Y-39246507D01*
X69419157Y-39249142D01*
X69427992Y-39249304D01*
X69447799Y-39249667D01*
X69562499Y-39251770D01*
X69571015Y-39249448D01*
X69571017Y-39249448D01*
X69692298Y-39216383D01*
X69692301Y-39216382D01*
X69700817Y-39214060D01*
X69822991Y-39139045D01*
X69834486Y-39126346D01*
X69877847Y-39078441D01*
X69919200Y-39032754D01*
X69981710Y-38903733D01*
X70005496Y-38762354D01*
X70005647Y-38750000D01*
X70004763Y-38743823D01*
X69986575Y-38616824D01*
X69985323Y-38608082D01*
X69925984Y-38477572D01*
X69832400Y-38368963D01*
X69712095Y-38290985D01*
X69574739Y-38249907D01*
X69565905Y-38249853D01*
X69477357Y-38249312D01*
X69431376Y-38249031D01*
X69293529Y-38288428D01*
X69172280Y-38364930D01*
X69166435Y-38371548D01*
X69166433Y-38371550D01*
X69083223Y-38465768D01*
X69083221Y-38465770D01*
X69077377Y-38472388D01*
X69016447Y-38602163D01*
X69015088Y-38610888D01*
X69015088Y-38610890D01*
X68997385Y-38724593D01*
X68994391Y-38743823D01*
X63688062Y-38743823D01*
X63731710Y-38653733D01*
X63755496Y-38512354D01*
X63755555Y-38507563D01*
X63755589Y-38504786D01*
X63755589Y-38504780D01*
X63755647Y-38500000D01*
X63754763Y-38493823D01*
X63736575Y-38366824D01*
X63735323Y-38358082D01*
X63675984Y-38227572D01*
X63670218Y-38220881D01*
X63670216Y-38220877D01*
X63658163Y-38206889D01*
X63629314Y-38143253D01*
X63639449Y-38074123D01*
X63660170Y-38042731D01*
X63663270Y-38039306D01*
X63663272Y-38039304D01*
X63669200Y-38032754D01*
X63731710Y-37903733D01*
X63755496Y-37762354D01*
X63755647Y-37750000D01*
X63754763Y-37743823D01*
X63736575Y-37616824D01*
X63735323Y-37608082D01*
X63675984Y-37477572D01*
X63670218Y-37470881D01*
X63670216Y-37470877D01*
X63658163Y-37456889D01*
X63629314Y-37393253D01*
X63639449Y-37324123D01*
X63660170Y-37292731D01*
X63663270Y-37289306D01*
X63663272Y-37289303D01*
X63669200Y-37282754D01*
X63731710Y-37153733D01*
X63755496Y-37012354D01*
X63755647Y-37000000D01*
X63754763Y-36993823D01*
X63736575Y-36866824D01*
X63735323Y-36858082D01*
X63675984Y-36727572D01*
X63670218Y-36720881D01*
X63670216Y-36720877D01*
X63658163Y-36706889D01*
X63629314Y-36643253D01*
X63639449Y-36574123D01*
X63660170Y-36542731D01*
X63663270Y-36539306D01*
X63663272Y-36539303D01*
X63669200Y-36532754D01*
X63731710Y-36403733D01*
X63755496Y-36262354D01*
X63755647Y-36250000D01*
X63754763Y-36243823D01*
X68994391Y-36243823D01*
X68995537Y-36252585D01*
X69008281Y-36350041D01*
X69012980Y-36385979D01*
X69070720Y-36517203D01*
X69092524Y-36543142D01*
X69156461Y-36619204D01*
X69162970Y-36626948D01*
X69282313Y-36706390D01*
X69359128Y-36730388D01*
X69410722Y-36746507D01*
X69410723Y-36746507D01*
X69419157Y-36749142D01*
X69427992Y-36749304D01*
X69447799Y-36749667D01*
X69562499Y-36751770D01*
X69571015Y-36749448D01*
X69571017Y-36749448D01*
X69692298Y-36716383D01*
X69692301Y-36716382D01*
X69700817Y-36714060D01*
X69799069Y-36653733D01*
X69815462Y-36643668D01*
X69815463Y-36643667D01*
X69822991Y-36639045D01*
X69845518Y-36614158D01*
X69905902Y-36547445D01*
X69919200Y-36532754D01*
X69981710Y-36403733D01*
X70005496Y-36262354D01*
X70005647Y-36250000D01*
X70004763Y-36243823D01*
X69986575Y-36116824D01*
X69985323Y-36108082D01*
X69925984Y-35977572D01*
X69832400Y-35868963D01*
X69712095Y-35790985D01*
X69574739Y-35749907D01*
X69565905Y-35749853D01*
X69477357Y-35749312D01*
X69431376Y-35749031D01*
X69293529Y-35788428D01*
X69172280Y-35864930D01*
X69166435Y-35871548D01*
X69166433Y-35871550D01*
X69083223Y-35965768D01*
X69083221Y-35965770D01*
X69077377Y-35972388D01*
X69016447Y-36102163D01*
X69015088Y-36110888D01*
X69015088Y-36110890D01*
X69012789Y-36125658D01*
X68994391Y-36243823D01*
X63754763Y-36243823D01*
X63736575Y-36116824D01*
X63735323Y-36108082D01*
X63675984Y-35977572D01*
X63582400Y-35868963D01*
X63462095Y-35790985D01*
X63324739Y-35749907D01*
X63315905Y-35749853D01*
X63227357Y-35749312D01*
X63181376Y-35749031D01*
X63043529Y-35788428D01*
X62922280Y-35864930D01*
X62916435Y-35871548D01*
X62916433Y-35871550D01*
X62833223Y-35965768D01*
X62833221Y-35965770D01*
X62827377Y-35972388D01*
X62766447Y-36102163D01*
X62765088Y-36110888D01*
X62765088Y-36110890D01*
X62762789Y-36125658D01*
X62744391Y-36243823D01*
X62745537Y-36252585D01*
X62758281Y-36350041D01*
X62762980Y-36385979D01*
X62820720Y-36517203D01*
X62843586Y-36544406D01*
X62871654Y-36608387D01*
X62860675Y-36677388D01*
X62841607Y-36706276D01*
X62827377Y-36722388D01*
X62766447Y-36852163D01*
X62765088Y-36860888D01*
X62765088Y-36860890D01*
X62750981Y-36951495D01*
X62744391Y-36993823D01*
X62753685Y-37064901D01*
X62760228Y-37114930D01*
X62762980Y-37135979D01*
X62820720Y-37267203D01*
X62843586Y-37294406D01*
X62871654Y-37358387D01*
X62860675Y-37427388D01*
X62841607Y-37456276D01*
X62827377Y-37472388D01*
X62766447Y-37602163D01*
X62765088Y-37610888D01*
X62765088Y-37610890D01*
X62745750Y-37735093D01*
X62744391Y-37743823D01*
X62745537Y-37752585D01*
X62760915Y-37870185D01*
X62762980Y-37885979D01*
X62820720Y-38017203D01*
X62843586Y-38044406D01*
X62871654Y-38108387D01*
X62860675Y-38177388D01*
X62841607Y-38206276D01*
X62827377Y-38222388D01*
X62766447Y-38352163D01*
X62765088Y-38360888D01*
X62765088Y-38360890D01*
X62762789Y-38375658D01*
X62744391Y-38493823D01*
X51183373Y-38493823D01*
X51175984Y-38477572D01*
X51082400Y-38368963D01*
X50962095Y-38290985D01*
X50824739Y-38249907D01*
X50815905Y-38249853D01*
X50727357Y-38249312D01*
X50681376Y-38249031D01*
X50543529Y-38288428D01*
X50422280Y-38364930D01*
X50416435Y-38371548D01*
X50416433Y-38371550D01*
X50333223Y-38465768D01*
X50333221Y-38465770D01*
X50327377Y-38472388D01*
X50266447Y-38602163D01*
X50265088Y-38610888D01*
X50265088Y-38610890D01*
X50247385Y-38724593D01*
X50244391Y-38743823D01*
X45898443Y-38743823D01*
X46008138Y-38512283D01*
X46009737Y-38508908D01*
X46112767Y-38200089D01*
X46177950Y-37881129D01*
X46184807Y-37796824D01*
X46204165Y-37558828D01*
X46204165Y-37558819D01*
X46204342Y-37556648D01*
X46204935Y-37500000D01*
X46204563Y-37493823D01*
X55744391Y-37493823D01*
X55745537Y-37502585D01*
X55758281Y-37600041D01*
X55762980Y-37635979D01*
X55820720Y-37767203D01*
X55912970Y-37876948D01*
X56032313Y-37956390D01*
X56128809Y-37986537D01*
X56160722Y-37996507D01*
X56160723Y-37996507D01*
X56169157Y-37999142D01*
X56177992Y-37999304D01*
X56197799Y-37999667D01*
X56312499Y-38001770D01*
X56321015Y-37999448D01*
X56321017Y-37999448D01*
X56442298Y-37966383D01*
X56442301Y-37966382D01*
X56450817Y-37964060D01*
X56549069Y-37903733D01*
X56565462Y-37893668D01*
X56565463Y-37893667D01*
X56572991Y-37889045D01*
X56669200Y-37782754D01*
X56731710Y-37653733D01*
X56755496Y-37512354D01*
X56755647Y-37500000D01*
X56754763Y-37493823D01*
X56736575Y-37366824D01*
X56735323Y-37358082D01*
X56675984Y-37227572D01*
X56582400Y-37118963D01*
X56462095Y-37040985D01*
X56324739Y-36999907D01*
X56315905Y-36999853D01*
X56226054Y-36999304D01*
X56181376Y-36999031D01*
X56043529Y-37038428D01*
X55922280Y-37114930D01*
X55916435Y-37121548D01*
X55916433Y-37121550D01*
X55833223Y-37215768D01*
X55833221Y-37215770D01*
X55827377Y-37222388D01*
X55766447Y-37352163D01*
X55765088Y-37360888D01*
X55765088Y-37360890D01*
X55746921Y-37477572D01*
X55744391Y-37493823D01*
X46204563Y-37493823D01*
X46185344Y-37175038D01*
X46126855Y-36854783D01*
X46061173Y-36643253D01*
X46031424Y-36547445D01*
X46031423Y-36547442D01*
X46030315Y-36543874D01*
X46028081Y-36538890D01*
X46007874Y-36493823D01*
X59244391Y-36493823D01*
X59251403Y-36547445D01*
X59260915Y-36620185D01*
X59262980Y-36635979D01*
X59320720Y-36767203D01*
X59333792Y-36782754D01*
X59397112Y-36858082D01*
X59412970Y-36876948D01*
X59532313Y-36956390D01*
X59624188Y-36985093D01*
X59660722Y-36996507D01*
X59660723Y-36996507D01*
X59669157Y-36999142D01*
X59677992Y-36999304D01*
X59697799Y-36999667D01*
X59812499Y-37001770D01*
X59821015Y-36999448D01*
X59821017Y-36999448D01*
X59942298Y-36966383D01*
X59942301Y-36966382D01*
X59950817Y-36964060D01*
X60072991Y-36889045D01*
X60098476Y-36860890D01*
X60163274Y-36789301D01*
X60169200Y-36782754D01*
X60231710Y-36653733D01*
X60255496Y-36512354D01*
X60255647Y-36500000D01*
X60254763Y-36493823D01*
X60236575Y-36366824D01*
X60235323Y-36358082D01*
X60175984Y-36227572D01*
X60168258Y-36218605D01*
X60144762Y-36191338D01*
X60082400Y-36118963D01*
X59962095Y-36040985D01*
X59824739Y-35999907D01*
X59815905Y-35999853D01*
X59727357Y-35999312D01*
X59681376Y-35999031D01*
X59543529Y-36038428D01*
X59422280Y-36114930D01*
X59416435Y-36121548D01*
X59416433Y-36121550D01*
X59333223Y-36215768D01*
X59333221Y-36215770D01*
X59327377Y-36222388D01*
X59266447Y-36352163D01*
X59265088Y-36360888D01*
X59265088Y-36360890D01*
X59245750Y-36485093D01*
X59244391Y-36493823D01*
X46007874Y-36493823D01*
X45906211Y-36267084D01*
X45897123Y-36246814D01*
X45729208Y-35967908D01*
X45589716Y-35789045D01*
X45531298Y-35714138D01*
X45529002Y-35711194D01*
X45507964Y-35690045D01*
X45363695Y-35545019D01*
X45299405Y-35480392D01*
X45281635Y-35466383D01*
X45046689Y-35281167D01*
X45046684Y-35281164D01*
X45043743Y-35278845D01*
X45040545Y-35276897D01*
X45040541Y-35276894D01*
X44841105Y-35155396D01*
X44794094Y-35103707D01*
X44782491Y-35034808D01*
X44809981Y-34970573D01*
X44867834Y-34931397D01*
X44905618Y-34925500D01*
X47078394Y-34925500D01*
X47145433Y-34945185D01*
X47191188Y-34997989D01*
X47201132Y-35067147D01*
X47182343Y-35116765D01*
X47177377Y-35122388D01*
X47116447Y-35252163D01*
X47115089Y-35260886D01*
X47115088Y-35260890D01*
X47095750Y-35385093D01*
X47094391Y-35393823D01*
X47112980Y-35535979D01*
X47170720Y-35667203D01*
X47262970Y-35776948D01*
X47382313Y-35856390D01*
X47443988Y-35875658D01*
X47510722Y-35896507D01*
X47510723Y-35896507D01*
X47519157Y-35899142D01*
X47527992Y-35899304D01*
X47547799Y-35899667D01*
X47662499Y-35901770D01*
X47671015Y-35899448D01*
X47671017Y-35899448D01*
X47792298Y-35866383D01*
X47792301Y-35866382D01*
X47800817Y-35864060D01*
X47922991Y-35789045D01*
X48019200Y-35682754D01*
X48081710Y-35553733D01*
X48105496Y-35412354D01*
X48105647Y-35400000D01*
X48104763Y-35393823D01*
X48086575Y-35266824D01*
X48085323Y-35258082D01*
X48041494Y-35161685D01*
X48029642Y-35135617D01*
X48029641Y-35135616D01*
X48025984Y-35127572D01*
X48020215Y-35120877D01*
X48017293Y-35116308D01*
X47997757Y-35049226D01*
X48017590Y-34982230D01*
X48070495Y-34936592D01*
X48121757Y-34925500D01*
X50176616Y-34925500D01*
X50243655Y-34945185D01*
X50289410Y-34997989D01*
X50299569Y-35033422D01*
X50310574Y-35117576D01*
X50312980Y-35135979D01*
X50370720Y-35267203D01*
X50462970Y-35376948D01*
X50582313Y-35456390D01*
X50651734Y-35478078D01*
X50710722Y-35496507D01*
X50710723Y-35496507D01*
X50719157Y-35499142D01*
X50727992Y-35499304D01*
X50747799Y-35499667D01*
X50862499Y-35501770D01*
X50871015Y-35499448D01*
X50871017Y-35499448D01*
X50992298Y-35466383D01*
X50992301Y-35466382D01*
X51000817Y-35464060D01*
X51112864Y-35395263D01*
X51115462Y-35393668D01*
X51115463Y-35393667D01*
X51122991Y-35389045D01*
X51219200Y-35282754D01*
X51281710Y-35153733D01*
X51305496Y-35012354D01*
X51305647Y-35000000D01*
X51304771Y-34993879D01*
X51287715Y-34874787D01*
X51285867Y-34861881D01*
X51295849Y-34792729D01*
X51341634Y-34739950D01*
X51408684Y-34720303D01*
X51475712Y-34740025D01*
X51496296Y-34756622D01*
X51659152Y-34919478D01*
X51692637Y-34980801D01*
X51693964Y-34993879D01*
X51694391Y-34993823D01*
X51710574Y-35117576D01*
X51712980Y-35135979D01*
X51770720Y-35267203D01*
X51862970Y-35376948D01*
X51982313Y-35456390D01*
X52051734Y-35478078D01*
X52110722Y-35496507D01*
X52110723Y-35496507D01*
X52119157Y-35499142D01*
X52127992Y-35499304D01*
X52147799Y-35499667D01*
X52262499Y-35501770D01*
X52271015Y-35499448D01*
X52271017Y-35499448D01*
X52392298Y-35466383D01*
X52392301Y-35466382D01*
X52400817Y-35464060D01*
X52512864Y-35395263D01*
X52515462Y-35393668D01*
X52515463Y-35393667D01*
X52522991Y-35389045D01*
X52552375Y-35356582D01*
X52611958Y-35320089D01*
X52681811Y-35321602D01*
X52739228Y-35360007D01*
X52753468Y-35376948D01*
X52872811Y-35456390D01*
X52942232Y-35478078D01*
X53001220Y-35496507D01*
X53001221Y-35496507D01*
X53009655Y-35499142D01*
X53018490Y-35499304D01*
X53038297Y-35499667D01*
X53152997Y-35501770D01*
X53161513Y-35499448D01*
X53161515Y-35499448D01*
X53282796Y-35466383D01*
X53282799Y-35466382D01*
X53291315Y-35464060D01*
X53403362Y-35395263D01*
X53405960Y-35393668D01*
X53405961Y-35393667D01*
X53413489Y-35389045D01*
X53509698Y-35282754D01*
X53572208Y-35153733D01*
X53595994Y-35012354D01*
X53596145Y-35000000D01*
X53595269Y-34993879D01*
X53577073Y-34866824D01*
X53575821Y-34858082D01*
X53516482Y-34727572D01*
X53504840Y-34714060D01*
X53461938Y-34664271D01*
X53422898Y-34618963D01*
X53302593Y-34540985D01*
X53165237Y-34499907D01*
X53156403Y-34499853D01*
X53067855Y-34499312D01*
X53021874Y-34499031D01*
X52884027Y-34538428D01*
X52762778Y-34614930D01*
X52752164Y-34626948D01*
X52738504Y-34642415D01*
X52679372Y-34679633D01*
X52609506Y-34678973D01*
X52551625Y-34641274D01*
X52538169Y-34625658D01*
X52538168Y-34625657D01*
X52532400Y-34618963D01*
X52412095Y-34540985D01*
X52274739Y-34499907D01*
X52265905Y-34499853D01*
X52210446Y-34499514D01*
X52143528Y-34479420D01*
X52123523Y-34463197D01*
X51904149Y-34243823D01*
X56994391Y-34243823D01*
X57001303Y-34296682D01*
X57007858Y-34346806D01*
X57012980Y-34385979D01*
X57070720Y-34517203D01*
X57162970Y-34626948D01*
X57282313Y-34706390D01*
X57375852Y-34735613D01*
X57410722Y-34746507D01*
X57410723Y-34746507D01*
X57419157Y-34749142D01*
X57427992Y-34749304D01*
X57447799Y-34749667D01*
X57562499Y-34751770D01*
X57571015Y-34749448D01*
X57571017Y-34749448D01*
X57692298Y-34716383D01*
X57692301Y-34716382D01*
X57700817Y-34714060D01*
X57794136Y-34656762D01*
X57815462Y-34643668D01*
X57815463Y-34643667D01*
X57822991Y-34639045D01*
X57845518Y-34614158D01*
X57871096Y-34585899D01*
X57919200Y-34532754D01*
X57935069Y-34500000D01*
X69394318Y-34500000D01*
X69414956Y-34656762D01*
X69418065Y-34664269D01*
X69418066Y-34664271D01*
X69454310Y-34751770D01*
X69475464Y-34802841D01*
X69491892Y-34824251D01*
X69552563Y-34903318D01*
X69571718Y-34928282D01*
X69578165Y-34933229D01*
X69588273Y-34940985D01*
X69697159Y-35024536D01*
X69704667Y-35027646D01*
X69835729Y-35081934D01*
X69835731Y-35081935D01*
X69843238Y-35085044D01*
X70000000Y-35105682D01*
X70008059Y-35104621D01*
X70148703Y-35086105D01*
X70156762Y-35085044D01*
X70164269Y-35081935D01*
X70164271Y-35081934D01*
X70295333Y-35027646D01*
X70302841Y-35024536D01*
X70411727Y-34940985D01*
X70421835Y-34933229D01*
X70428282Y-34928282D01*
X70447438Y-34903318D01*
X70508108Y-34824251D01*
X70524536Y-34802841D01*
X70545690Y-34751770D01*
X70581934Y-34664271D01*
X70581935Y-34664269D01*
X70585044Y-34656762D01*
X70605682Y-34500000D01*
X70585044Y-34343238D01*
X70555405Y-34271682D01*
X70527646Y-34204667D01*
X70524536Y-34197159D01*
X70428282Y-34071718D01*
X70393240Y-34044829D01*
X70309288Y-33980411D01*
X70302841Y-33975464D01*
X70291777Y-33970881D01*
X70164271Y-33918066D01*
X70164269Y-33918065D01*
X70156762Y-33914956D01*
X70000000Y-33894318D01*
X69843238Y-33914956D01*
X69835731Y-33918065D01*
X69835729Y-33918066D01*
X69708223Y-33970881D01*
X69697159Y-33975464D01*
X69690712Y-33980411D01*
X69606761Y-34044829D01*
X69571718Y-34071718D01*
X69475464Y-34197159D01*
X69472354Y-34204667D01*
X69444596Y-34271682D01*
X69414956Y-34343238D01*
X69394318Y-34500000D01*
X57935069Y-34500000D01*
X57981710Y-34403733D01*
X58005496Y-34262354D01*
X58005555Y-34257563D01*
X58005589Y-34254786D01*
X58005589Y-34254780D01*
X58005647Y-34250000D01*
X58004763Y-34243823D01*
X57986575Y-34116824D01*
X57985323Y-34108082D01*
X57925984Y-33977572D01*
X57912411Y-33961819D01*
X57884816Y-33929795D01*
X57832400Y-33868963D01*
X57712095Y-33790985D01*
X57574739Y-33749907D01*
X57565905Y-33749853D01*
X57477357Y-33749312D01*
X57431376Y-33749031D01*
X57293529Y-33788428D01*
X57172280Y-33864930D01*
X57166435Y-33871548D01*
X57166433Y-33871550D01*
X57083223Y-33965768D01*
X57083221Y-33965770D01*
X57077377Y-33972388D01*
X57016447Y-34102163D01*
X57015088Y-34110888D01*
X57015088Y-34110890D01*
X57002660Y-34190712D01*
X56994391Y-34243823D01*
X51904149Y-34243823D01*
X51044050Y-33383724D01*
X51036741Y-33375749D01*
X51019427Y-33355115D01*
X51012455Y-33346806D01*
X51003063Y-33341384D01*
X51003061Y-33341382D01*
X50979743Y-33327920D01*
X50970617Y-33322106D01*
X50963209Y-33316919D01*
X50939684Y-33300446D01*
X50929209Y-33297639D01*
X50925900Y-33296096D01*
X50922442Y-33294838D01*
X50913045Y-33289412D01*
X50889035Y-33285179D01*
X50875857Y-33282855D01*
X50865310Y-33280517D01*
X50828807Y-33270736D01*
X50791181Y-33274028D01*
X50780373Y-33274500D01*
X40521565Y-33274500D01*
X40454526Y-33254815D01*
X40408771Y-33202011D01*
X40398827Y-33132853D01*
X40417369Y-33084777D01*
X40419200Y-33082754D01*
X40426735Y-33067203D01*
X40477857Y-32961685D01*
X40481710Y-32953733D01*
X40505496Y-32812354D01*
X40505647Y-32800000D01*
X40504763Y-32793823D01*
X40486575Y-32666824D01*
X40485323Y-32658082D01*
X40425984Y-32527572D01*
X40414104Y-32513784D01*
X40382443Y-32477041D01*
X40332400Y-32418963D01*
X40212095Y-32340985D01*
X40074739Y-32299907D01*
X40065905Y-32299853D01*
X39977357Y-32299312D01*
X39931376Y-32299031D01*
X39793529Y-32338428D01*
X39672280Y-32414930D01*
X39666435Y-32421548D01*
X39666433Y-32421550D01*
X39583223Y-32515768D01*
X39583221Y-32515770D01*
X39577377Y-32522388D01*
X39516447Y-32652163D01*
X39515088Y-32660888D01*
X39515088Y-32660890D01*
X39508921Y-32700500D01*
X39494391Y-32793823D01*
X39512980Y-32935979D01*
X39516539Y-32944066D01*
X39516539Y-32944068D01*
X39521517Y-32955382D01*
X39530499Y-33024672D01*
X39500594Y-33087818D01*
X39442094Y-33124548D01*
X39393529Y-33138428D01*
X39272280Y-33214930D01*
X39266435Y-33221548D01*
X39266433Y-33221550D01*
X39183223Y-33315768D01*
X39183221Y-33315770D01*
X39177377Y-33322388D01*
X39116447Y-33452163D01*
X39116352Y-33452771D01*
X39080203Y-33507670D01*
X39016329Y-33535987D01*
X38947285Y-33525276D01*
X38894993Y-33478938D01*
X38885571Y-33457969D01*
X38885323Y-33458082D01*
X38829640Y-33335613D01*
X38825984Y-33327572D01*
X38819106Y-33319589D01*
X38777826Y-33271682D01*
X38732400Y-33218963D01*
X38612095Y-33140985D01*
X38474739Y-33099907D01*
X38465905Y-33099853D01*
X38377357Y-33099312D01*
X38331376Y-33099031D01*
X38193529Y-33138428D01*
X38072280Y-33214930D01*
X38066435Y-33221548D01*
X38066433Y-33221550D01*
X37983223Y-33315768D01*
X37983221Y-33315770D01*
X37977377Y-33322388D01*
X37916447Y-33452163D01*
X37915088Y-33460888D01*
X37915088Y-33460890D01*
X37903396Y-33535987D01*
X37894391Y-33593823D01*
X35200000Y-33593823D01*
X35200000Y-32811582D01*
X35219685Y-32744543D01*
X35272489Y-32698788D01*
X35317510Y-32687752D01*
X35331694Y-32687009D01*
X35331701Y-32687008D01*
X35334950Y-32686838D01*
X35338164Y-32686329D01*
X35338173Y-32686328D01*
X35610228Y-32643238D01*
X35666231Y-32634368D01*
X35990212Y-32547558D01*
X35993228Y-32546400D01*
X35993235Y-32546398D01*
X36272936Y-32439030D01*
X36342577Y-32433382D01*
X36404216Y-32466282D01*
X36438284Y-32527283D01*
X36431935Y-32602247D01*
X36414956Y-32643238D01*
X36394318Y-32800000D01*
X36414956Y-32956762D01*
X36418065Y-32964269D01*
X36418066Y-32964271D01*
X36432866Y-33000000D01*
X36475464Y-33102841D01*
X36571718Y-33228282D01*
X36697159Y-33324536D01*
X36704667Y-33327646D01*
X36835729Y-33381934D01*
X36835731Y-33381935D01*
X36843238Y-33385044D01*
X37000000Y-33405682D01*
X37008059Y-33404621D01*
X37148703Y-33386105D01*
X37156762Y-33385044D01*
X37164269Y-33381935D01*
X37164271Y-33381934D01*
X37295333Y-33327646D01*
X37302841Y-33324536D01*
X37428282Y-33228282D01*
X37524536Y-33102841D01*
X37567134Y-33000000D01*
X37581934Y-32964271D01*
X37581935Y-32964269D01*
X37585044Y-32956762D01*
X37605682Y-32800000D01*
X37585044Y-32643238D01*
X37581581Y-32634876D01*
X37527646Y-32504667D01*
X37524536Y-32497159D01*
X37428282Y-32371718D01*
X37396962Y-32347685D01*
X37333480Y-32298974D01*
X37302841Y-32275464D01*
X37295333Y-32272354D01*
X37164271Y-32218066D01*
X37164269Y-32218065D01*
X37156762Y-32214956D01*
X37148703Y-32213895D01*
X37077684Y-32204545D01*
X37013788Y-32176278D01*
X36975317Y-32117954D01*
X36974486Y-32048089D01*
X37015834Y-31985240D01*
X37141637Y-31883367D01*
X37141639Y-31883365D01*
X37144156Y-31881327D01*
X37381327Y-31644156D01*
X37421461Y-31594594D01*
X41298074Y-31594594D01*
X41299037Y-31600198D01*
X41299037Y-31600199D01*
X41325600Y-31754786D01*
X41335438Y-31812043D01*
X41411804Y-32019043D01*
X41524614Y-32208659D01*
X41670090Y-32374543D01*
X41843360Y-32511137D01*
X41848391Y-32513784D01*
X41907913Y-32545100D01*
X42038620Y-32613869D01*
X42249333Y-32679297D01*
X42254978Y-32679965D01*
X42254982Y-32679966D01*
X42352257Y-32691479D01*
X42428476Y-32700500D01*
X44555970Y-32700500D01*
X44719711Y-32685454D01*
X44932064Y-32625565D01*
X45129947Y-32527980D01*
X45306733Y-32395967D01*
X45456501Y-32233949D01*
X45459536Y-32229139D01*
X45571202Y-32052159D01*
X45571203Y-32052157D01*
X45574236Y-32047350D01*
X45655994Y-31842421D01*
X45670980Y-31767084D01*
X45675607Y-31743823D01*
X53156891Y-31743823D01*
X53158037Y-31752585D01*
X53173499Y-31870827D01*
X53175480Y-31885979D01*
X53233220Y-32017203D01*
X53325470Y-32126948D01*
X53332824Y-32131843D01*
X53426678Y-32194318D01*
X53444813Y-32206390D01*
X53533026Y-32233949D01*
X53573222Y-32246507D01*
X53573223Y-32246507D01*
X53581657Y-32249142D01*
X53590492Y-32249304D01*
X53610299Y-32249667D01*
X53724999Y-32251770D01*
X53733515Y-32249448D01*
X53733517Y-32249448D01*
X53854798Y-32216383D01*
X53854801Y-32216382D01*
X53863317Y-32214060D01*
X53985491Y-32139045D01*
X54004582Y-32117954D01*
X54033596Y-32085899D01*
X54081700Y-32032754D01*
X54144210Y-31903733D01*
X54167996Y-31762354D01*
X54168147Y-31750000D01*
X54167263Y-31743823D01*
X63494391Y-31743823D01*
X63495537Y-31752585D01*
X63510999Y-31870827D01*
X63512980Y-31885979D01*
X63570720Y-32017203D01*
X63662970Y-32126948D01*
X63670324Y-32131843D01*
X63764178Y-32194318D01*
X63782313Y-32206390D01*
X63870526Y-32233949D01*
X63910722Y-32246507D01*
X63910723Y-32246507D01*
X63919157Y-32249142D01*
X63927992Y-32249304D01*
X63947799Y-32249667D01*
X64062499Y-32251770D01*
X64071015Y-32249448D01*
X64071017Y-32249448D01*
X64192298Y-32216383D01*
X64192301Y-32216382D01*
X64200817Y-32214060D01*
X64322991Y-32139045D01*
X64342082Y-32117954D01*
X64371096Y-32085899D01*
X64419200Y-32032754D01*
X64481710Y-31903733D01*
X64505496Y-31762354D01*
X64505647Y-31750000D01*
X64504763Y-31743823D01*
X64486575Y-31616824D01*
X64485323Y-31608082D01*
X64425984Y-31477572D01*
X64332400Y-31368963D01*
X64212095Y-31290985D01*
X64074739Y-31249907D01*
X64065905Y-31249853D01*
X63977357Y-31249312D01*
X63931376Y-31249031D01*
X63793529Y-31288428D01*
X63672280Y-31364930D01*
X63666435Y-31371548D01*
X63666433Y-31371550D01*
X63583223Y-31465768D01*
X63583221Y-31465770D01*
X63577377Y-31472388D01*
X63516447Y-31602163D01*
X63515088Y-31610888D01*
X63515088Y-31610890D01*
X63502907Y-31689128D01*
X63494391Y-31743823D01*
X54167263Y-31743823D01*
X54149075Y-31616824D01*
X54147823Y-31608082D01*
X54088484Y-31477572D01*
X53994900Y-31368963D01*
X53874595Y-31290985D01*
X53737239Y-31249907D01*
X53728405Y-31249853D01*
X53639857Y-31249312D01*
X53593876Y-31249031D01*
X53456029Y-31288428D01*
X53334780Y-31364930D01*
X53328935Y-31371548D01*
X53328933Y-31371550D01*
X53245723Y-31465768D01*
X53245721Y-31465770D01*
X53239877Y-31472388D01*
X53178947Y-31602163D01*
X53177588Y-31610888D01*
X53177588Y-31610890D01*
X53165407Y-31689128D01*
X53156891Y-31743823D01*
X45675607Y-31743823D01*
X45697927Y-31631608D01*
X45699038Y-31626024D01*
X45699159Y-31616824D01*
X45701852Y-31411095D01*
X45701852Y-31411090D01*
X45701926Y-31405406D01*
X45697692Y-31380766D01*
X45665525Y-31193560D01*
X45665524Y-31193557D01*
X45664562Y-31187957D01*
X45588196Y-30980957D01*
X45475386Y-30791341D01*
X45329910Y-30625457D01*
X45162932Y-30493823D01*
X54494391Y-30493823D01*
X54495537Y-30502585D01*
X54508803Y-30604033D01*
X54512980Y-30635979D01*
X54570720Y-30767203D01*
X54662970Y-30876948D01*
X54782313Y-30956390D01*
X54845310Y-30976071D01*
X54910722Y-30996507D01*
X54910723Y-30996507D01*
X54919157Y-30999142D01*
X54927992Y-30999304D01*
X54947799Y-30999667D01*
X55062499Y-31001770D01*
X55071015Y-30999448D01*
X55071017Y-30999448D01*
X55192298Y-30966383D01*
X55192301Y-30966382D01*
X55200817Y-30964060D01*
X55322991Y-30889045D01*
X55419200Y-30782754D01*
X55481710Y-30653733D01*
X55505496Y-30512354D01*
X55505647Y-30500000D01*
X55504763Y-30493823D01*
X62744391Y-30493823D01*
X62745537Y-30502585D01*
X62758803Y-30604033D01*
X62762980Y-30635979D01*
X62820720Y-30767203D01*
X62912970Y-30876948D01*
X63032313Y-30956390D01*
X63095310Y-30976071D01*
X63160722Y-30996507D01*
X63160723Y-30996507D01*
X63169157Y-30999142D01*
X63177992Y-30999304D01*
X63197799Y-30999667D01*
X63312499Y-31001770D01*
X63321015Y-30999448D01*
X63321017Y-30999448D01*
X63442298Y-30966383D01*
X63442301Y-30966382D01*
X63450817Y-30964060D01*
X63572991Y-30889045D01*
X63669200Y-30782754D01*
X63731710Y-30653733D01*
X63755496Y-30512354D01*
X63755647Y-30500000D01*
X63754763Y-30493823D01*
X63736575Y-30366824D01*
X63735323Y-30358082D01*
X63675984Y-30227572D01*
X63582400Y-30118963D01*
X63462095Y-30040985D01*
X63324739Y-29999907D01*
X63315905Y-29999853D01*
X63227357Y-29999312D01*
X63181376Y-29999031D01*
X63043529Y-30038428D01*
X62922280Y-30114930D01*
X62916435Y-30121548D01*
X62916433Y-30121550D01*
X62833223Y-30215768D01*
X62833221Y-30215770D01*
X62827377Y-30222388D01*
X62766447Y-30352163D01*
X62765088Y-30360888D01*
X62765088Y-30360890D01*
X62745750Y-30485093D01*
X62744391Y-30493823D01*
X55504763Y-30493823D01*
X55486575Y-30366824D01*
X55485323Y-30358082D01*
X55425984Y-30227572D01*
X55332400Y-30118963D01*
X55212095Y-30040985D01*
X55074739Y-29999907D01*
X55065905Y-29999853D01*
X54977357Y-29999312D01*
X54931376Y-29999031D01*
X54793529Y-30038428D01*
X54672280Y-30114930D01*
X54666435Y-30121548D01*
X54666433Y-30121550D01*
X54583223Y-30215768D01*
X54583221Y-30215770D01*
X54577377Y-30222388D01*
X54516447Y-30352163D01*
X54515088Y-30360888D01*
X54515088Y-30360890D01*
X54495750Y-30485093D01*
X54494391Y-30493823D01*
X45162932Y-30493823D01*
X45156640Y-30488863D01*
X45151609Y-30486216D01*
X44966415Y-30388780D01*
X44966414Y-30388780D01*
X44961380Y-30386131D01*
X44750667Y-30320703D01*
X44745022Y-30320035D01*
X44745018Y-30320034D01*
X44647743Y-30308521D01*
X44571524Y-30299500D01*
X42444030Y-30299500D01*
X42280289Y-30314546D01*
X42067936Y-30374435D01*
X41870053Y-30472020D01*
X41693267Y-30604033D01*
X41543499Y-30766051D01*
X41540465Y-30770860D01*
X41540464Y-30770861D01*
X41465896Y-30889045D01*
X41425764Y-30952650D01*
X41344006Y-31157579D01*
X41342896Y-31163160D01*
X41342895Y-31163163D01*
X41325815Y-31249031D01*
X41300962Y-31373976D01*
X41300888Y-31379663D01*
X41300887Y-31379668D01*
X41298148Y-31588905D01*
X41298074Y-31594594D01*
X37421461Y-31594594D01*
X37421808Y-31594166D01*
X37590362Y-31386020D01*
X37590366Y-31386014D01*
X37592407Y-31383494D01*
X37602215Y-31368392D01*
X37773314Y-31104923D01*
X37775085Y-31102196D01*
X37927357Y-30803344D01*
X37930088Y-30796232D01*
X38046398Y-30493235D01*
X38046400Y-30493228D01*
X38047558Y-30490212D01*
X38134368Y-30166231D01*
X38153444Y-30045790D01*
X38186328Y-29838173D01*
X38186329Y-29838164D01*
X38186838Y-29834950D01*
X38187752Y-29817510D01*
X38210918Y-29751593D01*
X38266045Y-29708664D01*
X38311582Y-29700000D01*
X68688418Y-29700000D01*
X68755457Y-29719685D01*
G37*
%TD.AperFunction*%
%TD*%
M02*
