%TF.GenerationSoftware,KiCad,Pcbnew,(6.0.0)*%
%TF.CreationDate,2025-09-03T22:59:34+02:00*%
%TF.ProjectId,Smart Servo Control Board Rev.1,536d6172-7420-4536-9572-766f20436f6e,rev?*%
%TF.SameCoordinates,Original*%
%TF.FileFunction,Copper,L4,Bot*%
%TF.FilePolarity,Positive*%
%FSLAX46Y46*%
G04 Gerber Fmt 4.6, Leading zero omitted, Abs format (unit mm)*
G04 Created by KiCad (PCBNEW (6.0.0)) date 2025-09-03 22:59:34*
%MOMM*%
%LPD*%
G01*
G04 APERTURE LIST*
G04 Aperture macros list*
%AMRoundRect*
0 Rectangle with rounded corners*
0 $1 Rounding radius*
0 $2 $3 $4 $5 $6 $7 $8 $9 X,Y pos of 4 corners*
0 Add a 4 corners polygon primitive as box body*
4,1,4,$2,$3,$4,$5,$6,$7,$8,$9,$2,$3,0*
0 Add four circle primitives for the rounded corners*
1,1,$1+$1,$2,$3*
1,1,$1+$1,$4,$5*
1,1,$1+$1,$6,$7*
1,1,$1+$1,$8,$9*
0 Add four rect primitives between the rounded corners*
20,1,$1+$1,$2,$3,$4,$5,0*
20,1,$1+$1,$4,$5,$6,$7,0*
20,1,$1+$1,$6,$7,$8,$9,0*
20,1,$1+$1,$8,$9,$2,$3,0*%
G04 Aperture macros list end*
%TA.AperFunction,SMDPad,CuDef*%
%ADD10R,1.700000X1.700000*%
%TD*%
%TA.AperFunction,SMDPad,CuDef*%
%ADD11O,1.700000X1.700000*%
%TD*%
%TA.AperFunction,ComponentPad*%
%ADD12O,4.000000X2.000000*%
%TD*%
%TA.AperFunction,SMDPad,CuDef*%
%ADD13R,2.000000X3.000000*%
%TD*%
%TA.AperFunction,SMDPad,CuDef*%
%ADD14RoundRect,0.237500X0.237500X-0.250000X0.237500X0.250000X-0.237500X0.250000X-0.237500X-0.250000X0*%
%TD*%
%TA.AperFunction,SMDPad,CuDef*%
%ADD15RoundRect,0.237500X-0.237500X0.250000X-0.237500X-0.250000X0.237500X-0.250000X0.237500X0.250000X0*%
%TD*%
%TA.AperFunction,SMDPad,CuDef*%
%ADD16RoundRect,0.150000X0.725000X0.150000X-0.725000X0.150000X-0.725000X-0.150000X0.725000X-0.150000X0*%
%TD*%
%TA.AperFunction,SMDPad,CuDef*%
%ADD17RoundRect,0.150000X-0.725000X-0.150000X0.725000X-0.150000X0.725000X0.150000X-0.725000X0.150000X0*%
%TD*%
%TA.AperFunction,SMDPad,CuDef*%
%ADD18RoundRect,0.237500X0.250000X0.237500X-0.250000X0.237500X-0.250000X-0.237500X0.250000X-0.237500X0*%
%TD*%
%TA.AperFunction,SMDPad,CuDef*%
%ADD19R,2.510000X1.000000*%
%TD*%
%TA.AperFunction,ViaPad*%
%ADD20C,0.600000*%
%TD*%
%TA.AperFunction,ViaPad*%
%ADD21C,0.800000*%
%TD*%
%TA.AperFunction,Conductor*%
%ADD22C,0.250000*%
%TD*%
G04 APERTURE END LIST*
D10*
%TO.P,J1,1,Pin_1*%
%TO.N,GNDD*%
X70775000Y-41300000D03*
D11*
%TO.P,J1,2,Pin_2*%
%TO.N,SCL1*%
X70775000Y-38760000D03*
%TO.P,J1,3,Pin_3*%
%TO.N,SDA1*%
X70775000Y-36220000D03*
%TO.P,J1,4,Pin_4*%
%TO.N,+5V*%
X70775000Y-33680000D03*
%TD*%
D12*
%TO.P,J2,1,Pin_1*%
%TO.N,Net-(C8-Pad1)*%
X43500000Y-31500000D03*
D13*
%TO.P,J2,2,Pin_2*%
%TO.N,GNDD*%
X52750000Y-37500000D03*
D12*
%TO.P,J2,3,Pin_3*%
%TO.N,Net-(C11-Pad2)*%
X43500000Y-43500000D03*
%TD*%
D14*
%TO.P,C6,1*%
%TO.N,GNDD*%
X68000000Y-32912500D03*
%TO.P,C6,2*%
%TO.N,+3V3*%
X68000000Y-31087500D03*
%TD*%
D15*
%TO.P,R2,1*%
%TO.N,+3V3*%
X59000000Y-33962500D03*
%TO.P,R2,2*%
%TO.N,SCL2*%
X59000000Y-35787500D03*
%TD*%
D16*
%TO.P,U5,1,A0*%
%TO.N,GNDD*%
X66075000Y-40845000D03*
%TO.P,U5,2,A1*%
X66075000Y-42115000D03*
%TO.P,U5,3,A2*%
X66075000Y-43385000D03*
%TO.P,U5,4,GND*%
X66075000Y-44655000D03*
%TO.P,U5,5,SDA*%
%TO.N,SDA2*%
X60925000Y-44655000D03*
%TO.P,U5,6,SCL*%
%TO.N,SCL2*%
X60925000Y-43385000D03*
%TO.P,U5,7,WP*%
%TO.N,unconnected-(U5-Pad7)*%
X60925000Y-42115000D03*
%TO.P,U5,8,VCC*%
%TO.N,+3V3*%
X60925000Y-40845000D03*
%TD*%
%TO.P,U6,1,5V*%
%TO.N,+3V3*%
X66075000Y-35595000D03*
%TO.P,U6,2,3.3V*%
X66075000Y-36865000D03*
%TO.P,U6,3,OUT*%
%TO.N,unconnected-(U6-Pad3)*%
X66075000Y-38135000D03*
%TO.P,U6,4,GND*%
%TO.N,GNDD*%
X66075000Y-39405000D03*
%TO.P,U6,5,PGO*%
%TO.N,unconnected-(U6-Pad5)*%
X60925000Y-39405000D03*
%TO.P,U6,6,SDA*%
%TO.N,SDA2*%
X60925000Y-38135000D03*
%TO.P,U6,7,SCL*%
%TO.N,SCL2*%
X60925000Y-36865000D03*
%TO.P,U6,8,DIR*%
%TO.N,GNDD*%
X60925000Y-35595000D03*
%TD*%
D17*
%TO.P,U3,1,A1*%
%TO.N,GNDD*%
X60925000Y-34155000D03*
%TO.P,U3,2,A0*%
X60925000Y-32885000D03*
%TO.P,U3,3,SDA*%
%TO.N,SDA2*%
X60925000Y-31615000D03*
%TO.P,U3,4,SCL*%
%TO.N,SCL2*%
X60925000Y-30345000D03*
%TO.P,U3,5,VS*%
%TO.N,+3V3*%
X66075000Y-30345000D03*
%TO.P,U3,6,GND*%
%TO.N,GNDD*%
X66075000Y-31615000D03*
%TO.P,U3,7,IN-*%
%TO.N,Net-(C7-Pad2)*%
X66075000Y-32885000D03*
%TO.P,U3,8,IN+*%
%TO.N,Net-(C7-Pad1)*%
X66075000Y-34155000D03*
%TD*%
D14*
%TO.P,R3,1*%
%TO.N,+3V3*%
X59000000Y-41037500D03*
%TO.P,R3,2*%
%TO.N,SDA2*%
X59000000Y-39212500D03*
%TD*%
D18*
%TO.P,R1,1*%
%TO.N,NRST*%
X53662500Y-32750000D03*
%TO.P,R1,2*%
%TO.N,+3V3*%
X51837500Y-32750000D03*
%TD*%
D19*
%TO.P,J3,5,Pin_5*%
%TO.N,+3V3*%
X58155000Y-42580000D03*
%TO.P,J3,4,Pin_4*%
%TO.N,SWDIO*%
X54845000Y-40040000D03*
%TO.P,J3,3,Pin_3*%
%TO.N,SWCLK*%
X58155000Y-37500000D03*
%TO.P,J3,2,Pin_2*%
%TO.N,NRST*%
X54845000Y-34960000D03*
%TO.P,J3,1,Pin_1*%
%TO.N,GNDD*%
X58155000Y-32420000D03*
%TD*%
D14*
%TO.P,C13,1*%
%TO.N,GNDD*%
X68000000Y-38912500D03*
%TO.P,C13,2*%
%TO.N,+3V3*%
X68000000Y-37087500D03*
%TD*%
D20*
%TO.N,SCL2*%
X58500000Y-43850500D03*
%TO.N,GNDD*%
X63500000Y-44750000D03*
X64250000Y-44750000D03*
X64250000Y-44000000D03*
X63500000Y-44000000D03*
%TO.N,+3V3*%
X40000000Y-32800000D03*
%TO.N,GNDD*%
X40600000Y-37400000D03*
X39600000Y-36200000D03*
X38400000Y-38600000D03*
X37400000Y-37800000D03*
X54500000Y-38500000D03*
X54500000Y-37500000D03*
X54500000Y-36500000D03*
X57250000Y-31250000D03*
X58250000Y-31250000D03*
D21*
%TO.N,HB2*%
X37000000Y-32800000D03*
D20*
%TO.N,GNDD*%
X55250000Y-43000000D03*
X54500000Y-43000000D03*
X53750000Y-43000000D03*
%TO.N,+3V3*%
X56750000Y-41750000D03*
%TO.N,GNDD*%
X52750000Y-31500000D03*
%TO.N,DRV1*%
X38400000Y-33600000D03*
%TO.N,GNDD*%
X59250000Y-31250000D03*
X68500000Y-33750000D03*
X67500000Y-33750000D03*
D21*
%TO.N,+5V*%
X70000000Y-34500000D03*
X37000000Y-42000000D03*
X70000000Y-33000000D03*
D20*
%TO.N,+3V3*%
X63250000Y-41800000D03*
X63250000Y-38500000D03*
X63250000Y-37750000D03*
X63250000Y-37000000D03*
X63250000Y-36250000D03*
X53090498Y-35000000D03*
%TO.N,GNDD*%
X68750000Y-41250000D03*
X68000000Y-41250000D03*
X67250000Y-43500000D03*
X68750000Y-43500000D03*
X68000000Y-43500000D03*
X67250000Y-41250000D03*
X69500000Y-42500000D03*
%TO.N,+3V3*%
X57500000Y-34250000D03*
X49500000Y-40750000D03*
%TO.N,Net-(C7-Pad1)*%
X63250000Y-30500000D03*
%TO.N,Net-(C7-Pad2)*%
X64000000Y-31750000D03*
%TO.N,HB1*%
X38365000Y-41500000D03*
X35750000Y-37000000D03*
D21*
%TO.N,HB2*%
X41637500Y-40137500D03*
D20*
%TO.N,SCL1*%
X69500000Y-38750000D03*
%TO.N,SDA1*%
X69500000Y-36250000D03*
%TO.N,SWCLK*%
X56250000Y-37500000D03*
%TO.N,SWDIO*%
X53000000Y-40000000D03*
%TO.N,NRST*%
X53662500Y-31750000D03*
%TO.N,SCL2*%
X50750000Y-38750000D03*
X59750000Y-36500000D03*
%TO.N,SDA2*%
X50875500Y-39750000D03*
%TO.N,ISENS*%
X55000000Y-30500000D03*
X39750000Y-41500000D03*
%TO.N,ADC2*%
X49500000Y-44500000D03*
X47600000Y-35400000D03*
%TO.N,DRV2*%
X52200000Y-35000000D03*
X39600000Y-33600000D03*
%TO.N,DRV1*%
X50800000Y-35000000D03*
%TD*%
D22*
%TO.N,+3V3*%
X53090498Y-34002998D02*
X51837500Y-32750000D01*
X53090498Y-35000000D02*
X53090498Y-34002998D01*
%TO.N,ADC2*%
X48400000Y-43400000D02*
X49500000Y-44500000D01*
X48400000Y-36200000D02*
X48400000Y-43400000D01*
X47600000Y-35400000D02*
X48400000Y-36200000D01*
%TO.N,ISENS*%
X46750000Y-40500000D02*
X46750000Y-31250000D01*
X45750000Y-41500000D02*
X46750000Y-40500000D01*
X39750000Y-41500000D02*
X45750000Y-41500000D01*
X46750000Y-31250000D02*
X47500000Y-30500000D01*
X47500000Y-30500000D02*
X55000000Y-30500000D01*
%TO.N,SDA2*%
X62500000Y-44250000D02*
X62095000Y-44655000D01*
X62500000Y-38500000D02*
X62500000Y-44250000D01*
X62135000Y-38135000D02*
X62500000Y-38500000D01*
X62095000Y-44655000D02*
X60925000Y-44655000D01*
X61865000Y-38135000D02*
X62135000Y-38135000D01*
X62115000Y-38135000D02*
X61865000Y-38135000D01*
X62500000Y-37750000D02*
X62115000Y-38135000D01*
X62500000Y-32000000D02*
X62500000Y-37750000D01*
X62115000Y-31615000D02*
X62500000Y-32000000D01*
X60925000Y-31615000D02*
X62115000Y-31615000D01*
%TO.N,Net-(C7-Pad2)*%
X64000000Y-32500000D02*
X64385000Y-32885000D01*
X64000000Y-31750000D02*
X64000000Y-32500000D01*
X64385000Y-32885000D02*
X66075000Y-32885000D01*
%TO.N,Net-(C7-Pad1)*%
X63905000Y-34155000D02*
X66075000Y-34155000D01*
X63250000Y-33500000D02*
X63905000Y-34155000D01*
X63250000Y-30500000D02*
X63250000Y-33500000D01*
%TO.N,SCL2*%
X56500000Y-31250000D02*
X56500000Y-31000000D01*
%TO.N,SWDIO*%
X53000000Y-40000000D02*
X53040000Y-40040000D01*
X53040000Y-40040000D02*
X54845000Y-40040000D01*
%TO.N,SWCLK*%
X56250000Y-37500000D02*
X58155000Y-37500000D01*
%TO.N,SDA2*%
X52905000Y-44655000D02*
X59345000Y-44655000D01*
X50875500Y-42625500D02*
X52905000Y-44655000D01*
X50875500Y-39750000D02*
X50875500Y-42625500D01*
%TO.N,HB1*%
X35750000Y-38885000D02*
X35750000Y-37000000D01*
X38365000Y-41500000D02*
X35750000Y-38885000D01*
%TO.N,SCL2*%
X60905489Y-43404511D02*
X60925000Y-43385000D01*
X58945989Y-43404511D02*
X60905489Y-43404511D01*
X58500000Y-43850500D02*
X58945989Y-43404511D01*
%TO.N,SDA2*%
X60925000Y-44655000D02*
X59345000Y-44655000D01*
%TO.N,+3V3*%
X59000000Y-41750000D02*
X59000000Y-41037500D01*
X68000000Y-35750000D02*
X68000000Y-37087500D01*
X69250000Y-34500000D02*
X68000000Y-35750000D01*
X69250000Y-32337500D02*
X69250000Y-34500000D01*
X68000000Y-31087500D02*
X69250000Y-32337500D01*
X66075000Y-30345000D02*
X67405000Y-30345000D01*
X68000000Y-30940000D02*
X67405000Y-30345000D01*
X57787500Y-33962500D02*
X57500000Y-34250000D01*
X68000000Y-31087500D02*
X68000000Y-30940000D01*
X59000000Y-33962500D02*
X57787500Y-33962500D01*
%TO.N,SCL1*%
X70725000Y-38780000D02*
X69530000Y-38780000D01*
X69530000Y-38780000D02*
X69500000Y-38750000D01*
%TO.N,SDA1*%
X70725000Y-36240000D02*
X69510000Y-36240000D01*
X69510000Y-36240000D02*
X69500000Y-36250000D01*
%TO.N,NRST*%
X53662500Y-32750000D02*
X53662500Y-31750000D01*
X53662500Y-32750000D02*
X54845000Y-33932500D01*
X54845000Y-33932500D02*
X54845000Y-34960000D01*
%TO.N,SCL2*%
X60115000Y-36865000D02*
X60925000Y-36865000D01*
X59750000Y-36500000D02*
X59037500Y-35787500D01*
X59750000Y-36500000D02*
X60115000Y-36865000D01*
X57287500Y-35787500D02*
X56500000Y-35000000D01*
X56500000Y-35000000D02*
X56500000Y-31250000D01*
X56500000Y-31000000D02*
X57155000Y-30345000D01*
X59000000Y-35787500D02*
X57287500Y-35787500D01*
X59037500Y-35787500D02*
X59000000Y-35787500D01*
X57155000Y-30345000D02*
X60925000Y-30345000D01*
%TO.N,SDA2*%
X61865000Y-38135000D02*
X60925000Y-38135000D01*
X60115000Y-38135000D02*
X60925000Y-38135000D01*
X59000000Y-39250000D02*
X60115000Y-38135000D01*
%TD*%
%TA.AperFunction,Conductor*%
%TO.N,+3V3*%
G36*
X61693039Y-40519685D02*
G01*
X61738794Y-40572489D01*
X61750000Y-40624000D01*
X61750000Y-41376000D01*
X61730315Y-41443039D01*
X61677511Y-41488794D01*
X61626000Y-41500000D01*
X59500000Y-41500000D01*
X59500000Y-42876000D01*
X59480315Y-42943039D01*
X59427511Y-42988794D01*
X59376000Y-43000000D01*
X56874000Y-43000000D01*
X56806961Y-42980315D01*
X56761206Y-42927511D01*
X56750000Y-42876000D01*
X56750000Y-41551362D01*
X56769685Y-41484323D01*
X56786319Y-41463681D01*
X57713681Y-40536319D01*
X57775004Y-40502834D01*
X57801362Y-40500000D01*
X61626000Y-40500000D01*
X61693039Y-40519685D01*
G37*
%TD.AperFunction*%
%TD*%
%TA.AperFunction,Conductor*%
%TO.N,+3V3*%
G36*
X59443039Y-33269685D02*
G01*
X59488794Y-33322489D01*
X59500000Y-33374000D01*
X59500000Y-34876000D01*
X59480315Y-34943039D01*
X59427511Y-34988794D01*
X59376000Y-35000000D01*
X57011688Y-35000000D01*
X56944649Y-34980315D01*
X56924007Y-34963681D01*
X56861819Y-34901493D01*
X56828334Y-34840170D01*
X56825500Y-34813812D01*
X56825500Y-33374000D01*
X56845185Y-33306961D01*
X56897989Y-33261206D01*
X56949500Y-33250000D01*
X59376000Y-33250000D01*
X59443039Y-33269685D01*
G37*
%TD.AperFunction*%
%TD*%
%TA.AperFunction,Conductor*%
%TO.N,+3V3*%
G36*
X67265677Y-35269685D02*
G01*
X67286319Y-35286319D01*
X68463681Y-36463681D01*
X68497166Y-36525004D01*
X68500000Y-36551362D01*
X68500000Y-37126000D01*
X68480315Y-37193039D01*
X68427511Y-37238794D01*
X68376000Y-37250000D01*
X64750000Y-37250000D01*
X64750000Y-39376000D01*
X64730315Y-39443039D01*
X64677511Y-39488794D01*
X64626000Y-39500000D01*
X62949500Y-39500000D01*
X62882461Y-39480315D01*
X62836706Y-39427511D01*
X62825500Y-39376000D01*
X62825500Y-38519627D01*
X62825972Y-38508819D01*
X62828318Y-38482001D01*
X62829264Y-38471193D01*
X62819483Y-38434690D01*
X62817145Y-38424143D01*
X62812472Y-38397641D01*
X62810588Y-38386955D01*
X62805162Y-38377558D01*
X62803904Y-38374100D01*
X62802361Y-38370791D01*
X62799554Y-38360316D01*
X62777894Y-38329383D01*
X62772080Y-38320257D01*
X62766612Y-38310786D01*
X62750000Y-38248787D01*
X62750000Y-38001214D01*
X62766614Y-37939212D01*
X62772084Y-37929738D01*
X62777894Y-37920618D01*
X62793331Y-37898571D01*
X62799554Y-37889684D01*
X62802361Y-37879209D01*
X62803908Y-37875892D01*
X62805165Y-37872439D01*
X62810588Y-37863045D01*
X62817148Y-37825845D01*
X62819489Y-37815288D01*
X62826455Y-37789288D01*
X62826455Y-37789287D01*
X62829263Y-37778807D01*
X62825972Y-37741189D01*
X62825500Y-37730382D01*
X62825500Y-35374000D01*
X62845185Y-35306961D01*
X62897989Y-35261206D01*
X62949500Y-35250000D01*
X67198638Y-35250000D01*
X67265677Y-35269685D01*
G37*
%TD.AperFunction*%
%TD*%
%TA.AperFunction,Conductor*%
%TO.N,GNDD*%
G36*
X69031237Y-39020825D02*
G01*
X69113243Y-39075495D01*
X69139371Y-39098874D01*
X69162970Y-39126948D01*
X69282313Y-39206390D01*
X69316647Y-39217117D01*
X69348447Y-39232298D01*
X69477207Y-39318138D01*
X69734723Y-39489816D01*
X69734725Y-39489817D01*
X69750000Y-39500000D01*
X69977961Y-39500000D01*
X70045000Y-39519685D01*
X70058328Y-39529569D01*
X70167950Y-39622865D01*
X70167955Y-39622869D01*
X70172564Y-39626791D01*
X70352398Y-39727297D01*
X70548329Y-39790959D01*
X70554347Y-39791677D01*
X70554349Y-39791677D01*
X70696410Y-39808616D01*
X70752894Y-39815351D01*
X70758938Y-39814886D01*
X70758939Y-39814886D01*
X70820266Y-39810167D01*
X70958300Y-39799546D01*
X71043596Y-39775731D01*
X71150885Y-39745776D01*
X71150889Y-39745774D01*
X71156725Y-39744145D01*
X71340610Y-39651258D01*
X71500567Y-39526286D01*
X71565515Y-39500525D01*
X71576910Y-39500000D01*
X71676000Y-39500000D01*
X71743039Y-39519685D01*
X71788794Y-39572489D01*
X71800000Y-39624000D01*
X71800000Y-42188418D01*
X71780315Y-42255457D01*
X71727511Y-42301212D01*
X71682490Y-42312248D01*
X71668306Y-42312991D01*
X71668299Y-42312992D01*
X71665050Y-42313162D01*
X71661836Y-42313671D01*
X71661827Y-42313672D01*
X71393267Y-42356208D01*
X71333769Y-42365632D01*
X71009788Y-42452442D01*
X71006772Y-42453600D01*
X71006765Y-42453602D01*
X70907351Y-42491764D01*
X70862913Y-42500000D01*
X70250000Y-42500000D01*
X69000000Y-43750000D01*
X69000000Y-44362913D01*
X68991764Y-44407351D01*
X68959958Y-44490209D01*
X68952442Y-44509788D01*
X68865632Y-44833769D01*
X68813162Y-45165050D01*
X68812992Y-45168299D01*
X68812991Y-45168306D01*
X68812248Y-45182490D01*
X68789082Y-45248407D01*
X68733955Y-45291336D01*
X68688418Y-45300000D01*
X62924000Y-45300000D01*
X62856961Y-45280315D01*
X62811206Y-45227511D01*
X62800000Y-45176000D01*
X62800000Y-44408491D01*
X62806881Y-44369465D01*
X62810588Y-44363045D01*
X62817147Y-44325846D01*
X62819488Y-44315284D01*
X62829263Y-44278807D01*
X62825972Y-44241189D01*
X62825500Y-44230382D01*
X62825500Y-42350225D01*
X62845185Y-42283186D01*
X62897989Y-42237431D01*
X62967147Y-42227487D01*
X63018209Y-42247002D01*
X63032313Y-42256390D01*
X63118084Y-42283186D01*
X63160722Y-42296507D01*
X63160723Y-42296507D01*
X63169157Y-42299142D01*
X63177992Y-42299304D01*
X63197799Y-42299667D01*
X63312499Y-42301770D01*
X63321015Y-42299448D01*
X63321017Y-42299448D01*
X63442298Y-42266383D01*
X63442301Y-42266382D01*
X63450817Y-42264060D01*
X63572991Y-42189045D01*
X63669200Y-42082754D01*
X63731710Y-41953733D01*
X63755496Y-41812354D01*
X63755647Y-41800000D01*
X63735323Y-41658082D01*
X63675984Y-41527572D01*
X63582400Y-41418963D01*
X63462095Y-41340985D01*
X63324739Y-41299907D01*
X63315905Y-41299853D01*
X63227357Y-41299312D01*
X63181376Y-41299031D01*
X63043529Y-41338428D01*
X63036057Y-41343142D01*
X63036058Y-41343142D01*
X63015668Y-41356007D01*
X62948467Y-41375133D01*
X62881594Y-41354890D01*
X62836280Y-41301707D01*
X62825500Y-41251137D01*
X62825500Y-39824000D01*
X62845185Y-39756961D01*
X62897989Y-39711206D01*
X62949500Y-39700000D01*
X64626000Y-39700000D01*
X64652643Y-39697135D01*
X64665205Y-39695785D01*
X64665207Y-39695785D01*
X64668515Y-39695429D01*
X64697199Y-39689189D01*
X64719237Y-39684395D01*
X64719263Y-39684389D01*
X64720026Y-39684223D01*
X64721135Y-39683952D01*
X64722401Y-39683643D01*
X64722405Y-39683642D01*
X64729931Y-39681802D01*
X64808483Y-39639944D01*
X64861287Y-39594189D01*
X64878761Y-39577068D01*
X64922213Y-39499387D01*
X64925024Y-39489816D01*
X64940650Y-39436597D01*
X64941898Y-39432348D01*
X64950000Y-39376000D01*
X64950000Y-39124000D01*
X64969685Y-39056961D01*
X65022489Y-39011206D01*
X65074000Y-39000000D01*
X68962456Y-39000000D01*
X69031237Y-39020825D01*
G37*
%TD.AperFunction*%
%TD*%
%TA.AperFunction,Conductor*%
%TO.N,GNDD*%
G36*
X67267539Y-31019685D02*
G01*
X67313294Y-31072489D01*
X67324500Y-31124000D01*
X67324501Y-31302674D01*
X67324501Y-31389832D01*
X67327399Y-31420500D01*
X67371039Y-31544768D01*
X67449289Y-31650711D01*
X67555232Y-31728961D01*
X67631098Y-31755603D01*
X67672369Y-31770097D01*
X67672371Y-31770097D01*
X67679500Y-31772601D01*
X67687021Y-31773312D01*
X67707253Y-31775225D01*
X67707263Y-31775225D01*
X67710167Y-31775500D01*
X67738104Y-31775500D01*
X68176311Y-31775499D01*
X68243350Y-31795183D01*
X68263992Y-31811818D01*
X68713681Y-32261507D01*
X68747166Y-32322830D01*
X68750000Y-32349188D01*
X68750000Y-33876000D01*
X68730315Y-33943039D01*
X68677511Y-33988794D01*
X68626000Y-34000000D01*
X67260293Y-34000000D01*
X67193254Y-33980315D01*
X67147499Y-33927511D01*
X67141879Y-33912798D01*
X67141761Y-33912418D01*
X67140358Y-33902888D01*
X67088932Y-33798145D01*
X67081677Y-33790902D01*
X67081675Y-33790900D01*
X67036396Y-33745700D01*
X67002857Y-33684406D01*
X67000000Y-33657942D01*
X67000000Y-33382099D01*
X67019685Y-33315060D01*
X67036242Y-33294495D01*
X67082051Y-33248606D01*
X67082054Y-33248601D01*
X67089293Y-33241350D01*
X67093792Y-33232145D01*
X67093794Y-33232143D01*
X67136308Y-33145167D01*
X67140536Y-33136518D01*
X67150500Y-33068218D01*
X67150500Y-32701782D01*
X67140358Y-32632888D01*
X67088932Y-32528145D01*
X67047892Y-32487177D01*
X67013602Y-32452946D01*
X67013601Y-32452945D01*
X67006350Y-32445707D01*
X66997145Y-32441208D01*
X66997143Y-32441206D01*
X66940356Y-32413448D01*
X66901518Y-32394464D01*
X66891994Y-32393075D01*
X66891992Y-32393074D01*
X66837669Y-32385149D01*
X66837664Y-32385149D01*
X66833218Y-32384500D01*
X65316782Y-32384500D01*
X65247888Y-32394642D01*
X65143145Y-32446068D01*
X65135904Y-32453322D01*
X65125640Y-32463604D01*
X65064346Y-32497143D01*
X65037881Y-32500000D01*
X64874000Y-32500000D01*
X64806961Y-32480315D01*
X64761206Y-32427511D01*
X64750000Y-32376000D01*
X64750000Y-31124000D01*
X64769685Y-31056961D01*
X64822489Y-31011206D01*
X64874000Y-31000000D01*
X67200500Y-31000000D01*
X67267539Y-31019685D01*
G37*
%TD.AperFunction*%
%TD*%
%TA.AperFunction,Conductor*%
%TO.N,GNDD*%
G36*
X59895398Y-30690185D02*
G01*
X59915964Y-30706742D01*
X59963605Y-30754300D01*
X59997143Y-30815594D01*
X60000000Y-30842058D01*
X60000000Y-31117901D01*
X59980315Y-31184940D01*
X59963758Y-31205505D01*
X59917949Y-31251394D01*
X59917946Y-31251399D01*
X59910707Y-31258650D01*
X59906208Y-31267855D01*
X59906206Y-31267857D01*
X59878448Y-31324644D01*
X59859464Y-31363482D01*
X59849500Y-31431782D01*
X59849500Y-31798218D01*
X59859642Y-31867112D01*
X59911068Y-31971855D01*
X59918323Y-31979098D01*
X59918325Y-31979100D01*
X59963604Y-32024300D01*
X59997143Y-32085594D01*
X60000000Y-32112058D01*
X60000000Y-32250000D01*
X62050500Y-32250000D01*
X62117539Y-32269685D01*
X62163294Y-32322489D01*
X62174500Y-32374000D01*
X62174500Y-36126000D01*
X62154815Y-36193039D01*
X62102011Y-36238794D01*
X62050500Y-36250000D01*
X60252146Y-36250000D01*
X60185107Y-36230315D01*
X60158208Y-36206942D01*
X60088463Y-36126000D01*
X60082400Y-36118963D01*
X59962095Y-36040985D01*
X59838470Y-36004013D01*
X59779883Y-35965947D01*
X59751176Y-35902247D01*
X59750000Y-35885213D01*
X59750000Y-33000000D01*
X56949500Y-33000000D01*
X56882461Y-32980315D01*
X56836706Y-32927511D01*
X56825500Y-32876000D01*
X56825500Y-31186188D01*
X56845185Y-31119149D01*
X56861819Y-31098507D01*
X57253507Y-30706819D01*
X57314830Y-30673334D01*
X57341188Y-30670500D01*
X59828359Y-30670500D01*
X59895398Y-30690185D01*
G37*
%TD.AperFunction*%
%TD*%
%TA.AperFunction,Conductor*%
%TO.N,GNDD*%
G36*
X55193039Y-36019685D02*
G01*
X55238794Y-36072489D01*
X55250000Y-36124000D01*
X55250000Y-38876000D01*
X55230315Y-38943039D01*
X55177511Y-38988794D01*
X55126000Y-39000000D01*
X51874000Y-39000000D01*
X51806961Y-38980315D01*
X51761206Y-38927511D01*
X51750000Y-38876000D01*
X51750000Y-36124000D01*
X51769685Y-36056961D01*
X51822489Y-36011206D01*
X51874000Y-36000000D01*
X55126000Y-36000000D01*
X55193039Y-36019685D01*
G37*
%TD.AperFunction*%
%TD*%
M02*
