M48
; DRILL file {KiCad (6.0.0)} date Wed Sep  3 23:00:18 2025
; FORMAT={-:-/ absolute / metric / decimal}
; #@! TF.CreationDate,2025-09-03T23:00:18+02:00
; #@! TF.GenerationSoftware,Kicad,Pcbnew,(6.0.0)
; #@! TF.FileFunction,Plated,1,4,PTH
FMAT,2
METRIC
; #@! TA.AperFunction,Plated,PTH,ViaDrill
T1C0.300
; #@! TA.AperFunction,Plated,PTH,ViaDrill
T2C0.400
; #@! TA.AperFunction,Plated,PTH,ComponentDrill
T3C1.000
%
G90
G05
T1
X35.75Y-37.0
X37.4Y-37.8
X38.365Y-41.5
X38.4Y-33.6
X38.4Y-38.6
X39.6Y-33.6
X39.6Y-36.2
X39.75Y-41.5
X40.0Y-32.8
X40.6Y-37.4
X47.6Y-35.4
X49.5Y-40.75
X49.5Y-44.5
X50.75Y-38.75
X50.8Y-35.0
X50.875Y-39.75
X52.2Y-35.0
X52.75Y-31.5
X53.0Y-40.0
X53.09Y-35.0
X53.662Y-31.75
X53.75Y-43.0
X54.5Y-36.5
X54.5Y-37.5
X54.5Y-38.5
X54.5Y-43.0
X55.0Y-30.5
X55.25Y-43.0
X56.25Y-37.5
X56.75Y-41.75
X57.25Y-31.25
X57.5Y-34.25
X58.25Y-31.25
X58.5Y-43.85
X59.25Y-31.25
X59.75Y-36.5
X63.25Y-30.5
X63.25Y-36.25
X63.25Y-37.0
X63.25Y-37.75
X63.25Y-38.5
X63.25Y-41.8
X63.5Y-44.0
X63.5Y-44.75
X64.0Y-31.75
X64.25Y-44.0
X64.25Y-44.75
X67.25Y-41.25
X67.25Y-43.5
X67.5Y-33.75
X68.0Y-41.25
X68.0Y-43.5
X68.5Y-33.75
X68.75Y-41.25
X68.75Y-43.5
X69.5Y-36.25
X69.5Y-38.75
X69.5Y-42.5
T2
X37.0Y-32.8
X37.0Y-42.0
X41.637Y-40.137
X70.0Y-33.0
X70.0Y-34.5
T3
X42.5Y-31.5G85X44.5Y-31.5
G05
X42.5Y-43.5G85X44.5Y-43.5
G05
T0
M30
