%TF.GenerationSoftware,KiCad,Pcbnew,(6.0.0)*%
%TF.CreationDate,2025-09-03T22:59:35+02:00*%
%TF.ProjectId,Smart Servo Control Board Rev.1,536d6172-7420-4536-9572-766f20436f6e,rev?*%
%TF.SameCoordinates,Original*%
%TF.FileFunction,Soldermask,Top*%
%TF.FilePolarity,Negative*%
%FSLAX46Y46*%
G04 Gerber Fmt 4.6, Leading zero omitted, Abs format (unit mm)*
G04 Created by KiCad (PCBNEW (6.0.0)) date 2025-09-03 22:59:35*
%MOMM*%
%LPD*%
G01*
G04 APERTURE LIST*
G04 Aperture macros list*
%AMRoundRect*
0 Rectangle with rounded corners*
0 $1 Rounding radius*
0 $2 $3 $4 $5 $6 $7 $8 $9 X,Y pos of 4 corners*
0 Add a 4 corners polygon primitive as box body*
4,1,4,$2,$3,$4,$5,$6,$7,$8,$9,$2,$3,0*
0 Add four circle primitives for the rounded corners*
1,1,$1+$1,$2,$3*
1,1,$1+$1,$4,$5*
1,1,$1+$1,$6,$7*
1,1,$1+$1,$8,$9*
0 Add four rect primitives between the rounded corners*
20,1,$1+$1,$2,$3,$4,$5,0*
20,1,$1+$1,$4,$5,$6,$7,0*
20,1,$1+$1,$6,$7,$8,$9,0*
20,1,$1+$1,$8,$9,$2,$3,0*%
G04 Aperture macros list end*
%ADD10RoundRect,0.150000X-0.150000X0.662500X-0.150000X-0.662500X0.150000X-0.662500X0.150000X0.662500X0*%
%ADD11R,3.200000X2.514000*%
%ADD12RoundRect,0.237500X0.250000X0.237500X-0.250000X0.237500X-0.250000X-0.237500X0.250000X-0.237500X0*%
%ADD13RoundRect,0.237500X-0.250000X-0.237500X0.250000X-0.237500X0.250000X0.237500X-0.250000X0.237500X0*%
%ADD14RoundRect,0.237500X-0.237500X0.250000X-0.237500X-0.250000X0.237500X-0.250000X0.237500X0.250000X0*%
%ADD15O,4.000000X2.000000*%
%ADD16RoundRect,0.250000X-0.400000X-0.625000X0.400000X-0.625000X0.400000X0.625000X-0.400000X0.625000X0*%
%ADD17RoundRect,0.250000X-0.450000X-0.425000X0.450000X-0.425000X0.450000X0.425000X-0.450000X0.425000X0*%
%ADD18R,2.000000X1.500000*%
%ADD19R,2.000000X3.800000*%
%ADD20RoundRect,0.237500X0.237500X-0.250000X0.237500X0.250000X-0.237500X0.250000X-0.237500X-0.250000X0*%
%ADD21RoundRect,0.075000X-0.075000X0.662500X-0.075000X-0.662500X0.075000X-0.662500X0.075000X0.662500X0*%
%ADD22RoundRect,0.075000X-0.662500X0.075000X-0.662500X-0.075000X0.662500X-0.075000X0.662500X0.075000X0*%
G04 APERTURE END LIST*
D10*
%TO.C,U2*%
X40905000Y-34862500D03*
X39635000Y-34862500D03*
X38365000Y-34862500D03*
X37095000Y-34862500D03*
X37095000Y-40137500D03*
X38365000Y-40137500D03*
X39635000Y-40137500D03*
X40905000Y-40137500D03*
D11*
X39000000Y-37500000D03*
%TD*%
D12*
%TO.C,C11*%
X47912500Y-43000000D03*
X46087500Y-43000000D03*
%TD*%
D13*
%TO.C,R10*%
X51087500Y-44500000D03*
X52912500Y-44500000D03*
%TD*%
D14*
%TO.C,C9*%
X47250000Y-36587500D03*
X47250000Y-38412500D03*
%TD*%
D15*
%TO.C,J2*%
X43500000Y-31500000D03*
X43500000Y-43500000D03*
%TD*%
D13*
%TO.C,C16*%
X66087500Y-44500000D03*
X67912500Y-44500000D03*
%TD*%
D16*
%TO.C,R4*%
X43450000Y-41000000D03*
X46550000Y-41000000D03*
%TD*%
D12*
%TO.C,L1*%
X40912500Y-31500000D03*
X39087500Y-31500000D03*
%TD*%
D13*
%TO.C,R9*%
X46087500Y-44500000D03*
X47912500Y-44500000D03*
%TD*%
D14*
%TO.C,C3*%
X57500000Y-31587500D03*
X57500000Y-33412500D03*
%TD*%
%TO.C,C10*%
X35750000Y-34087500D03*
X35750000Y-35912500D03*
%TD*%
D13*
%TO.C,C15*%
X66087500Y-30500000D03*
X67912500Y-30500000D03*
%TD*%
D14*
%TO.C,C7*%
X64000000Y-30587500D03*
X64000000Y-32412500D03*
%TD*%
D13*
%TO.C,R6*%
X51087500Y-30500000D03*
X52912500Y-30500000D03*
%TD*%
D17*
%TO.C,C17*%
X65650000Y-42500000D03*
X68350000Y-42500000D03*
%TD*%
D18*
%TO.C,U4*%
X67650000Y-39800000D03*
D19*
X61350000Y-37500000D03*
D18*
X67650000Y-37500000D03*
X67650000Y-35200000D03*
%TD*%
D13*
%TO.C,R7*%
X60587500Y-30500000D03*
X62412500Y-30500000D03*
%TD*%
D20*
%TO.C,C12*%
X61400000Y-43712500D03*
X61400000Y-41887500D03*
%TD*%
D13*
%TO.C,C8*%
X46087500Y-32000000D03*
X47912500Y-32000000D03*
%TD*%
D14*
%TO.C,C2*%
X35750000Y-39087500D03*
X35750000Y-40912500D03*
%TD*%
D12*
%TO.C,L2*%
X40912500Y-43500000D03*
X39087500Y-43500000D03*
%TD*%
D17*
%TO.C,C14*%
X65650000Y-32500000D03*
X68350000Y-32500000D03*
%TD*%
D20*
%TO.C,C1*%
X49500000Y-43412500D03*
X49500000Y-41587500D03*
%TD*%
D13*
%TO.C,R5*%
X46087500Y-30500000D03*
X47912500Y-30500000D03*
%TD*%
D20*
%TO.C,C5*%
X57500000Y-43412500D03*
X57500000Y-41587500D03*
%TD*%
D21*
%TO.C,U1*%
X56250000Y-33337500D03*
X55750000Y-33337500D03*
X55250000Y-33337500D03*
X54750000Y-33337500D03*
X54250000Y-33337500D03*
X53750000Y-33337500D03*
X53250000Y-33337500D03*
X52750000Y-33337500D03*
X52250000Y-33337500D03*
X51750000Y-33337500D03*
X51250000Y-33337500D03*
X50750000Y-33337500D03*
D22*
X49337500Y-34750000D03*
X49337500Y-35250000D03*
X49337500Y-35750000D03*
X49337500Y-36250000D03*
X49337500Y-36750000D03*
X49337500Y-37250000D03*
X49337500Y-37750000D03*
X49337500Y-38250000D03*
X49337500Y-38750000D03*
X49337500Y-39250000D03*
X49337500Y-39750000D03*
X49337500Y-40250000D03*
D21*
X50750000Y-41662500D03*
X51250000Y-41662500D03*
X51750000Y-41662500D03*
X52250000Y-41662500D03*
X52750000Y-41662500D03*
X53250000Y-41662500D03*
X53750000Y-41662500D03*
X54250000Y-41662500D03*
X54750000Y-41662500D03*
X55250000Y-41662500D03*
X55750000Y-41662500D03*
X56250000Y-41662500D03*
D22*
X57662500Y-40250000D03*
X57662500Y-39750000D03*
X57662500Y-39250000D03*
X57662500Y-38750000D03*
X57662500Y-38250000D03*
X57662500Y-37750000D03*
X57662500Y-37250000D03*
X57662500Y-36750000D03*
X57662500Y-36250000D03*
X57662500Y-35750000D03*
X57662500Y-35250000D03*
X57662500Y-34750000D03*
%TD*%
D13*
%TO.C,R8*%
X60587500Y-32500000D03*
X62412500Y-32500000D03*
%TD*%
D14*
%TO.C,C4*%
X49500000Y-31587500D03*
X49500000Y-33412500D03*
%TD*%
M02*
