G04 #@! TF.GenerationSoftware,KiCad,Pcbnew,(6.0.0)*
G04 #@! TF.CreationDate,2025-05-03T15:15:18+02:00*
G04 #@! TF.ProjectId,Smart Servo Control Board Rev.2,536d6172-7420-4536-9572-766f20436f6e,rev?*
G04 #@! TF.SameCoordinates,Original*
G04 #@! TF.FileFunction,Copper,L4,Bot*
G04 #@! TF.FilePolarity,Positive*
%FSLAX46Y46*%
G04 Gerber Fmt 4.6, Leading zero omitted, Abs format (unit mm)*
G04 Created by KiCad (PCBNEW (6.0.0)) date 2025-05-03 15:15:18*
%MOMM*%
%LPD*%
G01*
G04 APERTURE LIST*
G04 Aperture macros list*
%AMRoundRect*
0 Rectangle with rounded corners*
0 $1 Rounding radius*
0 $2 $3 $4 $5 $6 $7 $8 $9 X,Y pos of 4 corners*
0 Add a 4 corners polygon primitive as box body*
4,1,4,$2,$3,$4,$5,$6,$7,$8,$9,$2,$3,0*
0 Add four circle primitives for the rounded corners*
1,1,$1+$1,$2,$3*
1,1,$1+$1,$4,$5*
1,1,$1+$1,$6,$7*
1,1,$1+$1,$8,$9*
0 Add four rect primitives between the rounded corners*
20,1,$1+$1,$2,$3,$4,$5,0*
20,1,$1+$1,$4,$5,$6,$7,0*
20,1,$1+$1,$6,$7,$8,$9,0*
20,1,$1+$1,$8,$9,$2,$3,0*%
%AMHorizOval*
0 Thick line with rounded ends*
0 $1 width*
0 $2 $3 position (X,Y) of the first rounded end (center of the circle)*
0 $4 $5 position (X,Y) of the second rounded end (center of the circle)*
0 Add line between two ends*
20,1,$1,$2,$3,$4,$5,0*
0 Add two circle primitives to create the rounded ends*
1,1,$1,$2,$3*
1,1,$1,$4,$5*%
%AMRotRect*
0 Rectangle, with rotation*
0 The origin of the aperture is its center*
0 $1 length*
0 $2 width*
0 $3 Rotation angle, in degrees counterclockwise*
0 Add horizontal line*
21,1,$1,$2,0,0,$3*%
G04 Aperture macros list end*
G04 #@! TA.AperFunction,ComponentPad*
%ADD10RotRect,1.050000X1.300000X45.000000*%
G04 #@! TD*
G04 #@! TA.AperFunction,ComponentPad*
%ADD11HorizOval,1.050000X-0.088388X0.088388X0.088388X-0.088388X0*%
G04 #@! TD*
G04 #@! TA.AperFunction,ComponentPad*
%ADD12R,1.700000X1.700000*%
G04 #@! TD*
G04 #@! TA.AperFunction,ComponentPad*
%ADD13O,1.700000X1.700000*%
G04 #@! TD*
G04 #@! TA.AperFunction,ComponentPad*
%ADD14RotRect,1.050000X1.300000X135.000000*%
G04 #@! TD*
G04 #@! TA.AperFunction,ComponentPad*
%ADD15HorizOval,1.050000X0.088388X0.088388X-0.088388X-0.088388X0*%
G04 #@! TD*
G04 #@! TA.AperFunction,ConnectorPad*
%ADD16C,7.500000*%
G04 #@! TD*
G04 #@! TA.AperFunction,ComponentPad*
%ADD17C,4.700000*%
G04 #@! TD*
G04 #@! TA.AperFunction,ComponentPad*
%ADD18C,0.508000*%
G04 #@! TD*
G04 #@! TA.AperFunction,SMDPad,CuDef*
%ADD19RoundRect,0.237500X-0.237500X0.250000X-0.237500X-0.250000X0.237500X-0.250000X0.237500X0.250000X0*%
G04 #@! TD*
G04 #@! TA.AperFunction,SMDPad,CuDef*
%ADD20RoundRect,0.237500X0.237500X-0.250000X0.237500X0.250000X-0.237500X0.250000X-0.237500X-0.250000X0*%
G04 #@! TD*
G04 #@! TA.AperFunction,SMDPad,CuDef*
%ADD21RoundRect,0.250001X0.624999X-0.462499X0.624999X0.462499X-0.624999X0.462499X-0.624999X-0.462499X0*%
G04 #@! TD*
G04 #@! TA.AperFunction,SMDPad,CuDef*
%ADD22RoundRect,0.250000X-0.625000X0.400000X-0.625000X-0.400000X0.625000X-0.400000X0.625000X0.400000X0*%
G04 #@! TD*
G04 #@! TA.AperFunction,ViaPad*
%ADD23C,0.600000*%
G04 #@! TD*
G04 #@! TA.AperFunction,Conductor*
%ADD24C,1.000000*%
G04 #@! TD*
G04 #@! TA.AperFunction,Conductor*
%ADD25C,0.300000*%
G04 #@! TD*
G04 #@! TA.AperFunction,Conductor*
%ADD26C,0.200000*%
G04 #@! TD*
G04 APERTURE END LIST*
D10*
X171324494Y-80131454D03*
D11*
X172222520Y-79233428D03*
X173120545Y-78335403D03*
D12*
X177282520Y-97038428D03*
D13*
X174742520Y-97038428D03*
D14*
X173120546Y-87751454D03*
D15*
X172222520Y-86853428D03*
X171324495Y-85955403D03*
D16*
X195032520Y-103043428D03*
D17*
X195032520Y-103043428D03*
X157032520Y-103043428D03*
D16*
X157032520Y-103043428D03*
D18*
X175638820Y-104392128D03*
X176426220Y-103604728D03*
X175638820Y-103604728D03*
X176426220Y-104392128D03*
D19*
X199457520Y-54515928D03*
X199457520Y-56340928D03*
D12*
X193742520Y-48443428D03*
D13*
X196282520Y-48443428D03*
X193742520Y-50983428D03*
X196282520Y-50983428D03*
X193742520Y-53523428D03*
X196282520Y-53523428D03*
X193742520Y-56063428D03*
X196282520Y-56063428D03*
X193742520Y-58603428D03*
X196282520Y-58603428D03*
X193742520Y-61143428D03*
X196282520Y-61143428D03*
X193742520Y-63683428D03*
X196282520Y-63683428D03*
X193742520Y-66223428D03*
X196282520Y-66223428D03*
X193742520Y-68763428D03*
X196282520Y-68763428D03*
X193742520Y-71303428D03*
X196282520Y-71303428D03*
X193742520Y-73843428D03*
X196282520Y-73843428D03*
X193742520Y-76383428D03*
X196282520Y-76383428D03*
X193742520Y-78923428D03*
X196282520Y-78923428D03*
X193742520Y-81463428D03*
X196282520Y-81463428D03*
X193742520Y-84003428D03*
X196282520Y-84003428D03*
X193742520Y-86543428D03*
X196282520Y-86543428D03*
X193742520Y-89083428D03*
X196282520Y-89083428D03*
X193742520Y-91623428D03*
X196282520Y-91623428D03*
X193742520Y-94163428D03*
X196282520Y-94163428D03*
X193742520Y-96703428D03*
X196282520Y-96703428D03*
D20*
X199457520Y-93170928D03*
X199457520Y-91345928D03*
D21*
X199457520Y-52470928D03*
X199457520Y-49495928D03*
D19*
X173492520Y-103085928D03*
X173492520Y-104910928D03*
D21*
X199457520Y-98190928D03*
X199457520Y-95215928D03*
D22*
X170952520Y-99019428D03*
X170952520Y-102119428D03*
D23*
X178191520Y-101331428D03*
X176532520Y-62628428D03*
X180223520Y-96632428D03*
X175032520Y-57128428D03*
X176794520Y-100569428D03*
X199457520Y-90353428D03*
X165237520Y-78598428D03*
X173032520Y-61628428D03*
X178282520Y-62396229D03*
X175270520Y-100569428D03*
X174112521Y-106173427D03*
X163967520Y-77328428D03*
X177683520Y-101839428D03*
X175532520Y-62628428D03*
X174032520Y-57128428D03*
X173282520Y-65128428D03*
X176794520Y-99934428D03*
X164602520Y-74788428D03*
X163967520Y-79868428D03*
X165872520Y-102093428D03*
X167142520Y-77328428D03*
X174635520Y-100569428D03*
X175120020Y-93480928D03*
D24*
X157032520Y-56323428D02*
X157032520Y-103043428D01*
X157032520Y-103043428D02*
X162128520Y-103043428D01*
D25*
X173492520Y-100823428D02*
X173746520Y-100569428D01*
X199457520Y-50348428D02*
X198822520Y-50983428D01*
X173492520Y-103085928D02*
X173492520Y-100823428D01*
X198822520Y-50983428D02*
X196282520Y-50983428D01*
D24*
X193742520Y-50983428D02*
X162372520Y-50983428D01*
X173746520Y-100569428D02*
X164602520Y-100569428D01*
D25*
X199457520Y-49495928D02*
X199457520Y-50348428D01*
D24*
X162128520Y-103043428D02*
X164602520Y-100569428D01*
X175270520Y-100569428D02*
X173746520Y-100569428D01*
X162372520Y-50983428D02*
X157032520Y-56323428D01*
D25*
X199457520Y-91345928D02*
X199457520Y-90353428D01*
X170557520Y-88758428D02*
X169682520Y-87883428D01*
X167142520Y-77328428D02*
X164602520Y-74788428D01*
X169682520Y-81773428D02*
X171324494Y-80131454D01*
X169682520Y-87883428D02*
X169682520Y-81773428D01*
X172113572Y-88758428D02*
X170557520Y-88758428D01*
X173120546Y-87751454D02*
X172113572Y-88758428D01*
D24*
X180223520Y-99299428D02*
X180223520Y-96632428D01*
D25*
X182692520Y-94163428D02*
X180223520Y-96632428D01*
X195012520Y-92893428D02*
X195012520Y-85273428D01*
X193742520Y-94163428D02*
X182692520Y-94163428D01*
X195012520Y-85273428D02*
X196282520Y-84003428D01*
D24*
X177683520Y-101839428D02*
X180223520Y-99299428D01*
D25*
X196282520Y-94163428D02*
X195012520Y-92893428D01*
X193742520Y-89083428D02*
X182692520Y-89083428D01*
X182692520Y-89083428D02*
X174762520Y-97013428D01*
X193742520Y-86543428D02*
X182057520Y-86543428D01*
X199457520Y-52470928D02*
X199457520Y-54793428D01*
X182057520Y-86543428D02*
X175120020Y-93480928D01*
D26*
X163967520Y-77328428D02*
X165237520Y-78598428D01*
X165237520Y-78598428D02*
X163967520Y-79868428D01*
X176532520Y-62628428D02*
X178017520Y-61143428D01*
X176587520Y-63683428D02*
X193742520Y-63683428D01*
X178017520Y-61143428D02*
X193742520Y-61143428D01*
X175532520Y-62628428D02*
X176587520Y-63683428D01*
D25*
X173120545Y-78335403D02*
X177612520Y-73843428D01*
X177612520Y-73843428D02*
X193742520Y-73843428D01*
X193742520Y-66223428D02*
X177627520Y-66223428D01*
X197552520Y-62413428D02*
X198187520Y-63048428D01*
X198822520Y-96703428D02*
X198187520Y-96068428D01*
X178282520Y-62396229D02*
X178299719Y-62413428D01*
X176917520Y-68763428D02*
X173282520Y-65128428D01*
X197552520Y-96703428D02*
X196282520Y-96703428D01*
X194377520Y-75113428D02*
X182166470Y-75113428D01*
X196282520Y-71303428D02*
X195012520Y-72573428D01*
X177627520Y-66223428D02*
X173032520Y-61628428D01*
X178299719Y-62413428D02*
X197552520Y-62413428D01*
X184272521Y-106173427D02*
X174112521Y-106173427D01*
X199457520Y-98190928D02*
X199457520Y-97338428D01*
X182166470Y-75113428D02*
X171324495Y-85955403D01*
X193742520Y-58603428D02*
X176507520Y-58603428D01*
X198187520Y-96068428D02*
X197552520Y-96703428D01*
X193742520Y-56063428D02*
X175097520Y-56063428D01*
X175097520Y-56063428D02*
X174032520Y-57128428D01*
X198187520Y-63048428D02*
X198187520Y-96068428D01*
X199457520Y-93170928D02*
X199457520Y-95215928D01*
X199457520Y-97338428D02*
X198822520Y-96703428D01*
X195012520Y-74478428D02*
X194377520Y-75113428D01*
X176507520Y-58603428D02*
X175032520Y-57128428D01*
X193742520Y-68763428D02*
X176917520Y-68763428D01*
X193742520Y-96703428D02*
X184272521Y-106173427D01*
X195012520Y-72573428D02*
X195012520Y-74478428D01*
X182692520Y-91623428D02*
X177302520Y-97013428D01*
X193742520Y-91623428D02*
X182692520Y-91623428D01*
D24*
X176794520Y-100061428D02*
X175778520Y-99045428D01*
X175778520Y-99045428D02*
X170952520Y-99045428D01*
X176794520Y-100569428D02*
X176794520Y-100061428D01*
G04 #@! TA.AperFunction,Conductor*
G36*
X199744692Y-37045849D02*
G01*
X199822745Y-37061375D01*
X199868162Y-37080187D01*
X199923815Y-37117373D01*
X199958575Y-37152133D01*
X199995761Y-37207786D01*
X200014574Y-37253205D01*
X200030099Y-37331257D01*
X200032520Y-37355838D01*
X200032520Y-48456928D01*
X200012518Y-48525049D01*
X199958862Y-48571542D01*
X199906520Y-48582928D01*
X198795985Y-48582929D01*
X198778688Y-48582929D01*
X198775738Y-48583208D01*
X198775733Y-48583208D01*
X198765114Y-48584212D01*
X198747152Y-48585909D01*
X198739911Y-48588452D01*
X198739910Y-48588452D01*
X198628226Y-48627672D01*
X198628224Y-48627673D01*
X198619337Y-48630794D01*
X198510370Y-48711278D01*
X198429886Y-48820245D01*
X198385001Y-48948060D01*
X198382020Y-48979595D01*
X198382021Y-50012260D01*
X198385001Y-50043796D01*
X198387544Y-50051037D01*
X198387544Y-50051038D01*
X198406149Y-50104016D01*
X198429886Y-50171611D01*
X198510370Y-50280578D01*
X198619337Y-50361062D01*
X198628224Y-50364183D01*
X198628230Y-50364186D01*
X198674506Y-50380437D01*
X198732151Y-50421880D01*
X198758239Y-50487910D01*
X198744488Y-50557562D01*
X198721852Y-50588414D01*
X198714243Y-50596023D01*
X198651931Y-50630049D01*
X198625148Y-50632928D01*
X197361680Y-50632928D01*
X197293559Y-50612926D01*
X197250428Y-50566081D01*
X197245899Y-50557562D01*
X197161738Y-50399277D01*
X197072292Y-50289606D01*
X197035426Y-50244403D01*
X197035423Y-50244400D01*
X197031531Y-50239628D01*
X197014306Y-50225378D01*
X196877545Y-50112239D01*
X196877541Y-50112237D01*
X196872795Y-50108310D01*
X196691575Y-50010325D01*
X196640703Y-49994578D01*
X196581545Y-49955327D01*
X196552997Y-49890323D01*
X196564125Y-49820204D01*
X196611396Y-49767232D01*
X196641755Y-49753527D01*
X196774775Y-49713619D01*
X196784362Y-49709861D01*
X196975615Y-49616167D01*
X196984465Y-49610892D01*
X197157848Y-49487220D01*
X197165720Y-49480567D01*
X197316572Y-49330240D01*
X197323250Y-49322393D01*
X197447523Y-49149448D01*
X197452833Y-49140611D01*
X197547190Y-48949695D01*
X197550989Y-48940100D01*
X197612897Y-48736338D01*
X197615075Y-48726265D01*
X197616506Y-48715390D01*
X197614295Y-48701206D01*
X197601137Y-48697428D01*
X192402636Y-48697428D01*
X192387397Y-48701903D01*
X192386192Y-48703293D01*
X192384521Y-48710976D01*
X192384521Y-49338097D01*
X192384891Y-49344918D01*
X192390415Y-49395780D01*
X192394041Y-49411032D01*
X192439196Y-49531482D01*
X192447734Y-49547077D01*
X192524235Y-49649152D01*
X192536796Y-49661713D01*
X192638871Y-49738214D01*
X192654466Y-49746752D01*
X192774914Y-49791906D01*
X192790169Y-49795533D01*
X192841034Y-49801059D01*
X192847848Y-49801428D01*
X193222952Y-49801428D01*
X193291073Y-49821430D01*
X193337566Y-49875086D01*
X193347670Y-49945360D01*
X193318176Y-50009940D01*
X193281332Y-50039087D01*
X193164522Y-50100154D01*
X193159721Y-50104014D01*
X193159718Y-50104016D01*
X193149491Y-50112239D01*
X193003967Y-50229243D01*
X193000000Y-50233971D01*
X192996687Y-50237919D01*
X192937577Y-50277246D01*
X192900165Y-50282928D01*
X162401157Y-50282928D01*
X162392586Y-50282636D01*
X162335590Y-50278750D01*
X162328114Y-50280055D01*
X162328110Y-50280055D01*
X162273388Y-50289606D01*
X162266862Y-50290569D01*
X162226424Y-50295463D01*
X162204200Y-50298152D01*
X162197093Y-50300837D01*
X162193800Y-50301646D01*
X162179329Y-50305605D01*
X162176053Y-50306594D01*
X162168566Y-50307901D01*
X162161608Y-50310956D01*
X162161606Y-50310956D01*
X162110762Y-50333274D01*
X162104657Y-50335766D01*
X162093646Y-50339927D01*
X162045597Y-50358083D01*
X162039344Y-50362381D01*
X162036313Y-50363965D01*
X162023236Y-50371245D01*
X162020277Y-50372995D01*
X162013317Y-50376050D01*
X162007290Y-50380675D01*
X162007286Y-50380677D01*
X161963220Y-50414490D01*
X161957901Y-50418355D01*
X161905869Y-50454116D01*
X161900812Y-50459792D01*
X161864920Y-50500076D01*
X161859939Y-50505352D01*
X156557445Y-55807846D01*
X156551180Y-55813699D01*
X156508124Y-55851259D01*
X156471837Y-55902891D01*
X156467904Y-55908186D01*
X156433625Y-55951904D01*
X156433623Y-55951908D01*
X156428936Y-55957885D01*
X156425810Y-55964808D01*
X156424025Y-55967756D01*
X156416633Y-55980716D01*
X156415000Y-55983762D01*
X156410633Y-55989975D01*
X156407874Y-55997052D01*
X156387700Y-56048794D01*
X156385145Y-56054873D01*
X156359165Y-56112412D01*
X156357780Y-56119883D01*
X156356756Y-56123151D01*
X156352643Y-56137592D01*
X156351803Y-56140865D01*
X156349044Y-56147941D01*
X156343164Y-56192611D01*
X156340804Y-56210534D01*
X156339772Y-56217051D01*
X156328268Y-56279120D01*
X156328705Y-56286700D01*
X156328705Y-56286701D01*
X156331811Y-56340572D01*
X156332020Y-56347824D01*
X156332020Y-99051556D01*
X156312018Y-99119677D01*
X156258362Y-99166170D01*
X156231140Y-99175026D01*
X156051952Y-99211482D01*
X156051927Y-99211488D01*
X156048808Y-99212123D01*
X156045766Y-99213070D01*
X156045760Y-99213072D01*
X155887670Y-99262312D01*
X155666666Y-99331147D01*
X155619645Y-99351203D01*
X155301439Y-99486929D01*
X155301435Y-99486931D01*
X155298509Y-99488179D01*
X155295730Y-99489713D01*
X155295724Y-99489716D01*
X155105407Y-99594777D01*
X154948106Y-99681612D01*
X154945485Y-99683427D01*
X154945480Y-99683430D01*
X154699287Y-99853902D01*
X154619044Y-99909465D01*
X154314692Y-100169406D01*
X154312492Y-100171708D01*
X154312489Y-100171711D01*
X154264168Y-100222276D01*
X154038168Y-100458772D01*
X154036211Y-100461286D01*
X154036210Y-100461287D01*
X153804736Y-100758629D01*
X153792301Y-100774602D01*
X153790605Y-100777306D01*
X153790602Y-100777310D01*
X153730726Y-100872761D01*
X153579610Y-101113662D01*
X153402271Y-101472479D01*
X153401157Y-101475460D01*
X153401156Y-101475461D01*
X153398605Y-101482285D01*
X153262101Y-101847381D01*
X153160535Y-102234528D01*
X153136159Y-102390188D01*
X153100002Y-102621083D01*
X153098612Y-102629958D01*
X153098441Y-102633120D01*
X153098440Y-102633127D01*
X153083398Y-102910877D01*
X153076967Y-103029620D01*
X153077117Y-103032801D01*
X153095668Y-103426179D01*
X153095821Y-103429425D01*
X153154982Y-103825277D01*
X153155768Y-103828359D01*
X153155768Y-103828361D01*
X153216707Y-104067432D01*
X153253843Y-104213124D01*
X153391392Y-104588995D01*
X153448734Y-104707086D01*
X153548729Y-104913018D01*
X153566221Y-104949042D01*
X153776541Y-105289578D01*
X153778484Y-105292111D01*
X153778486Y-105292113D01*
X154000754Y-105581777D01*
X154020197Y-105607116D01*
X154294694Y-105898406D01*
X154297099Y-105900490D01*
X154297105Y-105900495D01*
X154594814Y-106158377D01*
X154597224Y-106160465D01*
X154924687Y-106390610D01*
X155024381Y-106446556D01*
X155239309Y-106567168D01*
X155273731Y-106586485D01*
X155276646Y-106587752D01*
X155276649Y-106587754D01*
X155379549Y-106632496D01*
X155640783Y-106746084D01*
X156022085Y-106867772D01*
X156234856Y-106912610D01*
X156410612Y-106949648D01*
X156410617Y-106949649D01*
X156413731Y-106950305D01*
X156811714Y-106992837D01*
X156814902Y-106992854D01*
X156814907Y-106992854D01*
X156996493Y-106993805D01*
X157211957Y-106994933D01*
X157363514Y-106980340D01*
X157607198Y-106956876D01*
X157607203Y-106956875D01*
X157610363Y-106956571D01*
X157613482Y-106955948D01*
X157613487Y-106955947D01*
X157806974Y-106917284D01*
X158002852Y-106878144D01*
X158296638Y-106787764D01*
X158382365Y-106761391D01*
X158382368Y-106761390D01*
X158385407Y-106760455D01*
X158388335Y-106759218D01*
X158388341Y-106759216D01*
X158587240Y-106675197D01*
X158754110Y-106604708D01*
X158756913Y-106603174D01*
X158756918Y-106603171D01*
X158918581Y-106514663D01*
X159105187Y-106412499D01*
X159435042Y-106185796D01*
X159437481Y-106183728D01*
X159437487Y-106183723D01*
X159456911Y-106167250D01*
X173606912Y-106167250D01*
X173625501Y-106309406D01*
X173629118Y-106317626D01*
X173671623Y-106414225D01*
X173683241Y-106440630D01*
X173689018Y-106447503D01*
X173689019Y-106447504D01*
X173754968Y-106525960D01*
X173775491Y-106550375D01*
X173894834Y-106629817D01*
X174031678Y-106672569D01*
X174040650Y-106672733D01*
X174040653Y-106672734D01*
X174105984Y-106673931D01*
X174175020Y-106675197D01*
X174184054Y-106672734D01*
X174304679Y-106639848D01*
X174304681Y-106639847D01*
X174313338Y-106637487D01*
X174435512Y-106562472D01*
X174441536Y-106555817D01*
X174444948Y-106552984D01*
X174510136Y-106524859D01*
X174525434Y-106523927D01*
X184221697Y-106523927D01*
X184240796Y-106525960D01*
X184245604Y-106526187D01*
X184255782Y-106528378D01*
X184286012Y-106524800D01*
X184291267Y-106524490D01*
X184291256Y-106524355D01*
X184296435Y-106523927D01*
X184301636Y-106523927D01*
X184306764Y-106523073D01*
X184306770Y-106523073D01*
X184318994Y-106521038D01*
X184324870Y-106520201D01*
X184361320Y-106515887D01*
X184361322Y-106515887D01*
X184371659Y-106514663D01*
X184379279Y-106511004D01*
X184387624Y-106509615D01*
X184429105Y-106487233D01*
X184434391Y-106484540D01*
X184476847Y-106464153D01*
X184480795Y-106460835D01*
X184482728Y-106458902D01*
X184484325Y-106457437D01*
X184484815Y-106457173D01*
X184484834Y-106457193D01*
X184484923Y-106457114D01*
X184490315Y-106454205D01*
X184523976Y-106417791D01*
X184527405Y-106414225D01*
X184711768Y-106229862D01*
X192211441Y-106229862D01*
X192218228Y-106239563D01*
X192417543Y-106409793D01*
X192422229Y-106413428D01*
X192745962Y-106640951D01*
X192750952Y-106644118D01*
X193094661Y-106840167D01*
X193099942Y-106842857D01*
X193460573Y-107005688D01*
X193466064Y-107007862D01*
X193840426Y-107136035D01*
X193846110Y-107137687D01*
X194230867Y-107230059D01*
X194236682Y-107231168D01*
X194628409Y-107286918D01*
X194634322Y-107287477D01*
X195029551Y-107306116D01*
X195035489Y-107306116D01*
X195430718Y-107287477D01*
X195436631Y-107286918D01*
X195828358Y-107231168D01*
X195834173Y-107230059D01*
X196218930Y-107137687D01*
X196224614Y-107136035D01*
X196598976Y-107007862D01*
X196604467Y-107005688D01*
X196965098Y-106842857D01*
X196970379Y-106840167D01*
X197314088Y-106644118D01*
X197319078Y-106640951D01*
X197642811Y-106413428D01*
X197647497Y-106409793D01*
X197845242Y-106240904D01*
X197853672Y-106227990D01*
X197847665Y-106217783D01*
X196902112Y-105272230D01*
X196902108Y-105272227D01*
X195045330Y-103415448D01*
X195031389Y-103407836D01*
X195029554Y-103407967D01*
X195022940Y-103412218D01*
X193162944Y-105272215D01*
X193162916Y-105272242D01*
X192218833Y-106216325D01*
X192211441Y-106229862D01*
X184711768Y-106229862D01*
X188029129Y-102912501D01*
X190771842Y-102912501D01*
X190778057Y-103308107D01*
X190778431Y-103314057D01*
X190821847Y-103707323D01*
X190822777Y-103713194D01*
X190903014Y-104100640D01*
X190904490Y-104106388D01*
X191020836Y-104484579D01*
X191022840Y-104490144D01*
X191174265Y-104855716D01*
X191176787Y-104861075D01*
X191361931Y-105210751D01*
X191364956Y-105215868D01*
X191582189Y-105546572D01*
X191585679Y-105551375D01*
X191832812Y-105859848D01*
X191845650Y-105867122D01*
X191846959Y-105867049D01*
X191854372Y-105862366D01*
X192803720Y-104913018D01*
X192803721Y-104913016D01*
X194660500Y-103056238D01*
X194666877Y-103044559D01*
X195396928Y-103044559D01*
X195397059Y-103046394D01*
X195401310Y-103053008D01*
X197261307Y-104913004D01*
X197261320Y-104913018D01*
X198207791Y-105859489D01*
X198221735Y-105867103D01*
X198223044Y-105867010D01*
X198229880Y-105862540D01*
X198231974Y-105860165D01*
X198479361Y-105551375D01*
X198482851Y-105546572D01*
X198700084Y-105215868D01*
X198703109Y-105210751D01*
X198888253Y-104861075D01*
X198890775Y-104855716D01*
X199042200Y-104490144D01*
X199044204Y-104484579D01*
X199160550Y-104106388D01*
X199162026Y-104100640D01*
X199242263Y-103713194D01*
X199243193Y-103707323D01*
X199286665Y-103313552D01*
X199287014Y-103308624D01*
X199295270Y-103045896D01*
X199295231Y-103040958D01*
X199276569Y-102645230D01*
X199276010Y-102639317D01*
X199220260Y-102247590D01*
X199219151Y-102241775D01*
X199126779Y-101857018D01*
X199125127Y-101851334D01*
X198996954Y-101476972D01*
X198994780Y-101471481D01*
X198831949Y-101110850D01*
X198829259Y-101105569D01*
X198633210Y-100761860D01*
X198630043Y-100756870D01*
X198402520Y-100433137D01*
X198398885Y-100428451D01*
X198229996Y-100230706D01*
X198217082Y-100222276D01*
X198206875Y-100228283D01*
X197261320Y-101173838D01*
X197261319Y-101173840D01*
X195404540Y-103030618D01*
X195396928Y-103044559D01*
X194666877Y-103044559D01*
X194668112Y-103042297D01*
X194667981Y-103040462D01*
X194663730Y-103033848D01*
X192803733Y-101173852D01*
X192803720Y-101173838D01*
X191859922Y-100230040D01*
X191845978Y-100222426D01*
X191845725Y-100222444D01*
X191836983Y-100228358D01*
X191749956Y-100324000D01*
X191746169Y-100328578D01*
X191508608Y-100644979D01*
X191505264Y-100649899D01*
X191298521Y-100987273D01*
X191295673Y-100992453D01*
X191121592Y-101347798D01*
X191119243Y-101353225D01*
X190979378Y-101723367D01*
X190977546Y-101729006D01*
X190873142Y-102110643D01*
X190871843Y-102116456D01*
X190803815Y-102506239D01*
X190803074Y-102512102D01*
X190772027Y-102906575D01*
X190771842Y-102912501D01*
X188029129Y-102912501D01*
X191082238Y-99859392D01*
X192211459Y-99859392D01*
X192211465Y-99859645D01*
X192216965Y-99868663D01*
X193162928Y-100814626D01*
X193162932Y-100814629D01*
X194312689Y-101964387D01*
X195019710Y-102671408D01*
X195033651Y-102679020D01*
X195035486Y-102678889D01*
X195042100Y-102674638D01*
X195752351Y-101964387D01*
X196902096Y-100814641D01*
X196902124Y-100814614D01*
X197848581Y-99868157D01*
X197856195Y-99854213D01*
X197856102Y-99852904D01*
X197851632Y-99846068D01*
X197849257Y-99843974D01*
X197540467Y-99596587D01*
X197535664Y-99593097D01*
X197204960Y-99375864D01*
X197199843Y-99372839D01*
X196850167Y-99187695D01*
X196844808Y-99185173D01*
X196479236Y-99033748D01*
X196473671Y-99031744D01*
X196095480Y-98915398D01*
X196089732Y-98913922D01*
X195702286Y-98833685D01*
X195696415Y-98832755D01*
X195303149Y-98789339D01*
X195297199Y-98788965D01*
X194901593Y-98782750D01*
X194895667Y-98782935D01*
X194501194Y-98813982D01*
X194495331Y-98814723D01*
X194105548Y-98882751D01*
X194099735Y-98884050D01*
X193718098Y-98988454D01*
X193712459Y-98990286D01*
X193342317Y-99130151D01*
X193336890Y-99132500D01*
X192981545Y-99306581D01*
X192976365Y-99309429D01*
X192638991Y-99516172D01*
X192634071Y-99519516D01*
X192317670Y-99757077D01*
X192313092Y-99760864D01*
X192219719Y-99845826D01*
X192211459Y-99859392D01*
X191082238Y-99859392D01*
X193228327Y-97713303D01*
X193290639Y-97679277D01*
X193356358Y-97682565D01*
X193509991Y-97732484D01*
X193509995Y-97732485D01*
X193515849Y-97734387D01*
X193720414Y-97758779D01*
X193726549Y-97758307D01*
X193726551Y-97758307D01*
X193782559Y-97753997D01*
X193925820Y-97742974D01*
X193931750Y-97741318D01*
X193931752Y-97741318D01*
X194118317Y-97689228D01*
X194118316Y-97689228D01*
X194124245Y-97687573D01*
X194129734Y-97684800D01*
X194129740Y-97684798D01*
X194302636Y-97597461D01*
X194308130Y-97594686D01*
X194470471Y-97467852D01*
X194475593Y-97461919D01*
X194601060Y-97316562D01*
X194601060Y-97316561D01*
X194605084Y-97311900D01*
X194625907Y-97275246D01*
X194661971Y-97211761D01*
X194706843Y-97132772D01*
X194771871Y-96937291D01*
X194797691Y-96732902D01*
X194798103Y-96703428D01*
X194778000Y-96498398D01*
X194718455Y-96301177D01*
X194621738Y-96119277D01*
X194529536Y-96006226D01*
X194495426Y-95964403D01*
X194495423Y-95964400D01*
X194491531Y-95959628D01*
X194484693Y-95953971D01*
X194337545Y-95832239D01*
X194337541Y-95832237D01*
X194332795Y-95828310D01*
X194151575Y-95730325D01*
X193954774Y-95669405D01*
X193948649Y-95668761D01*
X193948648Y-95668761D01*
X193756018Y-95648515D01*
X193756016Y-95648515D01*
X193749889Y-95647871D01*
X193663049Y-95655774D01*
X193550862Y-95665983D01*
X193550859Y-95665984D01*
X193544723Y-95666542D01*
X193347092Y-95724708D01*
X193341627Y-95727565D01*
X193330743Y-95733255D01*
X193164522Y-95820154D01*
X193159721Y-95824014D01*
X193159718Y-95824016D01*
X193008774Y-95945378D01*
X193003967Y-95949243D01*
X192871544Y-96107058D01*
X192868576Y-96112456D01*
X192868573Y-96112461D01*
X192782906Y-96268291D01*
X192772296Y-96287590D01*
X192710004Y-96483960D01*
X192709318Y-96490077D01*
X192709317Y-96490081D01*
X192694837Y-96619179D01*
X192687040Y-96688690D01*
X192687556Y-96694834D01*
X192699707Y-96839531D01*
X192704279Y-96893981D01*
X192705978Y-96899906D01*
X192761064Y-97092014D01*
X192759383Y-97092496D01*
X192765105Y-97154916D01*
X192730568Y-97219698D01*
X184164244Y-105786022D01*
X184101932Y-105820048D01*
X184075149Y-105822927D01*
X174525225Y-105822927D01*
X174457104Y-105802925D01*
X174448300Y-105796311D01*
X174444921Y-105792390D01*
X174385114Y-105753625D01*
X174338830Y-105699789D01*
X174328999Y-105629477D01*
X174346386Y-105581777D01*
X174406432Y-105484365D01*
X174412576Y-105471187D01*
X174462835Y-105319662D01*
X174465701Y-105306296D01*
X174475192Y-105213658D01*
X174475520Y-105207243D01*
X174475520Y-105183043D01*
X174471045Y-105167804D01*
X174469655Y-105166599D01*
X174461972Y-105164928D01*
X173764635Y-105164928D01*
X173749396Y-105169403D01*
X173748191Y-105170793D01*
X173746520Y-105178476D01*
X173746520Y-105784028D01*
X173726518Y-105852149D01*
X173714962Y-105867435D01*
X173689898Y-105895815D01*
X173628968Y-106025590D01*
X173606912Y-106167250D01*
X159456911Y-106167250D01*
X159737858Y-105928990D01*
X159740299Y-105926920D01*
X159742505Y-105924628D01*
X159742511Y-105924622D01*
X159915565Y-105744791D01*
X160017832Y-105638520D01*
X160264800Y-105323550D01*
X160274909Y-105307560D01*
X160338357Y-105207194D01*
X172509520Y-105207194D01*
X172509857Y-105213710D01*
X172519595Y-105307560D01*
X172522488Y-105320956D01*
X172573008Y-105472381D01*
X172579173Y-105485543D01*
X172662946Y-105620920D01*
X172671980Y-105632318D01*
X172784649Y-105744791D01*
X172796060Y-105753803D01*
X172931583Y-105837340D01*
X172944761Y-105843484D01*
X173096286Y-105893743D01*
X173109652Y-105896609D01*
X173202290Y-105906100D01*
X173208705Y-105906428D01*
X173220405Y-105906428D01*
X173235644Y-105901953D01*
X173236849Y-105900563D01*
X173238520Y-105892880D01*
X173238520Y-105183043D01*
X173234045Y-105167804D01*
X173232655Y-105166599D01*
X173224972Y-105164928D01*
X172527635Y-105164928D01*
X172512396Y-105169403D01*
X172511191Y-105170793D01*
X172509520Y-105178476D01*
X172509520Y-105207194D01*
X160338357Y-105207194D01*
X160417686Y-105081707D01*
X175314071Y-105081707D01*
X175316854Y-105085425D01*
X175446699Y-105133714D01*
X175460297Y-105137104D01*
X175615780Y-105157851D01*
X175629776Y-105158144D01*
X175785990Y-105143927D01*
X175799715Y-105141110D01*
X175948899Y-105092637D01*
X175961649Y-105086853D01*
X175969238Y-105082329D01*
X175980122Y-105079527D01*
X175976117Y-105076953D01*
X176083139Y-105076953D01*
X176094088Y-105079942D01*
X176103896Y-105085292D01*
X176234099Y-105133714D01*
X176247697Y-105137104D01*
X176403180Y-105157851D01*
X176417176Y-105158144D01*
X176573390Y-105143927D01*
X176587115Y-105141110D01*
X176736299Y-105092637D01*
X176743172Y-105089519D01*
X176751024Y-105081050D01*
X176747520Y-105072638D01*
X176439032Y-104764150D01*
X176425088Y-104756536D01*
X176423255Y-104756667D01*
X176416640Y-104760918D01*
X176121615Y-105055943D01*
X176083139Y-105076953D01*
X175976117Y-105076953D01*
X175943425Y-105055943D01*
X175651632Y-104764150D01*
X175637688Y-104756536D01*
X175635855Y-104756667D01*
X175629240Y-104760918D01*
X175320831Y-105069327D01*
X175314071Y-105081707D01*
X160417686Y-105081707D01*
X160476964Y-104987939D01*
X160478673Y-104985236D01*
X160480093Y-104982388D01*
X160480098Y-104982379D01*
X160655843Y-104629887D01*
X160657263Y-104627039D01*
X160798741Y-104252629D01*
X160808598Y-104215586D01*
X160883379Y-103934538D01*
X160901658Y-103865839D01*
X160904195Y-103850000D01*
X160934719Y-103785900D01*
X160995053Y-103748479D01*
X161028609Y-103743928D01*
X162099879Y-103743928D01*
X162108449Y-103744220D01*
X162157874Y-103747590D01*
X162157878Y-103747590D01*
X162165450Y-103748106D01*
X162172926Y-103746801D01*
X162172929Y-103746801D01*
X162227652Y-103737250D01*
X162234178Y-103736287D01*
X162274616Y-103731393D01*
X162296840Y-103728704D01*
X162303947Y-103726019D01*
X162307240Y-103725210D01*
X162321711Y-103721251D01*
X162324987Y-103720262D01*
X162332474Y-103718955D01*
X162339434Y-103715900D01*
X162390280Y-103693581D01*
X162396386Y-103691089D01*
X162448338Y-103671458D01*
X162448340Y-103671457D01*
X162455443Y-103668773D01*
X162461698Y-103664474D01*
X162464723Y-103662893D01*
X162477819Y-103655603D01*
X162480763Y-103653862D01*
X162487722Y-103650807D01*
X162499763Y-103641568D01*
X162537793Y-103612386D01*
X162543129Y-103608509D01*
X162588906Y-103577047D01*
X162588912Y-103577042D01*
X162595171Y-103572740D01*
X162636129Y-103526770D01*
X162641109Y-103521495D01*
X163596081Y-102566523D01*
X169569521Y-102566523D01*
X169569858Y-102573042D01*
X169579777Y-102668634D01*
X169582669Y-102682028D01*
X169634108Y-102836212D01*
X169640281Y-102849390D01*
X169725583Y-102987235D01*
X169734619Y-102998636D01*
X169849349Y-103113167D01*
X169860760Y-103122179D01*
X169998763Y-103207244D01*
X170011944Y-103213391D01*
X170166230Y-103264566D01*
X170179606Y-103267433D01*
X170273958Y-103277100D01*
X170280374Y-103277428D01*
X170680405Y-103277428D01*
X170695644Y-103272953D01*
X170696849Y-103271563D01*
X170698520Y-103263880D01*
X170698520Y-103259312D01*
X171206520Y-103259312D01*
X171210995Y-103274551D01*
X171212385Y-103275756D01*
X171220068Y-103277427D01*
X171624615Y-103277427D01*
X171631134Y-103277090D01*
X171726726Y-103267171D01*
X171740120Y-103264279D01*
X171894304Y-103212840D01*
X171907482Y-103206667D01*
X172045327Y-103121365D01*
X172056728Y-103112329D01*
X172171259Y-102997599D01*
X172180271Y-102986188D01*
X172265336Y-102848185D01*
X172271483Y-102835004D01*
X172322658Y-102680718D01*
X172325525Y-102667342D01*
X172335192Y-102572990D01*
X172335520Y-102566574D01*
X172335520Y-102391543D01*
X172331045Y-102376304D01*
X172329655Y-102375099D01*
X172321972Y-102373428D01*
X171224635Y-102373428D01*
X171209396Y-102377903D01*
X171208191Y-102379293D01*
X171206520Y-102386976D01*
X171206520Y-103259312D01*
X170698520Y-103259312D01*
X170698520Y-102391543D01*
X170694045Y-102376304D01*
X170692655Y-102375099D01*
X170684972Y-102373428D01*
X169587636Y-102373428D01*
X169572397Y-102377903D01*
X169571192Y-102379293D01*
X169569521Y-102386976D01*
X169569521Y-102566523D01*
X163596081Y-102566523D01*
X164855771Y-101306833D01*
X164918083Y-101272807D01*
X164944866Y-101269928D01*
X169503435Y-101269928D01*
X169571556Y-101289930D01*
X169618049Y-101343586D01*
X169628153Y-101413860D01*
X169623028Y-101435596D01*
X169582382Y-101558138D01*
X169579515Y-101571514D01*
X169569848Y-101665866D01*
X169569520Y-101672283D01*
X169569520Y-101847313D01*
X169573995Y-101862552D01*
X169575385Y-101863757D01*
X169583068Y-101865428D01*
X172317404Y-101865428D01*
X172332643Y-101860953D01*
X172333848Y-101859563D01*
X172335519Y-101851880D01*
X172335519Y-101672333D01*
X172335182Y-101665814D01*
X172325263Y-101570222D01*
X172322371Y-101556828D01*
X172281995Y-101435804D01*
X172279411Y-101364854D01*
X172315595Y-101303770D01*
X172379059Y-101271946D01*
X172401519Y-101269928D01*
X173016020Y-101269928D01*
X173084141Y-101289930D01*
X173130634Y-101343586D01*
X173142020Y-101395928D01*
X173142020Y-102322067D01*
X173122018Y-102390188D01*
X173068362Y-102436681D01*
X173057772Y-102440948D01*
X173056642Y-102441345D01*
X173047752Y-102444467D01*
X173040177Y-102450062D01*
X173040175Y-102450063D01*
X172995128Y-102483335D01*
X172941809Y-102522717D01*
X172863559Y-102628660D01*
X172860438Y-102637547D01*
X172860437Y-102637549D01*
X172845277Y-102680718D01*
X172819919Y-102752928D01*
X172817020Y-102783595D01*
X172817021Y-103388260D01*
X172819919Y-103418928D01*
X172822464Y-103426176D01*
X172822465Y-103426179D01*
X172856841Y-103524065D01*
X172863559Y-103543196D01*
X172869154Y-103550771D01*
X172869155Y-103550773D01*
X172890608Y-103579818D01*
X172941809Y-103649139D01*
X172949380Y-103654731D01*
X173039442Y-103721251D01*
X173040992Y-103722396D01*
X173040995Y-103722399D01*
X173047752Y-103727389D01*
X173047067Y-103728316D01*
X173091454Y-103771571D01*
X173107441Y-103840744D01*
X173083491Y-103907579D01*
X173021533Y-103952903D01*
X172943572Y-103978913D01*
X172930405Y-103985081D01*
X172795028Y-104068854D01*
X172783630Y-104077888D01*
X172671157Y-104190557D01*
X172662145Y-104201968D01*
X172578608Y-104337491D01*
X172572464Y-104350669D01*
X172522205Y-104502194D01*
X172519339Y-104515560D01*
X172509848Y-104608198D01*
X172509520Y-104614613D01*
X172509520Y-104638813D01*
X172513995Y-104654052D01*
X172515385Y-104655257D01*
X172523068Y-104656928D01*
X174457405Y-104656928D01*
X174472644Y-104652453D01*
X174473849Y-104651063D01*
X174475520Y-104643380D01*
X174475520Y-104614662D01*
X174475183Y-104608146D01*
X174465445Y-104514296D01*
X174462552Y-104500900D01*
X174425030Y-104388434D01*
X174872761Y-104388434D01*
X174888068Y-104544550D01*
X174890979Y-104558244D01*
X174940492Y-104707086D01*
X174942073Y-104710509D01*
X174949490Y-104717290D01*
X174958111Y-104713627D01*
X175266798Y-104404940D01*
X175273176Y-104393260D01*
X176003228Y-104393260D01*
X176003359Y-104395093D01*
X176007610Y-104401708D01*
X176019708Y-104413806D01*
X176033652Y-104421420D01*
X176035485Y-104421289D01*
X176042100Y-104417038D01*
X176054198Y-104404940D01*
X176060576Y-104393260D01*
X176790628Y-104393260D01*
X176790759Y-104395093D01*
X176795010Y-104401708D01*
X177103057Y-104709755D01*
X177115437Y-104716515D01*
X177119253Y-104713658D01*
X177166451Y-104589411D01*
X177169931Y-104575857D01*
X177192192Y-104417462D01*
X177192798Y-104409578D01*
X177192987Y-104396090D01*
X177192600Y-104388189D01*
X177174771Y-104229239D01*
X177171669Y-104215586D01*
X177120076Y-104067432D01*
X177112764Y-104052157D01*
X177090035Y-104087523D01*
X176798242Y-104379316D01*
X176790628Y-104393260D01*
X176060576Y-104393260D01*
X176061812Y-104390996D01*
X176061681Y-104389163D01*
X176057430Y-104382548D01*
X176045332Y-104370450D01*
X176031388Y-104362836D01*
X176029555Y-104362967D01*
X176022940Y-104367218D01*
X176010842Y-104379316D01*
X176003228Y-104393260D01*
X175273176Y-104393260D01*
X175274412Y-104390996D01*
X175274281Y-104389163D01*
X175270030Y-104382548D01*
X174975005Y-104087523D01*
X174953652Y-104048419D01*
X174950648Y-104059655D01*
X174945248Y-104069638D01*
X174895908Y-104205197D01*
X174892616Y-104218806D01*
X174872957Y-104374427D01*
X174872761Y-104388434D01*
X174425030Y-104388434D01*
X174412032Y-104349475D01*
X174405867Y-104336313D01*
X174322094Y-104200936D01*
X174313060Y-104189538D01*
X174200391Y-104077065D01*
X174188980Y-104068053D01*
X174077863Y-103999560D01*
X175609528Y-103999560D01*
X175609659Y-104001393D01*
X175613910Y-104008008D01*
X175626008Y-104020106D01*
X175639952Y-104027720D01*
X175641785Y-104027589D01*
X175648400Y-104023338D01*
X175660498Y-104011240D01*
X175666876Y-103999560D01*
X176396928Y-103999560D01*
X176397059Y-104001393D01*
X176401310Y-104008008D01*
X176413408Y-104020106D01*
X176427352Y-104027720D01*
X176429185Y-104027589D01*
X176435800Y-104023338D01*
X176447898Y-104011240D01*
X176455512Y-103997296D01*
X176455381Y-103995463D01*
X176451130Y-103988848D01*
X176439032Y-103976750D01*
X176425088Y-103969136D01*
X176423255Y-103969267D01*
X176416640Y-103973518D01*
X176404542Y-103985616D01*
X176396928Y-103999560D01*
X175666876Y-103999560D01*
X175668112Y-103997296D01*
X175667981Y-103995463D01*
X175663730Y-103988848D01*
X175651632Y-103976750D01*
X175637688Y-103969136D01*
X175635855Y-103969267D01*
X175629240Y-103973518D01*
X175617142Y-103985616D01*
X175609528Y-103999560D01*
X174077863Y-103999560D01*
X174053457Y-103984516D01*
X174040280Y-103978372D01*
X173963713Y-103952976D01*
X173905353Y-103912546D01*
X173878116Y-103846982D01*
X173890649Y-103777100D01*
X173938106Y-103728496D01*
X173937288Y-103727389D01*
X173944097Y-103722360D01*
X173944098Y-103722359D01*
X174043231Y-103649139D01*
X174078762Y-103601034D01*
X174872761Y-103601034D01*
X174888068Y-103757150D01*
X174890979Y-103770844D01*
X174940492Y-103919686D01*
X174946368Y-103932403D01*
X174947597Y-103934433D01*
X174947989Y-103935911D01*
X174949322Y-103938797D01*
X174948815Y-103939031D01*
X174950889Y-103946858D01*
X174975005Y-103909333D01*
X175266798Y-103617540D01*
X175273176Y-103605860D01*
X176003228Y-103605860D01*
X176003359Y-103607693D01*
X176007610Y-103614308D01*
X176019708Y-103626406D01*
X176033652Y-103634020D01*
X176035485Y-103633889D01*
X176042100Y-103629638D01*
X176054198Y-103617540D01*
X176060576Y-103605860D01*
X176790628Y-103605860D01*
X176790759Y-103607693D01*
X176795010Y-103614308D01*
X177090035Y-103909333D01*
X177110707Y-103947191D01*
X177114813Y-103934538D01*
X177119000Y-103926924D01*
X177166451Y-103802011D01*
X177169931Y-103788457D01*
X177192192Y-103630062D01*
X177192798Y-103622178D01*
X177192987Y-103608690D01*
X177192600Y-103600789D01*
X177174771Y-103441839D01*
X177171669Y-103428186D01*
X177121075Y-103282901D01*
X177116436Y-103278771D01*
X177107409Y-103282749D01*
X176798242Y-103591916D01*
X176790628Y-103605860D01*
X176060576Y-103605860D01*
X176061812Y-103603596D01*
X176061681Y-103601763D01*
X176057430Y-103595148D01*
X176045332Y-103583050D01*
X176031388Y-103575436D01*
X176029555Y-103575567D01*
X176022940Y-103579818D01*
X176010842Y-103591916D01*
X176003228Y-103605860D01*
X175273176Y-103605860D01*
X175274412Y-103603596D01*
X175274281Y-103601763D01*
X175270030Y-103595148D01*
X174961228Y-103286346D01*
X174948848Y-103279586D01*
X174945226Y-103282297D01*
X174895908Y-103417797D01*
X174892616Y-103431406D01*
X174872957Y-103587027D01*
X174872761Y-103601034D01*
X174078762Y-103601034D01*
X174094432Y-103579818D01*
X174115885Y-103550773D01*
X174115886Y-103550771D01*
X174121481Y-103543196D01*
X174128200Y-103524065D01*
X174162576Y-103426176D01*
X174162577Y-103426174D01*
X174165121Y-103418928D01*
X174168020Y-103388261D01*
X174168019Y-102914967D01*
X175313274Y-102914967D01*
X175317098Y-102923796D01*
X175626008Y-103232706D01*
X175639952Y-103240320D01*
X175641785Y-103240189D01*
X175648400Y-103235938D01*
X175943425Y-102940913D01*
X175983219Y-102919183D01*
X175971990Y-102916243D01*
X176083229Y-102916243D01*
X176121615Y-102940913D01*
X176413408Y-103232706D01*
X176427352Y-103240320D01*
X176429185Y-103240189D01*
X176435800Y-103235938D01*
X176745027Y-102926711D01*
X176751787Y-102914331D01*
X176749202Y-102910877D01*
X176748902Y-102910717D01*
X176607965Y-102860531D01*
X176594326Y-102857332D01*
X176438566Y-102838759D01*
X176424569Y-102838661D01*
X176268562Y-102855058D01*
X176254888Y-102858064D01*
X176106386Y-102908619D01*
X176087351Y-102917576D01*
X176086327Y-102915400D01*
X176083229Y-102916243D01*
X175971990Y-102916243D01*
X175971631Y-102916149D01*
X175961506Y-102910718D01*
X175820565Y-102860531D01*
X175806926Y-102857332D01*
X175651166Y-102838759D01*
X175637169Y-102838661D01*
X175481162Y-102855058D01*
X175467488Y-102858064D01*
X175319002Y-102908613D01*
X175313274Y-102914967D01*
X174168019Y-102914967D01*
X174168019Y-102783596D01*
X174165121Y-102752928D01*
X174139763Y-102680718D01*
X174124603Y-102637549D01*
X174124602Y-102637547D01*
X174121481Y-102628660D01*
X174043231Y-102522717D01*
X173989912Y-102483335D01*
X173944865Y-102450063D01*
X173944863Y-102450062D01*
X173937288Y-102444467D01*
X173928398Y-102441345D01*
X173927268Y-102440948D01*
X173926206Y-102440184D01*
X173920080Y-102436941D01*
X173920525Y-102436100D01*
X173869624Y-102399504D01*
X173843537Y-102333474D01*
X173843020Y-102322067D01*
X173843020Y-101395928D01*
X173863022Y-101327807D01*
X173916678Y-101281314D01*
X173969020Y-101269928D01*
X175313036Y-101269928D01*
X175438840Y-101254704D01*
X175597443Y-101194773D01*
X175627901Y-101173840D01*
X175730912Y-101103042D01*
X175730913Y-101103041D01*
X175737171Y-101098740D01*
X175788084Y-101041597D01*
X175844908Y-100977820D01*
X175844910Y-100977816D01*
X175849960Y-100972149D01*
X175886636Y-100902881D01*
X175922369Y-100835392D01*
X175971922Y-100784549D01*
X176041097Y-100768567D01*
X176107930Y-100792521D01*
X176151590Y-100849814D01*
X176169175Y-100896351D01*
X176265208Y-101036079D01*
X176270878Y-101041131D01*
X176270879Y-101041132D01*
X176386128Y-101143816D01*
X176386132Y-101143818D01*
X176391799Y-101148868D01*
X176541639Y-101228204D01*
X176706079Y-101269509D01*
X176713677Y-101269549D01*
X176713679Y-101269549D01*
X176790852Y-101269953D01*
X176875625Y-101270397D01*
X176972049Y-101247247D01*
X177042954Y-101250794D01*
X177100689Y-101292114D01*
X177126919Y-101358087D01*
X177113317Y-101427769D01*
X177100615Y-101447512D01*
X177079936Y-101473885D01*
X177010165Y-101628412D01*
X176979268Y-101795120D01*
X176989027Y-101964387D01*
X177038881Y-102126439D01*
X177125951Y-102271923D01*
X177131288Y-102277316D01*
X177131291Y-102277320D01*
X177175572Y-102322067D01*
X177245210Y-102392438D01*
X177389774Y-102481026D01*
X177468777Y-102506239D01*
X177544056Y-102530264D01*
X177544058Y-102530264D01*
X177551295Y-102532574D01*
X177558875Y-102533091D01*
X177558876Y-102533091D01*
X177712874Y-102543590D01*
X177712878Y-102543590D01*
X177720450Y-102544106D01*
X177727927Y-102542801D01*
X177727928Y-102542801D01*
X177879997Y-102516260D01*
X177887474Y-102514955D01*
X177894423Y-102511904D01*
X177894425Y-102511904D01*
X177991232Y-102469409D01*
X178042722Y-102446807D01*
X178050358Y-102440948D01*
X178142927Y-102369916D01*
X178146198Y-102367406D01*
X180698587Y-99815017D01*
X180704853Y-99809163D01*
X180742191Y-99776591D01*
X180747916Y-99771597D01*
X180752281Y-99765386D01*
X180752284Y-99765383D01*
X180784225Y-99719935D01*
X180788158Y-99714640D01*
X180822416Y-99670949D01*
X180822417Y-99670947D01*
X180827103Y-99664971D01*
X180830228Y-99658049D01*
X180832001Y-99655122D01*
X180839426Y-99642103D01*
X180841037Y-99639099D01*
X180845407Y-99632881D01*
X180868340Y-99574061D01*
X180870895Y-99567983D01*
X180893748Y-99517371D01*
X180893749Y-99517369D01*
X180896875Y-99510445D01*
X180898260Y-99502973D01*
X180899287Y-99499695D01*
X180903383Y-99485314D01*
X180904235Y-99481998D01*
X180906996Y-99474915D01*
X180915237Y-99412317D01*
X180916268Y-99405805D01*
X180926388Y-99351203D01*
X180927772Y-99343736D01*
X180924229Y-99282289D01*
X180924020Y-99275037D01*
X180924020Y-96589912D01*
X180913866Y-96506004D01*
X180925539Y-96435974D01*
X180949858Y-96401772D01*
X182800797Y-94550833D01*
X182863109Y-94516807D01*
X182889892Y-94513928D01*
X192664579Y-94513928D01*
X192732700Y-94533930D01*
X192776645Y-94582334D01*
X192852412Y-94729761D01*
X192852417Y-94729769D01*
X192855232Y-94735246D01*
X192983197Y-94896698D01*
X193140084Y-95030219D01*
X193319918Y-95130725D01*
X193414758Y-95161541D01*
X193509991Y-95192484D01*
X193509995Y-95192485D01*
X193515849Y-95194387D01*
X193720414Y-95218779D01*
X193726549Y-95218307D01*
X193726551Y-95218307D01*
X193782559Y-95213997D01*
X193925820Y-95202974D01*
X193931750Y-95201318D01*
X193931752Y-95201318D01*
X194118317Y-95149228D01*
X194118316Y-95149228D01*
X194124245Y-95147573D01*
X194129734Y-95144800D01*
X194129740Y-95144798D01*
X194302636Y-95057461D01*
X194308130Y-95054686D01*
X194470471Y-94927852D01*
X194605084Y-94771900D01*
X194625907Y-94735246D01*
X194703796Y-94598135D01*
X194706843Y-94592772D01*
X194771871Y-94397291D01*
X194797691Y-94192902D01*
X194798103Y-94163428D01*
X194778000Y-93958398D01*
X194718455Y-93761177D01*
X194621738Y-93579277D01*
X194541526Y-93480928D01*
X194495426Y-93424403D01*
X194495423Y-93424400D01*
X194491531Y-93419628D01*
X194484693Y-93413971D01*
X194337545Y-93292239D01*
X194337541Y-93292237D01*
X194332795Y-93288310D01*
X194151575Y-93190325D01*
X193954774Y-93129405D01*
X193948649Y-93128761D01*
X193948648Y-93128761D01*
X193756018Y-93108515D01*
X193756016Y-93108515D01*
X193749889Y-93107871D01*
X193663049Y-93115774D01*
X193550862Y-93125983D01*
X193550859Y-93125984D01*
X193544723Y-93126542D01*
X193347092Y-93184708D01*
X193164522Y-93280154D01*
X193159721Y-93284014D01*
X193159718Y-93284016D01*
X193008774Y-93405378D01*
X193003967Y-93409243D01*
X192871544Y-93567058D01*
X192868576Y-93572456D01*
X192868573Y-93572461D01*
X192772296Y-93747590D01*
X192769860Y-93746251D01*
X192731812Y-93791729D01*
X192661864Y-93812928D01*
X182743344Y-93812928D01*
X182724245Y-93810895D01*
X182719437Y-93810668D01*
X182709259Y-93808477D01*
X182679029Y-93812055D01*
X182673774Y-93812365D01*
X182673785Y-93812500D01*
X182668607Y-93812928D01*
X182663405Y-93812928D01*
X182646035Y-93815819D01*
X182640165Y-93816655D01*
X182593381Y-93822192D01*
X182585761Y-93825851D01*
X182577417Y-93827240D01*
X182568252Y-93832185D01*
X182568250Y-93832186D01*
X182535961Y-93849609D01*
X182530682Y-93852300D01*
X182488194Y-93872702D01*
X182484246Y-93876020D01*
X182482307Y-93877959D01*
X182480716Y-93879418D01*
X182480226Y-93879682D01*
X182480207Y-93879662D01*
X182480118Y-93879741D01*
X182474726Y-93882650D01*
X182467656Y-93890298D01*
X182467655Y-93890299D01*
X182441065Y-93919064D01*
X182437636Y-93922630D01*
X180455151Y-95905115D01*
X180392839Y-95939141D01*
X180335361Y-95938224D01*
X180319334Y-95934198D01*
X180319326Y-95934197D01*
X180311961Y-95932347D01*
X180304364Y-95932307D01*
X180304362Y-95932307D01*
X180226165Y-95931898D01*
X180142415Y-95931459D01*
X180135028Y-95933233D01*
X180135024Y-95933233D01*
X180041750Y-95955627D01*
X179977552Y-95971040D01*
X179970808Y-95974521D01*
X179970805Y-95974522D01*
X179909380Y-96006226D01*
X179826889Y-96048803D01*
X179821167Y-96053795D01*
X179821165Y-96053796D01*
X179782457Y-96087563D01*
X179699124Y-96160259D01*
X179694757Y-96166473D01*
X179611987Y-96284243D01*
X179601633Y-96298975D01*
X179540044Y-96456941D01*
X179523020Y-96586254D01*
X179523020Y-98957081D01*
X179503018Y-99025202D01*
X179486115Y-99046176D01*
X177693556Y-100838735D01*
X177631244Y-100872761D01*
X177560429Y-100867696D01*
X177503593Y-100825149D01*
X177478782Y-100758629D01*
X177479539Y-100733194D01*
X177494482Y-100619689D01*
X177494482Y-100619688D01*
X177495020Y-100615602D01*
X177495020Y-100090069D01*
X177495312Y-100081499D01*
X177498682Y-100032074D01*
X177498682Y-100032070D01*
X177499198Y-100024498D01*
X177495008Y-100000490D01*
X177488342Y-99962296D01*
X177487379Y-99955770D01*
X177480709Y-99900654D01*
X177479796Y-99893108D01*
X177477111Y-99886001D01*
X177476302Y-99882708D01*
X177472343Y-99868237D01*
X177471354Y-99864961D01*
X177470047Y-99857474D01*
X177464121Y-99843974D01*
X177444673Y-99799668D01*
X177442181Y-99793562D01*
X177422550Y-99741610D01*
X177422549Y-99741608D01*
X177419865Y-99734505D01*
X177415566Y-99728250D01*
X177413985Y-99725225D01*
X177406695Y-99712129D01*
X177404954Y-99709185D01*
X177401899Y-99702226D01*
X177390491Y-99687358D01*
X177363478Y-99652155D01*
X177359601Y-99646819D01*
X177328139Y-99601042D01*
X177328134Y-99601036D01*
X177323832Y-99594777D01*
X177277862Y-99553819D01*
X177272587Y-99548839D01*
X176294103Y-98570354D01*
X176288249Y-98564088D01*
X176255685Y-98526759D01*
X176250689Y-98521032D01*
X176199047Y-98484738D01*
X176193762Y-98480812D01*
X176150044Y-98446533D01*
X176150040Y-98446531D01*
X176144063Y-98441844D01*
X176137140Y-98438718D01*
X176134192Y-98436933D01*
X176121232Y-98429541D01*
X176118186Y-98427908D01*
X176111973Y-98423541D01*
X176053153Y-98400608D01*
X176047074Y-98398052D01*
X175989536Y-98372073D01*
X175982065Y-98370688D01*
X175978797Y-98369664D01*
X175964356Y-98365551D01*
X175961083Y-98364711D01*
X175954007Y-98361952D01*
X175909337Y-98356072D01*
X175891414Y-98353712D01*
X175884897Y-98352680D01*
X175830295Y-98342560D01*
X175822828Y-98341176D01*
X175815248Y-98341613D01*
X175815247Y-98341613D01*
X175761376Y-98344719D01*
X175754124Y-98344928D01*
X174736319Y-98344928D01*
X174727226Y-98342258D01*
X174707167Y-98344928D01*
X171997530Y-98344928D01*
X171929409Y-98324926D01*
X171908433Y-98308022D01*
X171905267Y-98304856D01*
X171899670Y-98297278D01*
X171892094Y-98291682D01*
X171798277Y-98222387D01*
X171798274Y-98222386D01*
X171790704Y-98216794D01*
X171662889Y-98171909D01*
X171655243Y-98171186D01*
X171655242Y-98171186D01*
X171649272Y-98170622D01*
X171631354Y-98168928D01*
X170273686Y-98168928D01*
X170255768Y-98170622D01*
X170249798Y-98171186D01*
X170249797Y-98171186D01*
X170242151Y-98171909D01*
X170114336Y-98216794D01*
X170106766Y-98222386D01*
X170106763Y-98222387D01*
X170022314Y-98284763D01*
X170005370Y-98297278D01*
X169999778Y-98304849D01*
X169930479Y-98398671D01*
X169930478Y-98398674D01*
X169924886Y-98406244D01*
X169880001Y-98534059D01*
X169877020Y-98565594D01*
X169877020Y-99473262D01*
X169880001Y-99504797D01*
X169924886Y-99632612D01*
X169939321Y-99652155D01*
X169951075Y-99668069D01*
X169975457Y-99734748D01*
X169959920Y-99804023D01*
X169909396Y-99853902D01*
X169849723Y-99868928D01*
X164631157Y-99868928D01*
X164622586Y-99868636D01*
X164565590Y-99864750D01*
X164558114Y-99866055D01*
X164558110Y-99866055D01*
X164503388Y-99875606D01*
X164496862Y-99876569D01*
X164456424Y-99881463D01*
X164434200Y-99884152D01*
X164427093Y-99886837D01*
X164423800Y-99887646D01*
X164409329Y-99891605D01*
X164406053Y-99892594D01*
X164398566Y-99893901D01*
X164391608Y-99896956D01*
X164391606Y-99896956D01*
X164340762Y-99919274D01*
X164334657Y-99921766D01*
X164323646Y-99925927D01*
X164275597Y-99944083D01*
X164269344Y-99948381D01*
X164266313Y-99949965D01*
X164253236Y-99957245D01*
X164250277Y-99958995D01*
X164243317Y-99962050D01*
X164237290Y-99966675D01*
X164237286Y-99966677D01*
X164193220Y-100000490D01*
X164187901Y-100004355D01*
X164135869Y-100040116D01*
X164130812Y-100045792D01*
X164094920Y-100086076D01*
X164089939Y-100091352D01*
X161875268Y-102306023D01*
X161812956Y-102340049D01*
X161786173Y-102342928D01*
X161029380Y-102342928D01*
X160961259Y-102322926D01*
X160914766Y-102269270D01*
X160907791Y-102247923D01*
X160907305Y-102248049D01*
X160807888Y-101863629D01*
X160807885Y-101863621D01*
X160807091Y-101860549D01*
X160805785Y-101857018D01*
X160669340Y-101488157D01*
X160669337Y-101488151D01*
X160668231Y-101485160D01*
X160492146Y-101125726D01*
X160400082Y-100977820D01*
X160282326Y-100788636D01*
X160282318Y-100788625D01*
X160280639Y-100785927D01*
X160035876Y-100469240D01*
X159808884Y-100230040D01*
X159762562Y-100181227D01*
X159762559Y-100181225D01*
X159760363Y-100178910D01*
X159749314Y-100169406D01*
X159459336Y-99919986D01*
X159459333Y-99919984D01*
X159456921Y-99917909D01*
X159128656Y-99688908D01*
X158797874Y-99504797D01*
X158781715Y-99495803D01*
X158781713Y-99495802D01*
X158778930Y-99494253D01*
X158776010Y-99492995D01*
X158776005Y-99492993D01*
X158414258Y-99337200D01*
X158414248Y-99337196D01*
X158411324Y-99335937D01*
X158029600Y-99215580D01*
X157833468Y-99174964D01*
X157770820Y-99141564D01*
X157736173Y-99079595D01*
X157733020Y-99051582D01*
X157733020Y-97023690D01*
X173687040Y-97023690D01*
X173689750Y-97055961D01*
X173700323Y-97181866D01*
X173704279Y-97228981D01*
X173705978Y-97234906D01*
X173753514Y-97400683D01*
X173761064Y-97427014D01*
X173763879Y-97432491D01*
X173763880Y-97432494D01*
X173832609Y-97566226D01*
X173855232Y-97610246D01*
X173983197Y-97771698D01*
X174140084Y-97905219D01*
X174319918Y-98005725D01*
X174403800Y-98032980D01*
X174509991Y-98067484D01*
X174509995Y-98067485D01*
X174515849Y-98069387D01*
X174591823Y-98078446D01*
X174720414Y-98093779D01*
X174720333Y-98094457D01*
X174726652Y-98093299D01*
X174925820Y-98077974D01*
X174931750Y-98076318D01*
X174931752Y-98076318D01*
X175118317Y-98024228D01*
X175118316Y-98024228D01*
X175124245Y-98022573D01*
X175129734Y-98019800D01*
X175129740Y-98019798D01*
X175302636Y-97932461D01*
X175308130Y-97929686D01*
X175470471Y-97802852D01*
X175508514Y-97758779D01*
X175601060Y-97651562D01*
X175601060Y-97651561D01*
X175605084Y-97646900D01*
X175611383Y-97635813D01*
X175674825Y-97524134D01*
X175706843Y-97467772D01*
X175771871Y-97272291D01*
X175797691Y-97067902D01*
X175798103Y-97038428D01*
X175778000Y-96833398D01*
X175721002Y-96644613D01*
X175720461Y-96573620D01*
X175752529Y-96519101D01*
X176016925Y-96254705D01*
X176079237Y-96220679D01*
X176150052Y-96225744D01*
X176206888Y-96268291D01*
X176231699Y-96334811D01*
X176232020Y-96343800D01*
X176232020Y-97908176D01*
X176233227Y-97914244D01*
X176236851Y-97932461D01*
X176243653Y-97966659D01*
X176287968Y-98032980D01*
X176354289Y-98077295D01*
X176366458Y-98079716D01*
X176366459Y-98079716D01*
X176406704Y-98087721D01*
X176412772Y-98088928D01*
X178152268Y-98088928D01*
X178158336Y-98087721D01*
X178198581Y-98079716D01*
X178198582Y-98079716D01*
X178210751Y-98077295D01*
X178277072Y-98032980D01*
X178321387Y-97966659D01*
X178328190Y-97932461D01*
X178331813Y-97914244D01*
X178333020Y-97908176D01*
X178333020Y-96530800D01*
X178353022Y-96462679D01*
X178369925Y-96441705D01*
X182800797Y-92010833D01*
X182863109Y-91976807D01*
X182889892Y-91973928D01*
X192664579Y-91973928D01*
X192732700Y-91993930D01*
X192776645Y-92042334D01*
X192852412Y-92189761D01*
X192852417Y-92189769D01*
X192855232Y-92195246D01*
X192983197Y-92356698D01*
X192987890Y-92360692D01*
X192987891Y-92360693D01*
X193111076Y-92465531D01*
X193140084Y-92490219D01*
X193319918Y-92590725D01*
X193395515Y-92615288D01*
X193509991Y-92652484D01*
X193509995Y-92652485D01*
X193515849Y-92654387D01*
X193720414Y-92678779D01*
X193726549Y-92678307D01*
X193726551Y-92678307D01*
X193782559Y-92673997D01*
X193925820Y-92662974D01*
X193931750Y-92661318D01*
X193931752Y-92661318D01*
X194118317Y-92609228D01*
X194118316Y-92609228D01*
X194124245Y-92607573D01*
X194129734Y-92604800D01*
X194129740Y-92604798D01*
X194267790Y-92535063D01*
X194308130Y-92514686D01*
X194335803Y-92493066D01*
X194458447Y-92397246D01*
X194524441Y-92371069D01*
X194594112Y-92384727D01*
X194645339Y-92433883D01*
X194662020Y-92496536D01*
X194662020Y-92842604D01*
X194659987Y-92861703D01*
X194659760Y-92866511D01*
X194657569Y-92876689D01*
X194658793Y-92887028D01*
X194661147Y-92906919D01*
X194661457Y-92912174D01*
X194661592Y-92912163D01*
X194662020Y-92917342D01*
X194662020Y-92922543D01*
X194662874Y-92927671D01*
X194662874Y-92927677D01*
X194664909Y-92939901D01*
X194665746Y-92945777D01*
X194671284Y-92992566D01*
X194674943Y-93000186D01*
X194676332Y-93008531D01*
X194681277Y-93017695D01*
X194698712Y-93050008D01*
X194701404Y-93055293D01*
X194721794Y-93097754D01*
X194725112Y-93101702D01*
X194727045Y-93103635D01*
X194728510Y-93105232D01*
X194728774Y-93105722D01*
X194728754Y-93105741D01*
X194728833Y-93105830D01*
X194731742Y-93111222D01*
X194739390Y-93118292D01*
X194739391Y-93118293D01*
X194768156Y-93144883D01*
X194771722Y-93148312D01*
X195272262Y-93648852D01*
X195306288Y-93711164D01*
X195303269Y-93776045D01*
X195268022Y-93887160D01*
X195250004Y-93943960D01*
X195249318Y-93950077D01*
X195249317Y-93950081D01*
X195245677Y-93982533D01*
X195227040Y-94148690D01*
X195227556Y-94154834D01*
X195241463Y-94320442D01*
X195244279Y-94353981D01*
X195245978Y-94359906D01*
X195295879Y-94533930D01*
X195301064Y-94552014D01*
X195303879Y-94557491D01*
X195303880Y-94557494D01*
X195324767Y-94598135D01*
X195395232Y-94735246D01*
X195523197Y-94896698D01*
X195680084Y-95030219D01*
X195859918Y-95130725D01*
X195954758Y-95161541D01*
X196049991Y-95192484D01*
X196049995Y-95192485D01*
X196055849Y-95194387D01*
X196260414Y-95218779D01*
X196266549Y-95218307D01*
X196266551Y-95218307D01*
X196322559Y-95213997D01*
X196465820Y-95202974D01*
X196471750Y-95201318D01*
X196471752Y-95201318D01*
X196658317Y-95149228D01*
X196658316Y-95149228D01*
X196664245Y-95147573D01*
X196669734Y-95144800D01*
X196669740Y-95144798D01*
X196842636Y-95057461D01*
X196848130Y-95054686D01*
X197010471Y-94927852D01*
X197145084Y-94771900D01*
X197165907Y-94735246D01*
X197243796Y-94598135D01*
X197246843Y-94592772D01*
X197311871Y-94397291D01*
X197337691Y-94192902D01*
X197338103Y-94163428D01*
X197318000Y-93958398D01*
X197258455Y-93761177D01*
X197161738Y-93579277D01*
X197081526Y-93480928D01*
X197035426Y-93424403D01*
X197035423Y-93424400D01*
X197031531Y-93419628D01*
X197024693Y-93413971D01*
X196877545Y-93292239D01*
X196877541Y-93292237D01*
X196872795Y-93288310D01*
X196691575Y-93190325D01*
X196494774Y-93129405D01*
X196488649Y-93128761D01*
X196488648Y-93128761D01*
X196296018Y-93108515D01*
X196296016Y-93108515D01*
X196289889Y-93107871D01*
X196203049Y-93115774D01*
X196090862Y-93125983D01*
X196090859Y-93125984D01*
X196084723Y-93126542D01*
X196068805Y-93131227D01*
X195891172Y-93183507D01*
X195820175Y-93183552D01*
X195766502Y-93151728D01*
X195399925Y-92785151D01*
X195365899Y-92722839D01*
X195363020Y-92696056D01*
X195363020Y-92493066D01*
X195383022Y-92424945D01*
X195436678Y-92378452D01*
X195506952Y-92368348D01*
X195570683Y-92397112D01*
X195601666Y-92423480D01*
X195680084Y-92490219D01*
X195859918Y-92590725D01*
X195935515Y-92615288D01*
X196049991Y-92652484D01*
X196049995Y-92652485D01*
X196055849Y-92654387D01*
X196260414Y-92678779D01*
X196266549Y-92678307D01*
X196266551Y-92678307D01*
X196322559Y-92673997D01*
X196465820Y-92662974D01*
X196471750Y-92661318D01*
X196471752Y-92661318D01*
X196658317Y-92609228D01*
X196658316Y-92609228D01*
X196664245Y-92607573D01*
X196669734Y-92604800D01*
X196669740Y-92604798D01*
X196807790Y-92535063D01*
X196848130Y-92514686D01*
X196875803Y-92493066D01*
X196998447Y-92397246D01*
X197010471Y-92387852D01*
X197027307Y-92368348D01*
X197141060Y-92236562D01*
X197141060Y-92236561D01*
X197145084Y-92231900D01*
X197165907Y-92195246D01*
X197183576Y-92164142D01*
X197246843Y-92052772D01*
X197311871Y-91857291D01*
X197337691Y-91652902D01*
X197338103Y-91623428D01*
X197318000Y-91418398D01*
X197258455Y-91221177D01*
X197161738Y-91039277D01*
X197088379Y-90949330D01*
X197035426Y-90884403D01*
X197035423Y-90884400D01*
X197031531Y-90879628D01*
X197014306Y-90865378D01*
X196877545Y-90752239D01*
X196877541Y-90752237D01*
X196872795Y-90748310D01*
X196691575Y-90650325D01*
X196494774Y-90589405D01*
X196488649Y-90588761D01*
X196488648Y-90588761D01*
X196296018Y-90568515D01*
X196296016Y-90568515D01*
X196289889Y-90567871D01*
X196203049Y-90575774D01*
X196090862Y-90585983D01*
X196090859Y-90585984D01*
X196084723Y-90586542D01*
X195887092Y-90644708D01*
X195704522Y-90740154D01*
X195699721Y-90744014D01*
X195699718Y-90744016D01*
X195658539Y-90777125D01*
X195567971Y-90849943D01*
X195502350Y-90877039D01*
X195432495Y-90864356D01*
X195380587Y-90815920D01*
X195363020Y-90751746D01*
X195363020Y-89953066D01*
X195383022Y-89884945D01*
X195436678Y-89838452D01*
X195506952Y-89828348D01*
X195570683Y-89857112D01*
X195601666Y-89883480D01*
X195680084Y-89950219D01*
X195859918Y-90050725D01*
X195937140Y-90075816D01*
X196049991Y-90112484D01*
X196049995Y-90112485D01*
X196055849Y-90114387D01*
X196260414Y-90138779D01*
X196266549Y-90138307D01*
X196266551Y-90138307D01*
X196322559Y-90133997D01*
X196465820Y-90122974D01*
X196471750Y-90121318D01*
X196471752Y-90121318D01*
X196595624Y-90086732D01*
X196664245Y-90067573D01*
X196669734Y-90064800D01*
X196669740Y-90064798D01*
X196832055Y-89982806D01*
X196848130Y-89974686D01*
X196857318Y-89967508D01*
X196998447Y-89857246D01*
X197010471Y-89847852D01*
X197027307Y-89828348D01*
X197141060Y-89696562D01*
X197141060Y-89696561D01*
X197145084Y-89691900D01*
X197165907Y-89655246D01*
X197183576Y-89624142D01*
X197246843Y-89512772D01*
X197311871Y-89317291D01*
X197337691Y-89112902D01*
X197337947Y-89094616D01*
X197338054Y-89086950D01*
X197338054Y-89086946D01*
X197338103Y-89083428D01*
X197318000Y-88878398D01*
X197258455Y-88681177D01*
X197161738Y-88499277D01*
X197070922Y-88387926D01*
X197035426Y-88344403D01*
X197035423Y-88344400D01*
X197031531Y-88339628D01*
X197014306Y-88325378D01*
X196877545Y-88212239D01*
X196877541Y-88212237D01*
X196872795Y-88208310D01*
X196691575Y-88110325D01*
X196494774Y-88049405D01*
X196488649Y-88048761D01*
X196488648Y-88048761D01*
X196296018Y-88028515D01*
X196296016Y-88028515D01*
X196289889Y-88027871D01*
X196203049Y-88035774D01*
X196090862Y-88045983D01*
X196090859Y-88045984D01*
X196084723Y-88046542D01*
X195887092Y-88104708D01*
X195881627Y-88107565D01*
X195879833Y-88108503D01*
X195704522Y-88200154D01*
X195699721Y-88204014D01*
X195699718Y-88204016D01*
X195629368Y-88260579D01*
X195567971Y-88309943D01*
X195502350Y-88337039D01*
X195432495Y-88324356D01*
X195380587Y-88275920D01*
X195363020Y-88211746D01*
X195363020Y-87413066D01*
X195383022Y-87344945D01*
X195436678Y-87298452D01*
X195506952Y-87288348D01*
X195570683Y-87317112D01*
X195583606Y-87328110D01*
X195680084Y-87410219D01*
X195859918Y-87510725D01*
X195951254Y-87540402D01*
X196049991Y-87572484D01*
X196049995Y-87572485D01*
X196055849Y-87574387D01*
X196260414Y-87598779D01*
X196266549Y-87598307D01*
X196266551Y-87598307D01*
X196322559Y-87593997D01*
X196465820Y-87582974D01*
X196471750Y-87581318D01*
X196471752Y-87581318D01*
X196658317Y-87529228D01*
X196658316Y-87529228D01*
X196664245Y-87527573D01*
X196669734Y-87524800D01*
X196669740Y-87524798D01*
X196842636Y-87437461D01*
X196848130Y-87434686D01*
X196875803Y-87413066D01*
X196998447Y-87317246D01*
X197010471Y-87307852D01*
X197027307Y-87288348D01*
X197141060Y-87156562D01*
X197141060Y-87156561D01*
X197145084Y-87151900D01*
X197148564Y-87145775D01*
X197183576Y-87084142D01*
X197246843Y-86972772D01*
X197311871Y-86777291D01*
X197337691Y-86572902D01*
X197338103Y-86543428D01*
X197318000Y-86338398D01*
X197258455Y-86141177D01*
X197161738Y-85959277D01*
X197037215Y-85806597D01*
X197035426Y-85804403D01*
X197035423Y-85804400D01*
X197031531Y-85799628D01*
X197014306Y-85785378D01*
X196877545Y-85672239D01*
X196877541Y-85672237D01*
X196872795Y-85668310D01*
X196691575Y-85570325D01*
X196494774Y-85509405D01*
X196488649Y-85508761D01*
X196488648Y-85508761D01*
X196296018Y-85488515D01*
X196296016Y-85488515D01*
X196289889Y-85487871D01*
X196203049Y-85495774D01*
X196090862Y-85505983D01*
X196090859Y-85505984D01*
X196084723Y-85506542D01*
X195887092Y-85564708D01*
X195704522Y-85660154D01*
X195699721Y-85664014D01*
X195699718Y-85664016D01*
X195653125Y-85701478D01*
X195567971Y-85769943D01*
X195502350Y-85797039D01*
X195432495Y-85784356D01*
X195380587Y-85735920D01*
X195363020Y-85671746D01*
X195363020Y-85470800D01*
X195383022Y-85402679D01*
X195399925Y-85381705D01*
X195768327Y-85013303D01*
X195830639Y-84979277D01*
X195896358Y-84982565D01*
X196049991Y-85032484D01*
X196049995Y-85032485D01*
X196055849Y-85034387D01*
X196260414Y-85058779D01*
X196266549Y-85058307D01*
X196266551Y-85058307D01*
X196322559Y-85053997D01*
X196465820Y-85042974D01*
X196471750Y-85041318D01*
X196471752Y-85041318D01*
X196622849Y-84999131D01*
X196664245Y-84987573D01*
X196669734Y-84984800D01*
X196669740Y-84984798D01*
X196842636Y-84897461D01*
X196848130Y-84894686D01*
X197010471Y-84767852D01*
X197145084Y-84611900D01*
X197165907Y-84575246D01*
X197243796Y-84438135D01*
X197246843Y-84432772D01*
X197311871Y-84237291D01*
X197337691Y-84032902D01*
X197338103Y-84003428D01*
X197318000Y-83798398D01*
X197258455Y-83601177D01*
X197161738Y-83419277D01*
X197088379Y-83329330D01*
X197035426Y-83264403D01*
X197035423Y-83264400D01*
X197031531Y-83259628D01*
X197014306Y-83245378D01*
X196877545Y-83132239D01*
X196877541Y-83132237D01*
X196872795Y-83128310D01*
X196691575Y-83030325D01*
X196494774Y-82969405D01*
X196488649Y-82968761D01*
X196488648Y-82968761D01*
X196296018Y-82948515D01*
X196296016Y-82948515D01*
X196289889Y-82947871D01*
X196203049Y-82955774D01*
X196090862Y-82965983D01*
X196090859Y-82965984D01*
X196084723Y-82966542D01*
X195887092Y-83024708D01*
X195704522Y-83120154D01*
X195699721Y-83124014D01*
X195699718Y-83124016D01*
X195689491Y-83132239D01*
X195543967Y-83249243D01*
X195411544Y-83407058D01*
X195408576Y-83412456D01*
X195408573Y-83412461D01*
X195401835Y-83424718D01*
X195312296Y-83587590D01*
X195250004Y-83783960D01*
X195249318Y-83790077D01*
X195249317Y-83790081D01*
X195227727Y-83982565D01*
X195227040Y-83988690D01*
X195244279Y-84193981D01*
X195245978Y-84199906D01*
X195301064Y-84392014D01*
X195299383Y-84392496D01*
X195305105Y-84454916D01*
X195270568Y-84519698D01*
X194800621Y-84989645D01*
X194785667Y-85001723D01*
X194782115Y-85004955D01*
X194773368Y-85010603D01*
X194766922Y-85018780D01*
X194754518Y-85034514D01*
X194751021Y-85038449D01*
X194751125Y-85038537D01*
X194747770Y-85042496D01*
X194744092Y-85046174D01*
X194741073Y-85050399D01*
X194741066Y-85050407D01*
X194733848Y-85060508D01*
X194730284Y-85065255D01*
X194701128Y-85102239D01*
X194698327Y-85110215D01*
X194693409Y-85117097D01*
X194679901Y-85162264D01*
X194678079Y-85167870D01*
X194665092Y-85204851D01*
X194665091Y-85204857D01*
X194662465Y-85212334D01*
X194662020Y-85217472D01*
X194662020Y-85220191D01*
X194661925Y-85222373D01*
X194661765Y-85222908D01*
X194661738Y-85222907D01*
X194661731Y-85223025D01*
X194659976Y-85228892D01*
X194660385Y-85239300D01*
X194661923Y-85278447D01*
X194662020Y-85283394D01*
X194662020Y-85672905D01*
X194642018Y-85741026D01*
X194588362Y-85787519D01*
X194518088Y-85797623D01*
X194455705Y-85769990D01*
X194337545Y-85672239D01*
X194337541Y-85672237D01*
X194332795Y-85668310D01*
X194151575Y-85570325D01*
X193954774Y-85509405D01*
X193948649Y-85508761D01*
X193948648Y-85508761D01*
X193756018Y-85488515D01*
X193756016Y-85488515D01*
X193749889Y-85487871D01*
X193663049Y-85495774D01*
X193550862Y-85505983D01*
X193550859Y-85505984D01*
X193544723Y-85506542D01*
X193347092Y-85564708D01*
X193164522Y-85660154D01*
X193159721Y-85664014D01*
X193159718Y-85664016D01*
X193027971Y-85769943D01*
X193003967Y-85789243D01*
X192871544Y-85947058D01*
X192868576Y-85952456D01*
X192868573Y-85952461D01*
X192772296Y-86127590D01*
X192769860Y-86126251D01*
X192731812Y-86171729D01*
X192661864Y-86192928D01*
X182108346Y-86192928D01*
X182089247Y-86190895D01*
X182084443Y-86190668D01*
X182074260Y-86188476D01*
X182063918Y-86189700D01*
X182044021Y-86192055D01*
X182038773Y-86192364D01*
X182038784Y-86192500D01*
X182033605Y-86192928D01*
X182028405Y-86192928D01*
X182023279Y-86193781D01*
X182023270Y-86193782D01*
X182011057Y-86195815D01*
X182005181Y-86196652D01*
X181968723Y-86200967D01*
X181968722Y-86200967D01*
X181958382Y-86202191D01*
X181950759Y-86205852D01*
X181942417Y-86207240D01*
X181900936Y-86229622D01*
X181895689Y-86232295D01*
X181853194Y-86252701D01*
X181849246Y-86256020D01*
X181847317Y-86257949D01*
X181845716Y-86259418D01*
X181845239Y-86259675D01*
X181845218Y-86259652D01*
X181845117Y-86259741D01*
X181839726Y-86262650D01*
X181832656Y-86270298D01*
X181832655Y-86270299D01*
X181806065Y-86299064D01*
X181802636Y-86302630D01*
X175162083Y-92943183D01*
X175099771Y-92977209D01*
X175072220Y-92980086D01*
X175064330Y-92980038D01*
X175051396Y-92979959D01*
X174913549Y-93019356D01*
X174792300Y-93095858D01*
X174786358Y-93102586D01*
X174786357Y-93102587D01*
X174761063Y-93131227D01*
X174697397Y-93203316D01*
X174636467Y-93333091D01*
X174635086Y-93341963D01*
X174624218Y-93411766D01*
X174614411Y-93474751D01*
X174615575Y-93483653D01*
X174615575Y-93483656D01*
X174623705Y-93545829D01*
X174633000Y-93616907D01*
X174690740Y-93748131D01*
X174696517Y-93755004D01*
X174696518Y-93755005D01*
X174753949Y-93823328D01*
X174782990Y-93857876D01*
X174902333Y-93937318D01*
X175039177Y-93980070D01*
X175048149Y-93980234D01*
X175048152Y-93980235D01*
X175113483Y-93981432D01*
X175182519Y-93982698D01*
X175191553Y-93980235D01*
X175312178Y-93947349D01*
X175312180Y-93947348D01*
X175320837Y-93944988D01*
X175443011Y-93869973D01*
X175461444Y-93849609D01*
X175533198Y-93770335D01*
X175539220Y-93763682D01*
X175601730Y-93634661D01*
X175623319Y-93506342D01*
X175658478Y-93438152D01*
X182165797Y-86930833D01*
X182228109Y-86896807D01*
X182254892Y-86893928D01*
X192664579Y-86893928D01*
X192732700Y-86913930D01*
X192776645Y-86962334D01*
X192852412Y-87109761D01*
X192852417Y-87109769D01*
X192855232Y-87115246D01*
X192983197Y-87276698D01*
X193140084Y-87410219D01*
X193319918Y-87510725D01*
X193411254Y-87540402D01*
X193509991Y-87572484D01*
X193509995Y-87572485D01*
X193515849Y-87574387D01*
X193720414Y-87598779D01*
X193726549Y-87598307D01*
X193726551Y-87598307D01*
X193782559Y-87593997D01*
X193925820Y-87582974D01*
X193931750Y-87581318D01*
X193931752Y-87581318D01*
X194118317Y-87529228D01*
X194118316Y-87529228D01*
X194124245Y-87527573D01*
X194129734Y-87524800D01*
X194129740Y-87524798D01*
X194302636Y-87437461D01*
X194308130Y-87434686D01*
X194335803Y-87413066D01*
X194458447Y-87317246D01*
X194524441Y-87291069D01*
X194594112Y-87304727D01*
X194645339Y-87353883D01*
X194662020Y-87416536D01*
X194662020Y-88212905D01*
X194642018Y-88281026D01*
X194588362Y-88327519D01*
X194518088Y-88337623D01*
X194455705Y-88309990D01*
X194337545Y-88212239D01*
X194337541Y-88212237D01*
X194332795Y-88208310D01*
X194151575Y-88110325D01*
X193954774Y-88049405D01*
X193948649Y-88048761D01*
X193948648Y-88048761D01*
X193756018Y-88028515D01*
X193756016Y-88028515D01*
X193749889Y-88027871D01*
X193663049Y-88035774D01*
X193550862Y-88045983D01*
X193550859Y-88045984D01*
X193544723Y-88046542D01*
X193347092Y-88104708D01*
X193341627Y-88107565D01*
X193339833Y-88108503D01*
X193164522Y-88200154D01*
X193159721Y-88204014D01*
X193159718Y-88204016D01*
X193063937Y-88281026D01*
X193003967Y-88329243D01*
X192871544Y-88487058D01*
X192868576Y-88492456D01*
X192868573Y-88492461D01*
X192772296Y-88667590D01*
X192769860Y-88666251D01*
X192731812Y-88711729D01*
X192661864Y-88732928D01*
X182743346Y-88732928D01*
X182724247Y-88730895D01*
X182719443Y-88730668D01*
X182709260Y-88728476D01*
X182698918Y-88729700D01*
X182679021Y-88732055D01*
X182673773Y-88732364D01*
X182673784Y-88732500D01*
X182668605Y-88732928D01*
X182663405Y-88732928D01*
X182658279Y-88733781D01*
X182658270Y-88733782D01*
X182646057Y-88735815D01*
X182640181Y-88736652D01*
X182603723Y-88740967D01*
X182603722Y-88740967D01*
X182593382Y-88742191D01*
X182585759Y-88745852D01*
X182577417Y-88747240D01*
X182535936Y-88769622D01*
X182530689Y-88772295D01*
X182488194Y-88792701D01*
X182484246Y-88796020D01*
X182482317Y-88797949D01*
X182480716Y-88799418D01*
X182480239Y-88799675D01*
X182480218Y-88799652D01*
X182480117Y-88799741D01*
X182474726Y-88802650D01*
X182467656Y-88810298D01*
X182467655Y-88810299D01*
X182441065Y-88839064D01*
X182437636Y-88842630D01*
X175253708Y-96026558D01*
X175191396Y-96060584D01*
X175127357Y-96057828D01*
X174954774Y-96004405D01*
X174948649Y-96003761D01*
X174948648Y-96003761D01*
X174756018Y-95983515D01*
X174756016Y-95983515D01*
X174749889Y-95982871D01*
X174663049Y-95990774D01*
X174550862Y-96000983D01*
X174550859Y-96000984D01*
X174544723Y-96001542D01*
X174347092Y-96059708D01*
X174164522Y-96155154D01*
X174159721Y-96159014D01*
X174159718Y-96159016D01*
X174083025Y-96220679D01*
X174003967Y-96284243D01*
X173871544Y-96442058D01*
X173868576Y-96447456D01*
X173868573Y-96447461D01*
X173799217Y-96573620D01*
X173772296Y-96622590D01*
X173710004Y-96818960D01*
X173709318Y-96825077D01*
X173709317Y-96825081D01*
X173695553Y-96947792D01*
X173687040Y-97023690D01*
X157733020Y-97023690D01*
X157733020Y-87866689D01*
X169327569Y-87866689D01*
X169328793Y-87877028D01*
X169331147Y-87896919D01*
X169331457Y-87902174D01*
X169331592Y-87902163D01*
X169332020Y-87907342D01*
X169332020Y-87912543D01*
X169332874Y-87917671D01*
X169332874Y-87917677D01*
X169334909Y-87929901D01*
X169335746Y-87935777D01*
X169341284Y-87982566D01*
X169344943Y-87990186D01*
X169346332Y-87998531D01*
X169362163Y-88027871D01*
X169368712Y-88040008D01*
X169371404Y-88045293D01*
X169391794Y-88087754D01*
X169395112Y-88091702D01*
X169397045Y-88093635D01*
X169398510Y-88095232D01*
X169398774Y-88095722D01*
X169398754Y-88095741D01*
X169398833Y-88095830D01*
X169401742Y-88101222D01*
X169409390Y-88108292D01*
X169409391Y-88108293D01*
X169438144Y-88134872D01*
X169441710Y-88138300D01*
X170273737Y-88970326D01*
X170285817Y-88985283D01*
X170289047Y-88988832D01*
X170294695Y-88997580D01*
X170302872Y-89004026D01*
X170318610Y-89016433D01*
X170322540Y-89019926D01*
X170322628Y-89019822D01*
X170326592Y-89023181D01*
X170330267Y-89026856D01*
X170334492Y-89029876D01*
X170334494Y-89029877D01*
X170344579Y-89037084D01*
X170349325Y-89040647D01*
X170351794Y-89042593D01*
X170386331Y-89069820D01*
X170394307Y-89072621D01*
X170401189Y-89077539D01*
X170446356Y-89091047D01*
X170451962Y-89092869D01*
X170488943Y-89105856D01*
X170488949Y-89105857D01*
X170496426Y-89108483D01*
X170501564Y-89108928D01*
X170504283Y-89108928D01*
X170506465Y-89109023D01*
X170507000Y-89109183D01*
X170506999Y-89109210D01*
X170507117Y-89109217D01*
X170512984Y-89110972D01*
X170562539Y-89109025D01*
X170567486Y-89108928D01*
X172062748Y-89108928D01*
X172081847Y-89110961D01*
X172086655Y-89111188D01*
X172096833Y-89113379D01*
X172127063Y-89109801D01*
X172132318Y-89109491D01*
X172132307Y-89109356D01*
X172137486Y-89108928D01*
X172142687Y-89108928D01*
X172147815Y-89108074D01*
X172147821Y-89108074D01*
X172160045Y-89106039D01*
X172165921Y-89105202D01*
X172202371Y-89100888D01*
X172202373Y-89100888D01*
X172212710Y-89099664D01*
X172220330Y-89096005D01*
X172228675Y-89094616D01*
X172270156Y-89072234D01*
X172275442Y-89069541D01*
X172317898Y-89049154D01*
X172321846Y-89045836D01*
X172323779Y-89043903D01*
X172325376Y-89042438D01*
X172325866Y-89042174D01*
X172325885Y-89042194D01*
X172325974Y-89042115D01*
X172331366Y-89039206D01*
X172342783Y-89026856D01*
X172365027Y-89002792D01*
X172368456Y-88999226D01*
X172677898Y-88689784D01*
X172740210Y-88655758D01*
X172811025Y-88660823D01*
X172856088Y-88689784D01*
X172904347Y-88738043D01*
X172953926Y-88771171D01*
X173032158Y-88786732D01*
X173044329Y-88784311D01*
X173098219Y-88773592D01*
X173098220Y-88773592D01*
X173110389Y-88771171D01*
X173159969Y-88738043D01*
X174107135Y-87790877D01*
X174140263Y-87741297D01*
X174155824Y-87663066D01*
X174140263Y-87584834D01*
X174107135Y-87535255D01*
X173381849Y-86809969D01*
X173347823Y-86747657D01*
X173345503Y-86732732D01*
X173330414Y-86573111D01*
X173328076Y-86561081D01*
X173273719Y-86378746D01*
X173269085Y-86367390D01*
X173208034Y-86251598D01*
X173198209Y-86241482D01*
X173191166Y-86243992D01*
X171617957Y-87817201D01*
X171611197Y-87829581D01*
X171615917Y-87835886D01*
X171723141Y-87894347D01*
X171734437Y-87899142D01*
X171915987Y-87956037D01*
X171927991Y-87958544D01*
X172104729Y-87977744D01*
X172170291Y-88004986D01*
X172180216Y-88013912D01*
X172182216Y-88015912D01*
X172216242Y-88078224D01*
X172211177Y-88149039D01*
X172182216Y-88194102D01*
X172005295Y-88371023D01*
X171942983Y-88405049D01*
X171916200Y-88407928D01*
X170754892Y-88407928D01*
X170686771Y-88387926D01*
X170665797Y-88371023D01*
X170069925Y-87775151D01*
X170035899Y-87712839D01*
X170033020Y-87686056D01*
X170033020Y-85978860D01*
X170508560Y-85978860D01*
X170513136Y-86147973D01*
X170515011Y-86155043D01*
X170515011Y-86155046D01*
X170543542Y-86262650D01*
X170556494Y-86311497D01*
X170559948Y-86317952D01*
X170592477Y-86378746D01*
X170636307Y-86460662D01*
X170641154Y-86466150D01*
X170641156Y-86466153D01*
X170692301Y-86524063D01*
X170748296Y-86587465D01*
X170784556Y-86613091D01*
X170880473Y-86680879D01*
X170880476Y-86680881D01*
X170886452Y-86685104D01*
X171024769Y-86740847D01*
X171080471Y-86784860D01*
X171103538Y-86852005D01*
X171103022Y-86870445D01*
X171096762Y-86932066D01*
X171096720Y-86944324D01*
X171114626Y-87133745D01*
X171116964Y-87145775D01*
X171171321Y-87328110D01*
X171175955Y-87339466D01*
X171237006Y-87455258D01*
X171246831Y-87465374D01*
X171253874Y-87462864D01*
X172827083Y-85889655D01*
X172833843Y-85877275D01*
X172829123Y-85870970D01*
X172721899Y-85812509D01*
X172710603Y-85807714D01*
X172529053Y-85750819D01*
X172517049Y-85748312D01*
X172336705Y-85728720D01*
X172271143Y-85701478D01*
X172230717Y-85643115D01*
X172228262Y-85572161D01*
X172261218Y-85514362D01*
X173786890Y-83988690D01*
X192687040Y-83988690D01*
X192704279Y-84193981D01*
X192761064Y-84392014D01*
X192763879Y-84397491D01*
X192763880Y-84397494D01*
X192784767Y-84438135D01*
X192855232Y-84575246D01*
X192983197Y-84736698D01*
X193140084Y-84870219D01*
X193319918Y-84970725D01*
X193414758Y-85001541D01*
X193509991Y-85032484D01*
X193509995Y-85032485D01*
X193515849Y-85034387D01*
X193720414Y-85058779D01*
X193726549Y-85058307D01*
X193726551Y-85058307D01*
X193782559Y-85053997D01*
X193925820Y-85042974D01*
X193931750Y-85041318D01*
X193931752Y-85041318D01*
X194082849Y-84999131D01*
X194124245Y-84987573D01*
X194129734Y-84984800D01*
X194129740Y-84984798D01*
X194302636Y-84897461D01*
X194308130Y-84894686D01*
X194470471Y-84767852D01*
X194605084Y-84611900D01*
X194625907Y-84575246D01*
X194703796Y-84438135D01*
X194706843Y-84432772D01*
X194771871Y-84237291D01*
X194797691Y-84032902D01*
X194798103Y-84003428D01*
X194778000Y-83798398D01*
X194718455Y-83601177D01*
X194621738Y-83419277D01*
X194548379Y-83329330D01*
X194495426Y-83264403D01*
X194495423Y-83264400D01*
X194491531Y-83259628D01*
X194474306Y-83245378D01*
X194337545Y-83132239D01*
X194337541Y-83132237D01*
X194332795Y-83128310D01*
X194151575Y-83030325D01*
X193954774Y-82969405D01*
X193948649Y-82968761D01*
X193948648Y-82968761D01*
X193756018Y-82948515D01*
X193756016Y-82948515D01*
X193749889Y-82947871D01*
X193663049Y-82955774D01*
X193550862Y-82965983D01*
X193550859Y-82965984D01*
X193544723Y-82966542D01*
X193347092Y-83024708D01*
X193164522Y-83120154D01*
X193159721Y-83124014D01*
X193159718Y-83124016D01*
X193149491Y-83132239D01*
X193003967Y-83249243D01*
X192871544Y-83407058D01*
X192868576Y-83412456D01*
X192868573Y-83412461D01*
X192861835Y-83424718D01*
X192772296Y-83587590D01*
X192710004Y-83783960D01*
X192709318Y-83790077D01*
X192709317Y-83790081D01*
X192687727Y-83982565D01*
X192687040Y-83988690D01*
X173786890Y-83988690D01*
X176326890Y-81448690D01*
X192687040Y-81448690D01*
X192687556Y-81454834D01*
X192700837Y-81612986D01*
X192704279Y-81653981D01*
X192705978Y-81659906D01*
X192741388Y-81783394D01*
X192761064Y-81852014D01*
X192763879Y-81857491D01*
X192763880Y-81857494D01*
X192822111Y-81970800D01*
X192855232Y-82035246D01*
X192983197Y-82196698D01*
X193140084Y-82330219D01*
X193319918Y-82430725D01*
X193414758Y-82461541D01*
X193509991Y-82492484D01*
X193509995Y-82492485D01*
X193515849Y-82494387D01*
X193720414Y-82518779D01*
X193726549Y-82518307D01*
X193726551Y-82518307D01*
X193782559Y-82513997D01*
X193925820Y-82502974D01*
X193931750Y-82501318D01*
X193931752Y-82501318D01*
X194118317Y-82449228D01*
X194118316Y-82449228D01*
X194124245Y-82447573D01*
X194129734Y-82444800D01*
X194129740Y-82444798D01*
X194302636Y-82357461D01*
X194308130Y-82354686D01*
X194470471Y-82227852D01*
X194605084Y-82071900D01*
X194625907Y-82035246D01*
X194703796Y-81898135D01*
X194706843Y-81892772D01*
X194771871Y-81697291D01*
X194797691Y-81492902D01*
X194798103Y-81463428D01*
X194796658Y-81448690D01*
X195227040Y-81448690D01*
X195227556Y-81454834D01*
X195240837Y-81612986D01*
X195244279Y-81653981D01*
X195245978Y-81659906D01*
X195281388Y-81783394D01*
X195301064Y-81852014D01*
X195303879Y-81857491D01*
X195303880Y-81857494D01*
X195362111Y-81970800D01*
X195395232Y-82035246D01*
X195523197Y-82196698D01*
X195680084Y-82330219D01*
X195859918Y-82430725D01*
X195954758Y-82461541D01*
X196049991Y-82492484D01*
X196049995Y-82492485D01*
X196055849Y-82494387D01*
X196260414Y-82518779D01*
X196266549Y-82518307D01*
X196266551Y-82518307D01*
X196322559Y-82513997D01*
X196465820Y-82502974D01*
X196471750Y-82501318D01*
X196471752Y-82501318D01*
X196658317Y-82449228D01*
X196658316Y-82449228D01*
X196664245Y-82447573D01*
X196669734Y-82444800D01*
X196669740Y-82444798D01*
X196842636Y-82357461D01*
X196848130Y-82354686D01*
X197010471Y-82227852D01*
X197145084Y-82071900D01*
X197165907Y-82035246D01*
X197243796Y-81898135D01*
X197246843Y-81892772D01*
X197311871Y-81697291D01*
X197337691Y-81492902D01*
X197338103Y-81463428D01*
X197318000Y-81258398D01*
X197258455Y-81061177D01*
X197161738Y-80879277D01*
X197088379Y-80789330D01*
X197035426Y-80724403D01*
X197035423Y-80724400D01*
X197031531Y-80719628D01*
X197014306Y-80705378D01*
X196877545Y-80592239D01*
X196877541Y-80592237D01*
X196872795Y-80588310D01*
X196691575Y-80490325D01*
X196494774Y-80429405D01*
X196488649Y-80428761D01*
X196488648Y-80428761D01*
X196296018Y-80408515D01*
X196296016Y-80408515D01*
X196289889Y-80407871D01*
X196203049Y-80415774D01*
X196090862Y-80425983D01*
X196090859Y-80425984D01*
X196084723Y-80426542D01*
X195887092Y-80484708D01*
X195704522Y-80580154D01*
X195699721Y-80584014D01*
X195699718Y-80584016D01*
X195689491Y-80592239D01*
X195543967Y-80709243D01*
X195411544Y-80867058D01*
X195408576Y-80872456D01*
X195408573Y-80872461D01*
X195348686Y-80981396D01*
X195312296Y-81047590D01*
X195250004Y-81243960D01*
X195249318Y-81250077D01*
X195249317Y-81250081D01*
X195227727Y-81442565D01*
X195227040Y-81448690D01*
X194796658Y-81448690D01*
X194778000Y-81258398D01*
X194718455Y-81061177D01*
X194621738Y-80879277D01*
X194548379Y-80789330D01*
X194495426Y-80724403D01*
X194495423Y-80724400D01*
X194491531Y-80719628D01*
X194474306Y-80705378D01*
X194337545Y-80592239D01*
X194337541Y-80592237D01*
X194332795Y-80588310D01*
X194151575Y-80490325D01*
X193954774Y-80429405D01*
X193948649Y-80428761D01*
X193948648Y-80428761D01*
X193756018Y-80408515D01*
X193756016Y-80408515D01*
X193749889Y-80407871D01*
X193663049Y-80415774D01*
X193550862Y-80425983D01*
X193550859Y-80425984D01*
X193544723Y-80426542D01*
X193347092Y-80484708D01*
X193164522Y-80580154D01*
X193159721Y-80584014D01*
X193159718Y-80584016D01*
X193149491Y-80592239D01*
X193003967Y-80709243D01*
X192871544Y-80867058D01*
X192868576Y-80872456D01*
X192868573Y-80872461D01*
X192808686Y-80981396D01*
X192772296Y-81047590D01*
X192710004Y-81243960D01*
X192709318Y-81250077D01*
X192709317Y-81250081D01*
X192687727Y-81442565D01*
X192687040Y-81448690D01*
X176326890Y-81448690D01*
X178866890Y-78908690D01*
X192687040Y-78908690D01*
X192687556Y-78914834D01*
X192703122Y-79100198D01*
X192704279Y-79113981D01*
X192705978Y-79119906D01*
X192742514Y-79247321D01*
X192761064Y-79312014D01*
X192763879Y-79317491D01*
X192763880Y-79317494D01*
X192849122Y-79483358D01*
X192855232Y-79495246D01*
X192983197Y-79656698D01*
X193140084Y-79790219D01*
X193319918Y-79890725D01*
X193411254Y-79920402D01*
X193509991Y-79952484D01*
X193509995Y-79952485D01*
X193515849Y-79954387D01*
X193720414Y-79978779D01*
X193726549Y-79978307D01*
X193726551Y-79978307D01*
X193782559Y-79973997D01*
X193925820Y-79962974D01*
X193931750Y-79961318D01*
X193931752Y-79961318D01*
X194118317Y-79909228D01*
X194118316Y-79909228D01*
X194124245Y-79907573D01*
X194129734Y-79904800D01*
X194129740Y-79904798D01*
X194302636Y-79817461D01*
X194308130Y-79814686D01*
X194470471Y-79687852D01*
X194547216Y-79598942D01*
X194601060Y-79536562D01*
X194601060Y-79536561D01*
X194605084Y-79531900D01*
X194625907Y-79495246D01*
X194698468Y-79367514D01*
X194706843Y-79352772D01*
X194771871Y-79157291D01*
X194797691Y-78952902D01*
X194798103Y-78923428D01*
X194796658Y-78908690D01*
X195227040Y-78908690D01*
X195227556Y-78914834D01*
X195243122Y-79100198D01*
X195244279Y-79113981D01*
X195245978Y-79119906D01*
X195282514Y-79247321D01*
X195301064Y-79312014D01*
X195303879Y-79317491D01*
X195303880Y-79317494D01*
X195389122Y-79483358D01*
X195395232Y-79495246D01*
X195523197Y-79656698D01*
X195680084Y-79790219D01*
X195859918Y-79890725D01*
X195951254Y-79920402D01*
X196049991Y-79952484D01*
X196049995Y-79952485D01*
X196055849Y-79954387D01*
X196260414Y-79978779D01*
X196266549Y-79978307D01*
X196266551Y-79978307D01*
X196322559Y-79973997D01*
X196465820Y-79962974D01*
X196471750Y-79961318D01*
X196471752Y-79961318D01*
X196658317Y-79909228D01*
X196658316Y-79909228D01*
X196664245Y-79907573D01*
X196669734Y-79904800D01*
X196669740Y-79904798D01*
X196842636Y-79817461D01*
X196848130Y-79814686D01*
X197010471Y-79687852D01*
X197087216Y-79598942D01*
X197141060Y-79536562D01*
X197141060Y-79536561D01*
X197145084Y-79531900D01*
X197165907Y-79495246D01*
X197238468Y-79367514D01*
X197246843Y-79352772D01*
X197311871Y-79157291D01*
X197337691Y-78952902D01*
X197338103Y-78923428D01*
X197318000Y-78718398D01*
X197258455Y-78521177D01*
X197161738Y-78339277D01*
X197062330Y-78217391D01*
X197035426Y-78184403D01*
X197035423Y-78184400D01*
X197031531Y-78179628D01*
X197014306Y-78165378D01*
X196877545Y-78052239D01*
X196877541Y-78052237D01*
X196872795Y-78048310D01*
X196691575Y-77950325D01*
X196494774Y-77889405D01*
X196488649Y-77888761D01*
X196488648Y-77888761D01*
X196296018Y-77868515D01*
X196296016Y-77868515D01*
X196289889Y-77867871D01*
X196203049Y-77875774D01*
X196090862Y-77885983D01*
X196090859Y-77885984D01*
X196084723Y-77886542D01*
X195887092Y-77944708D01*
X195704522Y-78040154D01*
X195699721Y-78044014D01*
X195699718Y-78044016D01*
X195612121Y-78114446D01*
X195543967Y-78169243D01*
X195411544Y-78327058D01*
X195408576Y-78332456D01*
X195408573Y-78332461D01*
X195335492Y-78465396D01*
X195312296Y-78507590D01*
X195310433Y-78513463D01*
X195258360Y-78677620D01*
X195250004Y-78703960D01*
X195249318Y-78710077D01*
X195249317Y-78710081D01*
X195242210Y-78773446D01*
X195227040Y-78908690D01*
X194796658Y-78908690D01*
X194778000Y-78718398D01*
X194718455Y-78521177D01*
X194621738Y-78339277D01*
X194522330Y-78217391D01*
X194495426Y-78184403D01*
X194495423Y-78184400D01*
X194491531Y-78179628D01*
X194474306Y-78165378D01*
X194337545Y-78052239D01*
X194337541Y-78052237D01*
X194332795Y-78048310D01*
X194151575Y-77950325D01*
X193954774Y-77889405D01*
X193948649Y-77888761D01*
X193948648Y-77888761D01*
X193756018Y-77868515D01*
X193756016Y-77868515D01*
X193749889Y-77867871D01*
X193663049Y-77875774D01*
X193550862Y-77885983D01*
X193550859Y-77885984D01*
X193544723Y-77886542D01*
X193347092Y-77944708D01*
X193164522Y-78040154D01*
X193159721Y-78044014D01*
X193159718Y-78044016D01*
X193072121Y-78114446D01*
X193003967Y-78169243D01*
X192871544Y-78327058D01*
X192868576Y-78332456D01*
X192868573Y-78332461D01*
X192795492Y-78465396D01*
X192772296Y-78507590D01*
X192770433Y-78513463D01*
X192718360Y-78677620D01*
X192710004Y-78703960D01*
X192709318Y-78710077D01*
X192709317Y-78710081D01*
X192702210Y-78773446D01*
X192687040Y-78908690D01*
X178866890Y-78908690D01*
X182274747Y-75500833D01*
X182337059Y-75466807D01*
X182363842Y-75463928D01*
X192872476Y-75463928D01*
X192940597Y-75483930D01*
X192987090Y-75537586D01*
X192997194Y-75607860D01*
X192968998Y-75670917D01*
X192871544Y-75787058D01*
X192868576Y-75792456D01*
X192868573Y-75792461D01*
X192861835Y-75804718D01*
X192772296Y-75967590D01*
X192710004Y-76163960D01*
X192709318Y-76170077D01*
X192709317Y-76170081D01*
X192687727Y-76362565D01*
X192687040Y-76368690D01*
X192704279Y-76573981D01*
X192761064Y-76772014D01*
X192763879Y-76777491D01*
X192763880Y-76777494D01*
X192849122Y-76943358D01*
X192855232Y-76955246D01*
X192983197Y-77116698D01*
X193140084Y-77250219D01*
X193319918Y-77350725D01*
X193414758Y-77381541D01*
X193509991Y-77412484D01*
X193509995Y-77412485D01*
X193515849Y-77414387D01*
X193720414Y-77438779D01*
X193726549Y-77438307D01*
X193726551Y-77438307D01*
X193782559Y-77433997D01*
X193925820Y-77422974D01*
X193931750Y-77421318D01*
X193931752Y-77421318D01*
X194118317Y-77369228D01*
X194118316Y-77369228D01*
X194124245Y-77367573D01*
X194129734Y-77364800D01*
X194129740Y-77364798D01*
X194262472Y-77297750D01*
X194308130Y-77274686D01*
X194470471Y-77147852D01*
X194542700Y-77064174D01*
X194601060Y-76996562D01*
X194601060Y-76996561D01*
X194605084Y-76991900D01*
X194625907Y-76955246D01*
X194698099Y-76828164D01*
X194706843Y-76812772D01*
X194771871Y-76617291D01*
X194797691Y-76412902D01*
X194798103Y-76383428D01*
X194796658Y-76368690D01*
X195227040Y-76368690D01*
X195244279Y-76573981D01*
X195301064Y-76772014D01*
X195303879Y-76777491D01*
X195303880Y-76777494D01*
X195389122Y-76943358D01*
X195395232Y-76955246D01*
X195523197Y-77116698D01*
X195680084Y-77250219D01*
X195859918Y-77350725D01*
X195954758Y-77381541D01*
X196049991Y-77412484D01*
X196049995Y-77412485D01*
X196055849Y-77414387D01*
X196260414Y-77438779D01*
X196266549Y-77438307D01*
X196266551Y-77438307D01*
X196322559Y-77433997D01*
X196465820Y-77422974D01*
X196471750Y-77421318D01*
X196471752Y-77421318D01*
X196658317Y-77369228D01*
X196658316Y-77369228D01*
X196664245Y-77367573D01*
X196669734Y-77364800D01*
X196669740Y-77364798D01*
X196802472Y-77297750D01*
X196848130Y-77274686D01*
X197010471Y-77147852D01*
X197082700Y-77064174D01*
X197141060Y-76996562D01*
X197141060Y-76996561D01*
X197145084Y-76991900D01*
X197165907Y-76955246D01*
X197238099Y-76828164D01*
X197246843Y-76812772D01*
X197311871Y-76617291D01*
X197337691Y-76412902D01*
X197338103Y-76383428D01*
X197318000Y-76178398D01*
X197258455Y-75981177D01*
X197161738Y-75799277D01*
X197088379Y-75709330D01*
X197035426Y-75644403D01*
X197035421Y-75644398D01*
X197031531Y-75639628D01*
X197014306Y-75625378D01*
X196877545Y-75512239D01*
X196877541Y-75512237D01*
X196872795Y-75508310D01*
X196691575Y-75410325D01*
X196494774Y-75349405D01*
X196488649Y-75348761D01*
X196488648Y-75348761D01*
X196296018Y-75328515D01*
X196296016Y-75328515D01*
X196289889Y-75327871D01*
X196203049Y-75335774D01*
X196090862Y-75345983D01*
X196090859Y-75345984D01*
X196084723Y-75346542D01*
X195887092Y-75404708D01*
X195704522Y-75500154D01*
X195699721Y-75504014D01*
X195699718Y-75504016D01*
X195612949Y-75573780D01*
X195543967Y-75629243D01*
X195411544Y-75787058D01*
X195408576Y-75792456D01*
X195408573Y-75792461D01*
X195401835Y-75804718D01*
X195312296Y-75967590D01*
X195250004Y-76163960D01*
X195249318Y-76170077D01*
X195249317Y-76170081D01*
X195227727Y-76362565D01*
X195227040Y-76368690D01*
X194796658Y-76368690D01*
X194778000Y-76178398D01*
X194718455Y-75981177D01*
X194621738Y-75799277D01*
X194491531Y-75639628D01*
X194487201Y-75636046D01*
X194453481Y-75573780D01*
X194458792Y-75502983D01*
X194501536Y-75446295D01*
X194516863Y-75436537D01*
X194534101Y-75427236D01*
X194539390Y-75424541D01*
X194581846Y-75404154D01*
X194585794Y-75400836D01*
X194587727Y-75398903D01*
X194589324Y-75397438D01*
X194589814Y-75397174D01*
X194589833Y-75397194D01*
X194589922Y-75397115D01*
X194595314Y-75394206D01*
X194628975Y-75357792D01*
X194632404Y-75354226D01*
X195224419Y-74762211D01*
X195239373Y-74750133D01*
X195242925Y-74746901D01*
X195251672Y-74741253D01*
X195270522Y-74717342D01*
X195274020Y-74713406D01*
X195273916Y-74713318D01*
X195277271Y-74709359D01*
X195280949Y-74705681D01*
X195283968Y-74701456D01*
X195283975Y-74701448D01*
X195291189Y-74691352D01*
X195294756Y-74686602D01*
X195317464Y-74657797D01*
X195317465Y-74657794D01*
X195323912Y-74649617D01*
X195326714Y-74641639D01*
X195331631Y-74634758D01*
X195334616Y-74624778D01*
X195335392Y-74623193D01*
X195383321Y-74570816D01*
X195451958Y-74552666D01*
X195519512Y-74574506D01*
X195530209Y-74582666D01*
X195680084Y-74710219D01*
X195685462Y-74713225D01*
X195685464Y-74713226D01*
X195756139Y-74752725D01*
X195859918Y-74810725D01*
X195950937Y-74840299D01*
X196049991Y-74872484D01*
X196049995Y-74872485D01*
X196055849Y-74874387D01*
X196260414Y-74898779D01*
X196266549Y-74898307D01*
X196266551Y-74898307D01*
X196322559Y-74893997D01*
X196465820Y-74882974D01*
X196471750Y-74881318D01*
X196471752Y-74881318D01*
X196646061Y-74832650D01*
X196664245Y-74827573D01*
X196669734Y-74824800D01*
X196669740Y-74824798D01*
X196826116Y-74745806D01*
X196848130Y-74734686D01*
X196870330Y-74717342D01*
X196970741Y-74638892D01*
X197010471Y-74607852D01*
X197039255Y-74574506D01*
X197141060Y-74456562D01*
X197141060Y-74456561D01*
X197145084Y-74451900D01*
X197165907Y-74415246D01*
X197183576Y-74384142D01*
X197246843Y-74272772D01*
X197311871Y-74077291D01*
X197337691Y-73872902D01*
X197338103Y-73843428D01*
X197318000Y-73638398D01*
X197258455Y-73441177D01*
X197161738Y-73259277D01*
X197088379Y-73169330D01*
X197035426Y-73104403D01*
X197035423Y-73104400D01*
X197031531Y-73099628D01*
X197014306Y-73085378D01*
X196877545Y-72972239D01*
X196877541Y-72972237D01*
X196872795Y-72968310D01*
X196691575Y-72870325D01*
X196494774Y-72809405D01*
X196488649Y-72808761D01*
X196488648Y-72808761D01*
X196296018Y-72788515D01*
X196296016Y-72788515D01*
X196289889Y-72787871D01*
X196203049Y-72795774D01*
X196090862Y-72805983D01*
X196090859Y-72805984D01*
X196084723Y-72806542D01*
X195887092Y-72864708D01*
X195704522Y-72960154D01*
X195699721Y-72964014D01*
X195699718Y-72964016D01*
X195629368Y-73020579D01*
X195567971Y-73069943D01*
X195502350Y-73097039D01*
X195432495Y-73084356D01*
X195380587Y-73035920D01*
X195363020Y-72971746D01*
X195363020Y-72770800D01*
X195383022Y-72702679D01*
X195399925Y-72681705D01*
X195768327Y-72313303D01*
X195830639Y-72279277D01*
X195896358Y-72282565D01*
X196049991Y-72332484D01*
X196049995Y-72332485D01*
X196055849Y-72334387D01*
X196260414Y-72358779D01*
X196266549Y-72358307D01*
X196266551Y-72358307D01*
X196322559Y-72353997D01*
X196465820Y-72342974D01*
X196471750Y-72341318D01*
X196471752Y-72341318D01*
X196622849Y-72299131D01*
X196664245Y-72287573D01*
X196669734Y-72284800D01*
X196669740Y-72284798D01*
X196842636Y-72197461D01*
X196848130Y-72194686D01*
X197010471Y-72067852D01*
X197145084Y-71911900D01*
X197165907Y-71875246D01*
X197243796Y-71738135D01*
X197246843Y-71732772D01*
X197311871Y-71537291D01*
X197337691Y-71332902D01*
X197338103Y-71303428D01*
X197318000Y-71098398D01*
X197258455Y-70901177D01*
X197161738Y-70719277D01*
X197088379Y-70629330D01*
X197035426Y-70564403D01*
X197035423Y-70564400D01*
X197031531Y-70559628D01*
X197014306Y-70545378D01*
X196877545Y-70432239D01*
X196877541Y-70432237D01*
X196872795Y-70428310D01*
X196691575Y-70330325D01*
X196494774Y-70269405D01*
X196488649Y-70268761D01*
X196488648Y-70268761D01*
X196296018Y-70248515D01*
X196296016Y-70248515D01*
X196289889Y-70247871D01*
X196203049Y-70255774D01*
X196090862Y-70265983D01*
X196090859Y-70265984D01*
X196084723Y-70266542D01*
X195887092Y-70324708D01*
X195704522Y-70420154D01*
X195699721Y-70424014D01*
X195699718Y-70424016D01*
X195689491Y-70432239D01*
X195543967Y-70549243D01*
X195411544Y-70707058D01*
X195408576Y-70712456D01*
X195408573Y-70712461D01*
X195401835Y-70724718D01*
X195312296Y-70887590D01*
X195250004Y-71083960D01*
X195249318Y-71090077D01*
X195249317Y-71090081D01*
X195227727Y-71282565D01*
X195227040Y-71288690D01*
X195244279Y-71493981D01*
X195245978Y-71499906D01*
X195301064Y-71692014D01*
X195299383Y-71692496D01*
X195305105Y-71754916D01*
X195270568Y-71819698D01*
X194800621Y-72289645D01*
X194785667Y-72301723D01*
X194782115Y-72304955D01*
X194773368Y-72310603D01*
X194766922Y-72318780D01*
X194754518Y-72334514D01*
X194751021Y-72338449D01*
X194751125Y-72338537D01*
X194747770Y-72342496D01*
X194744092Y-72346174D01*
X194741073Y-72350399D01*
X194741066Y-72350407D01*
X194733848Y-72360508D01*
X194730284Y-72365255D01*
X194701128Y-72402239D01*
X194698327Y-72410215D01*
X194693409Y-72417097D01*
X194679901Y-72462264D01*
X194678079Y-72467870D01*
X194665092Y-72504851D01*
X194665091Y-72504857D01*
X194662465Y-72512334D01*
X194662020Y-72517472D01*
X194662020Y-72520191D01*
X194661925Y-72522373D01*
X194661765Y-72522908D01*
X194661738Y-72522907D01*
X194661731Y-72523025D01*
X194659976Y-72528892D01*
X194660385Y-72539300D01*
X194661923Y-72578447D01*
X194662020Y-72583394D01*
X194662020Y-72972905D01*
X194642018Y-73041026D01*
X194588362Y-73087519D01*
X194518088Y-73097623D01*
X194455705Y-73069990D01*
X194337545Y-72972239D01*
X194337541Y-72972237D01*
X194332795Y-72968310D01*
X194151575Y-72870325D01*
X193954774Y-72809405D01*
X193948649Y-72808761D01*
X193948648Y-72808761D01*
X193756018Y-72788515D01*
X193756016Y-72788515D01*
X193749889Y-72787871D01*
X193663049Y-72795774D01*
X193550862Y-72805983D01*
X193550859Y-72805984D01*
X193544723Y-72806542D01*
X193347092Y-72864708D01*
X193164522Y-72960154D01*
X193159721Y-72964014D01*
X193159718Y-72964016D01*
X193063937Y-73041026D01*
X193003967Y-73089243D01*
X192871544Y-73247058D01*
X192868576Y-73252456D01*
X192868573Y-73252461D01*
X192772296Y-73427590D01*
X192769860Y-73426251D01*
X192731812Y-73471729D01*
X192661864Y-73492928D01*
X177663344Y-73492928D01*
X177644245Y-73490895D01*
X177639437Y-73490668D01*
X177629259Y-73488477D01*
X177599029Y-73492055D01*
X177593774Y-73492365D01*
X177593785Y-73492500D01*
X177588606Y-73492928D01*
X177583405Y-73492928D01*
X177578277Y-73493782D01*
X177578271Y-73493782D01*
X177566047Y-73495817D01*
X177560171Y-73496654D01*
X177523721Y-73500968D01*
X177523719Y-73500968D01*
X177513382Y-73502192D01*
X177505762Y-73505851D01*
X177497417Y-73507240D01*
X177455940Y-73529620D01*
X177450655Y-73532312D01*
X177408194Y-73552702D01*
X177404246Y-73556020D01*
X177402313Y-73557953D01*
X177400716Y-73559418D01*
X177400226Y-73559682D01*
X177400207Y-73559662D01*
X177400118Y-73559741D01*
X177394726Y-73562650D01*
X177387656Y-73570298D01*
X177387655Y-73570299D01*
X177361065Y-73599064D01*
X177357636Y-73602630D01*
X173423044Y-77537222D01*
X173360732Y-77571248D01*
X173289917Y-77566183D01*
X173280603Y-77562277D01*
X173269352Y-77557019D01*
X173269351Y-77557019D01*
X173262719Y-77553919D01*
X173097088Y-77519468D01*
X172980206Y-77522631D01*
X172935291Y-77523846D01*
X172927975Y-77524044D01*
X172920905Y-77525919D01*
X172920902Y-77525919D01*
X172820921Y-77552429D01*
X172764451Y-77567402D01*
X172757995Y-77570856D01*
X172757996Y-77570856D01*
X172621746Y-77643758D01*
X172621743Y-77643760D01*
X172615286Y-77647215D01*
X172609798Y-77652062D01*
X172609795Y-77652064D01*
X172557217Y-77698500D01*
X172488483Y-77759204D01*
X172468279Y-77787792D01*
X172395069Y-77891381D01*
X172395067Y-77891384D01*
X172390844Y-77897360D01*
X172335101Y-78035677D01*
X172291088Y-78091379D01*
X172223943Y-78114446D01*
X172205503Y-78113930D01*
X172143882Y-78107670D01*
X172131624Y-78107628D01*
X171942203Y-78125534D01*
X171930173Y-78127872D01*
X171747838Y-78182229D01*
X171736482Y-78186863D01*
X171620690Y-78247914D01*
X171610574Y-78257739D01*
X171613084Y-78264782D01*
X173186293Y-79837991D01*
X173198673Y-79844751D01*
X173204978Y-79840031D01*
X173263439Y-79732807D01*
X173268234Y-79721511D01*
X173325129Y-79539961D01*
X173327636Y-79527957D01*
X173348184Y-79338811D01*
X173348312Y-79326551D01*
X173341381Y-79247321D01*
X173355371Y-79177716D01*
X173404770Y-79126724D01*
X173434610Y-79114548D01*
X173469565Y-79105280D01*
X173469568Y-79105279D01*
X173476639Y-79103404D01*
X173548696Y-79064849D01*
X173619344Y-79027048D01*
X173619347Y-79027046D01*
X173625804Y-79023591D01*
X173631292Y-79018744D01*
X173631295Y-79018742D01*
X173721699Y-78938899D01*
X173752607Y-78911602D01*
X173792901Y-78854587D01*
X173846021Y-78779425D01*
X173846023Y-78779422D01*
X173850246Y-78773446D01*
X173901538Y-78646173D01*
X173910745Y-78623328D01*
X173913483Y-78616534D01*
X173936476Y-78465396D01*
X173937827Y-78456517D01*
X173937827Y-78456513D01*
X173938927Y-78449283D01*
X173925212Y-78280664D01*
X173920067Y-78264782D01*
X173886774Y-78162009D01*
X173884809Y-78091039D01*
X173917546Y-78034083D01*
X177720796Y-74230833D01*
X177783108Y-74196807D01*
X177809891Y-74193928D01*
X192664579Y-74193928D01*
X192732700Y-74213930D01*
X192776645Y-74262334D01*
X192852412Y-74409761D01*
X192852417Y-74409769D01*
X192855232Y-74415246D01*
X192953732Y-74539522D01*
X192968903Y-74558663D01*
X192995541Y-74624473D01*
X192982370Y-74694238D01*
X192933573Y-74745806D01*
X192870158Y-74762928D01*
X182217294Y-74762928D01*
X182198195Y-74760895D01*
X182193387Y-74760668D01*
X182183209Y-74758477D01*
X182152979Y-74762055D01*
X182147724Y-74762365D01*
X182147735Y-74762500D01*
X182142557Y-74762928D01*
X182137355Y-74762928D01*
X182119985Y-74765819D01*
X182114115Y-74766655D01*
X182067331Y-74772192D01*
X182059711Y-74775851D01*
X182051367Y-74777240D01*
X182042202Y-74782185D01*
X182042200Y-74782186D01*
X182009911Y-74799609D01*
X182004632Y-74802300D01*
X181962144Y-74822702D01*
X181958196Y-74826020D01*
X181956257Y-74827959D01*
X181954666Y-74829418D01*
X181954176Y-74829682D01*
X181954157Y-74829662D01*
X181954069Y-74829740D01*
X181948676Y-74832650D01*
X181941606Y-74840298D01*
X181941605Y-74840299D01*
X181915015Y-74869064D01*
X181911586Y-74872630D01*
X171664677Y-85119539D01*
X171602365Y-85153565D01*
X171556632Y-85155011D01*
X171445609Y-85138121D01*
X171445605Y-85138121D01*
X171438375Y-85137021D01*
X171431083Y-85137614D01*
X171431080Y-85137614D01*
X171344100Y-85144689D01*
X171269756Y-85150736D01*
X171262797Y-85152990D01*
X171262794Y-85152991D01*
X171115782Y-85200616D01*
X171115779Y-85200617D01*
X171108816Y-85202873D01*
X171065938Y-85228892D01*
X170984274Y-85278447D01*
X170964185Y-85290637D01*
X170959982Y-85294349D01*
X170959978Y-85294352D01*
X170958688Y-85295492D01*
X170956171Y-85297715D01*
X170693146Y-85560740D01*
X170614641Y-85659966D01*
X170611542Y-85666597D01*
X170611540Y-85666600D01*
X170546110Y-85806597D01*
X170546109Y-85806601D01*
X170543011Y-85813229D01*
X170541521Y-85820391D01*
X170541521Y-85820392D01*
X170525786Y-85896044D01*
X170508560Y-85978860D01*
X170033020Y-85978860D01*
X170033020Y-81970800D01*
X170053022Y-81902679D01*
X170069925Y-81881705D01*
X170970234Y-80981396D01*
X171032546Y-80947370D01*
X171103361Y-80952435D01*
X171148424Y-80981396D01*
X171285071Y-81118043D01*
X171334651Y-81151171D01*
X171346820Y-81153592D01*
X171346821Y-81153592D01*
X171400711Y-81164311D01*
X171412882Y-81166732D01*
X171491114Y-81151171D01*
X171540693Y-81118043D01*
X172265979Y-80392757D01*
X172328291Y-80358731D01*
X172343216Y-80356411D01*
X172502837Y-80341322D01*
X172514867Y-80338984D01*
X172697202Y-80284627D01*
X172708558Y-80279993D01*
X172824350Y-80218942D01*
X172834466Y-80209117D01*
X172831956Y-80202074D01*
X171258747Y-78628865D01*
X171246367Y-78622105D01*
X171240062Y-78626825D01*
X171181601Y-78734049D01*
X171176806Y-78745345D01*
X171119911Y-78926895D01*
X171117404Y-78938899D01*
X171098204Y-79115637D01*
X171070962Y-79181199D01*
X171062036Y-79191124D01*
X170337905Y-79915255D01*
X170304777Y-79964834D01*
X170289216Y-80043066D01*
X170304777Y-80121297D01*
X170337905Y-80170877D01*
X170474552Y-80307524D01*
X170508578Y-80369836D01*
X170503513Y-80440651D01*
X170474552Y-80485714D01*
X169470621Y-81489645D01*
X169455667Y-81501723D01*
X169452115Y-81504955D01*
X169443368Y-81510603D01*
X169436922Y-81518780D01*
X169424518Y-81534514D01*
X169421021Y-81538449D01*
X169421125Y-81538537D01*
X169417770Y-81542496D01*
X169414092Y-81546174D01*
X169411073Y-81550399D01*
X169411066Y-81550407D01*
X169403848Y-81560508D01*
X169400284Y-81565255D01*
X169371128Y-81602239D01*
X169368327Y-81610215D01*
X169363409Y-81617097D01*
X169349901Y-81662264D01*
X169348079Y-81667870D01*
X169335092Y-81704851D01*
X169335091Y-81704857D01*
X169332465Y-81712334D01*
X169332020Y-81717472D01*
X169332020Y-81720191D01*
X169331925Y-81722373D01*
X169331765Y-81722908D01*
X169331738Y-81722907D01*
X169331731Y-81723025D01*
X169329976Y-81728892D01*
X169330385Y-81739300D01*
X169331923Y-81778447D01*
X169332020Y-81783394D01*
X169332020Y-87832604D01*
X169329987Y-87851703D01*
X169329760Y-87856511D01*
X169327569Y-87866689D01*
X157733020Y-87866689D01*
X157733020Y-79862251D01*
X163461911Y-79862251D01*
X163463075Y-79871153D01*
X163463075Y-79871156D01*
X163468054Y-79909228D01*
X163480500Y-80004407D01*
X163484117Y-80012627D01*
X163519056Y-80092031D01*
X163538240Y-80135631D01*
X163544017Y-80142504D01*
X163544018Y-80142505D01*
X163624710Y-80238500D01*
X163630490Y-80245376D01*
X163749833Y-80324818D01*
X163886677Y-80367570D01*
X163895649Y-80367734D01*
X163895652Y-80367735D01*
X163960983Y-80368932D01*
X164030019Y-80370198D01*
X164039053Y-80367735D01*
X164159678Y-80334849D01*
X164159680Y-80334848D01*
X164168337Y-80332488D01*
X164290511Y-80257473D01*
X164386720Y-80151182D01*
X164439102Y-80043066D01*
X164445315Y-80030242D01*
X164445315Y-80030241D01*
X164449230Y-80022161D01*
X164473016Y-79880782D01*
X164473167Y-79868428D01*
X164472477Y-79863608D01*
X164472476Y-79863597D01*
X164471996Y-79860241D01*
X164472177Y-79858990D01*
X164472161Y-79858751D01*
X164472212Y-79858748D01*
X164482142Y-79789974D01*
X164507629Y-79753290D01*
X165125365Y-79135555D01*
X165187677Y-79101530D01*
X165216769Y-79098672D01*
X165252208Y-79099321D01*
X165300019Y-79100198D01*
X165308683Y-79097836D01*
X165429678Y-79064849D01*
X165429680Y-79064848D01*
X165438337Y-79062488D01*
X165560511Y-78987473D01*
X165594994Y-78949377D01*
X165650698Y-78887835D01*
X165656720Y-78881182D01*
X165719230Y-78752161D01*
X165743016Y-78610782D01*
X165743167Y-78598428D01*
X165729385Y-78502193D01*
X165724116Y-78465396D01*
X165724115Y-78465393D01*
X165722843Y-78456510D01*
X165663504Y-78326000D01*
X165610755Y-78264782D01*
X165575780Y-78224191D01*
X165575777Y-78224188D01*
X165569920Y-78217391D01*
X165449615Y-78139413D01*
X165312259Y-78098335D01*
X165303283Y-78098280D01*
X165303282Y-78098280D01*
X165264507Y-78098043D01*
X165213214Y-78097730D01*
X165145218Y-78077312D01*
X165124890Y-78060827D01*
X164508724Y-77444661D01*
X164474698Y-77382349D01*
X164472350Y-77344741D01*
X164473016Y-77340782D01*
X164473167Y-77328428D01*
X164452843Y-77186510D01*
X164393504Y-77056000D01*
X164333655Y-76986542D01*
X164305780Y-76954191D01*
X164305777Y-76954188D01*
X164299920Y-76947391D01*
X164179615Y-76869413D01*
X164042259Y-76828335D01*
X164033283Y-76828280D01*
X164033282Y-76828280D01*
X163973075Y-76827912D01*
X163898896Y-76827459D01*
X163761049Y-76866856D01*
X163639800Y-76943358D01*
X163544897Y-77050816D01*
X163483967Y-77180591D01*
X163482586Y-77189463D01*
X163468885Y-77277461D01*
X163461911Y-77322251D01*
X163463075Y-77331153D01*
X163463075Y-77331156D01*
X163468054Y-77369228D01*
X163480500Y-77464407D01*
X163484117Y-77472627D01*
X163525283Y-77566183D01*
X163538240Y-77595631D01*
X163544017Y-77602504D01*
X163544018Y-77602505D01*
X163551312Y-77611182D01*
X163630490Y-77705376D01*
X163749833Y-77784818D01*
X163886677Y-77827570D01*
X163895649Y-77827734D01*
X163895652Y-77827735D01*
X163977688Y-77829239D01*
X163993752Y-77829533D01*
X164061494Y-77850781D01*
X164080537Y-77866417D01*
X164696693Y-78482573D01*
X164730719Y-78544885D01*
X164731596Y-78574383D01*
X164733402Y-78574405D01*
X164733293Y-78583377D01*
X164731911Y-78592251D01*
X164733699Y-78605921D01*
X164733903Y-78607480D01*
X164722904Y-78677620D01*
X164698062Y-78712915D01*
X164079864Y-79331113D01*
X164017552Y-79365139D01*
X163990002Y-79368016D01*
X163898896Y-79367459D01*
X163761049Y-79406856D01*
X163639800Y-79483358D01*
X163544897Y-79590816D01*
X163483967Y-79720591D01*
X163482586Y-79729463D01*
X163464636Y-79844751D01*
X163461911Y-79862251D01*
X157733020Y-79862251D01*
X157733020Y-74782251D01*
X164096911Y-74782251D01*
X164098075Y-74791153D01*
X164098075Y-74791156D01*
X164103501Y-74832650D01*
X164115500Y-74924407D01*
X164173240Y-75055631D01*
X164265490Y-75165376D01*
X164384833Y-75244818D01*
X164521677Y-75287570D01*
X164556720Y-75288212D01*
X164624462Y-75309459D01*
X164643506Y-75325096D01*
X166606060Y-77287650D01*
X166640086Y-77349962D01*
X166641899Y-77360399D01*
X166655500Y-77464407D01*
X166659117Y-77472627D01*
X166700283Y-77566183D01*
X166713240Y-77595631D01*
X166719017Y-77602504D01*
X166719018Y-77602505D01*
X166726312Y-77611182D01*
X166805490Y-77705376D01*
X166924833Y-77784818D01*
X167061677Y-77827570D01*
X167070649Y-77827734D01*
X167070652Y-77827735D01*
X167135983Y-77828932D01*
X167205019Y-77830198D01*
X167214053Y-77827735D01*
X167334678Y-77794849D01*
X167334680Y-77794848D01*
X167343337Y-77792488D01*
X167465511Y-77717473D01*
X167561720Y-77611182D01*
X167597553Y-77537222D01*
X167620315Y-77490242D01*
X167620315Y-77490241D01*
X167624230Y-77482161D01*
X167648016Y-77340782D01*
X167648167Y-77328428D01*
X167627843Y-77186510D01*
X167568504Y-77056000D01*
X167508655Y-76986542D01*
X167480780Y-76954191D01*
X167480777Y-76954188D01*
X167474920Y-76947391D01*
X167354615Y-76869413D01*
X167217259Y-76828335D01*
X167208282Y-76828280D01*
X167208281Y-76828280D01*
X167189357Y-76828164D01*
X167121360Y-76807744D01*
X167101034Y-76791261D01*
X165139514Y-74829740D01*
X165105488Y-74767428D01*
X165103882Y-74758507D01*
X165089116Y-74655396D01*
X165089115Y-74655393D01*
X165087843Y-74646510D01*
X165077824Y-74624473D01*
X165058815Y-74582666D01*
X165028504Y-74516000D01*
X164968655Y-74446542D01*
X164940780Y-74414191D01*
X164940777Y-74414188D01*
X164934920Y-74407391D01*
X164814615Y-74329413D01*
X164677259Y-74288335D01*
X164668283Y-74288280D01*
X164668282Y-74288280D01*
X164608075Y-74287912D01*
X164533896Y-74287459D01*
X164396049Y-74326856D01*
X164274800Y-74403358D01*
X164179897Y-74510816D01*
X164118967Y-74640591D01*
X164116662Y-74655396D01*
X164098668Y-74770968D01*
X164096911Y-74782251D01*
X157733020Y-74782251D01*
X157733020Y-71288690D01*
X192687040Y-71288690D01*
X192704279Y-71493981D01*
X192761064Y-71692014D01*
X192763879Y-71697491D01*
X192763880Y-71697494D01*
X192784767Y-71738135D01*
X192855232Y-71875246D01*
X192983197Y-72036698D01*
X193140084Y-72170219D01*
X193319918Y-72270725D01*
X193414758Y-72301541D01*
X193509991Y-72332484D01*
X193509995Y-72332485D01*
X193515849Y-72334387D01*
X193720414Y-72358779D01*
X193726549Y-72358307D01*
X193726551Y-72358307D01*
X193782559Y-72353997D01*
X193925820Y-72342974D01*
X193931750Y-72341318D01*
X193931752Y-72341318D01*
X194082849Y-72299131D01*
X194124245Y-72287573D01*
X194129734Y-72284800D01*
X194129740Y-72284798D01*
X194302636Y-72197461D01*
X194308130Y-72194686D01*
X194470471Y-72067852D01*
X194605084Y-71911900D01*
X194625907Y-71875246D01*
X194703796Y-71738135D01*
X194706843Y-71732772D01*
X194771871Y-71537291D01*
X194797691Y-71332902D01*
X194798103Y-71303428D01*
X194778000Y-71098398D01*
X194718455Y-70901177D01*
X194621738Y-70719277D01*
X194548379Y-70629330D01*
X194495426Y-70564403D01*
X194495423Y-70564400D01*
X194491531Y-70559628D01*
X194474306Y-70545378D01*
X194337545Y-70432239D01*
X194337541Y-70432237D01*
X194332795Y-70428310D01*
X194151575Y-70330325D01*
X193954774Y-70269405D01*
X193948649Y-70268761D01*
X193948648Y-70268761D01*
X193756018Y-70248515D01*
X193756016Y-70248515D01*
X193749889Y-70247871D01*
X193663049Y-70255774D01*
X193550862Y-70265983D01*
X193550859Y-70265984D01*
X193544723Y-70266542D01*
X193347092Y-70324708D01*
X193164522Y-70420154D01*
X193159721Y-70424014D01*
X193159718Y-70424016D01*
X193149491Y-70432239D01*
X193003967Y-70549243D01*
X192871544Y-70707058D01*
X192868576Y-70712456D01*
X192868573Y-70712461D01*
X192861835Y-70724718D01*
X192772296Y-70887590D01*
X192710004Y-71083960D01*
X192709318Y-71090077D01*
X192709317Y-71090081D01*
X192687727Y-71282565D01*
X192687040Y-71288690D01*
X157733020Y-71288690D01*
X157733020Y-65122251D01*
X172776911Y-65122251D01*
X172778075Y-65131153D01*
X172778075Y-65131156D01*
X172782961Y-65168515D01*
X172795500Y-65264407D01*
X172799117Y-65272627D01*
X172828830Y-65340154D01*
X172853240Y-65395631D01*
X172859017Y-65402504D01*
X172859018Y-65402505D01*
X172927860Y-65484403D01*
X172945490Y-65505376D01*
X173064833Y-65584818D01*
X173201677Y-65627570D01*
X173236720Y-65628212D01*
X173304462Y-65649459D01*
X173323506Y-65665096D01*
X176633737Y-68975327D01*
X176645815Y-68990281D01*
X176649047Y-68993833D01*
X176654695Y-69002580D01*
X176662872Y-69009026D01*
X176678606Y-69021430D01*
X176682541Y-69024927D01*
X176682629Y-69024823D01*
X176686588Y-69028178D01*
X176690266Y-69031856D01*
X176694491Y-69034875D01*
X176694499Y-69034882D01*
X176704600Y-69042100D01*
X176709347Y-69045664D01*
X176746331Y-69074820D01*
X176754307Y-69077621D01*
X176761189Y-69082539D01*
X176771167Y-69085523D01*
X176806311Y-69096033D01*
X176811957Y-69097867D01*
X176848947Y-69110857D01*
X176848950Y-69110858D01*
X176856426Y-69113483D01*
X176861564Y-69113928D01*
X176864269Y-69113928D01*
X176866468Y-69114023D01*
X176867000Y-69114182D01*
X176866999Y-69114209D01*
X176867115Y-69114216D01*
X176872983Y-69115971D01*
X176922523Y-69114025D01*
X176927470Y-69113928D01*
X192664579Y-69113928D01*
X192732700Y-69133930D01*
X192776645Y-69182334D01*
X192852412Y-69329761D01*
X192852417Y-69329769D01*
X192855232Y-69335246D01*
X192983197Y-69496698D01*
X193140084Y-69630219D01*
X193319918Y-69730725D01*
X193414758Y-69761541D01*
X193509991Y-69792484D01*
X193509995Y-69792485D01*
X193515849Y-69794387D01*
X193720414Y-69818779D01*
X193726549Y-69818307D01*
X193726551Y-69818307D01*
X193782559Y-69813997D01*
X193925820Y-69802974D01*
X193931750Y-69801318D01*
X193931752Y-69801318D01*
X194118317Y-69749228D01*
X194118316Y-69749228D01*
X194124245Y-69747573D01*
X194129734Y-69744800D01*
X194129740Y-69744798D01*
X194302636Y-69657461D01*
X194308130Y-69654686D01*
X194470471Y-69527852D01*
X194605084Y-69371900D01*
X194625907Y-69335246D01*
X194703796Y-69198135D01*
X194706843Y-69192772D01*
X194771871Y-68997291D01*
X194797691Y-68792902D01*
X194798103Y-68763428D01*
X194796658Y-68748690D01*
X195227040Y-68748690D01*
X195244279Y-68953981D01*
X195245978Y-68959906D01*
X195295879Y-69133930D01*
X195301064Y-69152014D01*
X195303879Y-69157491D01*
X195303880Y-69157494D01*
X195324767Y-69198135D01*
X195395232Y-69335246D01*
X195523197Y-69496698D01*
X195680084Y-69630219D01*
X195859918Y-69730725D01*
X195954758Y-69761541D01*
X196049991Y-69792484D01*
X196049995Y-69792485D01*
X196055849Y-69794387D01*
X196260414Y-69818779D01*
X196266549Y-69818307D01*
X196266551Y-69818307D01*
X196322559Y-69813997D01*
X196465820Y-69802974D01*
X196471750Y-69801318D01*
X196471752Y-69801318D01*
X196658317Y-69749228D01*
X196658316Y-69749228D01*
X196664245Y-69747573D01*
X196669734Y-69744800D01*
X196669740Y-69744798D01*
X196842636Y-69657461D01*
X196848130Y-69654686D01*
X197010471Y-69527852D01*
X197145084Y-69371900D01*
X197165907Y-69335246D01*
X197243796Y-69198135D01*
X197246843Y-69192772D01*
X197311871Y-68997291D01*
X197337691Y-68792902D01*
X197338103Y-68763428D01*
X197318000Y-68558398D01*
X197258455Y-68361177D01*
X197161738Y-68179277D01*
X197088379Y-68089330D01*
X197035426Y-68024403D01*
X197035423Y-68024400D01*
X197031531Y-68019628D01*
X197014306Y-68005378D01*
X196877545Y-67892239D01*
X196877541Y-67892237D01*
X196872795Y-67888310D01*
X196691575Y-67790325D01*
X196494774Y-67729405D01*
X196488649Y-67728761D01*
X196488648Y-67728761D01*
X196296018Y-67708515D01*
X196296016Y-67708515D01*
X196289889Y-67707871D01*
X196203049Y-67715774D01*
X196090862Y-67725983D01*
X196090859Y-67725984D01*
X196084723Y-67726542D01*
X195887092Y-67784708D01*
X195704522Y-67880154D01*
X195699721Y-67884014D01*
X195699718Y-67884016D01*
X195689491Y-67892239D01*
X195543967Y-68009243D01*
X195411544Y-68167058D01*
X195408576Y-68172456D01*
X195408573Y-68172461D01*
X195401835Y-68184718D01*
X195312296Y-68347590D01*
X195250004Y-68543960D01*
X195249318Y-68550077D01*
X195249317Y-68550081D01*
X195227727Y-68742565D01*
X195227040Y-68748690D01*
X194796658Y-68748690D01*
X194778000Y-68558398D01*
X194718455Y-68361177D01*
X194621738Y-68179277D01*
X194548379Y-68089330D01*
X194495426Y-68024403D01*
X194495423Y-68024400D01*
X194491531Y-68019628D01*
X194474306Y-68005378D01*
X194337545Y-67892239D01*
X194337541Y-67892237D01*
X194332795Y-67888310D01*
X194151575Y-67790325D01*
X193954774Y-67729405D01*
X193948649Y-67728761D01*
X193948648Y-67728761D01*
X193756018Y-67708515D01*
X193756016Y-67708515D01*
X193749889Y-67707871D01*
X193663049Y-67715774D01*
X193550862Y-67725983D01*
X193550859Y-67725984D01*
X193544723Y-67726542D01*
X193347092Y-67784708D01*
X193164522Y-67880154D01*
X193159721Y-67884014D01*
X193159718Y-67884016D01*
X193149491Y-67892239D01*
X193003967Y-68009243D01*
X192871544Y-68167058D01*
X192868576Y-68172456D01*
X192868573Y-68172461D01*
X192772296Y-68347590D01*
X192769860Y-68346251D01*
X192731812Y-68391729D01*
X192661864Y-68412928D01*
X177114892Y-68412928D01*
X177046771Y-68392926D01*
X177025797Y-68376023D01*
X173819514Y-65169740D01*
X173785488Y-65107428D01*
X173783882Y-65098507D01*
X173769116Y-64995396D01*
X173769115Y-64995393D01*
X173767843Y-64986510D01*
X173708504Y-64856000D01*
X173690118Y-64834662D01*
X173620780Y-64754191D01*
X173620777Y-64754188D01*
X173614920Y-64747391D01*
X173494615Y-64669413D01*
X173357259Y-64628335D01*
X173348283Y-64628280D01*
X173348282Y-64628280D01*
X173288075Y-64627912D01*
X173213896Y-64627459D01*
X173076049Y-64666856D01*
X172954800Y-64743358D01*
X172859897Y-64850816D01*
X172798967Y-64980591D01*
X172797586Y-64989463D01*
X172779219Y-65107428D01*
X172776911Y-65122251D01*
X157733020Y-65122251D01*
X157733020Y-57122251D01*
X173526911Y-57122251D01*
X173545500Y-57264407D01*
X173603240Y-57395631D01*
X173695490Y-57505376D01*
X173713663Y-57517473D01*
X173791679Y-57569405D01*
X173814833Y-57584818D01*
X173951677Y-57627570D01*
X173960649Y-57627734D01*
X173960652Y-57627735D01*
X174025983Y-57628932D01*
X174095019Y-57630198D01*
X174104057Y-57627734D01*
X174224678Y-57594849D01*
X174224680Y-57594848D01*
X174233337Y-57592488D01*
X174355511Y-57517473D01*
X174361532Y-57510821D01*
X174361538Y-57510816D01*
X174440133Y-57423985D01*
X174500676Y-57386904D01*
X174571656Y-57388441D01*
X174629999Y-57427465D01*
X174695490Y-57505376D01*
X174713663Y-57517473D01*
X174791679Y-57569405D01*
X174814833Y-57584818D01*
X174951677Y-57627570D01*
X174986720Y-57628212D01*
X175054462Y-57649459D01*
X175073506Y-57665096D01*
X176223737Y-58815327D01*
X176235815Y-58830281D01*
X176239047Y-58833833D01*
X176244695Y-58842580D01*
X176252872Y-58849026D01*
X176268606Y-58861430D01*
X176272541Y-58864927D01*
X176272629Y-58864823D01*
X176276588Y-58868178D01*
X176280266Y-58871856D01*
X176284491Y-58874875D01*
X176284499Y-58874882D01*
X176294600Y-58882100D01*
X176299347Y-58885664D01*
X176336331Y-58914820D01*
X176344307Y-58917621D01*
X176351189Y-58922539D01*
X176396356Y-58936047D01*
X176401962Y-58937869D01*
X176438943Y-58950856D01*
X176438949Y-58950857D01*
X176446426Y-58953483D01*
X176451564Y-58953928D01*
X176454283Y-58953928D01*
X176456465Y-58954023D01*
X176457000Y-58954183D01*
X176456999Y-58954210D01*
X176457117Y-58954217D01*
X176462984Y-58955972D01*
X176512539Y-58954025D01*
X176517486Y-58953928D01*
X192664579Y-58953928D01*
X192732700Y-58973930D01*
X192776645Y-59022334D01*
X192852412Y-59169761D01*
X192852417Y-59169769D01*
X192855232Y-59175246D01*
X192983197Y-59336698D01*
X193140084Y-59470219D01*
X193319918Y-59570725D01*
X193414758Y-59601541D01*
X193509991Y-59632484D01*
X193509995Y-59632485D01*
X193515849Y-59634387D01*
X193720414Y-59658779D01*
X193726549Y-59658307D01*
X193726551Y-59658307D01*
X193782559Y-59653997D01*
X193925820Y-59642974D01*
X193931750Y-59641318D01*
X193931752Y-59641318D01*
X194118317Y-59589228D01*
X194118316Y-59589228D01*
X194124245Y-59587573D01*
X194129734Y-59584800D01*
X194129740Y-59584798D01*
X194302636Y-59497461D01*
X194308130Y-59494686D01*
X194470471Y-59367852D01*
X194605084Y-59211900D01*
X194625907Y-59175246D01*
X194703796Y-59038135D01*
X194706843Y-59032772D01*
X194771871Y-58837291D01*
X194797691Y-58632902D01*
X194798103Y-58603428D01*
X194796658Y-58588690D01*
X195227040Y-58588690D01*
X195244279Y-58793981D01*
X195245978Y-58799906D01*
X195295879Y-58973930D01*
X195301064Y-58992014D01*
X195303879Y-58997491D01*
X195303880Y-58997494D01*
X195324767Y-59038135D01*
X195395232Y-59175246D01*
X195523197Y-59336698D01*
X195680084Y-59470219D01*
X195859918Y-59570725D01*
X195954758Y-59601541D01*
X196049991Y-59632484D01*
X196049995Y-59632485D01*
X196055849Y-59634387D01*
X196260414Y-59658779D01*
X196266549Y-59658307D01*
X196266551Y-59658307D01*
X196322559Y-59653997D01*
X196465820Y-59642974D01*
X196471750Y-59641318D01*
X196471752Y-59641318D01*
X196658317Y-59589228D01*
X196658316Y-59589228D01*
X196664245Y-59587573D01*
X196669734Y-59584800D01*
X196669740Y-59584798D01*
X196842636Y-59497461D01*
X196848130Y-59494686D01*
X197010471Y-59367852D01*
X197145084Y-59211900D01*
X197165907Y-59175246D01*
X197243796Y-59038135D01*
X197246843Y-59032772D01*
X197311871Y-58837291D01*
X197337691Y-58632902D01*
X197338103Y-58603428D01*
X197318000Y-58398398D01*
X197258455Y-58201177D01*
X197161738Y-58019277D01*
X197088379Y-57929330D01*
X197035426Y-57864403D01*
X197035423Y-57864400D01*
X197031531Y-57859628D01*
X197014306Y-57845378D01*
X196877545Y-57732239D01*
X196877541Y-57732237D01*
X196872795Y-57728310D01*
X196691575Y-57630325D01*
X196494774Y-57569405D01*
X196488649Y-57568761D01*
X196488648Y-57568761D01*
X196296018Y-57548515D01*
X196296016Y-57548515D01*
X196289889Y-57547871D01*
X196203049Y-57555774D01*
X196090862Y-57565983D01*
X196090859Y-57565984D01*
X196084723Y-57566542D01*
X195887092Y-57624708D01*
X195881627Y-57627565D01*
X195879833Y-57628503D01*
X195704522Y-57720154D01*
X195699721Y-57724014D01*
X195699718Y-57724016D01*
X195689491Y-57732239D01*
X195543967Y-57849243D01*
X195411544Y-58007058D01*
X195408576Y-58012456D01*
X195408573Y-58012461D01*
X195401835Y-58024718D01*
X195312296Y-58187590D01*
X195250004Y-58383960D01*
X195249318Y-58390077D01*
X195249317Y-58390081D01*
X195227727Y-58582565D01*
X195227040Y-58588690D01*
X194796658Y-58588690D01*
X194778000Y-58398398D01*
X194718455Y-58201177D01*
X194621738Y-58019277D01*
X194548379Y-57929330D01*
X194495426Y-57864403D01*
X194495423Y-57864400D01*
X194491531Y-57859628D01*
X194474306Y-57845378D01*
X194337545Y-57732239D01*
X194337541Y-57732237D01*
X194332795Y-57728310D01*
X194151575Y-57630325D01*
X193954774Y-57569405D01*
X193948649Y-57568761D01*
X193948648Y-57568761D01*
X193756018Y-57548515D01*
X193756016Y-57548515D01*
X193749889Y-57547871D01*
X193663049Y-57555774D01*
X193550862Y-57565983D01*
X193550859Y-57565984D01*
X193544723Y-57566542D01*
X193347092Y-57624708D01*
X193341627Y-57627565D01*
X193339833Y-57628503D01*
X193164522Y-57720154D01*
X193159721Y-57724014D01*
X193159718Y-57724016D01*
X193149491Y-57732239D01*
X193003967Y-57849243D01*
X192871544Y-58007058D01*
X192868576Y-58012456D01*
X192868573Y-58012461D01*
X192772296Y-58187590D01*
X192769860Y-58186251D01*
X192731812Y-58231729D01*
X192661864Y-58252928D01*
X176704892Y-58252928D01*
X176636771Y-58232926D01*
X176615797Y-58216023D01*
X175569514Y-57169740D01*
X175535488Y-57107428D01*
X175533882Y-57098507D01*
X175519116Y-56995396D01*
X175519115Y-56995393D01*
X175517843Y-56986510D01*
X175458504Y-56856000D01*
X175407406Y-56796698D01*
X175370780Y-56754191D01*
X175370777Y-56754188D01*
X175364920Y-56747391D01*
X175244615Y-56669413D01*
X175236011Y-56666840D01*
X175231564Y-56664785D01*
X175178116Y-56618054D01*
X175158416Y-56549845D01*
X175178721Y-56481814D01*
X175195320Y-56461310D01*
X175205797Y-56450833D01*
X175268109Y-56416807D01*
X175294892Y-56413928D01*
X192664579Y-56413928D01*
X192732700Y-56433930D01*
X192776645Y-56482334D01*
X192852412Y-56629761D01*
X192852417Y-56629769D01*
X192855232Y-56635246D01*
X192983197Y-56796698D01*
X192987890Y-56800692D01*
X192987891Y-56800693D01*
X193122840Y-56915543D01*
X193140084Y-56930219D01*
X193319918Y-57030725D01*
X193382072Y-57050920D01*
X193509991Y-57092484D01*
X193509995Y-57092485D01*
X193515849Y-57094387D01*
X193720414Y-57118779D01*
X193726549Y-57118307D01*
X193726551Y-57118307D01*
X193782559Y-57113997D01*
X193925820Y-57102974D01*
X193931750Y-57101318D01*
X193931752Y-57101318D01*
X194118317Y-57049228D01*
X194118316Y-57049228D01*
X194124245Y-57047573D01*
X194129734Y-57044800D01*
X194129740Y-57044798D01*
X194262472Y-56977750D01*
X194308130Y-56954686D01*
X194470471Y-56827852D01*
X194536846Y-56750956D01*
X194601060Y-56676562D01*
X194601060Y-56676561D01*
X194605084Y-56671900D01*
X194625907Y-56635246D01*
X194703796Y-56498135D01*
X194706843Y-56492772D01*
X194771871Y-56297291D01*
X194797691Y-56092902D01*
X194798103Y-56063428D01*
X194796658Y-56048690D01*
X195227040Y-56048690D01*
X195227556Y-56054834D01*
X195240906Y-56213809D01*
X195244279Y-56253981D01*
X195245978Y-56259906D01*
X195295879Y-56433930D01*
X195301064Y-56452014D01*
X195303879Y-56457491D01*
X195303880Y-56457494D01*
X195391461Y-56627908D01*
X195395232Y-56635246D01*
X195523197Y-56796698D01*
X195527890Y-56800692D01*
X195527891Y-56800693D01*
X195662840Y-56915543D01*
X195680084Y-56930219D01*
X195859918Y-57030725D01*
X195922072Y-57050920D01*
X196049991Y-57092484D01*
X196049995Y-57092485D01*
X196055849Y-57094387D01*
X196260414Y-57118779D01*
X196266549Y-57118307D01*
X196266551Y-57118307D01*
X196322559Y-57113997D01*
X196465820Y-57102974D01*
X196471750Y-57101318D01*
X196471752Y-57101318D01*
X196658317Y-57049228D01*
X196658316Y-57049228D01*
X196664245Y-57047573D01*
X196669734Y-57044800D01*
X196669740Y-57044798D01*
X196802472Y-56977750D01*
X196848130Y-56954686D01*
X197010471Y-56827852D01*
X197076846Y-56750956D01*
X197141060Y-56676562D01*
X197141060Y-56676561D01*
X197145084Y-56671900D01*
X197164800Y-56637194D01*
X198474520Y-56637194D01*
X198474857Y-56643710D01*
X198484595Y-56737560D01*
X198487488Y-56750956D01*
X198538008Y-56902381D01*
X198544173Y-56915543D01*
X198627946Y-57050920D01*
X198636980Y-57062318D01*
X198749649Y-57174791D01*
X198761060Y-57183803D01*
X198896583Y-57267340D01*
X198909761Y-57273484D01*
X199061286Y-57323743D01*
X199074652Y-57326609D01*
X199167290Y-57336100D01*
X199173705Y-57336428D01*
X199185405Y-57336428D01*
X199200644Y-57331953D01*
X199201849Y-57330563D01*
X199203520Y-57322880D01*
X199203520Y-56613043D01*
X199199045Y-56597804D01*
X199197655Y-56596599D01*
X199189972Y-56594928D01*
X198492635Y-56594928D01*
X198477396Y-56599403D01*
X198476191Y-56600793D01*
X198474520Y-56608476D01*
X198474520Y-56637194D01*
X197164800Y-56637194D01*
X197165907Y-56635246D01*
X197243796Y-56498135D01*
X197246843Y-56492772D01*
X197311871Y-56297291D01*
X197337691Y-56092902D01*
X197338103Y-56063428D01*
X197318000Y-55858398D01*
X197258455Y-55661177D01*
X197161738Y-55479277D01*
X197046172Y-55337579D01*
X197035426Y-55324403D01*
X197035423Y-55324400D01*
X197031531Y-55319628D01*
X197014306Y-55305378D01*
X196877545Y-55192239D01*
X196877541Y-55192237D01*
X196872795Y-55188310D01*
X196691575Y-55090325D01*
X196494774Y-55029405D01*
X196488649Y-55028761D01*
X196488648Y-55028761D01*
X196296018Y-55008515D01*
X196296016Y-55008515D01*
X196289889Y-55007871D01*
X196203049Y-55015774D01*
X196090862Y-55025983D01*
X196090859Y-55025984D01*
X196084723Y-55026542D01*
X195887092Y-55084708D01*
X195704522Y-55180154D01*
X195699721Y-55184014D01*
X195699718Y-55184016D01*
X195591850Y-55270744D01*
X195543967Y-55309243D01*
X195411544Y-55467058D01*
X195408576Y-55472456D01*
X195408573Y-55472461D01*
X195327157Y-55620557D01*
X195312296Y-55647590D01*
X195250004Y-55843960D01*
X195249318Y-55850077D01*
X195249317Y-55850081D01*
X195243394Y-55902891D01*
X195227040Y-56048690D01*
X194796658Y-56048690D01*
X194778000Y-55858398D01*
X194718455Y-55661177D01*
X194621738Y-55479277D01*
X194506172Y-55337579D01*
X194495426Y-55324403D01*
X194495423Y-55324400D01*
X194491531Y-55319628D01*
X194474306Y-55305378D01*
X194337545Y-55192239D01*
X194337541Y-55192237D01*
X194332795Y-55188310D01*
X194151575Y-55090325D01*
X193954774Y-55029405D01*
X193948649Y-55028761D01*
X193948648Y-55028761D01*
X193756018Y-55008515D01*
X193756016Y-55008515D01*
X193749889Y-55007871D01*
X193663049Y-55015774D01*
X193550862Y-55025983D01*
X193550859Y-55025984D01*
X193544723Y-55026542D01*
X193347092Y-55084708D01*
X193164522Y-55180154D01*
X193159721Y-55184014D01*
X193159718Y-55184016D01*
X193051850Y-55270744D01*
X193003967Y-55309243D01*
X192871544Y-55467058D01*
X192868576Y-55472456D01*
X192868573Y-55472461D01*
X192772296Y-55647590D01*
X192769860Y-55646251D01*
X192731812Y-55691729D01*
X192661864Y-55712928D01*
X175148344Y-55712928D01*
X175129245Y-55710895D01*
X175124437Y-55710668D01*
X175114259Y-55708477D01*
X175084029Y-55712055D01*
X175078774Y-55712365D01*
X175078785Y-55712500D01*
X175073607Y-55712928D01*
X175068405Y-55712928D01*
X175051035Y-55715819D01*
X175045164Y-55716655D01*
X175008720Y-55720968D01*
X175008718Y-55720969D01*
X174998381Y-55722192D01*
X174990760Y-55725851D01*
X174982417Y-55727240D01*
X174973253Y-55732185D01*
X174973252Y-55732185D01*
X174940948Y-55749615D01*
X174935658Y-55752310D01*
X174900347Y-55769266D01*
X174900343Y-55769269D01*
X174893193Y-55772702D01*
X174889246Y-55776021D01*
X174887314Y-55777953D01*
X174885719Y-55779416D01*
X174885239Y-55779676D01*
X174885217Y-55779652D01*
X174885114Y-55779743D01*
X174879726Y-55782650D01*
X174846925Y-55818133D01*
X174846065Y-55819064D01*
X174842636Y-55822631D01*
X174074582Y-56590684D01*
X174012270Y-56624709D01*
X173984718Y-56627586D01*
X173976950Y-56627539D01*
X173963896Y-56627459D01*
X173826049Y-56666856D01*
X173704800Y-56743358D01*
X173609897Y-56850816D01*
X173548967Y-56980591D01*
X173541161Y-57030725D01*
X173529219Y-57107428D01*
X173526911Y-57122251D01*
X157733020Y-57122251D01*
X157733020Y-56665774D01*
X157753022Y-56597653D01*
X157769925Y-56576679D01*
X160837914Y-53508690D01*
X192687040Y-53508690D01*
X192704279Y-53713981D01*
X192705978Y-53719906D01*
X192750298Y-53874467D01*
X192761064Y-53912014D01*
X192763879Y-53917491D01*
X192763880Y-53917494D01*
X192784767Y-53958135D01*
X192855232Y-54095246D01*
X192983197Y-54256698D01*
X193140084Y-54390219D01*
X193319918Y-54490725D01*
X193414758Y-54521541D01*
X193509991Y-54552484D01*
X193509995Y-54552485D01*
X193515849Y-54554387D01*
X193720414Y-54578779D01*
X193726549Y-54578307D01*
X193726551Y-54578307D01*
X193782559Y-54573997D01*
X193925820Y-54562974D01*
X193931750Y-54561318D01*
X193931752Y-54561318D01*
X194118317Y-54509228D01*
X194118316Y-54509228D01*
X194124245Y-54507573D01*
X194129734Y-54504800D01*
X194129740Y-54504798D01*
X194302636Y-54417461D01*
X194308130Y-54414686D01*
X194470471Y-54287852D01*
X194534568Y-54213595D01*
X194601060Y-54136562D01*
X194601060Y-54136561D01*
X194605084Y-54131900D01*
X194625907Y-54095246D01*
X194646690Y-54058660D01*
X194706843Y-53952772D01*
X194771871Y-53757291D01*
X194797691Y-53552902D01*
X194798103Y-53523428D01*
X194796658Y-53508690D01*
X195227040Y-53508690D01*
X195244279Y-53713981D01*
X195245978Y-53719906D01*
X195290298Y-53874467D01*
X195301064Y-53912014D01*
X195303879Y-53917491D01*
X195303880Y-53917494D01*
X195324767Y-53958135D01*
X195395232Y-54095246D01*
X195523197Y-54256698D01*
X195680084Y-54390219D01*
X195859918Y-54490725D01*
X195954758Y-54521541D01*
X196049991Y-54552484D01*
X196049995Y-54552485D01*
X196055849Y-54554387D01*
X196260414Y-54578779D01*
X196266549Y-54578307D01*
X196266551Y-54578307D01*
X196322559Y-54573997D01*
X196465820Y-54562974D01*
X196471750Y-54561318D01*
X196471752Y-54561318D01*
X196658317Y-54509228D01*
X196658316Y-54509228D01*
X196664245Y-54507573D01*
X196669734Y-54504800D01*
X196669740Y-54504798D01*
X196842636Y-54417461D01*
X196848130Y-54414686D01*
X197010471Y-54287852D01*
X197074568Y-54213595D01*
X197141060Y-54136562D01*
X197141060Y-54136561D01*
X197145084Y-54131900D01*
X197165907Y-54095246D01*
X197186690Y-54058660D01*
X197246843Y-53952772D01*
X197311871Y-53757291D01*
X197337691Y-53552902D01*
X197338103Y-53523428D01*
X197318000Y-53318398D01*
X197258455Y-53121177D01*
X197161738Y-52939277D01*
X197088379Y-52849330D01*
X197035426Y-52784403D01*
X197035423Y-52784400D01*
X197031531Y-52779628D01*
X197014306Y-52765378D01*
X196877545Y-52652239D01*
X196877541Y-52652237D01*
X196872795Y-52648310D01*
X196691575Y-52550325D01*
X196494774Y-52489405D01*
X196488649Y-52488761D01*
X196488648Y-52488761D01*
X196296018Y-52468515D01*
X196296016Y-52468515D01*
X196289889Y-52467871D01*
X196203049Y-52475774D01*
X196090862Y-52485983D01*
X196090859Y-52485984D01*
X196084723Y-52486542D01*
X195887092Y-52544708D01*
X195704522Y-52640154D01*
X195699721Y-52644014D01*
X195699718Y-52644016D01*
X195689491Y-52652239D01*
X195543967Y-52769243D01*
X195411544Y-52927058D01*
X195408576Y-52932456D01*
X195408573Y-52932461D01*
X195357129Y-53026038D01*
X195312296Y-53107590D01*
X195250004Y-53303960D01*
X195249318Y-53310077D01*
X195249317Y-53310081D01*
X195232772Y-53457586D01*
X195227040Y-53508690D01*
X194796658Y-53508690D01*
X194778000Y-53318398D01*
X194718455Y-53121177D01*
X194621738Y-52939277D01*
X194548379Y-52849330D01*
X194495426Y-52784403D01*
X194495423Y-52784400D01*
X194491531Y-52779628D01*
X194474306Y-52765378D01*
X194337545Y-52652239D01*
X194337541Y-52652237D01*
X194332795Y-52648310D01*
X194151575Y-52550325D01*
X193954774Y-52489405D01*
X193948649Y-52488761D01*
X193948648Y-52488761D01*
X193756018Y-52468515D01*
X193756016Y-52468515D01*
X193749889Y-52467871D01*
X193663049Y-52475774D01*
X193550862Y-52485983D01*
X193550859Y-52485984D01*
X193544723Y-52486542D01*
X193347092Y-52544708D01*
X193164522Y-52640154D01*
X193159721Y-52644014D01*
X193159718Y-52644016D01*
X193149491Y-52652239D01*
X193003967Y-52769243D01*
X192871544Y-52927058D01*
X192868576Y-52932456D01*
X192868573Y-52932461D01*
X192817129Y-53026038D01*
X192772296Y-53107590D01*
X192710004Y-53303960D01*
X192709318Y-53310077D01*
X192709317Y-53310081D01*
X192692772Y-53457586D01*
X192687040Y-53508690D01*
X160837914Y-53508690D01*
X162625771Y-51720833D01*
X162688083Y-51686807D01*
X162714866Y-51683928D01*
X192898903Y-51683928D01*
X192967024Y-51703930D01*
X192982947Y-51716992D01*
X192983197Y-51716698D01*
X193075490Y-51795245D01*
X193140084Y-51850219D01*
X193319918Y-51950725D01*
X193414758Y-51981541D01*
X193509991Y-52012484D01*
X193509995Y-52012485D01*
X193515849Y-52014387D01*
X193720414Y-52038779D01*
X193726549Y-52038307D01*
X193726551Y-52038307D01*
X193782559Y-52033997D01*
X193925820Y-52022974D01*
X193931750Y-52021318D01*
X193931752Y-52021318D01*
X194118317Y-51969228D01*
X194118316Y-51969228D01*
X194124245Y-51967573D01*
X194129734Y-51964800D01*
X194129740Y-51964798D01*
X194302636Y-51877461D01*
X194308130Y-51874686D01*
X194470471Y-51747852D01*
X194497109Y-51716992D01*
X194601060Y-51596562D01*
X194601060Y-51596561D01*
X194605084Y-51591900D01*
X194625907Y-51555246D01*
X194703796Y-51418135D01*
X194706843Y-51412772D01*
X194771871Y-51217291D01*
X194797691Y-51012902D01*
X194798103Y-50983428D01*
X194778000Y-50778398D01*
X194718455Y-50581177D01*
X194621738Y-50399277D01*
X194532292Y-50289606D01*
X194495426Y-50244403D01*
X194495423Y-50244400D01*
X194491531Y-50239628D01*
X194474306Y-50225378D01*
X194337545Y-50112239D01*
X194337541Y-50112237D01*
X194332795Y-50108310D01*
X194294772Y-50087751D01*
X194203246Y-50038263D01*
X194152837Y-49988268D01*
X194137460Y-49918957D01*
X194161996Y-49852335D01*
X194218656Y-49809554D01*
X194263175Y-49801427D01*
X194637189Y-49801427D01*
X194644010Y-49801057D01*
X194694872Y-49795533D01*
X194710124Y-49791907D01*
X194830574Y-49746752D01*
X194846169Y-49738214D01*
X194948244Y-49661713D01*
X194960805Y-49649152D01*
X195037306Y-49547077D01*
X195045845Y-49531480D01*
X195086945Y-49421846D01*
X195129586Y-49365081D01*
X195196148Y-49340381D01*
X195265497Y-49355588D01*
X195300165Y-49383578D01*
X195325739Y-49413102D01*
X195333100Y-49420311D01*
X195496954Y-49556344D01*
X195505401Y-49562259D01*
X195689276Y-49669707D01*
X195698562Y-49674157D01*
X195897521Y-49750131D01*
X195912386Y-49754450D01*
X195911809Y-49756436D01*
X195966780Y-49785510D01*
X196001630Y-49847364D01*
X195997508Y-49918241D01*
X195955721Y-49975637D01*
X195914450Y-49996656D01*
X195893009Y-50002966D01*
X195893004Y-50002968D01*
X195887092Y-50004708D01*
X195881627Y-50007565D01*
X195870743Y-50013255D01*
X195704522Y-50100154D01*
X195699721Y-50104014D01*
X195699718Y-50104016D01*
X195615647Y-50171611D01*
X195543967Y-50229243D01*
X195411544Y-50387058D01*
X195408576Y-50392456D01*
X195408573Y-50392461D01*
X195318337Y-50556602D01*
X195312296Y-50567590D01*
X195250004Y-50763960D01*
X195249318Y-50770077D01*
X195249317Y-50770081D01*
X195227727Y-50962565D01*
X195227040Y-50968690D01*
X195244279Y-51173981D01*
X195245978Y-51179906D01*
X195295879Y-51353930D01*
X195301064Y-51372014D01*
X195303879Y-51377491D01*
X195303880Y-51377494D01*
X195390759Y-51546542D01*
X195395232Y-51555246D01*
X195523197Y-51716698D01*
X195527890Y-51720692D01*
X195527891Y-51720693D01*
X195615490Y-51795245D01*
X195680084Y-51850219D01*
X195859918Y-51950725D01*
X195954758Y-51981541D01*
X196049991Y-52012484D01*
X196049995Y-52012485D01*
X196055849Y-52014387D01*
X196260414Y-52038779D01*
X196266549Y-52038307D01*
X196266551Y-52038307D01*
X196322559Y-52033997D01*
X196465820Y-52022974D01*
X196471750Y-52021318D01*
X196471752Y-52021318D01*
X196658317Y-51969228D01*
X196658316Y-51969228D01*
X196664245Y-51967573D01*
X196669734Y-51964800D01*
X196669740Y-51964798D01*
X196842636Y-51877461D01*
X196848130Y-51874686D01*
X197010471Y-51747852D01*
X197037109Y-51716992D01*
X197141060Y-51596562D01*
X197141060Y-51596561D01*
X197145084Y-51591900D01*
X197162690Y-51560909D01*
X197243797Y-51418134D01*
X197246843Y-51412772D01*
X197248331Y-51408298D01*
X197293983Y-51354585D01*
X197363113Y-51333928D01*
X198654426Y-51333928D01*
X198722547Y-51353930D01*
X198769040Y-51407586D01*
X198779144Y-51477860D01*
X198749650Y-51542440D01*
X198696174Y-51578811D01*
X198628226Y-51602672D01*
X198628224Y-51602673D01*
X198619337Y-51605794D01*
X198510370Y-51686278D01*
X198429886Y-51795245D01*
X198426765Y-51804132D01*
X198426764Y-51804134D01*
X198401014Y-51877461D01*
X198385001Y-51923060D01*
X198382020Y-51954595D01*
X198382021Y-52987260D01*
X198385001Y-53018796D01*
X198387544Y-53026037D01*
X198387544Y-53026038D01*
X198414288Y-53102193D01*
X198429886Y-53146611D01*
X198510370Y-53255578D01*
X198619337Y-53336062D01*
X198628224Y-53339183D01*
X198628226Y-53339184D01*
X198726520Y-53373702D01*
X198747152Y-53380947D01*
X198754798Y-53381670D01*
X198754799Y-53381670D01*
X198760769Y-53382234D01*
X198778687Y-53383928D01*
X198981020Y-53383928D01*
X199049141Y-53403930D01*
X199095634Y-53457586D01*
X199107020Y-53509928D01*
X199107020Y-53752067D01*
X199087018Y-53820188D01*
X199033362Y-53866681D01*
X199022772Y-53870948D01*
X199021642Y-53871345D01*
X199012752Y-53874467D01*
X199005177Y-53880062D01*
X199005175Y-53880063D01*
X198914659Y-53946919D01*
X198906809Y-53952717D01*
X198828559Y-54058660D01*
X198825438Y-54067547D01*
X198825437Y-54067549D01*
X198787464Y-54175680D01*
X198784919Y-54182928D01*
X198782020Y-54213595D01*
X198782021Y-54818260D01*
X198784919Y-54848928D01*
X198828559Y-54973196D01*
X198834154Y-54980771D01*
X198834155Y-54980773D01*
X198870075Y-55029405D01*
X198906809Y-55079139D01*
X199005992Y-55152396D01*
X199005995Y-55152399D01*
X199012752Y-55157389D01*
X199012067Y-55158316D01*
X199056454Y-55201571D01*
X199072441Y-55270744D01*
X199048491Y-55337579D01*
X198986533Y-55382903D01*
X198908572Y-55408913D01*
X198895405Y-55415081D01*
X198760028Y-55498854D01*
X198748630Y-55507888D01*
X198636157Y-55620557D01*
X198627145Y-55631968D01*
X198543608Y-55767491D01*
X198537464Y-55780669D01*
X198487205Y-55932194D01*
X198484339Y-55945560D01*
X198474848Y-56038198D01*
X198474520Y-56044613D01*
X198474520Y-56068813D01*
X198478995Y-56084052D01*
X198480385Y-56085257D01*
X198488068Y-56086928D01*
X199585520Y-56086928D01*
X199653641Y-56106930D01*
X199700134Y-56160586D01*
X199711520Y-56212928D01*
X199711520Y-57318313D01*
X199715995Y-57333552D01*
X199717385Y-57334757D01*
X199725068Y-57336428D01*
X199741286Y-57336428D01*
X199747802Y-57336091D01*
X199841652Y-57326353D01*
X199855048Y-57323460D01*
X199866644Y-57319591D01*
X199937593Y-57317007D01*
X199998677Y-57353190D01*
X200030502Y-57416655D01*
X200032520Y-57439115D01*
X200032520Y-89914685D01*
X200012518Y-89982806D01*
X199958862Y-90029299D01*
X199888588Y-90039403D01*
X199824008Y-90009909D01*
X199811067Y-89996933D01*
X199795780Y-89979191D01*
X199795777Y-89979188D01*
X199789920Y-89972391D01*
X199669615Y-89894413D01*
X199532259Y-89853335D01*
X199523283Y-89853280D01*
X199523282Y-89853280D01*
X199463075Y-89852912D01*
X199388896Y-89852459D01*
X199251049Y-89891856D01*
X199129800Y-89968358D01*
X199123858Y-89975086D01*
X199123857Y-89975087D01*
X199093104Y-90009909D01*
X199034897Y-90075816D01*
X198973967Y-90205591D01*
X198951911Y-90347251D01*
X198970500Y-90489407D01*
X199005309Y-90568515D01*
X199011699Y-90583038D01*
X199020827Y-90653445D01*
X198990440Y-90717610D01*
X198971229Y-90735136D01*
X198906809Y-90782717D01*
X198901217Y-90790288D01*
X198844174Y-90867519D01*
X198828559Y-90888660D01*
X198784919Y-91012928D01*
X198784189Y-91012671D01*
X198752954Y-91069627D01*
X198690581Y-91103540D01*
X198619774Y-91098347D01*
X198563016Y-91055698D01*
X198538325Y-90989133D01*
X198538020Y-90980371D01*
X198538020Y-63099254D01*
X198540053Y-63080155D01*
X198540280Y-63075351D01*
X198542472Y-63065168D01*
X198538893Y-63034929D01*
X198538584Y-63029681D01*
X198538448Y-63029692D01*
X198538020Y-63024513D01*
X198538020Y-63019313D01*
X198537167Y-63014187D01*
X198537166Y-63014178D01*
X198535133Y-63001965D01*
X198534296Y-62996089D01*
X198529981Y-62959631D01*
X198529981Y-62959630D01*
X198528757Y-62949290D01*
X198525096Y-62941667D01*
X198523708Y-62933325D01*
X198501326Y-62891844D01*
X198498653Y-62886597D01*
X198478247Y-62844102D01*
X198474928Y-62840154D01*
X198472999Y-62838225D01*
X198471530Y-62836624D01*
X198471273Y-62836147D01*
X198471296Y-62836126D01*
X198471207Y-62836025D01*
X198468298Y-62830634D01*
X198431884Y-62796973D01*
X198428318Y-62793544D01*
X197836303Y-62201529D01*
X197824225Y-62186575D01*
X197820993Y-62183023D01*
X197815345Y-62174276D01*
X197791434Y-62155426D01*
X197787499Y-62151929D01*
X197787411Y-62152033D01*
X197783452Y-62148678D01*
X197779774Y-62145000D01*
X197775549Y-62141981D01*
X197775541Y-62141974D01*
X197765440Y-62134756D01*
X197760693Y-62131192D01*
X197750238Y-62122950D01*
X197723709Y-62102036D01*
X197715733Y-62099235D01*
X197708851Y-62094317D01*
X197663684Y-62080809D01*
X197658078Y-62078987D01*
X197621097Y-62066000D01*
X197621091Y-62065999D01*
X197613614Y-62063373D01*
X197608476Y-62062928D01*
X197605757Y-62062928D01*
X197603575Y-62062833D01*
X197603040Y-62062673D01*
X197603041Y-62062646D01*
X197602923Y-62062639D01*
X197597056Y-62060884D01*
X197547501Y-62062831D01*
X197542554Y-62062928D01*
X197151821Y-62062928D01*
X197083700Y-62042926D01*
X197037207Y-61989270D01*
X197027103Y-61918996D01*
X197056439Y-61854597D01*
X197141060Y-61756562D01*
X197141060Y-61756561D01*
X197145084Y-61751900D01*
X197165907Y-61715246D01*
X197218735Y-61622251D01*
X197246843Y-61572772D01*
X197311871Y-61377291D01*
X197337691Y-61172902D01*
X197338103Y-61143428D01*
X197318000Y-60938398D01*
X197258455Y-60741177D01*
X197161738Y-60559277D01*
X197088379Y-60469330D01*
X197035426Y-60404403D01*
X197035423Y-60404400D01*
X197031531Y-60399628D01*
X197014306Y-60385378D01*
X196877545Y-60272239D01*
X196877541Y-60272237D01*
X196872795Y-60268310D01*
X196691575Y-60170325D01*
X196494774Y-60109405D01*
X196488649Y-60108761D01*
X196488648Y-60108761D01*
X196296018Y-60088515D01*
X196296016Y-60088515D01*
X196289889Y-60087871D01*
X196203049Y-60095774D01*
X196090862Y-60105983D01*
X196090859Y-60105984D01*
X196084723Y-60106542D01*
X195887092Y-60164708D01*
X195704522Y-60260154D01*
X195699721Y-60264014D01*
X195699718Y-60264016D01*
X195689491Y-60272239D01*
X195543967Y-60389243D01*
X195411544Y-60547058D01*
X195408576Y-60552456D01*
X195408573Y-60552461D01*
X195401835Y-60564718D01*
X195312296Y-60727590D01*
X195310433Y-60733463D01*
X195275498Y-60843594D01*
X195250004Y-60923960D01*
X195249318Y-60930077D01*
X195249317Y-60930081D01*
X195246907Y-60951567D01*
X195227040Y-61128690D01*
X195244279Y-61333981D01*
X195245978Y-61339906D01*
X195298637Y-61523549D01*
X195301064Y-61532014D01*
X195303879Y-61537491D01*
X195303880Y-61537494D01*
X195339821Y-61607428D01*
X195395232Y-61715246D01*
X195440712Y-61772627D01*
X195508903Y-61858663D01*
X195535541Y-61924473D01*
X195522370Y-61994238D01*
X195473573Y-62045806D01*
X195410158Y-62062928D01*
X194611821Y-62062928D01*
X194543700Y-62042926D01*
X194497207Y-61989270D01*
X194487103Y-61918996D01*
X194516439Y-61854597D01*
X194601060Y-61756562D01*
X194601060Y-61756561D01*
X194605084Y-61751900D01*
X194625907Y-61715246D01*
X194678735Y-61622251D01*
X194706843Y-61572772D01*
X194771871Y-61377291D01*
X194797691Y-61172902D01*
X194798103Y-61143428D01*
X194778000Y-60938398D01*
X194718455Y-60741177D01*
X194621738Y-60559277D01*
X194548379Y-60469330D01*
X194495426Y-60404403D01*
X194495423Y-60404400D01*
X194491531Y-60399628D01*
X194474306Y-60385378D01*
X194337545Y-60272239D01*
X194337541Y-60272237D01*
X194332795Y-60268310D01*
X194151575Y-60170325D01*
X193954774Y-60109405D01*
X193948649Y-60108761D01*
X193948648Y-60108761D01*
X193756018Y-60088515D01*
X193756016Y-60088515D01*
X193749889Y-60087871D01*
X193663049Y-60095774D01*
X193550862Y-60105983D01*
X193550859Y-60105984D01*
X193544723Y-60106542D01*
X193347092Y-60164708D01*
X193164522Y-60260154D01*
X193159721Y-60264014D01*
X193159718Y-60264016D01*
X193149491Y-60272239D01*
X193003967Y-60389243D01*
X192871544Y-60547058D01*
X192868576Y-60552456D01*
X192868573Y-60552461D01*
X192861835Y-60564718D01*
X192772296Y-60727590D01*
X192766115Y-60747077D01*
X192763593Y-60755026D01*
X192723930Y-60813910D01*
X192658728Y-60842003D01*
X192643491Y-60842928D01*
X178069886Y-60842928D01*
X178067213Y-60842732D01*
X178062178Y-60841003D01*
X178050556Y-60841439D01*
X178050554Y-60841439D01*
X178013265Y-60842839D01*
X178008539Y-60842928D01*
X177989572Y-60842928D01*
X177984837Y-60843810D01*
X177981311Y-60844038D01*
X177977571Y-60844179D01*
X177950312Y-60845202D01*
X177939627Y-60849792D01*
X177935027Y-60850829D01*
X177923306Y-60854390D01*
X177918903Y-60856089D01*
X177907467Y-60858219D01*
X177886481Y-60871155D01*
X177870109Y-60879659D01*
X177855632Y-60885879D01*
X177855628Y-60885881D01*
X177847457Y-60889392D01*
X177842571Y-60893406D01*
X177840386Y-60895591D01*
X177838123Y-60897643D01*
X177837978Y-60897483D01*
X177828971Y-60904603D01*
X177822076Y-60910855D01*
X177812172Y-60916960D01*
X177795604Y-60938748D01*
X177784410Y-60951567D01*
X176644864Y-62091113D01*
X176582552Y-62125139D01*
X176555002Y-62128016D01*
X176463896Y-62127459D01*
X176326049Y-62166856D01*
X176204800Y-62243358D01*
X176127643Y-62330723D01*
X176126619Y-62331882D01*
X176066533Y-62369701D01*
X175995540Y-62369031D01*
X175936724Y-62330723D01*
X175870780Y-62254191D01*
X175870777Y-62254188D01*
X175864920Y-62247391D01*
X175744615Y-62169413D01*
X175607259Y-62128335D01*
X175598283Y-62128280D01*
X175598282Y-62128280D01*
X175538075Y-62127912D01*
X175463896Y-62127459D01*
X175326049Y-62166856D01*
X175204800Y-62243358D01*
X175109897Y-62350816D01*
X175048967Y-62480591D01*
X175026911Y-62622251D01*
X175028075Y-62631153D01*
X175028075Y-62631156D01*
X175029334Y-62640782D01*
X175045500Y-62764407D01*
X175049117Y-62772627D01*
X175074615Y-62830576D01*
X175083743Y-62900983D01*
X175053356Y-62965149D01*
X174993102Y-63002699D01*
X174922113Y-63001714D01*
X174870191Y-62970417D01*
X173569514Y-61669740D01*
X173535488Y-61607428D01*
X173533882Y-61598507D01*
X173519116Y-61495396D01*
X173519115Y-61495393D01*
X173517843Y-61486510D01*
X173458504Y-61356000D01*
X173434239Y-61327839D01*
X173370780Y-61254191D01*
X173370777Y-61254188D01*
X173364920Y-61247391D01*
X173244615Y-61169413D01*
X173107259Y-61128335D01*
X173098283Y-61128280D01*
X173098282Y-61128280D01*
X173038075Y-61127912D01*
X172963896Y-61127459D01*
X172826049Y-61166856D01*
X172704800Y-61243358D01*
X172609897Y-61350816D01*
X172548967Y-61480591D01*
X172547586Y-61489463D01*
X172529219Y-61607428D01*
X172526911Y-61622251D01*
X172545500Y-61764407D01*
X172603240Y-61895631D01*
X172609017Y-61902504D01*
X172609018Y-61902505D01*
X172689710Y-61998500D01*
X172695490Y-62005376D01*
X172728693Y-62027478D01*
X172782036Y-62062986D01*
X172814833Y-62084818D01*
X172823408Y-62087497D01*
X172835690Y-62091334D01*
X172951677Y-62127570D01*
X172986720Y-62128212D01*
X173054462Y-62149459D01*
X173073506Y-62165096D01*
X177343737Y-66435327D01*
X177355815Y-66450281D01*
X177359047Y-66453833D01*
X177364695Y-66462580D01*
X177372872Y-66469026D01*
X177388606Y-66481430D01*
X177392541Y-66484927D01*
X177392629Y-66484823D01*
X177396588Y-66488178D01*
X177400266Y-66491856D01*
X177404491Y-66494875D01*
X177404499Y-66494882D01*
X177414600Y-66502100D01*
X177419347Y-66505664D01*
X177456331Y-66534820D01*
X177464307Y-66537621D01*
X177471189Y-66542539D01*
X177481167Y-66545523D01*
X177516311Y-66556033D01*
X177521957Y-66557867D01*
X177558947Y-66570857D01*
X177558950Y-66570858D01*
X177566426Y-66573483D01*
X177571564Y-66573928D01*
X177574269Y-66573928D01*
X177576468Y-66574023D01*
X177577000Y-66574182D01*
X177576999Y-66574209D01*
X177577115Y-66574216D01*
X177582983Y-66575971D01*
X177632523Y-66574025D01*
X177637470Y-66573928D01*
X192664579Y-66573928D01*
X192732700Y-66593930D01*
X192776645Y-66642334D01*
X192852412Y-66789761D01*
X192852417Y-66789769D01*
X192855232Y-66795246D01*
X192983197Y-66956698D01*
X193140084Y-67090219D01*
X193319918Y-67190725D01*
X193414758Y-67221541D01*
X193509991Y-67252484D01*
X193509995Y-67252485D01*
X193515849Y-67254387D01*
X193720414Y-67278779D01*
X193726549Y-67278307D01*
X193726551Y-67278307D01*
X193782559Y-67273997D01*
X193925820Y-67262974D01*
X193931750Y-67261318D01*
X193931752Y-67261318D01*
X194118317Y-67209228D01*
X194118316Y-67209228D01*
X194124245Y-67207573D01*
X194129734Y-67204800D01*
X194129740Y-67204798D01*
X194302636Y-67117461D01*
X194308130Y-67114686D01*
X194470471Y-66987852D01*
X194605084Y-66831900D01*
X194625907Y-66795246D01*
X194703796Y-66658135D01*
X194706843Y-66652772D01*
X194771871Y-66457291D01*
X194797691Y-66252902D01*
X194798103Y-66223428D01*
X194796658Y-66208690D01*
X195227040Y-66208690D01*
X195244279Y-66413981D01*
X195245978Y-66419906D01*
X195295879Y-66593930D01*
X195301064Y-66612014D01*
X195303879Y-66617491D01*
X195303880Y-66617494D01*
X195324767Y-66658135D01*
X195395232Y-66795246D01*
X195523197Y-66956698D01*
X195680084Y-67090219D01*
X195859918Y-67190725D01*
X195954758Y-67221541D01*
X196049991Y-67252484D01*
X196049995Y-67252485D01*
X196055849Y-67254387D01*
X196260414Y-67278779D01*
X196266549Y-67278307D01*
X196266551Y-67278307D01*
X196322559Y-67273997D01*
X196465820Y-67262974D01*
X196471750Y-67261318D01*
X196471752Y-67261318D01*
X196658317Y-67209228D01*
X196658316Y-67209228D01*
X196664245Y-67207573D01*
X196669734Y-67204800D01*
X196669740Y-67204798D01*
X196842636Y-67117461D01*
X196848130Y-67114686D01*
X197010471Y-66987852D01*
X197145084Y-66831900D01*
X197165907Y-66795246D01*
X197243796Y-66658135D01*
X197246843Y-66652772D01*
X197311871Y-66457291D01*
X197337691Y-66252902D01*
X197338103Y-66223428D01*
X197318000Y-66018398D01*
X197258455Y-65821177D01*
X197161738Y-65639277D01*
X197046923Y-65498500D01*
X197035426Y-65484403D01*
X197035423Y-65484400D01*
X197031531Y-65479628D01*
X197014306Y-65465378D01*
X196877545Y-65352239D01*
X196877541Y-65352237D01*
X196872795Y-65348310D01*
X196691575Y-65250325D01*
X196494774Y-65189405D01*
X196488649Y-65188761D01*
X196488648Y-65188761D01*
X196296018Y-65168515D01*
X196296016Y-65168515D01*
X196289889Y-65167871D01*
X196203049Y-65175774D01*
X196090862Y-65185983D01*
X196090859Y-65185984D01*
X196084723Y-65186542D01*
X195887092Y-65244708D01*
X195704522Y-65340154D01*
X195699721Y-65344014D01*
X195699718Y-65344016D01*
X195548774Y-65465378D01*
X195543967Y-65469243D01*
X195411544Y-65627058D01*
X195408576Y-65632456D01*
X195408573Y-65632461D01*
X195390632Y-65665096D01*
X195312296Y-65807590D01*
X195250004Y-66003960D01*
X195249318Y-66010077D01*
X195249317Y-66010081D01*
X195227727Y-66202565D01*
X195227040Y-66208690D01*
X194796658Y-66208690D01*
X194778000Y-66018398D01*
X194718455Y-65821177D01*
X194621738Y-65639277D01*
X194506923Y-65498500D01*
X194495426Y-65484403D01*
X194495423Y-65484400D01*
X194491531Y-65479628D01*
X194474306Y-65465378D01*
X194337545Y-65352239D01*
X194337541Y-65352237D01*
X194332795Y-65348310D01*
X194151575Y-65250325D01*
X193954774Y-65189405D01*
X193948649Y-65188761D01*
X193948648Y-65188761D01*
X193756018Y-65168515D01*
X193756016Y-65168515D01*
X193749889Y-65167871D01*
X193663049Y-65175774D01*
X193550862Y-65185983D01*
X193550859Y-65185984D01*
X193544723Y-65186542D01*
X193347092Y-65244708D01*
X193164522Y-65340154D01*
X193159721Y-65344014D01*
X193159718Y-65344016D01*
X193008774Y-65465378D01*
X193003967Y-65469243D01*
X192871544Y-65627058D01*
X192868576Y-65632456D01*
X192868573Y-65632461D01*
X192772296Y-65807590D01*
X192769860Y-65806251D01*
X192731812Y-65851729D01*
X192661864Y-65872928D01*
X177824892Y-65872928D01*
X177756771Y-65852926D01*
X177735797Y-65836023D01*
X175196584Y-63296810D01*
X175162558Y-63234498D01*
X175167623Y-63163683D01*
X175210170Y-63106847D01*
X175276690Y-63082036D01*
X175323251Y-63087448D01*
X175451677Y-63127570D01*
X175460649Y-63127734D01*
X175460652Y-63127735D01*
X175542688Y-63129239D01*
X175558752Y-63129533D01*
X175626494Y-63150781D01*
X175645537Y-63166417D01*
X176338004Y-63858884D01*
X176339758Y-63860915D01*
X176342095Y-63865697D01*
X176350624Y-63873609D01*
X176350625Y-63873610D01*
X176377983Y-63898988D01*
X176381388Y-63902268D01*
X176394796Y-63915676D01*
X176398775Y-63918406D01*
X176401404Y-63920714D01*
X176424166Y-63941829D01*
X176434973Y-63946140D01*
X176438968Y-63948666D01*
X176449762Y-63954429D01*
X176454074Y-63956340D01*
X176463666Y-63962920D01*
X176474983Y-63965606D01*
X176474984Y-63965606D01*
X176487647Y-63968611D01*
X176505244Y-63974176D01*
X176519882Y-63980016D01*
X176519885Y-63980017D01*
X176528142Y-63983311D01*
X176534435Y-63983928D01*
X176537514Y-63983928D01*
X176540587Y-63984078D01*
X176540576Y-63984294D01*
X176551951Y-63985626D01*
X176561266Y-63986082D01*
X176572586Y-63988768D01*
X176584115Y-63987199D01*
X176584116Y-63987199D01*
X176599693Y-63985079D01*
X176616684Y-63983928D01*
X192641206Y-63983928D01*
X192709327Y-64003930D01*
X192758360Y-64063549D01*
X192759363Y-64066083D01*
X192761064Y-64072014D01*
X192855232Y-64255246D01*
X192983197Y-64416698D01*
X193140084Y-64550219D01*
X193319918Y-64650725D01*
X193377434Y-64669413D01*
X193509991Y-64712484D01*
X193509995Y-64712485D01*
X193515849Y-64714387D01*
X193720414Y-64738779D01*
X193726549Y-64738307D01*
X193726551Y-64738307D01*
X193782559Y-64733997D01*
X193925820Y-64722974D01*
X193931750Y-64721318D01*
X193931752Y-64721318D01*
X194100155Y-64674299D01*
X194124245Y-64667573D01*
X194129734Y-64664800D01*
X194129740Y-64664798D01*
X194302636Y-64577461D01*
X194308130Y-64574686D01*
X194470471Y-64447852D01*
X194605084Y-64291900D01*
X194625907Y-64255246D01*
X194703796Y-64118135D01*
X194706843Y-64112772D01*
X194771871Y-63917291D01*
X194797691Y-63712902D01*
X194798103Y-63683428D01*
X194778000Y-63478398D01*
X194718455Y-63281177D01*
X194621738Y-63099277D01*
X194612091Y-63087448D01*
X194545154Y-63005376D01*
X194515946Y-62969563D01*
X194488392Y-62904132D01*
X194500587Y-62834191D01*
X194548660Y-62781946D01*
X194613589Y-62763928D01*
X195412476Y-62763928D01*
X195480597Y-62783930D01*
X195527090Y-62837586D01*
X195537194Y-62907860D01*
X195508998Y-62970917D01*
X195411544Y-63087058D01*
X195408576Y-63092456D01*
X195408573Y-63092461D01*
X195338999Y-63219017D01*
X195312296Y-63267590D01*
X195250004Y-63463960D01*
X195249318Y-63470077D01*
X195249317Y-63470081D01*
X195227727Y-63662565D01*
X195227040Y-63668690D01*
X195244279Y-63873981D01*
X195245978Y-63879906D01*
X195298637Y-64063549D01*
X195301064Y-64072014D01*
X195303879Y-64077491D01*
X195303880Y-64077494D01*
X195324767Y-64118135D01*
X195395232Y-64255246D01*
X195523197Y-64416698D01*
X195680084Y-64550219D01*
X195859918Y-64650725D01*
X195917434Y-64669413D01*
X196049991Y-64712484D01*
X196049995Y-64712485D01*
X196055849Y-64714387D01*
X196260414Y-64738779D01*
X196266549Y-64738307D01*
X196266551Y-64738307D01*
X196322559Y-64733997D01*
X196465820Y-64722974D01*
X196471750Y-64721318D01*
X196471752Y-64721318D01*
X196640155Y-64674299D01*
X196664245Y-64667573D01*
X196669734Y-64664800D01*
X196669740Y-64664798D01*
X196842636Y-64577461D01*
X196848130Y-64574686D01*
X197010471Y-64447852D01*
X197145084Y-64291900D01*
X197165907Y-64255246D01*
X197243796Y-64118135D01*
X197246843Y-64112772D01*
X197311871Y-63917291D01*
X197337691Y-63712902D01*
X197338103Y-63683428D01*
X197318000Y-63478398D01*
X197258455Y-63281177D01*
X197161738Y-63099277D01*
X197152091Y-63087448D01*
X197085154Y-63005376D01*
X197055946Y-62969563D01*
X197028392Y-62904132D01*
X197040587Y-62834191D01*
X197088660Y-62781946D01*
X197153589Y-62763928D01*
X197355148Y-62763928D01*
X197423269Y-62783930D01*
X197444243Y-62800833D01*
X197800115Y-63156705D01*
X197834141Y-63219017D01*
X197837020Y-63245800D01*
X197837020Y-95871056D01*
X197817018Y-95939177D01*
X197800115Y-95960151D01*
X197448508Y-96311758D01*
X197386196Y-96345784D01*
X197315381Y-96340719D01*
X197258545Y-96298172D01*
X197248161Y-96281816D01*
X197206033Y-96202585D01*
X197161738Y-96119277D01*
X197069536Y-96006226D01*
X197035426Y-95964403D01*
X197035423Y-95964400D01*
X197031531Y-95959628D01*
X197024693Y-95953971D01*
X196877545Y-95832239D01*
X196877541Y-95832237D01*
X196872795Y-95828310D01*
X196691575Y-95730325D01*
X196494774Y-95669405D01*
X196488649Y-95668761D01*
X196488648Y-95668761D01*
X196296018Y-95648515D01*
X196296016Y-95648515D01*
X196289889Y-95647871D01*
X196203049Y-95655774D01*
X196090862Y-95665983D01*
X196090859Y-95665984D01*
X196084723Y-95666542D01*
X195887092Y-95724708D01*
X195881627Y-95727565D01*
X195870743Y-95733255D01*
X195704522Y-95820154D01*
X195699721Y-95824014D01*
X195699718Y-95824016D01*
X195548774Y-95945378D01*
X195543967Y-95949243D01*
X195411544Y-96107058D01*
X195408576Y-96112456D01*
X195408573Y-96112461D01*
X195322906Y-96268291D01*
X195312296Y-96287590D01*
X195250004Y-96483960D01*
X195249318Y-96490077D01*
X195249317Y-96490081D01*
X195234837Y-96619179D01*
X195227040Y-96688690D01*
X195227556Y-96694834D01*
X195239707Y-96839531D01*
X195244279Y-96893981D01*
X195245978Y-96899906D01*
X195295155Y-97071406D01*
X195301064Y-97092014D01*
X195303879Y-97097491D01*
X195303880Y-97097494D01*
X195390759Y-97266542D01*
X195395232Y-97275246D01*
X195523197Y-97436698D01*
X195527890Y-97440692D01*
X195527891Y-97440693D01*
X195615490Y-97515245D01*
X195680084Y-97570219D01*
X195859918Y-97670725D01*
X195954758Y-97701541D01*
X196049991Y-97732484D01*
X196049995Y-97732485D01*
X196055849Y-97734387D01*
X196260414Y-97758779D01*
X196266549Y-97758307D01*
X196266551Y-97758307D01*
X196322559Y-97753997D01*
X196465820Y-97742974D01*
X196471750Y-97741318D01*
X196471752Y-97741318D01*
X196658317Y-97689228D01*
X196658316Y-97689228D01*
X196664245Y-97687573D01*
X196669734Y-97684800D01*
X196669740Y-97684798D01*
X196842636Y-97597461D01*
X196848130Y-97594686D01*
X197010471Y-97467852D01*
X197015593Y-97461919D01*
X197141060Y-97316562D01*
X197141060Y-97316561D01*
X197145084Y-97311900D01*
X197162690Y-97280909D01*
X197243797Y-97138134D01*
X197246843Y-97132772D01*
X197248331Y-97128298D01*
X197293983Y-97074585D01*
X197363113Y-97053928D01*
X197501696Y-97053928D01*
X197520795Y-97055961D01*
X197525603Y-97056188D01*
X197535781Y-97058379D01*
X197566011Y-97054801D01*
X197571266Y-97054491D01*
X197571255Y-97054356D01*
X197576434Y-97053928D01*
X197581635Y-97053928D01*
X197586763Y-97053074D01*
X197586769Y-97053074D01*
X197598993Y-97051039D01*
X197604869Y-97050202D01*
X197641319Y-97045888D01*
X197641321Y-97045888D01*
X197651658Y-97044664D01*
X197659278Y-97041005D01*
X197667623Y-97039616D01*
X197709104Y-97017234D01*
X197714390Y-97014541D01*
X197756846Y-96994154D01*
X197760794Y-96990836D01*
X197762727Y-96988903D01*
X197764324Y-96987438D01*
X197764814Y-96987174D01*
X197764833Y-96987194D01*
X197764922Y-96987115D01*
X197770314Y-96984206D01*
X197803975Y-96947792D01*
X197807404Y-96944226D01*
X198098425Y-96653205D01*
X198160737Y-96619179D01*
X198231552Y-96624244D01*
X198276615Y-96653205D01*
X198721852Y-97098442D01*
X198755878Y-97160754D01*
X198750813Y-97231569D01*
X198708266Y-97288405D01*
X198674506Y-97306419D01*
X198628230Y-97322670D01*
X198628224Y-97322673D01*
X198619337Y-97325794D01*
X198510370Y-97406278D01*
X198429886Y-97515245D01*
X198426765Y-97524132D01*
X198426764Y-97524134D01*
X198401014Y-97597461D01*
X198385001Y-97643060D01*
X198382020Y-97674595D01*
X198382021Y-98707260D01*
X198385001Y-98738796D01*
X198387544Y-98746037D01*
X198387544Y-98746038D01*
X198417997Y-98832755D01*
X198429886Y-98866611D01*
X198510370Y-98975578D01*
X198619337Y-99056062D01*
X198628224Y-99059183D01*
X198628226Y-99059184D01*
X198726520Y-99093702D01*
X198747152Y-99100947D01*
X198754798Y-99101670D01*
X198754799Y-99101670D01*
X198760769Y-99102234D01*
X198778687Y-99103928D01*
X198795967Y-99103928D01*
X199906521Y-99103927D01*
X199974641Y-99123929D01*
X200021134Y-99177585D01*
X200032520Y-99229927D01*
X200032520Y-107731018D01*
X200030099Y-107755599D01*
X200014574Y-107833651D01*
X199995761Y-107879070D01*
X199958576Y-107934722D01*
X199923815Y-107969483D01*
X199868162Y-108006669D01*
X199822745Y-108025481D01*
X199754396Y-108039077D01*
X199744691Y-108041007D01*
X199720110Y-108043428D01*
X152344930Y-108043428D01*
X152320349Y-108041007D01*
X152310644Y-108039077D01*
X152242295Y-108025481D01*
X152196878Y-108006669D01*
X152141225Y-107969483D01*
X152106464Y-107934722D01*
X152069279Y-107879070D01*
X152050466Y-107833651D01*
X152034941Y-107755599D01*
X152032520Y-107731018D01*
X152032520Y-48171313D01*
X192384520Y-48171313D01*
X192388995Y-48186552D01*
X192390385Y-48187757D01*
X192398068Y-48189428D01*
X193470405Y-48189428D01*
X193485644Y-48184953D01*
X193486849Y-48183563D01*
X193488520Y-48175880D01*
X193488520Y-48171313D01*
X193996520Y-48171313D01*
X194000995Y-48186552D01*
X194002385Y-48187757D01*
X194010068Y-48189428D01*
X196010405Y-48189428D01*
X196025644Y-48184953D01*
X196026849Y-48183563D01*
X196028520Y-48175880D01*
X196028520Y-48171313D01*
X196536520Y-48171313D01*
X196540995Y-48186552D01*
X196542385Y-48187757D01*
X196550068Y-48189428D01*
X197600864Y-48189428D01*
X197614395Y-48185455D01*
X197615700Y-48176375D01*
X197573734Y-48009303D01*
X197570414Y-47999552D01*
X197485492Y-47804242D01*
X197480625Y-47795167D01*
X197364946Y-47616354D01*
X197358656Y-47608185D01*
X197215326Y-47450668D01*
X197207793Y-47443643D01*
X197040659Y-47311650D01*
X197032072Y-47305945D01*
X196845637Y-47203027D01*
X196836225Y-47198797D01*
X196635479Y-47127708D01*
X196625508Y-47125074D01*
X196554357Y-47112400D01*
X196541060Y-47113860D01*
X196536520Y-47128417D01*
X196536520Y-48171313D01*
X196028520Y-48171313D01*
X196028520Y-47126530D01*
X196024602Y-47113186D01*
X196010326Y-47111199D01*
X195971844Y-47117088D01*
X195961808Y-47119479D01*
X195759388Y-47185640D01*
X195749879Y-47189637D01*
X195560983Y-47287970D01*
X195552258Y-47293464D01*
X195381953Y-47421333D01*
X195374246Y-47428176D01*
X195296614Y-47509413D01*
X195235090Y-47544843D01*
X195164177Y-47541386D01*
X195106391Y-47500140D01*
X195087538Y-47466592D01*
X195045844Y-47355374D01*
X195037306Y-47339779D01*
X194960805Y-47237704D01*
X194948244Y-47225143D01*
X194846169Y-47148642D01*
X194830574Y-47140104D01*
X194710126Y-47094950D01*
X194694871Y-47091323D01*
X194644006Y-47085797D01*
X194637192Y-47085428D01*
X194014635Y-47085428D01*
X193999396Y-47089903D01*
X193998191Y-47091293D01*
X193996520Y-47098976D01*
X193996520Y-48171313D01*
X193488520Y-48171313D01*
X193488520Y-47103544D01*
X193484045Y-47088305D01*
X193482655Y-47087100D01*
X193474972Y-47085429D01*
X192847851Y-47085429D01*
X192841030Y-47085799D01*
X192790168Y-47091323D01*
X192774916Y-47094949D01*
X192654466Y-47140104D01*
X192638871Y-47148642D01*
X192536796Y-47225143D01*
X192524235Y-47237704D01*
X192447734Y-47339779D01*
X192439196Y-47355374D01*
X192394042Y-47475822D01*
X192390415Y-47491077D01*
X192384889Y-47541942D01*
X192384520Y-47548756D01*
X192384520Y-48171313D01*
X152032520Y-48171313D01*
X152032520Y-41942699D01*
X154629188Y-41942699D01*
X154629275Y-41946701D01*
X154629275Y-41946708D01*
X154635781Y-42244876D01*
X154635869Y-42248893D01*
X154681403Y-42551758D01*
X154765051Y-42846381D01*
X154885457Y-43127988D01*
X155040669Y-43392013D01*
X155228171Y-43634175D01*
X155444924Y-43850550D01*
X155448105Y-43853004D01*
X155448106Y-43853005D01*
X155684221Y-44035167D01*
X155684225Y-44035170D01*
X155687414Y-44037630D01*
X155690893Y-44039667D01*
X155867699Y-44143191D01*
X155951709Y-44192381D01*
X155955394Y-44193949D01*
X155955398Y-44193951D01*
X156092618Y-44252338D01*
X156233526Y-44312295D01*
X156528295Y-44395429D01*
X156748858Y-44428196D01*
X156827939Y-44439944D01*
X156827941Y-44439944D01*
X156831238Y-44440434D01*
X156834569Y-44440574D01*
X156834573Y-44440574D01*
X156871257Y-44442111D01*
X156914604Y-44443928D01*
X157109994Y-44443928D01*
X157233435Y-44436054D01*
X157334159Y-44429629D01*
X157334164Y-44429628D01*
X157338167Y-44429373D01*
X157342104Y-44428611D01*
X157342106Y-44428611D01*
X157634921Y-44371958D01*
X157634925Y-44371957D01*
X157638858Y-44371196D01*
X157929720Y-44275284D01*
X158206038Y-44143191D01*
X158463332Y-43977059D01*
X158697430Y-43779580D01*
X158904539Y-43553957D01*
X159081300Y-43303846D01*
X159224848Y-43033302D01*
X159293900Y-42850079D01*
X159331439Y-42750472D01*
X159331441Y-42750466D01*
X159332856Y-42746711D01*
X159347169Y-42686397D01*
X159402644Y-42452635D01*
X159402645Y-42452630D01*
X159403573Y-42448719D01*
X159435852Y-42144157D01*
X159431457Y-41942699D01*
X192629188Y-41942699D01*
X192629275Y-41946701D01*
X192629275Y-41946708D01*
X192635781Y-42244876D01*
X192635869Y-42248893D01*
X192681403Y-42551758D01*
X192765051Y-42846381D01*
X192885457Y-43127988D01*
X193040669Y-43392013D01*
X193228171Y-43634175D01*
X193444924Y-43850550D01*
X193448105Y-43853004D01*
X193448106Y-43853005D01*
X193684221Y-44035167D01*
X193684225Y-44035170D01*
X193687414Y-44037630D01*
X193690893Y-44039667D01*
X193867699Y-44143191D01*
X193951709Y-44192381D01*
X193955394Y-44193949D01*
X193955398Y-44193951D01*
X194092618Y-44252338D01*
X194233526Y-44312295D01*
X194528295Y-44395429D01*
X194748858Y-44428196D01*
X194827939Y-44439944D01*
X194827941Y-44439944D01*
X194831238Y-44440434D01*
X194834569Y-44440574D01*
X194834573Y-44440574D01*
X194871257Y-44442111D01*
X194914604Y-44443928D01*
X195109994Y-44443928D01*
X195233435Y-44436054D01*
X195334159Y-44429629D01*
X195334164Y-44429628D01*
X195338167Y-44429373D01*
X195342104Y-44428611D01*
X195342106Y-44428611D01*
X195634921Y-44371958D01*
X195634925Y-44371957D01*
X195638858Y-44371196D01*
X195929720Y-44275284D01*
X196206038Y-44143191D01*
X196463332Y-43977059D01*
X196697430Y-43779580D01*
X196904539Y-43553957D01*
X197081300Y-43303846D01*
X197224848Y-43033302D01*
X197293900Y-42850079D01*
X197331439Y-42750472D01*
X197331441Y-42750466D01*
X197332856Y-42746711D01*
X197347169Y-42686397D01*
X197402644Y-42452635D01*
X197402645Y-42452630D01*
X197403573Y-42448719D01*
X197435852Y-42144157D01*
X197431457Y-41942699D01*
X197429259Y-41841980D01*
X197429259Y-41841975D01*
X197429171Y-41837963D01*
X197383637Y-41535098D01*
X197299989Y-41240475D01*
X197179583Y-40958868D01*
X197024371Y-40694843D01*
X196836869Y-40452681D01*
X196620116Y-40236306D01*
X196616934Y-40233851D01*
X196380819Y-40051689D01*
X196380815Y-40051686D01*
X196377626Y-40049226D01*
X196201058Y-39945841D01*
X196116795Y-39896503D01*
X196116792Y-39896501D01*
X196113331Y-39894475D01*
X196109646Y-39892907D01*
X196109642Y-39892905D01*
X195922571Y-39813306D01*
X195831514Y-39774561D01*
X195536745Y-39691427D01*
X195306534Y-39657227D01*
X195237101Y-39646912D01*
X195237099Y-39646912D01*
X195233802Y-39646422D01*
X195230471Y-39646282D01*
X195230467Y-39646282D01*
X195193783Y-39644745D01*
X195150436Y-39642928D01*
X194955046Y-39642928D01*
X194831605Y-39650802D01*
X194730881Y-39657227D01*
X194730876Y-39657228D01*
X194726873Y-39657483D01*
X194722936Y-39658245D01*
X194722934Y-39658245D01*
X194430119Y-39714898D01*
X194430115Y-39714899D01*
X194426182Y-39715660D01*
X194135320Y-39811572D01*
X193859002Y-39943665D01*
X193601708Y-40109797D01*
X193367610Y-40307276D01*
X193160501Y-40532899D01*
X192983740Y-40783010D01*
X192840192Y-41053554D01*
X192838777Y-41057310D01*
X192838776Y-41057311D01*
X192768288Y-41244347D01*
X192732184Y-41340145D01*
X192731255Y-41344060D01*
X192686837Y-41531233D01*
X192661467Y-41638137D01*
X192629188Y-41942699D01*
X159431457Y-41942699D01*
X159429259Y-41841980D01*
X159429259Y-41841975D01*
X159429171Y-41837963D01*
X159383637Y-41535098D01*
X159299989Y-41240475D01*
X159179583Y-40958868D01*
X159024371Y-40694843D01*
X158836869Y-40452681D01*
X158620116Y-40236306D01*
X158616934Y-40233851D01*
X158380819Y-40051689D01*
X158380815Y-40051686D01*
X158377626Y-40049226D01*
X158201058Y-39945841D01*
X158116795Y-39896503D01*
X158116792Y-39896501D01*
X158113331Y-39894475D01*
X158109646Y-39892907D01*
X158109642Y-39892905D01*
X157922571Y-39813306D01*
X157831514Y-39774561D01*
X157536745Y-39691427D01*
X157306534Y-39657227D01*
X157237101Y-39646912D01*
X157237099Y-39646912D01*
X157233802Y-39646422D01*
X157230471Y-39646282D01*
X157230467Y-39646282D01*
X157193783Y-39644745D01*
X157150436Y-39642928D01*
X156955046Y-39642928D01*
X156831605Y-39650802D01*
X156730881Y-39657227D01*
X156730876Y-39657228D01*
X156726873Y-39657483D01*
X156722936Y-39658245D01*
X156722934Y-39658245D01*
X156430119Y-39714898D01*
X156430115Y-39714899D01*
X156426182Y-39715660D01*
X156135320Y-39811572D01*
X155859002Y-39943665D01*
X155601708Y-40109797D01*
X155367610Y-40307276D01*
X155160501Y-40532899D01*
X154983740Y-40783010D01*
X154840192Y-41053554D01*
X154838777Y-41057310D01*
X154838776Y-41057311D01*
X154768288Y-41244347D01*
X154732184Y-41340145D01*
X154731255Y-41344060D01*
X154686837Y-41531233D01*
X154661467Y-41638137D01*
X154629188Y-41942699D01*
X152032520Y-41942699D01*
X152032520Y-37355838D01*
X152034941Y-37331257D01*
X152050466Y-37253205D01*
X152069279Y-37207786D01*
X152106465Y-37152133D01*
X152141225Y-37117373D01*
X152196878Y-37080187D01*
X152242295Y-37061375D01*
X152320348Y-37045849D01*
X152344930Y-37043428D01*
X199720110Y-37043428D01*
X199744692Y-37045849D01*
G37*
G04 #@! TD.AperFunction*
M02*
