G04 #@! TF.GenerationSoftware,KiCad,Pcbnew,(6.0.0)*
G04 #@! TF.CreationDate,2025-05-03T15:15:18+02:00*
G04 #@! TF.ProjectId,Smart Servo Control Board Rev.2,536d6172-7420-4536-9572-766f20436f6e,rev?*
G04 #@! TF.SameCoordinates,Original*
G04 #@! TF.FileFunction,Legend,Top*
G04 #@! TF.FilePolarity,Positive*
%FSLAX46Y46*%
G04 Gerber Fmt 4.6, Leading zero omitted, Abs format (unit mm)*
G04 Created by KiCad (PCBNEW (6.0.0)) date 2025-05-03 15:15:18*
%MOMM*%
%LPD*%
G01*
G04 APERTURE LIST*
G04 Aperture macros list*
%AMRoundRect*
0 Rectangle with rounded corners*
0 $1 Rounding radius*
0 $2 $3 $4 $5 $6 $7 $8 $9 X,Y pos of 4 corners*
0 Add a 4 corners polygon primitive as box body*
4,1,4,$2,$3,$4,$5,$6,$7,$8,$9,$2,$3,0*
0 Add four circle primitives for the rounded corners*
1,1,$1+$1,$2,$3*
1,1,$1+$1,$4,$5*
1,1,$1+$1,$6,$7*
1,1,$1+$1,$8,$9*
0 Add four rect primitives between the rounded corners*
20,1,$1+$1,$2,$3,$4,$5,0*
20,1,$1+$1,$4,$5,$6,$7,0*
20,1,$1+$1,$6,$7,$8,$9,0*
20,1,$1+$1,$8,$9,$2,$3,0*%
%AMHorizOval*
0 Thick line with rounded ends*
0 $1 width*
0 $2 $3 position (X,Y) of the first rounded end (center of the circle)*
0 $4 $5 position (X,Y) of the second rounded end (center of the circle)*
0 Add line between two ends*
20,1,$1,$2,$3,$4,$5,0*
0 Add two circle primitives to create the rounded ends*
1,1,$1,$2,$3*
1,1,$1,$4,$5*%
%AMRotRect*
0 Rectangle, with rotation*
0 The origin of the aperture is its center*
0 $1 length*
0 $2 width*
0 $3 Rotation angle, in degrees counterclockwise*
0 Add horizontal line*
21,1,$1,$2,0,0,$3*%
G04 Aperture macros list end*
%ADD10C,0.150000*%
%ADD11C,0.125000*%
%ADD12C,0.120000*%
%ADD13C,0.152400*%
%ADD14C,4.300000*%
%ADD15RoundRect,0.237500X-0.250000X-0.237500X0.250000X-0.237500X0.250000X0.237500X-0.250000X0.237500X0*%
%ADD16RoundRect,0.237500X-0.237500X0.250000X-0.237500X-0.250000X0.237500X-0.250000X0.237500X0.250000X0*%
%ADD17RoundRect,0.150000X0.150000X-0.825000X0.150000X0.825000X-0.150000X0.825000X-0.150000X-0.825000X0*%
%ADD18RoundRect,0.150000X-0.725000X-0.150000X0.725000X-0.150000X0.725000X0.150000X-0.725000X0.150000X0*%
%ADD19RoundRect,0.237500X0.250000X0.237500X-0.250000X0.237500X-0.250000X-0.237500X0.250000X-0.237500X0*%
%ADD20RoundRect,0.150000X-0.521491X0.309359X0.309359X-0.521491X0.521491X-0.309359X-0.309359X0.521491X0*%
%ADD21RotRect,1.050000X1.300000X45.000000*%
%ADD22HorizOval,1.050000X-0.088388X0.088388X0.088388X-0.088388X0*%
%ADD23RoundRect,0.237500X0.237500X-0.250000X0.237500X0.250000X-0.237500X0.250000X-0.237500X-0.250000X0*%
%ADD24RoundRect,0.150000X-0.150000X0.825000X-0.150000X-0.825000X0.150000X-0.825000X0.150000X0.825000X0*%
%ADD25R,1.700000X1.700000*%
%ADD26O,1.700000X1.700000*%
%ADD27RotRect,1.050000X1.300000X135.000000*%
%ADD28HorizOval,1.050000X0.088388X0.088388X-0.088388X-0.088388X0*%
%ADD29C,7.500000*%
%ADD30C,4.700000*%
%ADD31RoundRect,0.075000X0.662500X0.075000X-0.662500X0.075000X-0.662500X-0.075000X0.662500X-0.075000X0*%
%ADD32RoundRect,0.075000X0.075000X0.662500X-0.075000X0.662500X-0.075000X-0.662500X0.075000X-0.662500X0*%
%ADD33RoundRect,0.150000X-0.309359X-0.521491X0.521491X0.309359X0.309359X0.521491X-0.521491X-0.309359X0*%
%ADD34R,2.000000X1.500000*%
%ADD35R,2.000000X3.800000*%
%ADD36RoundRect,0.150000X-0.150000X0.725000X-0.150000X-0.725000X0.150000X-0.725000X0.150000X0.725000X0*%
%ADD37R,0.270000X1.411200*%
%ADD38C,0.508000*%
G04 APERTURE END LIST*
D10*
X179032520Y-83043428D02*
G75*
G03*
X179032520Y-83043428I-3000000J0D01*
G01*
X184532521Y-88043428D02*
X184532521Y-57043428D01*
X166032520Y-52543428D02*
X172532520Y-52543428D01*
X170532520Y-91043428D02*
G75*
G03*
X167532519Y-88043428I-2999999J1D01*
G01*
X174532520Y-52543428D02*
X186032520Y-52543428D01*
X167532519Y-57043428D02*
G75*
G03*
X170532520Y-54043428I0J3000001D01*
G01*
X181112520Y-77963428D02*
X170952520Y-88123428D01*
X181532520Y-54043428D02*
G75*
G03*
X184532521Y-57043428I2999999J-1D01*
G01*
X181532520Y-54043428D02*
X170532520Y-54043428D01*
X181112520Y-88123428D02*
X170952520Y-77963428D01*
X186032520Y-92543428D02*
X178032520Y-92543428D01*
X169782520Y-92543428D02*
X172282520Y-92543428D01*
X186032520Y-52543428D02*
X186032520Y-92543428D01*
X167532519Y-57043428D02*
X167532519Y-88043428D01*
X166032520Y-92543428D02*
X166032520Y-52543428D01*
X184532521Y-88043428D02*
G75*
G03*
X181532520Y-91043428I0J-3000001D01*
G01*
X168282520Y-92543428D02*
X166032520Y-92543428D01*
X170532520Y-91043428D02*
X181532520Y-91043428D01*
D11*
X171413472Y-40495808D02*
X171413472Y-41210094D01*
X171365853Y-41352951D01*
X171270615Y-41448189D01*
X171127758Y-41495808D01*
X171032520Y-41495808D01*
X172365853Y-41495808D02*
X171889662Y-41495808D01*
X171889662Y-40495808D01*
X173270615Y-41400570D02*
X173222996Y-41448189D01*
X173080139Y-41495808D01*
X172984900Y-41495808D01*
X172842043Y-41448189D01*
X172746805Y-41352951D01*
X172699186Y-41257713D01*
X172651567Y-41067237D01*
X172651567Y-40924380D01*
X172699186Y-40733904D01*
X172746805Y-40638666D01*
X172842043Y-40543428D01*
X172984900Y-40495808D01*
X173080139Y-40495808D01*
X173222996Y-40543428D01*
X173270615Y-40591047D01*
X173984900Y-40495808D02*
X173984900Y-41210094D01*
X173937281Y-41352951D01*
X173842043Y-41448189D01*
X173699186Y-41495808D01*
X173603948Y-41495808D01*
X174937281Y-41495808D02*
X174461091Y-41495808D01*
X174461091Y-40495808D01*
X175842043Y-41400570D02*
X175794424Y-41448189D01*
X175651567Y-41495808D01*
X175556329Y-41495808D01*
X175413472Y-41448189D01*
X175318234Y-41352951D01*
X175270615Y-41257713D01*
X175222996Y-41067237D01*
X175222996Y-40924380D01*
X175270615Y-40733904D01*
X175318234Y-40638666D01*
X175413472Y-40543428D01*
X175556329Y-40495808D01*
X175651567Y-40495808D01*
X175794424Y-40543428D01*
X175842043Y-40591047D01*
X176556329Y-40495808D02*
X176556329Y-41210094D01*
X176508710Y-41352951D01*
X176413472Y-41448189D01*
X176270615Y-41495808D01*
X176175377Y-41495808D01*
X177508710Y-41495808D02*
X177032520Y-41495808D01*
X177032520Y-40495808D01*
X178413472Y-41400570D02*
X178365853Y-41448189D01*
X178222996Y-41495808D01*
X178127758Y-41495808D01*
X177984900Y-41448189D01*
X177889662Y-41352951D01*
X177842043Y-41257713D01*
X177794424Y-41067237D01*
X177794424Y-40924380D01*
X177842043Y-40733904D01*
X177889662Y-40638666D01*
X177984900Y-40543428D01*
X178127758Y-40495808D01*
X178222996Y-40495808D01*
X178365853Y-40543428D01*
X178413472Y-40591047D01*
X179127758Y-40495808D02*
X179127758Y-41210094D01*
X179080139Y-41352951D01*
X178984900Y-41448189D01*
X178842043Y-41495808D01*
X178746805Y-41495808D01*
X180080139Y-41495808D02*
X179603948Y-41495808D01*
X179603948Y-40495808D01*
X180984900Y-41400570D02*
X180937281Y-41448189D01*
X180794424Y-41495808D01*
X180699186Y-41495808D01*
X180556329Y-41448189D01*
X180461091Y-41352951D01*
X180413472Y-41257713D01*
X180365853Y-41067237D01*
X180365853Y-40924380D01*
X180413472Y-40733904D01*
X180461091Y-40638666D01*
X180556329Y-40543428D01*
X180699186Y-40495808D01*
X180794424Y-40495808D01*
X180937281Y-40543428D01*
X180984900Y-40591047D01*
X161913472Y-42269618D02*
X161913472Y-41769618D01*
X161913472Y-42007713D02*
X162199186Y-42007713D01*
X162199186Y-42269618D02*
X162199186Y-41769618D01*
X162699186Y-42269618D02*
X162413472Y-42269618D01*
X162556329Y-42269618D02*
X162556329Y-41769618D01*
X162508710Y-41841047D01*
X162461091Y-41888666D01*
X162413472Y-41912475D01*
X163008710Y-41769618D02*
X163056329Y-41769618D01*
X163103948Y-41793428D01*
X163127758Y-41817237D01*
X163151567Y-41864856D01*
X163175377Y-41960094D01*
X163175377Y-42079142D01*
X163151567Y-42174380D01*
X163127758Y-42221999D01*
X163103948Y-42245808D01*
X163056329Y-42269618D01*
X163008710Y-42269618D01*
X162961091Y-42245808D01*
X162937281Y-42221999D01*
X162913472Y-42174380D01*
X162889662Y-42079142D01*
X162889662Y-41960094D01*
X162913472Y-41864856D01*
X162937281Y-41817237D01*
X162961091Y-41793428D01*
X163008710Y-41769618D01*
X158169186Y-71721999D02*
X158145377Y-71745808D01*
X158073948Y-71769618D01*
X158026329Y-71769618D01*
X157954900Y-71745808D01*
X157907281Y-71698189D01*
X157883472Y-71650570D01*
X157859662Y-71555332D01*
X157859662Y-71483904D01*
X157883472Y-71388666D01*
X157907281Y-71341047D01*
X157954900Y-71293428D01*
X158026329Y-71269618D01*
X158073948Y-71269618D01*
X158145377Y-71293428D01*
X158169186Y-71317237D01*
X158359662Y-71317237D02*
X158383472Y-71293428D01*
X158431091Y-71269618D01*
X158550139Y-71269618D01*
X158597758Y-71293428D01*
X158621567Y-71317237D01*
X158645377Y-71364856D01*
X158645377Y-71412475D01*
X158621567Y-71483904D01*
X158335853Y-71769618D01*
X158645377Y-71769618D01*
X175949186Y-76971999D02*
X175925377Y-76995808D01*
X175853948Y-77019618D01*
X175806329Y-77019618D01*
X175734900Y-76995808D01*
X175687281Y-76948189D01*
X175663472Y-76900570D01*
X175639662Y-76805332D01*
X175639662Y-76733904D01*
X175663472Y-76638666D01*
X175687281Y-76591047D01*
X175734900Y-76543428D01*
X175806329Y-76519618D01*
X175853948Y-76519618D01*
X175925377Y-76543428D01*
X175949186Y-76567237D01*
X176425377Y-77019618D02*
X176139662Y-77019618D01*
X176282520Y-77019618D02*
X176282520Y-76519618D01*
X176234900Y-76591047D01*
X176187281Y-76638666D01*
X176139662Y-76662475D01*
X179508710Y-93876761D02*
X179270615Y-94043428D01*
X179508710Y-94162475D02*
X179008710Y-94162475D01*
X179008710Y-93971999D01*
X179032520Y-93924380D01*
X179056329Y-93900570D01*
X179103948Y-93876761D01*
X179175377Y-93876761D01*
X179222996Y-93900570D01*
X179246805Y-93924380D01*
X179270615Y-93971999D01*
X179270615Y-94162475D01*
X179008710Y-93710094D02*
X179008710Y-93400570D01*
X179199186Y-93567237D01*
X179199186Y-93495808D01*
X179222996Y-93448189D01*
X179246805Y-93424380D01*
X179294424Y-93400570D01*
X179413472Y-93400570D01*
X179461091Y-93424380D01*
X179484900Y-93448189D01*
X179508710Y-93495808D01*
X179508710Y-93638666D01*
X179484900Y-93686285D01*
X179461091Y-93710094D01*
X161199186Y-97221999D02*
X161175377Y-97245808D01*
X161103948Y-97269618D01*
X161056329Y-97269618D01*
X160984900Y-97245808D01*
X160937281Y-97198189D01*
X160913472Y-97150570D01*
X160889662Y-97055332D01*
X160889662Y-96983904D01*
X160913472Y-96888666D01*
X160937281Y-96841047D01*
X160984900Y-96793428D01*
X161056329Y-96769618D01*
X161103948Y-96769618D01*
X161175377Y-96793428D01*
X161199186Y-96817237D01*
X161365853Y-96769618D02*
X161675377Y-96769618D01*
X161508710Y-96960094D01*
X161580139Y-96960094D01*
X161627758Y-96983904D01*
X161651567Y-97007713D01*
X161675377Y-97055332D01*
X161675377Y-97174380D01*
X161651567Y-97221999D01*
X161627758Y-97245808D01*
X161580139Y-97269618D01*
X161437281Y-97269618D01*
X161389662Y-97245808D01*
X161365853Y-97221999D01*
X179461091Y-97626761D02*
X179484900Y-97650570D01*
X179508710Y-97721999D01*
X179508710Y-97769618D01*
X179484900Y-97841047D01*
X179437281Y-97888666D01*
X179389662Y-97912475D01*
X179294424Y-97936285D01*
X179222996Y-97936285D01*
X179127758Y-97912475D01*
X179080139Y-97888666D01*
X179032520Y-97841047D01*
X179008710Y-97769618D01*
X179008710Y-97721999D01*
X179032520Y-97650570D01*
X179056329Y-97626761D01*
X179008710Y-97198189D02*
X179008710Y-97293428D01*
X179032520Y-97341047D01*
X179056329Y-97364856D01*
X179127758Y-97412475D01*
X179222996Y-97436285D01*
X179413472Y-97436285D01*
X179461091Y-97412475D01*
X179484900Y-97388666D01*
X179508710Y-97341047D01*
X179508710Y-97245808D01*
X179484900Y-97198189D01*
X179461091Y-97174380D01*
X179413472Y-97150570D01*
X179294424Y-97150570D01*
X179246805Y-97174380D01*
X179222996Y-97198189D01*
X179199186Y-97245808D01*
X179199186Y-97341047D01*
X179222996Y-97388666D01*
X179246805Y-97412475D01*
X179294424Y-97436285D01*
X182651567Y-101019618D02*
X182651567Y-101424380D01*
X182675377Y-101471999D01*
X182699186Y-101495808D01*
X182746805Y-101519618D01*
X182842043Y-101519618D01*
X182889662Y-101495808D01*
X182913472Y-101471999D01*
X182937281Y-101424380D01*
X182937281Y-101019618D01*
X183389662Y-101186285D02*
X183389662Y-101519618D01*
X183270615Y-100995808D02*
X183151567Y-101352951D01*
X183461091Y-101352951D01*
X158169186Y-96556999D02*
X158145377Y-96580808D01*
X158073948Y-96604618D01*
X158026329Y-96604618D01*
X157954900Y-96580808D01*
X157907281Y-96533189D01*
X157883472Y-96485570D01*
X157859662Y-96390332D01*
X157859662Y-96318904D01*
X157883472Y-96223666D01*
X157907281Y-96176047D01*
X157954900Y-96128428D01*
X158026329Y-96104618D01*
X158073948Y-96104618D01*
X158145377Y-96128428D01*
X158169186Y-96152237D01*
X158454900Y-96318904D02*
X158407281Y-96295094D01*
X158383472Y-96271285D01*
X158359662Y-96223666D01*
X158359662Y-96199856D01*
X158383472Y-96152237D01*
X158407281Y-96128428D01*
X158454900Y-96104618D01*
X158550139Y-96104618D01*
X158597758Y-96128428D01*
X158621567Y-96152237D01*
X158645377Y-96199856D01*
X158645377Y-96223666D01*
X158621567Y-96271285D01*
X158597758Y-96295094D01*
X158550139Y-96318904D01*
X158454900Y-96318904D01*
X158407281Y-96342713D01*
X158383472Y-96366523D01*
X158359662Y-96414142D01*
X158359662Y-96509380D01*
X158383472Y-96556999D01*
X158407281Y-96580808D01*
X158454900Y-96604618D01*
X158550139Y-96604618D01*
X158597758Y-96580808D01*
X158621567Y-96556999D01*
X158645377Y-96509380D01*
X158645377Y-96414142D01*
X158621567Y-96366523D01*
X158597758Y-96342713D01*
X158550139Y-96318904D01*
X155151567Y-73269618D02*
X155151567Y-73674380D01*
X155175377Y-73721999D01*
X155199186Y-73745808D01*
X155246805Y-73769618D01*
X155342043Y-73769618D01*
X155389662Y-73745808D01*
X155413472Y-73721999D01*
X155437281Y-73674380D01*
X155437281Y-73269618D01*
X155651567Y-73317237D02*
X155675377Y-73293428D01*
X155722996Y-73269618D01*
X155842043Y-73269618D01*
X155889662Y-73293428D01*
X155913472Y-73317237D01*
X155937281Y-73364856D01*
X155937281Y-73412475D01*
X155913472Y-73483904D01*
X155627758Y-73769618D01*
X155937281Y-73769618D01*
X170949186Y-101769618D02*
X170782520Y-101531523D01*
X170663472Y-101769618D02*
X170663472Y-101269618D01*
X170853948Y-101269618D01*
X170901567Y-101293428D01*
X170925377Y-101317237D01*
X170949186Y-101364856D01*
X170949186Y-101436285D01*
X170925377Y-101483904D01*
X170901567Y-101507713D01*
X170853948Y-101531523D01*
X170663472Y-101531523D01*
X171425377Y-101769618D02*
X171139662Y-101769618D01*
X171282520Y-101769618D02*
X171282520Y-101269618D01*
X171234900Y-101341047D01*
X171187281Y-101388666D01*
X171139662Y-101412475D01*
X181413472Y-85269618D02*
X181413472Y-85674380D01*
X181437281Y-85721999D01*
X181461091Y-85745808D01*
X181508710Y-85769618D01*
X181603948Y-85769618D01*
X181651567Y-85745808D01*
X181675377Y-85721999D01*
X181699186Y-85674380D01*
X181699186Y-85269618D01*
X182199186Y-85769618D02*
X181913472Y-85769618D01*
X182056329Y-85769618D02*
X182056329Y-85269618D01*
X182008710Y-85341047D01*
X181961091Y-85388666D01*
X181913472Y-85412475D01*
X182675377Y-85769618D02*
X182389662Y-85769618D01*
X182532520Y-85769618D02*
X182532520Y-85269618D01*
X182484900Y-85341047D01*
X182437281Y-85388666D01*
X182389662Y-85412475D01*
X169651567Y-81019618D02*
X169651567Y-81424380D01*
X169675377Y-81471999D01*
X169699186Y-81495808D01*
X169746805Y-81519618D01*
X169842043Y-81519618D01*
X169889662Y-81495808D01*
X169913472Y-81471999D01*
X169937281Y-81424380D01*
X169937281Y-81019618D01*
X170199186Y-81519618D02*
X170294424Y-81519618D01*
X170342043Y-81495808D01*
X170365853Y-81471999D01*
X170413472Y-81400570D01*
X170437281Y-81305332D01*
X170437281Y-81114856D01*
X170413472Y-81067237D01*
X170389662Y-81043428D01*
X170342043Y-81019618D01*
X170246805Y-81019618D01*
X170199186Y-81043428D01*
X170175377Y-81067237D01*
X170151567Y-81114856D01*
X170151567Y-81233904D01*
X170175377Y-81281523D01*
X170199186Y-81305332D01*
X170246805Y-81329142D01*
X170342043Y-81329142D01*
X170389662Y-81305332D01*
X170413472Y-81281523D01*
X170437281Y-81233904D01*
X179508710Y-96114856D02*
X179270615Y-96281523D01*
X179508710Y-96400570D02*
X179008710Y-96400570D01*
X179008710Y-96210094D01*
X179032520Y-96162475D01*
X179056329Y-96138666D01*
X179103948Y-96114856D01*
X179175377Y-96114856D01*
X179222996Y-96138666D01*
X179246805Y-96162475D01*
X179270615Y-96210094D01*
X179270615Y-96400570D01*
X179508710Y-95638666D02*
X179508710Y-95924380D01*
X179508710Y-95781523D02*
X179008710Y-95781523D01*
X179080139Y-95829142D01*
X179127758Y-95876761D01*
X179151567Y-95924380D01*
X179008710Y-95471999D02*
X179008710Y-95162475D01*
X179199186Y-95329142D01*
X179199186Y-95257713D01*
X179222996Y-95210094D01*
X179246805Y-95186285D01*
X179294424Y-95162475D01*
X179413472Y-95162475D01*
X179461091Y-95186285D01*
X179484900Y-95210094D01*
X179508710Y-95257713D01*
X179508710Y-95400570D01*
X179484900Y-95448189D01*
X179461091Y-95471999D01*
X199211091Y-58519618D02*
X199044424Y-58281523D01*
X198925377Y-58519618D02*
X198925377Y-58019618D01*
X199115853Y-58019618D01*
X199163472Y-58043428D01*
X199187281Y-58067237D01*
X199211091Y-58114856D01*
X199211091Y-58186285D01*
X199187281Y-58233904D01*
X199163472Y-58257713D01*
X199115853Y-58281523D01*
X198925377Y-58281523D01*
X199687281Y-58519618D02*
X199401567Y-58519618D01*
X199544424Y-58519618D02*
X199544424Y-58019618D01*
X199496805Y-58091047D01*
X199449186Y-58138666D01*
X199401567Y-58162475D01*
X199996805Y-58019618D02*
X200044424Y-58019618D01*
X200092043Y-58043428D01*
X200115853Y-58067237D01*
X200139662Y-58114856D01*
X200163472Y-58210094D01*
X200163472Y-58329142D01*
X200139662Y-58424380D01*
X200115853Y-58471999D01*
X200092043Y-58495808D01*
X200044424Y-58519618D01*
X199996805Y-58519618D01*
X199949186Y-58495808D01*
X199925377Y-58471999D01*
X199901567Y-58424380D01*
X199877758Y-58329142D01*
X199877758Y-58210094D01*
X199901567Y-58114856D01*
X199925377Y-58067237D01*
X199949186Y-58043428D01*
X199996805Y-58019618D01*
X173258710Y-96461761D02*
X173020615Y-96628428D01*
X173258710Y-96747475D02*
X172758710Y-96747475D01*
X172758710Y-96556999D01*
X172782520Y-96509380D01*
X172806329Y-96485570D01*
X172853948Y-96461761D01*
X172925377Y-96461761D01*
X172972996Y-96485570D01*
X172996805Y-96509380D01*
X173020615Y-96556999D01*
X173020615Y-96747475D01*
X172758710Y-96033189D02*
X172758710Y-96128428D01*
X172782520Y-96176047D01*
X172806329Y-96199856D01*
X172877758Y-96247475D01*
X172972996Y-96271285D01*
X173163472Y-96271285D01*
X173211091Y-96247475D01*
X173234900Y-96223666D01*
X173258710Y-96176047D01*
X173258710Y-96080808D01*
X173234900Y-96033189D01*
X173211091Y-96009380D01*
X173163472Y-95985570D01*
X173044424Y-95985570D01*
X172996805Y-96009380D01*
X172972996Y-96033189D01*
X172949186Y-96080808D01*
X172949186Y-96176047D01*
X172972996Y-96223666D01*
X172996805Y-96247475D01*
X173044424Y-96271285D01*
X168651567Y-92519618D02*
X168651567Y-92924380D01*
X168675377Y-92971999D01*
X168699186Y-92995808D01*
X168746805Y-93019618D01*
X168842043Y-93019618D01*
X168889662Y-92995808D01*
X168913472Y-92971999D01*
X168937281Y-92924380D01*
X168937281Y-92519618D01*
X169127758Y-92519618D02*
X169437281Y-92519618D01*
X169270615Y-92710094D01*
X169342043Y-92710094D01*
X169389662Y-92733904D01*
X169413472Y-92757713D01*
X169437281Y-92805332D01*
X169437281Y-92924380D01*
X169413472Y-92971999D01*
X169389662Y-92995808D01*
X169342043Y-93019618D01*
X169199186Y-93019618D01*
X169151567Y-92995808D01*
X169127758Y-92971999D01*
X158169186Y-94651999D02*
X158145377Y-94675808D01*
X158073948Y-94699618D01*
X158026329Y-94699618D01*
X157954900Y-94675808D01*
X157907281Y-94628189D01*
X157883472Y-94580570D01*
X157859662Y-94485332D01*
X157859662Y-94413904D01*
X157883472Y-94318666D01*
X157907281Y-94271047D01*
X157954900Y-94223428D01*
X158026329Y-94199618D01*
X158073948Y-94199618D01*
X158145377Y-94223428D01*
X158169186Y-94247237D01*
X158407281Y-94699618D02*
X158502520Y-94699618D01*
X158550139Y-94675808D01*
X158573948Y-94651999D01*
X158621567Y-94580570D01*
X158645377Y-94485332D01*
X158645377Y-94294856D01*
X158621567Y-94247237D01*
X158597758Y-94223428D01*
X158550139Y-94199618D01*
X158454900Y-94199618D01*
X158407281Y-94223428D01*
X158383472Y-94247237D01*
X158359662Y-94294856D01*
X158359662Y-94413904D01*
X158383472Y-94461523D01*
X158407281Y-94485332D01*
X158454900Y-94509142D01*
X158550139Y-94509142D01*
X158597758Y-94485332D01*
X158621567Y-94461523D01*
X158645377Y-94413904D01*
X175877758Y-98769618D02*
X175877758Y-99126761D01*
X175853948Y-99198189D01*
X175806329Y-99245808D01*
X175734900Y-99269618D01*
X175687281Y-99269618D01*
X176377758Y-99269618D02*
X176092043Y-99269618D01*
X176234900Y-99269618D02*
X176234900Y-98769618D01*
X176187281Y-98841047D01*
X176139662Y-98888666D01*
X176092043Y-98912475D01*
X176806329Y-98936285D02*
X176806329Y-99269618D01*
X176687281Y-98745808D02*
X176568234Y-99102951D01*
X176877758Y-99102951D01*
X180949186Y-101019618D02*
X180782520Y-100781523D01*
X180663472Y-101019618D02*
X180663472Y-100519618D01*
X180853948Y-100519618D01*
X180901567Y-100543428D01*
X180925377Y-100567237D01*
X180949186Y-100614856D01*
X180949186Y-100686285D01*
X180925377Y-100733904D01*
X180901567Y-100757713D01*
X180853948Y-100781523D01*
X180663472Y-100781523D01*
X181377758Y-100686285D02*
X181377758Y-101019618D01*
X181258710Y-100495808D02*
X181139662Y-100852951D01*
X181449186Y-100852951D01*
X178211091Y-67221999D02*
X178187281Y-67245808D01*
X178115853Y-67269618D01*
X178068234Y-67269618D01*
X177996805Y-67245808D01*
X177949186Y-67198189D01*
X177925377Y-67150570D01*
X177901567Y-67055332D01*
X177901567Y-66983904D01*
X177925377Y-66888666D01*
X177949186Y-66841047D01*
X177996805Y-66793428D01*
X178068234Y-66769618D01*
X178115853Y-66769618D01*
X178187281Y-66793428D01*
X178211091Y-66817237D01*
X178687281Y-67269618D02*
X178401567Y-67269618D01*
X178544424Y-67269618D02*
X178544424Y-66769618D01*
X178496805Y-66841047D01*
X178449186Y-66888666D01*
X178401567Y-66912475D01*
X179115853Y-66769618D02*
X179020615Y-66769618D01*
X178972996Y-66793428D01*
X178949186Y-66817237D01*
X178901567Y-66888666D01*
X178877758Y-66983904D01*
X178877758Y-67174380D01*
X178901567Y-67221999D01*
X178925377Y-67245808D01*
X178972996Y-67269618D01*
X179068234Y-67269618D01*
X179115853Y-67245808D01*
X179139662Y-67221999D01*
X179163472Y-67174380D01*
X179163472Y-67055332D01*
X179139662Y-67007713D01*
X179115853Y-66983904D01*
X179068234Y-66960094D01*
X178972996Y-66960094D01*
X178925377Y-66983904D01*
X178901567Y-67007713D01*
X178877758Y-67055332D01*
X169651566Y-84769618D02*
X169651566Y-85174380D01*
X169675376Y-85221999D01*
X169699185Y-85245808D01*
X169746804Y-85269618D01*
X169842042Y-85269618D01*
X169889661Y-85245808D01*
X169913471Y-85221999D01*
X169937280Y-85174380D01*
X169937280Y-84769618D01*
X170246804Y-84983904D02*
X170199185Y-84960094D01*
X170175376Y-84936285D01*
X170151566Y-84888666D01*
X170151566Y-84864856D01*
X170175376Y-84817237D01*
X170199185Y-84793428D01*
X170246804Y-84769618D01*
X170342042Y-84769618D01*
X170389661Y-84793428D01*
X170413471Y-84817237D01*
X170437280Y-84864856D01*
X170437280Y-84888666D01*
X170413471Y-84936285D01*
X170389661Y-84960094D01*
X170342042Y-84983904D01*
X170246804Y-84983904D01*
X170199185Y-85007713D01*
X170175376Y-85031523D01*
X170151566Y-85079142D01*
X170151566Y-85174380D01*
X170175376Y-85221999D01*
X170199185Y-85245808D01*
X170246804Y-85269618D01*
X170342042Y-85269618D01*
X170389661Y-85245808D01*
X170413471Y-85221999D01*
X170437280Y-85174380D01*
X170437280Y-85079142D01*
X170413471Y-85031523D01*
X170389661Y-85007713D01*
X170342042Y-84983904D01*
X199449186Y-66769618D02*
X199282520Y-66531523D01*
X199163472Y-66769618D02*
X199163472Y-66269618D01*
X199353948Y-66269618D01*
X199401567Y-66293428D01*
X199425377Y-66317237D01*
X199449186Y-66364856D01*
X199449186Y-66436285D01*
X199425377Y-66483904D01*
X199401567Y-66507713D01*
X199353948Y-66531523D01*
X199163472Y-66531523D01*
X199687281Y-66769618D02*
X199782520Y-66769618D01*
X199830139Y-66745808D01*
X199853948Y-66721999D01*
X199901567Y-66650570D01*
X199925377Y-66555332D01*
X199925377Y-66364856D01*
X199901567Y-66317237D01*
X199877758Y-66293428D01*
X199830139Y-66269618D01*
X199734900Y-66269618D01*
X199687281Y-66293428D01*
X199663472Y-66317237D01*
X199639662Y-66364856D01*
X199639662Y-66483904D01*
X199663472Y-66531523D01*
X199687281Y-66555332D01*
X199734900Y-66579142D01*
X199830139Y-66579142D01*
X199877758Y-66555332D01*
X199901567Y-66531523D01*
X199925377Y-66483904D01*
X188913472Y-103269618D02*
X188913472Y-102769618D01*
X188913472Y-103007713D02*
X189199186Y-103007713D01*
X189199186Y-103269618D02*
X189199186Y-102769618D01*
X189699186Y-103269618D02*
X189413472Y-103269618D01*
X189556329Y-103269618D02*
X189556329Y-102769618D01*
X189508710Y-102841047D01*
X189461091Y-102888666D01*
X189413472Y-102912475D01*
X189889662Y-102817237D02*
X189913472Y-102793428D01*
X189961091Y-102769618D01*
X190080139Y-102769618D01*
X190127758Y-102793428D01*
X190151567Y-102817237D01*
X190175377Y-102864856D01*
X190175377Y-102912475D01*
X190151567Y-102983904D01*
X189865853Y-103269618D01*
X190175377Y-103269618D01*
X183211091Y-59056999D02*
X183187281Y-59080808D01*
X183115853Y-59104618D01*
X183068234Y-59104618D01*
X182996805Y-59080808D01*
X182949186Y-59033189D01*
X182925377Y-58985570D01*
X182901567Y-58890332D01*
X182901567Y-58818904D01*
X182925377Y-58723666D01*
X182949186Y-58676047D01*
X182996805Y-58628428D01*
X183068234Y-58604618D01*
X183115853Y-58604618D01*
X183187281Y-58628428D01*
X183211091Y-58652237D01*
X183687281Y-59104618D02*
X183401567Y-59104618D01*
X183544424Y-59104618D02*
X183544424Y-58604618D01*
X183496805Y-58676047D01*
X183449186Y-58723666D01*
X183401567Y-58747475D01*
X183853948Y-58604618D02*
X184163472Y-58604618D01*
X183996805Y-58795094D01*
X184068234Y-58795094D01*
X184115853Y-58818904D01*
X184139662Y-58842713D01*
X184163472Y-58890332D01*
X184163472Y-59009380D01*
X184139662Y-59056999D01*
X184115853Y-59080808D01*
X184068234Y-59104618D01*
X183925377Y-59104618D01*
X183877758Y-59080808D01*
X183853948Y-59056999D01*
X180151567Y-63769618D02*
X180151567Y-64174380D01*
X180175377Y-64221999D01*
X180199186Y-64245808D01*
X180246805Y-64269618D01*
X180342043Y-64269618D01*
X180389662Y-64245808D01*
X180413472Y-64221999D01*
X180437281Y-64174380D01*
X180437281Y-63769618D01*
X180627758Y-63769618D02*
X180961091Y-63769618D01*
X180746805Y-64269618D01*
X190699186Y-97221999D02*
X190675377Y-97245808D01*
X190603948Y-97269618D01*
X190556329Y-97269618D01*
X190484900Y-97245808D01*
X190437281Y-97198189D01*
X190413472Y-97150570D01*
X190389662Y-97055332D01*
X190389662Y-96983904D01*
X190413472Y-96888666D01*
X190437281Y-96841047D01*
X190484900Y-96793428D01*
X190556329Y-96769618D01*
X190603948Y-96769618D01*
X190675377Y-96793428D01*
X190699186Y-96817237D01*
X191127758Y-96936285D02*
X191127758Y-97269618D01*
X191008710Y-96745808D02*
X190889662Y-97102951D01*
X191199186Y-97102951D01*
X173449186Y-94769618D02*
X173282520Y-94531523D01*
X173163472Y-94769618D02*
X173163472Y-94269618D01*
X173353948Y-94269618D01*
X173401567Y-94293428D01*
X173425377Y-94317237D01*
X173449186Y-94364856D01*
X173449186Y-94436285D01*
X173425377Y-94483904D01*
X173401567Y-94507713D01*
X173353948Y-94531523D01*
X173163472Y-94531523D01*
X173615853Y-94269618D02*
X173949186Y-94269618D01*
X173734900Y-94769618D01*
X157931091Y-85761999D02*
X157907281Y-85785808D01*
X157835853Y-85809618D01*
X157788234Y-85809618D01*
X157716805Y-85785808D01*
X157669186Y-85738189D01*
X157645377Y-85690570D01*
X157621567Y-85595332D01*
X157621567Y-85523904D01*
X157645377Y-85428666D01*
X157669186Y-85381047D01*
X157716805Y-85333428D01*
X157788234Y-85309618D01*
X157835853Y-85309618D01*
X157907281Y-85333428D01*
X157931091Y-85357237D01*
X158407281Y-85809618D02*
X158121567Y-85809618D01*
X158264424Y-85809618D02*
X158264424Y-85309618D01*
X158216805Y-85381047D01*
X158169186Y-85428666D01*
X158121567Y-85452475D01*
X158716805Y-85309618D02*
X158764424Y-85309618D01*
X158812043Y-85333428D01*
X158835853Y-85357237D01*
X158859662Y-85404856D01*
X158883472Y-85500094D01*
X158883472Y-85619142D01*
X158859662Y-85714380D01*
X158835853Y-85761999D01*
X158812043Y-85785808D01*
X158764424Y-85809618D01*
X158716805Y-85809618D01*
X158669186Y-85785808D01*
X158645377Y-85761999D01*
X158621567Y-85714380D01*
X158597758Y-85619142D01*
X158597758Y-85500094D01*
X158621567Y-85404856D01*
X158645377Y-85357237D01*
X158669186Y-85333428D01*
X158716805Y-85309618D01*
X181525948Y-80269618D02*
X181525948Y-80674380D01*
X181549757Y-80721999D01*
X181573567Y-80745808D01*
X181621186Y-80769618D01*
X181716424Y-80769618D01*
X181764043Y-80745808D01*
X181787853Y-80721999D01*
X181811662Y-80674380D01*
X181811662Y-80269618D01*
X182311662Y-80769618D02*
X182025948Y-80769618D01*
X182168805Y-80769618D02*
X182168805Y-80269618D01*
X182121186Y-80341047D01*
X182073567Y-80388666D01*
X182025948Y-80412475D01*
X182621186Y-80269618D02*
X182668805Y-80269618D01*
X182716424Y-80293428D01*
X182740234Y-80317237D01*
X182764043Y-80364856D01*
X182787853Y-80460094D01*
X182787853Y-80579142D01*
X182764043Y-80674380D01*
X182740234Y-80721999D01*
X182716424Y-80745808D01*
X182668805Y-80769618D01*
X182621186Y-80769618D01*
X182573567Y-80745808D01*
X182549757Y-80721999D01*
X182525948Y-80674380D01*
X182502138Y-80579142D01*
X182502138Y-80460094D01*
X182525948Y-80364856D01*
X182549757Y-80317237D01*
X182573567Y-80293428D01*
X182621186Y-80269618D01*
X168461091Y-62556999D02*
X168437281Y-62580808D01*
X168365853Y-62604618D01*
X168318234Y-62604618D01*
X168246805Y-62580808D01*
X168199186Y-62533189D01*
X168175377Y-62485570D01*
X168151567Y-62390332D01*
X168151567Y-62318904D01*
X168175377Y-62223666D01*
X168199186Y-62176047D01*
X168246805Y-62128428D01*
X168318234Y-62104618D01*
X168365853Y-62104618D01*
X168437281Y-62128428D01*
X168461091Y-62152237D01*
X168937281Y-62604618D02*
X168651567Y-62604618D01*
X168794424Y-62604618D02*
X168794424Y-62104618D01*
X168746805Y-62176047D01*
X168699186Y-62223666D01*
X168651567Y-62247475D01*
X169389662Y-62104618D02*
X169151567Y-62104618D01*
X169127758Y-62342713D01*
X169151567Y-62318904D01*
X169199186Y-62295094D01*
X169318234Y-62295094D01*
X169365853Y-62318904D01*
X169389662Y-62342713D01*
X169413472Y-62390332D01*
X169413472Y-62509380D01*
X169389662Y-62556999D01*
X169365853Y-62580808D01*
X169318234Y-62604618D01*
X169199186Y-62604618D01*
X169151567Y-62580808D01*
X169127758Y-62556999D01*
X161651567Y-103269618D02*
X161651567Y-102769618D01*
X161651567Y-103007713D02*
X161937281Y-103007713D01*
X161937281Y-103269618D02*
X161937281Y-102769618D01*
X162199186Y-103269618D02*
X162294424Y-103269618D01*
X162342043Y-103245808D01*
X162365853Y-103221999D01*
X162413472Y-103150570D01*
X162437281Y-103055332D01*
X162437281Y-102864856D01*
X162413472Y-102817237D01*
X162389662Y-102793428D01*
X162342043Y-102769618D01*
X162246805Y-102769618D01*
X162199186Y-102793428D01*
X162175377Y-102817237D01*
X162151567Y-102864856D01*
X162151567Y-102983904D01*
X162175377Y-103031523D01*
X162199186Y-103055332D01*
X162246805Y-103079142D01*
X162342043Y-103079142D01*
X162389662Y-103055332D01*
X162413472Y-103031523D01*
X162437281Y-102983904D01*
X160901567Y-86769618D02*
X160901567Y-87174380D01*
X160925377Y-87221999D01*
X160949186Y-87245808D01*
X160996805Y-87269618D01*
X161092043Y-87269618D01*
X161139662Y-87245808D01*
X161163472Y-87221999D01*
X161187281Y-87174380D01*
X161187281Y-86769618D01*
X161663472Y-86769618D02*
X161425377Y-86769618D01*
X161401567Y-87007713D01*
X161425377Y-86983904D01*
X161472996Y-86960094D01*
X161592043Y-86960094D01*
X161639662Y-86983904D01*
X161663472Y-87007713D01*
X161687281Y-87055332D01*
X161687281Y-87174380D01*
X161663472Y-87221999D01*
X161639662Y-87245808D01*
X161592043Y-87269618D01*
X161472996Y-87269618D01*
X161425377Y-87245808D01*
X161401567Y-87221999D01*
X170949186Y-93519618D02*
X170782520Y-93281523D01*
X170663472Y-93519618D02*
X170663472Y-93019618D01*
X170853948Y-93019618D01*
X170901567Y-93043428D01*
X170925377Y-93067237D01*
X170949186Y-93114856D01*
X170949186Y-93186285D01*
X170925377Y-93233904D01*
X170901567Y-93257713D01*
X170853948Y-93281523D01*
X170663472Y-93281523D01*
X171139662Y-93067237D02*
X171163472Y-93043428D01*
X171211091Y-93019618D01*
X171330139Y-93019618D01*
X171377758Y-93043428D01*
X171401567Y-93067237D01*
X171425377Y-93114856D01*
X171425377Y-93162475D01*
X171401567Y-93233904D01*
X171115853Y-93519618D01*
X171425377Y-93519618D01*
X173211091Y-52971999D02*
X173187281Y-52995808D01*
X173115853Y-53019618D01*
X173068234Y-53019618D01*
X172996805Y-52995808D01*
X172949186Y-52948189D01*
X172925377Y-52900570D01*
X172901567Y-52805332D01*
X172901567Y-52733904D01*
X172925377Y-52638666D01*
X172949186Y-52591047D01*
X172996805Y-52543428D01*
X173068234Y-52519618D01*
X173115853Y-52519618D01*
X173187281Y-52543428D01*
X173211091Y-52567237D01*
X173687281Y-53019618D02*
X173401567Y-53019618D01*
X173544424Y-53019618D02*
X173544424Y-52519618D01*
X173496805Y-52591047D01*
X173449186Y-52638666D01*
X173401567Y-52662475D01*
X174115853Y-52686285D02*
X174115853Y-53019618D01*
X173996805Y-52495808D02*
X173877758Y-52852951D01*
X174187281Y-52852951D01*
X157931091Y-83856999D02*
X157907281Y-83880808D01*
X157835853Y-83904618D01*
X157788234Y-83904618D01*
X157716805Y-83880808D01*
X157669186Y-83833189D01*
X157645377Y-83785570D01*
X157621567Y-83690332D01*
X157621567Y-83618904D01*
X157645377Y-83523666D01*
X157669186Y-83476047D01*
X157716805Y-83428428D01*
X157788234Y-83404618D01*
X157835853Y-83404618D01*
X157907281Y-83428428D01*
X157931091Y-83452237D01*
X158407281Y-83904618D02*
X158121567Y-83904618D01*
X158264424Y-83904618D02*
X158264424Y-83404618D01*
X158216805Y-83476047D01*
X158169186Y-83523666D01*
X158121567Y-83547475D01*
X158883472Y-83904618D02*
X158597758Y-83904618D01*
X158740615Y-83904618D02*
X158740615Y-83404618D01*
X158692996Y-83476047D01*
X158645377Y-83523666D01*
X158597758Y-83547475D01*
X173211091Y-98376761D02*
X173234900Y-98400570D01*
X173258710Y-98471999D01*
X173258710Y-98519618D01*
X173234900Y-98591047D01*
X173187281Y-98638666D01*
X173139662Y-98662475D01*
X173044424Y-98686285D01*
X172972996Y-98686285D01*
X172877758Y-98662475D01*
X172830139Y-98638666D01*
X172782520Y-98591047D01*
X172758710Y-98519618D01*
X172758710Y-98471999D01*
X172782520Y-98400570D01*
X172806329Y-98376761D01*
X172758710Y-97924380D02*
X172758710Y-98162475D01*
X172996805Y-98186285D01*
X172972996Y-98162475D01*
X172949186Y-98114856D01*
X172949186Y-97995808D01*
X172972996Y-97948189D01*
X172996805Y-97924380D01*
X173044424Y-97900570D01*
X173163472Y-97900570D01*
X173211091Y-97924380D01*
X173234900Y-97948189D01*
X173258710Y-97995808D01*
X173258710Y-98114856D01*
X173234900Y-98162475D01*
X173211091Y-98186285D01*
X179151567Y-80769618D02*
X179151567Y-81174380D01*
X179175377Y-81221999D01*
X179199186Y-81245808D01*
X179246805Y-81269618D01*
X179342043Y-81269618D01*
X179389662Y-81245808D01*
X179413472Y-81221999D01*
X179437281Y-81174380D01*
X179437281Y-80769618D01*
X179937281Y-81269618D02*
X179651567Y-81269618D01*
X179794424Y-81269618D02*
X179794424Y-80769618D01*
X179746805Y-80841047D01*
X179699186Y-80888666D01*
X179651567Y-80912475D01*
X173151567Y-103769618D02*
X173151567Y-104174380D01*
X173175377Y-104221999D01*
X173199186Y-104245808D01*
X173246805Y-104269618D01*
X173342043Y-104269618D01*
X173389662Y-104245808D01*
X173413472Y-104221999D01*
X173437281Y-104174380D01*
X173437281Y-103769618D01*
X173889662Y-103769618D02*
X173794424Y-103769618D01*
X173746805Y-103793428D01*
X173722996Y-103817237D01*
X173675377Y-103888666D01*
X173651567Y-103983904D01*
X173651567Y-104174380D01*
X173675377Y-104221999D01*
X173699186Y-104245808D01*
X173746805Y-104269618D01*
X173842043Y-104269618D01*
X173889662Y-104245808D01*
X173913472Y-104221999D01*
X173937281Y-104174380D01*
X173937281Y-104055332D01*
X173913472Y-104007713D01*
X173889662Y-103983904D01*
X173842043Y-103960094D01*
X173746805Y-103960094D01*
X173699186Y-103983904D01*
X173675377Y-104007713D01*
X173651567Y-104055332D01*
X178171710Y-101569429D02*
X178290758Y-101569429D01*
X178243139Y-101688476D02*
X178290758Y-101569429D01*
X178243139Y-101450381D01*
X178385996Y-101640857D02*
X178290758Y-101569429D01*
X178385996Y-101498000D01*
X178719329Y-101569429D02*
X178600281Y-101569429D01*
X178647900Y-101450381D02*
X178600281Y-101569429D01*
X178647900Y-101688476D01*
X178505043Y-101498000D02*
X178600281Y-101569429D01*
X178505043Y-101640857D01*
X188913472Y-42269618D02*
X188913472Y-41769618D01*
X188913472Y-42007713D02*
X189199186Y-42007713D01*
X189199186Y-42269618D02*
X189199186Y-41769618D01*
X189699186Y-42269618D02*
X189413472Y-42269618D01*
X189556329Y-42269618D02*
X189556329Y-41769618D01*
X189508710Y-41841047D01*
X189461091Y-41888666D01*
X189413472Y-41912475D01*
X190175377Y-42269618D02*
X189889662Y-42269618D01*
X190032520Y-42269618D02*
X190032520Y-41769618D01*
X189984900Y-41841047D01*
X189937281Y-41888666D01*
X189889662Y-41912475D01*
X173211091Y-92721999D02*
X173187281Y-92745808D01*
X173115853Y-92769618D01*
X173068234Y-92769618D01*
X172996805Y-92745808D01*
X172949186Y-92698189D01*
X172925377Y-92650570D01*
X172901567Y-92555332D01*
X172901567Y-92483904D01*
X172925377Y-92388666D01*
X172949186Y-92341047D01*
X172996805Y-92293428D01*
X173068234Y-92269618D01*
X173115853Y-92269618D01*
X173187281Y-92293428D01*
X173211091Y-92317237D01*
X173687281Y-92769618D02*
X173401567Y-92769618D01*
X173544424Y-92769618D02*
X173544424Y-92269618D01*
X173496805Y-92341047D01*
X173449186Y-92388666D01*
X173401567Y-92412475D01*
X173877758Y-92317237D02*
X173901567Y-92293428D01*
X173949186Y-92269618D01*
X174068234Y-92269618D01*
X174115853Y-92293428D01*
X174139662Y-92317237D01*
X174163472Y-92364856D01*
X174163472Y-92412475D01*
X174139662Y-92483904D01*
X173853948Y-92769618D01*
X174163472Y-92769618D01*
D12*
X157997796Y-73405928D02*
X158507244Y-73405928D01*
X157997796Y-72360928D02*
X158507244Y-72360928D01*
X175777796Y-78485928D02*
X176287244Y-78485928D01*
X175777796Y-77440928D02*
X176287244Y-77440928D01*
X180857796Y-94360928D02*
X181367244Y-94360928D01*
X180857796Y-93315928D02*
X181367244Y-93315928D01*
X162175020Y-96758704D02*
X162175020Y-97268152D01*
X163220020Y-96758704D02*
X163220020Y-97268152D01*
X180857796Y-98170928D02*
X181367244Y-98170928D01*
X180857796Y-97125928D02*
X181367244Y-97125928D01*
X188117520Y-97013428D02*
X188117520Y-95063428D01*
X182997520Y-97013428D02*
X182997520Y-95063428D01*
X188117520Y-97013428D02*
X188117520Y-98963428D01*
X182997520Y-97013428D02*
X182997520Y-100463428D01*
X155457796Y-96900928D02*
X155967244Y-96900928D01*
X155457796Y-95855928D02*
X155967244Y-95855928D01*
X158252520Y-79253428D02*
X160202520Y-79253428D01*
X158252520Y-74133428D02*
X160202520Y-74133428D01*
X158252520Y-79253428D02*
X156302520Y-79253428D01*
X158252520Y-74133428D02*
X154802520Y-74133428D01*
X171207244Y-100710928D02*
X170697796Y-100710928D01*
X171207244Y-99665928D02*
X170697796Y-99665928D01*
X181580607Y-86385341D02*
X182040226Y-86844961D01*
X179374433Y-88591515D02*
X179834053Y-89051134D01*
X179374433Y-88591515D02*
X178914814Y-88131895D01*
X181580607Y-86385341D02*
X180396203Y-85200938D01*
X173693302Y-77762646D02*
X172137667Y-77055540D01*
X170617387Y-80414297D02*
X170758809Y-80697139D01*
X171465915Y-81192114D02*
X174188276Y-78469753D01*
X170758809Y-80697139D02*
X171465915Y-81192114D01*
X170051702Y-79141505D02*
X170334545Y-79777901D01*
X172137667Y-77055540D02*
X170051702Y-79141505D01*
X174188276Y-78469753D02*
X173693302Y-77762646D01*
X181367244Y-96265928D02*
X180857796Y-96265928D01*
X181367244Y-95220928D02*
X180857796Y-95220928D01*
X198935020Y-60763152D02*
X198935020Y-60253704D01*
X199980020Y-60763152D02*
X199980020Y-60253704D01*
X171207244Y-96900928D02*
X170697796Y-96900928D01*
X171207244Y-95855928D02*
X170697796Y-95855928D01*
X163947520Y-97013428D02*
X163947520Y-95063428D01*
X163947520Y-97013428D02*
X163947520Y-98963428D01*
X169067520Y-97013428D02*
X169067520Y-98963428D01*
X169067520Y-97013428D02*
X169067520Y-93563428D01*
X155457796Y-94995928D02*
X155967244Y-94995928D01*
X155457796Y-93950928D02*
X155967244Y-93950928D01*
X173412520Y-95708428D02*
X173412520Y-98368428D01*
X176012520Y-95708428D02*
X173412520Y-95708428D01*
X176012520Y-95708428D02*
X176012520Y-98368428D01*
X178612520Y-97038428D02*
X178612520Y-98368428D01*
X176012520Y-98368428D02*
X173412520Y-98368428D01*
X178612520Y-98368428D02*
X177282520Y-98368428D01*
X181367244Y-100075928D02*
X180857796Y-100075928D01*
X181367244Y-99030928D02*
X180857796Y-99030928D01*
X178277796Y-66150928D02*
X178787244Y-66150928D01*
X178277796Y-65105928D02*
X178787244Y-65105928D01*
X172130597Y-89024246D02*
X172766993Y-88741403D01*
X170751738Y-85382646D02*
X170044632Y-86938281D01*
X170044632Y-86938281D02*
X172130597Y-89024246D01*
X173403389Y-88458561D02*
X173686231Y-88317139D01*
X173686231Y-88317139D02*
X174181206Y-87610033D01*
X174181206Y-87610033D02*
X171458845Y-84887672D01*
X171458845Y-84887672D02*
X170751738Y-85382646D01*
X198935020Y-64063704D02*
X198935020Y-64573152D01*
X199980020Y-64063704D02*
X199980020Y-64573152D01*
X182555020Y-59133152D02*
X182555020Y-58623704D01*
X181510020Y-59133152D02*
X181510020Y-58623704D01*
X179642520Y-56268428D02*
X179642520Y-56718428D01*
X172872520Y-63488428D02*
X172422520Y-63488428D01*
X179192520Y-56268428D02*
X179642520Y-56268428D01*
X172422520Y-63488428D02*
X172422520Y-63038428D01*
X179192520Y-63488428D02*
X179642520Y-63488428D01*
X179642520Y-63488428D02*
X179642520Y-63038428D01*
X172422520Y-56268428D02*
X172422520Y-56718428D01*
X172872520Y-56268428D02*
X172422520Y-56268428D01*
X179642520Y-63038428D02*
X180932520Y-63038428D01*
X188845020Y-97268152D02*
X188845020Y-96758704D01*
X189890020Y-97268152D02*
X189890020Y-96758704D01*
X176287244Y-94995928D02*
X175777796Y-94995928D01*
X176287244Y-93950928D02*
X175777796Y-93950928D01*
X155967244Y-86105928D02*
X155457796Y-86105928D01*
X155967244Y-85060928D02*
X155457796Y-85060928D01*
X179374433Y-77495341D02*
X179834053Y-77035722D01*
X179374433Y-77495341D02*
X178190030Y-78679745D01*
X181580607Y-79701515D02*
X182040226Y-79241895D01*
X181580607Y-79701515D02*
X181120987Y-80161134D01*
X170805020Y-62123704D02*
X170805020Y-62633152D01*
X169760020Y-62123704D02*
X169760020Y-62633152D01*
X160162520Y-86618428D02*
X160162520Y-87878428D01*
X160162520Y-93438428D02*
X160162520Y-92178428D01*
X154152520Y-86618428D02*
X160162520Y-86618428D01*
X156402520Y-93438428D02*
X160162520Y-93438428D01*
X170697796Y-93950928D02*
X171207244Y-93950928D01*
X170697796Y-94995928D02*
X171207244Y-94995928D01*
X173787244Y-53605928D02*
X173277796Y-53605928D01*
X173787244Y-54650928D02*
X173277796Y-54650928D01*
X155967244Y-84200928D02*
X155457796Y-84200928D01*
X155967244Y-83155928D02*
X155457796Y-83155928D01*
X170697796Y-97760928D02*
X171207244Y-97760928D01*
X170697796Y-98805928D02*
X171207244Y-98805928D01*
X173472520Y-83043428D02*
X173472520Y-84993428D01*
X178592520Y-83043428D02*
X178592520Y-79593428D01*
X173472520Y-83043428D02*
X173472520Y-81093428D01*
X178592520Y-83043428D02*
X178592520Y-84993428D01*
D13*
X177582519Y-105548427D02*
X177582519Y-102448429D01*
X174482521Y-102448429D02*
X174482521Y-105548427D01*
G36*
X177223021Y-107387027D02*
G01*
X176842021Y-107387027D01*
X176842021Y-107133027D01*
X177223021Y-107133027D01*
X177223021Y-107387027D01*
G37*
D12*
X175777796Y-92045928D02*
X176287244Y-92045928D01*
X175777796Y-93090928D02*
X176287244Y-93090928D01*
%LPC*%
G36*
X177186020Y-104921928D02*
G01*
X176626220Y-104921928D01*
X176626220Y-103074928D01*
X177186020Y-103074928D01*
X177186020Y-104921928D01*
G37*
G36*
X176226220Y-104921928D02*
G01*
X175838820Y-104921928D01*
X175838820Y-103074928D01*
X176226220Y-103074928D01*
X176226220Y-104921928D01*
G37*
G36*
X177186020Y-104192128D02*
G01*
X174879020Y-104192128D01*
X174879020Y-103804728D01*
X177186020Y-103804728D01*
X177186020Y-104192128D01*
G37*
G36*
X177186020Y-104921928D02*
G01*
X174879020Y-104921928D01*
X174879020Y-104592128D01*
X177186020Y-104592128D01*
X177186020Y-104921928D01*
G37*
G36*
X177186020Y-103404728D02*
G01*
X174879020Y-103404728D01*
X174879020Y-103074928D01*
X177186020Y-103074928D01*
X177186020Y-103404728D01*
G37*
G36*
X175438820Y-104921928D02*
G01*
X174879020Y-104921928D01*
X174879020Y-103074928D01*
X175438820Y-103074928D01*
X175438820Y-104921928D01*
G37*
D14*
X157032520Y-42043428D03*
D15*
X157340020Y-72883428D03*
X159165020Y-72883428D03*
X175120020Y-77963428D03*
X176945020Y-77963428D03*
X180200020Y-93838428D03*
X182025020Y-93838428D03*
D16*
X162697520Y-96100928D03*
X162697520Y-97925928D03*
D15*
X180200020Y-97648428D03*
X182025020Y-97648428D03*
D17*
X183652520Y-99488428D03*
X184922520Y-99488428D03*
X186192520Y-99488428D03*
X187462520Y-99488428D03*
X187462520Y-94538428D03*
X186192520Y-94538428D03*
X184922520Y-94538428D03*
X183652520Y-94538428D03*
D15*
X154800020Y-96378428D03*
X156625020Y-96378428D03*
D18*
X155677520Y-74788428D03*
X155677520Y-76058428D03*
X155677520Y-77328428D03*
X155677520Y-78598428D03*
X160827520Y-78598428D03*
X160827520Y-77328428D03*
X160827520Y-76058428D03*
X160827520Y-74788428D03*
D19*
X171865020Y-100188428D03*
X170040020Y-100188428D03*
D20*
X180486359Y-86153764D03*
X179142856Y-87497267D03*
X181140433Y-88151341D03*
D21*
X171324494Y-80131454D03*
D22*
X172222520Y-79233428D03*
X173120545Y-78335403D03*
D19*
X182025020Y-95743428D03*
X180200020Y-95743428D03*
D23*
X199457520Y-61420928D03*
X199457520Y-59595928D03*
D19*
X171865020Y-96378428D03*
X170040020Y-96378428D03*
D24*
X168412520Y-94538428D03*
X167142520Y-94538428D03*
X165872520Y-94538428D03*
X164602520Y-94538428D03*
X164602520Y-99488428D03*
X165872520Y-99488428D03*
X167142520Y-99488428D03*
X168412520Y-99488428D03*
D15*
X154800020Y-94473428D03*
X156625020Y-94473428D03*
D25*
X177282520Y-97038428D03*
D26*
X174742520Y-97038428D03*
D19*
X182025020Y-99553428D03*
X180200020Y-99553428D03*
D15*
X177620020Y-65628428D03*
X179445020Y-65628428D03*
D27*
X173120546Y-87751454D03*
D28*
X172222520Y-86853428D03*
X171324495Y-85955403D03*
D16*
X199457520Y-63405928D03*
X199457520Y-65230928D03*
D29*
X195032520Y-103043428D03*
D30*
X195032520Y-103043428D03*
D23*
X182032520Y-59790928D03*
X182032520Y-57965928D03*
D31*
X180195020Y-62628428D03*
X180195020Y-62128428D03*
X180195020Y-61628428D03*
X180195020Y-61128428D03*
X180195020Y-60628428D03*
X180195020Y-60128428D03*
X180195020Y-59628428D03*
X180195020Y-59128428D03*
X180195020Y-58628428D03*
X180195020Y-58128428D03*
X180195020Y-57628428D03*
X180195020Y-57128428D03*
D32*
X178782520Y-55715928D03*
X178282520Y-55715928D03*
X177782520Y-55715928D03*
X177282520Y-55715928D03*
X176782520Y-55715928D03*
X176282520Y-55715928D03*
X175782520Y-55715928D03*
X175282520Y-55715928D03*
X174782520Y-55715928D03*
X174282520Y-55715928D03*
X173782520Y-55715928D03*
X173282520Y-55715928D03*
D31*
X171870020Y-57128428D03*
X171870020Y-57628428D03*
X171870020Y-58128428D03*
X171870020Y-58628428D03*
X171870020Y-59128428D03*
X171870020Y-59628428D03*
X171870020Y-60128428D03*
X171870020Y-60628428D03*
X171870020Y-61128428D03*
X171870020Y-61628428D03*
X171870020Y-62128428D03*
X171870020Y-62628428D03*
D32*
X173282520Y-64040928D03*
X173782520Y-64040928D03*
X174282520Y-64040928D03*
X174782520Y-64040928D03*
X175282520Y-64040928D03*
X175782520Y-64040928D03*
X176282520Y-64040928D03*
X176782520Y-64040928D03*
X177282520Y-64040928D03*
X177782520Y-64040928D03*
X178282520Y-64040928D03*
X178782520Y-64040928D03*
D23*
X189367520Y-97925928D03*
X189367520Y-96100928D03*
D19*
X176945020Y-94473428D03*
X175120020Y-94473428D03*
X156625020Y-85583428D03*
X154800020Y-85583428D03*
D33*
X179142856Y-78589589D03*
X180486359Y-79933092D03*
X181140433Y-77935515D03*
D16*
X170282520Y-61465928D03*
X170282520Y-63290928D03*
D30*
X157032520Y-103043428D03*
D29*
X157032520Y-103043428D03*
D34*
X155102520Y-87728428D03*
D35*
X161402520Y-90028428D03*
D34*
X155102520Y-90028428D03*
X155102520Y-92328428D03*
D15*
X170040020Y-94473428D03*
X171865020Y-94473428D03*
D19*
X174445020Y-54128428D03*
X172620020Y-54128428D03*
X156625020Y-83678428D03*
X154800020Y-83678428D03*
D15*
X170040020Y-98283428D03*
X171865020Y-98283428D03*
D36*
X177937520Y-80468428D03*
X176667520Y-80468428D03*
X175397520Y-80468428D03*
X174127520Y-80468428D03*
X174127520Y-85618428D03*
X175397520Y-85618428D03*
X176667520Y-85618428D03*
X177937520Y-85618428D03*
D37*
X177032521Y-101823429D03*
X176532519Y-101823429D03*
X176032520Y-101823429D03*
X175532521Y-101823429D03*
X175032519Y-101823429D03*
X175032519Y-106173427D03*
X175532521Y-106173427D03*
X176032520Y-106173427D03*
X176532519Y-106173427D03*
X177032521Y-106173427D03*
D38*
X175638820Y-104392128D03*
X176426220Y-103604728D03*
X175638820Y-103604728D03*
X176426220Y-104392128D03*
D14*
X195032520Y-42043428D03*
D15*
X175120020Y-92568428D03*
X176945020Y-92568428D03*
D25*
X193742520Y-48443428D03*
D26*
X196282520Y-48443428D03*
X193742520Y-50983428D03*
X196282520Y-50983428D03*
X193742520Y-53523428D03*
X196282520Y-53523428D03*
X193742520Y-56063428D03*
X196282520Y-56063428D03*
X193742520Y-58603428D03*
X196282520Y-58603428D03*
X193742520Y-61143428D03*
X196282520Y-61143428D03*
X193742520Y-63683428D03*
X196282520Y-63683428D03*
X193742520Y-66223428D03*
X196282520Y-66223428D03*
X193742520Y-68763428D03*
X196282520Y-68763428D03*
X193742520Y-71303428D03*
X196282520Y-71303428D03*
X193742520Y-73843428D03*
X196282520Y-73843428D03*
X193742520Y-76383428D03*
X196282520Y-76383428D03*
X193742520Y-78923428D03*
X196282520Y-78923428D03*
X193742520Y-81463428D03*
X196282520Y-81463428D03*
X193742520Y-84003428D03*
X196282520Y-84003428D03*
X193742520Y-86543428D03*
X196282520Y-86543428D03*
X193742520Y-89083428D03*
X196282520Y-89083428D03*
X193742520Y-91623428D03*
X196282520Y-91623428D03*
X193742520Y-94163428D03*
X196282520Y-94163428D03*
X193742520Y-96703428D03*
X196282520Y-96703428D03*
M02*
