G04 #@! TF.GenerationSoftware,KiCad,Pcbnew,(6.0.0)*
G04 #@! TF.CreationDate,2025-05-03T15:15:18+02:00*
G04 #@! TF.ProjectId,Smart Servo Control Board Rev.2,536d6172-7420-4536-9572-766f20436f6e,rev?*
G04 #@! TF.SameCoordinates,Original*
G04 #@! TF.FileFunction,Soldermask,Bot*
G04 #@! TF.FilePolarity,Negative*
%FSLAX46Y46*%
G04 Gerber Fmt 4.6, Leading zero omitted, Abs format (unit mm)*
G04 Created by KiCad (PCBNEW (6.0.0)) date 2025-05-03 15:15:18*
%MOMM*%
%LPD*%
G01*
G04 APERTURE LIST*
G04 Aperture macros list*
%AMRoundRect*
0 Rectangle with rounded corners*
0 $1 Rounding radius*
0 $2 $3 $4 $5 $6 $7 $8 $9 X,Y pos of 4 corners*
0 Add a 4 corners polygon primitive as box body*
4,1,4,$2,$3,$4,$5,$6,$7,$8,$9,$2,$3,0*
0 Add four circle primitives for the rounded corners*
1,1,$1+$1,$2,$3*
1,1,$1+$1,$4,$5*
1,1,$1+$1,$6,$7*
1,1,$1+$1,$8,$9*
0 Add four rect primitives between the rounded corners*
20,1,$1+$1,$2,$3,$4,$5,0*
20,1,$1+$1,$4,$5,$6,$7,0*
20,1,$1+$1,$6,$7,$8,$9,0*
20,1,$1+$1,$8,$9,$2,$3,0*%
%AMHorizOval*
0 Thick line with rounded ends*
0 $1 width*
0 $2 $3 position (X,Y) of the first rounded end (center of the circle)*
0 $4 $5 position (X,Y) of the second rounded end (center of the circle)*
0 Add line between two ends*
20,1,$1,$2,$3,$4,$5,0*
0 Add two circle primitives to create the rounded ends*
1,1,$1,$2,$3*
1,1,$1,$4,$5*%
%AMRotRect*
0 Rectangle, with rotation*
0 The origin of the aperture is its center*
0 $1 length*
0 $2 width*
0 $3 Rotation angle, in degrees counterclockwise*
0 Add horizontal line*
21,1,$1,$2,0,0,$3*%
G04 Aperture macros list end*
%ADD10C,4.300000*%
%ADD11RotRect,1.050000X1.300000X45.000000*%
%ADD12HorizOval,1.050000X-0.088388X0.088388X0.088388X-0.088388X0*%
%ADD13R,1.700000X1.700000*%
%ADD14O,1.700000X1.700000*%
%ADD15RotRect,1.050000X1.300000X135.000000*%
%ADD16HorizOval,1.050000X0.088388X0.088388X-0.088388X-0.088388X0*%
%ADD17C,7.500000*%
%ADD18C,4.700000*%
%ADD19C,0.508000*%
%ADD20RoundRect,0.237500X-0.237500X0.250000X-0.237500X-0.250000X0.237500X-0.250000X0.237500X0.250000X0*%
%ADD21RoundRect,0.237500X0.237500X-0.250000X0.237500X0.250000X-0.237500X0.250000X-0.237500X-0.250000X0*%
%ADD22RoundRect,0.250001X0.624999X-0.462499X0.624999X0.462499X-0.624999X0.462499X-0.624999X-0.462499X0*%
%ADD23RoundRect,0.250000X-0.625000X0.400000X-0.625000X-0.400000X0.625000X-0.400000X0.625000X0.400000X0*%
G04 APERTURE END LIST*
D10*
X157032520Y-42043428D03*
D11*
X171324494Y-80131454D03*
D12*
X172222520Y-79233428D03*
X173120545Y-78335403D03*
D13*
X177282520Y-97038428D03*
D14*
X174742520Y-97038428D03*
D15*
X173120546Y-87751454D03*
D16*
X172222520Y-86853428D03*
X171324495Y-85955403D03*
D17*
X195032520Y-103043428D03*
D18*
X195032520Y-103043428D03*
X157032520Y-103043428D03*
D17*
X157032520Y-103043428D03*
D19*
X175638820Y-104392128D03*
X176426220Y-103604728D03*
X175638820Y-103604728D03*
X176426220Y-104392128D03*
D10*
X195032520Y-42043428D03*
D20*
X199457520Y-54515928D03*
X199457520Y-56340928D03*
D13*
X193742520Y-48443428D03*
D14*
X196282520Y-48443428D03*
X193742520Y-50983428D03*
X196282520Y-50983428D03*
X193742520Y-53523428D03*
X196282520Y-53523428D03*
X193742520Y-56063428D03*
X196282520Y-56063428D03*
X193742520Y-58603428D03*
X196282520Y-58603428D03*
X193742520Y-61143428D03*
X196282520Y-61143428D03*
X193742520Y-63683428D03*
X196282520Y-63683428D03*
X193742520Y-66223428D03*
X196282520Y-66223428D03*
X193742520Y-68763428D03*
X196282520Y-68763428D03*
X193742520Y-71303428D03*
X196282520Y-71303428D03*
X193742520Y-73843428D03*
X196282520Y-73843428D03*
X193742520Y-76383428D03*
X196282520Y-76383428D03*
X193742520Y-78923428D03*
X196282520Y-78923428D03*
X193742520Y-81463428D03*
X196282520Y-81463428D03*
X193742520Y-84003428D03*
X196282520Y-84003428D03*
X193742520Y-86543428D03*
X196282520Y-86543428D03*
X193742520Y-89083428D03*
X196282520Y-89083428D03*
X193742520Y-91623428D03*
X196282520Y-91623428D03*
X193742520Y-94163428D03*
X196282520Y-94163428D03*
X193742520Y-96703428D03*
X196282520Y-96703428D03*
D21*
X199457520Y-93170928D03*
X199457520Y-91345928D03*
D22*
X199457520Y-52470928D03*
X199457520Y-49495928D03*
D20*
X173492520Y-103085928D03*
X173492520Y-104910928D03*
D22*
X199457520Y-98190928D03*
X199457520Y-95215928D03*
D23*
X170952520Y-99019428D03*
X170952520Y-102119428D03*
M02*
