M48
; DRILL file {KiCad (6.0.0)} date Sat May  3 15:15:20 2025
; FORMAT={-:-/ absolute / metric / decimal}
; #@! TF.CreationDate,2025-05-03T15:15:20+02:00
; #@! TF.GenerationSoftware,Kicad,Pcbnew,(6.0.0)
; #@! TF.FileFunction,Plated,1,4,PTH
FMAT,2
METRIC
; #@! TA.AperFunction,Plated,PTH,ComponentDrill
T1C0.254
; #@! TA.AperFunction,Plated,PTH,ViaDrill
T2C0.300
; #@! TA.AperFunction,Plated,PTH,ComponentDrill
T3C0.750
; #@! TA.AperFunction,Plated,PTH,ComponentDrill
T4C1.000
; #@! TA.AperFunction,Plated,PTH,ComponentDrill
T5C4.300
%
G90
G05
T1
X175.639Y-103.605
X175.639Y-104.392
X176.426Y-103.605
X176.426Y-104.392
T2
X163.968Y-77.328
X163.968Y-79.868
X164.603Y-74.788
X165.238Y-78.598
X165.873Y-102.093
X167.143Y-77.328
X173.033Y-61.628
X173.283Y-65.128
X174.033Y-57.128
X174.113Y-106.173
X174.636Y-100.569
X175.033Y-57.128
X175.12Y-93.481
X175.271Y-100.569
X175.533Y-62.628
X176.533Y-62.628
X176.795Y-99.934
X176.795Y-100.569
X177.684Y-101.839
X178.192Y-101.331
X178.283Y-62.396
X180.224Y-96.632
X199.458Y-90.353
T3
X171.324Y-80.131
X171.324Y-85.955
X172.223Y-79.233
X172.223Y-86.853
X173.121Y-78.335
X173.121Y-87.751
T4
X174.743Y-97.038
X177.283Y-97.038
X193.743Y-48.443
X193.743Y-50.983
X193.743Y-53.523
X193.743Y-56.063
X193.743Y-58.603
X193.743Y-61.143
X193.743Y-63.683
X193.743Y-66.223
X193.743Y-68.763
X193.743Y-71.303
X193.743Y-73.843
X193.743Y-76.383
X193.743Y-78.923
X193.743Y-81.463
X193.743Y-84.003
X193.743Y-86.543
X193.743Y-89.083
X193.743Y-91.623
X193.743Y-94.163
X193.743Y-96.703
X196.283Y-48.443
X196.283Y-50.983
X196.283Y-53.523
X196.283Y-56.063
X196.283Y-58.603
X196.283Y-61.143
X196.283Y-63.683
X196.283Y-66.223
X196.283Y-68.763
X196.283Y-71.303
X196.283Y-73.843
X196.283Y-76.383
X196.283Y-78.923
X196.283Y-81.463
X196.283Y-84.003
X196.283Y-86.543
X196.283Y-89.083
X196.283Y-91.623
X196.283Y-94.163
X196.283Y-96.703
T5
X157.033Y-103.043
X195.033Y-103.043
T0
M30
