%FSLAX45Y45*%
G04 Gerber Fmt 4.5, Leading zero omitted, Abs format (unit mm)*
G04 Created by KiCad (PCBNEW (6.0.0)) date 2025-05-03 15:15:52*
%MOMM*%
%LPD*%
G01*
G04 APERTURE LIST*
%TA.AperFunction,Profile*%
%ADD10C,0.100000*%
%TD*%
%ADD11C,0.200000*%
%ADD12C,0.430000*%
G04 APERTURE END LIST*
D10*
X20103252Y-3604343D02*
X25103252Y-3604343D01*
X25103252Y-3604343D02*
X25103252Y-10904343D01*
X25103252Y-10904343D02*
X20103252Y-10904343D01*
X20103252Y-10904343D02*
X20103252Y-3604343D01*
D11*
D12*
X20488252Y-3989343D02*
X20918252Y-4419343D01*
X20918252Y-3989343D02*
X20488252Y-4419343D01*
X24288252Y-3989343D02*
X24718252Y-4419343D01*
X24718252Y-3989343D02*
X24288252Y-4419343D01*
D11*
X20355871Y-11219819D02*
X20355871Y-11019819D01*
X20403490Y-11019819D01*
X20432062Y-11029343D01*
X20451109Y-11048390D01*
X20460633Y-11067438D01*
X20470157Y-11105533D01*
X20470157Y-11134105D01*
X20460633Y-11172200D01*
X20451109Y-11191247D01*
X20432062Y-11210295D01*
X20403490Y-11219819D01*
X20355871Y-11219819D01*
X20555871Y-11219819D02*
X20555871Y-11086486D01*
X20555871Y-11124581D02*
X20565395Y-11105533D01*
X20574919Y-11096009D01*
X20593966Y-11086486D01*
X20613014Y-11086486D01*
X20679681Y-11219819D02*
X20679681Y-11086486D01*
X20679681Y-11019819D02*
X20670157Y-11029343D01*
X20679681Y-11038867D01*
X20689204Y-11029343D01*
X20679681Y-11019819D01*
X20679681Y-11038867D01*
X20803490Y-11219819D02*
X20784442Y-11210295D01*
X20774919Y-11191247D01*
X20774919Y-11019819D01*
X20908252Y-11219819D02*
X20889204Y-11210295D01*
X20879681Y-11191247D01*
X20879681Y-11019819D01*
X21136823Y-11219819D02*
X21136823Y-11019819D01*
X21203490Y-11162676D01*
X21270157Y-11019819D01*
X21270157Y-11219819D01*
X21451109Y-11219819D02*
X21451109Y-11115057D01*
X21441585Y-11096009D01*
X21422538Y-11086486D01*
X21384442Y-11086486D01*
X21365395Y-11096009D01*
X21451109Y-11210295D02*
X21432062Y-11219819D01*
X21384442Y-11219819D01*
X21365395Y-11210295D01*
X21355871Y-11191247D01*
X21355871Y-11172200D01*
X21365395Y-11153152D01*
X21384442Y-11143629D01*
X21432062Y-11143629D01*
X21451109Y-11134105D01*
X21546347Y-11086486D02*
X21546347Y-11286486D01*
X21546347Y-11096009D02*
X21565395Y-11086486D01*
X21603490Y-11086486D01*
X21622538Y-11096009D01*
X21632062Y-11105533D01*
X21641585Y-11124581D01*
X21641585Y-11181724D01*
X21632062Y-11200771D01*
X21622538Y-11210295D01*
X21603490Y-11219819D01*
X21565395Y-11219819D01*
X21546347Y-11210295D01*
X21727300Y-11200771D02*
X21736823Y-11210295D01*
X21727300Y-11219819D01*
X21717776Y-11210295D01*
X21727300Y-11200771D01*
X21727300Y-11219819D01*
X21727300Y-11096009D02*
X21736823Y-11105533D01*
X21727300Y-11115057D01*
X21717776Y-11105533D01*
X21727300Y-11096009D01*
X21727300Y-11115057D01*
X19898252Y-11449343D02*
X20098252Y-11649343D01*
X20098252Y-11449343D02*
X19898252Y-11649343D01*
X20441585Y-11506486D02*
X20441585Y-11639819D01*
X20393966Y-11430295D02*
X20346347Y-11573152D01*
X20470157Y-11573152D01*
X20546347Y-11620771D02*
X20555871Y-11630295D01*
X20546347Y-11639819D01*
X20536823Y-11630295D01*
X20546347Y-11620771D01*
X20546347Y-11639819D01*
X20622538Y-11439819D02*
X20746347Y-11439819D01*
X20679681Y-11516009D01*
X20708252Y-11516009D01*
X20727300Y-11525533D01*
X20736823Y-11535057D01*
X20746347Y-11554105D01*
X20746347Y-11601724D01*
X20736823Y-11620771D01*
X20727300Y-11630295D01*
X20708252Y-11639819D01*
X20651109Y-11639819D01*
X20632062Y-11630295D01*
X20622538Y-11620771D01*
X20870157Y-11439819D02*
X20889204Y-11439819D01*
X20908252Y-11449343D01*
X20917776Y-11458867D01*
X20927300Y-11477914D01*
X20936823Y-11516009D01*
X20936823Y-11563628D01*
X20927300Y-11601724D01*
X20917776Y-11620771D01*
X20908252Y-11630295D01*
X20889204Y-11639819D01*
X20870157Y-11639819D01*
X20851109Y-11630295D01*
X20841585Y-11620771D01*
X20832062Y-11601724D01*
X20822538Y-11563628D01*
X20822538Y-11516009D01*
X20832062Y-11477914D01*
X20841585Y-11458867D01*
X20851109Y-11449343D01*
X20870157Y-11439819D01*
X21060633Y-11439819D02*
X21079681Y-11439819D01*
X21098728Y-11449343D01*
X21108252Y-11458867D01*
X21117776Y-11477914D01*
X21127300Y-11516009D01*
X21127300Y-11563628D01*
X21117776Y-11601724D01*
X21108252Y-11620771D01*
X21098728Y-11630295D01*
X21079681Y-11639819D01*
X21060633Y-11639819D01*
X21041585Y-11630295D01*
X21032062Y-11620771D01*
X21022538Y-11601724D01*
X21013014Y-11563628D01*
X21013014Y-11516009D01*
X21022538Y-11477914D01*
X21032062Y-11458867D01*
X21041585Y-11449343D01*
X21060633Y-11439819D01*
X21213014Y-11639819D02*
X21213014Y-11506486D01*
X21213014Y-11525533D02*
X21222538Y-11516009D01*
X21241585Y-11506486D01*
X21270157Y-11506486D01*
X21289204Y-11516009D01*
X21298728Y-11535057D01*
X21298728Y-11639819D01*
X21298728Y-11535057D02*
X21308252Y-11516009D01*
X21327300Y-11506486D01*
X21355871Y-11506486D01*
X21374919Y-11516009D01*
X21384442Y-11535057D01*
X21384442Y-11639819D01*
X21479681Y-11639819D02*
X21479681Y-11506486D01*
X21479681Y-11525533D02*
X21489204Y-11516009D01*
X21508252Y-11506486D01*
X21536823Y-11506486D01*
X21555871Y-11516009D01*
X21565395Y-11535057D01*
X21565395Y-11639819D01*
X21565395Y-11535057D02*
X21574919Y-11516009D01*
X21593966Y-11506486D01*
X21622538Y-11506486D01*
X21641585Y-11516009D01*
X21651109Y-11535057D01*
X21651109Y-11639819D01*
X22041585Y-11430295D02*
X21870157Y-11687438D01*
X22298728Y-11439819D02*
X22317776Y-11439819D01*
X22336823Y-11449343D01*
X22346347Y-11458867D01*
X22355871Y-11477914D01*
X22365395Y-11516009D01*
X22365395Y-11563628D01*
X22355871Y-11601724D01*
X22346347Y-11620771D01*
X22336823Y-11630295D01*
X22317776Y-11639819D01*
X22298728Y-11639819D01*
X22279681Y-11630295D01*
X22270157Y-11620771D01*
X22260633Y-11601724D01*
X22251109Y-11563628D01*
X22251109Y-11516009D01*
X22260633Y-11477914D01*
X22270157Y-11458867D01*
X22279681Y-11449343D01*
X22298728Y-11439819D01*
X22451109Y-11620771D02*
X22460633Y-11630295D01*
X22451109Y-11639819D01*
X22441585Y-11630295D01*
X22451109Y-11620771D01*
X22451109Y-11639819D01*
X22651109Y-11639819D02*
X22536823Y-11639819D01*
X22593966Y-11639819D02*
X22593966Y-11439819D01*
X22574919Y-11468390D01*
X22555871Y-11487438D01*
X22536823Y-11496962D01*
X22822538Y-11439819D02*
X22784442Y-11439819D01*
X22765395Y-11449343D01*
X22755871Y-11458867D01*
X22736823Y-11487438D01*
X22727300Y-11525533D01*
X22727300Y-11601724D01*
X22736823Y-11620771D01*
X22746347Y-11630295D01*
X22765395Y-11639819D01*
X22803490Y-11639819D01*
X22822538Y-11630295D01*
X22832061Y-11620771D01*
X22841585Y-11601724D01*
X22841585Y-11554105D01*
X22832061Y-11535057D01*
X22822538Y-11525533D01*
X22803490Y-11516009D01*
X22765395Y-11516009D01*
X22746347Y-11525533D01*
X22736823Y-11535057D01*
X22727300Y-11554105D01*
X22936823Y-11639819D02*
X22974919Y-11639819D01*
X22993966Y-11630295D01*
X23003490Y-11620771D01*
X23022538Y-11592200D01*
X23032061Y-11554105D01*
X23032061Y-11477914D01*
X23022538Y-11458867D01*
X23013014Y-11449343D01*
X22993966Y-11439819D01*
X22955871Y-11439819D01*
X22936823Y-11449343D01*
X22927300Y-11458867D01*
X22917776Y-11477914D01*
X22917776Y-11525533D01*
X22927300Y-11544581D01*
X22936823Y-11554105D01*
X22955871Y-11563628D01*
X22993966Y-11563628D01*
X23013014Y-11554105D01*
X23022538Y-11544581D01*
X23032061Y-11525533D01*
X23098728Y-11439819D02*
X23222538Y-11439819D01*
X23155871Y-11516009D01*
X23184442Y-11516009D01*
X23203490Y-11525533D01*
X23213014Y-11535057D01*
X23222538Y-11554105D01*
X23222538Y-11601724D01*
X23213014Y-11620771D01*
X23203490Y-11630295D01*
X23184442Y-11639819D01*
X23127300Y-11639819D01*
X23108252Y-11630295D01*
X23098728Y-11620771D01*
X23298728Y-11439819D02*
X23298728Y-11477914D01*
X23374919Y-11439819D02*
X23374919Y-11477914D01*
X23670157Y-11716009D02*
X23660633Y-11706486D01*
X23641585Y-11677914D01*
X23632061Y-11658867D01*
X23622538Y-11630295D01*
X23613014Y-11582676D01*
X23613014Y-11544581D01*
X23622538Y-11496962D01*
X23632061Y-11468390D01*
X23641585Y-11449343D01*
X23660633Y-11420771D01*
X23670157Y-11411247D01*
X23736823Y-11458867D02*
X23746347Y-11449343D01*
X23765395Y-11439819D01*
X23813014Y-11439819D01*
X23832061Y-11449343D01*
X23841585Y-11458867D01*
X23851109Y-11477914D01*
X23851109Y-11496962D01*
X23841585Y-11525533D01*
X23727300Y-11639819D01*
X23851109Y-11639819D01*
X24089204Y-11639819D02*
X24089204Y-11439819D01*
X24174919Y-11639819D02*
X24174919Y-11535057D01*
X24165395Y-11516009D01*
X24146347Y-11506486D01*
X24117776Y-11506486D01*
X24098728Y-11516009D01*
X24089204Y-11525533D01*
X24298728Y-11639819D02*
X24279680Y-11630295D01*
X24270157Y-11620771D01*
X24260633Y-11601724D01*
X24260633Y-11544581D01*
X24270157Y-11525533D01*
X24279680Y-11516009D01*
X24298728Y-11506486D01*
X24327300Y-11506486D01*
X24346347Y-11516009D01*
X24355871Y-11525533D01*
X24365395Y-11544581D01*
X24365395Y-11601724D01*
X24355871Y-11620771D01*
X24346347Y-11630295D01*
X24327300Y-11639819D01*
X24298728Y-11639819D01*
X24479680Y-11639819D02*
X24460633Y-11630295D01*
X24451109Y-11611247D01*
X24451109Y-11439819D01*
X24632061Y-11630295D02*
X24613014Y-11639819D01*
X24574919Y-11639819D01*
X24555871Y-11630295D01*
X24546347Y-11611247D01*
X24546347Y-11535057D01*
X24555871Y-11516009D01*
X24574919Y-11506486D01*
X24613014Y-11506486D01*
X24632061Y-11516009D01*
X24641585Y-11535057D01*
X24641585Y-11554105D01*
X24546347Y-11573152D01*
X24717776Y-11630295D02*
X24736823Y-11639819D01*
X24774919Y-11639819D01*
X24793966Y-11630295D01*
X24803490Y-11611247D01*
X24803490Y-11601724D01*
X24793966Y-11582676D01*
X24774919Y-11573152D01*
X24746347Y-11573152D01*
X24727300Y-11563628D01*
X24717776Y-11544581D01*
X24717776Y-11535057D01*
X24727300Y-11516009D01*
X24746347Y-11506486D01*
X24774919Y-11506486D01*
X24793966Y-11516009D01*
X24870157Y-11716009D02*
X24879680Y-11706486D01*
X24898728Y-11677914D01*
X24908252Y-11658867D01*
X24917776Y-11630295D01*
X24927300Y-11582676D01*
X24927300Y-11544581D01*
X24917776Y-11496962D01*
X24908252Y-11468390D01*
X24898728Y-11449343D01*
X24879680Y-11420771D01*
X24870157Y-11411247D01*
X25232061Y-11716009D02*
X25222538Y-11706486D01*
X25203490Y-11677914D01*
X25193966Y-11658867D01*
X25184442Y-11630295D01*
X25174919Y-11582676D01*
X25174919Y-11544581D01*
X25184442Y-11496962D01*
X25193966Y-11468390D01*
X25203490Y-11449343D01*
X25222538Y-11420771D01*
X25232061Y-11411247D01*
X25308252Y-11506486D02*
X25308252Y-11639819D01*
X25308252Y-11525533D02*
X25317776Y-11516009D01*
X25336823Y-11506486D01*
X25365395Y-11506486D01*
X25384442Y-11516009D01*
X25393966Y-11535057D01*
X25393966Y-11639819D01*
X25517776Y-11639819D02*
X25498728Y-11630295D01*
X25489204Y-11620771D01*
X25479680Y-11601724D01*
X25479680Y-11544581D01*
X25489204Y-11525533D01*
X25498728Y-11516009D01*
X25517776Y-11506486D01*
X25546347Y-11506486D01*
X25565395Y-11516009D01*
X25574919Y-11525533D01*
X25584442Y-11544581D01*
X25584442Y-11601724D01*
X25574919Y-11620771D01*
X25565395Y-11630295D01*
X25546347Y-11639819D01*
X25517776Y-11639819D01*
X25641585Y-11506486D02*
X25717776Y-11506486D01*
X25670157Y-11439819D02*
X25670157Y-11611247D01*
X25679680Y-11630295D01*
X25698728Y-11639819D01*
X25717776Y-11639819D01*
X25936823Y-11506486D02*
X25936823Y-11706486D01*
X25936823Y-11516009D02*
X25955871Y-11506486D01*
X25993966Y-11506486D01*
X26013014Y-11516009D01*
X26022538Y-11525533D01*
X26032061Y-11544581D01*
X26032061Y-11601724D01*
X26022538Y-11620771D01*
X26013014Y-11630295D01*
X25993966Y-11639819D01*
X25955871Y-11639819D01*
X25936823Y-11630295D01*
X26146347Y-11639819D02*
X26127300Y-11630295D01*
X26117776Y-11611247D01*
X26117776Y-11439819D01*
X26308252Y-11639819D02*
X26308252Y-11535057D01*
X26298728Y-11516009D01*
X26279680Y-11506486D01*
X26241585Y-11506486D01*
X26222538Y-11516009D01*
X26308252Y-11630295D02*
X26289204Y-11639819D01*
X26241585Y-11639819D01*
X26222538Y-11630295D01*
X26213014Y-11611247D01*
X26213014Y-11592200D01*
X26222538Y-11573152D01*
X26241585Y-11563628D01*
X26289204Y-11563628D01*
X26308252Y-11554105D01*
X26374919Y-11506486D02*
X26451109Y-11506486D01*
X26403490Y-11439819D02*
X26403490Y-11611247D01*
X26413014Y-11630295D01*
X26432061Y-11639819D01*
X26451109Y-11639819D01*
X26593966Y-11630295D02*
X26574919Y-11639819D01*
X26536823Y-11639819D01*
X26517776Y-11630295D01*
X26508252Y-11611247D01*
X26508252Y-11535057D01*
X26517776Y-11516009D01*
X26536823Y-11506486D01*
X26574919Y-11506486D01*
X26593966Y-11516009D01*
X26603490Y-11535057D01*
X26603490Y-11554105D01*
X26508252Y-11573152D01*
X26774919Y-11639819D02*
X26774919Y-11439819D01*
X26774919Y-11630295D02*
X26755871Y-11639819D01*
X26717776Y-11639819D01*
X26698728Y-11630295D01*
X26689204Y-11620771D01*
X26679680Y-11601724D01*
X26679680Y-11544581D01*
X26689204Y-11525533D01*
X26698728Y-11516009D01*
X26717776Y-11506486D01*
X26755871Y-11506486D01*
X26774919Y-11516009D01*
X26851109Y-11716009D02*
X26860633Y-11706486D01*
X26879680Y-11677914D01*
X26889204Y-11658867D01*
X26898728Y-11630295D01*
X26908252Y-11582676D01*
X26908252Y-11544581D01*
X26898728Y-11496962D01*
X26889204Y-11468390D01*
X26879680Y-11449343D01*
X26860633Y-11420771D01*
X26851109Y-11411247D01*
M02*
