G04 #@! TF.GenerationSoftware,KiCad,Pcbnew,(6.0.0)*
G04 #@! TF.CreationDate,2025-05-03T15:15:50+02:00*
G04 #@! TF.ProjectId,Smart Servo Control Board Rev.2,536d6172-7420-4536-9572-766f20436f6e,rev?*
G04 #@! TF.SameCoordinates,Original*
G04 #@! TF.FileFunction,Legend,Bot*
G04 #@! TF.FilePolarity,Positive*
%FSLAX46Y46*%
G04 Gerber Fmt 4.6, Leading zero omitted, Abs format (unit mm)*
G04 Created by KiCad (PCBNEW (6.0.0)) date 2025-05-03 15:15:50*
%MOMM*%
%LPD*%
G01*
G04 APERTURE LIST*
G04 Aperture macros list*
%AMRoundRect*
0 Rectangle with rounded corners*
0 $1 Rounding radius*
0 $2 $3 $4 $5 $6 $7 $8 $9 X,Y pos of 4 corners*
0 Add a 4 corners polygon primitive as box body*
4,1,4,$2,$3,$4,$5,$6,$7,$8,$9,$2,$3,0*
0 Add four circle primitives for the rounded corners*
1,1,$1+$1,$2,$3*
1,1,$1+$1,$4,$5*
1,1,$1+$1,$6,$7*
1,1,$1+$1,$8,$9*
0 Add four rect primitives between the rounded corners*
20,1,$1+$1,$2,$3,$4,$5,0*
20,1,$1+$1,$4,$5,$6,$7,0*
20,1,$1+$1,$6,$7,$8,$9,0*
20,1,$1+$1,$8,$9,$2,$3,0*%
G04 Aperture macros list end*
%ADD10C,0.150000*%
%ADD11C,0.125000*%
%ADD12C,0.120000*%
%ADD13C,7.500000*%
%ADD14C,4.700000*%
%ADD15C,4.300000*%
%ADD16RoundRect,0.237500X-0.237500X0.250000X-0.237500X-0.250000X0.237500X-0.250000X0.237500X0.250000X0*%
%ADD17R,1.700000X1.700000*%
%ADD18O,1.700000X1.700000*%
%ADD19RoundRect,0.250001X0.624999X-0.462499X0.624999X0.462499X-0.624999X0.462499X-0.624999X-0.462499X0*%
%ADD20RoundRect,0.237500X0.237500X-0.250000X0.237500X0.250000X-0.237500X0.250000X-0.237500X-0.250000X0*%
G04 APERTURE END LIST*
D10*
X227486805Y-46325808D02*
X228058234Y-46325808D01*
X227772520Y-46325808D02*
X227772520Y-45325808D01*
X227867758Y-45468666D01*
X227962996Y-45563904D01*
X228058234Y-45611523D01*
X209484424Y-97491047D02*
X209436805Y-97443428D01*
X209341567Y-97395808D01*
X209103472Y-97395808D01*
X209008234Y-97443428D01*
X208960615Y-97491047D01*
X208912996Y-97586285D01*
X208912996Y-97681523D01*
X208960615Y-97824380D01*
X209532043Y-98395808D01*
X208912996Y-98395808D01*
X208293948Y-97395808D02*
X208198710Y-97395808D01*
X208103472Y-97443428D01*
X208055853Y-97491047D01*
X208008234Y-97586285D01*
X207960615Y-97776761D01*
X207960615Y-98014856D01*
X208008234Y-98205332D01*
X208055853Y-98300570D01*
X208103472Y-98348189D01*
X208198710Y-98395808D01*
X208293948Y-98395808D01*
X208389186Y-98348189D01*
X208436805Y-98300570D01*
X208484424Y-98205332D01*
X208532043Y-98014856D01*
X208532043Y-97776761D01*
X208484424Y-97586285D01*
X208436805Y-97491047D01*
X208389186Y-97443428D01*
X208293948Y-97395808D01*
X213294424Y-98761047D02*
X213246805Y-98713428D01*
X213151567Y-98665808D01*
X212913472Y-98665808D01*
X212818234Y-98713428D01*
X212770615Y-98761047D01*
X212722996Y-98856285D01*
X212722996Y-98951523D01*
X212770615Y-99094380D01*
X213342043Y-99665808D01*
X212722996Y-99665808D01*
X211770615Y-99665808D02*
X212342043Y-99665808D01*
X212056329Y-99665808D02*
X212056329Y-98665808D01*
X212151567Y-98808666D01*
X212246805Y-98903904D01*
X212342043Y-98951523D01*
X231296805Y-47595808D02*
X231868234Y-47595808D01*
X231582520Y-47595808D02*
X231582520Y-46595808D01*
X231677758Y-46738666D01*
X231772996Y-46833904D01*
X231868234Y-46881523D01*
X231772996Y-98395808D02*
X232344424Y-98395808D01*
X232058710Y-98395808D02*
X232058710Y-97395808D01*
X232153948Y-97538666D01*
X232249186Y-97633904D01*
X232344424Y-97681523D01*
X231296805Y-98395808D02*
X231106329Y-98395808D01*
X231011091Y-98348189D01*
X230963472Y-98300570D01*
X230868234Y-98157713D01*
X230820615Y-97967237D01*
X230820615Y-97586285D01*
X230868234Y-97491047D01*
X230915853Y-97443428D01*
X231011091Y-97395808D01*
X231201567Y-97395808D01*
X231296805Y-97443428D01*
X231344424Y-97491047D01*
X231392043Y-97586285D01*
X231392043Y-97824380D01*
X231344424Y-97919618D01*
X231296805Y-97967237D01*
X231201567Y-98014856D01*
X231011091Y-98014856D01*
X230915853Y-97967237D01*
X230868234Y-97919618D01*
X230820615Y-97824380D01*
X221414424Y-52110808D02*
X221414424Y-52920332D01*
X221366805Y-53015570D01*
X221319186Y-53063189D01*
X221223948Y-53110808D01*
X221033472Y-53110808D01*
X220938234Y-53063189D01*
X220890615Y-53015570D01*
X220842996Y-52920332D01*
X220842996Y-52110808D01*
X220414424Y-53063189D02*
X220271567Y-53110808D01*
X220033472Y-53110808D01*
X219938234Y-53063189D01*
X219890615Y-53015570D01*
X219842996Y-52920332D01*
X219842996Y-52825094D01*
X219890615Y-52729856D01*
X219938234Y-52682237D01*
X220033472Y-52634618D01*
X220223948Y-52586999D01*
X220319186Y-52539380D01*
X220366805Y-52491761D01*
X220414424Y-52396523D01*
X220414424Y-52301285D01*
X220366805Y-52206047D01*
X220319186Y-52158428D01*
X220223948Y-52110808D01*
X219985853Y-52110808D01*
X219842996Y-52158428D01*
X219081091Y-52586999D02*
X218938234Y-52634618D01*
X218890615Y-52682237D01*
X218842996Y-52777475D01*
X218842996Y-52920332D01*
X218890615Y-53015570D01*
X218938234Y-53063189D01*
X219033472Y-53110808D01*
X219414424Y-53110808D01*
X219414424Y-52110808D01*
X219081091Y-52110808D01*
X218985853Y-52158428D01*
X218938234Y-52206047D01*
X218890615Y-52301285D01*
X218890615Y-52396523D01*
X218938234Y-52491761D01*
X218985853Y-52539380D01*
X219081091Y-52586999D01*
X219414424Y-52586999D01*
X221819186Y-54720808D02*
X221819186Y-53720808D01*
X221438234Y-53720808D01*
X221342996Y-53768428D01*
X221295377Y-53816047D01*
X221247758Y-53911285D01*
X221247758Y-54054142D01*
X221295377Y-54149380D01*
X221342996Y-54196999D01*
X221438234Y-54244618D01*
X221819186Y-54244618D01*
X220628710Y-53720808D02*
X220438234Y-53720808D01*
X220342996Y-53768428D01*
X220247758Y-53863666D01*
X220200139Y-54054142D01*
X220200139Y-54387475D01*
X220247758Y-54577951D01*
X220342996Y-54673189D01*
X220438234Y-54720808D01*
X220628710Y-54720808D01*
X220723948Y-54673189D01*
X220819186Y-54577951D01*
X220866805Y-54387475D01*
X220866805Y-54054142D01*
X220819186Y-53863666D01*
X220723948Y-53768428D01*
X220628710Y-53720808D01*
X219200139Y-54720808D02*
X219533472Y-54244618D01*
X219771567Y-54720808D02*
X219771567Y-53720808D01*
X219390615Y-53720808D01*
X219295377Y-53768428D01*
X219247758Y-53816047D01*
X219200139Y-53911285D01*
X219200139Y-54054142D01*
X219247758Y-54149380D01*
X219295377Y-54196999D01*
X219390615Y-54244618D01*
X219771567Y-54244618D01*
X218914424Y-53720808D02*
X218342996Y-53720808D01*
X218628710Y-54720808D02*
X218628710Y-53720808D01*
X228534424Y-98761047D02*
X228486805Y-98713428D01*
X228391567Y-98665808D01*
X228153472Y-98665808D01*
X228058234Y-98713428D01*
X228010615Y-98761047D01*
X227962996Y-98856285D01*
X227962996Y-98951523D01*
X228010615Y-99094380D01*
X228582043Y-99665808D01*
X227962996Y-99665808D01*
X227343948Y-98665808D02*
X227248710Y-98665808D01*
X227153472Y-98713428D01*
X227105853Y-98761047D01*
X227058234Y-98856285D01*
X227010615Y-99046761D01*
X227010615Y-99284856D01*
X227058234Y-99475332D01*
X227105853Y-99570570D01*
X227153472Y-99618189D01*
X227248710Y-99665808D01*
X227343948Y-99665808D01*
X227439186Y-99618189D01*
X227486805Y-99570570D01*
X227534424Y-99475332D01*
X227582043Y-99284856D01*
X227582043Y-99046761D01*
X227534424Y-98856285D01*
X227486805Y-98761047D01*
X227439186Y-98713428D01*
X227343948Y-98665808D01*
X212818234Y-45659142D02*
X212818234Y-46325808D01*
X213056329Y-45278189D02*
X213294424Y-45992475D01*
X212675377Y-45992475D01*
X212103948Y-45325808D02*
X212008710Y-45325808D01*
X211913472Y-45373428D01*
X211865853Y-45421047D01*
X211818234Y-45516285D01*
X211770615Y-45706761D01*
X211770615Y-45944856D01*
X211818234Y-46135332D01*
X211865853Y-46230570D01*
X211913472Y-46278189D01*
X212008710Y-46325808D01*
X212103948Y-46325808D01*
X212199186Y-46278189D01*
X212246805Y-46230570D01*
X212294424Y-46135332D01*
X212342043Y-45944856D01*
X212342043Y-45706761D01*
X212294424Y-45516285D01*
X212246805Y-45421047D01*
X212199186Y-45373428D01*
X212103948Y-45325808D01*
X209532043Y-46595808D02*
X208912996Y-46595808D01*
X209246329Y-46976761D01*
X209103472Y-46976761D01*
X209008234Y-47024380D01*
X208960615Y-47071999D01*
X208912996Y-47167237D01*
X208912996Y-47405332D01*
X208960615Y-47500570D01*
X209008234Y-47548189D01*
X209103472Y-47595808D01*
X209389186Y-47595808D01*
X209484424Y-47548189D01*
X209532043Y-47500570D01*
X208341567Y-47024380D02*
X208436805Y-46976761D01*
X208484424Y-46929142D01*
X208532043Y-46833904D01*
X208532043Y-46786285D01*
X208484424Y-46691047D01*
X208436805Y-46643428D01*
X208341567Y-46595808D01*
X208151091Y-46595808D01*
X208055853Y-46643428D01*
X208008234Y-46691047D01*
X207960615Y-46786285D01*
X207960615Y-46833904D01*
X208008234Y-46929142D01*
X208055853Y-46976761D01*
X208151091Y-47024380D01*
X208341567Y-47024380D01*
X208436805Y-47071999D01*
X208484424Y-47119618D01*
X208532043Y-47214856D01*
X208532043Y-47405332D01*
X208484424Y-47500570D01*
X208436805Y-47548189D01*
X208341567Y-47595808D01*
X208151091Y-47595808D01*
X208055853Y-47548189D01*
X208008234Y-47500570D01*
X207960615Y-47405332D01*
X207960615Y-47214856D01*
X208008234Y-47119618D01*
X208055853Y-47071999D01*
X208151091Y-47024380D01*
X213862520Y-47143428D02*
X226442520Y-47143428D01*
X213862520Y-98003428D02*
X226442520Y-98003428D01*
X220787520Y-49018428D02*
X220152520Y-48383428D01*
X220152520Y-48383428D02*
X220152520Y-50923428D01*
X219517520Y-49018428D02*
X220152520Y-48383428D01*
D11*
X239225853Y-71089142D02*
X239225853Y-71755808D01*
X239463948Y-70708189D02*
X239702043Y-71422475D01*
X239082996Y-71422475D01*
X238654424Y-71755808D02*
X238463948Y-71755808D01*
X238368710Y-71708189D01*
X238321091Y-71660570D01*
X238225853Y-71517713D01*
X238178234Y-71327237D01*
X238178234Y-70946285D01*
X238225853Y-70851047D01*
X238273472Y-70803428D01*
X238368710Y-70755808D01*
X238559186Y-70755808D01*
X238654424Y-70803428D01*
X238702043Y-70851047D01*
X238749662Y-70946285D01*
X238749662Y-71184380D01*
X238702043Y-71279618D01*
X238654424Y-71327237D01*
X238559186Y-71374856D01*
X238368710Y-71374856D01*
X238273472Y-71327237D01*
X238225853Y-71279618D01*
X238178234Y-71184380D01*
X237749662Y-71231999D02*
X237416329Y-71231999D01*
X237273472Y-71755808D02*
X237749662Y-71755808D01*
X237749662Y-70755808D01*
X237273472Y-70755808D01*
X236844900Y-71374856D02*
X236082996Y-71374856D01*
X235082996Y-71755808D02*
X235654424Y-71755808D01*
X235368710Y-71755808D02*
X235368710Y-70755808D01*
X235463948Y-70898666D01*
X235559186Y-70993904D01*
X235654424Y-71041523D01*
X239678234Y-84455808D02*
X239678234Y-83455808D01*
X239440139Y-83455808D01*
X239297281Y-83503428D01*
X239202043Y-83598666D01*
X239154424Y-83693904D01*
X239106805Y-83884380D01*
X239106805Y-84027237D01*
X239154424Y-84217713D01*
X239202043Y-84312951D01*
X239297281Y-84408189D01*
X239440139Y-84455808D01*
X239678234Y-84455808D01*
X238106805Y-84455808D02*
X238440139Y-83979618D01*
X238678234Y-84455808D02*
X238678234Y-83455808D01*
X238297281Y-83455808D01*
X238202043Y-83503428D01*
X238154424Y-83551047D01*
X238106805Y-83646285D01*
X238106805Y-83789142D01*
X238154424Y-83884380D01*
X238202043Y-83931999D01*
X238297281Y-83979618D01*
X238678234Y-83979618D01*
X237821091Y-83455808D02*
X237487758Y-84455808D01*
X237154424Y-83455808D01*
X236821091Y-84074856D02*
X236059186Y-84074856D01*
X235630615Y-83551047D02*
X235582996Y-83503428D01*
X235487758Y-83455808D01*
X235249662Y-83455808D01*
X235154424Y-83503428D01*
X235106805Y-83551047D01*
X235059186Y-83646285D01*
X235059186Y-83741523D01*
X235106805Y-83884380D01*
X235678234Y-84455808D01*
X235059186Y-84455808D01*
X239821091Y-89535808D02*
X239821091Y-88535808D01*
X239344900Y-89535808D02*
X239344900Y-88535808D01*
X238773472Y-89535808D01*
X238773472Y-88535808D01*
X238344900Y-89250094D02*
X237868710Y-89250094D01*
X238440139Y-89535808D02*
X238106805Y-88535808D01*
X237773472Y-89535808D01*
X236916329Y-89535808D02*
X237487758Y-89535808D01*
X237202043Y-89535808D02*
X237202043Y-88535808D01*
X237297281Y-88678666D01*
X237392520Y-88773904D01*
X237487758Y-88821523D01*
X235725853Y-89154856D02*
X234963948Y-89154856D01*
X238154424Y-47943428D02*
X238249662Y-47895808D01*
X238392520Y-47895808D01*
X238535377Y-47943428D01*
X238630615Y-48038666D01*
X238678234Y-48133904D01*
X238725853Y-48324380D01*
X238725853Y-48467237D01*
X238678234Y-48657713D01*
X238630615Y-48752951D01*
X238535377Y-48848189D01*
X238392520Y-48895808D01*
X238297281Y-48895808D01*
X238154424Y-48848189D01*
X238106805Y-48800570D01*
X238106805Y-48467237D01*
X238297281Y-48467237D01*
X237678234Y-48895808D02*
X237678234Y-47895808D01*
X237106805Y-48895808D01*
X237106805Y-47895808D01*
X236630615Y-48895808D02*
X236630615Y-47895808D01*
X236392520Y-47895808D01*
X236249662Y-47943428D01*
X236154424Y-48038666D01*
X236106805Y-48133904D01*
X236059186Y-48324380D01*
X236059186Y-48467237D01*
X236106805Y-48657713D01*
X236154424Y-48752951D01*
X236249662Y-48848189D01*
X236392520Y-48895808D01*
X236630615Y-48895808D01*
X239654424Y-69168189D02*
X239511567Y-69215808D01*
X239273472Y-69215808D01*
X239178234Y-69168189D01*
X239130615Y-69120570D01*
X239082996Y-69025332D01*
X239082996Y-68930094D01*
X239130615Y-68834856D01*
X239178234Y-68787237D01*
X239273472Y-68739618D01*
X239463948Y-68691999D01*
X239559186Y-68644380D01*
X239606805Y-68596761D01*
X239654424Y-68501523D01*
X239654424Y-68406285D01*
X239606805Y-68311047D01*
X239559186Y-68263428D01*
X239463948Y-68215808D01*
X239225853Y-68215808D01*
X239082996Y-68263428D01*
X238749662Y-68215808D02*
X238511567Y-69215808D01*
X238321091Y-68501523D01*
X238130615Y-69215808D01*
X237892520Y-68215808D01*
X236940139Y-69120570D02*
X236987758Y-69168189D01*
X237130615Y-69215808D01*
X237225853Y-69215808D01*
X237368710Y-69168189D01*
X237463948Y-69072951D01*
X237511567Y-68977713D01*
X237559186Y-68787237D01*
X237559186Y-68644380D01*
X237511567Y-68453904D01*
X237463948Y-68358666D01*
X237368710Y-68263428D01*
X237225853Y-68215808D01*
X237130615Y-68215808D01*
X236987758Y-68263428D01*
X236940139Y-68311047D01*
X236035377Y-69215808D02*
X236511567Y-69215808D01*
X236511567Y-68215808D01*
X235702043Y-69215808D02*
X235702043Y-68215808D01*
X235130615Y-69215808D02*
X235559186Y-68644380D01*
X235130615Y-68215808D02*
X235702043Y-68787237D01*
X238678234Y-51054856D02*
X237916329Y-51054856D01*
X238297281Y-51435808D02*
X238297281Y-50673904D01*
X236963948Y-50435808D02*
X237440139Y-50435808D01*
X237487758Y-50911999D01*
X237440139Y-50864380D01*
X237344900Y-50816761D01*
X237106805Y-50816761D01*
X237011567Y-50864380D01*
X236963948Y-50911999D01*
X236916329Y-51007237D01*
X236916329Y-51245332D01*
X236963948Y-51340570D01*
X237011567Y-51388189D01*
X237106805Y-51435808D01*
X237344900Y-51435808D01*
X237440139Y-51388189D01*
X237487758Y-51340570D01*
X236630615Y-50435808D02*
X236297281Y-51435808D01*
X235963948Y-50435808D01*
X222295377Y-63196999D02*
X221962043Y-63196999D01*
X221819186Y-63720808D02*
X222295377Y-63720808D01*
X222295377Y-62720808D01*
X221819186Y-62720808D01*
X221438234Y-63673189D02*
X221295377Y-63720808D01*
X221057281Y-63720808D01*
X220962043Y-63673189D01*
X220914424Y-63625570D01*
X220866805Y-63530332D01*
X220866805Y-63435094D01*
X220914424Y-63339856D01*
X220962043Y-63292237D01*
X221057281Y-63244618D01*
X221247758Y-63196999D01*
X221342996Y-63149380D01*
X221390615Y-63101761D01*
X221438234Y-63006523D01*
X221438234Y-62911285D01*
X221390615Y-62816047D01*
X221342996Y-62768428D01*
X221247758Y-62720808D01*
X221009662Y-62720808D01*
X220866805Y-62768428D01*
X220438234Y-63720808D02*
X220438234Y-62720808D01*
X220057281Y-62720808D01*
X219962043Y-62768428D01*
X219914424Y-62816047D01*
X219866805Y-62911285D01*
X219866805Y-63054142D01*
X219914424Y-63149380D01*
X219962043Y-63196999D01*
X220057281Y-63244618D01*
X220438234Y-63244618D01*
X219533472Y-62720808D02*
X218914424Y-62720808D01*
X219247758Y-63101761D01*
X219104900Y-63101761D01*
X219009662Y-63149380D01*
X218962043Y-63196999D01*
X218914424Y-63292237D01*
X218914424Y-63530332D01*
X218962043Y-63625570D01*
X219009662Y-63673189D01*
X219104900Y-63720808D01*
X219390615Y-63720808D01*
X219485853Y-63673189D01*
X219533472Y-63625570D01*
X218533472Y-62816047D02*
X218485853Y-62768428D01*
X218390615Y-62720808D01*
X218152520Y-62720808D01*
X218057281Y-62768428D01*
X218009662Y-62816047D01*
X217962043Y-62911285D01*
X217962043Y-63006523D01*
X218009662Y-63149380D01*
X218581091Y-63720808D01*
X217962043Y-63720808D01*
X220533472Y-65330808D02*
X220628710Y-65283189D01*
X220676329Y-65235570D01*
X220723948Y-65140332D01*
X220723948Y-64854618D01*
X220676329Y-64759380D01*
X220628710Y-64711761D01*
X220533472Y-64664142D01*
X220390615Y-64664142D01*
X220295377Y-64711761D01*
X220247758Y-64759380D01*
X220200139Y-64854618D01*
X220200139Y-65140332D01*
X220247758Y-65235570D01*
X220295377Y-65283189D01*
X220390615Y-65330808D01*
X220533472Y-65330808D01*
X219771567Y-65330808D02*
X219771567Y-64664142D01*
X219771567Y-64854618D02*
X219723948Y-64759380D01*
X219676329Y-64711761D01*
X219581091Y-64664142D01*
X219485853Y-64664142D01*
X222342996Y-66893189D02*
X222200139Y-66940808D01*
X221962043Y-66940808D01*
X221866805Y-66893189D01*
X221819186Y-66845570D01*
X221771567Y-66750332D01*
X221771567Y-66655094D01*
X221819186Y-66559856D01*
X221866805Y-66512237D01*
X221962043Y-66464618D01*
X222152520Y-66416999D01*
X222247758Y-66369380D01*
X222295377Y-66321761D01*
X222342996Y-66226523D01*
X222342996Y-66131285D01*
X222295377Y-66036047D01*
X222247758Y-65988428D01*
X222152520Y-65940808D01*
X221914424Y-65940808D01*
X221771567Y-65988428D01*
X221485853Y-65940808D02*
X220914424Y-65940808D01*
X221200139Y-66940808D02*
X221200139Y-65940808D01*
X220581091Y-66940808D02*
X220581091Y-65940808D01*
X220247758Y-66655094D01*
X219914424Y-65940808D01*
X219914424Y-66940808D01*
X219533472Y-65940808D02*
X218914424Y-65940808D01*
X219247758Y-66321761D01*
X219104900Y-66321761D01*
X219009662Y-66369380D01*
X218962043Y-66416999D01*
X218914424Y-66512237D01*
X218914424Y-66750332D01*
X218962043Y-66845570D01*
X219009662Y-66893189D01*
X219104900Y-66940808D01*
X219390615Y-66940808D01*
X219485853Y-66893189D01*
X219533472Y-66845570D01*
X218533472Y-66036047D02*
X218485853Y-65988428D01*
X218390615Y-65940808D01*
X218152520Y-65940808D01*
X218057281Y-65988428D01*
X218009662Y-66036047D01*
X217962043Y-66131285D01*
X217962043Y-66226523D01*
X218009662Y-66369380D01*
X218581091Y-66940808D01*
X217962043Y-66940808D01*
X239511567Y-66628189D02*
X239368710Y-66675808D01*
X239130615Y-66675808D01*
X239035377Y-66628189D01*
X238987758Y-66580570D01*
X238940139Y-66485332D01*
X238940139Y-66390094D01*
X238987758Y-66294856D01*
X239035377Y-66247237D01*
X239130615Y-66199618D01*
X239321091Y-66151999D01*
X239416329Y-66104380D01*
X239463948Y-66056761D01*
X239511567Y-65961523D01*
X239511567Y-65866285D01*
X239463948Y-65771047D01*
X239416329Y-65723428D01*
X239321091Y-65675808D01*
X239082996Y-65675808D01*
X238940139Y-65723428D01*
X238606805Y-65675808D02*
X238368710Y-66675808D01*
X238178234Y-65961523D01*
X237987758Y-66675808D01*
X237749662Y-65675808D01*
X237368710Y-66675808D02*
X237368710Y-65675808D01*
X237130615Y-65675808D01*
X236987758Y-65723428D01*
X236892520Y-65818666D01*
X236844900Y-65913904D01*
X236797281Y-66104380D01*
X236797281Y-66247237D01*
X236844900Y-66437713D01*
X236892520Y-66532951D01*
X236987758Y-66628189D01*
X237130615Y-66675808D01*
X237368710Y-66675808D01*
X236368710Y-66675808D02*
X236368710Y-65675808D01*
X235702043Y-65675808D02*
X235511567Y-65675808D01*
X235416329Y-65723428D01*
X235321091Y-65818666D01*
X235273472Y-66009142D01*
X235273472Y-66342475D01*
X235321091Y-66532951D01*
X235416329Y-66628189D01*
X235511567Y-66675808D01*
X235702043Y-66675808D01*
X235797281Y-66628189D01*
X235892520Y-66532951D01*
X235940139Y-66342475D01*
X235940139Y-66009142D01*
X235892520Y-65818666D01*
X235797281Y-65723428D01*
X235702043Y-65675808D01*
X239225853Y-78709142D02*
X239225853Y-79375808D01*
X239463948Y-78328189D02*
X239702043Y-79042475D01*
X239082996Y-79042475D01*
X238654424Y-79375808D02*
X238463948Y-79375808D01*
X238368710Y-79328189D01*
X238321091Y-79280570D01*
X238225853Y-79137713D01*
X238178234Y-78947237D01*
X238178234Y-78566285D01*
X238225853Y-78471047D01*
X238273472Y-78423428D01*
X238368710Y-78375808D01*
X238559186Y-78375808D01*
X238654424Y-78423428D01*
X238702043Y-78471047D01*
X238749662Y-78566285D01*
X238749662Y-78804380D01*
X238702043Y-78899618D01*
X238654424Y-78947237D01*
X238559186Y-78994856D01*
X238368710Y-78994856D01*
X238273472Y-78947237D01*
X238225853Y-78899618D01*
X238178234Y-78804380D01*
X237749662Y-78851999D02*
X237416329Y-78851999D01*
X237273472Y-79375808D02*
X237749662Y-79375808D01*
X237749662Y-78375808D01*
X237273472Y-78375808D01*
X236844900Y-78994856D02*
X236082996Y-78994856D01*
X235178234Y-78709142D02*
X235178234Y-79375808D01*
X235416329Y-78328189D02*
X235654424Y-79042475D01*
X235035377Y-79042475D01*
X239392520Y-53594856D02*
X238630615Y-53594856D01*
X239011567Y-53975808D02*
X239011567Y-53213904D01*
X238249662Y-52975808D02*
X237630615Y-52975808D01*
X237963948Y-53356761D01*
X237821091Y-53356761D01*
X237725853Y-53404380D01*
X237678234Y-53451999D01*
X237630615Y-53547237D01*
X237630615Y-53785332D01*
X237678234Y-53880570D01*
X237725853Y-53928189D01*
X237821091Y-53975808D01*
X238106805Y-53975808D01*
X238202043Y-53928189D01*
X238249662Y-53880570D01*
X237202043Y-53880570D02*
X237154424Y-53928189D01*
X237202043Y-53975808D01*
X237249662Y-53928189D01*
X237202043Y-53880570D01*
X237202043Y-53975808D01*
X236821091Y-52975808D02*
X236202043Y-52975808D01*
X236535377Y-53356761D01*
X236392520Y-53356761D01*
X236297281Y-53404380D01*
X236249662Y-53451999D01*
X236202043Y-53547237D01*
X236202043Y-53785332D01*
X236249662Y-53880570D01*
X236297281Y-53928189D01*
X236392520Y-53975808D01*
X236678234Y-53975808D01*
X236773472Y-53928189D01*
X236821091Y-53880570D01*
X235916329Y-52975808D02*
X235582996Y-53975808D01*
X235249662Y-52975808D01*
X239082996Y-56468189D02*
X238940139Y-56515808D01*
X238702043Y-56515808D01*
X238606805Y-56468189D01*
X238559186Y-56420570D01*
X238511567Y-56325332D01*
X238511567Y-56230094D01*
X238559186Y-56134856D01*
X238606805Y-56087237D01*
X238702043Y-56039618D01*
X238892520Y-55991999D01*
X238987758Y-55944380D01*
X239035377Y-55896761D01*
X239082996Y-55801523D01*
X239082996Y-55706285D01*
X239035377Y-55611047D01*
X238987758Y-55563428D01*
X238892520Y-55515808D01*
X238654424Y-55515808D01*
X238511567Y-55563428D01*
X238082996Y-56515808D02*
X238082996Y-55515808D01*
X237844900Y-55515808D01*
X237702043Y-55563428D01*
X237606805Y-55658666D01*
X237559186Y-55753904D01*
X237511567Y-55944380D01*
X237511567Y-56087237D01*
X237559186Y-56277713D01*
X237606805Y-56372951D01*
X237702043Y-56468189D01*
X237844900Y-56515808D01*
X238082996Y-56515808D01*
X237130615Y-56230094D02*
X236654424Y-56230094D01*
X237225853Y-56515808D02*
X236892520Y-55515808D01*
X236559186Y-56515808D01*
X235702043Y-56515808D02*
X236273472Y-56515808D01*
X235987758Y-56515808D02*
X235987758Y-55515808D01*
X236082996Y-55658666D01*
X236178234Y-55753904D01*
X236273472Y-55801523D01*
X239059186Y-59008189D02*
X238916329Y-59055808D01*
X238678234Y-59055808D01*
X238582996Y-59008189D01*
X238535377Y-58960570D01*
X238487758Y-58865332D01*
X238487758Y-58770094D01*
X238535377Y-58674856D01*
X238582996Y-58627237D01*
X238678234Y-58579618D01*
X238868710Y-58531999D01*
X238963948Y-58484380D01*
X239011567Y-58436761D01*
X239059186Y-58341523D01*
X239059186Y-58246285D01*
X239011567Y-58151047D01*
X238963948Y-58103428D01*
X238868710Y-58055808D01*
X238630615Y-58055808D01*
X238487758Y-58103428D01*
X237487758Y-58960570D02*
X237535377Y-59008189D01*
X237678234Y-59055808D01*
X237773472Y-59055808D01*
X237916329Y-59008189D01*
X238011567Y-58912951D01*
X238059186Y-58817713D01*
X238106805Y-58627237D01*
X238106805Y-58484380D01*
X238059186Y-58293904D01*
X238011567Y-58198666D01*
X237916329Y-58103428D01*
X237773472Y-58055808D01*
X237678234Y-58055808D01*
X237535377Y-58103428D01*
X237487758Y-58151047D01*
X236582996Y-59055808D02*
X237059186Y-59055808D01*
X237059186Y-58055808D01*
X235725853Y-59055808D02*
X236297281Y-59055808D01*
X236011567Y-59055808D02*
X236011567Y-58055808D01*
X236106805Y-58198666D01*
X236202043Y-58293904D01*
X236297281Y-58341523D01*
X239225853Y-76169142D02*
X239225853Y-76835808D01*
X239463948Y-75788189D02*
X239702043Y-76502475D01*
X239082996Y-76502475D01*
X238654424Y-76835808D02*
X238463948Y-76835808D01*
X238368710Y-76788189D01*
X238321091Y-76740570D01*
X238225853Y-76597713D01*
X238178234Y-76407237D01*
X238178234Y-76026285D01*
X238225853Y-75931047D01*
X238273472Y-75883428D01*
X238368710Y-75835808D01*
X238559186Y-75835808D01*
X238654424Y-75883428D01*
X238702043Y-75931047D01*
X238749662Y-76026285D01*
X238749662Y-76264380D01*
X238702043Y-76359618D01*
X238654424Y-76407237D01*
X238559186Y-76454856D01*
X238368710Y-76454856D01*
X238273472Y-76407237D01*
X238225853Y-76359618D01*
X238178234Y-76264380D01*
X237749662Y-76311999D02*
X237416329Y-76311999D01*
X237273472Y-76835808D02*
X237749662Y-76835808D01*
X237749662Y-75835808D01*
X237273472Y-75835808D01*
X236844900Y-76454856D02*
X236082996Y-76454856D01*
X235702043Y-75835808D02*
X235082996Y-75835808D01*
X235416329Y-76216761D01*
X235273472Y-76216761D01*
X235178234Y-76264380D01*
X235130615Y-76311999D01*
X235082996Y-76407237D01*
X235082996Y-76645332D01*
X235130615Y-76740570D01*
X235178234Y-76788189D01*
X235273472Y-76835808D01*
X235559186Y-76835808D01*
X235654424Y-76788189D01*
X235702043Y-76740570D01*
X238987758Y-96631999D02*
X239321091Y-96631999D01*
X239321091Y-97155808D02*
X239321091Y-96155808D01*
X238844900Y-96155808D01*
X238511567Y-96870094D02*
X238035377Y-96870094D01*
X238606805Y-97155808D02*
X238273472Y-96155808D01*
X237940139Y-97155808D01*
X237606805Y-96155808D02*
X237606805Y-96965332D01*
X237559186Y-97060570D01*
X237511567Y-97108189D01*
X237416329Y-97155808D01*
X237225853Y-97155808D01*
X237130615Y-97108189D01*
X237082996Y-97060570D01*
X237035377Y-96965332D01*
X237035377Y-96155808D01*
X236082996Y-97155808D02*
X236559186Y-97155808D01*
X236559186Y-96155808D01*
X235892520Y-96155808D02*
X235321091Y-96155808D01*
X235606805Y-97155808D02*
X235606805Y-96155808D01*
X239821091Y-94615808D02*
X239821091Y-93615808D01*
X239344900Y-94615808D02*
X239344900Y-93615808D01*
X238773472Y-94615808D01*
X238773472Y-93615808D01*
X238344900Y-94330094D02*
X237868710Y-94330094D01*
X238440139Y-94615808D02*
X238106805Y-93615808D01*
X237773472Y-94615808D01*
X237487758Y-93711047D02*
X237440139Y-93663428D01*
X237344900Y-93615808D01*
X237106805Y-93615808D01*
X237011567Y-93663428D01*
X236963948Y-93711047D01*
X236916329Y-93806285D01*
X236916329Y-93901523D01*
X236963948Y-94044380D01*
X237535377Y-94615808D01*
X236916329Y-94615808D01*
X235725853Y-94234856D02*
X234963948Y-94234856D01*
X235344900Y-94615808D02*
X235344900Y-93853904D01*
X239678234Y-81915808D02*
X239678234Y-80915808D01*
X239440139Y-80915808D01*
X239297281Y-80963428D01*
X239202043Y-81058666D01*
X239154424Y-81153904D01*
X239106805Y-81344380D01*
X239106805Y-81487237D01*
X239154424Y-81677713D01*
X239202043Y-81772951D01*
X239297281Y-81868189D01*
X239440139Y-81915808D01*
X239678234Y-81915808D01*
X238106805Y-81915808D02*
X238440139Y-81439618D01*
X238678234Y-81915808D02*
X238678234Y-80915808D01*
X238297281Y-80915808D01*
X238202043Y-80963428D01*
X238154424Y-81011047D01*
X238106805Y-81106285D01*
X238106805Y-81249142D01*
X238154424Y-81344380D01*
X238202043Y-81391999D01*
X238297281Y-81439618D01*
X238678234Y-81439618D01*
X237821091Y-80915808D02*
X237487758Y-81915808D01*
X237154424Y-80915808D01*
X236821091Y-81534856D02*
X236059186Y-81534856D01*
X235059186Y-81915808D02*
X235630615Y-81915808D01*
X235344900Y-81915808D02*
X235344900Y-80915808D01*
X235440139Y-81058666D01*
X235535377Y-81153904D01*
X235630615Y-81201523D01*
X239821091Y-92075808D02*
X239821091Y-91075808D01*
X239344900Y-92075808D02*
X239344900Y-91075808D01*
X238773472Y-92075808D01*
X238773472Y-91075808D01*
X238344900Y-91790094D02*
X237868710Y-91790094D01*
X238440139Y-92075808D02*
X238106805Y-91075808D01*
X237773472Y-92075808D01*
X237487758Y-91171047D02*
X237440139Y-91123428D01*
X237344900Y-91075808D01*
X237106805Y-91075808D01*
X237011567Y-91123428D01*
X236963948Y-91171047D01*
X236916329Y-91266285D01*
X236916329Y-91361523D01*
X236963948Y-91504380D01*
X237535377Y-92075808D01*
X236916329Y-92075808D01*
X235725853Y-91694856D02*
X234963948Y-91694856D01*
X239821091Y-86995808D02*
X239821091Y-85995808D01*
X239344900Y-86995808D02*
X239344900Y-85995808D01*
X238773472Y-86995808D01*
X238773472Y-85995808D01*
X238344900Y-86710094D02*
X237868710Y-86710094D01*
X238440139Y-86995808D02*
X238106805Y-85995808D01*
X237773472Y-86995808D01*
X236916329Y-86995808D02*
X237487758Y-86995808D01*
X237202043Y-86995808D02*
X237202043Y-85995808D01*
X237297281Y-86138666D01*
X237392520Y-86233904D01*
X237487758Y-86281523D01*
X235725853Y-86614856D02*
X234963948Y-86614856D01*
X235344900Y-86995808D02*
X235344900Y-86233904D01*
X239082996Y-61548189D02*
X238940139Y-61595808D01*
X238702043Y-61595808D01*
X238606805Y-61548189D01*
X238559186Y-61500570D01*
X238511567Y-61405332D01*
X238511567Y-61310094D01*
X238559186Y-61214856D01*
X238606805Y-61167237D01*
X238702043Y-61119618D01*
X238892520Y-61071999D01*
X238987758Y-61024380D01*
X239035377Y-60976761D01*
X239082996Y-60881523D01*
X239082996Y-60786285D01*
X239035377Y-60691047D01*
X238987758Y-60643428D01*
X238892520Y-60595808D01*
X238654424Y-60595808D01*
X238511567Y-60643428D01*
X238082996Y-61595808D02*
X238082996Y-60595808D01*
X237844900Y-60595808D01*
X237702043Y-60643428D01*
X237606805Y-60738666D01*
X237559186Y-60833904D01*
X237511567Y-61024380D01*
X237511567Y-61167237D01*
X237559186Y-61357713D01*
X237606805Y-61452951D01*
X237702043Y-61548189D01*
X237844900Y-61595808D01*
X238082996Y-61595808D01*
X237130615Y-61310094D02*
X236654424Y-61310094D01*
X237225853Y-61595808D02*
X236892520Y-60595808D01*
X236559186Y-61595808D01*
X236273472Y-60691047D02*
X236225853Y-60643428D01*
X236130615Y-60595808D01*
X235892520Y-60595808D01*
X235797281Y-60643428D01*
X235749662Y-60691047D01*
X235702043Y-60786285D01*
X235702043Y-60881523D01*
X235749662Y-61024380D01*
X236321091Y-61595808D01*
X235702043Y-61595808D01*
X239225853Y-73659142D02*
X239225853Y-74325808D01*
X239463948Y-73278189D02*
X239702043Y-73992475D01*
X239082996Y-73992475D01*
X238654424Y-74325808D02*
X238463948Y-74325808D01*
X238368710Y-74278189D01*
X238321091Y-74230570D01*
X238225853Y-74087713D01*
X238178234Y-73897237D01*
X238178234Y-73516285D01*
X238225853Y-73421047D01*
X238273472Y-73373428D01*
X238368710Y-73325808D01*
X238559186Y-73325808D01*
X238654424Y-73373428D01*
X238702043Y-73421047D01*
X238749662Y-73516285D01*
X238749662Y-73754380D01*
X238702043Y-73849618D01*
X238654424Y-73897237D01*
X238559186Y-73944856D01*
X238368710Y-73944856D01*
X238273472Y-73897237D01*
X238225853Y-73849618D01*
X238178234Y-73754380D01*
X237749662Y-73801999D02*
X237416329Y-73801999D01*
X237273472Y-74325808D02*
X237749662Y-74325808D01*
X237749662Y-73325808D01*
X237273472Y-73325808D01*
X236844900Y-73944856D02*
X236082996Y-73944856D01*
X235654424Y-73421047D02*
X235606805Y-73373428D01*
X235511567Y-73325808D01*
X235273472Y-73325808D01*
X235178234Y-73373428D01*
X235130615Y-73421047D01*
X235082996Y-73516285D01*
X235082996Y-73611523D01*
X235130615Y-73754380D01*
X235702043Y-74325808D01*
X235082996Y-74325808D01*
X239059186Y-64088189D02*
X238916329Y-64135808D01*
X238678234Y-64135808D01*
X238582996Y-64088189D01*
X238535377Y-64040570D01*
X238487758Y-63945332D01*
X238487758Y-63850094D01*
X238535377Y-63754856D01*
X238582996Y-63707237D01*
X238678234Y-63659618D01*
X238868710Y-63611999D01*
X238963948Y-63564380D01*
X239011567Y-63516761D01*
X239059186Y-63421523D01*
X239059186Y-63326285D01*
X239011567Y-63231047D01*
X238963948Y-63183428D01*
X238868710Y-63135808D01*
X238630615Y-63135808D01*
X238487758Y-63183428D01*
X237487758Y-64040570D02*
X237535377Y-64088189D01*
X237678234Y-64135808D01*
X237773472Y-64135808D01*
X237916329Y-64088189D01*
X238011567Y-63992951D01*
X238059186Y-63897713D01*
X238106805Y-63707237D01*
X238106805Y-63564380D01*
X238059186Y-63373904D01*
X238011567Y-63278666D01*
X237916329Y-63183428D01*
X237773472Y-63135808D01*
X237678234Y-63135808D01*
X237535377Y-63183428D01*
X237487758Y-63231047D01*
X236582996Y-64135808D02*
X237059186Y-64135808D01*
X237059186Y-63135808D01*
X236297281Y-63231047D02*
X236249662Y-63183428D01*
X236154424Y-63135808D01*
X235916329Y-63135808D01*
X235821091Y-63183428D01*
X235773472Y-63231047D01*
X235725853Y-63326285D01*
X235725853Y-63421523D01*
X235773472Y-63564380D01*
X236344900Y-64135808D01*
X235725853Y-64135808D01*
X249853948Y-58019618D02*
X250020615Y-57781523D01*
X250139662Y-58019618D02*
X250139662Y-57519618D01*
X249949186Y-57519618D01*
X249901567Y-57543428D01*
X249877758Y-57567237D01*
X249853948Y-57614856D01*
X249853948Y-57686285D01*
X249877758Y-57733904D01*
X249901567Y-57757713D01*
X249949186Y-57781523D01*
X250139662Y-57781523D01*
X249377758Y-58019618D02*
X249663472Y-58019618D01*
X249520615Y-58019618D02*
X249520615Y-57519618D01*
X249568234Y-57591047D01*
X249615853Y-57638666D01*
X249663472Y-57662475D01*
X249187281Y-57567237D02*
X249163472Y-57543428D01*
X249115853Y-57519618D01*
X248996805Y-57519618D01*
X248949186Y-57543428D01*
X248925377Y-57567237D01*
X248901567Y-57614856D01*
X248901567Y-57662475D01*
X248925377Y-57733904D01*
X249211091Y-58019618D01*
X248901567Y-58019618D01*
X229819186Y-50104618D02*
X229819186Y-50461761D01*
X229842996Y-50533189D01*
X229890615Y-50580808D01*
X229962043Y-50604618D01*
X230009662Y-50604618D01*
X229319186Y-50604618D02*
X229604900Y-50604618D01*
X229462043Y-50604618D02*
X229462043Y-50104618D01*
X229509662Y-50176047D01*
X229557281Y-50223666D01*
X229604900Y-50247475D01*
X249901567Y-48269618D02*
X249901567Y-47769618D01*
X249782520Y-47769618D01*
X249711091Y-47793428D01*
X249663472Y-47841047D01*
X249639662Y-47888666D01*
X249615853Y-47983904D01*
X249615853Y-48055332D01*
X249639662Y-48150570D01*
X249663472Y-48198189D01*
X249711091Y-48245808D01*
X249782520Y-48269618D01*
X249901567Y-48269618D01*
X249425377Y-47817237D02*
X249401567Y-47793428D01*
X249353948Y-47769618D01*
X249234900Y-47769618D01*
X249187281Y-47793428D01*
X249163472Y-47817237D01*
X249139662Y-47864856D01*
X249139662Y-47912475D01*
X249163472Y-47983904D01*
X249449186Y-48269618D01*
X249139662Y-48269618D01*
X243949186Y-46269618D02*
X243949186Y-46626761D01*
X243972996Y-46698189D01*
X244020615Y-46745808D01*
X244092043Y-46769618D01*
X244139662Y-46769618D01*
X243472996Y-46269618D02*
X243711091Y-46269618D01*
X243734900Y-46507713D01*
X243711091Y-46483904D01*
X243663472Y-46460094D01*
X243544424Y-46460094D01*
X243496805Y-46483904D01*
X243472996Y-46507713D01*
X243449186Y-46555332D01*
X243449186Y-46674380D01*
X243472996Y-46721999D01*
X243496805Y-46745808D01*
X243544424Y-46769618D01*
X243663472Y-46769618D01*
X243711091Y-46745808D01*
X243734900Y-46721999D01*
X226069186Y-48854618D02*
X226069186Y-49211761D01*
X226092996Y-49283189D01*
X226140615Y-49330808D01*
X226212043Y-49354618D01*
X226259662Y-49354618D01*
X225878710Y-48854618D02*
X225569186Y-48854618D01*
X225735853Y-49045094D01*
X225664424Y-49045094D01*
X225616805Y-49068904D01*
X225592996Y-49092713D01*
X225569186Y-49140332D01*
X225569186Y-49259380D01*
X225592996Y-49306999D01*
X225616805Y-49330808D01*
X225664424Y-49354618D01*
X225807281Y-49354618D01*
X225854900Y-49330808D01*
X225878710Y-49306999D01*
X214569186Y-48854618D02*
X214569186Y-49211761D01*
X214592996Y-49283189D01*
X214640615Y-49330808D01*
X214712043Y-49354618D01*
X214759662Y-49354618D01*
X214116805Y-49021285D02*
X214116805Y-49354618D01*
X214235853Y-48830808D02*
X214354900Y-49187951D01*
X214045377Y-49187951D01*
X210819186Y-50104618D02*
X210819186Y-50461761D01*
X210842996Y-50533189D01*
X210890615Y-50580808D01*
X210962043Y-50604618D01*
X211009662Y-50604618D01*
X210604900Y-50152237D02*
X210581091Y-50128428D01*
X210533472Y-50104618D01*
X210414424Y-50104618D01*
X210366805Y-50128428D01*
X210342996Y-50152237D01*
X210319186Y-50199856D01*
X210319186Y-50247475D01*
X210342996Y-50318904D01*
X210628710Y-50604618D01*
X210319186Y-50604618D01*
X249826567Y-100104618D02*
X249826567Y-99604618D01*
X249707520Y-99604618D01*
X249636091Y-99628428D01*
X249588472Y-99676047D01*
X249564662Y-99723666D01*
X249540853Y-99818904D01*
X249540853Y-99890332D01*
X249564662Y-99985570D01*
X249588472Y-100033189D01*
X249636091Y-100080808D01*
X249707520Y-100104618D01*
X249826567Y-100104618D01*
X249112281Y-99771285D02*
X249112281Y-100104618D01*
X249231329Y-99580808D02*
X249350377Y-99937951D01*
X249040853Y-99937951D01*
X249778948Y-89944618D02*
X249945615Y-89706523D01*
X250064662Y-89944618D02*
X250064662Y-89444618D01*
X249874186Y-89444618D01*
X249826567Y-89468428D01*
X249802758Y-89492237D01*
X249778948Y-89539856D01*
X249778948Y-89611285D01*
X249802758Y-89658904D01*
X249826567Y-89682713D01*
X249874186Y-89706523D01*
X250064662Y-89706523D01*
X249302758Y-89944618D02*
X249588472Y-89944618D01*
X249445615Y-89944618D02*
X249445615Y-89444618D01*
X249493234Y-89516047D01*
X249540853Y-89563666D01*
X249588472Y-89587475D01*
X248874186Y-89611285D02*
X248874186Y-89944618D01*
X248993234Y-89420808D02*
X249112281Y-89777951D01*
X248802758Y-89777951D01*
D12*
X249980020Y-55173704D02*
X249980020Y-55683152D01*
X248935020Y-55173704D02*
X248935020Y-55683152D01*
X230252520Y-48353428D02*
X230252520Y-49683428D01*
X232912520Y-50953428D02*
X230252520Y-50953428D01*
X230252520Y-50953428D02*
X230252520Y-96733428D01*
X232912520Y-96733428D02*
X230252520Y-96733428D01*
X231582520Y-48353428D02*
X230252520Y-48353428D01*
X232912520Y-50953428D02*
X232912520Y-96733428D01*
X248322520Y-53443428D02*
X248322520Y-49383428D01*
X250592520Y-53443428D02*
X248322520Y-53443428D01*
X250592520Y-49383428D02*
X250592520Y-53443428D01*
X247612520Y-98033428D02*
X242412520Y-98033428D01*
X247612520Y-47113428D02*
X245012520Y-47113428D01*
X245012520Y-47113428D02*
X245012520Y-49713428D01*
X247612520Y-47113428D02*
X247612520Y-98033428D01*
X242412520Y-47113428D02*
X242412520Y-48443428D01*
X242412520Y-49713428D02*
X242412520Y-98033428D01*
X245012520Y-49713428D02*
X242412520Y-49713428D01*
X243742520Y-47113428D02*
X242412520Y-47113428D01*
X229102520Y-49683428D02*
X229102520Y-98003428D01*
X229102520Y-98003428D02*
X226442520Y-98003428D01*
X227772520Y-47083428D02*
X226442520Y-47083428D01*
X229102520Y-49683428D02*
X226442520Y-49683428D01*
X226442520Y-49683428D02*
X226442520Y-98003428D01*
X226442520Y-47083428D02*
X226442520Y-48413428D01*
X211202520Y-49683428D02*
X211202520Y-98003428D01*
X213862520Y-98003428D02*
X211202520Y-98003428D01*
X213862520Y-49683428D02*
X213862520Y-98003428D01*
X211202520Y-47083428D02*
X211202520Y-48413428D01*
X213862520Y-49683428D02*
X211202520Y-49683428D01*
X212532520Y-47083428D02*
X211202520Y-47083428D01*
X207392520Y-48353428D02*
X207392520Y-49683428D01*
X210052520Y-50953428D02*
X210052520Y-96733428D01*
X210052520Y-96733428D02*
X207392520Y-96733428D01*
X207392520Y-50953428D02*
X207392520Y-96733428D01*
X208722520Y-48353428D02*
X207392520Y-48353428D01*
X210052520Y-50953428D02*
X207392520Y-50953428D01*
X250592520Y-95103428D02*
X250592520Y-99163428D01*
X250592520Y-99163428D02*
X248322520Y-99163428D01*
X248322520Y-99163428D02*
X248322520Y-95103428D01*
X249980020Y-92513152D02*
X249980020Y-92003704D01*
X248935020Y-92513152D02*
X248935020Y-92003704D01*
%LPC*%
D13*
X207032520Y-103043428D03*
D14*
X207032520Y-103043428D03*
D15*
X207032520Y-42043428D03*
D14*
X245032520Y-103043428D03*
D13*
X245032520Y-103043428D03*
D15*
X245032520Y-42043428D03*
D16*
X249457520Y-54515928D03*
X249457520Y-56340928D03*
D17*
X231582520Y-49683428D03*
D18*
X231582520Y-52223428D03*
X231582520Y-54763428D03*
X231582520Y-57303428D03*
X231582520Y-59843428D03*
X231582520Y-62383428D03*
X231582520Y-64923428D03*
X231582520Y-67463428D03*
X231582520Y-70003428D03*
X231582520Y-72543428D03*
X231582520Y-75083428D03*
X231582520Y-77623428D03*
X231582520Y-80163428D03*
X231582520Y-82703428D03*
X231582520Y-85243428D03*
X231582520Y-87783428D03*
X231582520Y-90323428D03*
X231582520Y-92863428D03*
X231582520Y-95403428D03*
D19*
X249457520Y-52470928D03*
X249457520Y-49495928D03*
D17*
X243742520Y-48443428D03*
D18*
X246282520Y-48443428D03*
X243742520Y-50983428D03*
X246282520Y-50983428D03*
X243742520Y-53523428D03*
X246282520Y-53523428D03*
X243742520Y-56063428D03*
X246282520Y-56063428D03*
X243742520Y-58603428D03*
X246282520Y-58603428D03*
X243742520Y-61143428D03*
X246282520Y-61143428D03*
X243742520Y-63683428D03*
X246282520Y-63683428D03*
X243742520Y-66223428D03*
X246282520Y-66223428D03*
X243742520Y-68763428D03*
X246282520Y-68763428D03*
X243742520Y-71303428D03*
X246282520Y-71303428D03*
X243742520Y-73843428D03*
X246282520Y-73843428D03*
X243742520Y-76383428D03*
X246282520Y-76383428D03*
X243742520Y-78923428D03*
X246282520Y-78923428D03*
X243742520Y-81463428D03*
X246282520Y-81463428D03*
X243742520Y-84003428D03*
X246282520Y-84003428D03*
X243742520Y-86543428D03*
X246282520Y-86543428D03*
X243742520Y-89083428D03*
X246282520Y-89083428D03*
X243742520Y-91623428D03*
X246282520Y-91623428D03*
X243742520Y-94163428D03*
X246282520Y-94163428D03*
X243742520Y-96703428D03*
X246282520Y-96703428D03*
D17*
X227772520Y-48413428D03*
D18*
X227772520Y-50953428D03*
X227772520Y-53493428D03*
X227772520Y-56033428D03*
X227772520Y-58573428D03*
X227772520Y-61113428D03*
X227772520Y-63653428D03*
X227772520Y-66193428D03*
X227772520Y-68733428D03*
X227772520Y-71273428D03*
X227772520Y-73813428D03*
X227772520Y-76353428D03*
X227772520Y-78893428D03*
X227772520Y-81433428D03*
X227772520Y-83973428D03*
X227772520Y-86513428D03*
X227772520Y-89053428D03*
X227772520Y-91593428D03*
X227772520Y-94133428D03*
X227772520Y-96673428D03*
D17*
X212532520Y-48413428D03*
D18*
X212532520Y-50953428D03*
X212532520Y-53493428D03*
X212532520Y-56033428D03*
X212532520Y-58573428D03*
X212532520Y-61113428D03*
X212532520Y-63653428D03*
X212532520Y-66193428D03*
X212532520Y-68733428D03*
X212532520Y-71273428D03*
X212532520Y-73813428D03*
X212532520Y-76353428D03*
X212532520Y-78893428D03*
X212532520Y-81433428D03*
X212532520Y-83973428D03*
X212532520Y-86513428D03*
X212532520Y-89053428D03*
X212532520Y-91593428D03*
X212532520Y-94133428D03*
X212532520Y-96673428D03*
D17*
X208722520Y-49683428D03*
D18*
X208722520Y-52223428D03*
X208722520Y-54763428D03*
X208722520Y-57303428D03*
X208722520Y-59843428D03*
X208722520Y-62383428D03*
X208722520Y-64923428D03*
X208722520Y-67463428D03*
X208722520Y-70003428D03*
X208722520Y-72543428D03*
X208722520Y-75083428D03*
X208722520Y-77623428D03*
X208722520Y-80163428D03*
X208722520Y-82703428D03*
X208722520Y-85243428D03*
X208722520Y-87783428D03*
X208722520Y-90323428D03*
X208722520Y-92863428D03*
X208722520Y-95403428D03*
D19*
X249457520Y-98190928D03*
X249457520Y-95215928D03*
D20*
X249457520Y-93170928D03*
X249457520Y-91345928D03*
M02*
