G04 #@! TF.GenerationSoftware,KiCad,Pcbnew,(6.0.0)*
G04 #@! TF.CreationDate,2025-05-03T15:15:50+02:00*
G04 #@! TF.ProjectId,Smart Servo Control Board Rev.2,536d6172-7420-4536-9572-766f20436f6e,rev?*
G04 #@! TF.SameCoordinates,Original*
G04 #@! TF.FileFunction,Legend,Top*
G04 #@! TF.FilePolarity,Positive*
%FSLAX46Y46*%
G04 Gerber Fmt 4.6, Leading zero omitted, Abs format (unit mm)*
G04 Created by KiCad (PCBNEW (6.0.0)) date 2025-05-03 15:15:50*
%MOMM*%
%LPD*%
G01*
G04 APERTURE LIST*
%ADD10C,0.125000*%
%ADD11C,7.500000*%
%ADD12C,4.700000*%
%ADD13C,4.300000*%
%ADD14R,1.700000X1.700000*%
%ADD15O,1.700000X1.700000*%
G04 APERTURE END LIST*
D10*
X221413472Y-40495808D02*
X221413472Y-41210094D01*
X221365853Y-41352951D01*
X221270615Y-41448189D01*
X221127758Y-41495808D01*
X221032520Y-41495808D01*
X222365853Y-41495808D02*
X221889662Y-41495808D01*
X221889662Y-40495808D01*
X223270615Y-41400570D02*
X223222996Y-41448189D01*
X223080139Y-41495808D01*
X222984900Y-41495808D01*
X222842043Y-41448189D01*
X222746805Y-41352951D01*
X222699186Y-41257713D01*
X222651567Y-41067237D01*
X222651567Y-40924380D01*
X222699186Y-40733904D01*
X222746805Y-40638666D01*
X222842043Y-40543428D01*
X222984900Y-40495808D01*
X223080139Y-40495808D01*
X223222996Y-40543428D01*
X223270615Y-40591047D01*
X223984900Y-40495808D02*
X223984900Y-41210094D01*
X223937281Y-41352951D01*
X223842043Y-41448189D01*
X223699186Y-41495808D01*
X223603948Y-41495808D01*
X224937281Y-41495808D02*
X224461091Y-41495808D01*
X224461091Y-40495808D01*
X225842043Y-41400570D02*
X225794424Y-41448189D01*
X225651567Y-41495808D01*
X225556329Y-41495808D01*
X225413472Y-41448189D01*
X225318234Y-41352951D01*
X225270615Y-41257713D01*
X225222996Y-41067237D01*
X225222996Y-40924380D01*
X225270615Y-40733904D01*
X225318234Y-40638666D01*
X225413472Y-40543428D01*
X225556329Y-40495808D01*
X225651567Y-40495808D01*
X225794424Y-40543428D01*
X225842043Y-40591047D01*
X226556329Y-40495808D02*
X226556329Y-41210094D01*
X226508710Y-41352951D01*
X226413472Y-41448189D01*
X226270615Y-41495808D01*
X226175377Y-41495808D01*
X227508710Y-41495808D02*
X227032520Y-41495808D01*
X227032520Y-40495808D01*
X228413472Y-41400570D02*
X228365853Y-41448189D01*
X228222996Y-41495808D01*
X228127758Y-41495808D01*
X227984900Y-41448189D01*
X227889662Y-41352951D01*
X227842043Y-41257713D01*
X227794424Y-41067237D01*
X227794424Y-40924380D01*
X227842043Y-40733904D01*
X227889662Y-40638666D01*
X227984900Y-40543428D01*
X228127758Y-40495808D01*
X228222996Y-40495808D01*
X228365853Y-40543428D01*
X228413472Y-40591047D01*
X229127758Y-40495808D02*
X229127758Y-41210094D01*
X229080139Y-41352951D01*
X228984900Y-41448189D01*
X228842043Y-41495808D01*
X228746805Y-41495808D01*
X230080139Y-41495808D02*
X229603948Y-41495808D01*
X229603948Y-40495808D01*
X230984900Y-41400570D02*
X230937281Y-41448189D01*
X230794424Y-41495808D01*
X230699186Y-41495808D01*
X230556329Y-41448189D01*
X230461091Y-41352951D01*
X230413472Y-41257713D01*
X230365853Y-41067237D01*
X230365853Y-40924380D01*
X230413472Y-40733904D01*
X230461091Y-40638666D01*
X230556329Y-40543428D01*
X230699186Y-40495808D01*
X230794424Y-40495808D01*
X230937281Y-40543428D01*
X230984900Y-40591047D01*
X211663472Y-103269618D02*
X211663472Y-102769618D01*
X211663472Y-103007713D02*
X211949186Y-103007713D01*
X211949186Y-103269618D02*
X211949186Y-102769618D01*
X212449186Y-103269618D02*
X212163472Y-103269618D01*
X212306329Y-103269618D02*
X212306329Y-102769618D01*
X212258710Y-102841047D01*
X212211091Y-102888666D01*
X212163472Y-102912475D01*
X212615853Y-102769618D02*
X212925377Y-102769618D01*
X212758710Y-102960094D01*
X212830139Y-102960094D01*
X212877758Y-102983904D01*
X212901567Y-103007713D01*
X212925377Y-103055332D01*
X212925377Y-103174380D01*
X212901567Y-103221999D01*
X212877758Y-103245808D01*
X212830139Y-103269618D01*
X212687281Y-103269618D01*
X212639662Y-103245808D01*
X212615853Y-103221999D01*
X211913472Y-42269618D02*
X211913472Y-41769618D01*
X211913472Y-42007713D02*
X212199186Y-42007713D01*
X212199186Y-42269618D02*
X212199186Y-41769618D01*
X212699186Y-42269618D02*
X212413472Y-42269618D01*
X212556329Y-42269618D02*
X212556329Y-41769618D01*
X212508710Y-41841047D01*
X212461091Y-41888666D01*
X212413472Y-41912475D01*
X213127758Y-41936285D02*
X213127758Y-42269618D01*
X213008710Y-41745808D02*
X212889662Y-42102951D01*
X213199186Y-42102951D01*
X239163472Y-103269618D02*
X239163472Y-102769618D01*
X239163472Y-103007713D02*
X239449186Y-103007713D01*
X239449186Y-103269618D02*
X239449186Y-102769618D01*
X239949186Y-103269618D02*
X239663472Y-103269618D01*
X239806329Y-103269618D02*
X239806329Y-102769618D01*
X239758710Y-102841047D01*
X239711091Y-102888666D01*
X239663472Y-102912475D01*
X240377758Y-102769618D02*
X240282520Y-102769618D01*
X240234900Y-102793428D01*
X240211091Y-102817237D01*
X240163472Y-102888666D01*
X240139662Y-102983904D01*
X240139662Y-103174380D01*
X240163472Y-103221999D01*
X240187281Y-103245808D01*
X240234900Y-103269618D01*
X240330139Y-103269618D01*
X240377758Y-103245808D01*
X240401567Y-103221999D01*
X240425377Y-103174380D01*
X240425377Y-103055332D01*
X240401567Y-103007713D01*
X240377758Y-102983904D01*
X240330139Y-102960094D01*
X240234900Y-102960094D01*
X240187281Y-102983904D01*
X240163472Y-103007713D01*
X240139662Y-103055332D01*
X238913472Y-42269618D02*
X238913472Y-41769618D01*
X238913472Y-42007713D02*
X239199186Y-42007713D01*
X239199186Y-42269618D02*
X239199186Y-41769618D01*
X239699186Y-42269618D02*
X239413472Y-42269618D01*
X239556329Y-42269618D02*
X239556329Y-41769618D01*
X239508710Y-41841047D01*
X239461091Y-41888666D01*
X239413472Y-41912475D01*
X240151567Y-41769618D02*
X239913472Y-41769618D01*
X239889662Y-42007713D01*
X239913472Y-41983904D01*
X239961091Y-41960094D01*
X240080139Y-41960094D01*
X240127758Y-41983904D01*
X240151567Y-42007713D01*
X240175377Y-42055332D01*
X240175377Y-42174380D01*
X240151567Y-42221999D01*
X240127758Y-42245808D01*
X240080139Y-42269618D01*
X239961091Y-42269618D01*
X239913472Y-42245808D01*
X239889662Y-42221999D01*
%LPC*%
D11*
X207032520Y-103043428D03*
D12*
X207032520Y-103043428D03*
D13*
X207032520Y-42043428D03*
D12*
X245032520Y-103043428D03*
D11*
X245032520Y-103043428D03*
D13*
X245032520Y-42043428D03*
D14*
X231582520Y-49683428D03*
D15*
X231582520Y-52223428D03*
X231582520Y-54763428D03*
X231582520Y-57303428D03*
X231582520Y-59843428D03*
X231582520Y-62383428D03*
X231582520Y-64923428D03*
X231582520Y-67463428D03*
X231582520Y-70003428D03*
X231582520Y-72543428D03*
X231582520Y-75083428D03*
X231582520Y-77623428D03*
X231582520Y-80163428D03*
X231582520Y-82703428D03*
X231582520Y-85243428D03*
X231582520Y-87783428D03*
X231582520Y-90323428D03*
X231582520Y-92863428D03*
X231582520Y-95403428D03*
D14*
X243742520Y-48443428D03*
D15*
X246282520Y-48443428D03*
X243742520Y-50983428D03*
X246282520Y-50983428D03*
X243742520Y-53523428D03*
X246282520Y-53523428D03*
X243742520Y-56063428D03*
X246282520Y-56063428D03*
X243742520Y-58603428D03*
X246282520Y-58603428D03*
X243742520Y-61143428D03*
X246282520Y-61143428D03*
X243742520Y-63683428D03*
X246282520Y-63683428D03*
X243742520Y-66223428D03*
X246282520Y-66223428D03*
X243742520Y-68763428D03*
X246282520Y-68763428D03*
X243742520Y-71303428D03*
X246282520Y-71303428D03*
X243742520Y-73843428D03*
X246282520Y-73843428D03*
X243742520Y-76383428D03*
X246282520Y-76383428D03*
X243742520Y-78923428D03*
X246282520Y-78923428D03*
X243742520Y-81463428D03*
X246282520Y-81463428D03*
X243742520Y-84003428D03*
X246282520Y-84003428D03*
X243742520Y-86543428D03*
X246282520Y-86543428D03*
X243742520Y-89083428D03*
X246282520Y-89083428D03*
X243742520Y-91623428D03*
X246282520Y-91623428D03*
X243742520Y-94163428D03*
X246282520Y-94163428D03*
X243742520Y-96703428D03*
X246282520Y-96703428D03*
D14*
X227772520Y-48413428D03*
D15*
X227772520Y-50953428D03*
X227772520Y-53493428D03*
X227772520Y-56033428D03*
X227772520Y-58573428D03*
X227772520Y-61113428D03*
X227772520Y-63653428D03*
X227772520Y-66193428D03*
X227772520Y-68733428D03*
X227772520Y-71273428D03*
X227772520Y-73813428D03*
X227772520Y-76353428D03*
X227772520Y-78893428D03*
X227772520Y-81433428D03*
X227772520Y-83973428D03*
X227772520Y-86513428D03*
X227772520Y-89053428D03*
X227772520Y-91593428D03*
X227772520Y-94133428D03*
X227772520Y-96673428D03*
D14*
X212532520Y-48413428D03*
D15*
X212532520Y-50953428D03*
X212532520Y-53493428D03*
X212532520Y-56033428D03*
X212532520Y-58573428D03*
X212532520Y-61113428D03*
X212532520Y-63653428D03*
X212532520Y-66193428D03*
X212532520Y-68733428D03*
X212532520Y-71273428D03*
X212532520Y-73813428D03*
X212532520Y-76353428D03*
X212532520Y-78893428D03*
X212532520Y-81433428D03*
X212532520Y-83973428D03*
X212532520Y-86513428D03*
X212532520Y-89053428D03*
X212532520Y-91593428D03*
X212532520Y-94133428D03*
X212532520Y-96673428D03*
D14*
X208722520Y-49683428D03*
D15*
X208722520Y-52223428D03*
X208722520Y-54763428D03*
X208722520Y-57303428D03*
X208722520Y-59843428D03*
X208722520Y-62383428D03*
X208722520Y-64923428D03*
X208722520Y-67463428D03*
X208722520Y-70003428D03*
X208722520Y-72543428D03*
X208722520Y-75083428D03*
X208722520Y-77623428D03*
X208722520Y-80163428D03*
X208722520Y-82703428D03*
X208722520Y-85243428D03*
X208722520Y-87783428D03*
X208722520Y-90323428D03*
X208722520Y-92863428D03*
X208722520Y-95403428D03*
M02*
