M48
; DRILL file {KiCad (6.0.0)} date Sat May  3 15:15:52 2025
; FORMAT={-:-/ absolute / metric / decimal}
; #@! TF.CreationDate,2025-05-03T15:15:52+02:00
; #@! TF.GenerationSoftware,Kicad,Pcbnew,(6.0.0)
; #@! TF.FileFunction,Plated,1,4,PTH
FMAT,2
METRIC
; #@! TA.AperFunction,Plated,PTH,ComponentDrill
T1C1.000
; #@! TA.AperFunction,Plated,PTH,ComponentDrill
T2C4.300
%
G90
G05
T1
X208.723Y-49.683
X208.723Y-52.223
X208.723Y-54.763
X208.723Y-57.303
X208.723Y-59.843
X208.723Y-62.383
X208.723Y-64.923
X208.723Y-67.463
X208.723Y-70.003
X208.723Y-72.543
X208.723Y-75.083
X208.723Y-77.623
X208.723Y-80.163
X208.723Y-82.703
X208.723Y-85.243
X208.723Y-87.783
X208.723Y-90.323
X208.723Y-92.863
X208.723Y-95.403
X212.533Y-48.413
X212.533Y-50.953
X212.533Y-53.493
X212.533Y-56.033
X212.533Y-58.573
X212.533Y-61.113
X212.533Y-63.653
X212.533Y-66.193
X212.533Y-68.733
X212.533Y-71.273
X212.533Y-73.813
X212.533Y-76.353
X212.533Y-78.893
X212.533Y-81.433
X212.533Y-83.973
X212.533Y-86.513
X212.533Y-89.053
X212.533Y-91.593
X212.533Y-94.133
X212.533Y-96.673
X227.773Y-48.413
X227.773Y-50.953
X227.773Y-53.493
X227.773Y-56.033
X227.773Y-58.573
X227.773Y-61.113
X227.773Y-63.653
X227.773Y-66.193
X227.773Y-68.733
X227.773Y-71.273
X227.773Y-73.813
X227.773Y-76.353
X227.773Y-78.893
X227.773Y-81.433
X227.773Y-83.973
X227.773Y-86.513
X227.773Y-89.053
X227.773Y-91.593
X227.773Y-94.133
X227.773Y-96.673
X231.583Y-49.683
X231.583Y-52.223
X231.583Y-54.763
X231.583Y-57.303
X231.583Y-59.843
X231.583Y-62.383
X231.583Y-64.923
X231.583Y-67.463
X231.583Y-70.003
X231.583Y-72.543
X231.583Y-75.083
X231.583Y-77.623
X231.583Y-80.163
X231.583Y-82.703
X231.583Y-85.243
X231.583Y-87.783
X231.583Y-90.323
X231.583Y-92.863
X231.583Y-95.403
X243.743Y-48.443
X243.743Y-50.983
X243.743Y-53.523
X243.743Y-56.063
X243.743Y-58.603
X243.743Y-61.143
X243.743Y-63.683
X243.743Y-66.223
X243.743Y-68.763
X243.743Y-71.303
X243.743Y-73.843
X243.743Y-76.383
X243.743Y-78.923
X243.743Y-81.463
X243.743Y-84.003
X243.743Y-86.543
X243.743Y-89.083
X243.743Y-91.623
X243.743Y-94.163
X243.743Y-96.703
X246.283Y-48.443
X246.283Y-50.983
X246.283Y-53.523
X246.283Y-56.063
X246.283Y-58.603
X246.283Y-61.143
X246.283Y-63.683
X246.283Y-66.223
X246.283Y-68.763
X246.283Y-71.303
X246.283Y-73.843
X246.283Y-76.383
X246.283Y-78.923
X246.283Y-81.463
X246.283Y-84.003
X246.283Y-86.543
X246.283Y-89.083
X246.283Y-91.623
X246.283Y-94.163
X246.283Y-96.703
T2
X207.033Y-103.043
X245.033Y-103.043
T0
M30
