G04 #@! TF.GenerationSoftware,KiCad,Pcbnew,(6.0.0)*
G04 #@! TF.CreationDate,2025-05-03T15:15:50+02:00*
G04 #@! TF.ProjectId,Smart Servo Control Board Rev.2,536d6172-7420-4536-9572-766f20436f6e,rev?*
G04 #@! TF.SameCoordinates,Original*
G04 #@! TF.FileFunction,Soldermask,Bot*
G04 #@! TF.FilePolarity,Negative*
%FSLAX46Y46*%
G04 Gerber Fmt 4.6, Leading zero omitted, Abs format (unit mm)*
G04 Created by KiCad (PCBNEW (6.0.0)) date 2025-05-03 15:15:50*
%MOMM*%
%LPD*%
G01*
G04 APERTURE LIST*
G04 Aperture macros list*
%AMRoundRect*
0 Rectangle with rounded corners*
0 $1 Rounding radius*
0 $2 $3 $4 $5 $6 $7 $8 $9 X,Y pos of 4 corners*
0 Add a 4 corners polygon primitive as box body*
4,1,4,$2,$3,$4,$5,$6,$7,$8,$9,$2,$3,0*
0 Add four circle primitives for the rounded corners*
1,1,$1+$1,$2,$3*
1,1,$1+$1,$4,$5*
1,1,$1+$1,$6,$7*
1,1,$1+$1,$8,$9*
0 Add four rect primitives between the rounded corners*
20,1,$1+$1,$2,$3,$4,$5,0*
20,1,$1+$1,$4,$5,$6,$7,0*
20,1,$1+$1,$6,$7,$8,$9,0*
20,1,$1+$1,$8,$9,$2,$3,0*%
G04 Aperture macros list end*
%ADD10C,7.500000*%
%ADD11C,4.700000*%
%ADD12C,4.300000*%
%ADD13RoundRect,0.237500X-0.237500X0.250000X-0.237500X-0.250000X0.237500X-0.250000X0.237500X0.250000X0*%
%ADD14R,1.700000X1.700000*%
%ADD15O,1.700000X1.700000*%
%ADD16RoundRect,0.250001X0.624999X-0.462499X0.624999X0.462499X-0.624999X0.462499X-0.624999X-0.462499X0*%
%ADD17RoundRect,0.237500X0.237500X-0.250000X0.237500X0.250000X-0.237500X0.250000X-0.237500X-0.250000X0*%
G04 APERTURE END LIST*
D10*
X207032520Y-103043428D03*
D11*
X207032520Y-103043428D03*
D12*
X207032520Y-42043428D03*
D11*
X245032520Y-103043428D03*
D10*
X245032520Y-103043428D03*
D12*
X245032520Y-42043428D03*
D13*
X249457520Y-54515928D03*
X249457520Y-56340928D03*
D14*
X231582520Y-49683428D03*
D15*
X231582520Y-52223428D03*
X231582520Y-54763428D03*
X231582520Y-57303428D03*
X231582520Y-59843428D03*
X231582520Y-62383428D03*
X231582520Y-64923428D03*
X231582520Y-67463428D03*
X231582520Y-70003428D03*
X231582520Y-72543428D03*
X231582520Y-75083428D03*
X231582520Y-77623428D03*
X231582520Y-80163428D03*
X231582520Y-82703428D03*
X231582520Y-85243428D03*
X231582520Y-87783428D03*
X231582520Y-90323428D03*
X231582520Y-92863428D03*
X231582520Y-95403428D03*
D16*
X249457520Y-52470928D03*
X249457520Y-49495928D03*
D14*
X243742520Y-48443428D03*
D15*
X246282520Y-48443428D03*
X243742520Y-50983428D03*
X246282520Y-50983428D03*
X243742520Y-53523428D03*
X246282520Y-53523428D03*
X243742520Y-56063428D03*
X246282520Y-56063428D03*
X243742520Y-58603428D03*
X246282520Y-58603428D03*
X243742520Y-61143428D03*
X246282520Y-61143428D03*
X243742520Y-63683428D03*
X246282520Y-63683428D03*
X243742520Y-66223428D03*
X246282520Y-66223428D03*
X243742520Y-68763428D03*
X246282520Y-68763428D03*
X243742520Y-71303428D03*
X246282520Y-71303428D03*
X243742520Y-73843428D03*
X246282520Y-73843428D03*
X243742520Y-76383428D03*
X246282520Y-76383428D03*
X243742520Y-78923428D03*
X246282520Y-78923428D03*
X243742520Y-81463428D03*
X246282520Y-81463428D03*
X243742520Y-84003428D03*
X246282520Y-84003428D03*
X243742520Y-86543428D03*
X246282520Y-86543428D03*
X243742520Y-89083428D03*
X246282520Y-89083428D03*
X243742520Y-91623428D03*
X246282520Y-91623428D03*
X243742520Y-94163428D03*
X246282520Y-94163428D03*
X243742520Y-96703428D03*
X246282520Y-96703428D03*
D14*
X227772520Y-48413428D03*
D15*
X227772520Y-50953428D03*
X227772520Y-53493428D03*
X227772520Y-56033428D03*
X227772520Y-58573428D03*
X227772520Y-61113428D03*
X227772520Y-63653428D03*
X227772520Y-66193428D03*
X227772520Y-68733428D03*
X227772520Y-71273428D03*
X227772520Y-73813428D03*
X227772520Y-76353428D03*
X227772520Y-78893428D03*
X227772520Y-81433428D03*
X227772520Y-83973428D03*
X227772520Y-86513428D03*
X227772520Y-89053428D03*
X227772520Y-91593428D03*
X227772520Y-94133428D03*
X227772520Y-96673428D03*
D14*
X212532520Y-48413428D03*
D15*
X212532520Y-50953428D03*
X212532520Y-53493428D03*
X212532520Y-56033428D03*
X212532520Y-58573428D03*
X212532520Y-61113428D03*
X212532520Y-63653428D03*
X212532520Y-66193428D03*
X212532520Y-68733428D03*
X212532520Y-71273428D03*
X212532520Y-73813428D03*
X212532520Y-76353428D03*
X212532520Y-78893428D03*
X212532520Y-81433428D03*
X212532520Y-83973428D03*
X212532520Y-86513428D03*
X212532520Y-89053428D03*
X212532520Y-91593428D03*
X212532520Y-94133428D03*
X212532520Y-96673428D03*
D14*
X208722520Y-49683428D03*
D15*
X208722520Y-52223428D03*
X208722520Y-54763428D03*
X208722520Y-57303428D03*
X208722520Y-59843428D03*
X208722520Y-62383428D03*
X208722520Y-64923428D03*
X208722520Y-67463428D03*
X208722520Y-70003428D03*
X208722520Y-72543428D03*
X208722520Y-75083428D03*
X208722520Y-77623428D03*
X208722520Y-80163428D03*
X208722520Y-82703428D03*
X208722520Y-85243428D03*
X208722520Y-87783428D03*
X208722520Y-90323428D03*
X208722520Y-92863428D03*
X208722520Y-95403428D03*
D16*
X249457520Y-98190928D03*
X249457520Y-95215928D03*
D17*
X249457520Y-93170928D03*
X249457520Y-91345928D03*
M02*
